<svg xmlns="http://www.w3.org/2000/svg" viewBox="0 0 1043 583" width="1043" height="583">
  <rect x="0" y="0" width="1043" height="583" fill="#fff"/>
  <g id="facade_outline">
    <polygon id="facade_0001" points="0,0 1043,0 1043,583 0,583" stroke="#000" stroke-width="2" fill="none"/>
  </g>
  <g id="openings_windows">
    <rect id="window_0001" x="60" y="80" width="104" height="96" stroke="#000" stroke-width="1" fill="none" data-conf="0.9897" data-type="window"/>
    <rect id="window_0002" x="240" y="80" width="104" height="96" stroke="#000" stroke-width="1" fill="none" data-conf="0.9897" data-type="window"/>
    <rect id="window_0003" x="420" y="80" width="104" height="96" stroke="#000" stroke-width="1" fill="none" data-conf="0.9896" data-type="window"/>
    <rect id="window_0004" x="600" y="80" width="104" height="96" stroke="#000" stroke-width="1" fill="none" data-conf="0.9873" data-type="window"/>
    <rect id="window_0005" x="780" y="80" width="104" height="96" stroke="#000" stroke-width="1" fill="none" data-conf="0.9897" data-type="window"/>
    <rect id="window_0006" x="64" y="84" width="96" height="84" stroke="#000" stroke-width="1" fill="none" data-conf="0.9839" data-type="window"/>
    <rect id="window_0007" x="244" y="84" width="96" height="84" stroke="#000" stroke-width="1" fill="none" data-conf="0.9847" data-type="window"/>
    <rect id="window_0008" x="424" y="84" width="96" height="84" stroke="#000" stroke-width="1" fill="none" data-conf="0.9889" data-type="window"/>
    <rect id="window_0009" x="604" y="84" width="96" height="84" stroke="#000" stroke-width="1" fill="none" data-conf="0.9843" data-type="window"/>
    <rect id="window_0010" x="784" y="84" width="96" height="84" stroke="#000" stroke-width="1" fill="none" data-conf="0.9885" data-type="window"/>
    <rect id="window_0011" x="60" y="216" width="104" height="96" stroke="#000" stroke-width="1" fill="none" data-conf="0.9895" data-type="window"/>
    <rect id="window_0012" x="240" y="216" width="104" height="96" stroke="#000" stroke-width="1" fill="none" data-conf="0.9867" data-type="window"/>
    <rect id="window_0013" x="420" y="220" width="104" height="92" stroke="#000" stroke-width="1" fill="none" data-conf="0.9855" data-type="window"/>
    <rect id="window_0014" x="600" y="220" width="104" height="96" stroke="#000" stroke-width="1" fill="none" data-conf="0.9820" data-type="window"/>
    <rect id="window_0015" x="776" y="220" width="108" height="96" stroke="#000" stroke-width="1" fill="none" data-conf="0.9895" data-type="window"/>
    <rect id="window_0016" x="64" y="224" width="96" height="84" stroke="#000" stroke-width="1" fill="none" data-conf="0.9889" data-type="window"/>
    <rect id="window_0017" x="244" y="224" width="96" height="88" stroke="#000" stroke-width="1" fill="none" data-conf="0.9835" data-type="window"/>
    <rect id="window_0018" x="424" y="224" width="96" height="88" stroke="#000" stroke-width="1" fill="none" data-conf="0.9848" data-type="window"/>
    <rect id="window_0019" x="604" y="224" width="96" height="88" stroke="#000" stroke-width="1" fill="none" data-conf="0.9807" data-type="window"/>
    <rect id="window_0020" x="784" y="224" width="96" height="88" stroke="#000" stroke-width="1" fill="none" data-conf="0.9889" data-type="window"/>
    <rect id="window_0021" x="60" y="360" width="104" height="96" stroke="#000" stroke-width="1" fill="none" data-conf="0.9884" data-type="window"/>
    <rect id="window_0022" x="240" y="360" width="104" height="96" stroke="#000" stroke-width="1" fill="none" data-conf="0.9897" data-type="window"/>
    <rect id="window_0023" x="416" y="360" width="168" height="212" stroke="#000" stroke-width="1" fill="none" data-conf="0.9431" data-type="window"/>
    <rect id="window_0024" x="600" y="360" width="104" height="96" stroke="#000" stroke-width="1" fill="none" data-conf="0.9897" data-type="window"/>
    <rect id="window_0025" x="776" y="360" width="108" height="96" stroke="#000" stroke-width="1" fill="none" data-conf="0.9897" data-type="window"/>
    <rect id="window_0026" x="64" y="364" width="96" height="84" stroke="#000" stroke-width="1" fill="none" data-conf="0.9842" data-type="window"/>
    <rect id="window_0027" x="244" y="364" width="96" height="84" stroke="#000" stroke-width="1" fill="none" data-conf="0.9883" data-type="window"/>
    <rect id="window_0028" x="424" y="364" width="96" height="84" stroke="#000" stroke-width="1" fill="none" data-conf="0.6498" data-type="window"/>
    <rect id="window_0029" x="604" y="364" width="96" height="84" stroke="#000" stroke-width="1" fill="none" data-conf="0.9843" data-type="window"/>
    <rect id="window_0030" x="784" y="364" width="96" height="84" stroke="#000" stroke-width="1" fill="none" data-conf="0.9841" data-type="window"/>
    <rect id="window_0031" x="444" y="384" width="136" height="184" stroke="#000" stroke-width="1" fill="none" data-conf="0.8803" data-type="window"/>
    <rect id="window_0032" x="444" y="384" width="76" height="64" stroke="#000" stroke-width="1" fill="none" data-conf="0.9802" data-type="window"/>
  </g>
  <g id="openings_doors">
  </g>
  <g id="lines">
    <line id="line_0001" x1="4" y1="576" x2="1036" y2="576" stroke="#000" stroke-width="1" data-conf="0.8641"/>
    <line id="line_0002" x1="1036" y1="4" x2="8" y2="4" stroke="#000" stroke-width="1" data-conf="0.8631"/>
    <line id="line_0003" x1="4" y1="4" x2="4" y2="576" stroke="#000" stroke-width="1" data-conf="0.4791"/>
    <line id="line_0004" x1="1036" y1="576" x2="1036" y2="8" stroke="#000" stroke-width="1" data-conf="0.4781"/>
    <line id="line_0005" x1="584" y1="380" x2="584" y2="572" stroke="#000" stroke-width="1" data-conf="0.1590"/>
    <line id="line_0006" x1="576" y1="568" x2="576" y2="384" stroke="#000" stroke-width="1" data-conf="0.1527"/>
    <line id="line_0007" x1="580" y1="572" x2="440" y2="572" stroke="#000" stroke-width="1" data-conf="0.1172"/>
    <line id="line_0008" x1="444" y1="568" x2="576" y2="568" stroke="#000" stroke-width="1" data-conf="0.1109"/>
    <line id="line_0009" x1="440" y1="572" x2="440" y2="456" stroke="#000" stroke-width="1" data-conf="0.0973"/>
    <line id="line_0010" x1="444" y1="456" x2="444" y2="568" stroke="#000" stroke-width="1" data-conf="0.0942"/>
    <line id="line_0011" x1="880" y1="312" x2="780" y2="312" stroke="#000" stroke-width="1" data-conf="0.0847"/>
    <line id="line_0012" x1="64" y1="80" x2="160" y2="80" stroke="#000" stroke-width="1" data-conf="0.0837"/>
    <line id="line_0013" x1="600" y1="360" x2="700" y2="360" stroke="#000" stroke-width="1" data-conf="0.0837"/>
    <line id="line_0014" x1="700" y1="312" x2="600" y2="312" stroke="#000" stroke-width="1" data-conf="0.0837"/>
    <line id="line_0015" x1="700" y1="452" x2="600" y2="452" stroke="#000" stroke-width="1" data-conf="0.0837"/>
    <line id="line_0016" x1="780" y1="360" x2="880" y2="360" stroke="#000" stroke-width="1" data-conf="0.0837"/>
    <line id="line_0017" x1="784" y1="220" x2="880" y2="220" stroke="#000" stroke-width="1" data-conf="0.0837"/>
    <line id="line_0018" x1="340" y1="172" x2="240" y2="172" stroke="#000" stroke-width="1" data-conf="0.0826"/>
    <line id="line_0019" x1="880" y1="452" x2="780" y2="452" stroke="#000" stroke-width="1" data-conf="0.0826"/>
    <line id="line_0020" x1="240" y1="216" x2="340" y2="216" stroke="#000" stroke-width="1" data-conf="0.0826"/>
    <line id="line_0021" x1="520" y1="312" x2="424" y2="312" stroke="#000" stroke-width="1" data-conf="0.0826"/>
    <line id="line_0022" x1="424" y1="216" x2="520" y2="216" stroke="#000" stroke-width="1" data-conf="0.0826"/>
    <line id="line_0023" x1="424" y1="360" x2="520" y2="360" stroke="#000" stroke-width="1" data-conf="0.0826"/>
    <line id="line_0024" x1="160" y1="172" x2="64" y2="172" stroke="#000" stroke-width="1" data-conf="0.0826"/>
    <line id="line_0025" x1="520" y1="176" x2="424" y2="176" stroke="#000" stroke-width="1" data-conf="0.0826"/>
    <line id="line_0026" x1="240" y1="80" x2="340" y2="80" stroke="#000" stroke-width="1" data-conf="0.0826"/>
    <line id="line_0027" x1="64" y1="216" x2="160" y2="216" stroke="#000" stroke-width="1" data-conf="0.0826"/>
    <line id="line_0028" x1="340" y1="312" x2="240" y2="312" stroke="#000" stroke-width="1" data-conf="0.0826"/>
    <line id="line_0029" x1="784" y1="80" x2="880" y2="80" stroke="#000" stroke-width="1" data-conf="0.0826"/>
    <line id="line_0030" x1="240" y1="360" x2="340" y2="360" stroke="#000" stroke-width="1" data-conf="0.0826"/>
    <line id="line_0031" x1="160" y1="312" x2="64" y2="312" stroke="#000" stroke-width="1" data-conf="0.0826"/>
    <line id="line_0032" x1="340" y1="452" x2="240" y2="452" stroke="#000" stroke-width="1" data-conf="0.0826"/>
    <line id="line_0033" x1="600" y1="220" x2="700" y2="220" stroke="#000" stroke-width="1" data-conf="0.0826"/>
    <line id="line_0034" x1="64" y1="360" x2="160" y2="360" stroke="#000" stroke-width="1" data-conf="0.0826"/>
    <line id="line_0035" x1="600" y1="80" x2="700" y2="80" stroke="#000" stroke-width="1" data-conf="0.0826"/>
    <line id="line_0036" x1="160" y1="452" x2="64" y2="452" stroke="#000" stroke-width="1" data-conf="0.0826"/>
    <line id="line_0037" x1="424" y1="80" x2="520" y2="80" stroke="#000" stroke-width="1" data-conf="0.0826"/>
    <line id="line_0038" x1="700" y1="176" x2="600" y2="176" stroke="#000" stroke-width="1" data-conf="0.0826"/>
    <line id="line_0039" x1="880" y1="176" x2="784" y2="176" stroke="#000" stroke-width="1" data-conf="0.0826"/>
    <line id="line_0040" x1="784" y1="448" x2="876" y2="448" stroke="#000" stroke-width="1" data-conf="0.0785"/>
    <line id="line_0041" x1="244" y1="168" x2="336" y2="168" stroke="#000" stroke-width="1" data-conf="0.0785"/>
    <line id="line_0042" x1="336" y1="224" x2="244" y2="224" stroke="#000" stroke-width="1" data-conf="0.0785"/>
    <line id="line_0043" x1="244" y1="308" x2="336" y2="308" stroke="#000" stroke-width="1" data-conf="0.0785"/>
    <line id="line_0044" x1="336" y1="84" x2="244" y2="84" stroke="#000" stroke-width="1" data-conf="0.0785"/>
    <line id="line_0045" x1="64" y1="308" x2="160" y2="308" stroke="#000" stroke-width="1" data-conf="0.0785"/>
    <line id="line_0046" x1="520" y1="84" x2="424" y2="84" stroke="#000" stroke-width="1" data-conf="0.0785"/>
    <line id="line_0047" x1="160" y1="84" x2="64" y2="84" stroke="#000" stroke-width="1" data-conf="0.0774"/>
    <line id="line_0048" x1="696" y1="364" x2="604" y2="364" stroke="#000" stroke-width="1" data-conf="0.0774"/>
    <line id="line_0049" x1="424" y1="308" x2="516" y2="308" stroke="#000" stroke-width="1" data-conf="0.0774"/>
    <line id="line_0050" x1="516" y1="224" x2="424" y2="224" stroke="#000" stroke-width="1" data-conf="0.0774"/>
    <line id="line_0051" x1="604" y1="448" x2="696" y2="448" stroke="#000" stroke-width="1" data-conf="0.0774"/>
    <line id="line_0052" x1="604" y1="308" x2="696" y2="308" stroke="#000" stroke-width="1" data-conf="0.0774"/>
    <line id="line_0053" x1="516" y1="364" x2="424" y2="364" stroke="#000" stroke-width="1" data-conf="0.0774"/>
    <line id="line_0054" x1="64" y1="168" x2="160" y2="168" stroke="#000" stroke-width="1" data-conf="0.0774"/>
    <line id="line_0055" x1="160" y1="224" x2="64" y2="224" stroke="#000" stroke-width="1" data-conf="0.0774"/>
    <line id="line_0056" x1="424" y1="168" x2="516" y2="168" stroke="#000" stroke-width="1" data-conf="0.0774"/>
    <line id="line_0057" x1="876" y1="364" x2="784" y2="364" stroke="#000" stroke-width="1" data-conf="0.0774"/>
    <line id="line_0058" x1="336" y1="364" x2="244" y2="364" stroke="#000" stroke-width="1" data-conf="0.0774"/>
    <line id="line_0059" x1="876" y1="84" x2="784" y2="84" stroke="#000" stroke-width="1" data-conf="0.0774"/>
    <line id="line_0060" x1="696" y1="224" x2="604" y2="224" stroke="#000" stroke-width="1" data-conf="0.0774"/>
    <line id="line_0061" x1="244" y1="448" x2="336" y2="448" stroke="#000" stroke-width="1" data-conf="0.0774"/>
    <line id="line_0062" x1="156" y1="364" x2="64" y2="364" stroke="#000" stroke-width="1" data-conf="0.0774"/>
    <line id="line_0063" x1="784" y1="308" x2="876" y2="308" stroke="#000" stroke-width="1" data-conf="0.0774"/>
    <line id="line_0064" x1="784" y1="168" x2="876" y2="168" stroke="#000" stroke-width="1" data-conf="0.0774"/>
    <line id="line_0065" x1="604" y1="168" x2="696" y2="168" stroke="#000" stroke-width="1" data-conf="0.0774"/>
    <line id="line_0066" x1="64" y1="448" x2="156" y2="448" stroke="#000" stroke-width="1" data-conf="0.0774"/>
    <line id="line_0067" x1="696" y1="84" x2="604" y2="84" stroke="#000" stroke-width="1" data-conf="0.0774"/>
    <line id="line_0068" x1="876" y1="224" x2="784" y2="224" stroke="#000" stroke-width="1" data-conf="0.0774"/>
    <line id="line_0069" x1="164" y1="220" x2="164" y2="312" stroke="#000" stroke-width="1" data-conf="0.0764"/>
    <line id="line_0070" x1="344" y1="360" x2="344" y2="452" stroke="#000" stroke-width="1" data-conf="0.0753"/>
    <line id="line_0071" x1="240" y1="452" x2="240" y2="360" stroke="#000" stroke-width="1" data-conf="0.0753"/>
    <line id="line_0072" x1="416" y1="452" x2="416" y2="360" stroke="#000" stroke-width="1" data-conf="0.0753"/>
    <line id="line_0073" x1="60" y1="172" x2="60" y2="80" stroke="#000" stroke-width="1" data-conf="0.0753"/>
    <line id="line_0074" x1="164" y1="360" x2="164" y2="452" stroke="#000" stroke-width="1" data-conf="0.0753"/>
    <line id="line_0075" x1="600" y1="452" x2="600" y2="360" stroke="#000" stroke-width="1" data-conf="0.0753"/>
    <line id="line_0076" x1="704" y1="360" x2="704" y2="452" stroke="#000" stroke-width="1" data-conf="0.0753"/>
    <line id="line_0077" x1="164" y1="80" x2="164" y2="172" stroke="#000" stroke-width="1" data-conf="0.0753"/>
    <line id="line_0078" x1="240" y1="172" x2="240" y2="80" stroke="#000" stroke-width="1" data-conf="0.0753"/>
    <line id="line_0079" x1="524" y1="80" x2="524" y2="172" stroke="#000" stroke-width="1" data-conf="0.0753"/>
    <line id="line_0080" x1="240" y1="312" x2="240" y2="220" stroke="#000" stroke-width="1" data-conf="0.0753"/>
    <line id="line_0081" x1="884" y1="80" x2="884" y2="172" stroke="#000" stroke-width="1" data-conf="0.0743"/>
    <line id="line_0082" x1="776" y1="172" x2="776" y2="80" stroke="#000" stroke-width="1" data-conf="0.0743"/>
    <line id="line_0083" x1="524" y1="224" x2="524" y2="312" stroke="#000" stroke-width="1" data-conf="0.0743"/>
    <line id="line_0084" x1="600" y1="312" x2="600" y2="224" stroke="#000" stroke-width="1" data-conf="0.0743"/>
    <line id="line_0085" x1="704" y1="224" x2="704" y2="312" stroke="#000" stroke-width="1" data-conf="0.0743"/>
    <line id="line_0086" x1="704" y1="80" x2="704" y2="172" stroke="#000" stroke-width="1" data-conf="0.0743"/>
    <line id="line_0087" x1="416" y1="312" x2="416" y2="224" stroke="#000" stroke-width="1" data-conf="0.0743"/>
    <line id="line_0088" x1="776" y1="312" x2="776" y2="224" stroke="#000" stroke-width="1" data-conf="0.0743"/>
    <line id="line_0089" x1="884" y1="224" x2="884" y2="312" stroke="#000" stroke-width="1" data-conf="0.0743"/>
    <line id="line_0090" x1="600" y1="172" x2="600" y2="80" stroke="#000" stroke-width="1" data-conf="0.0743"/>
    <line id="line_0091" x1="344" y1="224" x2="344" y2="312" stroke="#000" stroke-width="1" data-conf="0.0743"/>
    <line id="line_0092" x1="776" y1="452" x2="776" y2="360" stroke="#000" stroke-width="1" data-conf="0.0743"/>
    <line id="line_0093" x1="56" y1="448" x2="56" y2="360" stroke="#000" stroke-width="1" data-conf="0.0743"/>
    <line id="line_0094" x1="884" y1="360" x2="884" y2="452" stroke="#000" stroke-width="1" data-conf="0.0743"/>
    <line id="line_0095" x1="344" y1="80" x2="344" y2="172" stroke="#000" stroke-width="1" data-conf="0.0743"/>
    <line id="line_0096" x1="420" y1="172" x2="420" y2="80" stroke="#000" stroke-width="1" data-conf="0.0743"/>
    <line id="line_0097" x1="60" y1="308" x2="60" y2="224" stroke="#000" stroke-width="1" data-conf="0.0732"/>
    <line id="line_0098" x1="784" y1="84" x2="784" y2="168" stroke="#000" stroke-width="1" data-conf="0.0701"/>
    <line id="line_0099" x1="880" y1="168" x2="880" y2="84" stroke="#000" stroke-width="1" data-conf="0.0701"/>
    <line id="line_0100" x1="880" y1="308" x2="880" y2="224" stroke="#000" stroke-width="1" data-conf="0.0701"/>
    <line id="line_0101" x1="604" y1="84" x2="604" y2="168" stroke="#000" stroke-width="1" data-conf="0.0701"/>
    <line id="line_0102" x1="64" y1="364" x2="64" y2="448" stroke="#000" stroke-width="1" data-conf="0.0701"/>
    <line id="line_0103" x1="520" y1="308" x2="520" y2="224" stroke="#000" stroke-width="1" data-conf="0.0690"/>
    <line id="line_0104" x1="604" y1="224" x2="604" y2="308" stroke="#000" stroke-width="1" data-conf="0.0690"/>
    <line id="line_0105" x1="336" y1="448" x2="336" y2="364" stroke="#000" stroke-width="1" data-conf="0.0690"/>
    <line id="line_0106" x1="244" y1="364" x2="244" y2="448" stroke="#000" stroke-width="1" data-conf="0.0690"/>
    <line id="line_0107" x1="696" y1="308" x2="696" y2="224" stroke="#000" stroke-width="1" data-conf="0.0690"/>
    <line id="line_0108" x1="424" y1="364" x2="424" y2="448" stroke="#000" stroke-width="1" data-conf="0.0690"/>
    <line id="line_0109" x1="696" y1="168" x2="696" y2="88" stroke="#000" stroke-width="1" data-conf="0.0690"/>
    <line id="line_0110" x1="784" y1="224" x2="784" y2="308" stroke="#000" stroke-width="1" data-conf="0.0690"/>
    <line id="line_0111" x1="424" y1="224" x2="424" y2="308" stroke="#000" stroke-width="1" data-conf="0.0690"/>
    <line id="line_0112" x1="64" y1="84" x2="64" y2="168" stroke="#000" stroke-width="1" data-conf="0.0690"/>
    <line id="line_0113" x1="604" y1="364" x2="604" y2="448" stroke="#000" stroke-width="1" data-conf="0.0690"/>
    <line id="line_0114" x1="160" y1="448" x2="160" y2="364" stroke="#000" stroke-width="1" data-conf="0.0690"/>
    <line id="line_0115" x1="696" y1="448" x2="696" y2="364" stroke="#000" stroke-width="1" data-conf="0.0690"/>
    <line id="line_0116" x1="160" y1="168" x2="160" y2="84" stroke="#000" stroke-width="1" data-conf="0.0690"/>
    <line id="line_0117" x1="336" y1="308" x2="336" y2="224" stroke="#000" stroke-width="1" data-conf="0.0690"/>
    <line id="line_0118" x1="784" y1="364" x2="784" y2="448" stroke="#000" stroke-width="1" data-conf="0.0690"/>
    <line id="line_0119" x1="244" y1="84" x2="244" y2="168" stroke="#000" stroke-width="1" data-conf="0.0690"/>
    <line id="line_0120" x1="880" y1="448" x2="880" y2="364" stroke="#000" stroke-width="1" data-conf="0.0690"/>
    <line id="line_0121" x1="520" y1="168" x2="520" y2="84" stroke="#000" stroke-width="1" data-conf="0.0690"/>
    <line id="line_0122" x1="244" y1="224" x2="244" y2="308" stroke="#000" stroke-width="1" data-conf="0.0690"/>
    <line id="line_0123" x1="64" y1="224" x2="64" y2="308" stroke="#000" stroke-width="1" data-conf="0.0690"/>
    <line id="line_0124" x1="340" y1="168" x2="340" y2="84" stroke="#000" stroke-width="1" data-conf="0.0690"/>
    <line id="line_0125" x1="424" y1="84" x2="424" y2="168" stroke="#000" stroke-width="1" data-conf="0.0690"/>
    <line id="line_0126" x1="160" y1="308" x2="160" y2="224" stroke="#000" stroke-width="1" data-conf="0.0690"/>
    <line id="line_0127" x1="520" y1="452" x2="444" y2="452" stroke="#000" stroke-width="1" data-conf="0.0638"/>
    <line id="line_0128" x1="440" y1="376" x2="516" y2="376" stroke="#000" stroke-width="1" data-conf="0.0628"/>
    <line id="line_0129" x1="516" y1="384" x2="444" y2="384" stroke="#000" stroke-width="1" data-conf="0.0607"/>
    <line id="line_0130" x1="444" y1="448" x2="516" y2="448" stroke="#000" stroke-width="1" data-conf="0.0607"/>
    <line id="line_0131" x1="440" y1="448" x2="440" y2="380" stroke="#000" stroke-width="1" data-conf="0.0554"/>
    <line id="line_0132" x1="524" y1="384" x2="524" y2="452" stroke="#000" stroke-width="1" data-conf="0.0554"/>
    <line id="line_0133" x1="444" y1="384" x2="444" y2="448" stroke="#000" stroke-width="1" data-conf="0.0523"/>
    <line id="line_0134" x1="520" y1="448" x2="520" y2="384" stroke="#000" stroke-width="1" data-conf="0.0523"/>
    <line id="line_0135" x1="524" y1="376" x2="580" y2="376" stroke="#000" stroke-width="1" data-conf="0.0471"/>
    <line id="line_0136" x1="576" y1="384" x2="524" y2="384" stroke="#000" stroke-width="1" data-conf="0.0439"/>
  </g>
  <g id="metadata" data-source="pipeline" data-ortho-width="1043" data-ortho-height="583" data-units="px" data-rectification-score="0.9327"/>
</svg>