0
SECTION
2
ENTITIES
0
LWPOLYLINE
8
FACADE_OUTLINE
90
4
70
1
10
0.000000
20
0.000000
10
1043.000000
20
0.000000
10
1043.000000
20
583.000000
10
0.000000
20
583.000000
0
LWPOLYLINE
8
WINDOWS
90
4
70
1
10
63.000000
20
81.000000
10
162.000000
20
81.000000
10
162.000000
20
171.000000
10
63.000000
20
171.000000
0
LWPOLYLINE
8
WINDOWS
90
4
70
1
10
243.000000
20
81.000000
10
342.000000
20
81.000000
10
342.000000
20
171.000000
10
243.000000
20
171.000000
0
LWPOLYLINE
8
WINDOWS
90
4
70
1
10
423.000000
20
81.000000
10
522.000000
20
81.000000
10
522.000000
20
171.000000
10
423.000000
20
171.000000
0
LWPOLYLINE
8
WINDOWS
90
4
70
1
10
603.000000
20
81.000000
10
702.000000
20
81.000000
10
702.000000
20
171.000000
10
603.000000
20
171.000000
0
LWPOLYLINE
8
WINDOWS
90
4
70
1
10
783.000000
20
81.000000
10
882.000000
20
81.000000
10
882.000000
20
171.000000
10
783.000000
20
171.000000
0
LWPOLYLINE
8
WINDOWS
90
4
70
1
10
63.000000
20
81.000000
10
162.000000
20
81.000000
10
162.000000
20
171.000000
10
63.000000
20
171.000000
0
LWPOLYLINE
8
WINDOWS
90
4
70
1
10
243.000000
20
81.000000
10
342.000000
20
81.000000
10
342.000000
20
171.000000
10
243.000000
20
171.000000
0
LWPOLYLINE
8
WINDOWS
90
4
70
1
10
423.000000
20
81.000000
10
522.000000
20
81.000000
10
522.000000
20
171.000000
10
423.000000
20
171.000000
0
LWPOLYLINE
8
WINDOWS
90
4
70
1
10
603.000000
20
81.000000
10
702.000000
20
81.000000
10
702.000000
20
171.000000
10
603.000000
20
171.000000
0
LWPOLYLINE
8
WINDOWS
90
4
70
1
10
783.000000
20
81.000000
10
882.000000
20
81.000000
10
882.000000
20
171.000000
10
783.000000
20
171.000000
0
LWPOLYLINE
8
WINDOWS
90
4
70
1
10
63.000000
20
216.000000
10
162.000000
20
216.000000
10
162.000000
20
315.000000
10
63.000000
20
315.000000
0
LWPOLYLINE
8
WINDOWS
90
4
70
1
10
243.000000
20
216.000000
10
342.000000
20
216.000000
10
342.000000
20
315.000000
10
243.000000
20
315.000000
0
LWPOLYLINE
8
WINDOWS
90
4
70
1
10
423.000000
20
216.000000
10
522.000000
20
216.000000
10
522.000000
20
315.000000
10
423.000000
20
315.000000
0
LWPOLYLINE
8
WINDOWS
90
4
70
1
10
594.000000
20
216.000000
10
702.000000
20
216.000000
10
702.000000
20
315.000000
10
594.000000
20
315.000000
0
LWPOLYLINE
8
WINDOWS
90
4
70
1
10
774.000000
20
216.000000
10
882.000000
20
216.000000
10
882.000000
20
315.000000
10
774.000000
20
315.000000
0
LWPOLYLINE
8
WINDOWS
90
4
70
1
10
63.000000
20
225.000000
10
162.000000
20
225.000000
10
162.000000
20
306.000000
10
63.000000
20
306.000000
0
LWPOLYLINE
8
WINDOWS
90
4
70
1
10
243.000000
20
225.000000
10
342.000000
20
225.000000
10
342.000000
20
306.000000
10
243.000000
20
306.000000
0
LWPOLYLINE
8
WINDOWS
90
4
70
1
10
423.000000
20
225.000000
10
522.000000
20
225.000000
10
522.000000
20
306.000000
10
423.000000
20
306.000000
0
LWPOLYLINE
8
WINDOWS
90
4
70
1
10
603.000000
20
225.000000
10
702.000000
20
225.000000
10
702.000000
20
306.000000
10
603.000000
20
306.000000
0
LWPOLYLINE
8
WINDOWS
90
4
70
1
10
783.000000
20
225.000000
10
882.000000
20
225.000000
10
882.000000
20
306.000000
10
783.000000
20
306.000000
0
LWPOLYLINE
8
WINDOWS
90
4
70
1
10
63.000000
20
360.000000
10
162.000000
20
360.000000
10
162.000000
20
450.000000
10
63.000000
20
450.000000
0
LWPOLYLINE
8
WINDOWS
90
4
70
1
10
243.000000
20
360.000000
10
342.000000
20
360.000000
10
342.000000
20
450.000000
10
243.000000
20
450.000000
0
LWPOLYLINE
8
WINDOWS
90
4
70
1
10
414.000000
20
360.000000
10
585.000000
20
360.000000
10
585.000000
20
576.000000
10
414.000000
20
576.000000
0
LWPOLYLINE
8
WINDOWS
90
4
70
1
10
594.000000
20
360.000000
10
702.000000
20
360.000000
10
702.000000
20
450.000000
10
594.000000
20
450.000000
0
LWPOLYLINE
8
WINDOWS
90
4
70
1
10
774.000000
20
360.000000
10
882.000000
20
360.000000
10
882.000000
20
450.000000
10
774.000000
20
450.000000
0
LWPOLYLINE
8
WINDOWS
90
4
70
1
10
63.000000
20
360.000000
10
162.000000
20
360.000000
10
162.000000
20
450.000000
10
63.000000
20
450.000000
0
LWPOLYLINE
8
WINDOWS
90
4
70
1
10
243.000000
20
360.000000
10
342.000000
20
360.000000
10
342.000000
20
450.000000
10
243.000000
20
450.000000
0
LWPOLYLINE
8
WINDOWS
90
4
70
1
10
423.000000
20
360.000000
10
522.000000
20
360.000000
10
522.000000
20
450.000000
10
423.000000
20
450.000000
0
LWPOLYLINE
8
WINDOWS
90
4
70
1
10
603.000000
20
360.000000
10
702.000000
20
360.000000
10
702.000000
20
450.000000
10
603.000000
20
450.000000
0
LWPOLYLINE
8
WINDOWS
90
4
70
1
10
783.000000
20
360.000000
10
882.000000
20
360.000000
10
882.000000
20
450.000000
10
783.000000
20
450.000000
0
LWPOLYLINE
8
WINDOWS
90
4
70
1
10
441.000000
20
387.000000
10
576.000000
20
387.000000
10
576.000000
20
567.000000
10
441.000000
20
567.000000
0
LWPOLYLINE
8
WINDOWS
90
4
70
1
10
441.000000
20
387.000000
10
522.000000
20
387.000000
10
522.000000
20
450.000000
10
441.000000
20
450.000000
0
LINE
8
LINES
10
0.000000
20
576.000000
30
0.0
11
1035.000000
21
576.000000
31
0.0
0
LINE
8
LINES
10
1035.000000
20
0.000000
30
0.0
11
9.000000
21
0.000000
31
0.0
0
LINE
8
LINES
10
0.000000
20
0.000000
30
0.0
11
0.000000
21
576.000000
31
0.0
0
LINE
8
LINES
10
1035.000000
20
576.000000
30
0.0
11
1035.000000
21
9.000000
31
0.0
0
LINE
8
LINES
10
585.000000
20
378.000000
30
0.0
11
585.000000
21
567.000000
31
0.0
0
LINE
8
LINES
10
576.000000
20
567.000000
30
0.0
11
576.000000
21
387.000000
31
0.0
0
LINE
8
LINES
10
585.000000
20
576.000000
30
0.0
11
441.000000
21
576.000000
31
0.0
0
LINE
8
LINES
10
441.000000
20
567.000000
30
0.0
11
576.000000
21
567.000000
31
0.0
0
LINE
8
LINES
10
441.000000
20
567.000000
30
0.0
11
441.000000
21
450.000000
31
0.0
0
LINE
8
LINES
10
441.000000
20
450.000000
30
0.0
11
441.000000
21
567.000000
31
0.0
0
LINE
8
LINES
10
882.000000
20
315.000000
30
0.0
11
783.000000
21
315.000000
31
0.0
0
LINE
8
LINES
10
63.000000
20
81.000000
30
0.0
11
162.000000
21
81.000000
31
0.0
0
LINE
8
LINES
10
603.000000
20
360.000000
30
0.0
11
702.000000
21
360.000000
31
0.0
0
LINE
8
LINES
10
702.000000
20
315.000000
30
0.0
11
603.000000
21
315.000000
31
0.0
0
LINE
8
LINES
10
702.000000
20
450.000000
30
0.0
11
603.000000
21
450.000000
31
0.0
0
LINE
8
LINES
10
783.000000
20
360.000000
30
0.0
11
882.000000
21
360.000000
31
0.0
0
LINE
8
LINES
10
783.000000
20
216.000000
30
0.0
11
882.000000
21
216.000000
31
0.0
0
LINE
8
LINES
10
342.000000
20
171.000000
30
0.0
11
243.000000
21
171.000000
31
0.0
0
LINE
8
LINES
10
882.000000
20
450.000000
30
0.0
11
783.000000
21
450.000000
31
0.0
0
LINE
8
LINES
10
243.000000
20
216.000000
30
0.0
11
342.000000
21
216.000000
31
0.0
0
LINE
8
LINES
10
522.000000
20
315.000000
30
0.0
11
423.000000
21
315.000000
31
0.0
0
LINE
8
LINES
10
423.000000
20
216.000000
30
0.0
11
522.000000
21
216.000000
31
0.0
0
LINE
8
LINES
10
423.000000
20
360.000000
30
0.0
11
522.000000
21
360.000000
31
0.0
0
LINE
8
LINES
10
162.000000
20
171.000000
30
0.0
11
63.000000
21
171.000000
31
0.0
0
LINE
8
LINES
10
522.000000
20
171.000000
30
0.0
11
423.000000
21
171.000000
31
0.0
0
LINE
8
LINES
10
243.000000
20
81.000000
30
0.0
11
342.000000
21
81.000000
31
0.0
0
LINE
8
LINES
10
63.000000
20
216.000000
30
0.0
11
162.000000
21
216.000000
31
0.0
0
LINE
8
LINES
10
342.000000
20
315.000000
30
0.0
11
243.000000
21
315.000000
31
0.0
0
LINE
8
LINES
10
783.000000
20
81.000000
30
0.0
11
882.000000
21
81.000000
31
0.0
0
LINE
8
LINES
10
243.000000
20
360.000000
30
0.0
11
342.000000
21
360.000000
31
0.0
0
LINE
8
LINES
10
162.000000
20
315.000000
30
0.0
11
63.000000
21
315.000000
31
0.0
0
LINE
8
LINES
10
342.000000
20
450.000000
30
0.0
11
243.000000
21
450.000000
31
0.0
0
LINE
8
LINES
10
603.000000
20
216.000000
30
0.0
11
702.000000
21
216.000000
31
0.0
0
LINE
8
LINES
10
63.000000
20
360.000000
30
0.0
11
162.000000
21
360.000000
31
0.0
0
LINE
8
LINES
10
603.000000
20
81.000000
30
0.0
11
702.000000
21
81.000000
31
0.0
0
LINE
8
LINES
10
162.000000
20
450.000000
30
0.0
11
63.000000
21
450.000000
31
0.0
0
LINE
8
LINES
10
423.000000
20
81.000000
30
0.0
11
522.000000
21
81.000000
31
0.0
0
LINE
8
LINES
10
702.000000
20
171.000000
30
0.0
11
603.000000
21
171.000000
31
0.0
0
LINE
8
LINES
10
882.000000
20
171.000000
30
0.0
11
783.000000
21
171.000000
31
0.0
0
LINE
8
LINES
10
783.000000
20
450.000000
30
0.0
11
873.000000
21
450.000000
31
0.0
0
LINE
8
LINES
10
243.000000
20
171.000000
30
0.0
11
342.000000
21
171.000000
31
0.0
0
LINE
8
LINES
10
342.000000
20
225.000000
30
0.0
11
243.000000
21
225.000000
31
0.0
0
LINE
8
LINES
10
243.000000
20
306.000000
30
0.0
11
342.000000
21
306.000000
31
0.0
0
LINE
8
LINES
10
342.000000
20
81.000000
30
0.0
11
243.000000
21
81.000000
31
0.0
0
LINE
8
LINES
10
63.000000
20
306.000000
30
0.0
11
162.000000
21
306.000000
31
0.0
0
LINE
8
LINES
10
522.000000
20
81.000000
30
0.0
11
423.000000
21
81.000000
31
0.0
0
LINE
8
LINES
10
162.000000
20
81.000000
30
0.0
11
63.000000
21
81.000000
31
0.0
0
LINE
8
LINES
10
693.000000
20
360.000000
30
0.0
11
603.000000
21
360.000000
31
0.0
0
LINE
8
LINES
10
423.000000
20
306.000000
30
0.0
11
513.000000
21
306.000000
31
0.0
0
LINE
8
LINES
10
513.000000
20
225.000000
30
0.0
11
423.000000
21
225.000000
31
0.0
0
LINE
8
LINES
10
603.000000
20
450.000000
30
0.0
11
693.000000
21
450.000000
31
0.0
0
LINE
8
LINES
10
603.000000
20
306.000000
30
0.0
11
693.000000
21
306.000000
31
0.0
0
LINE
8
LINES
10
513.000000
20
360.000000
30
0.0
11
423.000000
21
360.000000
31
0.0
0
LINE
8
LINES
10
63.000000
20
171.000000
30
0.0
11
162.000000
21
171.000000
31
0.0
0
LINE
8
LINES
10
162.000000
20
225.000000
30
0.0
11
63.000000
21
225.000000
31
0.0
0
LINE
8
LINES
10
423.000000
20
171.000000
30
0.0
11
513.000000
21
171.000000
31
0.0
0
LINE
8
LINES
10
873.000000
20
360.000000
30
0.0
11
783.000000
21
360.000000
31
0.0
0
LINE
8
LINES
10
333.000000
20
360.000000
30
0.0
11
243.000000
21
360.000000
31
0.0
0
LINE
8
LINES
10
873.000000
20
81.000000
30
0.0
11
783.000000
21
81.000000
31
0.0
0
LINE
8
LINES
10
693.000000
20
225.000000
30
0.0
11
603.000000
21
225.000000
31
0.0
0
LINE
8
LINES
10
243.000000
20
450.000000
30
0.0
11
333.000000
21
450.000000
31
0.0
0
LINE
8
LINES
10
153.000000
20
360.000000
30
0.0
11
63.000000
21
360.000000
31
0.0
0
LINE
8
LINES
10
783.000000
20
306.000000
30
0.0
11
873.000000
21
306.000000
31
0.0
0
LINE
8
LINES
10
783.000000
20
171.000000
30
0.0
11
873.000000
21
171.000000
31
0.0
0
LINE
8
LINES
10
603.000000
20
171.000000
30
0.0
11
693.000000
21
171.000000
31
0.0
0
LINE
8
LINES
10
63.000000
20
450.000000
30
0.0
11
153.000000
21
450.000000
31
0.0
0
LINE
8
LINES
10
693.000000
20
81.000000
30
0.0
11
603.000000
21
81.000000
31
0.0
0
LINE
8
LINES
10
873.000000
20
225.000000
30
0.0
11
783.000000
21
225.000000
31
0.0
0
LINE
8
LINES
10
162.000000
20
225.000000
30
0.0
11
162.000000
21
315.000000
31
0.0
0
LINE
8
LINES
10
342.000000
20
360.000000
30
0.0
11
342.000000
21
450.000000
31
0.0
0
LINE
8
LINES
10
234.000000
20
450.000000
30
0.0
11
234.000000
21
360.000000
31
0.0
0
LINE
8
LINES
10
414.000000
20
450.000000
30
0.0
11
414.000000
21
360.000000
31
0.0
0
LINE
8
LINES
10
63.000000
20
171.000000
30
0.0
11
63.000000
21
81.000000
31
0.0
0
LINE
8
LINES
10
162.000000
20
360.000000
30
0.0
11
162.000000
21
450.000000
31
0.0
0
LINE
8
LINES
10
594.000000
20
450.000000
30
0.0
11
594.000000
21
360.000000
31
0.0
0
LINE
8
LINES
10
702.000000
20
360.000000
30
0.0
11
702.000000
21
450.000000
31
0.0
0
LINE
8
LINES
10
162.000000
20
81.000000
30
0.0
11
162.000000
21
171.000000
31
0.0
0
LINE
8
LINES
10
243.000000
20
171.000000
30
0.0
11
243.000000
21
81.000000
31
0.0
0
LINE
8
LINES
10
522.000000
20
81.000000
30
0.0
11
522.000000
21
171.000000
31
0.0
0
LINE
8
LINES
10
243.000000
20
315.000000
30
0.0
11
243.000000
21
225.000000
31
0.0
0
LINE
8
LINES
10
882.000000
20
81.000000
30
0.0
11
882.000000
21
171.000000
31
0.0
0
LINE
8
LINES
10
774.000000
20
171.000000
30
0.0
11
774.000000
21
81.000000
31
0.0
0
LINE
8
LINES
10
522.000000
20
225.000000
30
0.0
11
522.000000
21
315.000000
31
0.0
0
LINE
8
LINES
10
594.000000
20
315.000000
30
0.0
11
594.000000
21
225.000000
31
0.0
0
LINE
8
LINES
10
702.000000
20
225.000000
30
0.0
11
702.000000
21
315.000000
31
0.0
0
LINE
8
LINES
10
702.000000
20
81.000000
30
0.0
11
702.000000
21
171.000000
31
0.0
0
LINE
8
LINES
10
414.000000
20
315.000000
30
0.0
11
414.000000
21
225.000000
31
0.0
0
LINE
8
LINES
10
774.000000
20
315.000000
30
0.0
11
774.000000
21
225.000000
31
0.0
0
LINE
8
LINES
10
882.000000
20
225.000000
30
0.0
11
882.000000
21
315.000000
31
0.0
0
LINE
8
LINES
10
594.000000
20
171.000000
30
0.0
11
594.000000
21
81.000000
31
0.0
0
LINE
8
LINES
10
342.000000
20
225.000000
30
0.0
11
342.000000
21
315.000000
31
0.0
0
LINE
8
LINES
10
774.000000
20
450.000000
30
0.0
11
774.000000
21
360.000000
31
0.0
0
LINE
8
LINES
10
54.000000
20
450.000000
30
0.0
11
54.000000
21
360.000000
31
0.0
0
LINE
8
LINES
10
882.000000
20
360.000000
30
0.0
11
882.000000
21
450.000000
31
0.0
0
LINE
8
LINES
10
342.000000
20
81.000000
30
0.0
11
342.000000
21
171.000000
31
0.0
0
LINE
8
LINES
10
423.000000
20
171.000000
30
0.0
11
423.000000
21
81.000000
31
0.0
0
LINE
8
LINES
10
63.000000
20
306.000000
30
0.0
11
63.000000
21
225.000000
31
0.0
0
LINE
8
LINES
10
783.000000
20
81.000000
30
0.0
11
783.000000
21
171.000000
31
0.0
0
LINE
8
LINES
10
882.000000
20
171.000000
30
0.0
11
882.000000
21
81.000000
31
0.0
0
LINE
8
LINES
10
882.000000
20
306.000000
30
0.0
11
882.000000
21
225.000000
31
0.0
0
LINE
8
LINES
10
603.000000
20
81.000000
30
0.0
11
603.000000
21
171.000000
31
0.0
0
LINE
8
LINES
10
63.000000
20
360.000000
30
0.0
11
63.000000
21
450.000000
31
0.0
0
LINE
8
LINES
10
522.000000
20
306.000000
30
0.0
11
522.000000
21
225.000000
31
0.0
0
LINE
8
LINES
10
603.000000
20
225.000000
30
0.0
11
603.000000
21
306.000000
31
0.0
0
LINE
8
LINES
10
342.000000
20
450.000000
30
0.0
11
342.000000
21
360.000000
31
0.0
0
LINE
8
LINES
10
243.000000
20
360.000000
30
0.0
11
243.000000
21
450.000000
31
0.0
0
LINE
8
LINES
10
702.000000
20
306.000000
30
0.0
11
702.000000
21
225.000000
31
0.0
0
LINE
8
LINES
10
423.000000
20
360.000000
30
0.0
11
423.000000
21
450.000000
31
0.0
0
LINE
8
LINES
10
702.000000
20
171.000000
30
0.0
11
702.000000
21
90.000000
31
0.0
0
LINE
8
LINES
10
783.000000
20
225.000000
30
0.0
11
783.000000
21
306.000000
31
0.0
0
LINE
8
LINES
10
423.000000
20
225.000000
30
0.0
11
423.000000
21
306.000000
31
0.0
0
LINE
8
LINES
10
63.000000
20
81.000000
30
0.0
11
63.000000
21
171.000000
31
0.0
0
LINE
8
LINES
10
603.000000
20
360.000000
30
0.0
11
603.000000
21
450.000000
31
0.0
0
LINE
8
LINES
10
162.000000
20
450.000000
30
0.0
11
162.000000
21
360.000000
31
0.0
0
LINE
8
LINES
10
702.000000
20
450.000000
30
0.0
11
702.000000
21
360.000000
31
0.0
0
LINE
8
LINES
10
162.000000
20
171.000000
30
0.0
11
162.000000
21
81.000000
31
0.0
0
LINE
8
LINES
10
342.000000
20
306.000000
30
0.0
11
342.000000
21
225.000000
31
0.0
0
LINE
8
LINES
10
783.000000
20
360.000000
30
0.0
11
783.000000
21
450.000000
31
0.0
0
LINE
8
LINES
10
243.000000
20
81.000000
30
0.0
11
243.000000
21
171.000000
31
0.0
0
LINE
8
LINES
10
882.000000
20
450.000000
30
0.0
11
882.000000
21
360.000000
31
0.0
0
LINE
8
LINES
10
522.000000
20
171.000000
30
0.0
11
522.000000
21
81.000000
31
0.0
0
LINE
8
LINES
10
243.000000
20
225.000000
30
0.0
11
243.000000
21
306.000000
31
0.0
0
LINE
8
LINES
10
63.000000
20
225.000000
30
0.0
11
63.000000
21
306.000000
31
0.0
0
LINE
8
LINES
10
342.000000
20
171.000000
30
0.0
11
342.000000
21
81.000000
31
0.0
0
LINE
8
LINES
10
423.000000
20
81.000000
30
0.0
11
423.000000
21
171.000000
31
0.0
0
LINE
8
LINES
10
162.000000
20
306.000000
30
0.0
11
162.000000
21
225.000000
31
0.0
0
LINE
8
LINES
10
522.000000
20
450.000000
30
0.0
11
441.000000
21
450.000000
31
0.0
0
LINE
8
LINES
10
441.000000
20
378.000000
30
0.0
11
513.000000
21
378.000000
31
0.0
0
LINE
8
LINES
10
513.000000
20
387.000000
30
0.0
11
441.000000
21
387.000000
31
0.0
0
LINE
8
LINES
10
441.000000
20
450.000000
30
0.0
11
513.000000
21
450.000000
31
0.0
0
LINE
8
LINES
10
441.000000
20
450.000000
30
0.0
11
441.000000
21
378.000000
31
0.0
0
LINE
8
LINES
10
522.000000
20
387.000000
30
0.0
11
522.000000
21
450.000000
31
0.0
0
LINE
8
LINES
10
441.000000
20
387.000000
30
0.0
11
441.000000
21
450.000000
31
0.0
0
LINE
8
LINES
10
522.000000
20
450.000000
30
0.0
11
522.000000
21
387.000000
31
0.0
0
LINE
8
LINES
10
522.000000
20
378.000000
30
0.0
11
585.000000
21
378.000000
31
0.0
0
LINE
8
LINES
10
576.000000
20
387.000000
30
0.0
11
522.000000
21
387.000000
31
0.0
0
ENDSEC
0
EOF
