<svg xmlns="http://www.w3.org/2000/svg" viewBox="0 0 573 362" width="573" height="362">
  <rect x="0" y="0" width="573" height="362" fill="#fff"/>
  <g id="facade_outline">
    <polygon id="facade_0001" points="0,0 573,0 573,362 0,362" stroke="#000" stroke-width="2" fill="none"/>
  </g>
  <g id="openings_windows">
  </g>
  <g id="openings_doors">
  </g>
  <g id="lines">
    <line id="line_0001" x1="0" y1="264" x2="536" y2="264" stroke="#000" stroke-width="1" data-conf="0.7894"/>
    <line id="line_0002" x1="520" y1="8" x2="260" y2="8" stroke="#000" stroke-width="1" data-conf="0.3817"/>
    <line id="line_0003" x1="448" y1="16" x2="196" y2="16" stroke="#000" stroke-width="1" data-conf="0.3708"/>
    <line id="line_0004" x1="524" y1="20" x2="524" y2="256" stroke="#000" stroke-width="1" data-conf="0.3505"/>
    <line id="line_0005" x1="440" y1="84" x2="204" y2="84" stroke="#000" stroke-width="1" data-conf="0.3486"/>
    <line id="line_0006" x1="516" y1="256" x2="516" y2="24" stroke="#000" stroke-width="1" data-conf="0.3468"/>
    <line id="line_0007" x1="36" y1="4" x2="248" y2="4" stroke="#000" stroke-width="1" data-conf="0.3099"/>
    <line id="line_0008" x1="8" y1="328" x2="212" y2="328" stroke="#000" stroke-width="1" data-conf="0.3027"/>
    <line id="line_0009" x1="552" y1="204" x2="552" y2="8" stroke="#000" stroke-width="1" data-conf="0.2907"/>
    <line id="line_0010" x1="208" y1="80" x2="400" y2="80" stroke="#000" stroke-width="1" data-conf="0.2859"/>
    <line id="line_0011" x1="216" y1="336" x2="388" y2="336" stroke="#000" stroke-width="1" data-conf="0.2527"/>
    <line id="line_0012" x1="192" y1="320" x2="332" y2="320" stroke="#000" stroke-width="1" data-conf="0.2029"/>
    <line id="line_0013" x1="256" y1="4" x2="124" y2="4" stroke="#000" stroke-width="1" data-conf="0.1974"/>
    <line id="line_0014" x1="56" y1="136" x2="188" y2="136" stroke="#000" stroke-width="1" data-conf="0.1918"/>
    <line id="line_0015" x1="60" y1="76" x2="188" y2="76" stroke="#000" stroke-width="1" data-conf="0.1882"/>
    <line id="line_0016" x1="272" y1="340" x2="388" y2="340" stroke="#000" stroke-width="1" data-conf="0.1697"/>
    <line id="line_0017" x1="528" y1="256" x2="528" y2="148" stroke="#000" stroke-width="1" data-conf="0.1587"/>
    <line id="line_0018" x1="40" y1="152" x2="40" y2="252" stroke="#000" stroke-width="1" data-conf="0.1476"/>
    <line id="line_0019" x1="208" y1="324" x2="120" y2="324" stroke="#000" stroke-width="1" data-conf="0.1257"/>
    <line id="line_0020" x1="64" y1="208" x2="148" y2="208" stroke="#000" stroke-width="1" data-conf="0.1236"/>
    <line id="line_0021" x1="128" y1="80" x2="196" y2="80" stroke="#000" stroke-width="1" data-conf="0.1033"/>
    <line id="line_0022" x1="352" y1="56" x2="284" y2="56" stroke="#000" stroke-width="1" data-conf="0.1033"/>
    <line id="line_0023" x1="352" y1="120" x2="284" y2="120" stroke="#000" stroke-width="1" data-conf="0.1033"/>
    <line id="line_0024" x1="352" y1="184" x2="284" y2="184" stroke="#000" stroke-width="1" data-conf="0.1033"/>
    <line id="line_0025" x1="376" y1="332" x2="308" y2="332" stroke="#000" stroke-width="1" data-conf="0.0996"/>
    <line id="line_0026" x1="120" y1="8" x2="56" y2="8" stroke="#000" stroke-width="1" data-conf="0.0959"/>
    <line id="line_0027" x1="144" y1="204" x2="80" y2="204" stroke="#000" stroke-width="1" data-conf="0.0959"/>
    <line id="line_0028" x1="456" y1="316" x2="520" y2="316" stroke="#000" stroke-width="1" data-conf="0.0941"/>
    <line id="line_0029" x1="68" y1="320" x2="8" y2="320" stroke="#000" stroke-width="1" data-conf="0.0941"/>
    <line id="line_0030" x1="136" y1="200" x2="200" y2="200" stroke="#000" stroke-width="1" data-conf="0.0925"/>
    <line id="line_0031" x1="128" y1="16" x2="192" y2="16" stroke="#000" stroke-width="1" data-conf="0.0923"/>
    <line id="line_0032" x1="344" y1="276" x2="280" y2="276" stroke="#000" stroke-width="1" data-conf="0.0923"/>
    <line id="line_0033" x1="456" y1="72" x2="516" y2="72" stroke="#000" stroke-width="1" data-conf="0.0922"/>
    <line id="line_0034" x1="456" y1="136" x2="516" y2="136" stroke="#000" stroke-width="1" data-conf="0.0922"/>
    <line id="line_0035" x1="192" y1="24" x2="132" y2="24" stroke="#000" stroke-width="1" data-conf="0.0907"/>
    <line id="line_0036" x1="456" y1="12" x2="516" y2="12" stroke="#000" stroke-width="1" data-conf="0.0904"/>
    <line id="line_0037" x1="508" y1="24" x2="448" y2="24" stroke="#000" stroke-width="1" data-conf="0.0904"/>
    <line id="line_0038" x1="4" y1="304" x2="64" y2="304" stroke="#000" stroke-width="1" data-conf="0.0904"/>
    <line id="line_0039" x1="64" y1="84" x2="124" y2="84" stroke="#000" stroke-width="1" data-conf="0.0903"/>
    <line id="line_0040" x1="64" y1="16" x2="120" y2="16" stroke="#000" stroke-width="1" data-conf="0.0886"/>
    <line id="line_0041" x1="308" y1="216" x2="368" y2="216" stroke="#000" stroke-width="1" data-conf="0.0885"/>
    <line id="line_0042" x1="456" y1="284" x2="516" y2="284" stroke="#000" stroke-width="1" data-conf="0.0876"/>
    <line id="line_0043" x1="456" y1="80" x2="512" y2="80" stroke="#000" stroke-width="1" data-conf="0.0867"/>
    <line id="line_0044" x1="128" y1="24" x2="68" y2="24" stroke="#000" stroke-width="1" data-conf="0.0867"/>
    <line id="line_0045" x1="184" y1="76" x2="128" y2="76" stroke="#000" stroke-width="1" data-conf="0.0867"/>
    <line id="line_0046" x1="428" y1="124" x2="372" y2="124" stroke="#000" stroke-width="1" data-conf="0.0849"/>
    <line id="line_0047" x1="128" y1="144" x2="184" y2="144" stroke="#000" stroke-width="1" data-conf="0.0848"/>
    <line id="line_0048" x1="516" y1="272" x2="460" y2="272" stroke="#000" stroke-width="1" data-conf="0.0848"/>
    <line id="line_0049" x1="64" y1="144" x2="120" y2="144" stroke="#000" stroke-width="1" data-conf="0.0848"/>
    <line id="line_0050" x1="456" y1="200" x2="512" y2="200" stroke="#000" stroke-width="1" data-conf="0.0848"/>
    <line id="line_0051" x1="540" y1="328" x2="540" y2="272" stroke="#000" stroke-width="1" data-conf="0.0833"/>
    <line id="line_0052" x1="120" y1="76" x2="64" y2="76" stroke="#000" stroke-width="1" data-conf="0.0831"/>
    <line id="line_0053" x1="184" y1="140" x2="128" y2="140" stroke="#000" stroke-width="1" data-conf="0.0830"/>
    <line id="line_0054" x1="372" y1="120" x2="428" y2="120" stroke="#000" stroke-width="1" data-conf="0.0830"/>
    <line id="line_0055" x1="120" y1="140" x2="64" y2="140" stroke="#000" stroke-width="1" data-conf="0.0830"/>
    <line id="line_0056" x1="440" y1="184" x2="384" y2="184" stroke="#000" stroke-width="1" data-conf="0.0830"/>
    <line id="line_0057" x1="176" y1="352" x2="232" y2="352" stroke="#000" stroke-width="1" data-conf="0.0830"/>
    <line id="line_0058" x1="420" y1="328" x2="460" y2="288" stroke="#000" stroke-width="1" data-conf="0.0821"/>
    <line id="line_0059" x1="368" y1="180" x2="424" y2="180" stroke="#000" stroke-width="1" data-conf="0.0794"/>
    <line id="line_0060" x1="252" y1="216" x2="308" y2="216" stroke="#000" stroke-width="1" data-conf="0.0792"/>
    <line id="line_0061" x1="504" y1="156" x2="452" y2="156" stroke="#000" stroke-width="1" data-conf="0.0775"/>
    <line id="line_0062" x1="512" y1="72" x2="460" y2="72" stroke="#000" stroke-width="1" data-conf="0.0775"/>
    <line id="line_0063" x1="268" y1="276" x2="216" y2="276" stroke="#000" stroke-width="1" data-conf="0.0775"/>
    <line id="line_0064" x1="396" y1="276" x2="344" y2="276" stroke="#000" stroke-width="1" data-conf="0.0775"/>
    <line id="line_0065" x1="340" y1="320" x2="392" y2="320" stroke="#000" stroke-width="1" data-conf="0.0775"/>
    <line id="line_0066" x1="148" y1="272" x2="96" y2="272" stroke="#000" stroke-width="1" data-conf="0.0774"/>
    <line id="line_0067" x1="96" y1="272" x2="44" y2="272" stroke="#000" stroke-width="1" data-conf="0.0757"/>
    <line id="line_0068" x1="460" y1="144" x2="512" y2="144" stroke="#000" stroke-width="1" data-conf="0.0756"/>
    <line id="line_0069" x1="512" y1="140" x2="460" y2="140" stroke="#000" stroke-width="1" data-conf="0.0756"/>
    <line id="line_0070" x1="512" y1="204" x2="460" y2="204" stroke="#000" stroke-width="1" data-conf="0.0756"/>
    <line id="line_0071" x1="224" y1="344" x2="272" y2="344" stroke="#000" stroke-width="1" data-conf="0.0756"/>
    <line id="line_0072" x1="64" y1="256" x2="64" y2="208" stroke="#000" stroke-width="1" data-conf="0.0739"/>
    <line id="line_0073" x1="456" y1="276" x2="408" y2="276" stroke="#000" stroke-width="1" data-conf="0.0738"/>
    <line id="line_0074" x1="208" y1="276" x2="156" y2="276" stroke="#000" stroke-width="1" data-conf="0.0738"/>
    <line id="line_0075" x1="72" y1="32" x2="124" y2="32" stroke="#000" stroke-width="1" data-conf="0.0738"/>
    <line id="line_0076" x1="64" y1="148" x2="64" y2="200" stroke="#000" stroke-width="1" data-conf="0.0738"/>
    <line id="line_0077" x1="144" y1="32" x2="192" y2="32" stroke="#000" stroke-width="1" data-conf="0.0738"/>
    <line id="line_0078" x1="508" y1="32" x2="460" y2="32" stroke="#000" stroke-width="1" data-conf="0.0738"/>
    <line id="line_0079" x1="460" y1="208" x2="508" y2="208" stroke="#000" stroke-width="1" data-conf="0.0720"/>
    <line id="line_0080" x1="460" y1="28" x2="508" y2="28" stroke="#000" stroke-width="1" data-conf="0.0719"/>
    <line id="line_0081" x1="48" y1="52" x2="0" y2="52" stroke="#000" stroke-width="1" data-conf="0.0706"/>
    <line id="line_0082" x1="64" y1="196" x2="64" y2="148" stroke="#000" stroke-width="1" data-conf="0.0701"/>
    <line id="line_0083" x1="176" y1="336" x2="128" y2="336" stroke="#000" stroke-width="1" data-conf="0.0701"/>
    <line id="line_0084" x1="80" y1="192" x2="80" y2="148" stroke="#000" stroke-width="1" data-conf="0.0672"/>
    <line id="line_0085" x1="104" y1="312" x2="148" y2="312" stroke="#000" stroke-width="1" data-conf="0.0665"/>
    <line id="line_0086" x1="424" y1="216" x2="424" y2="260" stroke="#000" stroke-width="1" data-conf="0.0646"/>
    <line id="line_0087" x1="544" y1="152" x2="544" y2="196" stroke="#000" stroke-width="1" data-conf="0.0646"/>
    <line id="line_0088" x1="428" y1="60" x2="384" y2="60" stroke="#000" stroke-width="1" data-conf="0.0646"/>
    <line id="line_0089" x1="384" y1="56" x2="428" y2="56" stroke="#000" stroke-width="1" data-conf="0.0645"/>
    <line id="line_0090" x1="188" y1="156" x2="144" y2="156" stroke="#000" stroke-width="1" data-conf="0.0643"/>
    <line id="line_0091" x1="384" y1="344" x2="424" y2="344" stroke="#000" stroke-width="1" data-conf="0.0634"/>
    <line id="line_0092" x1="396" y1="216" x2="396" y2="260" stroke="#000" stroke-width="1" data-conf="0.0627"/>
    <line id="line_0093" x1="384" y1="256" x2="384" y2="216" stroke="#000" stroke-width="1" data-conf="0.0627"/>
    <line id="line_0094" x1="196" y1="32" x2="196" y2="72" stroke="#000" stroke-width="1" data-conf="0.0627"/>
    <line id="line_0095" x1="396" y1="276" x2="396" y2="320" stroke="#000" stroke-width="1" data-conf="0.0627"/>
    <line id="line_0096" x1="264" y1="184" x2="224" y2="184" stroke="#000" stroke-width="1" data-conf="0.0627"/>
    <line id="line_0097" x1="40" y1="120" x2="0" y2="104" stroke="#000" stroke-width="1" data-conf="0.0620"/>
    <line id="line_0098" x1="336" y1="276" x2="336" y2="320" stroke="#000" stroke-width="1" data-conf="0.0609"/>
    <line id="line_0099" x1="120" y1="36" x2="76" y2="36" stroke="#000" stroke-width="1" data-conf="0.0609"/>
    <line id="line_0100" x1="252" y1="60" x2="212" y2="60" stroke="#000" stroke-width="1" data-conf="0.0608"/>
    <line id="line_0101" x1="88" y1="156" x2="88" y2="196" stroke="#000" stroke-width="1" data-conf="0.0591"/>
    <line id="line_0102" x1="392" y1="320" x2="392" y2="280" stroke="#000" stroke-width="1" data-conf="0.0591"/>
    <line id="line_0103" x1="480" y1="288" x2="520" y2="288" stroke="#000" stroke-width="1" data-conf="0.0591"/>
    <line id="line_0104" x1="196" y1="248" x2="156" y2="248" stroke="#000" stroke-width="1" data-conf="0.0591"/>
    <line id="line_0105" x1="128" y1="216" x2="128" y2="256" stroke="#000" stroke-width="1" data-conf="0.0590"/>
    <line id="line_0106" x1="384" y1="152" x2="424" y2="152" stroke="#000" stroke-width="1" data-conf="0.0590"/>
    <line id="line_0107" x1="336" y1="316" x2="336" y2="276" stroke="#000" stroke-width="1" data-conf="0.0590"/>
    <line id="line_0108" x1="0" y1="56" x2="40" y2="56" stroke="#000" stroke-width="1" data-conf="0.0574"/>
    <line id="line_0109" x1="220" y1="280" x2="220" y2="316" stroke="#000" stroke-width="1" data-conf="0.0573"/>
    <line id="line_0110" x1="408" y1="280" x2="408" y2="320" stroke="#000" stroke-width="1" data-conf="0.0573"/>
    <line id="line_0111" x1="416" y1="256" x2="416" y2="216" stroke="#000" stroke-width="1" data-conf="0.0572"/>
    <line id="line_0112" x1="408" y1="216" x2="408" y2="256" stroke="#000" stroke-width="1" data-conf="0.0572"/>
    <line id="line_0113" x1="400" y1="256" x2="400" y2="216" stroke="#000" stroke-width="1" data-conf="0.0572"/>
    <line id="line_0114" x1="384" y1="216" x2="424" y2="216" stroke="#000" stroke-width="1" data-conf="0.0572"/>
    <line id="line_0115" x1="112" y1="156" x2="112" y2="192" stroke="#000" stroke-width="1" data-conf="0.0572"/>
    <line id="line_0116" x1="80" y1="112" x2="120" y2="112" stroke="#000" stroke-width="1" data-conf="0.0572"/>
    <line id="line_0117" x1="100" y1="156" x2="100" y2="192" stroke="#000" stroke-width="1" data-conf="0.0572"/>
    <line id="line_0118" x1="92" y1="192" x2="92" y2="156" stroke="#000" stroke-width="1" data-conf="0.0572"/>
    <line id="line_0119" x1="64" y1="212" x2="64" y2="252" stroke="#000" stroke-width="1" data-conf="0.0572"/>
    <line id="line_0120" x1="332" y1="320" x2="332" y2="280" stroke="#000" stroke-width="1" data-conf="0.0572"/>
    <line id="line_0121" x1="280" y1="280" x2="280" y2="320" stroke="#000" stroke-width="1" data-conf="0.0572"/>
    <line id="line_0122" x1="344" y1="280" x2="344" y2="320" stroke="#000" stroke-width="1" data-conf="0.0572"/>
    <line id="line_0123" x1="268" y1="320" x2="268" y2="280" stroke="#000" stroke-width="1" data-conf="0.0572"/>
    <line id="line_0124" x1="444" y1="148" x2="444" y2="108" stroke="#000" stroke-width="1" data-conf="0.0569"/>
    <line id="line_0125" x1="504" y1="112" x2="468" y2="112" stroke="#000" stroke-width="1" data-conf="0.0554"/>
    <line id="line_0126" x1="100" y1="216" x2="100" y2="256" stroke="#000" stroke-width="1" data-conf="0.0554"/>
    <line id="line_0127" x1="116" y1="192" x2="116" y2="156" stroke="#000" stroke-width="1" data-conf="0.0553"/>
    <line id="line_0128" x1="104" y1="256" x2="104" y2="216" stroke="#000" stroke-width="1" data-conf="0.0553"/>
    <line id="line_0129" x1="92" y1="256" x2="92" y2="216" stroke="#000" stroke-width="1" data-conf="0.0553"/>
    <line id="line_0130" x1="104" y1="192" x2="104" y2="156" stroke="#000" stroke-width="1" data-conf="0.0553"/>
    <line id="line_0131" x1="120" y1="256" x2="120" y2="216" stroke="#000" stroke-width="1" data-conf="0.0553"/>
    <line id="line_0132" x1="136" y1="68" x2="96" y2="68" stroke="#000" stroke-width="1" data-conf="0.0553"/>
    <line id="line_0133" x1="448" y1="84" x2="448" y2="48" stroke="#000" stroke-width="1" data-conf="0.0542"/>
    <line id="line_0134" x1="36" y1="20" x2="0" y2="20" stroke="#000" stroke-width="1" data-conf="0.0539"/>
    <line id="line_0135" x1="100" y1="304" x2="136" y2="304" stroke="#000" stroke-width="1" data-conf="0.0538"/>
    <line id="line_0136" x1="212" y1="180" x2="248" y2="180" stroke="#000" stroke-width="1" data-conf="0.0536"/>
    <line id="line_0137" x1="88" y1="216" x2="88" y2="252" stroke="#000" stroke-width="1" data-conf="0.0535"/>
    <line id="line_0138" x1="468" y1="108" x2="504" y2="108" stroke="#000" stroke-width="1" data-conf="0.0535"/>
    <line id="line_0139" x1="112" y1="216" x2="112" y2="252" stroke="#000" stroke-width="1" data-conf="0.0535"/>
    <line id="line_0140" x1="80" y1="252" x2="80" y2="216" stroke="#000" stroke-width="1" data-conf="0.0535"/>
    <line id="line_0141" x1="532" y1="20" x2="568" y2="20" stroke="#000" stroke-width="1" data-conf="0.0535"/>
    <line id="line_0142" x1="492" y1="340" x2="528" y2="340" stroke="#000" stroke-width="1" data-conf="0.0524"/>
    <line id="line_0143" x1="40" y1="88" x2="40" y2="124" stroke="#000" stroke-width="1" data-conf="0.0522"/>
    <line id="line_0144" x1="188" y1="212" x2="152" y2="212" stroke="#000" stroke-width="1" data-conf="0.0517"/>
    <line id="line_0145" x1="568" y1="24" x2="532" y2="24" stroke="#000" stroke-width="1" data-conf="0.0517"/>
    <line id="line_0146" x1="204" y1="316" x2="204" y2="284" stroke="#000" stroke-width="1" data-conf="0.0503"/>
    <line id="line_0147" x1="392" y1="256" x2="392" y2="224" stroke="#000" stroke-width="1" data-conf="0.0499"/>
    <line id="line_0148" x1="96" y1="72" x2="64" y2="72" stroke="#000" stroke-width="1" data-conf="0.0499"/>
    <line id="line_0149" x1="392" y1="224" x2="392" y2="256" stroke="#000" stroke-width="1" data-conf="0.0498"/>
    <line id="line_0150" x1="252" y1="236" x2="288" y2="236" stroke="#000" stroke-width="1" data-conf="0.0498"/>
    <line id="line_0151" x1="532" y1="144" x2="532" y2="108" stroke="#000" stroke-width="1" data-conf="0.0498"/>
    <line id="line_0152" x1="320" y1="244" x2="288" y2="244" stroke="#000" stroke-width="1" data-conf="0.0495"/>
    <line id="line_0153" x1="568" y1="48" x2="532" y2="48" stroke="#000" stroke-width="1" data-conf="0.0480"/>
    <line id="line_0154" x1="532" y1="44" x2="568" y2="44" stroke="#000" stroke-width="1" data-conf="0.0480"/>
    <line id="line_0155" x1="480" y1="288" x2="460" y2="312" stroke="#000" stroke-width="1" data-conf="0.0472"/>
    <line id="line_0156" x1="444" y1="212" x2="444" y2="180" stroke="#000" stroke-width="1" data-conf="0.0470"/>
    <line id="line_0157" x1="88" y1="200" x2="120" y2="200" stroke="#000" stroke-width="1" data-conf="0.0462"/>
    <line id="line_0158" x1="60" y1="116" x2="60" y2="88" stroke="#000" stroke-width="1" data-conf="0.0461"/>
    <line id="line_0159" x1="40" y1="256" x2="8" y2="256" stroke="#000" stroke-width="1" data-conf="0.0461"/>
    <line id="line_0160" x1="384" y1="48" x2="352" y2="48" stroke="#000" stroke-width="1" data-conf="0.0461"/>
    <line id="line_0161" x1="252" y1="256" x2="284" y2="256" stroke="#000" stroke-width="1" data-conf="0.0461"/>
    <line id="line_0162" x1="456" y1="240" x2="456" y2="212" stroke="#000" stroke-width="1" data-conf="0.0451"/>
    <line id="line_0163" x1="252" y1="28" x2="252" y2="56" stroke="#000" stroke-width="1" data-conf="0.0443"/>
    <line id="line_0164" x1="288" y1="48" x2="256" y2="48" stroke="#000" stroke-width="1" data-conf="0.0443"/>
  </g>
  <g id="metadata" data-source="pipeline" data-ortho-width="573" data-ortho-height="362" data-units="px" data-rectification-score="0.3824"/>
</svg>