0
SECTION
2
ENTITIES
0
LWPOLYLINE
8
FACADE_OUTLINE
90
4
70
1
10
0.000000
20
0.000000
10
851.000000
20
0.000000
10
851.000000
20
1024.000000
10
0.000000
20
1024.000000
0
LWPOLYLINE
8
WINDOWS
90
4
70
1
10
646.000000
20
65.000000
10
707.000000
20
65.000000
10
707.000000
20
99.000000
10
646.000000
20
99.000000
0
LWPOLYLINE
8
WINDOWS
90
4
70
1
10
83.000000
20
76.000000
10
163.000000
20
76.000000
10
163.000000
20
113.000000
10
83.000000
20
113.000000
0
LWPOLYLINE
8
WINDOWS
90
4
70
1
10
552.000000
20
188.000000
10
691.000000
20
188.000000
10
691.000000
20
414.000000
10
552.000000
20
414.000000
0
LWPOLYLINE
8
WINDOWS
90
4
70
1
10
105.000000
20
200.000000
10
220.000000
20
200.000000
10
220.000000
20
422.000000
10
105.000000
20
422.000000
0
LWPOLYLINE
8
WINDOWS
90
4
70
1
10
534.000000
20
211.000000
10
609.000000
20
211.000000
10
609.000000
20
272.000000
10
534.000000
20
272.000000
0
LWPOLYLINE
8
WINDOWS
90
4
70
1
10
692.000000
20
211.000000
10
769.000000
20
211.000000
10
769.000000
20
270.000000
10
692.000000
20
270.000000
0
LWPOLYLINE
8
WINDOWS
90
4
70
1
10
385.000000
20
214.000000
10
425.000000
20
214.000000
10
425.000000
20
267.000000
10
385.000000
20
267.000000
0
LWPOLYLINE
8
WINDOWS
90
4
70
1
10
222.000000
20
216.000000
10
262.000000
20
216.000000
10
262.000000
20
273.000000
10
222.000000
20
273.000000
0
LWPOLYLINE
8
WINDOWS
90
4
70
1
10
67.000000
20
225.000000
10
105.000000
20
225.000000
10
105.000000
20
276.000000
10
67.000000
20
276.000000
0
LWPOLYLINE
8
WINDOWS
90
4
70
1
10
220.000000
20
321.000000
10
433.000000
20
321.000000
10
433.000000
20
419.000000
10
220.000000
20
419.000000
0
LWPOLYLINE
8
WINDOWS
90
4
70
1
10
694.000000
20
326.000000
10
771.000000
20
326.000000
10
771.000000
20
409.000000
10
694.000000
20
409.000000
0
LWPOLYLINE
8
WINDOWS
90
4
70
1
10
65.000000
20
337.000000
10
105.000000
20
337.000000
10
105.000000
20
419.000000
10
65.000000
20
419.000000
0
LWPOLYLINE
8
WINDOWS
90
4
70
1
10
553.000000
20
478.000000
10
595.000000
20
478.000000
10
595.000000
20
553.000000
10
553.000000
20
553.000000
0
LWPOLYLINE
8
WINDOWS
90
4
70
1
10
366.000000
20
478.000000
10
444.000000
20
478.000000
10
444.000000
20
547.000000
10
366.000000
20
547.000000
0
LWPOLYLINE
8
WINDOWS
90
4
70
1
10
713.000000
20
478.000000
10
755.000000
20
478.000000
10
755.000000
20
556.000000
10
713.000000
20
556.000000
0
LWPOLYLINE
8
WINDOWS
90
4
70
1
10
201.000000
20
481.000000
10
278.000000
20
481.000000
10
278.000000
20
561.000000
10
201.000000
20
561.000000
0
LWPOLYLINE
8
WINDOWS
90
4
70
1
10
364.000000
20
592.000000
10
444.000000
20
592.000000
10
444.000000
20
699.000000
10
364.000000
20
699.000000
0
LWPOLYLINE
8
WINDOWS
90
4
70
1
10
283.000000
20
596.000000
10
363.000000
20
596.000000
10
363.000000
20
699.000000
10
283.000000
20
699.000000
0
LWPOLYLINE
8
WINDOWS
90
4
70
1
10
547.000000
20
622.000000
10
614.000000
20
622.000000
10
614.000000
20
718.000000
10
547.000000
20
718.000000
0
LWPOLYLINE
8
WINDOWS
90
4
70
1
10
649.000000
20
779.000000
10
723.000000
20
779.000000
10
723.000000
20
804.000000
10
649.000000
20
804.000000
0
LWPOLYLINE
8
WINDOWS
90
4
70
1
10
156.000000
20
793.000000
10
225.000000
20
793.000000
10
225.000000
20
860.000000
10
156.000000
20
860.000000
0
LWPOLYLINE
8
WINDOWS
90
4
70
1
10
385.000000
20
801.000000
10
420.000000
20
801.000000
10
420.000000
20
857.000000
10
385.000000
20
857.000000
0
LWPOLYLINE
8
WINDOWS
90
4
70
1
10
156.000000
20
803.000000
10
644.000000
20
803.000000
10
644.000000
20
1020.000000
10
156.000000
20
1020.000000
0
LWPOLYLINE
8
WINDOWS
90
4
70
1
10
649.000000
20
806.000000
10
715.000000
20
806.000000
10
715.000000
20
833.000000
10
649.000000
20
833.000000
0
LWPOLYLINE
8
WINDOWS
90
4
70
1
10
553.000000
20
892.000000
10
644.000000
20
892.000000
10
644.000000
20
936.000000
10
553.000000
20
936.000000
0
LWPOLYLINE
8
WINDOWS
90
4
70
1
10
369.000000
20
934.000000
10
438.000000
20
934.000000
10
438.000000
20
1019.000000
10
369.000000
20
1019.000000
0
LWPOLYLINE
8
WINDOWS
90
4
70
1
10
521.000000
20
956.000000
10
622.000000
20
956.000000
10
622.000000
20
1008.000000
10
521.000000
20
1008.000000
0
LWPOLYLINE
8
DOORS
90
4
70
1
10
217.000000
20
625.000000
10
262.000000
20
625.000000
10
262.000000
20
720.000000
10
217.000000
20
720.000000
0
LWPOLYLINE
8
DOORS
90
4
70
1
10
224.000000
20
633.000000
10
256.000000
20
633.000000
10
256.000000
20
713.000000
10
224.000000
20
713.000000
0
LINE
8
LINES
10
14.000000
20
110.000000
30
0.0
11
841.000000
21
110.000000
31
0.0
0
LINE
8
LINES
10
838.000000
20
97.000000
30
0.0
11
16.000000
21
97.000000
31
0.0
0
LINE
8
LINES
10
19.000000
20
139.000000
30
0.0
11
835.000000
21
139.000000
31
0.0
0
LINE
8
LINES
10
835.000000
20
118.000000
30
0.0
11
19.000000
21
118.000000
31
0.0
0
LINE
8
LINES
10
0.000000
20
20.000000
30
0.0
11
747.000000
21
20.000000
31
0.0
0
LINE
8
LINES
10
784.000000
20
412.000000
30
0.0
11
62.000000
21
412.000000
31
0.0
0
LINE
8
LINES
10
62.000000
20
419.000000
30
0.0
11
784.000000
21
419.000000
31
0.0
0
LINE
8
LINES
10
62.000000
20
427.000000
30
0.0
11
782.000000
21
427.000000
31
0.0
0
LINE
8
LINES
10
748.000000
20
627.000000
30
0.0
11
849.000000
21
62.000000
31
0.0
0
LINE
8
LINES
10
73.000000
20
489.000000
30
0.0
11
147.000000
21
1008.000000
31
0.0
0
LINE
8
LINES
10
641.000000
20
441.000000
30
0.0
11
158.000000
21
441.000000
31
0.0
0
LINE
8
LINES
10
0.000000
20
33.000000
30
0.0
11
70.000000
21
486.000000
31
0.0
0
LINE
8
LINES
10
452.000000
20
14.000000
30
0.0
11
1.000000
21
14.000000
31
0.0
0
LINE
8
LINES
10
121.000000
20
115.000000
30
0.0
11
566.000000
21
115.000000
31
0.0
0
LINE
8
LINES
10
558.000000
20
107.000000
30
0.0
11
121.000000
21
107.000000
31
0.0
0
LINE
8
LINES
10
588.000000
20
187.000000
30
0.0
11
161.000000
21
187.000000
31
0.0
0
LINE
8
LINES
10
3.000000
20
41.000000
30
0.0
11
355.000000
21
41.000000
31
0.0
0
LINE
8
LINES
10
352.000000
20
22.000000
30
0.0
11
3.000000
21
22.000000
31
0.0
0
LINE
8
LINES
10
478.000000
20
878.000000
30
0.0
11
161.000000
21
878.000000
31
0.0
0
LINE
8
LINES
10
148.000000
20
1009.000000
30
0.0
11
441.000000
21
1009.000000
31
0.0
0
LINE
8
LINES
10
156.000000
20
451.000000
30
0.0
11
156.000000
21
718.000000
31
0.0
0
LINE
8
LINES
10
152.000000
20
718.000000
30
0.0
11
152.000000
21
451.000000
31
0.0
0
LINE
8
LINES
10
641.000000
20
862.000000
30
0.0
11
382.000000
21
862.000000
31
0.0
0
LINE
8
LINES
10
803.000000
20
108.000000
30
0.0
11
568.000000
21
108.000000
31
0.0
0
LINE
8
LINES
10
572.000000
20
105.000000
30
0.0
11
803.000000
21
105.000000
31
0.0
0
LINE
8
LINES
10
283.000000
20
755.000000
30
0.0
11
513.000000
21
755.000000
31
0.0
0
LINE
8
LINES
10
284.000000
20
705.000000
30
0.0
11
513.000000
21
705.000000
31
0.0
0
LINE
8
LINES
10
513.000000
20
750.000000
30
0.0
11
284.000000
21
750.000000
31
0.0
0
LINE
8
LINES
10
513.000000
20
704.000000
30
0.0
11
286.000000
21
704.000000
31
0.0
0
LINE
8
LINES
10
644.000000
20
654.000000
30
0.0
11
644.000000
21
435.000000
31
0.0
0
LINE
8
LINES
10
150.000000
20
414.000000
30
0.0
11
150.000000
21
201.000000
31
0.0
0
LINE
8
LINES
10
508.000000
20
777.000000
30
0.0
11
721.000000
21
777.000000
31
0.0
0
LINE
8
LINES
10
161.000000
20
201.000000
30
0.0
11
161.000000
21
414.000000
31
0.0
0
LINE
8
LINES
10
649.000000
20
198.000000
30
0.0
11
649.000000
21
408.000000
31
0.0
0
LINE
8
LINES
10
115.000000
20
774.000000
30
0.0
11
305.000000
21
774.000000
31
0.0
0
LINE
8
LINES
10
718.000000
20
801.000000
30
0.0
11
748.000000
21
630.000000
31
0.0
0
LINE
8
LINES
10
652.000000
20
190.000000
30
0.0
11
822.000000
21
190.000000
31
0.0
0
LINE
8
LINES
10
649.000000
20
792.000000
30
0.0
11
649.000000
21
961.000000
31
0.0
0
LINE
8
LINES
10
113.000000
20
758.000000
30
0.0
11
281.000000
21
758.000000
31
0.0
0
LINE
8
LINES
10
281.000000
20
764.000000
30
0.0
11
113.000000
21
764.000000
31
0.0
0
LINE
8
LINES
10
297.000000
20
118.000000
30
0.0
11
459.000000
21
118.000000
31
0.0
0
LINE
8
LINES
10
641.000000
20
878.000000
30
0.0
11
481.000000
21
878.000000
31
0.0
0
LINE
8
LINES
10
321.000000
20
873.000000
30
0.0
11
478.000000
21
873.000000
31
0.0
0
LINE
8
LINES
10
686.000000
20
24.000000
30
0.0
11
844.000000
21
24.000000
31
0.0
0
LINE
8
LINES
10
849.000000
20
22.000000
30
0.0
11
694.000000
21
0.000000
31
0.0
0
LINE
8
LINES
10
468.000000
20
62.000000
30
0.0
11
624.000000
21
62.000000
31
0.0
0
LINE
8
LINES
10
323.000000
20
881.000000
30
0.0
11
478.000000
21
881.000000
31
0.0
0
LINE
8
LINES
10
136.000000
20
124.000000
30
0.0
11
289.000000
21
124.000000
31
0.0
0
LINE
8
LINES
10
286.000000
20
67.000000
30
0.0
11
436.000000
21
67.000000
31
0.0
0
LINE
8
LINES
10
696.000000
20
60.000000
30
0.0
11
846.000000
21
60.000000
31
0.0
0
LINE
8
LINES
10
694.000000
20
937.000000
30
0.0
11
716.000000
21
793.000000
31
0.0
0
LINE
8
LINES
10
796.000000
20
188.000000
30
0.0
11
654.000000
21
188.000000
31
0.0
0
LINE
8
LINES
10
379.000000
20
864.000000
30
0.0
11
241.000000
21
864.000000
31
0.0
0
LINE
8
LINES
10
822.000000
20
193.000000
30
0.0
11
689.000000
21
193.000000
31
0.0
0
LINE
8
LINES
10
326.000000
20
566.000000
30
0.0
11
457.000000
21
566.000000
31
0.0
0
LINE
8
LINES
10
382.000000
20
745.000000
30
0.0
11
515.000000
21
745.000000
31
0.0
0
LINE
8
LINES
10
153.000000
20
196.000000
30
0.0
11
28.000000
21
196.000000
31
0.0
0
LINE
8
LINES
10
651.000000
20
524.000000
30
0.0
11
651.000000
21
649.000000
31
0.0
0
LINE
8
LINES
10
777.000000
20
441.000000
30
0.0
11
654.000000
21
441.000000
31
0.0
0
LINE
8
LINES
10
548.000000
20
835.000000
30
0.0
11
427.000000
21
835.000000
31
0.0
0
LINE
8
LINES
10
641.000000
20
764.000000
30
0.0
11
521.000000
21
764.000000
31
0.0
0
LINE
8
LINES
10
379.000000
20
825.000000
30
0.0
11
260.000000
21
825.000000
31
0.0
0
LINE
8
LINES
10
377.000000
20
852.000000
30
0.0
11
260.000000
21
852.000000
31
0.0
0
LINE
8
LINES
10
377.000000
20
836.000000
30
0.0
11
260.000000
21
836.000000
31
0.0
0
LINE
8
LINES
10
646.000000
20
308.000000
30
0.0
11
646.000000
21
192.000000
31
0.0
0
LINE
8
LINES
10
459.000000
20
556.000000
30
0.0
11
348.000000
21
556.000000
31
0.0
0
LINE
8
LINES
10
536.000000
20
723.000000
30
0.0
11
643.000000
21
723.000000
31
0.0
0
LINE
8
LINES
10
548.000000
20
824.000000
30
0.0
11
441.000000
21
824.000000
31
0.0
0
LINE
8
LINES
10
454.000000
20
908.000000
30
0.0
11
347.000000
21
908.000000
31
0.0
0
LINE
8
LINES
10
534.000000
20
851.000000
30
0.0
11
428.000000
21
851.000000
31
0.0
0
LINE
8
LINES
10
537.000000
20
611.000000
30
0.0
11
537.000000
21
718.000000
31
0.0
0
LINE
8
LINES
10
348.000000
20
910.000000
30
0.0
11
454.000000
21
910.000000
31
0.0
0
LINE
8
LINES
10
537.000000
20
760.000000
30
0.0
11
643.000000
21
760.000000
31
0.0
0
LINE
8
LINES
10
204.000000
20
612.000000
30
0.0
11
204.000000
21
718.000000
31
0.0
0
LINE
8
LINES
10
273.000000
20
716.000000
30
0.0
11
273.000000
21
612.000000
31
0.0
0
LINE
8
LINES
10
452.000000
20
913.000000
30
0.0
11
350.000000
21
913.000000
31
0.0
0
LINE
8
LINES
10
115.000000
20
716.000000
30
0.0
11
115.000000
21
614.000000
31
0.0
0
LINE
8
LINES
10
454.000000
20
569.000000
30
0.0
11
353.000000
21
569.000000
31
0.0
0
LINE
8
LINES
10
192.000000
20
964.000000
30
0.0
11
291.000000
21
964.000000
31
0.0
0
LINE
8
LINES
10
521.000000
20
955.000000
30
0.0
11
619.000000
21
955.000000
31
0.0
0
LINE
8
LINES
10
353.000000
20
572.000000
30
0.0
11
452.000000
21
572.000000
31
0.0
0
LINE
8
LINES
10
523.000000
20
998.000000
30
0.0
11
620.000000
21
998.000000
31
0.0
0
LINE
8
LINES
10
355.000000
20
592.000000
30
0.0
11
452.000000
21
592.000000
31
0.0
0
LINE
8
LINES
10
355.000000
20
582.000000
30
0.0
11
452.000000
21
582.000000
31
0.0
0
LINE
8
LINES
10
374.000000
20
313.000000
30
0.0
11
374.000000
21
412.000000
31
0.0
0
LINE
8
LINES
10
534.000000
20
713.000000
30
0.0
11
534.000000
21
616.000000
31
0.0
0
LINE
8
LINES
10
216.000000
20
718.000000
30
0.0
11
216.000000
21
622.000000
31
0.0
0
LINE
8
LINES
10
547.000000
20
718.000000
30
0.0
11
547.000000
21
622.000000
31
0.0
0
LINE
8
LINES
10
612.000000
20
622.000000
30
0.0
11
612.000000
21
718.000000
31
0.0
0
LINE
8
LINES
10
112.000000
20
417.000000
30
0.0
11
112.000000
21
321.000000
31
0.0
0
LINE
8
LINES
10
451.000000
20
896.000000
30
0.0
11
353.000000
21
896.000000
31
0.0
0
LINE
8
LINES
10
646.000000
20
408.000000
30
0.0
11
646.000000
21
313.000000
31
0.0
0
LINE
8
LINES
10
524.000000
20
25.000000
30
0.0
11
619.000000
21
25.000000
31
0.0
0
LINE
8
LINES
10
361.000000
20
28.000000
30
0.0
11
456.000000
21
28.000000
31
0.0
0
LINE
8
LINES
10
451.000000
20
585.000000
30
0.0
11
356.000000
21
585.000000
31
0.0
0
LINE
8
LINES
10
619.000000
20
1000.000000
30
0.0
11
524.000000
21
1000.000000
31
0.0
0
LINE
8
LINES
10
451.000000
20
576.000000
30
0.0
11
356.000000
21
576.000000
31
0.0
0
LINE
8
LINES
10
262.000000
20
624.000000
30
0.0
11
262.000000
21
718.000000
31
0.0
0
LINE
8
LINES
10
542.000000
20
316.000000
30
0.0
11
542.000000
21
409.000000
31
0.0
0
LINE
8
LINES
10
211.000000
20
321.000000
30
0.0
11
211.000000
21
416.000000
31
0.0
0
LINE
8
LINES
10
452.000000
20
20.000000
30
0.0
11
358.000000
21
20.000000
31
0.0
0
LINE
8
LINES
10
524.000000
20
993.000000
30
0.0
11
617.000000
21
993.000000
31
0.0
0
LINE
8
LINES
10
616.000000
20
958.000000
30
0.0
11
523.000000
21
958.000000
31
0.0
0
LINE
8
LINES
10
649.000000
20
432.000000
30
0.0
11
649.000000
21
524.000000
31
0.0
0
LINE
8
LINES
10
617.000000
20
12.000000
30
0.0
11
524.000000
21
12.000000
31
0.0
0
LINE
8
LINES
10
366.000000
20
926.000000
30
0.0
11
457.000000
21
926.000000
31
0.0
0
LINE
8
LINES
10
603.000000
20
409.000000
30
0.0
11
603.000000
21
318.000000
31
0.0
0
LINE
8
LINES
10
616.000000
20
19.000000
30
0.0
11
524.000000
21
19.000000
31
0.0
0
LINE
8
LINES
10
448.000000
20
920.000000
30
0.0
11
358.000000
21
920.000000
31
0.0
0
LINE
8
LINES
10
358.000000
20
916.000000
30
0.0
11
448.000000
21
916.000000
31
0.0
0
LINE
8
LINES
10
366.000000
20
1012.000000
30
0.0
11
366.000000
21
926.000000
31
0.0
0
LINE
8
LINES
10
612.000000
20
43.000000
30
0.0
11
526.000000
21
43.000000
31
0.0
0
LINE
8
LINES
10
112.000000
20
56.000000
30
0.0
11
24.000000
21
56.000000
31
0.0
0
LINE
8
LINES
10
443.000000
20
926.000000
30
0.0
11
443.000000
21
1014.000000
31
0.0
0
LINE
8
LINES
10
528.000000
20
593.000000
30
0.0
11
616.000000
21
593.000000
31
0.0
0
LINE
8
LINES
10
198.000000
20
723.000000
30
0.0
11
286.000000
21
723.000000
31
0.0
0
LINE
8
LINES
10
713.000000
20
627.000000
30
0.0
11
713.000000
21
713.000000
31
0.0
0
LINE
8
LINES
10
593.000000
20
627.000000
30
0.0
11
593.000000
21
713.000000
31
0.0
0
LINE
8
LINES
10
435.000000
20
406.000000
30
0.0
11
435.000000
21
318.000000
31
0.0
0
LINE
8
LINES
10
716.000000
20
113.000000
30
0.0
11
803.000000
21
113.000000
31
0.0
0
LINE
8
LINES
10
680.000000
20
1022.000000
30
0.0
11
680.000000
21
936.000000
31
0.0
0
LINE
8
LINES
10
270.000000
20
409.000000
30
0.0
11
270.000000
21
323.000000
31
0.0
0
LINE
8
LINES
10
777.000000
20
19.000000
30
0.0
11
692.000000
21
19.000000
31
0.0
0
LINE
8
LINES
10
193.000000
20
596.000000
30
0.0
11
278.000000
21
596.000000
31
0.0
0
LINE
8
LINES
10
281.000000
20
745.000000
30
0.0
11
366.000000
21
745.000000
31
0.0
0
LINE
8
LINES
10
593.000000
20
326.000000
30
0.0
11
593.000000
21
411.000000
31
0.0
0
LINE
8
LINES
10
550.000000
20
411.000000
30
0.0
11
550.000000
21
326.000000
31
0.0
0
LINE
8
LINES
10
598.000000
20
408.000000
30
0.0
11
598.000000
21
323.000000
31
0.0
0
LINE
8
LINES
10
220.000000
20
416.000000
30
0.0
11
220.000000
21
332.000000
31
0.0
0
LINE
8
LINES
10
64.000000
20
419.000000
30
0.0
11
64.000000
21
337.000000
31
0.0
0
LINE
8
LINES
10
262.000000
20
332.000000
30
0.0
11
262.000000
21
414.000000
31
0.0
0
LINE
8
LINES
10
617.000000
20
937.000000
30
0.0
11
536.000000
21
937.000000
31
0.0
0
LINE
8
LINES
10
361.000000
20
921.000000
30
0.0
11
444.000000
21
921.000000
31
0.0
0
LINE
8
LINES
10
273.000000
20
49.000000
30
0.0
11
192.000000
21
49.000000
31
0.0
0
LINE
8
LINES
10
384.000000
20
411.000000
30
0.0
11
384.000000
21
329.000000
31
0.0
0
LINE
8
LINES
10
425.000000
20
329.000000
30
0.0
11
425.000000
21
411.000000
31
0.0
0
LINE
8
LINES
10
196.000000
20
720.000000
30
0.0
11
278.000000
21
720.000000
31
0.0
0
LINE
8
LINES
10
769.000000
20
326.000000
30
0.0
11
769.000000
21
408.000000
31
0.0
0
LINE
8
LINES
10
276.000000
20
590.000000
30
0.0
11
195.000000
21
590.000000
31
0.0
0
LINE
8
LINES
10
432.000000
20
408.000000
30
0.0
11
432.000000
21
326.000000
31
0.0
0
LINE
8
LINES
10
147.000000
20
449.000000
30
0.0
11
67.000000
21
449.000000
31
0.0
0
LINE
8
LINES
10
611.000000
20
590.000000
30
0.0
11
531.000000
21
590.000000
31
0.0
0
LINE
8
LINES
10
588.000000
20
713.000000
30
0.0
11
588.000000
21
633.000000
31
0.0
0
LINE
8
LINES
10
572.000000
20
636.000000
30
0.0
11
572.000000
21
716.000000
31
0.0
0
LINE
8
LINES
10
691.000000
20
718.000000
30
0.0
11
691.000000
21
638.000000
31
0.0
0
LINE
8
LINES
10
364.000000
20
292.000000
30
0.0
11
444.000000
21
292.000000
31
0.0
0
LINE
8
LINES
10
198.000000
20
297.000000
30
0.0
11
278.000000
21
297.000000
31
0.0
0
LINE
8
LINES
10
238.000000
20
332.000000
30
0.0
11
238.000000
21
412.000000
31
0.0
0
LINE
8
LINES
10
104.000000
20
337.000000
30
0.0
11
104.000000
21
417.000000
31
0.0
0
LINE
8
LINES
10
204.000000
20
70.000000
30
0.0
11
283.000000
21
70.000000
31
0.0
0
LINE
8
LINES
10
598.000000
20
1020.000000
30
0.0
11
676.000000
21
1020.000000
31
0.0
0
LINE
8
LINES
10
35.000000
20
76.000000
30
0.0
11
113.000000
21
76.000000
31
0.0
0
LINE
8
LINES
10
532.000000
20
289.000000
30
0.0
11
611.000000
21
289.000000
31
0.0
0
LINE
8
LINES
10
696.000000
20
291.000000
30
0.0
11
774.000000
21
291.000000
31
0.0
0
LINE
8
LINES
10
712.000000
20
331.000000
30
0.0
11
712.000000
21
408.000000
31
0.0
0
LINE
8
LINES
10
443.000000
20
1016.000000
30
0.0
11
521.000000
21
1016.000000
31
0.0
0
LINE
8
LINES
10
236.000000
20
862.000000
30
0.0
11
158.000000
21
862.000000
31
0.0
0
LINE
8
LINES
10
534.000000
20
720.000000
30
0.0
11
611.000000
21
720.000000
31
0.0
0
LINE
8
LINES
10
275.000000
20
481.000000
30
0.0
11
275.000000
21
558.000000
31
0.0
0
LINE
8
LINES
10
366.000000
20
300.000000
30
0.0
11
443.000000
21
300.000000
31
0.0
0
LINE
8
LINES
10
532.000000
20
297.000000
30
0.0
11
611.000000
21
297.000000
31
0.0
0
LINE
8
LINES
10
443.000000
20
294.000000
30
0.0
11
366.000000
21
294.000000
31
0.0
0
LINE
8
LINES
10
595.000000
20
476.000000
30
0.0
11
595.000000
21
553.000000
31
0.0
0
LINE
8
LINES
10
281.000000
20
700.000000
30
0.0
11
358.000000
21
700.000000
31
0.0
0
LINE
8
LINES
10
358.000000
20
700.000000
30
0.0
11
435.000000
21
700.000000
31
0.0
0
LINE
8
LINES
10
753.000000
20
331.000000
30
0.0
11
753.000000
21
406.000000
31
0.0
0
LINE
8
LINES
10
696.000000
20
297.000000
30
0.0
11
771.000000
21
297.000000
31
0.0
0
LINE
8
LINES
10
276.000000
20
299.000000
30
0.0
11
201.000000
21
299.000000
31
0.0
0
LINE
8
LINES
10
81.000000
20
339.000000
30
0.0
11
81.000000
21
416.000000
31
0.0
0
LINE
8
LINES
10
118.000000
20
73.000000
30
0.0
11
193.000000
21
73.000000
31
0.0
0
LINE
8
LINES
10
201.000000
20
558.000000
30
0.0
11
201.000000
21
483.000000
31
0.0
0
LINE
8
LINES
10
201.000000
20
304.000000
30
0.0
11
276.000000
21
304.000000
31
0.0
0
LINE
8
LINES
10
115.000000
20
483.000000
30
0.0
11
115.000000
21
558.000000
31
0.0
0
LINE
8
LINES
10
694.000000
20
408.000000
30
0.0
11
694.000000
21
332.000000
31
0.0
0
LINE
8
LINES
10
611.000000
20
294.000000
30
0.0
11
536.000000
21
294.000000
31
0.0
0
LINE
8
LINES
10
772.000000
20
294.000000
30
0.0
11
697.000000
21
294.000000
31
0.0
0
LINE
8
LINES
10
118.000000
20
304.000000
30
0.0
11
44.000000
21
304.000000
31
0.0
0
LINE
8
LINES
10
713.000000
20
552.000000
30
0.0
11
713.000000
21
478.000000
31
0.0
0
LINE
8
LINES
10
553.000000
20
552.000000
30
0.0
11
553.000000
21
478.000000
31
0.0
0
LINE
8
LINES
10
609.000000
20
721.000000
30
0.0
11
536.000000
21
721.000000
31
0.0
0
LINE
8
LINES
10
257.000000
20
556.000000
30
0.0
11
257.000000
21
483.000000
31
0.0
0
LINE
8
LINES
10
441.000000
20
700.000000
30
0.0
11
513.000000
21
700.000000
31
0.0
0
LINE
8
LINES
10
44.000000
20
310.000000
30
0.0
11
116.000000
21
310.000000
31
0.0
0
LINE
8
LINES
10
356.000000
20
611.000000
30
0.0
11
356.000000
21
683.000000
31
0.0
0
LINE
8
LINES
10
291.000000
20
739.000000
30
0.0
11
363.000000
21
739.000000
31
0.0
0
LINE
8
LINES
10
273.000000
20
721.000000
30
0.0
11
201.000000
21
721.000000
31
0.0
0
LINE
8
LINES
10
44.000000
20
302.000000
30
0.0
11
116.000000
21
302.000000
31
0.0
0
LINE
8
LINES
10
352.000000
20
46.000000
30
0.0
11
278.000000
21
46.000000
31
0.0
0
LINE
8
LINES
10
755.000000
20
478.000000
30
0.0
11
755.000000
21
550.000000
31
0.0
0
LINE
8
LINES
10
649.000000
20
760.000000
30
0.0
11
721.000000
21
760.000000
31
0.0
0
LINE
8
LINES
10
121.000000
20
720.000000
30
0.0
11
193.000000
21
720.000000
31
0.0
0
LINE
8
LINES
10
537.000000
20
212.000000
30
0.0
11
606.000000
21
212.000000
31
0.0
0
LINE
8
LINES
10
332.000000
20
892.000000
30
0.0
11
262.000000
21
892.000000
31
0.0
0
LINE
8
LINES
10
99.000000
20
558.000000
30
0.0
11
99.000000
21
488.000000
31
0.0
0
LINE
8
LINES
10
750.000000
20
408.000000
30
0.0
11
750.000000
21
337.000000
31
0.0
0
LINE
8
LINES
10
606.000000
20
598.000000
30
0.0
11
537.000000
21
598.000000
31
0.0
0
LINE
8
LINES
10
273.000000
20
601.000000
30
0.0
11
204.000000
21
601.000000
31
0.0
0
LINE
8
LINES
10
454.000000
20
1006.000000
30
0.0
11
454.000000
21
936.000000
31
0.0
0
LINE
8
LINES
10
462.000000
20
944.000000
30
0.0
11
462.000000
21
1014.000000
31
0.0
0
LINE
8
LINES
10
496.000000
20
796.000000
30
0.0
11
425.000000
21
796.000000
31
0.0
0
LINE
8
LINES
10
436.000000
20
699.000000
30
0.0
11
368.000000
21
699.000000
31
0.0
0
LINE
8
LINES
10
435.000000
20
627.000000
30
0.0
11
435.000000
21
697.000000
31
0.0
0
LINE
8
LINES
10
536.000000
20
908.000000
30
0.0
11
467.000000
21
908.000000
31
0.0
0
LINE
8
LINES
10
348.000000
20
937.000000
30
0.0
11
348.000000
21
1004.000000
31
0.0
0
LINE
8
LINES
10
345.000000
20
1011.000000
30
0.0
11
345.000000
21
942.000000
31
0.0
0
LINE
8
LINES
10
516.000000
20
1017.000000
30
0.0
11
516.000000
21
950.000000
31
0.0
0
LINE
8
LINES
10
540.000000
20
561.000000
30
0.0
11
606.000000
21
561.000000
31
0.0
0
LINE
8
LINES
10
224.000000
20
859.000000
30
0.0
11
224.000000
21
793.000000
31
0.0
0
LINE
8
LINES
10
721.000000
20
764.000000
30
0.0
11
656.000000
21
764.000000
31
0.0
0
LINE
8
LINES
10
368.000000
20
779.000000
30
0.0
11
433.000000
21
779.000000
31
0.0
0
LINE
8
LINES
10
380.000000
20
798.000000
30
0.0
11
313.000000
21
798.000000
31
0.0
0
LINE
8
LINES
10
612.000000
20
716.000000
30
0.0
11
547.000000
21
716.000000
31
0.0
0
LINE
8
LINES
10
604.000000
20
729.000000
30
0.0
11
539.000000
21
729.000000
31
0.0
0
LINE
8
LINES
10
512.000000
20
742.000000
30
0.0
11
446.000000
21
742.000000
31
0.0
0
LINE
8
LINES
10
734.000000
20
409.000000
30
0.0
11
734.000000
21
344.000000
31
0.0
0
LINE
8
LINES
10
272.000000
20
608.000000
30
0.0
11
206.000000
21
608.000000
31
0.0
0
LINE
8
LINES
10
604.000000
20
606.000000
30
0.0
11
539.000000
21
606.000000
31
0.0
0
LINE
8
LINES
10
729.000000
20
344.000000
30
0.0
11
729.000000
21
409.000000
31
0.0
0
LINE
8
LINES
10
571.000000
20
486.000000
30
0.0
11
571.000000
21
550.000000
31
0.0
0
LINE
8
LINES
10
539.000000
20
755.000000
30
0.0
11
604.000000
21
755.000000
31
0.0
0
LINE
8
LINES
10
457.000000
20
940.000000
30
0.0
11
457.000000
21
1006.000000
31
0.0
0
LINE
8
LINES
10
206.000000
20
753.000000
30
0.0
11
270.000000
21
753.000000
31
0.0
0
LINE
8
LINES
10
532.000000
20
892.000000
30
0.0
11
468.000000
21
892.000000
31
0.0
0
LINE
8
LINES
10
206.000000
20
563.000000
30
0.0
11
270.000000
21
563.000000
31
0.0
0
LINE
8
LINES
10
540.000000
20
273.000000
30
0.0
11
604.000000
21
273.000000
31
0.0
0
LINE
8
LINES
10
336.000000
20
609.000000
30
0.0
11
336.000000
21
673.000000
31
0.0
0
LINE
8
LINES
10
643.000000
20
718.000000
30
0.0
11
643.000000
21
656.000000
31
0.0
0
LINE
8
LINES
10
364.000000
20
544.000000
30
0.0
11
364.000000
21
481.000000
31
0.0
0
LINE
8
LINES
10
606.000000
20
564.000000
30
0.0
11
542.000000
21
564.000000
31
0.0
0
LINE
8
LINES
10
270.000000
20
729.000000
30
0.0
11
206.000000
21
729.000000
31
0.0
0
LINE
8
LINES
10
686.000000
20
12.000000
30
0.0
11
622.000000
21
12.000000
31
0.0
0
LINE
8
LINES
10
217.000000
20
483.000000
30
0.0
11
217.000000
21
547.000000
31
0.0
0
LINE
8
LINES
10
219.000000
20
806.000000
30
0.0
11
156.000000
21
806.000000
31
0.0
0
LINE
8
LINES
10
209.000000
20
280.000000
30
0.0
11
272.000000
21
280.000000
31
0.0
0
LINE
8
LINES
10
622.000000
20
24.000000
30
0.0
11
684.000000
21
24.000000
31
0.0
0
LINE
8
LINES
10
686.000000
20
19.000000
30
0.0
11
622.000000
21
19.000000
31
0.0
0
LINE
8
LINES
10
502.000000
20
699.000000
30
0.0
11
438.000000
21
699.000000
31
0.0
0
LINE
8
LINES
10
374.000000
20
275.000000
30
0.0
11
436.000000
21
275.000000
31
0.0
0
LINE
8
LINES
10
700.000000
20
273.000000
30
0.0
11
763.000000
21
273.000000
31
0.0
0
LINE
8
LINES
10
601.000000
20
276.000000
30
0.0
11
539.000000
21
276.000000
31
0.0
0
LINE
8
LINES
10
601.000000
20
548.000000
30
0.0
11
601.000000
21
486.000000
31
0.0
0
LINE
8
LINES
10
606.000000
20
467.000000
30
0.0
11
542.000000
21
467.000000
31
0.0
0
LINE
8
LINES
10
603.000000
20
304.000000
30
0.0
11
540.000000
21
304.000000
31
0.0
0
LINE
8
LINES
10
222.000000
20
492.000000
30
0.0
11
222.000000
21
553.000000
31
0.0
0
LINE
8
LINES
10
246.000000
20
552.000000
30
0.0
11
246.000000
21
491.000000
31
0.0
0
LINE
8
LINES
10
238.000000
20
489.000000
30
0.0
11
238.000000
21
550.000000
31
0.0
0
LINE
8
LINES
10
54.000000
20
284.000000
30
0.0
11
115.000000
21
284.000000
31
0.0
0
LINE
8
LINES
10
691.000000
20
593.000000
30
0.0
11
753.000000
21
593.000000
31
0.0
0
LINE
8
LINES
10
457.000000
20
25.000000
30
0.0
11
518.000000
21
25.000000
31
0.0
0
LINE
8
LINES
10
542.000000
20
612.000000
30
0.0
11
603.000000
21
612.000000
31
0.0
0
LINE
8
LINES
10
208.000000
20
614.000000
30
0.0
11
268.000000
21
614.000000
31
0.0
0
LINE
8
LINES
10
268.000000
20
566.000000
30
0.0
11
208.000000
21
566.000000
31
0.0
0
LINE
8
LINES
10
435.000000
20
278.000000
30
0.0
11
374.000000
21
278.000000
31
0.0
0
LINE
8
LINES
10
435.000000
20
204.000000
30
0.0
11
374.000000
21
204.000000
31
0.0
0
LINE
8
LINES
10
761.000000
20
203.000000
30
0.0
11
700.000000
21
203.000000
31
0.0
0
LINE
8
LINES
10
433.000000
20
467.000000
30
0.0
11
372.000000
21
467.000000
31
0.0
0
LINE
8
LINES
10
435.000000
20
305.000000
30
0.0
11
374.000000
21
305.000000
31
0.0
0
LINE
8
LINES
10
708.000000
20
835.000000
30
0.0
11
649.000000
21
835.000000
31
0.0
0
LINE
8
LINES
10
710.000000
20
806.000000
30
0.0
11
651.000000
21
806.000000
31
0.0
0
LINE
8
LINES
10
219.000000
20
822.000000
30
0.0
11
158.000000
21
822.000000
31
0.0
0
LINE
8
LINES
10
441.000000
20
478.000000
30
0.0
11
441.000000
21
537.000000
31
0.0
0
LINE
8
LINES
10
403.000000
20
539.000000
30
0.0
11
460.000000
21
556.000000
31
0.0
0
LINE
8
LINES
10
603.000000
20
616.000000
30
0.0
11
542.000000
21
616.000000
31
0.0
0
LINE
8
LINES
10
270.000000
20
281.000000
30
0.0
11
211.000000
21
281.000000
31
0.0
0
LINE
8
LINES
10
113.000000
20
286.000000
30
0.0
11
54.000000
21
286.000000
31
0.0
0
LINE
8
LINES
10
116.000000
20
211.000000
30
0.0
11
57.000000
21
211.000000
31
0.0
0
LINE
8
LINES
10
272.000000
20
206.000000
30
0.0
11
211.000000
21
206.000000
31
0.0
0
LINE
8
LINES
10
601.000000
20
201.000000
30
0.0
11
542.000000
21
201.000000
31
0.0
0
LINE
8
LINES
10
270.000000
20
308.000000
30
0.0
11
211.000000
21
308.000000
31
0.0
0
LINE
8
LINES
10
763.000000
20
304.000000
30
0.0
11
702.000000
21
304.000000
31
0.0
0
LINE
8
LINES
10
217.000000
20
849.000000
30
0.0
11
158.000000
21
849.000000
31
0.0
0
LINE
8
LINES
10
217.000000
20
889.000000
30
0.0
11
158.000000
21
889.000000
31
0.0
0
LINE
8
LINES
10
534.000000
20
268.000000
30
0.0
11
534.000000
21
209.000000
31
0.0
0
LINE
8
LINES
10
262.000000
20
817.000000
30
0.0
11
321.000000
21
817.000000
31
0.0
0
LINE
8
LINES
10
113.000000
20
313.000000
30
0.0
11
54.000000
21
313.000000
31
0.0
0
LINE
8
LINES
10
217.000000
20
793.000000
30
0.0
11
158.000000
21
793.000000
31
0.0
0
LINE
8
LINES
10
710.000000
20
822.000000
30
0.0
11
652.000000
21
822.000000
31
0.0
0
LINE
8
LINES
10
217.000000
20
833.000000
30
0.0
11
158.000000
21
833.000000
31
0.0
0
LINE
8
LINES
10
332.000000
20
908.000000
30
0.0
11
273.000000
21
908.000000
31
0.0
0
LINE
8
LINES
10
563.000000
20
934.000000
30
0.0
11
622.000000
21
934.000000
31
0.0
0
LINE
8
LINES
10
544.000000
20
486.000000
30
0.0
11
544.000000
21
544.000000
31
0.0
0
LINE
8
LINES
10
705.000000
20
486.000000
30
0.0
11
705.000000
21
544.000000
31
0.0
0
LINE
8
LINES
10
761.000000
20
278.000000
30
0.0
11
702.000000
21
278.000000
31
0.0
0
LINE
8
LINES
10
649.000000
20
657.000000
30
0.0
11
649.000000
21
716.000000
31
0.0
0
LINE
8
LINES
10
750.000000
20
483.000000
30
0.0
11
750.000000
21
542.000000
31
0.0
0
LINE
8
LINES
10
518.000000
20
14.000000
30
0.0
11
459.000000
21
14.000000
31
0.0
0
LINE
8
LINES
10
518.000000
20
20.000000
30
0.0
11
459.000000
21
20.000000
31
0.0
0
LINE
8
LINES
10
518.000000
20
44.000000
30
0.0
11
460.000000
21
44.000000
31
0.0
0
LINE
8
LINES
10
384.000000
20
480.000000
30
0.0
11
441.000000
21
480.000000
31
0.0
0
LINE
8
LINES
10
710.000000
20
795.000000
30
0.0
11
652.000000
21
795.000000
31
0.0
0
LINE
8
LINES
10
603.000000
20
473.000000
30
0.0
11
545.000000
21
473.000000
31
0.0
0
LINE
8
LINES
10
268.000000
20
617.000000
30
0.0
11
211.000000
21
617.000000
31
0.0
0
LINE
8
LINES
10
761.000000
20
310.000000
30
0.0
11
704.000000
21
310.000000
31
0.0
0
LINE
8
LINES
10
433.000000
20
313.000000
30
0.0
11
377.000000
21
313.000000
31
0.0
0
LINE
8
LINES
10
457.000000
20
438.000000
30
0.0
11
401.000000
21
438.000000
31
0.0
0
LINE
8
LINES
10
268.000000
20
716.000000
30
0.0
11
268.000000
21
659.000000
31
0.0
0
LINE
8
LINES
10
595.000000
20
572.000000
30
0.0
11
539.000000
21
572.000000
31
0.0
0
LINE
8
LINES
10
702.000000
20
561.000000
30
0.0
11
758.000000
21
561.000000
31
0.0
0
LINE
8
LINES
10
646.000000
20
963.000000
30
0.0
11
646.000000
21
1019.000000
31
0.0
0
LINE
8
LINES
10
422.000000
20
539.000000
30
0.0
11
422.000000
21
483.000000
31
0.0
0
LINE
8
LINES
10
691.000000
20
267.000000
30
0.0
11
691.000000
21
211.000000
31
0.0
0
LINE
8
LINES
10
756.000000
20
564.000000
30
0.0
11
700.000000
21
564.000000
31
0.0
0
LINE
8
LINES
10
601.000000
20
310.000000
30
0.0
11
544.000000
21
310.000000
31
0.0
0
LINE
8
LINES
10
593.000000
20
758.000000
30
0.0
11
537.000000
21
758.000000
31
0.0
0
LINE
8
LINES
10
763.000000
20
473.000000
30
0.0
11
707.000000
21
473.000000
31
0.0
0
LINE
8
LINES
10
433.000000
20
473.000000
30
0.0
11
377.000000
21
473.000000
31
0.0
0
LINE
8
LINES
10
707.000000
20
470.000000
30
0.0
11
763.000000
21
470.000000
31
0.0
0
LINE
8
LINES
10
377.000000
20
470.000000
30
0.0
11
433.000000
21
470.000000
31
0.0
0
LINE
8
LINES
10
545.000000
20
468.000000
30
0.0
11
601.000000
21
468.000000
31
0.0
0
LINE
8
LINES
10
273.000000
20
62.000000
30
0.0
11
217.000000
21
62.000000
31
0.0
0
LINE
8
LINES
10
220.000000
20
481.000000
30
0.0
11
275.000000
21
481.000000
31
0.0
0
LINE
8
LINES
10
385.000000
20
268.000000
30
0.0
11
385.000000
21
212.000000
31
0.0
0
LINE
8
LINES
10
707.000000
20
851.000000
30
0.0
11
652.000000
21
851.000000
31
0.0
0
LINE
8
LINES
10
590.000000
20
892.000000
30
0.0
11
536.000000
21
892.000000
31
0.0
0
LINE
8
LINES
10
268.000000
20
476.000000
30
0.0
11
212.000000
21
476.000000
31
0.0
0
LINE
8
LINES
10
545.000000
20
318.000000
30
0.0
11
601.000000
21
318.000000
31
0.0
0
LINE
8
LINES
10
598.000000
20
321.000000
30
0.0
11
544.000000
21
321.000000
31
0.0
0
LINE
8
LINES
10
211.000000
20
472.000000
30
0.0
11
267.000000
21
472.000000
31
0.0
0
LINE
8
LINES
10
598.000000
20
208.000000
30
0.0
11
544.000000
21
208.000000
31
0.0
0
LINE
8
LINES
10
433.000000
20
209.000000
30
0.0
11
377.000000
21
209.000000
31
0.0
0
LINE
8
LINES
10
268.000000
20
316.000000
30
0.0
11
212.000000
21
316.000000
31
0.0
0
LINE
8
LINES
10
112.000000
20
321.000000
30
0.0
11
57.000000
21
321.000000
31
0.0
0
LINE
8
LINES
10
121.000000
20
444.000000
30
0.0
11
65.000000
21
444.000000
31
0.0
0
LINE
8
LINES
10
435.000000
20
272.000000
30
0.0
11
435.000000
21
217.000000
31
0.0
0
LINE
8
LINES
10
222.000000
20
272.000000
30
0.0
11
222.000000
21
217.000000
31
0.0
0
LINE
8
LINES
10
716.000000
20
329.000000
30
0.0
11
769.000000
21
329.000000
31
0.0
0
LINE
8
LINES
10
704.000000
20
862.000000
30
0.0
11
651.000000
21
862.000000
31
0.0
0
LINE
8
LINES
10
425.000000
20
212.000000
30
0.0
11
425.000000
21
267.000000
31
0.0
0
LINE
8
LINES
10
227.000000
20
806.000000
30
0.0
11
227.000000
21
859.000000
31
0.0
0
LINE
8
LINES
10
212.000000
20
323.000000
30
0.0
11
267.000000
21
323.000000
31
0.0
0
LINE
8
LINES
10
377.000000
20
321.000000
30
0.0
11
432.000000
21
321.000000
31
0.0
0
LINE
8
LINES
10
758.000000
20
209.000000
30
0.0
11
704.000000
21
209.000000
31
0.0
0
LINE
8
LINES
10
216.000000
20
211.000000
30
0.0
11
268.000000
21
211.000000
31
0.0
0
LINE
8
LINES
10
424.000000
20
740.000000
30
0.0
11
478.000000
21
740.000000
31
0.0
0
LINE
8
LINES
10
369.000000
20
697.000000
30
0.0
11
364.000000
21
643.000000
31
0.0
0
LINE
8
LINES
10
646.000000
20
724.000000
30
0.0
11
697.000000
21
724.000000
31
0.0
0
LINE
8
LINES
10
344.000000
20
937.000000
30
0.0
11
291.000000
21
937.000000
31
0.0
0
LINE
8
LINES
10
105.000000
20
222.000000
30
0.0
11
105.000000
21
275.000000
31
0.0
0
LINE
8
LINES
10
260.000000
20
217.000000
30
0.0
11
260.000000
21
270.000000
31
0.0
0
LINE
8
LINES
10
707.000000
20
318.000000
30
0.0
11
758.000000
21
318.000000
31
0.0
0
LINE
8
LINES
10
432.000000
20
323.000000
30
0.0
11
379.000000
21
323.000000
31
0.0
0
LINE
8
LINES
10
248.000000
20
859.000000
30
0.0
11
248.000000
21
806.000000
31
0.0
0
LINE
8
LINES
10
417.000000
20
643.000000
30
0.0
11
417.000000
21
696.000000
31
0.0
0
LINE
8
LINES
10
243.000000
20
806.000000
30
0.0
11
243.000000
21
859.000000
31
0.0
0
LINE
8
LINES
10
393.000000
20
696.000000
30
0.0
11
393.000000
21
643.000000
31
0.0
0
LINE
8
LINES
10
705.000000
20
206.000000
30
0.0
11
758.000000
21
206.000000
31
0.0
0
LINE
8
LINES
10
337.000000
20
950.000000
30
0.0
11
286.000000
21
950.000000
31
0.0
0
LINE
8
LINES
10
387.000000
20
491.000000
30
0.0
11
387.000000
21
542.000000
31
0.0
0
LINE
8
LINES
10
651.000000
20
780.000000
30
0.0
11
598.000000
21
780.000000
31
0.0
0
LINE
8
LINES
10
67.000000
20
275.000000
30
0.0
11
67.000000
21
224.000000
31
0.0
0
LINE
8
LINES
10
643.000000
20
60.000000
30
0.0
11
696.000000
21
60.000000
31
0.0
0
LINE
8
LINES
10
425.000000
20
796.000000
30
0.0
11
425.000000
21
848.000000
31
0.0
0
LINE
8
LINES
10
267.000000
20
326.000000
30
0.0
11
216.000000
21
326.000000
31
0.0
0
LINE
8
LINES
10
758.000000
20
321.000000
30
0.0
11
707.000000
21
321.000000
31
0.0
0
LINE
8
LINES
10
113.000000
20
219.000000
30
0.0
11
62.000000
21
219.000000
31
0.0
0
LINE
8
LINES
10
769.000000
20
209.000000
30
0.0
11
769.000000
21
260.000000
31
0.0
0
LINE
8
LINES
10
382.000000
20
483.000000
30
0.0
11
382.000000
21
534.000000
31
0.0
0
LINE
8
LINES
10
60.000000
20
217.000000
30
0.0
11
112.000000
21
217.000000
31
0.0
0
LINE
8
LINES
10
473.000000
20
664.000000
30
0.0
11
473.000000
21
612.000000
31
0.0
0
LINE
8
LINES
10
750.000000
20
598.000000
30
0.0
11
699.000000
21
598.000000
31
0.0
0
LINE
8
LINES
10
409.000000
20
537.000000
30
0.0
11
409.000000
21
488.000000
31
0.0
0
LINE
8
LINES
10
643.000000
20
835.000000
30
0.0
11
593.000000
21
835.000000
31
0.0
0
LINE
8
LINES
10
702.000000
20
878.000000
30
0.0
11
652.000000
21
878.000000
31
0.0
0
LINE
8
LINES
10
516.000000
20
950.000000
30
0.0
11
467.000000
21
950.000000
31
0.0
0
LINE
8
LINES
10
516.000000
20
937.000000
30
0.0
11
467.000000
21
937.000000
31
0.0
0
LINE
8
LINES
10
608.000000
20
211.000000
30
0.0
11
608.000000
21
260.000000
31
0.0
0
LINE
8
LINES
10
241.000000
20
873.000000
30
0.0
11
291.000000
21
873.000000
31
0.0
0
LINE
8
LINES
10
260.000000
20
790.000000
30
0.0
11
310.000000
21
790.000000
31
0.0
0
LINE
8
LINES
10
59.000000
20
329.000000
30
0.0
11
108.000000
21
329.000000
31
0.0
0
LINE
8
LINES
10
353.000000
20
668.000000
30
0.0
11
353.000000
21
619.000000
31
0.0
0
LINE
8
LINES
10
702.000000
20
542.000000
30
0.0
11
702.000000
21
492.000000
31
0.0
0
LINE
8
LINES
10
355.000000
20
561.000000
30
0.0
11
401.000000
21
545.000000
31
0.0
0
LINE
8
LINES
10
265.000000
20
579.000000
30
0.0
11
217.000000
21
579.000000
31
0.0
0
LINE
8
LINES
10
216.000000
20
579.000000
30
0.0
11
265.000000
21
579.000000
31
0.0
0
LINE
8
LINES
10
108.000000
20
331.000000
30
0.0
11
60.000000
21
331.000000
31
0.0
0
LINE
8
LINES
10
113.000000
20
75.000000
30
0.0
11
64.000000
21
75.000000
31
0.0
0
LINE
8
LINES
10
643.000000
20
796.000000
30
0.0
11
593.000000
21
796.000000
31
0.0
0
LINE
8
LINES
10
643.000000
20
822.000000
30
0.0
11
593.000000
21
822.000000
31
0.0
0
LINE
8
LINES
10
710.000000
20
212.000000
30
0.0
11
710.000000
21
262.000000
31
0.0
0
LINE
8
LINES
10
643.000000
20
808.000000
30
0.0
11
593.000000
21
808.000000
31
0.0
0
LINE
8
LINES
10
641.000000
20
851.000000
30
0.0
11
593.000000
21
851.000000
31
0.0
0
LINE
8
LINES
10
753.000000
20
588.000000
30
0.0
11
704.000000
21
588.000000
31
0.0
0
LINE
8
LINES
10
521.000000
20
876.000000
30
0.0
11
569.000000
21
876.000000
31
0.0
0
LINE
8
LINES
10
444.000000
20
608.000000
30
0.0
11
444.000000
21
657.000000
31
0.0
0
LINE
8
LINES
10
750.000000
20
604.000000
30
0.0
11
702.000000
21
604.000000
31
0.0
0
LINE
8
LINES
10
398.000000
20
542.000000
30
0.0
11
353.000000
21
558.000000
31
0.0
0
LINE
8
LINES
10
691.000000
20
585.000000
30
0.0
11
737.000000
21
569.000000
31
0.0
0
LINE
8
LINES
10
547.000000
20
620.000000
30
0.0
11
595.000000
21
620.000000
31
0.0
0
LINE
8
LINES
10
403.000000
20
489.000000
30
0.0
11
403.000000
21
537.000000
31
0.0
0
LINE
8
LINES
10
697.000000
20
732.000000
30
0.0
11
651.000000
21
732.000000
31
0.0
0
LINE
8
LINES
10
571.000000
20
876.000000
30
0.0
11
617.000000
21
876.000000
31
0.0
0
LINE
8
LINES
10
550.000000
20
216.000000
30
0.0
11
550.000000
21
262.000000
31
0.0
0
LINE
8
LINES
10
697.000000
20
332.000000
30
0.0
11
697.000000
21
380.000000
31
0.0
0
LINE
8
LINES
10
91.000000
20
539.000000
30
0.0
11
91.000000
21
492.000000
31
0.0
0
LINE
8
LINES
10
337.000000
20
966.000000
30
0.0
11
291.000000
21
966.000000
31
0.0
0
LINE
8
LINES
10
339.000000
20
977.000000
30
0.0
11
292.000000
21
977.000000
31
0.0
0
LINE
8
LINES
10
339.000000
20
993.000000
30
0.0
11
292.000000
21
993.000000
31
0.0
0
LINE
8
LINES
10
192.000000
20
873.000000
30
0.0
11
238.000000
21
873.000000
31
0.0
0
LINE
8
LINES
10
113.000000
20
270.000000
30
0.0
11
113.000000
21
224.000000
31
0.0
0
LINE
8
LINES
10
390.000000
20
537.000000
30
0.0
11
390.000000
21
492.000000
31
0.0
0
LINE
8
LINES
10
217.000000
20
625.000000
30
0.0
11
262.000000
21
625.000000
31
0.0
0
LINE
8
LINES
10
403.000000
20
545.000000
30
0.0
11
446.000000
21
558.000000
31
0.0
0
LINE
8
LINES
10
206.000000
20
905.000000
30
0.0
11
161.000000
21
905.000000
31
0.0
0
LINE
8
LINES
10
489.000000
20
905.000000
30
0.0
11
536.000000
21
905.000000
31
0.0
0
LINE
8
LINES
10
696.000000
20
891.000000
30
0.0
11
649.000000
21
891.000000
31
0.0
0
LINE
8
LINES
10
291.000000
20
960.000000
30
0.0
11
337.000000
21
960.000000
31
0.0
0
LINE
8
LINES
10
548.000000
20
569.000000
30
0.0
11
595.000000
21
569.000000
31
0.0
0
LINE
8
LINES
10
230.000000
20
859.000000
30
0.0
11
230.000000
21
812.000000
31
0.0
0
LINE
8
LINES
10
427.000000
20
780.000000
30
0.0
11
380.000000
21
780.000000
31
0.0
0
LINE
8
LINES
10
454.000000
20
44.000000
30
0.0
11
408.000000
21
44.000000
31
0.0
0
LINE
8
LINES
10
265.000000
20
376.000000
30
0.0
11
265.000000
21
329.000000
31
0.0
0
LINE
8
LINES
10
502.000000
20
812.000000
30
0.0
11
457.000000
21
808.000000
31
0.0
0
LINE
8
LINES
10
195.000000
20
1008.000000
30
0.0
11
195.000000
21
963.000000
31
0.0
0
LINE
8
LINES
10
70.000000
20
483.000000
30
0.0
11
115.000000
21
483.000000
31
0.0
0
LINE
8
LINES
10
228.000000
20
569.000000
30
0.0
11
273.000000
21
579.000000
31
0.0
0
LINE
8
LINES
10
550.000000
20
860.000000
30
0.0
11
550.000000
21
816.000000
31
0.0
0
LINE
8
LINES
10
227.000000
20
537.000000
30
0.0
11
227.000000
21
492.000000
31
0.0
0
LINE
8
LINES
10
596.000000
20
888.000000
30
0.0
11
641.000000
21
888.000000
31
0.0
0
LINE
8
LINES
10
704.000000
20
611.000000
30
0.0
11
748.000000
21
611.000000
31
0.0
0
LINE
8
LINES
10
547.000000
20
888.000000
30
0.0
11
593.000000
21
888.000000
31
0.0
0
LINE
8
LINES
10
65.000000
20
443.000000
30
0.0
11
110.000000
21
443.000000
31
0.0
0
LINE
8
LINES
10
544.000000
20
204.000000
30
0.0
11
588.000000
21
204.000000
31
0.0
0
LINE
8
LINES
10
457.000000
20
118.000000
30
0.0
11
502.000000
21
118.000000
31
0.0
0
LINE
8
LINES
10
323.000000
20
561.000000
30
0.0
11
366.000000
21
550.000000
31
0.0
0
LINE
8
LINES
10
108.000000
20
723.000000
30
0.0
11
152.000000
21
723.000000
31
0.0
0
LINE
8
LINES
10
593.000000
20
780.000000
30
0.0
11
550.000000
21
780.000000
31
0.0
0
LINE
8
LINES
10
262.000000
20
779.000000
30
0.0
11
217.000000
21
779.000000
31
0.0
0
LINE
8
LINES
10
512.000000
20
921.000000
30
0.0
11
467.000000
21
921.000000
31
0.0
0
LINE
8
LINES
10
518.000000
20
934.000000
30
0.0
11
563.000000
21
934.000000
31
0.0
0
LINE
8
LINES
10
467.000000
20
916.000000
30
0.0
11
510.000000
21
916.000000
31
0.0
0
LINE
8
LINES
10
163.000000
20
900.000000
30
0.0
11
206.000000
21
900.000000
31
0.0
0
LINE
8
LINES
10
652.000000
20
904.000000
30
0.0
11
697.000000
21
904.000000
31
0.0
0
LINE
8
LINES
10
652.000000
20
750.000000
30
0.0
11
696.000000
21
750.000000
31
0.0
0
LINE
8
LINES
10
275.000000
20
904.000000
30
0.0
11
318.000000
21
904.000000
31
0.0
0
LINE
8
LINES
10
268.000000
20
267.000000
30
0.0
11
268.000000
21
222.000000
31
0.0
0
LINE
8
LINES
10
753.000000
20
257.000000
30
0.0
11
753.000000
21
212.000000
31
0.0
0
LINE
8
LINES
10
406.000000
20
262.000000
30
0.0
11
406.000000
21
217.000000
31
0.0
0
LINE
8
LINES
10
403.000000
20
217.000000
30
0.0
11
403.000000
21
262.000000
31
0.0
0
LINE
8
LINES
10
696.000000
20
753.000000
30
0.0
11
652.000000
21
753.000000
31
0.0
0
LINE
8
LINES
10
406.000000
20
118.000000
30
0.0
11
451.000000
21
118.000000
31
0.0
0
LINE
8
LINES
10
156.000000
20
278.000000
30
0.0
11
156.000000
21
323.000000
31
0.0
0
LINE
8
LINES
10
540.000000
20
542.000000
30
0.0
11
540.000000
21
497.000000
31
0.0
0
LINE
8
LINES
10
203.000000
20
732.000000
30
0.0
11
161.000000
21
732.000000
31
0.0
0
LINE
8
LINES
10
260.000000
20
718.000000
30
0.0
11
217.000000
21
718.000000
31
0.0
0
LINE
8
LINES
10
161.000000
20
748.000000
30
0.0
11
203.000000
21
748.000000
31
0.0
0
LINE
8
LINES
10
214.000000
20
792.000000
30
0.0
11
257.000000
21
792.000000
31
0.0
0
LINE
8
LINES
10
288.000000
20
971.000000
30
0.0
11
246.000000
21
971.000000
31
0.0
0
LINE
8
LINES
10
460.000000
20
611.000000
30
0.0
11
460.000000
21
654.000000
31
0.0
0
LINE
8
LINES
10
451.000000
20
804.000000
30
0.0
11
494.000000
21
804.000000
31
0.0
0
LINE
8
LINES
10
451.000000
20
793.000000
30
0.0
11
494.000000
21
793.000000
31
0.0
0
LINE
8
LINES
10
246.000000
20
756.000000
30
0.0
11
204.000000
21
756.000000
31
0.0
0
LINE
8
LINES
10
643.000000
20
188.000000
30
0.0
11
601.000000
21
188.000000
31
0.0
0
LINE
8
LINES
10
536.000000
20
585.000000
30
0.0
11
577.000000
21
572.000000
31
0.0
0
LINE
8
LINES
10
734.000000
20
572.000000
30
0.0
11
696.000000
21
588.000000
31
0.0
0
LINE
8
LINES
10
220.000000
20
884.000000
30
0.0
11
262.000000
21
884.000000
31
0.0
0
LINE
8
LINES
10
161.000000
20
105.000000
30
0.0
11
121.000000
21
105.000000
31
0.0
0
LINE
8
LINES
10
406.000000
20
44.000000
30
0.0
11
364.000000
21
44.000000
31
0.0
0
LINE
8
LINES
10
755.000000
20
553.000000
30
0.0
11
713.000000
21
553.000000
31
0.0
0
LINE
8
LINES
10
595.000000
20
553.000000
30
0.0
11
553.000000
21
553.000000
31
0.0
0
LINE
8
LINES
10
548.000000
20
796.000000
30
0.0
11
508.000000
21
796.000000
31
0.0
0
LINE
8
LINES
10
713.000000
20
478.000000
30
0.0
11
753.000000
21
478.000000
31
0.0
0
LINE
8
LINES
10
302.000000
20
808.000000
30
0.0
11
260.000000
21
808.000000
31
0.0
0
LINE
8
LINES
10
337.000000
20
921.000000
30
0.0
11
296.000000
21
921.000000
31
0.0
0
LINE
8
LINES
10
552.000000
20
328.000000
30
0.0
11
593.000000
21
328.000000
31
0.0
0
LINE
8
LINES
10
553.000000
20
476.000000
30
0.0
11
593.000000
21
476.000000
31
0.0
0
LINE
8
LINES
10
264.000000
20
886.000000
30
0.0
11
305.000000
21
886.000000
31
0.0
0
LINE
8
LINES
10
748.000000
20
614.000000
30
0.0
11
707.000000
21
614.000000
31
0.0
0
LINE
8
LINES
10
246.000000
20
987.000000
30
0.0
11
288.000000
21
987.000000
31
0.0
0
LINE
8
LINES
10
590.000000
20
96.000000
30
0.0
11
548.000000
21
96.000000
31
0.0
0
LINE
8
LINES
10
729.000000
20
672.000000
30
0.0
11
729.000000
21
713.000000
31
0.0
0
LINE
8
LINES
10
691.000000
20
721.000000
30
0.0
11
649.000000
21
721.000000
31
0.0
0
LINE
8
LINES
10
88.000000
20
270.000000
30
0.0
11
88.000000
21
228.000000
31
0.0
0
LINE
8
LINES
10
593.000000
20
257.000000
30
0.0
11
593.000000
21
216.000000
31
0.0
0
LINE
8
LINES
10
292.000000
20
441.000000
30
0.0
11
252.000000
21
441.000000
31
0.0
0
LINE
8
LINES
10
158.000000
20
54.000000
30
0.0
11
118.000000
21
54.000000
31
0.0
0
LINE
8
LINES
10
496.000000
20
113.000000
30
0.0
11
537.000000
21
113.000000
31
0.0
0
LINE
8
LINES
10
236.000000
20
222.000000
30
0.0
11
236.000000
21
262.000000
31
0.0
0
LINE
8
LINES
10
385.000000
20
329.000000
30
0.0
11
425.000000
21
329.000000
31
0.0
0
LINE
8
LINES
10
385.000000
20
216.000000
30
0.0
11
425.000000
21
216.000000
31
0.0
0
LINE
8
LINES
10
265.000000
20
102.000000
30
0.0
11
225.000000
21
102.000000
31
0.0
0
LINE
8
LINES
10
177.000000
20
884.000000
30
0.0
11
217.000000
21
884.000000
31
0.0
0
LINE
8
LINES
10
649.000000
20
720.000000
30
0.0
11
689.000000
21
720.000000
31
0.0
0
LINE
8
LINES
10
86.000000
20
230.000000
30
0.0
11
86.000000
21
270.000000
31
0.0
0
LINE
8
LINES
10
547.000000
20
808.000000
30
0.0
11
508.000000
21
808.000000
31
0.0
0
LINE
8
LINES
10
425.000000
20
265.000000
30
0.0
11
385.000000
21
265.000000
31
0.0
0
LINE
8
LINES
10
376.000000
20
219.000000
30
0.0
11
376.000000
21
259.000000
31
0.0
0
LINE
8
LINES
10
552.000000
20
793.000000
30
0.0
11
592.000000
21
793.000000
31
0.0
0
LINE
8
LINES
10
748.000000
20
96.000000
30
0.0
11
707.000000
21
96.000000
31
0.0
0
LINE
8
LINES
10
452.000000
20
779.000000
30
0.0
11
492.000000
21
779.000000
31
0.0
0
LINE
8
LINES
10
440.000000
20
664.000000
30
0.0
11
440.000000
21
624.000000
31
0.0
0
LINE
8
LINES
10
201.000000
20
753.000000
30
0.0
11
161.000000
21
753.000000
31
0.0
0
LINE
8
LINES
10
110.000000
20
473.000000
30
0.0
11
70.000000
21
473.000000
31
0.0
0
LINE
8
LINES
10
595.000000
20
713.000000
30
0.0
11
595.000000
21
673.000000
31
0.0
0
LINE
8
LINES
10
492.000000
20
782.000000
30
0.0
11
452.000000
21
782.000000
31
0.0
0
LINE
8
LINES
10
540.000000
20
406.000000
30
0.0
11
540.000000
21
366.000000
31
0.0
0
LINE
8
LINES
10
652.000000
20
649.000000
30
0.0
11
691.000000
21
636.000000
31
0.0
0
LINE
8
LINES
10
260.000000
20
891.000000
30
0.0
11
222.000000
21
891.000000
31
0.0
0
LINE
8
LINES
10
462.000000
20
3.000000
30
0.0
11
424.000000
21
3.000000
31
0.0
0
LINE
8
LINES
10
424.000000
20
411.000000
30
0.0
11
385.000000
21
411.000000
31
0.0
0
LINE
8
LINES
10
507.000000
20
888.000000
30
0.0
11
545.000000
21
888.000000
31
0.0
0
LINE
8
LINES
10
68.000000
20
476.000000
30
0.0
11
108.000000
21
476.000000
31
0.0
0
LINE
8
LINES
10
747.000000
20
265.000000
30
0.0
11
747.000000
21
227.000000
31
0.0
0
LINE
8
LINES
10
257.000000
20
372.000000
30
0.0
11
257.000000
21
334.000000
31
0.0
0
LINE
8
LINES
10
384.000000
20
796.000000
30
0.0
11
422.000000
21
796.000000
31
0.0
0
LINE
8
LINES
10
595.000000
20
667.000000
30
0.0
11
595.000000
21
627.000000
31
0.0
0
LINE
8
LINES
10
699.000000
20
710.000000
30
0.0
11
699.000000
21
672.000000
31
0.0
0
LINE
8
LINES
10
17.000000
20
129.000000
30
0.0
11
57.000000
21
129.000000
31
0.0
0
LINE
8
LINES
10
726.000000
20
43.000000
30
0.0
11
686.000000
21
43.000000
31
0.0
0
LINE
8
LINES
10
632.000000
20
113.000000
30
0.0
11
670.000000
21
113.000000
31
0.0
0
LINE
8
LINES
10
84.000000
20
577.000000
30
0.0
11
120.000000
21
590.000000
31
0.0
0
LINE
8
LINES
10
710.000000
20
620.000000
30
0.0
11
748.000000
21
620.000000
31
0.0
0
LINE
8
LINES
10
260.000000
20
272.000000
30
0.0
11
222.000000
21
272.000000
31
0.0
0
LINE
8
LINES
10
65.000000
20
337.000000
30
0.0
11
102.000000
21
337.000000
31
0.0
0
LINE
8
LINES
10
521.000000
20
958.000000
30
0.0
11
521.000000
21
996.000000
31
0.0
0
LINE
8
LINES
10
259.000000
20
412.000000
30
0.0
11
222.000000
21
412.000000
31
0.0
0
LINE
8
LINES
10
299.000000
20
796.000000
30
0.0
11
262.000000
21
796.000000
31
0.0
0
LINE
8
LINES
10
212.000000
20
225.000000
30
0.0
11
212.000000
21
262.000000
31
0.0
0
LINE
8
LINES
10
592.000000
20
409.000000
30
0.0
11
553.000000
21
409.000000
31
0.0
0
LINE
8
LINES
10
156.000000
20
726.000000
30
0.0
11
193.000000
21
726.000000
31
0.0
0
LINE
8
LINES
10
67.000000
20
225.000000
30
0.0
11
105.000000
21
225.000000
31
0.0
0
LINE
8
LINES
10
108.000000
20
478.000000
30
0.0
11
70.000000
21
478.000000
31
0.0
0
LINE
8
LINES
10
297.000000
20
915.000000
30
0.0
11
336.000000
21
915.000000
31
0.0
0
LINE
8
LINES
10
57.000000
20
230.000000
30
0.0
11
57.000000
21
268.000000
31
0.0
0
LINE
8
LINES
10
120.000000
20
595.000000
30
0.0
11
86.000000
21
580.000000
31
0.0
0
LINE
8
LINES
10
313.000000
20
804.000000
30
0.0
11
352.000000
21
804.000000
31
0.0
0
LINE
8
LINES
10
388.000000
20
657.000000
30
0.0
11
388.000000
21
696.000000
31
0.0
0
LINE
8
LINES
10
732.000000
20
494.000000
30
0.0
11
732.000000
21
531.000000
31
0.0
0
LINE
8
LINES
10
313.000000
20
793.000000
30
0.0
11
352.000000
21
793.000000
31
0.0
0
LINE
8
LINES
10
256.000000
20
931.000000
30
0.0
11
256.000000
21
892.000000
31
0.0
0
LINE
8
LINES
10
459.000000
20
652.000000
30
0.0
11
459.000000
21
616.000000
31
0.0
0
LINE
8
LINES
10
577.000000
20
574.000000
30
0.0
11
611.000000
21
588.000000
31
0.0
0
LINE
8
LINES
10
222.000000
20
929.000000
30
0.0
11
222.000000
21
892.000000
31
0.0
0
LINE
8
LINES
10
713.000000
20
214.000000
30
0.0
11
748.000000
21
214.000000
31
0.0
0
LINE
8
LINES
10
104.000000
20
275.000000
30
0.0
11
67.000000
21
275.000000
31
0.0
0
LINE
8
LINES
10
102.000000
20
417.000000
30
0.0
11
65.000000
21
417.000000
31
0.0
0
LINE
8
LINES
10
643.000000
20
732.000000
30
0.0
11
608.000000
21
732.000000
31
0.0
0
LINE
8
LINES
10
643.000000
20
755.000000
30
0.0
11
606.000000
21
755.000000
31
0.0
0
LINE
8
LINES
10
243.000000
20
259.000000
30
0.0
11
243.000000
21
222.000000
31
0.0
0
LINE
8
LINES
10
718.000000
20
772.000000
30
0.0
11
683.000000
21
772.000000
31
0.0
0
LINE
8
LINES
10
270.000000
20
470.000000
30
0.0
11
233.000000
21
470.000000
31
0.0
0
LINE
8
LINES
10
153.000000
20
483.000000
30
0.0
11
153.000000
21
518.000000
31
0.0
0
LINE
8
LINES
10
444.000000
20
923.000000
30
0.0
11
408.000000
21
923.000000
31
0.0
0
LINE
8
LINES
10
771.000000
20
41.000000
30
0.0
11
734.000000
21
41.000000
31
0.0
0
LINE
8
LINES
10
620.000000
20
993.000000
30
0.0
11
616.000000
21
958.000000
31
0.0
0
LINE
8
LINES
10
467.000000
20
945.000000
30
0.0
11
502.000000
21
945.000000
31
0.0
0
LINE
8
LINES
10
291.000000
20
976.000000
30
0.0
11
291.000000
21
1011.000000
31
0.0
0
LINE
8
LINES
10
686.000000
20
908.000000
30
0.0
11
651.000000
21
908.000000
31
0.0
0
LINE
8
LINES
10
344.000000
20
902.000000
30
0.0
11
344.000000
21
937.000000
31
0.0
0
LINE
8
LINES
10
380.000000
20
6.000000
30
0.0
11
345.000000
21
6.000000
31
0.0
0
LINE
8
LINES
10
606.000000
20
904.000000
30
0.0
11
641.000000
21
904.000000
31
0.0
0
LINE
8
LINES
10
756.000000
20
403.000000
30
0.0
11
756.000000
21
368.000000
31
0.0
0
LINE
8
LINES
10
152.000000
20
732.000000
30
0.0
11
116.000000
21
732.000000
31
0.0
0
LINE
8
LINES
10
241.000000
20
408.000000
30
0.0
11
241.000000
21
372.000000
31
0.0
0
LINE
8
LINES
10
254.000000
20
376.000000
30
0.0
11
254.000000
21
411.000000
31
0.0
0
LINE
8
LINES
10
398.000000
20
686.000000
30
0.0
11
398.000000
21
652.000000
31
0.0
0
LINE
8
LINES
10
422.000000
20
332.000000
30
0.0
11
387.000000
21
332.000000
31
0.0
0
LINE
8
LINES
10
588.000000
20
331.000000
30
0.0
11
553.000000
21
331.000000
31
0.0
0
LINE
8
LINES
10
718.000000
20
547.000000
30
0.0
11
718.000000
21
512.000000
31
0.0
0
LINE
8
LINES
10
246.000000
20
929.000000
30
0.0
11
246.000000
21
894.000000
31
0.0
0
LINE
8
LINES
10
153.000000
20
379.000000
30
0.0
11
153.000000
21
414.000000
31
0.0
0
LINE
8
LINES
10
817.000000
20
41.000000
30
0.0
11
782.000000
21
41.000000
31
0.0
0
LINE
8
LINES
10
705.000000
20
588.000000
30
0.0
11
737.000000
21
574.000000
31
0.0
0
LINE
8
LINES
10
686.000000
20
974.000000
30
0.0
11
692.000000
21
940.000000
31
0.0
0
LINE
8
LINES
10
227.000000
20
963.000000
30
0.0
11
193.000000
21
960.000000
31
0.0
0
LINE
8
LINES
10
152.000000
20
793.000000
30
0.0
11
118.000000
21
793.000000
31
0.0
0
LINE
8
LINES
10
257.000000
20
488.000000
30
0.0
11
222.000000
21
488.000000
31
0.0
0
LINE
8
LINES
10
243.000000
20
971.000000
30
0.0
11
211.000000
21
971.000000
31
0.0
0
LINE
8
LINES
10
152.000000
20
723.000000
30
0.0
11
118.000000
21
723.000000
31
0.0
0
LINE
8
LINES
10
353.000000
20
809.000000
30
0.0
11
321.000000
21
809.000000
31
0.0
0
LINE
8
LINES
10
70.000000
20
78.000000
30
0.0
11
104.000000
21
78.000000
31
0.0
0
LINE
8
LINES
10
150.000000
20
753.000000
30
0.0
11
116.000000
21
753.000000
31
0.0
0
LINE
8
LINES
10
747.000000
20
217.000000
30
0.0
11
713.000000
21
217.000000
31
0.0
0
LINE
8
LINES
10
249.000000
20
825.000000
30
0.0
11
249.000000
21
859.000000
31
0.0
0
LINE
8
LINES
10
97.000000
20
380.000000
30
0.0
11
97.000000
21
414.000000
31
0.0
0
LINE
8
LINES
10
262.000000
20
894.000000
30
0.0
11
259.000000
21
928.000000
31
0.0
0
LINE
8
LINES
10
737.000000
20
467.000000
30
0.0
11
702.000000
21
467.000000
31
0.0
0
LINE
8
LINES
10
731.000000
20
716.000000
30
0.0
11
697.000000
21
716.000000
31
0.0
0
LINE
8
LINES
10
422.000000
20
486.000000
30
0.0
11
388.000000
21
486.000000
31
0.0
0
LINE
8
LINES
10
468.000000
20
889.000000
30
0.0
11
502.000000
21
889.000000
31
0.0
0
LINE
8
LINES
10
193.000000
20
723.000000
30
0.0
11
158.000000
21
723.000000
31
0.0
0
LINE
8
LINES
10
233.000000
20
825.000000
30
0.0
11
233.000000
21
859.000000
31
0.0
0
LINE
8
LINES
10
403.000000
20
336.000000
30
0.0
11
403.000000
21
369.000000
31
0.0
0
LINE
8
LINES
10
348.000000
20
780.000000
30
0.0
11
313.000000
21
780.000000
31
0.0
0
LINE
8
LINES
10
238.000000
20
603.000000
30
0.0
11
273.000000
21
603.000000
31
0.0
0
LINE
8
LINES
10
310.000000
20
793.000000
30
0.0
11
304.000000
21
761.000000
31
0.0
0
LINE
8
LINES
10
196.000000
20
582.000000
30
0.0
11
228.000000
21
571.000000
31
0.0
0
LINE
8
LINES
10
801.000000
20
204.000000
30
0.0
11
771.000000
21
220.000000
31
0.0
0
LINE
8
LINES
10
366.000000
20
793.000000
30
0.0
11
358.000000
21
761.000000
31
0.0
0
LINE
8
LINES
10
585.000000
20
926.000000
30
0.0
11
590.000000
21
894.000000
31
0.0
0
LINE
8
LINES
10
467.000000
20
1001.000000
30
0.0
11
499.000000
21
1001.000000
31
0.0
0
LINE
8
LINES
10
720.000000
20
713.000000
30
0.0
11
720.000000
21
681.000000
31
0.0
0
LINE
8
LINES
10
668.000000
20
886.000000
30
0.0
11
700.000000
21
886.000000
31
0.0
0
LINE
8
LINES
10
726.000000
20
232.000000
30
0.0
11
726.000000
21
264.000000
31
0.0
0
LINE
8
LINES
10
566.000000
20
222.000000
30
0.0
11
566.000000
21
256.000000
31
0.0
0
LINE
8
LINES
10
152.000000
20
804.000000
30
0.0
11
118.000000
21
804.000000
31
0.0
0
LINE
8
LINES
10
641.000000
20
892.000000
30
0.0
11
608.000000
21
892.000000
31
0.0
0
LINE
8
LINES
10
697.000000
20
718.000000
30
0.0
11
731.000000
21
718.000000
31
0.0
0
LINE
8
LINES
10
345.000000
20
736.000000
30
0.0
11
313.000000
21
736.000000
31
0.0
0
LINE
8
LINES
10
353.000000
20
99.000000
30
0.0
11
353.000000
21
67.000000
31
0.0
0
LINE
8
LINES
10
649.000000
20
726.000000
30
0.0
11
649.000000
21
758.000000
31
0.0
0
LINE
8
LINES
10
118.000000
20
748.000000
30
0.0
11
152.000000
21
748.000000
31
0.0
0
LINE
8
LINES
10
339.000000
20
942.000000
30
0.0
11
339.000000
21
974.000000
31
0.0
0
LINE
8
LINES
10
500.000000
20
1006.000000
30
0.0
11
467.000000
21
1006.000000
31
0.0
0
LINE
8
LINES
10
609.000000
20
750.000000
30
0.0
11
641.000000
21
750.000000
31
0.0
0
LINE
8
LINES
10
643.000000
20
723.000000
30
0.0
11
611.000000
21
723.000000
31
0.0
0
LINE
8
LINES
10
748.000000
20
334.000000
30
0.0
11
716.000000
21
334.000000
31
0.0
0
LINE
8
LINES
10
576.000000
20
368.000000
30
0.0
11
576.000000
21
336.000000
31
0.0
0
LINE
8
LINES
10
576.000000
20
406.000000
30
0.0
11
576.000000
21
374.000000
31
0.0
0
LINE
8
LINES
10
569.000000
20
336.000000
30
0.0
11
569.000000
21
368.000000
31
0.0
0
LINE
8
LINES
10
827.000000
20
27.000000
30
0.0
11
817.000000
21
57.000000
31
0.0
0
LINE
8
LINES
10
390.000000
20
408.000000
30
0.0
11
390.000000
21
376.000000
31
0.0
0
LINE
8
LINES
10
409.000000
20
408.000000
30
0.0
11
409.000000
21
376.000000
31
0.0
0
LINE
8
LINES
10
420.000000
20
337.000000
30
0.0
11
420.000000
21
369.000000
31
0.0
0
LINE
8
LINES
10
556.000000
20
368.000000
30
0.0
11
556.000000
21
336.000000
31
0.0
0
LINE
8
LINES
10
569.000000
20
374.000000
30
0.0
11
569.000000
21
406.000000
31
0.0
0
LINE
8
LINES
10
316.000000
20
777.000000
30
0.0
11
348.000000
21
777.000000
31
0.0
0
LINE
8
LINES
10
84.000000
20
372.000000
30
0.0
11
84.000000
21
340.000000
31
0.0
0
LINE
8
LINES
10
401.000000
20
376.000000
30
0.0
11
401.000000
21
408.000000
31
0.0
0
LINE
8
LINES
10
390.000000
20
369.000000
30
0.0
11
390.000000
21
337.000000
31
0.0
0
LINE
8
LINES
10
588.000000
20
336.000000
30
0.0
11
588.000000
21
368.000000
31
0.0
0
LINE
8
LINES
10
588.000000
20
374.000000
30
0.0
11
588.000000
21
406.000000
31
0.0
0
LINE
8
LINES
10
558.000000
20
406.000000
30
0.0
11
558.000000
21
374.000000
31
0.0
0
LINE
8
LINES
10
409.000000
20
369.000000
30
0.0
11
409.000000
21
337.000000
31
0.0
0
LINE
8
LINES
10
78.000000
20
380.000000
30
0.0
11
78.000000
21
412.000000
31
0.0
0
LINE
8
LINES
10
438.000000
20
603.000000
30
0.0
11
406.000000
21
596.000000
31
0.0
0
LINE
8
LINES
10
598.000000
20
926.000000
30
0.0
11
604.000000
21
894.000000
31
0.0
0
LINE
8
LINES
10
537.000000
20
894.000000
30
0.0
11
542.000000
21
926.000000
31
0.0
0
LINE
8
LINES
10
256.000000
20
937.000000
30
0.0
11
224.000000
21
937.000000
31
0.0
0
LINE
8
LINES
10
398.000000
20
598.000000
30
0.0
11
366.000000
21
604.000000
31
0.0
0
LINE
8
LINES
10
550.000000
20
926.000000
30
0.0
11
550.000000
21
896.000000
31
0.0
0
LINE
8
LINES
10
593.000000
20
894.000000
30
0.0
11
590.000000
21
926.000000
31
0.0
0
LINE
8
LINES
10
574.000000
20
254.000000
30
0.0
11
574.000000
21
222.000000
31
0.0
0
LINE
8
LINES
10
297.000000
20
780.000000
30
0.0
11
265.000000
21
780.000000
31
0.0
0
LINE
8
LINES
10
361.000000
20
699.000000
30
0.0
11
329.000000
21
699.000000
31
0.0
0
LINE
8
LINES
10
449.000000
20
793.000000
30
0.0
11
449.000000
21
761.000000
31
0.0
0
LINE
8
LINES
10
745.000000
20
630.000000
30
0.0
11
713.000000
21
630.000000
31
0.0
0
LINE
8
LINES
10
700.000000
20
726.000000
30
0.0
11
700.000000
21
758.000000
31
0.0
0
LINE
8
LINES
10
88.000000
20
596.000000
30
0.0
11
118.000000
21
596.000000
31
0.0
0
LINE
8
LINES
10
436.000000
20
67.000000
30
0.0
11
436.000000
21
97.000000
31
0.0
0
LINE
8
LINES
10
497.000000
20
966.000000
30
0.0
11
467.000000
21
966.000000
31
0.0
0
LINE
8
LINES
10
705.000000
20
97.000000
30
0.0
11
705.000000
21
65.000000
31
0.0
0
LINE
8
LINES
10
192.000000
20
974.000000
30
0.0
11
161.000000
21
974.000000
31
0.0
0
LINE
8
LINES
10
729.000000
20
665.000000
30
0.0
11
729.000000
21
633.000000
31
0.0
0
LINE
8
LINES
10
467.000000
20
974.000000
30
0.0
11
497.000000
21
974.000000
31
0.0
0
LINE
8
LINES
10
361.000000
20
62.000000
30
0.0
11
358.000000
21
30.000000
31
0.0
0
LINE
8
LINES
10
355.000000
20
67.000000
30
0.0
11
355.000000
21
99.000000
31
0.0
0
LINE
8
LINES
10
587.000000
20
224.000000
30
0.0
11
587.000000
21
256.000000
31
0.0
0
LINE
8
LINES
10
756.000000
20
361.000000
30
0.0
11
756.000000
21
331.000000
31
0.0
0
LINE
8
LINES
10
254.000000
20
337.000000
30
0.0
11
254.000000
21
369.000000
31
0.0
0
LINE
8
LINES
10
700.000000
20
363.000000
30
0.0
11
700.000000
21
332.000000
31
0.0
0
LINE
8
LINES
10
563.000000
20
926.000000
30
0.0
11
563.000000
21
896.000000
31
0.0
0
LINE
8
LINES
10
744.000000
20
222.000000
30
0.0
11
713.000000
21
222.000000
31
0.0
0
LINE
8
LINES
10
574.000000
20
926.000000
30
0.0
11
574.000000
21
896.000000
31
0.0
0
LINE
8
LINES
10
729.000000
20
721.000000
30
0.0
11
697.000000
21
721.000000
31
0.0
0
LINE
8
LINES
10
697.000000
20
723.000000
30
0.0
11
729.000000
21
723.000000
31
0.0
0
LINE
8
LINES
10
243.000000
20
366.000000
30
0.0
11
243.000000
21
336.000000
31
0.0
0
LINE
8
LINES
10
182.000000
20
36.000000
30
0.0
11
182.000000
21
67.000000
31
0.0
0
LINE
8
LINES
10
97.000000
20
342.000000
30
0.0
11
97.000000
21
374.000000
31
0.0
0
LINE
8
LINES
10
580.000000
20
894.000000
30
0.0
11
580.000000
21
926.000000
31
0.0
0
LINE
8
LINES
10
192.000000
20
772.000000
30
0.0
11
161.000000
21
772.000000
31
0.0
0
LINE
8
LINES
10
78.000000
20
342.000000
30
0.0
11
78.000000
21
372.000000
31
0.0
0
LINE
8
LINES
10
84.000000
20
412.000000
30
0.0
11
84.000000
21
382.000000
31
0.0
0
LINE
8
LINES
10
249.000000
20
897.000000
30
0.0
11
249.000000
21
928.000000
31
0.0
0
LINE
8
LINES
10
588.000000
20
220.000000
30
0.0
11
556.000000
21
220.000000
31
0.0
0
LINE
8
LINES
10
553.000000
20
894.000000
30
0.0
11
556.000000
21
926.000000
31
0.0
0
LINE
8
LINES
10
214.000000
20
590.000000
30
0.0
11
243.000000
21
584.000000
31
0.0
0
LINE
8
LINES
10
564.000000
20
896.000000
30
0.0
11
564.000000
21
926.000000
31
0.0
0
LINE
8
LINES
10
617.000000
20
28.000000
30
0.0
11
614.000000
21
57.000000
31
0.0
0
LINE
8
LINES
10
267.000000
20
414.000000
30
0.0
11
267.000000
21
384.000000
31
0.0
0
LINE
8
LINES
10
118.000000
20
441.000000
30
0.0
11
148.000000
21
441.000000
31
0.0
0
LINE
8
LINES
10
678.000000
20
113.000000
30
0.0
11
707.000000
21
113.000000
31
0.0
0
LINE
8
LINES
10
384.000000
20
99.000000
30
0.0
11
384.000000
21
68.000000
31
0.0
0
LINE
8
LINES
10
83.000000
20
566.000000
30
0.0
11
113.000000
21
566.000000
31
0.0
0
LINE
8
LINES
10
152.000000
20
820.000000
30
0.0
11
121.000000
21
820.000000
31
0.0
0
LINE
8
LINES
10
678.000000
20
947.000000
30
0.0
11
648.000000
21
947.000000
31
0.0
0
LINE
8
LINES
10
425.000000
20
848.000000
30
0.0
11
456.000000
21
848.000000
31
0.0
0
LINE
8
LINES
10
457.000000
20
848.000000
30
0.0
11
488.000000
21
848.000000
31
0.0
0
LINE
8
LINES
10
588.000000
20
257.000000
30
0.0
11
588.000000
21
227.000000
31
0.0
0
LINE
8
LINES
10
307.000000
20
972.000000
30
0.0
11
337.000000
21
972.000000
31
0.0
0
LINE
8
LINES
10
307.000000
20
944.000000
30
0.0
11
337.000000
21
944.000000
31
0.0
0
LINE
8
LINES
10
307.000000
20
1000.000000
30
0.0
11
337.000000
21
1000.000000
31
0.0
0
LINE
8
LINES
10
457.000000
20
820.000000
30
0.0
11
488.000000
21
820.000000
31
0.0
0
ENDSEC
0
EOF
