<svg xmlns="http://www.w3.org/2000/svg" viewBox="0 0 595 441" width="595" height="441">
  <rect x="0" y="0" width="595" height="441" fill="#fff"/>
  <g id="facade_outline">
    <polygon id="facade_0001" points="0,0 595,0 595,441 0,441" stroke="#000" stroke-width="2" fill="none"/>
  </g>
  <g id="openings_windows">
    <rect id="window_0001" x="152" y="32" width="56" height="16" stroke="#000" stroke-width="1" fill="none" data-conf="0.7052" data-type="window"/>
    <rect id="window_0002" x="224" y="48" width="220" height="80" stroke="#000" stroke-width="1" fill="none" data-conf="0.7100" data-type="window"/>
    <rect id="window_0003" x="156" y="60" width="36" height="40" stroke="#000" stroke-width="1" fill="none" data-conf="0.6619" data-type="window"/>
    <rect id="window_0004" x="168" y="60" width="144" height="68" stroke="#000" stroke-width="1" fill="none" data-conf="0.8380" data-type="window"/>
    <rect id="window_0005" x="108" y="68" width="48" height="60" stroke="#000" stroke-width="1" fill="none" data-conf="0.8978" data-type="window"/>
    <rect id="window_0006" x="300" y="120" width="60" height="28" stroke="#000" stroke-width="1" fill="none" data-conf="0.8622" data-type="window"/>
    <rect id="window_0007" x="360" y="124" width="32" height="24" stroke="#000" stroke-width="1" fill="none" data-conf="0.9290" data-type="window"/>
    <rect id="window_0008" x="280" y="128" width="32" height="20" stroke="#000" stroke-width="1" fill="none" data-conf="0.8036" data-type="window"/>
    <rect id="window_0009" x="280" y="144" width="312" height="256" stroke="#000" stroke-width="1" fill="none" data-conf="0.7842" data-type="window"/>
    <rect id="window_0010" x="428" y="176" width="100" height="80" stroke="#000" stroke-width="1" fill="none" data-conf="0.9402" data-type="window"/>
    <rect id="window_0011" x="144" y="180" width="96" height="80" stroke="#000" stroke-width="1" fill="none" data-conf="0.9347" data-type="window"/>
    <rect id="window_0012" x="452" y="184" width="52" height="64" stroke="#000" stroke-width="1" fill="none" data-conf="0.8551" data-type="window"/>
    <rect id="window_0013" x="168" y="184" width="52" height="68" stroke="#000" stroke-width="1" fill="none" data-conf="0.8819" data-type="window"/>
    <rect id="window_0014" x="280" y="240" width="36" height="40" stroke="#000" stroke-width="1" fill="none" data-conf="0.7599" data-type="window"/>
    <rect id="window_0015" x="0" y="288" width="100" height="104" stroke="#000" stroke-width="1" fill="none" data-conf="0.6048" data-type="window"/>
    <rect id="window_0016" x="144" y="292" width="96" height="100" stroke="#000" stroke-width="1" fill="none" data-conf="0.8637" data-type="window"/>
    <rect id="window_0017" x="168" y="300" width="56" height="68" stroke="#000" stroke-width="1" fill="none" data-conf="0.8801" data-type="window"/>
    <rect id="window_0018" x="456" y="304" width="48" height="60" stroke="#000" stroke-width="1" fill="none" data-conf="0.9153" data-type="window"/>
    <rect id="window_0019" x="452" y="368" width="52" height="28" stroke="#000" stroke-width="1" fill="none" data-conf="0.9040" data-type="window"/>
  </g>
  <g id="openings_doors">
    <rect id="door_0001" x="40" y="188" width="16" height="64" stroke="#000" stroke-width="1" fill="none" data-conf="0.8586" data-type="door"/>
  </g>
  <g id="lines">
    <line id="line_0001" x1="72" y1="428" x2="72" y2="156" stroke="#000" stroke-width="1" data-conf="0.3686"/>
    <line id="line_0002" x1="8" y1="440" x2="8" y2="176" stroke="#000" stroke-width="1" data-conf="0.3565"/>
    <line id="line_0003" x1="284" y1="148" x2="512" y2="148" stroke="#000" stroke-width="1" data-conf="0.3065"/>
    <line id="line_0004" x1="580" y1="320" x2="580" y2="96" stroke="#000" stroke-width="1" data-conf="0.3004"/>
    <line id="line_0005" x1="168" y1="16" x2="384" y2="16" stroke="#000" stroke-width="1" data-conf="0.2878"/>
    <line id="line_0006" x1="172" y1="12" x2="384" y2="12" stroke="#000" stroke-width="1" data-conf="0.2864"/>
    <line id="line_0007" x1="176" y1="4" x2="384" y2="4" stroke="#000" stroke-width="1" data-conf="0.2835"/>
    <line id="line_0008" x1="176" y1="0" x2="384" y2="0" stroke="#000" stroke-width="1" data-conf="0.2808"/>
    <line id="line_0009" x1="76" y1="152" x2="276" y2="152" stroke="#000" stroke-width="1" data-conf="0.2673"/>
    <line id="line_0010" x1="336" y1="152" x2="520" y2="152" stroke="#000" stroke-width="1" data-conf="0.2457"/>
    <line id="line_0011" x1="240" y1="136" x2="420" y2="136" stroke="#000" stroke-width="1" data-conf="0.2417"/>
    <line id="line_0012" x1="200" y1="400" x2="376" y2="400" stroke="#000" stroke-width="1" data-conf="0.2404"/>
    <line id="line_0013" x1="208" y1="0" x2="384" y2="0" stroke="#000" stroke-width="1" data-conf="0.2349"/>
    <line id="line_0014" x1="176" y1="0" x2="344" y2="0" stroke="#000" stroke-width="1" data-conf="0.2284"/>
    <line id="line_0015" x1="308" y1="136" x2="476" y2="136" stroke="#000" stroke-width="1" data-conf="0.2268"/>
    <line id="line_0016" x1="200" y1="0" x2="360" y2="0" stroke="#000" stroke-width="1" data-conf="0.2181"/>
    <line id="line_0017" x1="272" y1="132" x2="432" y2="132" stroke="#000" stroke-width="1" data-conf="0.2174"/>
    <line id="line_0018" x1="376" y1="220" x2="536" y2="220" stroke="#000" stroke-width="1" data-conf="0.2163"/>
    <line id="line_0019" x1="336" y1="392" x2="496" y2="392" stroke="#000" stroke-width="1" data-conf="0.2134"/>
    <line id="line_0020" x1="224" y1="0" x2="384" y2="0" stroke="#000" stroke-width="1" data-conf="0.2133"/>
    <line id="line_0021" x1="208" y1="4" x2="364" y2="4" stroke="#000" stroke-width="1" data-conf="0.2120"/>
    <line id="line_0022" x1="104" y1="236" x2="244" y2="236" stroke="#000" stroke-width="1" data-conf="0.1932"/>
    <line id="line_0023" x1="244" y1="24" x2="384" y2="24" stroke="#000" stroke-width="1" data-conf="0.1894"/>
    <line id="line_0024" x1="232" y1="8" x2="368" y2="8" stroke="#000" stroke-width="1" data-conf="0.1891"/>
    <line id="line_0025" x1="236" y1="4" x2="376" y2="4" stroke="#000" stroke-width="1" data-conf="0.1890"/>
    <line id="line_0026" x1="252" y1="136" x2="384" y2="136" stroke="#000" stroke-width="1" data-conf="0.1812"/>
    <line id="line_0027" x1="416" y1="392" x2="552" y2="392" stroke="#000" stroke-width="1" data-conf="0.1810"/>
    <line id="line_0028" x1="276" y1="132" x2="412" y2="132" stroke="#000" stroke-width="1" data-conf="0.1810"/>
    <line id="line_0029" x1="272" y1="128" x2="400" y2="128" stroke="#000" stroke-width="1" data-conf="0.1756"/>
    <line id="line_0030" x1="464" y1="0" x2="592" y2="0" stroke="#000" stroke-width="1" data-conf="0.1751"/>
    <line id="line_0031" x1="256" y1="120" x2="380" y2="120" stroke="#000" stroke-width="1" data-conf="0.1634"/>
    <line id="line_0032" x1="576" y1="328" x2="576" y2="208" stroke="#000" stroke-width="1" data-conf="0.1624"/>
    <line id="line_0033" x1="168" y1="24" x2="288" y2="24" stroke="#000" stroke-width="1" data-conf="0.1610"/>
    <line id="line_0034" x1="280" y1="400" x2="280" y2="280" stroke="#000" stroke-width="1" data-conf="0.1580"/>
    <line id="line_0035" x1="568" y1="380" x2="568" y2="268" stroke="#000" stroke-width="1" data-conf="0.1539"/>
    <line id="line_0036" x1="480" y1="136" x2="592" y2="136" stroke="#000" stroke-width="1" data-conf="0.1526"/>
    <line id="line_0037" x1="216" y1="160" x2="328" y2="160" stroke="#000" stroke-width="1" data-conf="0.1526"/>
    <line id="line_0038" x1="60" y1="144" x2="60" y2="32" stroke="#000" stroke-width="1" data-conf="0.1513"/>
    <line id="line_0039" x1="4" y1="80" x2="112" y2="80" stroke="#000" stroke-width="1" data-conf="0.1503"/>
    <line id="line_0040" x1="288" y1="396" x2="288" y2="288" stroke="#000" stroke-width="1" data-conf="0.1499"/>
    <line id="line_0041" x1="344" y1="128" x2="456" y2="128" stroke="#000" stroke-width="1" data-conf="0.1499"/>
    <line id="line_0042" x1="192" y1="64" x2="272" y2="140" stroke="#000" stroke-width="1" data-conf="0.1489"/>
    <line id="line_0043" x1="476" y1="224" x2="584" y2="224" stroke="#000" stroke-width="1" data-conf="0.1473"/>
    <line id="line_0044" x1="508" y1="288" x2="508" y2="396" stroke="#000" stroke-width="1" data-conf="0.1472"/>
    <line id="line_0045" x1="276" y1="24" x2="384" y2="24" stroke="#000" stroke-width="1" data-conf="0.1436"/>
    <line id="line_0046" x1="280" y1="400" x2="280" y2="292" stroke="#000" stroke-width="1" data-conf="0.1418"/>
    <line id="line_0047" x1="128" y1="240" x2="232" y2="240" stroke="#000" stroke-width="1" data-conf="0.1405"/>
    <line id="line_0048" x1="312" y1="144" x2="312" y2="40" stroke="#000" stroke-width="1" data-conf="0.1391"/>
    <line id="line_0049" x1="80" y1="436" x2="180" y2="436" stroke="#000" stroke-width="1" data-conf="0.1377"/>
    <line id="line_0050" x1="168" y1="20" x2="268" y2="20" stroke="#000" stroke-width="1" data-conf="0.1366"/>
    <line id="line_0051" x1="320" y1="384" x2="320" y2="284" stroke="#000" stroke-width="1" data-conf="0.1364"/>
    <line id="line_0052" x1="168" y1="92" x2="272" y2="92" stroke="#000" stroke-width="1" data-conf="0.1354"/>
    <line id="line_0053" x1="92" y1="160" x2="192" y2="160" stroke="#000" stroke-width="1" data-conf="0.1337"/>
    <line id="line_0054" x1="568" y1="264" x2="568" y2="168" stroke="#000" stroke-width="1" data-conf="0.1337"/>
    <line id="line_0055" x1="72" y1="144" x2="72" y2="44" stroke="#000" stroke-width="1" data-conf="0.1337"/>
    <line id="line_0056" x1="288" y1="264" x2="288" y2="164" stroke="#000" stroke-width="1" data-conf="0.1337"/>
    <line id="line_0057" x1="288" y1="212" x2="384" y2="212" stroke="#000" stroke-width="1" data-conf="0.1325"/>
    <line id="line_0058" x1="60" y1="388" x2="60" y2="288" stroke="#000" stroke-width="1" data-conf="0.1323"/>
    <line id="line_0059" x1="236" y1="116" x2="336" y2="116" stroke="#000" stroke-width="1" data-conf="0.1318"/>
    <line id="line_0060" x1="316" y1="120" x2="316" y2="24" stroke="#000" stroke-width="1" data-conf="0.1310"/>
    <line id="line_0061" x1="428" y1="204" x2="524" y2="204" stroke="#000" stroke-width="1" data-conf="0.1296"/>
    <line id="line_0062" x1="276" y1="32" x2="372" y2="32" stroke="#000" stroke-width="1" data-conf="0.1296"/>
    <line id="line_0063" x1="144" y1="180" x2="240" y2="180" stroke="#000" stroke-width="1" data-conf="0.1283"/>
    <line id="line_0064" x1="52" y1="148" x2="52" y2="52" stroke="#000" stroke-width="1" data-conf="0.1283"/>
    <line id="line_0065" x1="496" y1="144" x2="592" y2="144" stroke="#000" stroke-width="1" data-conf="0.1269"/>
    <line id="line_0066" x1="304" y1="432" x2="400" y2="432" stroke="#000" stroke-width="1" data-conf="0.1269"/>
    <line id="line_0067" x1="16" y1="392" x2="16" y2="296" stroke="#000" stroke-width="1" data-conf="0.1269"/>
    <line id="line_0068" x1="312" y1="132" x2="408" y2="132" stroke="#000" stroke-width="1" data-conf="0.1256"/>
    <line id="line_0069" x1="32" y1="60" x2="32" y2="152" stroke="#000" stroke-width="1" data-conf="0.1256"/>
    <line id="line_0070" x1="292" y1="360" x2="384" y2="360" stroke="#000" stroke-width="1" data-conf="0.1256"/>
    <line id="line_0071" x1="292" y1="320" x2="384" y2="320" stroke="#000" stroke-width="1" data-conf="0.1256"/>
    <line id="line_0072" x1="292" y1="312" x2="384" y2="312" stroke="#000" stroke-width="1" data-conf="0.1256"/>
    <line id="line_0073" x1="76" y1="140" x2="76" y2="48" stroke="#000" stroke-width="1" data-conf="0.1256"/>
    <line id="line_0074" x1="284" y1="144" x2="372" y2="144" stroke="#000" stroke-width="1" data-conf="0.1216"/>
    <line id="line_0075" x1="376" y1="224" x2="464" y2="224" stroke="#000" stroke-width="1" data-conf="0.1216"/>
    <line id="line_0076" x1="312" y1="124" x2="400" y2="124" stroke="#000" stroke-width="1" data-conf="0.1189"/>
    <line id="line_0077" x1="308" y1="124" x2="396" y2="124" stroke="#000" stroke-width="1" data-conf="0.1175"/>
    <line id="line_0078" x1="496" y1="224" x2="584" y2="224" stroke="#000" stroke-width="1" data-conf="0.1162"/>
    <line id="line_0079" x1="440" y1="176" x2="524" y2="176" stroke="#000" stroke-width="1" data-conf="0.1161"/>
    <line id="line_0080" x1="376" y1="264" x2="376" y2="348" stroke="#000" stroke-width="1" data-conf="0.1161"/>
    <line id="line_0081" x1="432" y1="304" x2="516" y2="304" stroke="#000" stroke-width="1" data-conf="0.1135"/>
    <line id="line_0082" x1="116" y1="400" x2="200" y2="400" stroke="#000" stroke-width="1" data-conf="0.1134"/>
    <line id="line_0083" x1="280" y1="288" x2="364" y2="288" stroke="#000" stroke-width="1" data-conf="0.1134"/>
    <line id="line_0084" x1="184" y1="92" x2="268" y2="92" stroke="#000" stroke-width="1" data-conf="0.1124"/>
    <line id="line_0085" x1="32" y1="224" x2="116" y2="224" stroke="#000" stroke-width="1" data-conf="0.1121"/>
    <line id="line_0086" x1="236" y1="212" x2="320" y2="212" stroke="#000" stroke-width="1" data-conf="0.1117"/>
    <line id="line_0087" x1="96" y1="208" x2="176" y2="208" stroke="#000" stroke-width="1" data-conf="0.1109"/>
    <line id="line_0088" x1="300" y1="16" x2="384" y2="16" stroke="#000" stroke-width="1" data-conf="0.1109"/>
    <line id="line_0089" x1="220" y1="120" x2="300" y2="120" stroke="#000" stroke-width="1" data-conf="0.1094"/>
    <line id="line_0090" x1="56" y1="372" x2="56" y2="288" stroke="#000" stroke-width="1" data-conf="0.1094"/>
    <line id="line_0091" x1="24" y1="204" x2="104" y2="204" stroke="#000" stroke-width="1" data-conf="0.1082"/>
    <line id="line_0092" x1="176" y1="292" x2="176" y2="372" stroke="#000" stroke-width="1" data-conf="0.1081"/>
    <line id="line_0093" x1="48" y1="256" x2="48" y2="176" stroke="#000" stroke-width="1" data-conf="0.1080"/>
    <line id="line_0094" x1="8" y1="156" x2="8" y2="76" stroke="#000" stroke-width="1" data-conf="0.1067"/>
    <line id="line_0095" x1="40" y1="256" x2="40" y2="176" stroke="#000" stroke-width="1" data-conf="0.1067"/>
    <line id="line_0096" x1="516" y1="8" x2="592" y2="8" stroke="#000" stroke-width="1" data-conf="0.1059"/>
    <line id="line_0097" x1="488" y1="156" x2="568" y2="156" stroke="#000" stroke-width="1" data-conf="0.1053"/>
    <line id="line_0098" x1="452" y1="396" x2="452" y2="320" stroke="#000" stroke-width="1" data-conf="0.1053"/>
    <line id="line_0099" x1="432" y1="56" x2="508" y2="56" stroke="#000" stroke-width="1" data-conf="0.1053"/>
    <line id="line_0100" x1="176" y1="252" x2="176" y2="176" stroke="#000" stroke-width="1" data-conf="0.1053"/>
    <line id="line_0101" x1="172" y1="12" x2="248" y2="12" stroke="#000" stroke-width="1" data-conf="0.1043"/>
    <line id="line_0102" x1="504" y1="252" x2="584" y2="252" stroke="#000" stroke-width="1" data-conf="0.1027"/>
    <line id="line_0103" x1="432" y1="360" x2="508" y2="360" stroke="#000" stroke-width="1" data-conf="0.1027"/>
    <line id="line_0104" x1="36" y1="256" x2="36" y2="180" stroke="#000" stroke-width="1" data-conf="0.1026"/>
    <line id="line_0105" x1="316" y1="140" x2="392" y2="140" stroke="#000" stroke-width="1" data-conf="0.1026"/>
    <line id="line_0106" x1="192" y1="208" x2="268" y2="208" stroke="#000" stroke-width="1" data-conf="0.1016"/>
    <line id="line_0107" x1="448" y1="188" x2="524" y2="188" stroke="#000" stroke-width="1" data-conf="0.1014"/>
    <line id="line_0108" x1="288" y1="120" x2="364" y2="120" stroke="#000" stroke-width="1" data-conf="0.1013"/>
    <line id="line_0109" x1="448" y1="184" x2="524" y2="184" stroke="#000" stroke-width="1" data-conf="0.1013"/>
    <line id="line_0110" x1="156" y1="32" x2="232" y2="32" stroke="#000" stroke-width="1" data-conf="0.1013"/>
    <line id="line_0111" x1="172" y1="372" x2="172" y2="296" stroke="#000" stroke-width="1" data-conf="0.1013"/>
    <line id="line_0112" x1="208" y1="56" x2="284" y2="56" stroke="#000" stroke-width="1" data-conf="0.0999"/>
    <line id="line_0113" x1="164" y1="248" x2="240" y2="248" stroke="#000" stroke-width="1" data-conf="0.0999"/>
    <line id="line_0114" x1="312" y1="24" x2="384" y2="24" stroke="#000" stroke-width="1" data-conf="0.0990"/>
    <line id="line_0115" x1="312" y1="360" x2="384" y2="360" stroke="#000" stroke-width="1" data-conf="0.0986"/>
    <line id="line_0116" x1="300" y1="360" x2="300" y2="288" stroke="#000" stroke-width="1" data-conf="0.0986"/>
    <line id="line_0117" x1="316" y1="128" x2="316" y2="56" stroke="#000" stroke-width="1" data-conf="0.0986"/>
    <line id="line_0118" x1="428" y1="180" x2="428" y2="252" stroke="#000" stroke-width="1" data-conf="0.0972"/>
    <line id="line_0119" x1="0" y1="260" x2="72" y2="244" stroke="#000" stroke-width="1" data-conf="0.0960"/>
    <line id="line_0120" x1="156" y1="56" x2="228" y2="56" stroke="#000" stroke-width="1" data-conf="0.0959"/>
    <line id="line_0121" x1="360" y1="388" x2="360" y2="320" stroke="#000" stroke-width="1" data-conf="0.0945"/>
    <line id="line_0122" x1="8" y1="404" x2="76" y2="404" stroke="#000" stroke-width="1" data-conf="0.0936"/>
    <line id="line_0123" x1="304" y1="60" x2="376" y2="60" stroke="#000" stroke-width="1" data-conf="0.0932"/>
    <line id="line_0124" x1="168" y1="372" x2="168" y2="304" stroke="#000" stroke-width="1" data-conf="0.0932"/>
    <line id="line_0125" x1="0" y1="176" x2="68" y2="156" stroke="#000" stroke-width="1" data-conf="0.0931"/>
    <line id="line_0126" x1="316" y1="16" x2="384" y2="16" stroke="#000" stroke-width="1" data-conf="0.0921"/>
    <line id="line_0127" x1="172" y1="8" x2="240" y2="8" stroke="#000" stroke-width="1" data-conf="0.0918"/>
    <line id="line_0128" x1="444" y1="360" x2="444" y2="292" stroke="#000" stroke-width="1" data-conf="0.0918"/>
    <line id="line_0129" x1="312" y1="248" x2="376" y2="272" stroke="#000" stroke-width="1" data-conf="0.0918"/>
    <line id="line_0130" x1="272" y1="160" x2="320" y2="208" stroke="#000" stroke-width="1" data-conf="0.0917"/>
    <line id="line_0131" x1="236" y1="132" x2="304" y2="132" stroke="#000" stroke-width="1" data-conf="0.0906"/>
    <line id="line_0132" x1="468" y1="136" x2="536" y2="136" stroke="#000" stroke-width="1" data-conf="0.0905"/>
    <line id="line_0133" x1="144" y1="364" x2="144" y2="296" stroke="#000" stroke-width="1" data-conf="0.0905"/>
    <line id="line_0134" x1="8" y1="300" x2="72" y2="288" stroke="#000" stroke-width="1" data-conf="0.0895"/>
    <line id="line_0135" x1="320" y1="184" x2="384" y2="184" stroke="#000" stroke-width="1" data-conf="0.0891"/>
    <line id="line_0136" x1="304" y1="72" x2="372" y2="72" stroke="#000" stroke-width="1" data-conf="0.0891"/>
    <line id="line_0137" x1="304" y1="48" x2="304" y2="112" stroke="#000" stroke-width="1" data-conf="0.0891"/>
    <line id="line_0138" x1="8" y1="372" x2="72" y2="372" stroke="#000" stroke-width="1" data-conf="0.0886"/>
    <line id="line_0139" x1="168" y1="56" x2="236" y2="56" stroke="#000" stroke-width="1" data-conf="0.0878"/>
    <line id="line_0140" x1="208" y1="72" x2="272" y2="72" stroke="#000" stroke-width="1" data-conf="0.0878"/>
    <line id="line_0141" x1="312" y1="200" x2="360" y2="248" stroke="#000" stroke-width="1" data-conf="0.0878"/>
    <line id="line_0142" x1="20" y1="232" x2="84" y2="232" stroke="#000" stroke-width="1" data-conf="0.0878"/>
    <line id="line_0143" x1="456" y1="112" x2="520" y2="112" stroke="#000" stroke-width="1" data-conf="0.0871"/>
    <line id="line_0144" x1="236" y1="16" x2="300" y2="16" stroke="#000" stroke-width="1" data-conf="0.0868"/>
    <line id="line_0145" x1="468" y1="252" x2="532" y2="252" stroke="#000" stroke-width="1" data-conf="0.0865"/>
    <line id="line_0146" x1="52" y1="80" x2="116" y2="80" stroke="#000" stroke-width="1" data-conf="0.0865"/>
    <line id="line_0147" x1="152" y1="48" x2="216" y2="48" stroke="#000" stroke-width="1" data-conf="0.0865"/>
    <line id="line_0148" x1="512" y1="180" x2="512" y2="244" stroke="#000" stroke-width="1" data-conf="0.0865"/>
    <line id="line_0149" x1="160" y1="368" x2="224" y2="368" stroke="#000" stroke-width="1" data-conf="0.0864"/>
    <line id="line_0150" x1="528" y1="44" x2="588" y2="44" stroke="#000" stroke-width="1" data-conf="0.0861"/>
    <line id="line_0151" x1="328" y1="88" x2="388" y2="88" stroke="#000" stroke-width="1" data-conf="0.0856"/>
    <line id="line_0152" x1="320" y1="16" x2="384" y2="16" stroke="#000" stroke-width="1" data-conf="0.0853"/>
    <line id="line_0153" x1="304" y1="176" x2="360" y2="208" stroke="#000" stroke-width="1" data-conf="0.0852"/>
    <line id="line_0154" x1="528" y1="132" x2="592" y2="132" stroke="#000" stroke-width="1" data-conf="0.0851"/>
    <line id="line_0155" x1="380" y1="396" x2="440" y2="396" stroke="#000" stroke-width="1" data-conf="0.0851"/>
    <line id="line_0156" x1="456" y1="244" x2="456" y2="184" stroke="#000" stroke-width="1" data-conf="0.0851"/>
    <line id="line_0157" x1="300" y1="96" x2="360" y2="112" stroke="#000" stroke-width="1" data-conf="0.0845"/>
    <line id="line_0158" x1="312" y1="240" x2="376" y2="240" stroke="#000" stroke-width="1" data-conf="0.0838"/>
    <line id="line_0159" x1="496" y1="132" x2="560" y2="132" stroke="#000" stroke-width="1" data-conf="0.0838"/>
    <line id="line_0160" x1="48" y1="116" x2="48" y2="56" stroke="#000" stroke-width="1" data-conf="0.0837"/>
    <line id="line_0161" x1="316" y1="136" x2="380" y2="136" stroke="#000" stroke-width="1" data-conf="0.0837"/>
    <line id="line_0162" x1="232" y1="24" x2="292" y2="24" stroke="#000" stroke-width="1" data-conf="0.0833"/>
    <line id="line_0163" x1="452" y1="72" x2="512" y2="72" stroke="#000" stroke-width="1" data-conf="0.0824"/>
    <line id="line_0164" x1="192" y1="124" x2="192" y2="64" stroke="#000" stroke-width="1" data-conf="0.0824"/>
    <line id="line_0165" x1="448" y1="384" x2="512" y2="384" stroke="#000" stroke-width="1" data-conf="0.0824"/>
    <line id="line_0166" x1="172" y1="124" x2="172" y2="64" stroke="#000" stroke-width="1" data-conf="0.0824"/>
    <line id="line_0167" x1="272" y1="140" x2="336" y2="140" stroke="#000" stroke-width="1" data-conf="0.0824"/>
    <line id="line_0168" x1="288" y1="84" x2="344" y2="56" stroke="#000" stroke-width="1" data-conf="0.0815"/>
    <line id="line_0169" x1="0" y1="132" x2="60" y2="132" stroke="#000" stroke-width="1" data-conf="0.0811"/>
    <line id="line_0170" x1="528" y1="168" x2="592" y2="168" stroke="#000" stroke-width="1" data-conf="0.0811"/>
    <line id="line_0171" x1="352" y1="192" x2="396" y2="148" stroke="#000" stroke-width="1" data-conf="0.0802"/>
    <line id="line_0172" x1="84" y1="204" x2="144" y2="204" stroke="#000" stroke-width="1" data-conf="0.0798"/>
    <line id="line_0173" x1="260" y1="228" x2="320" y2="228" stroke="#000" stroke-width="1" data-conf="0.0797"/>
    <line id="line_0174" x1="328" y1="256" x2="380" y2="276" stroke="#000" stroke-width="1" data-conf="0.0795"/>
    <line id="line_0175" x1="256" y1="24" x2="312" y2="24" stroke="#000" stroke-width="1" data-conf="0.0789"/>
    <line id="line_0176" x1="284" y1="216" x2="344" y2="216" stroke="#000" stroke-width="1" data-conf="0.0786"/>
    <line id="line_0177" x1="40" y1="92" x2="40" y2="152" stroke="#000" stroke-width="1" data-conf="0.0784"/>
    <line id="line_0178" x1="448" y1="368" x2="508" y2="368" stroke="#000" stroke-width="1" data-conf="0.0783"/>
    <line id="line_0179" x1="496" y1="344" x2="496" y2="288" stroke="#000" stroke-width="1" data-conf="0.0783"/>
    <line id="line_0180" x1="292" y1="232" x2="292" y2="176" stroke="#000" stroke-width="1" data-conf="0.0783"/>
    <line id="line_0181" x1="280" y1="108" x2="340" y2="108" stroke="#000" stroke-width="1" data-conf="0.0775"/>
    <line id="line_0182" x1="160" y1="248" x2="216" y2="248" stroke="#000" stroke-width="1" data-conf="0.0770"/>
    <line id="line_0183" x1="4" y1="428" x2="60" y2="428" stroke="#000" stroke-width="1" data-conf="0.0770"/>
    <line id="line_0184" x1="312" y1="244" x2="368" y2="244" stroke="#000" stroke-width="1" data-conf="0.0770"/>
    <line id="line_0185" x1="164" y1="292" x2="220" y2="292" stroke="#000" stroke-width="1" data-conf="0.0770"/>
    <line id="line_0186" x1="336" y1="196" x2="384" y2="224" stroke="#000" stroke-width="1" data-conf="0.0769"/>
    <line id="line_0187" x1="336" y1="108" x2="392" y2="108" stroke="#000" stroke-width="1" data-conf="0.0764"/>
    <line id="line_0188" x1="12" y1="184" x2="64" y2="168" stroke="#000" stroke-width="1" data-conf="0.0760"/>
    <line id="line_0189" x1="376" y1="52" x2="432" y2="52" stroke="#000" stroke-width="1" data-conf="0.0757"/>
    <line id="line_0190" x1="316" y1="340" x2="316" y2="284" stroke="#000" stroke-width="1" data-conf="0.0756"/>
    <line id="line_0191" x1="456" y1="116" x2="512" y2="116" stroke="#000" stroke-width="1" data-conf="0.0756"/>
    <line id="line_0192" x1="216" y1="368" x2="216" y2="312" stroke="#000" stroke-width="1" data-conf="0.0756"/>
    <line id="line_0193" x1="344" y1="116" x2="400" y2="116" stroke="#000" stroke-width="1" data-conf="0.0743"/>
    <line id="line_0194" x1="448" y1="52" x2="504" y2="52" stroke="#000" stroke-width="1" data-conf="0.0743"/>
    <line id="line_0195" x1="152" y1="168" x2="208" y2="168" stroke="#000" stroke-width="1" data-conf="0.0743"/>
    <line id="line_0196" x1="36" y1="116" x2="88" y2="136" stroke="#000" stroke-width="1" data-conf="0.0743"/>
    <line id="line_0197" x1="328" y1="300" x2="384" y2="300" stroke="#000" stroke-width="1" data-conf="0.0743"/>
    <line id="line_0198" x1="460" y1="304" x2="460" y2="356" stroke="#000" stroke-width="1" data-conf="0.0743"/>
    <line id="line_0199" x1="328" y1="352" x2="384" y2="352" stroke="#000" stroke-width="1" data-conf="0.0743"/>
    <line id="line_0200" x1="312" y1="236" x2="368" y2="236" stroke="#000" stroke-width="1" data-conf="0.0730"/>
    <line id="line_0201" x1="308" y1="176" x2="308" y2="228" stroke="#000" stroke-width="1" data-conf="0.0730"/>
    <line id="line_0202" x1="240" y1="352" x2="240" y2="296" stroke="#000" stroke-width="1" data-conf="0.0729"/>
    <line id="line_0203" x1="536" y1="128" x2="592" y2="128" stroke="#000" stroke-width="1" data-conf="0.0729"/>
    <line id="line_0204" x1="456" y1="240" x2="508" y2="240" stroke="#000" stroke-width="1" data-conf="0.0720"/>
    <line id="line_0205" x1="312" y1="236" x2="364" y2="236" stroke="#000" stroke-width="1" data-conf="0.0717"/>
    <line id="line_0206" x1="8" y1="376" x2="60" y2="376" stroke="#000" stroke-width="1" data-conf="0.0717"/>
    <line id="line_0207" x1="344" y1="164" x2="396" y2="164" stroke="#000" stroke-width="1" data-conf="0.0716"/>
    <line id="line_0208" x1="32" y1="212" x2="32" y2="264" stroke="#000" stroke-width="1" data-conf="0.0716"/>
    <line id="line_0209" x1="256" y1="132" x2="312" y2="132" stroke="#000" stroke-width="1" data-conf="0.0716"/>
    <line id="line_0210" x1="312" y1="428" x2="368" y2="428" stroke="#000" stroke-width="1" data-conf="0.0716"/>
    <line id="line_0211" x1="432" y1="308" x2="484" y2="308" stroke="#000" stroke-width="1" data-conf="0.0716"/>
    <line id="line_0212" x1="48" y1="320" x2="48" y2="372" stroke="#000" stroke-width="1" data-conf="0.0716"/>
    <line id="line_0213" x1="452" y1="64" x2="452" y2="120" stroke="#000" stroke-width="1" data-conf="0.0716"/>
    <line id="line_0214" x1="328" y1="356" x2="384" y2="356" stroke="#000" stroke-width="1" data-conf="0.0716"/>
    <line id="line_0215" x1="340" y1="88" x2="392" y2="88" stroke="#000" stroke-width="1" data-conf="0.0710"/>
    <line id="line_0216" x1="540" y1="132" x2="592" y2="132" stroke="#000" stroke-width="1" data-conf="0.0702"/>
    <line id="line_0217" x1="192" y1="200" x2="240" y2="220" stroke="#000" stroke-width="1" data-conf="0.0697"/>
    <line id="line_0218" x1="360" y1="104" x2="408" y2="120" stroke="#000" stroke-width="1" data-conf="0.0697"/>
    <line id="line_0219" x1="216" y1="108" x2="268" y2="108" stroke="#000" stroke-width="1" data-conf="0.0692"/>
    <line id="line_0220" x1="220" y1="140" x2="272" y2="140" stroke="#000" stroke-width="1" data-conf="0.0689"/>
    <line id="line_0221" x1="432" y1="296" x2="480" y2="296" stroke="#000" stroke-width="1" data-conf="0.0689"/>
    <line id="line_0222" x1="480" y1="396" x2="532" y2="396" stroke="#000" stroke-width="1" data-conf="0.0689"/>
    <line id="line_0223" x1="312" y1="232" x2="364" y2="232" stroke="#000" stroke-width="1" data-conf="0.0689"/>
    <line id="line_0224" x1="456" y1="64" x2="504" y2="64" stroke="#000" stroke-width="1" data-conf="0.0689"/>
    <line id="line_0225" x1="532" y1="124" x2="584" y2="124" stroke="#000" stroke-width="1" data-conf="0.0689"/>
    <line id="line_0226" x1="380" y1="260" x2="380" y2="312" stroke="#000" stroke-width="1" data-conf="0.0689"/>
    <line id="line_0227" x1="328" y1="200" x2="364" y2="236" stroke="#000" stroke-width="1" data-conf="0.0687"/>
    <line id="line_0228" x1="444" y1="292" x2="480" y2="328" stroke="#000" stroke-width="1" data-conf="0.0687"/>
    <line id="line_0229" x1="296" y1="176" x2="336" y2="208" stroke="#000" stroke-width="1" data-conf="0.0681"/>
    <line id="line_0230" x1="536" y1="72" x2="584" y2="72" stroke="#000" stroke-width="1" data-conf="0.0675"/>
    <line id="line_0231" x1="504" y1="56" x2="504" y2="104" stroke="#000" stroke-width="1" data-conf="0.0675"/>
    <line id="line_0232" x1="220" y1="116" x2="268" y2="116" stroke="#000" stroke-width="1" data-conf="0.0665"/>
    <line id="line_0233" x1="336" y1="220" x2="384" y2="220" stroke="#000" stroke-width="1" data-conf="0.0665"/>
    <line id="line_0234" x1="336" y1="232" x2="336" y2="184" stroke="#000" stroke-width="1" data-conf="0.0662"/>
    <line id="line_0235" x1="180" y1="16" x2="228" y2="16" stroke="#000" stroke-width="1" data-conf="0.0650"/>
    <line id="line_0236" x1="440" y1="120" x2="488" y2="120" stroke="#000" stroke-width="1" data-conf="0.0649"/>
    <line id="line_0237" x1="256" y1="36" x2="304" y2="36" stroke="#000" stroke-width="1" data-conf="0.0649"/>
    <line id="line_0238" x1="192" y1="212" x2="240" y2="212" stroke="#000" stroke-width="1" data-conf="0.0649"/>
    <line id="line_0239" x1="176" y1="372" x2="224" y2="372" stroke="#000" stroke-width="1" data-conf="0.0649"/>
    <line id="line_0240" x1="304" y1="396" x2="352" y2="396" stroke="#000" stroke-width="1" data-conf="0.0648"/>
    <line id="line_0241" x1="328" y1="216" x2="368" y2="248" stroke="#000" stroke-width="1" data-conf="0.0645"/>
    <line id="line_0242" x1="312" y1="384" x2="360" y2="384" stroke="#000" stroke-width="1" data-conf="0.0638"/>
    <line id="line_0243" x1="108" y1="228" x2="152" y2="228" stroke="#000" stroke-width="1" data-conf="0.0636"/>
    <line id="line_0244" x1="312" y1="232" x2="360" y2="232" stroke="#000" stroke-width="1" data-conf="0.0636"/>
    <line id="line_0245" x1="588" y1="176" x2="588" y2="128" stroke="#000" stroke-width="1" data-conf="0.0636"/>
    <line id="line_0246" x1="312" y1="244" x2="360" y2="244" stroke="#000" stroke-width="1" data-conf="0.0636"/>
    <line id="line_0247" x1="312" y1="248" x2="360" y2="248" stroke="#000" stroke-width="1" data-conf="0.0635"/>
    <line id="line_0248" x1="312" y1="252" x2="360" y2="252" stroke="#000" stroke-width="1" data-conf="0.0635"/>
    <line id="line_0249" x1="88" y1="140" x2="136" y2="140" stroke="#000" stroke-width="1" data-conf="0.0635"/>
    <line id="line_0250" x1="240" y1="248" x2="288" y2="248" stroke="#000" stroke-width="1" data-conf="0.0635"/>
    <line id="line_0251" x1="312" y1="256" x2="360" y2="256" stroke="#000" stroke-width="1" data-conf="0.0635"/>
    <line id="line_0252" x1="144" y1="136" x2="192" y2="136" stroke="#000" stroke-width="1" data-conf="0.0635"/>
    <line id="line_0253" x1="432" y1="252" x2="480" y2="252" stroke="#000" stroke-width="1" data-conf="0.0635"/>
    <line id="line_0254" x1="352" y1="320" x2="384" y2="352" stroke="#000" stroke-width="1" data-conf="0.0630"/>
    <line id="line_0255" x1="444" y1="88" x2="488" y2="88" stroke="#000" stroke-width="1" data-conf="0.0625"/>
    <line id="line_0256" x1="336" y1="12" x2="384" y2="12" stroke="#000" stroke-width="1" data-conf="0.0622"/>
    <line id="line_0257" x1="276" y1="156" x2="320" y2="156" stroke="#000" stroke-width="1" data-conf="0.0621"/>
    <line id="line_0258" x1="32" y1="224" x2="80" y2="224" stroke="#000" stroke-width="1" data-conf="0.0621"/>
    <line id="line_0259" x1="352" y1="432" x2="400" y2="432" stroke="#000" stroke-width="1" data-conf="0.0621"/>
    <line id="line_0260" x1="168" y1="184" x2="212" y2="184" stroke="#000" stroke-width="1" data-conf="0.0621"/>
    <line id="line_0261" x1="308" y1="128" x2="352" y2="128" stroke="#000" stroke-width="1" data-conf="0.0621"/>
    <line id="line_0262" x1="64" y1="44" x2="112" y2="44" stroke="#000" stroke-width="1" data-conf="0.0615"/>
    <line id="line_0263" x1="96" y1="400" x2="144" y2="400" stroke="#000" stroke-width="1" data-conf="0.0608"/>
    <line id="line_0264" x1="20" y1="264" x2="20" y2="220" stroke="#000" stroke-width="1" data-conf="0.0608"/>
    <line id="line_0265" x1="20" y1="136" x2="20" y2="88" stroke="#000" stroke-width="1" data-conf="0.0608"/>
    <line id="line_0266" x1="476" y1="316" x2="516" y2="332" stroke="#000" stroke-width="1" data-conf="0.0607"/>
    <line id="line_0267" x1="312" y1="256" x2="356" y2="264" stroke="#000" stroke-width="1" data-conf="0.0604"/>
    <line id="line_0268" x1="152" y1="200" x2="196" y2="200" stroke="#000" stroke-width="1" data-conf="0.0600"/>
    <line id="line_0269" x1="472" y1="116" x2="520" y2="116" stroke="#000" stroke-width="1" data-conf="0.0598"/>
    <line id="line_0270" x1="80" y1="56" x2="120" y2="76" stroke="#000" stroke-width="1" data-conf="0.0598"/>
    <line id="line_0271" x1="168" y1="308" x2="212" y2="308" stroke="#000" stroke-width="1" data-conf="0.0594"/>
    <line id="line_0272" x1="300" y1="316" x2="300" y2="360" stroke="#000" stroke-width="1" data-conf="0.0594"/>
    <line id="line_0273" x1="356" y1="96" x2="400" y2="96" stroke="#000" stroke-width="1" data-conf="0.0585"/>
    <line id="line_0274" x1="280" y1="104" x2="324" y2="104" stroke="#000" stroke-width="1" data-conf="0.0582"/>
    <line id="line_0275" x1="152" y1="432" x2="192" y2="432" stroke="#000" stroke-width="1" data-conf="0.0581"/>
    <line id="line_0276" x1="172" y1="296" x2="216" y2="296" stroke="#000" stroke-width="1" data-conf="0.0581"/>
    <line id="line_0277" x1="384" y1="248" x2="428" y2="248" stroke="#000" stroke-width="1" data-conf="0.0581"/>
    <line id="line_0278" x1="144" y1="400" x2="184" y2="400" stroke="#000" stroke-width="1" data-conf="0.0581"/>
    <line id="line_0279" x1="444" y1="60" x2="488" y2="60" stroke="#000" stroke-width="1" data-conf="0.0581"/>
    <line id="line_0280" x1="176" y1="312" x2="216" y2="312" stroke="#000" stroke-width="1" data-conf="0.0581"/>
    <line id="line_0281" x1="312" y1="368" x2="356" y2="368" stroke="#000" stroke-width="1" data-conf="0.0581"/>
    <line id="line_0282" x1="312" y1="360" x2="356" y2="360" stroke="#000" stroke-width="1" data-conf="0.0581"/>
    <line id="line_0283" x1="316" y1="256" x2="360" y2="256" stroke="#000" stroke-width="1" data-conf="0.0581"/>
    <line id="line_0284" x1="340" y1="20" x2="384" y2="20" stroke="#000" stroke-width="1" data-conf="0.0570"/>
    <line id="line_0285" x1="0" y1="164" x2="40" y2="152" stroke="#000" stroke-width="1" data-conf="0.0568"/>
    <line id="line_0286" x1="196" y1="432" x2="236" y2="432" stroke="#000" stroke-width="1" data-conf="0.0567"/>
    <line id="line_0287" x1="304" y1="28" x2="344" y2="28" stroke="#000" stroke-width="1" data-conf="0.0567"/>
    <line id="line_0288" x1="376" y1="396" x2="416" y2="396" stroke="#000" stroke-width="1" data-conf="0.0567"/>
    <line id="line_0289" x1="528" y1="304" x2="528" y2="348" stroke="#000" stroke-width="1" data-conf="0.0567"/>
    <line id="line_0290" x1="80" y1="120" x2="80" y2="80" stroke="#000" stroke-width="1" data-conf="0.0567"/>
    <line id="line_0291" x1="4" y1="136" x2="44" y2="152" stroke="#000" stroke-width="1" data-conf="0.0564"/>
    <line id="line_0292" x1="336" y1="84" x2="376" y2="84" stroke="#000" stroke-width="1" data-conf="0.0559"/>
    <line id="line_0293" x1="456" y1="116" x2="496" y2="116" stroke="#000" stroke-width="1" data-conf="0.0555"/>
    <line id="line_0294" x1="248" y1="236" x2="292" y2="236" stroke="#000" stroke-width="1" data-conf="0.0555"/>
    <line id="line_0295" x1="528" y1="248" x2="568" y2="248" stroke="#000" stroke-width="1" data-conf="0.0554"/>
    <line id="line_0296" x1="144" y1="368" x2="184" y2="368" stroke="#000" stroke-width="1" data-conf="0.0554"/>
    <line id="line_0297" x1="156" y1="392" x2="196" y2="392" stroke="#000" stroke-width="1" data-conf="0.0554"/>
    <line id="line_0298" x1="32" y1="128" x2="72" y2="128" stroke="#000" stroke-width="1" data-conf="0.0543"/>
    <line id="line_0299" x1="60" y1="236" x2="100" y2="236" stroke="#000" stroke-width="1" data-conf="0.0540"/>
    <line id="line_0300" x1="316" y1="248" x2="356" y2="248" stroke="#000" stroke-width="1" data-conf="0.0540"/>
    <line id="line_0301" x1="116" y1="140" x2="156" y2="140" stroke="#000" stroke-width="1" data-conf="0.0528"/>
    <line id="line_0302" x1="208" y1="88" x2="248" y2="88" stroke="#000" stroke-width="1" data-conf="0.0527"/>
    <line id="line_0303" x1="360" y1="116" x2="360" y2="76" stroke="#000" stroke-width="1" data-conf="0.0527"/>
    <line id="line_0304" x1="336" y1="152" x2="376" y2="152" stroke="#000" stroke-width="1" data-conf="0.0527"/>
    <line id="line_0305" x1="492" y1="68" x2="528" y2="68" stroke="#000" stroke-width="1" data-conf="0.0527"/>
    <line id="line_0306" x1="436" y1="428" x2="476" y2="428" stroke="#000" stroke-width="1" data-conf="0.0527"/>
    <line id="line_0307" x1="504" y1="256" x2="504" y2="216" stroke="#000" stroke-width="1" data-conf="0.0527"/>
    <line id="line_0308" x1="224" y1="168" x2="264" y2="168" stroke="#000" stroke-width="1" data-conf="0.0527"/>
    <line id="line_0309" x1="192" y1="24" x2="228" y2="24" stroke="#000" stroke-width="1" data-conf="0.0527"/>
    <line id="line_0310" x1="448" y1="240" x2="488" y2="240" stroke="#000" stroke-width="1" data-conf="0.0518"/>
    <line id="line_0311" x1="344" y1="20" x2="384" y2="20" stroke="#000" stroke-width="1" data-conf="0.0515"/>
    <line id="line_0312" x1="444" y1="96" x2="444" y2="136" stroke="#000" stroke-width="1" data-conf="0.0514"/>
    <line id="line_0313" x1="224" y1="56" x2="264" y2="56" stroke="#000" stroke-width="1" data-conf="0.0514"/>
    <line id="line_0314" x1="232" y1="116" x2="272" y2="116" stroke="#000" stroke-width="1" data-conf="0.0514"/>
    <line id="line_0315" x1="268" y1="136" x2="308" y2="136" stroke="#000" stroke-width="1" data-conf="0.0513"/>
    <line id="line_0316" x1="48" y1="292" x2="48" y2="328" stroke="#000" stroke-width="1" data-conf="0.0513"/>
    <line id="line_0317" x1="24" y1="428" x2="60" y2="428" stroke="#000" stroke-width="1" data-conf="0.0513"/>
    <line id="line_0318" x1="336" y1="48" x2="376" y2="48" stroke="#000" stroke-width="1" data-conf="0.0513"/>
    <line id="line_0319" x1="356" y1="96" x2="392" y2="96" stroke="#000" stroke-width="1" data-conf="0.0502"/>
    <line id="line_0320" x1="152" y1="36" x2="188" y2="36" stroke="#000" stroke-width="1" data-conf="0.0501"/>
    <line id="line_0321" x1="376" y1="160" x2="412" y2="160" stroke="#000" stroke-width="1" data-conf="0.0500"/>
    <line id="line_0322" x1="364" y1="232" x2="364" y2="196" stroke="#000" stroke-width="1" data-conf="0.0500"/>
    <line id="line_0323" x1="384" y1="136" x2="420" y2="136" stroke="#000" stroke-width="1" data-conf="0.0500"/>
    <line id="line_0324" x1="168" y1="88" x2="208" y2="88" stroke="#000" stroke-width="1" data-conf="0.0500"/>
    <line id="line_0325" x1="168" y1="72" x2="208" y2="72" stroke="#000" stroke-width="1" data-conf="0.0500"/>
    <line id="line_0326" x1="312" y1="252" x2="348" y2="252" stroke="#000" stroke-width="1" data-conf="0.0500"/>
    <line id="line_0327" x1="416" y1="160" x2="452" y2="160" stroke="#000" stroke-width="1" data-conf="0.0500"/>
    <line id="line_0328" x1="380" y1="192" x2="380" y2="228" stroke="#000" stroke-width="1" data-conf="0.0500"/>
    <line id="line_0329" x1="232" y1="112" x2="268" y2="104" stroke="#000" stroke-width="1" data-conf="0.0495"/>
    <line id="line_0330" x1="56" y1="36" x2="88" y2="56" stroke="#000" stroke-width="1" data-conf="0.0494"/>
    <line id="line_0331" x1="184" y1="36" x2="224" y2="36" stroke="#000" stroke-width="1" data-conf="0.0488"/>
    <line id="line_0332" x1="376" y1="108" x2="412" y2="108" stroke="#000" stroke-width="1" data-conf="0.0487"/>
    <line id="line_0333" x1="168" y1="128" x2="208" y2="128" stroke="#000" stroke-width="1" data-conf="0.0486"/>
    <line id="line_0334" x1="160" y1="256" x2="196" y2="256" stroke="#000" stroke-width="1" data-conf="0.0486"/>
    <line id="line_0335" x1="496" y1="232" x2="528" y2="232" stroke="#000" stroke-width="1" data-conf="0.0486"/>
    <line id="line_0336" x1="528" y1="56" x2="564" y2="56" stroke="#000" stroke-width="1" data-conf="0.0486"/>
    <line id="line_0337" x1="336" y1="64" x2="372" y2="64" stroke="#000" stroke-width="1" data-conf="0.0486"/>
    <line id="line_0338" x1="444" y1="240" x2="480" y2="240" stroke="#000" stroke-width="1" data-conf="0.0476"/>
    <line id="line_0339" x1="468" y1="424" x2="504" y2="424" stroke="#000" stroke-width="1" data-conf="0.0473"/>
    <line id="line_0340" x1="548" y1="244" x2="584" y2="244" stroke="#000" stroke-width="1" data-conf="0.0473"/>
    <line id="line_0341" x1="192" y1="228" x2="228" y2="228" stroke="#000" stroke-width="1" data-conf="0.0473"/>
    <line id="line_0342" x1="188" y1="252" x2="224" y2="252" stroke="#000" stroke-width="1" data-conf="0.0473"/>
    <line id="line_0343" x1="60" y1="220" x2="60" y2="256" stroke="#000" stroke-width="1" data-conf="0.0473"/>
    <line id="line_0344" x1="384" y1="260" x2="384" y2="296" stroke="#000" stroke-width="1" data-conf="0.0473"/>
    <line id="line_0345" x1="64" y1="424" x2="100" y2="424" stroke="#000" stroke-width="1" data-conf="0.0473"/>
    <line id="line_0346" x1="352" y1="204" x2="384" y2="204" stroke="#000" stroke-width="1" data-conf="0.0462"/>
    <line id="line_0347" x1="456" y1="92" x2="488" y2="92" stroke="#000" stroke-width="1" data-conf="0.0462"/>
    <line id="line_0348" x1="260" y1="232" x2="296" y2="232" stroke="#000" stroke-width="1" data-conf="0.0460"/>
    <line id="line_0349" x1="456" y1="112" x2="488" y2="112" stroke="#000" stroke-width="1" data-conf="0.0460"/>
    <line id="line_0350" x1="436" y1="124" x2="472" y2="124" stroke="#000" stroke-width="1" data-conf="0.0459"/>
    <line id="line_0351" x1="504" y1="428" x2="536" y2="428" stroke="#000" stroke-width="1" data-conf="0.0459"/>
    <line id="line_0352" x1="380" y1="56" x2="416" y2="56" stroke="#000" stroke-width="1" data-conf="0.0459"/>
    <line id="line_0353" x1="56" y1="208" x2="56" y2="172" stroke="#000" stroke-width="1" data-conf="0.0459"/>
    <line id="line_0354" x1="216" y1="256" x2="216" y2="224" stroke="#000" stroke-width="1" data-conf="0.0459"/>
    <line id="line_0355" x1="356" y1="104" x2="392" y2="104" stroke="#000" stroke-width="1" data-conf="0.0449"/>
    <line id="line_0356" x1="144" y1="208" x2="176" y2="208" stroke="#000" stroke-width="1" data-conf="0.0449"/>
    <line id="line_0357" x1="352" y1="20" x2="384" y2="20" stroke="#000" stroke-width="1" data-conf="0.0447"/>
    <line id="line_0358" x1="164" y1="228" x2="196" y2="228" stroke="#000" stroke-width="1" data-conf="0.0447"/>
    <line id="line_0359" x1="380" y1="240" x2="416" y2="240" stroke="#000" stroke-width="1" data-conf="0.0446"/>
    <line id="line_0360" x1="428" y1="184" x2="464" y2="184" stroke="#000" stroke-width="1" data-conf="0.0446"/>
    <line id="line_0361" x1="408" y1="160" x2="440" y2="160" stroke="#000" stroke-width="1" data-conf="0.0446"/>
    <line id="line_0362" x1="548" y1="124" x2="584" y2="124" stroke="#000" stroke-width="1" data-conf="0.0446"/>
    <line id="line_0363" x1="224" y1="136" x2="260" y2="136" stroke="#000" stroke-width="1" data-conf="0.0446"/>
    <line id="line_0364" x1="372" y1="136" x2="404" y2="136" stroke="#000" stroke-width="1" data-conf="0.0446"/>
    <line id="line_0365" x1="184" y1="144" x2="216" y2="144" stroke="#000" stroke-width="1" data-conf="0.0446"/>
    <line id="line_0366" x1="188" y1="188" x2="220" y2="188" stroke="#000" stroke-width="1" data-conf="0.0446"/>
    <line id="line_0367" x1="208" y1="296" x2="240" y2="296" stroke="#000" stroke-width="1" data-conf="0.0446"/>
    <line id="line_0368" x1="376" y1="28" x2="408" y2="28" stroke="#000" stroke-width="1" data-conf="0.0446"/>
    <line id="line_0369" x1="52" y1="120" x2="52" y2="88" stroke="#000" stroke-width="1" data-conf="0.0446"/>
    <line id="line_0370" x1="288" y1="192" x2="320" y2="184" stroke="#000" stroke-width="1" data-conf="0.0445"/>
    <line id="line_0371" x1="20" y1="200" x2="52" y2="192" stroke="#000" stroke-width="1" data-conf="0.0444"/>
    <line id="line_0372" x1="312" y1="256" x2="344" y2="264" stroke="#000" stroke-width="1" data-conf="0.0440"/>
    <line id="line_0373" x1="496" y1="232" x2="528" y2="232" stroke="#000" stroke-width="1" data-conf="0.0433"/>
    <line id="line_0374" x1="492" y1="68" x2="524" y2="68" stroke="#000" stroke-width="1" data-conf="0.0432"/>
    <line id="line_0375" x1="344" y1="60" x2="376" y2="60" stroke="#000" stroke-width="1" data-conf="0.0432"/>
    <line id="line_0376" x1="344" y1="32" x2="376" y2="32" stroke="#000" stroke-width="1" data-conf="0.0432"/>
    <line id="line_0377" x1="220" y1="112" x2="252" y2="112" stroke="#000" stroke-width="1" data-conf="0.0432"/>
    <line id="line_0378" x1="336" y1="216" x2="336" y2="248" stroke="#000" stroke-width="1" data-conf="0.0432"/>
    <line id="line_0379" x1="32" y1="376" x2="32" y2="344" stroke="#000" stroke-width="1" data-conf="0.0432"/>
    <line id="line_0380" x1="416" y1="128" x2="448" y2="136" stroke="#000" stroke-width="1" data-conf="0.0426"/>
    <line id="line_0381" x1="196" y1="208" x2="228" y2="196" stroke="#000" stroke-width="1" data-conf="0.0423"/>
    <line id="line_0382" x1="336" y1="224" x2="368" y2="224" stroke="#000" stroke-width="1" data-conf="0.0422"/>
    <line id="line_0383" x1="496" y1="200" x2="524" y2="200" stroke="#000" stroke-width="1" data-conf="0.0421"/>
    <line id="line_0384" x1="504" y1="104" x2="504" y2="136" stroke="#000" stroke-width="1" data-conf="0.0419"/>
    <line id="line_0385" x1="496" y1="224" x2="528" y2="224" stroke="#000" stroke-width="1" data-conf="0.0419"/>
    <line id="line_0386" x1="496" y1="312" x2="528" y2="312" stroke="#000" stroke-width="1" data-conf="0.0419"/>
    <line id="line_0387" x1="188" y1="184" x2="220" y2="184" stroke="#000" stroke-width="1" data-conf="0.0419"/>
    <line id="line_0388" x1="232" y1="96" x2="264" y2="96" stroke="#000" stroke-width="1" data-conf="0.0419"/>
    <line id="line_0389" x1="496" y1="192" x2="524" y2="192" stroke="#000" stroke-width="1" data-conf="0.0419"/>
    <line id="line_0390" x1="444" y1="64" x2="444" y2="96" stroke="#000" stroke-width="1" data-conf="0.0419"/>
    <line id="line_0391" x1="428" y1="204" x2="460" y2="196" stroke="#000" stroke-width="1" data-conf="0.0416"/>
    <line id="line_0392" x1="444" y1="100" x2="472" y2="100" stroke="#000" stroke-width="1" data-conf="0.0407"/>
    <line id="line_0393" x1="448" y1="364" x2="480" y2="364" stroke="#000" stroke-width="1" data-conf="0.0406"/>
    <line id="line_0394" x1="168" y1="124" x2="200" y2="124" stroke="#000" stroke-width="1" data-conf="0.0406"/>
    <line id="line_0395" x1="144" y1="244" x2="172" y2="244" stroke="#000" stroke-width="1" data-conf="0.0406"/>
    <line id="line_0396" x1="192" y1="164" x2="224" y2="164" stroke="#000" stroke-width="1" data-conf="0.0405"/>
    <line id="line_0397" x1="200" y1="172" x2="228" y2="172" stroke="#000" stroke-width="1" data-conf="0.0405"/>
    <line id="line_0398" x1="280" y1="164" x2="312" y2="164" stroke="#000" stroke-width="1" data-conf="0.0405"/>
    <line id="line_0399" x1="380" y1="240" x2="412" y2="240" stroke="#000" stroke-width="1" data-conf="0.0405"/>
    <line id="line_0400" x1="248" y1="232" x2="280" y2="232" stroke="#000" stroke-width="1" data-conf="0.0405"/>
    <line id="line_0401" x1="160" y1="64" x2="188" y2="64" stroke="#000" stroke-width="1" data-conf="0.0405"/>
  </g>
  <g id="metadata" data-source="pipeline" data-ortho-width="595" data-ortho-height="441" data-units="px" data-rectification-score="0.5943"/>
</svg>