0
SECTION
2
ENTITIES
0
LWPOLYLINE
8
FACADE_OUTLINE
90
4
70
1
10
0.000000
20
0.000000
10
768.000000
20
0.000000
10
768.000000
20
1024.000000
10
0.000000
20
1024.000000
0
LWPOLYLINE
8
WINDOWS
90
4
70
1
10
376.000000
20
270.000000
10
504.000000
20
270.000000
10
504.000000
20
374.000000
10
376.000000
20
374.000000
0
LWPOLYLINE
8
WINDOWS
90
4
70
1
10
377.000000
20
297.000000
10
500.000000
20
297.000000
10
500.000000
20
393.000000
10
377.000000
20
393.000000
0
LWPOLYLINE
8
WINDOWS
90
4
70
1
10
204.000000
20
339.000000
10
323.000000
20
339.000000
10
323.000000
20
528.000000
10
204.000000
20
528.000000
0
LWPOLYLINE
8
WINDOWS
90
4
70
1
10
376.000000
20
425.000000
10
504.000000
20
425.000000
10
504.000000
20
528.000000
10
376.000000
20
528.000000
0
LWPOLYLINE
8
WINDOWS
90
4
70
1
10
512.000000
20
427.000000
10
640.000000
20
427.000000
10
640.000000
20
489.000000
10
512.000000
20
489.000000
0
LWPOLYLINE
8
WINDOWS
90
4
70
1
10
158.000000
20
540.000000
10
211.000000
20
540.000000
10
211.000000
20
566.000000
10
158.000000
20
566.000000
0
LWPOLYLINE
8
WINDOWS
90
4
70
1
10
156.000000
20
556.000000
10
320.000000
20
556.000000
10
320.000000
20
723.000000
10
156.000000
20
723.000000
0
LWPOLYLINE
8
WINDOWS
90
4
70
1
10
547.000000
20
865.000000
10
627.000000
20
865.000000
10
627.000000
20
958.000000
10
547.000000
20
958.000000
0
LWPOLYLINE
8
WINDOWS
90
4
70
1
10
456.000000
20
913.000000
10
492.000000
20
913.000000
10
492.000000
20
956.000000
10
456.000000
20
956.000000
0
LWPOLYLINE
8
WINDOWS
90
4
70
1
10
206.000000
20
956.000000
10
284.000000
20
956.000000
10
284.000000
20
988.000000
10
206.000000
20
988.000000
0
LWPOLYLINE
8
DOORS
90
4
70
1
10
494.000000
20
611.000000
10
518.000000
20
611.000000
10
518.000000
20
681.000000
10
494.000000
20
681.000000
0
LWPOLYLINE
8
DOORS
90
4
70
1
10
558.000000
20
771.000000
10
588.000000
20
771.000000
10
588.000000
20
830.000000
10
558.000000
20
830.000000
0
LWPOLYLINE
8
DOORS
90
4
70
1
10
553.000000
20
873.000000
10
593.000000
20
873.000000
10
593.000000
20
950.000000
10
553.000000
20
950.000000
0
LINE
8
LINES
10
169.000000
20
1022.000000
30
0.0
11
4.000000
21
163.000000
31
0.0
0
LINE
8
LINES
10
755.000000
20
132.000000
30
0.0
11
681.000000
21
985.000000
31
0.0
0
LINE
8
LINES
10
1.000000
20
136.000000
30
0.0
11
147.000000
21
870.000000
31
0.0
0
LINE
8
LINES
10
683.000000
20
910.000000
30
0.0
11
740.000000
21
241.000000
31
0.0
0
LINE
8
LINES
10
766.000000
20
24.000000
30
0.0
11
148.000000
21
104.000000
31
0.0
0
LINE
8
LINES
10
102.000000
20
115.000000
30
0.0
11
633.000000
21
22.000000
31
0.0
0
LINE
8
LINES
10
678.000000
20
998.000000
30
0.0
11
196.000000
21
998.000000
31
0.0
0
LINE
8
LINES
10
753.000000
20
128.000000
30
0.0
11
366.000000
21
128.000000
31
0.0
0
LINE
8
LINES
10
323.000000
20
574.000000
30
0.0
11
707.000000
21
574.000000
31
0.0
0
LINE
8
LINES
10
742.000000
20
227.000000
30
0.0
11
369.000000
21
227.000000
31
0.0
0
LINE
8
LINES
10
409.000000
20
65.000000
30
0.0
11
761.000000
21
65.000000
31
0.0
0
LINE
8
LINES
10
707.000000
20
584.000000
30
0.0
11
368.000000
21
584.000000
31
0.0
0
LINE
8
LINES
10
742.000000
20
233.000000
30
0.0
11
403.000000
21
233.000000
31
0.0
0
LINE
8
LINES
10
372.000000
20
568.000000
30
0.0
11
708.000000
21
568.000000
31
0.0
0
LINE
8
LINES
10
708.000000
20
572.000000
30
0.0
11
376.000000
21
572.000000
31
0.0
0
LINE
8
LINES
10
374.000000
20
723.000000
30
0.0
11
697.000000
21
723.000000
31
0.0
0
LINE
8
LINES
10
696.000000
20
736.000000
30
0.0
11
372.000000
21
736.000000
31
0.0
0
LINE
8
LINES
10
368.000000
20
840.000000
30
0.0
11
689.000000
21
840.000000
31
0.0
0
LINE
8
LINES
10
374.000000
20
731.000000
30
0.0
11
696.000000
21
731.000000
31
0.0
0
LINE
8
LINES
10
372.000000
20
742.000000
30
0.0
11
694.000000
21
742.000000
31
0.0
0
LINE
8
LINES
10
694.000000
20
745.000000
30
0.0
11
372.000000
21
745.000000
31
0.0
0
LINE
8
LINES
10
696.000000
20
726.000000
30
0.0
11
377.000000
21
726.000000
31
0.0
0
LINE
8
LINES
10
369.000000
20
224.000000
30
0.0
11
660.000000
21
224.000000
31
0.0
0
LINE
8
LINES
10
342.000000
20
531.000000
30
0.0
11
342.000000
21
243.000000
31
0.0
0
LINE
8
LINES
10
193.000000
20
243.000000
30
0.0
11
193.000000
21
531.000000
31
0.0
0
LINE
8
LINES
10
371.000000
20
230.000000
30
0.0
11
657.000000
21
230.000000
31
0.0
0
LINE
8
LINES
10
174.000000
20
531.000000
30
0.0
11
174.000000
21
246.000000
31
0.0
0
LINE
8
LINES
10
366.000000
20
248.000000
30
0.0
11
366.000000
21
526.000000
31
0.0
0
LINE
8
LINES
10
460.000000
20
59.000000
30
0.0
11
736.000000
21
59.000000
31
0.0
0
LINE
8
LINES
10
510.000000
20
44.000000
30
0.0
11
763.000000
21
44.000000
31
0.0
0
LINE
8
LINES
10
323.000000
20
691.000000
30
0.0
11
568.000000
21
691.000000
31
0.0
0
LINE
8
LINES
10
156.000000
20
297.000000
30
0.0
11
156.000000
21
528.000000
31
0.0
0
LINE
8
LINES
10
366.000000
20
844.000000
30
0.0
11
156.000000
21
844.000000
31
0.0
0
LINE
8
LINES
10
572.000000
20
537.000000
30
0.0
11
366.000000
21
537.000000
31
0.0
0
LINE
8
LINES
10
169.000000
20
851.000000
30
0.0
11
368.000000
21
851.000000
31
0.0
0
LINE
8
LINES
10
155.000000
20
531.000000
30
0.0
11
155.000000
21
336.000000
31
0.0
0
LINE
8
LINES
10
476.000000
20
752.000000
30
0.0
11
672.000000
21
752.000000
31
0.0
0
LINE
8
LINES
10
672.000000
20
753.000000
30
0.0
11
476.000000
21
753.000000
31
0.0
0
LINE
8
LINES
10
366.000000
20
857.000000
30
0.0
11
174.000000
21
857.000000
31
0.0
0
LINE
8
LINES
10
174.000000
20
897.000000
30
0.0
11
364.000000
21
897.000000
31
0.0
0
LINE
8
LINES
10
361.000000
20
123.000000
30
0.0
11
172.000000
21
123.000000
31
0.0
0
LINE
8
LINES
10
412.000000
20
241.000000
30
0.0
11
598.000000
21
241.000000
31
0.0
0
LINE
8
LINES
10
598.000000
20
243.000000
30
0.0
11
412.000000
21
243.000000
31
0.0
0
LINE
8
LINES
10
598.000000
20
246.000000
30
0.0
11
416.000000
21
246.000000
31
0.0
0
LINE
8
LINES
10
366.000000
20
534.000000
30
0.0
11
537.000000
21
534.000000
31
0.0
0
LINE
8
LINES
10
451.000000
20
1006.000000
30
0.0
11
617.000000
21
1006.000000
31
0.0
0
LINE
8
LINES
10
150.000000
20
272.000000
30
0.0
11
131.000000
21
113.000000
31
0.0
0
LINE
8
LINES
10
158.000000
20
721.000000
30
0.0
11
313.000000
21
721.000000
31
0.0
0
LINE
8
LINES
10
372.000000
20
873.000000
30
0.0
11
518.000000
21
873.000000
31
0.0
0
LINE
8
LINES
10
374.000000
20
886.000000
30
0.0
11
518.000000
21
886.000000
31
0.0
0
LINE
8
LINES
10
518.000000
20
868.000000
30
0.0
11
374.000000
21
868.000000
31
0.0
0
LINE
8
LINES
10
377.000000
20
881.000000
30
0.0
11
521.000000
21
881.000000
31
0.0
0
LINE
8
LINES
10
316.000000
20
673.000000
30
0.0
11
176.000000
21
673.000000
31
0.0
0
LINE
8
LINES
10
545.000000
20
132.000000
30
0.0
11
678.000000
21
132.000000
31
0.0
0
LINE
8
LINES
10
129.000000
20
113.000000
30
0.0
11
1.000000
21
134.000000
31
0.0
0
LINE
8
LINES
10
518.000000
20
841.000000
30
0.0
11
388.000000
21
841.000000
31
0.0
0
LINE
8
LINES
10
697.000000
20
696.000000
30
0.0
11
569.000000
21
696.000000
31
0.0
0
LINE
8
LINES
10
614.000000
20
240.000000
30
0.0
11
742.000000
21
240.000000
31
0.0
0
LINE
8
LINES
10
740.000000
20
246.000000
30
0.0
11
612.000000
21
246.000000
31
0.0
0
LINE
8
LINES
10
518.000000
20
888.000000
30
0.0
11
390.000000
21
888.000000
31
0.0
0
LINE
8
LINES
10
377.000000
20
270.000000
30
0.0
11
502.000000
21
270.000000
31
0.0
0
LINE
8
LINES
10
377.000000
20
425.000000
30
0.0
11
502.000000
21
425.000000
31
0.0
0
LINE
8
LINES
10
513.000000
20
427.000000
30
0.0
11
638.000000
21
427.000000
31
0.0
0
LINE
8
LINES
10
740.000000
20
243.000000
30
0.0
11
616.000000
21
243.000000
31
0.0
0
LINE
8
LINES
10
150.000000
20
236.000000
30
0.0
11
136.000000
21
113.000000
31
0.0
0
LINE
8
LINES
10
513.000000
20
758.000000
30
0.0
11
636.000000
21
758.000000
31
0.0
0
LINE
8
LINES
10
636.000000
20
761.000000
30
0.0
11
513.000000
21
761.000000
31
0.0
0
LINE
8
LINES
10
216.000000
20
504.000000
30
0.0
11
216.000000
21
384.000000
31
0.0
0
LINE
8
LINES
10
435.000000
20
121.000000
30
0.0
11
552.000000
21
121.000000
31
0.0
0
LINE
8
LINES
10
206.000000
20
550.000000
30
0.0
11
321.000000
21
550.000000
31
0.0
0
LINE
8
LINES
10
318.000000
20
220.000000
30
0.0
11
204.000000
21
220.000000
31
0.0
0
LINE
8
LINES
10
206.000000
20
169.000000
30
0.0
11
318.000000
21
169.000000
31
0.0
0
LINE
8
LINES
10
156.000000
20
686.000000
30
0.0
11
156.000000
21
574.000000
31
0.0
0
LINE
8
LINES
10
254.000000
20
840.000000
30
0.0
11
366.000000
21
840.000000
31
0.0
0
LINE
8
LINES
10
206.000000
20
540.000000
30
0.0
11
316.000000
21
540.000000
31
0.0
0
LINE
8
LINES
10
318.000000
20
545.000000
30
0.0
11
208.000000
21
545.000000
31
0.0
0
LINE
8
LINES
10
206.000000
20
224.000000
30
0.0
11
316.000000
21
224.000000
31
0.0
0
LINE
8
LINES
10
628.000000
20
843.000000
30
0.0
11
521.000000
21
843.000000
31
0.0
0
LINE
8
LINES
10
208.000000
20
177.000000
30
0.0
11
316.000000
21
177.000000
31
0.0
0
LINE
8
LINES
10
145.000000
20
876.000000
30
0.0
11
163.000000
21
982.000000
31
0.0
0
LINE
8
LINES
10
649.000000
20
956.000000
30
0.0
11
544.000000
21
956.000000
31
0.0
0
LINE
8
LINES
10
211.000000
20
339.000000
30
0.0
11
316.000000
21
339.000000
31
0.0
0
LINE
8
LINES
10
211.000000
20
507.000000
30
0.0
11
316.000000
21
507.000000
31
0.0
0
LINE
8
LINES
10
364.000000
20
134.000000
30
0.0
11
468.000000
21
134.000000
31
0.0
0
LINE
8
LINES
10
313.000000
20
344.000000
30
0.0
11
211.000000
21
344.000000
31
0.0
0
LINE
8
LINES
10
316.000000
20
510.000000
30
0.0
11
211.000000
21
510.000000
31
0.0
0
LINE
8
LINES
10
211.000000
20
708.000000
30
0.0
11
313.000000
21
708.000000
31
0.0
0
LINE
8
LINES
10
313.000000
20
713.000000
30
0.0
11
214.000000
21
713.000000
31
0.0
0
LINE
8
LINES
10
262.000000
20
129.000000
30
0.0
11
361.000000
21
129.000000
31
0.0
0
LINE
8
LINES
10
212.000000
20
345.000000
30
0.0
11
312.000000
21
345.000000
31
0.0
0
LINE
8
LINES
10
313.000000
20
513.000000
30
0.0
11
216.000000
21
513.000000
31
0.0
0
LINE
8
LINES
10
233.000000
20
406.000000
30
0.0
11
233.000000
21
504.000000
31
0.0
0
LINE
8
LINES
10
216.000000
20
512.000000
30
0.0
11
313.000000
21
512.000000
31
0.0
0
LINE
8
LINES
10
313.000000
20
558.000000
30
0.0
11
216.000000
21
558.000000
31
0.0
0
LINE
8
LINES
10
214.000000
20
337.000000
30
0.0
11
214.000000
21
241.000000
31
0.0
0
LINE
8
LINES
10
216.000000
20
515.000000
30
0.0
11
312.000000
21
515.000000
31
0.0
0
LINE
8
LINES
10
294.000000
20
504.000000
30
0.0
11
294.000000
21
408.000000
31
0.0
0
LINE
8
LINES
10
233.000000
20
241.000000
30
0.0
11
233.000000
21
337.000000
31
0.0
0
LINE
8
LINES
10
236.000000
20
1016.000000
30
0.0
11
332.000000
21
1016.000000
31
0.0
0
LINE
8
LINES
10
291.000000
20
337.000000
30
0.0
11
291.000000
21
243.000000
31
0.0
0
LINE
8
LINES
10
710.000000
20
105.000000
30
0.0
11
617.000000
21
105.000000
31
0.0
0
LINE
8
LINES
10
169.000000
20
987.000000
30
0.0
11
169.000000
21
894.000000
31
0.0
0
LINE
8
LINES
10
321.000000
20
948.000000
30
0.0
11
230.000000
21
948.000000
31
0.0
0
LINE
8
LINES
10
547.000000
20
956.000000
30
0.0
11
547.000000
21
867.000000
31
0.0
0
LINE
8
LINES
10
158.000000
20
838.000000
30
0.0
11
248.000000
21
838.000000
31
0.0
0
LINE
8
LINES
10
518.000000
20
844.000000
30
0.0
11
609.000000
21
844.000000
31
0.0
0
LINE
8
LINES
10
275.000000
20
996.000000
30
0.0
11
187.000000
21
996.000000
31
0.0
0
LINE
8
LINES
10
172.000000
20
129.000000
30
0.0
11
260.000000
21
129.000000
31
0.0
0
LINE
8
LINES
10
275.000000
20
116.000000
30
0.0
11
364.000000
21
116.000000
31
0.0
0
LINE
8
LINES
10
652.000000
20
268.000000
30
0.0
11
739.000000
21
268.000000
31
0.0
0
LINE
8
LINES
10
569.000000
20
377.000000
30
0.0
11
569.000000
21
291.000000
31
0.0
0
LINE
8
LINES
10
432.000000
20
377.000000
30
0.0
11
432.000000
21
291.000000
31
0.0
0
LINE
8
LINES
10
188.000000
20
1008.000000
30
0.0
11
273.000000
21
1008.000000
31
0.0
0
LINE
8
LINES
10
494.000000
20
377.000000
30
0.0
11
494.000000
21
292.000000
31
0.0
0
LINE
8
LINES
10
654.000000
20
291.000000
30
0.0
11
654.000000
21
377.000000
31
0.0
0
LINE
8
LINES
10
720.000000
20
291.000000
30
0.0
11
720.000000
21
377.000000
31
0.0
0
LINE
8
LINES
10
382.000000
20
291.000000
30
0.0
11
382.000000
21
377.000000
31
0.0
0
LINE
8
LINES
10
632.000000
20
377.000000
30
0.0
11
632.000000
21
292.000000
31
0.0
0
LINE
8
LINES
10
518.000000
20
292.000000
30
0.0
11
518.000000
21
377.000000
31
0.0
0
LINE
8
LINES
10
446.000000
20
292.000000
30
0.0
11
446.000000
21
377.000000
31
0.0
0
LINE
8
LINES
10
705.000000
20
377.000000
30
0.0
11
705.000000
21
294.000000
31
0.0
0
LINE
8
LINES
10
582.000000
20
296.000000
30
0.0
11
582.000000
21
377.000000
31
0.0
0
LINE
8
LINES
10
617.000000
20
688.000000
30
0.0
11
699.000000
21
688.000000
31
0.0
0
LINE
8
LINES
10
316.000000
20
654.000000
30
0.0
11
316.000000
21
572.000000
31
0.0
0
LINE
8
LINES
10
241.000000
20
337.000000
30
0.0
11
241.000000
21
257.000000
31
0.0
0
LINE
8
LINES
10
478.000000
20
539.000000
30
0.0
11
558.000000
21
539.000000
31
0.0
0
LINE
8
LINES
10
355.000000
20
1008.000000
30
0.0
11
435.000000
21
1008.000000
31
0.0
0
LINE
8
LINES
10
609.000000
20
947.000000
30
0.0
11
609.000000
21
867.000000
31
0.0
0
LINE
8
LINES
10
630.000000
20
686.000000
30
0.0
11
630.000000
21
606.000000
31
0.0
0
LINE
8
LINES
10
241.000000
20
502.000000
30
0.0
11
241.000000
21
424.000000
31
0.0
0
LINE
8
LINES
10
494.000000
20
686.000000
30
0.0
11
494.000000
21
606.000000
31
0.0
0
LINE
8
LINES
10
520.000000
20
606.000000
30
0.0
11
520.000000
21
686.000000
31
0.0
0
LINE
8
LINES
10
568.000000
20
686.000000
30
0.0
11
568.000000
21
608.000000
31
0.0
0
LINE
8
LINES
10
366.000000
20
537.000000
30
0.0
11
443.000000
21
537.000000
31
0.0
0
LINE
8
LINES
10
654.000000
20
608.000000
30
0.0
11
654.000000
21
686.000000
31
0.0
0
LINE
8
LINES
10
432.000000
20
686.000000
30
0.0
11
432.000000
21
608.000000
31
0.0
0
LINE
8
LINES
10
153.000000
20
729.000000
30
0.0
11
230.000000
21
729.000000
31
0.0
0
LINE
8
LINES
10
540.000000
20
868.000000
30
0.0
11
540.000000
21
947.000000
31
0.0
0
LINE
8
LINES
10
382.000000
20
608.000000
30
0.0
11
382.000000
21
686.000000
31
0.0
0
LINE
8
LINES
10
712.000000
20
537.000000
30
0.0
11
636.000000
21
537.000000
31
0.0
0
LINE
8
LINES
10
323.000000
20
592.000000
30
0.0
11
398.000000
21
592.000000
31
0.0
0
LINE
8
LINES
10
601.000000
20
985.000000
30
0.0
11
526.000000
21
985.000000
31
0.0
0
LINE
8
LINES
10
454.000000
20
686.000000
30
0.0
11
454.000000
21
612.000000
31
0.0
0
LINE
8
LINES
10
281.000000
20
982.000000
30
0.0
11
209.000000
21
982.000000
31
0.0
0
LINE
8
LINES
10
392.000000
20
686.000000
30
0.0
11
392.000000
21
614.000000
31
0.0
0
LINE
8
LINES
10
526.000000
20
686.000000
30
0.0
11
526.000000
21
614.000000
31
0.0
0
LINE
8
LINES
10
558.000000
20
614.000000
30
0.0
11
558.000000
21
686.000000
31
0.0
0
LINE
8
LINES
10
424.000000
20
304.000000
30
0.0
11
424.000000
21
377.000000
31
0.0
0
LINE
8
LINES
10
486.000000
20
304.000000
30
0.0
11
486.000000
21
377.000000
31
0.0
0
LINE
8
LINES
10
696.000000
20
611.000000
30
0.0
11
696.000000
21
684.000000
31
0.0
0
LINE
8
LINES
10
292.000000
20
836.000000
30
0.0
11
292.000000
21
764.000000
31
0.0
0
LINE
8
LINES
10
297.000000
20
182.000000
30
0.0
11
225.000000
21
182.000000
31
0.0
0
LINE
8
LINES
10
467.000000
20
961.000000
30
0.0
11
395.000000
21
961.000000
31
0.0
0
LINE
8
LINES
10
422.000000
20
614.000000
30
0.0
11
422.000000
21
686.000000
31
0.0
0
LINE
8
LINES
10
452.000000
20
838.000000
30
0.0
11
452.000000
21
766.000000
31
0.0
0
LINE
8
LINES
10
393.000000
20
836.000000
30
0.0
11
393.000000
21
766.000000
31
0.0
0
LINE
8
LINES
10
472.000000
20
134.000000
30
0.0
11
542.000000
21
134.000000
31
0.0
0
LINE
8
LINES
10
622.000000
20
612.000000
30
0.0
11
622.000000
21
684.000000
31
0.0
0
LINE
8
LINES
10
681.000000
20
132.000000
30
0.0
11
752.000000
21
132.000000
31
0.0
0
LINE
8
LINES
10
249.000000
20
836.000000
30
0.0
11
249.000000
21
766.000000
31
0.0
0
LINE
8
LINES
10
697.000000
20
304.000000
30
0.0
11
697.000000
21
376.000000
31
0.0
0
LINE
8
LINES
10
652.000000
20
425.000000
30
0.0
11
723.000000
21
425.000000
31
0.0
0
LINE
8
LINES
10
561.000000
20
153.000000
30
0.0
11
561.000000
21
222.000000
31
0.0
0
LINE
8
LINES
10
424.000000
20
766.000000
30
0.0
11
424.000000
21
835.000000
31
0.0
0
LINE
8
LINES
10
321.000000
20
686.000000
30
0.0
11
390.000000
21
686.000000
31
0.0
0
LINE
8
LINES
10
488.000000
20
152.000000
30
0.0
11
488.000000
21
220.000000
31
0.0
0
LINE
8
LINES
10
430.000000
20
838.000000
30
0.0
11
430.000000
21
769.000000
31
0.0
0
LINE
8
LINES
10
449.000000
20
768.000000
30
0.0
11
449.000000
21
836.000000
31
0.0
0
LINE
8
LINES
10
315.000000
20
302.000000
30
0.0
11
315.000000
21
233.000000
31
0.0
0
LINE
8
LINES
10
441.000000
20
984.000000
30
0.0
11
372.000000
21
984.000000
31
0.0
0
LINE
8
LINES
10
316.000000
20
467.000000
30
0.0
11
316.000000
21
401.000000
31
0.0
0
LINE
8
LINES
10
246.000000
20
672.000000
30
0.0
11
313.000000
21
672.000000
31
0.0
0
LINE
8
LINES
10
624.000000
20
305.000000
30
0.0
11
624.000000
21
372.000000
31
0.0
0
LINE
8
LINES
10
624.000000
20
153.000000
30
0.0
11
624.000000
21
220.000000
31
0.0
0
LINE
8
LINES
10
446.000000
20
608.000000
30
0.0
11
446.000000
21
675.000000
31
0.0
0
LINE
8
LINES
10
484.000000
20
614.000000
30
0.0
11
484.000000
21
681.000000
31
0.0
0
LINE
8
LINES
10
582.000000
20
619.000000
30
0.0
11
582.000000
21
686.000000
31
0.0
0
LINE
8
LINES
10
491.000000
20
836.000000
30
0.0
11
491.000000
21
771.000000
31
0.0
0
LINE
8
LINES
10
246.000000
20
771.000000
30
0.0
11
246.000000
21
836.000000
31
0.0
0
LINE
8
LINES
10
294.000000
20
174.000000
30
0.0
11
227.000000
21
174.000000
31
0.0
0
LINE
8
LINES
10
387.000000
20
772.000000
30
0.0
11
387.000000
21
838.000000
31
0.0
0
LINE
8
LINES
10
659.000000
20
772.000000
30
0.0
11
659.000000
21
838.000000
31
0.0
0
LINE
8
LINES
10
177.000000
20
908.000000
30
0.0
11
177.000000
21
972.000000
31
0.0
0
LINE
8
LINES
10
276.000000
20
1006.000000
30
0.0
11
340.000000
21
998.000000
31
0.0
0
LINE
8
LINES
10
363.000000
20
993.000000
30
0.0
11
427.000000
21
993.000000
31
0.0
0
LINE
8
LINES
10
691.000000
20
121.000000
30
0.0
11
753.000000
21
121.000000
31
0.0
0
LINE
8
LINES
10
158.000000
20
756.000000
30
0.0
11
222.000000
21
756.000000
31
0.0
0
LINE
8
LINES
10
340.000000
20
131.000000
30
0.0
11
276.000000
21
131.000000
31
0.0
0
LINE
8
LINES
10
222.000000
20
760.000000
30
0.0
11
158.000000
21
760.000000
31
0.0
0
LINE
8
LINES
10
364.000000
20
393.000000
30
0.0
11
364.000000
21
332.000000
31
0.0
0
LINE
8
LINES
10
515.000000
20
270.000000
30
0.0
11
577.000000
21
270.000000
31
0.0
0
LINE
8
LINES
10
516.000000
20
278.000000
30
0.0
11
577.000000
21
278.000000
31
0.0
0
LINE
8
LINES
10
598.000000
20
867.000000
30
0.0
11
598.000000
21
928.000000
31
0.0
0
LINE
8
LINES
10
537.000000
20
604.000000
30
0.0
11
476.000000
21
604.000000
31
0.0
0
LINE
8
LINES
10
219.000000
20
744.000000
30
0.0
11
158.000000
21
744.000000
31
0.0
0
LINE
8
LINES
10
150.000000
20
574.000000
30
0.0
11
211.000000
21
574.000000
31
0.0
0
LINE
8
LINES
10
203.000000
20
384.000000
30
0.0
11
262.000000
21
377.000000
31
0.0
0
LINE
8
LINES
10
225.000000
20
956.000000
30
0.0
11
286.000000
21
956.000000
31
0.0
0
LINE
8
LINES
10
576.000000
20
273.000000
30
0.0
11
515.000000
21
273.000000
31
0.0
0
LINE
8
LINES
10
579.000000
20
268.000000
30
0.0
11
638.000000
21
268.000000
31
0.0
0
LINE
8
LINES
10
633.000000
20
536.000000
30
0.0
11
574.000000
21
536.000000
31
0.0
0
LINE
8
LINES
10
652.000000
20
276.000000
30
0.0
11
712.000000
21
276.000000
31
0.0
0
LINE
8
LINES
10
321.000000
20
643.000000
30
0.0
11
380.000000
21
643.000000
31
0.0
0
LINE
8
LINES
10
158.000000
20
742.000000
30
0.0
11
217.000000
21
742.000000
31
0.0
0
LINE
8
LINES
10
364.000000
20
472.000000
30
0.0
11
364.000000
21
412.000000
31
0.0
0
LINE
8
LINES
10
265.000000
20
382.000000
30
0.0
11
206.000000
21
388.000000
31
0.0
0
LINE
8
LINES
10
436.000000
20
430.000000
30
0.0
11
377.000000
21
430.000000
31
0.0
0
LINE
8
LINES
10
712.000000
20
273.000000
30
0.0
11
652.000000
21
273.000000
31
0.0
0
LINE
8
LINES
10
492.000000
20
696.000000
30
0.0
11
433.000000
21
696.000000
31
0.0
0
LINE
8
LINES
10
580.000000
20
278.000000
30
0.0
11
638.000000
21
278.000000
31
0.0
0
LINE
8
LINES
10
652.000000
20
433.000000
30
0.0
11
712.000000
21
433.000000
31
0.0
0
LINE
8
LINES
10
430.000000
20
696.000000
30
0.0
11
371.000000
21
696.000000
31
0.0
0
LINE
8
LINES
10
673.000000
20
598.000000
30
0.0
11
614.000000
21
598.000000
31
0.0
0
LINE
8
LINES
10
254.000000
20
140.000000
30
0.0
11
195.000000
21
140.000000
31
0.0
0
LINE
8
LINES
10
158.000000
20
750.000000
30
0.0
11
217.000000
21
750.000000
31
0.0
0
LINE
8
LINES
10
652.000000
20
379.000000
30
0.0
11
708.000000
21
379.000000
31
0.0
0
LINE
8
LINES
10
580.000000
20
380.000000
30
0.0
11
638.000000
21
380.000000
31
0.0
0
LINE
8
LINES
10
502.000000
20
273.000000
30
0.0
11
444.000000
21
273.000000
31
0.0
0
LINE
8
LINES
10
436.000000
20
273.000000
30
0.0
11
379.000000
21
273.000000
31
0.0
0
LINE
8
LINES
10
638.000000
20
273.000000
30
0.0
11
582.000000
21
273.000000
31
0.0
0
LINE
8
LINES
10
712.000000
20
428.000000
30
0.0
11
654.000000
21
428.000000
31
0.0
0
LINE
8
LINES
10
153.000000
20
332.000000
30
0.0
11
153.000000
21
273.000000
31
0.0
0
LINE
8
LINES
10
616.000000
20
595.000000
30
0.0
11
673.000000
21
595.000000
31
0.0
0
LINE
8
LINES
10
536.000000
20
598.000000
30
0.0
11
478.000000
21
598.000000
31
0.0
0
LINE
8
LINES
10
505.000000
20
124.000000
30
0.0
11
448.000000
21
124.000000
31
0.0
0
LINE
8
LINES
10
478.000000
20
601.000000
30
0.0
11
536.000000
21
601.000000
31
0.0
0
LINE
8
LINES
10
539.000000
20
963.000000
30
0.0
11
595.000000
21
963.000000
31
0.0
0
LINE
8
LINES
10
203.000000
20
212.000000
30
0.0
11
259.000000
21
212.000000
31
0.0
0
LINE
8
LINES
10
444.000000
20
276.000000
30
0.0
11
500.000000
21
276.000000
31
0.0
0
LINE
8
LINES
10
156.000000
20
539.000000
30
0.0
11
212.000000
21
539.000000
31
0.0
0
LINE
8
LINES
10
580.000000
20
433.000000
30
0.0
11
636.000000
21
433.000000
31
0.0
0
LINE
8
LINES
10
516.000000
20
380.000000
30
0.0
11
572.000000
21
380.000000
31
0.0
0
LINE
8
LINES
10
558.000000
20
688.000000
30
0.0
11
614.000000
21
688.000000
31
0.0
0
LINE
8
LINES
10
500.000000
20
430.000000
30
0.0
11
444.000000
21
430.000000
31
0.0
0
LINE
8
LINES
10
572.000000
20
430.000000
30
0.0
11
516.000000
21
430.000000
31
0.0
0
LINE
8
LINES
10
561.000000
20
304.000000
30
0.0
11
561.000000
21
361.000000
31
0.0
0
LINE
8
LINES
10
542.000000
20
865.000000
30
0.0
11
598.000000
21
865.000000
31
0.0
0
LINE
8
LINES
10
636.000000
20
430.000000
30
0.0
11
580.000000
21
430.000000
31
0.0
0
LINE
8
LINES
10
443.000000
20
433.000000
30
0.0
11
499.000000
21
433.000000
31
0.0
0
LINE
8
LINES
10
478.000000
20
595.000000
30
0.0
11
536.000000
21
595.000000
31
0.0
0
LINE
8
LINES
10
537.000000
20
136.000000
30
0.0
11
481.000000
21
136.000000
31
0.0
0
LINE
8
LINES
10
443.000000
20
380.000000
30
0.0
11
497.000000
21
380.000000
31
0.0
0
LINE
8
LINES
10
379.000000
20
276.000000
30
0.0
11
433.000000
21
276.000000
31
0.0
0
LINE
8
LINES
10
379.000000
20
433.000000
30
0.0
11
433.000000
21
433.000000
31
0.0
0
LINE
8
LINES
10
707.000000
20
382.000000
30
0.0
11
652.000000
21
382.000000
31
0.0
0
LINE
8
LINES
10
358.000000
20
971.000000
30
0.0
11
358.000000
21
915.000000
31
0.0
0
LINE
8
LINES
10
156.000000
20
688.000000
30
0.0
11
211.000000
21
688.000000
31
0.0
0
LINE
8
LINES
10
516.000000
20
433.000000
30
0.0
11
572.000000
21
433.000000
31
0.0
0
LINE
8
LINES
10
153.000000
20
166.000000
30
0.0
11
153.000000
21
220.000000
31
0.0
0
LINE
8
LINES
10
156.000000
20
595.000000
30
0.0
11
211.000000
21
595.000000
31
0.0
0
LINE
8
LINES
10
622.000000
20
827.000000
30
0.0
11
622.000000
21
771.000000
31
0.0
0
LINE
8
LINES
10
662.000000
20
968.000000
30
0.0
11
662.000000
21
913.000000
31
0.0
0
LINE
8
LINES
10
396.000000
20
958.000000
30
0.0
11
451.000000
21
958.000000
31
0.0
0
LINE
8
LINES
10
264.000000
20
214.000000
30
0.0
11
318.000000
21
214.000000
31
0.0
0
LINE
8
LINES
10
697.000000
20
152.000000
30
0.0
11
697.000000
21
206.000000
31
0.0
0
LINE
8
LINES
10
561.000000
20
993.000000
30
0.0
11
614.000000
21
993.000000
31
0.0
0
LINE
8
LINES
10
211.000000
20
633.000000
30
0.0
11
158.000000
21
633.000000
31
0.0
0
LINE
8
LINES
10
529.000000
20
825.000000
30
0.0
11
529.000000
21
771.000000
31
0.0
0
LINE
8
LINES
10
619.000000
20
771.000000
30
0.0
11
619.000000
21
825.000000
31
0.0
0
LINE
8
LINES
10
526.000000
20
771.000000
30
0.0
11
526.000000
21
825.000000
31
0.0
0
LINE
8
LINES
10
153.000000
20
241.000000
30
0.0
11
153.000000
21
294.000000
31
0.0
0
LINE
8
LINES
10
632.000000
20
873.000000
30
0.0
11
684.000000
21
873.000000
31
0.0
0
LINE
8
LINES
10
318.000000
20
721.000000
30
0.0
11
371.000000
21
721.000000
31
0.0
0
LINE
8
LINES
10
518.000000
20
97.000000
30
0.0
11
571.000000
21
97.000000
31
0.0
0
LINE
8
LINES
10
580.000000
20
691.000000
30
0.0
11
633.000000
21
691.000000
31
0.0
0
LINE
8
LINES
10
318.000000
20
729.000000
30
0.0
11
371.000000
21
729.000000
31
0.0
0
LINE
8
LINES
10
211.000000
20
660.000000
30
0.0
11
158.000000
21
660.000000
31
0.0
0
LINE
8
LINES
10
211.000000
20
646.000000
30
0.0
11
158.000000
21
646.000000
31
0.0
0
LINE
8
LINES
10
633.000000
20
886.000000
30
0.0
11
686.000000
21
886.000000
31
0.0
0
LINE
8
LINES
10
672.000000
20
134.000000
30
0.0
11
619.000000
21
134.000000
31
0.0
0
LINE
8
LINES
10
686.000000
20
889.000000
30
0.0
11
633.000000
21
889.000000
31
0.0
0
LINE
8
LINES
10
571.000000
20
382.000000
30
0.0
11
518.000000
21
382.000000
31
0.0
0
LINE
8
LINES
10
633.000000
20
382.000000
30
0.0
11
582.000000
21
382.000000
31
0.0
0
LINE
8
LINES
10
158.000000
20
566.000000
30
0.0
11
209.000000
21
566.000000
31
0.0
0
LINE
8
LINES
10
371.000000
20
726.000000
30
0.0
11
318.000000
21
726.000000
31
0.0
0
LINE
8
LINES
10
462.000000
20
604.000000
30
0.0
11
412.000000
21
604.000000
31
0.0
0
LINE
8
LINES
10
297.000000
20
953.000000
30
0.0
11
348.000000
21
953.000000
31
0.0
0
LINE
8
LINES
10
433.000000
20
382.000000
30
0.0
11
382.000000
21
382.000000
31
0.0
0
LINE
8
LINES
10
496.000000
20
382.000000
30
0.0
11
446.000000
21
382.000000
31
0.0
0
LINE
8
LINES
10
432.000000
20
438.000000
30
0.0
11
382.000000
21
438.000000
31
0.0
0
LINE
8
LINES
10
331.000000
20
996.000000
30
0.0
11
281.000000
21
996.000000
31
0.0
0
LINE
8
LINES
10
433.000000
20
689.000000
30
0.0
11
382.000000
21
689.000000
31
0.0
0
LINE
8
LINES
10
232.000000
20
348.000000
30
0.0
11
281.000000
21
348.000000
31
0.0
0
LINE
8
LINES
10
364.000000
20
753.000000
30
0.0
11
313.000000
21
753.000000
31
0.0
0
LINE
8
LINES
10
630.000000
20
438.000000
30
0.0
11
582.000000
21
438.000000
31
0.0
0
LINE
8
LINES
10
494.000000
20
689.000000
30
0.0
11
446.000000
21
689.000000
31
0.0
0
LINE
8
LINES
10
225.000000
20
116.000000
30
0.0
11
273.000000
21
116.000000
31
0.0
0
LINE
8
LINES
10
366.000000
20
734.000000
30
0.0
11
316.000000
21
734.000000
31
0.0
0
LINE
8
LINES
10
694.000000
20
228.000000
30
0.0
11
742.000000
21
228.000000
31
0.0
0
LINE
8
LINES
10
652.000000
20
385.000000
30
0.0
11
702.000000
21
385.000000
31
0.0
0
LINE
8
LINES
10
316.000000
20
814.000000
30
0.0
11
364.000000
21
814.000000
31
0.0
0
LINE
8
LINES
10
510.000000
20
985.000000
30
0.0
11
462.000000
21
985.000000
31
0.0
0
LINE
8
LINES
10
318.000000
20
171.000000
30
0.0
11
318.000000
21
217.000000
31
0.0
0
LINE
8
LINES
10
406.000000
20
688.000000
30
0.0
11
452.000000
21
688.000000
31
0.0
0
LINE
8
LINES
10
268.000000
20
624.000000
30
0.0
11
316.000000
21
624.000000
31
0.0
0
LINE
8
LINES
10
568.000000
20
483.000000
30
0.0
11
568.000000
21
436.000000
31
0.0
0
LINE
8
LINES
10
430.000000
20
542.000000
30
0.0
11
382.000000
21
542.000000
31
0.0
0
LINE
8
LINES
10
552.000000
20
595.000000
30
0.0
11
598.000000
21
595.000000
31
0.0
0
LINE
8
LINES
10
598.000000
20
598.000000
30
0.0
11
552.000000
21
598.000000
31
0.0
0
LINE
8
LINES
10
416.000000
20
595.000000
30
0.0
11
462.000000
21
595.000000
31
0.0
0
LINE
8
LINES
10
220.000000
20
723.000000
30
0.0
11
172.000000
21
723.000000
31
0.0
0
LINE
8
LINES
10
321.000000
20
616.000000
30
0.0
11
368.000000
21
616.000000
31
0.0
0
LINE
8
LINES
10
318.000000
20
630.000000
30
0.0
11
366.000000
21
630.000000
31
0.0
0
LINE
8
LINES
10
462.000000
20
598.000000
30
0.0
11
416.000000
21
598.000000
31
0.0
0
LINE
8
LINES
10
651.000000
20
691.000000
30
0.0
11
697.000000
21
691.000000
31
0.0
0
LINE
8
LINES
10
316.000000
20
750.000000
30
0.0
11
364.000000
21
750.000000
31
0.0
0
LINE
8
LINES
10
318.000000
20
742.000000
30
0.0
11
366.000000
21
742.000000
31
0.0
0
LINE
8
LINES
10
521.000000
20
385.000000
30
0.0
11
568.000000
21
385.000000
31
0.0
0
LINE
8
LINES
10
590.000000
20
779.000000
30
0.0
11
585.000000
21
825.000000
31
0.0
0
LINE
8
LINES
10
313.000000
20
398.000000
30
0.0
11
268.000000
21
398.000000
31
0.0
0
LINE
8
LINES
10
566.000000
20
388.000000
30
0.0
11
521.000000
21
388.000000
31
0.0
0
LINE
8
LINES
10
321.000000
20
219.000000
30
0.0
11
366.000000
21
219.000000
31
0.0
0
LINE
8
LINES
10
566.000000
20
696.000000
30
0.0
11
521.000000
21
696.000000
31
0.0
0
LINE
8
LINES
10
702.000000
20
388.000000
30
0.0
11
656.000000
21
388.000000
31
0.0
0
LINE
8
LINES
10
316.000000
20
387.000000
30
0.0
11
270.000000
21
387.000000
31
0.0
0
LINE
8
LINES
10
704.000000
20
542.000000
30
0.0
11
657.000000
21
542.000000
31
0.0
0
LINE
8
LINES
10
568.000000
20
542.000000
30
0.0
11
521.000000
21
542.000000
31
0.0
0
LINE
8
LINES
10
628.000000
20
542.000000
30
0.0
11
582.000000
21
542.000000
31
0.0
0
LINE
8
LINES
10
384.000000
20
385.000000
30
0.0
11
430.000000
21
385.000000
31
0.0
0
LINE
8
LINES
10
321.000000
20
659.000000
30
0.0
11
366.000000
21
659.000000
31
0.0
0
LINE
8
LINES
10
566.000000
20
689.000000
30
0.0
11
521.000000
21
689.000000
31
0.0
0
LINE
8
LINES
10
364.000000
20
745.000000
30
0.0
11
318.000000
21
745.000000
31
0.0
0
LINE
8
LINES
10
416.000000
20
750.000000
30
0.0
11
462.000000
21
750.000000
31
0.0
0
LINE
8
LINES
10
462.000000
20
755.000000
30
0.0
11
416.000000
21
755.000000
31
0.0
0
LINE
8
LINES
10
462.000000
20
136.000000
30
0.0
11
417.000000
21
136.000000
31
0.0
0
LINE
8
LINES
10
222.000000
20
752.000000
30
0.0
11
176.000000
21
752.000000
31
0.0
0
LINE
8
LINES
10
483.000000
20
790.000000
30
0.0
11
483.000000
21
835.000000
31
0.0
0
LINE
8
LINES
10
552.000000
20
777.000000
30
0.0
11
552.000000
21
822.000000
31
0.0
0
LINE
8
LINES
10
321.000000
20
539.000000
30
0.0
11
366.000000
21
539.000000
31
0.0
0
LINE
8
LINES
10
262.000000
20
459.000000
30
0.0
11
262.000000
21
504.000000
31
0.0
0
LINE
8
LINES
10
428.000000
20
388.000000
30
0.0
11
384.000000
21
388.000000
31
0.0
0
LINE
8
LINES
10
628.000000
20
390.000000
30
0.0
11
584.000000
21
390.000000
31
0.0
0
LINE
8
LINES
10
492.000000
20
390.000000
30
0.0
11
448.000000
21
390.000000
31
0.0
0
LINE
8
LINES
10
368.000000
20
121.000000
30
0.0
11
412.000000
21
121.000000
31
0.0
0
LINE
8
LINES
10
492.000000
20
542.000000
30
0.0
11
448.000000
21
542.000000
31
0.0
0
LINE
8
LINES
10
449.000000
20
385.000000
30
0.0
11
494.000000
21
385.000000
31
0.0
0
LINE
8
LINES
10
340.000000
20
140.000000
30
0.0
11
296.000000
21
140.000000
31
0.0
0
LINE
8
LINES
10
587.000000
20
385.000000
30
0.0
11
632.000000
21
385.000000
31
0.0
0
LINE
8
LINES
10
737.000000
20
134.000000
30
0.0
11
692.000000
21
134.000000
31
0.0
0
LINE
8
LINES
10
281.000000
20
462.000000
30
0.0
11
281.000000
21
505.000000
31
0.0
0
LINE
8
LINES
10
288.000000
20
793.000000
30
0.0
11
288.000000
21
836.000000
31
0.0
0
LINE
8
LINES
10
208.000000
20
390.000000
30
0.0
11
252.000000
21
390.000000
31
0.0
0
LINE
8
LINES
10
273.000000
20
392.000000
30
0.0
11
316.000000
21
392.000000
31
0.0
0
LINE
8
LINES
10
584.000000
20
713.000000
30
0.0
11
627.000000
21
713.000000
31
0.0
0
LINE
8
LINES
10
595.000000
20
817.000000
30
0.0
11
595.000000
21
774.000000
31
0.0
0
LINE
8
LINES
10
326.000000
20
564.000000
30
0.0
11
371.000000
21
564.000000
31
0.0
0
LINE
8
LINES
10
632.000000
20
483.000000
30
0.0
11
632.000000
21
441.000000
31
0.0
0
LINE
8
LINES
10
272.000000
20
569.000000
30
0.0
11
316.000000
21
569.000000
31
0.0
0
LINE
8
LINES
10
366.000000
20
595.000000
30
0.0
11
321.000000
21
595.000000
31
0.0
0
LINE
8
LINES
10
364.000000
20
617.000000
30
0.0
11
321.000000
21
617.000000
31
0.0
0
LINE
8
LINES
10
364.000000
20
675.000000
30
0.0
11
321.000000
21
675.000000
31
0.0
0
LINE
8
LINES
10
364.000000
20
660.000000
30
0.0
11
321.000000
21
660.000000
31
0.0
0
LINE
8
LINES
10
448.000000
20
715.000000
30
0.0
11
492.000000
21
715.000000
31
0.0
0
LINE
8
LINES
10
238.000000
20
164.000000
30
0.0
11
195.000000
21
164.000000
31
0.0
0
LINE
8
LINES
10
364.000000
20
604.000000
30
0.0
11
321.000000
21
604.000000
31
0.0
0
LINE
8
LINES
10
339.000000
20
164.000000
30
0.0
11
296.000000
21
164.000000
31
0.0
0
LINE
8
LINES
10
321.000000
20
672.000000
30
0.0
11
364.000000
21
672.000000
31
0.0
0
LINE
8
LINES
10
219.000000
20
734.000000
30
0.0
11
176.000000
21
734.000000
31
0.0
0
LINE
8
LINES
10
556.000000
20
601.000000
30
0.0
11
598.000000
21
601.000000
31
0.0
0
LINE
8
LINES
10
598.000000
20
136.000000
30
0.0
11
556.000000
21
136.000000
31
0.0
0
LINE
8
LINES
10
556.000000
20
817.000000
30
0.0
11
556.000000
21
774.000000
31
0.0
0
LINE
8
LINES
10
619.000000
20
534.000000
30
0.0
11
662.000000
21
534.000000
31
0.0
0
LINE
8
LINES
10
156.000000
20
812.000000
30
0.0
11
156.000000
21
769.000000
31
0.0
0
LINE
8
LINES
10
662.000000
20
532.000000
30
0.0
11
662.000000
21
491.000000
31
0.0
0
LINE
8
LINES
10
321.000000
20
534.000000
30
0.0
11
363.000000
21
534.000000
31
0.0
0
LINE
8
LINES
10
492.000000
20
913.000000
30
0.0
11
492.000000
21
956.000000
31
0.0
0
LINE
8
LINES
10
275.000000
20
382.000000
30
0.0
11
318.000000
21
382.000000
31
0.0
0
LINE
8
LINES
10
363.000000
20
537.000000
30
0.0
11
321.000000
21
537.000000
31
0.0
0
LINE
8
LINES
10
609.000000
20
860.000000
30
0.0
11
569.000000
21
846.000000
31
0.0
0
LINE
8
LINES
10
411.000000
20
246.000000
30
0.0
11
368.000000
21
246.000000
31
0.0
0
LINE
8
LINES
10
246.000000
20
504.000000
30
0.0
11
246.000000
21
462.000000
31
0.0
0
LINE
8
LINES
10
521.000000
20
713.000000
30
0.0
11
563.000000
21
713.000000
31
0.0
0
LINE
8
LINES
10
572.000000
20
120.000000
30
0.0
11
616.000000
21
120.000000
31
0.0
0
LINE
8
LINES
10
382.000000
20
441.000000
30
0.0
11
382.000000
21
483.000000
31
0.0
0
LINE
8
LINES
10
313.000000
20
574.000000
30
0.0
11
272.000000
21
574.000000
31
0.0
0
LINE
8
LINES
10
195.000000
20
152.000000
30
0.0
11
238.000000
21
152.000000
31
0.0
0
LINE
8
LINES
10
387.000000
20
715.000000
30
0.0
11
428.000000
21
715.000000
31
0.0
0
LINE
8
LINES
10
297.000000
20
152.000000
30
0.0
11
339.000000
21
152.000000
31
0.0
0
LINE
8
LINES
10
364.000000
20
222.000000
30
0.0
11
321.000000
21
222.000000
31
0.0
0
LINE
8
LINES
10
492.000000
20
716.000000
30
0.0
11
449.000000
21
716.000000
31
0.0
0
LINE
8
LINES
10
617.000000
20
995.000000
30
0.0
11
659.000000
21
995.000000
31
0.0
0
LINE
8
LINES
10
321.000000
20
382.000000
30
0.0
11
321.000000
21
422.000000
31
0.0
0
LINE
8
LINES
10
267.000000
20
504.000000
30
0.0
11
267.000000
21
462.000000
31
0.0
0
LINE
8
LINES
10
483.000000
20
688.000000
30
0.0
11
526.000000
21
688.000000
31
0.0
0
LINE
8
LINES
10
284.000000
20
668.000000
30
0.0
11
284.000000
21
627.000000
31
0.0
0
LINE
8
LINES
10
214.000000
20
571.000000
30
0.0
11
256.000000
21
571.000000
31
0.0
0
LINE
8
LINES
10
211.000000
20
569.000000
30
0.0
11
171.000000
21
569.000000
31
0.0
0
LINE
8
LINES
10
654.000000
20
441.000000
30
0.0
11
654.000000
21
483.000000
31
0.0
0
LINE
8
LINES
10
654.000000
20
491.000000
30
0.0
11
654.000000
21
531.000000
31
0.0
0
LINE
8
LINES
10
272.000000
20
577.000000
30
0.0
11
313.000000
21
577.000000
31
0.0
0
LINE
8
LINES
10
272.000000
20
580.000000
30
0.0
11
313.000000
21
580.000000
31
0.0
0
LINE
8
LINES
10
312.000000
20
977.000000
30
0.0
11
352.000000
21
977.000000
31
0.0
0
LINE
8
LINES
10
363.000000
20
579.000000
30
0.0
11
323.000000
21
579.000000
31
0.0
0
LINE
8
LINES
10
156.000000
20
534.000000
30
0.0
11
196.000000
21
534.000000
31
0.0
0
LINE
8
LINES
10
662.000000
20
686.000000
30
0.0
11
662.000000
21
646.000000
31
0.0
0
LINE
8
LINES
10
424.000000
20
913.000000
30
0.0
11
424.000000
21
953.000000
31
0.0
0
LINE
8
LINES
10
568.000000
20
531.000000
30
0.0
11
568.000000
21
492.000000
31
0.0
0
LINE
8
LINES
10
494.000000
20
531.000000
30
0.0
11
494.000000
21
492.000000
31
0.0
0
LINE
8
LINES
10
518.000000
20
492.000000
30
0.0
11
518.000000
21
531.000000
31
0.0
0
LINE
8
LINES
10
518.000000
20
443.000000
30
0.0
11
518.000000
21
483.000000
31
0.0
0
LINE
8
LINES
10
246.000000
20
628.000000
30
0.0
11
246.000000
21
668.000000
31
0.0
0
LINE
8
LINES
10
494.000000
20
483.000000
30
0.0
11
494.000000
21
444.000000
31
0.0
0
LINE
8
LINES
10
446.000000
20
492.000000
30
0.0
11
446.000000
21
531.000000
31
0.0
0
LINE
8
LINES
10
382.000000
20
492.000000
30
0.0
11
382.000000
21
531.000000
31
0.0
0
LINE
8
LINES
10
705.000000
20
531.000000
30
0.0
11
705.000000
21
492.000000
31
0.0
0
LINE
8
LINES
10
582.000000
20
492.000000
30
0.0
11
582.000000
21
531.000000
31
0.0
0
LINE
8
LINES
10
256.000000
20
574.000000
30
0.0
11
216.000000
21
574.000000
31
0.0
0
LINE
8
LINES
10
368.000000
20
569.000000
30
0.0
11
328.000000
21
569.000000
31
0.0
0
LINE
8
LINES
10
361.000000
20
230.000000
30
0.0
11
321.000000
21
230.000000
31
0.0
0
LINE
8
LINES
10
697.000000
20
491.000000
30
0.0
11
697.000000
21
531.000000
31
0.0
0
LINE
8
LINES
10
428.000000
20
849.000000
30
0.0
11
387.000000
21
849.000000
31
0.0
0
LINE
8
LINES
10
470.000000
20
838.000000
30
0.0
11
470.000000
21
798.000000
31
0.0
0
LINE
8
LINES
10
662.000000
20
838.000000
30
0.0
11
662.000000
21
798.000000
31
0.0
0
LINE
8
LINES
10
657.000000
20
713.000000
30
0.0
11
697.000000
21
713.000000
31
0.0
0
LINE
8
LINES
10
672.000000
20
867.000000
30
0.0
11
632.000000
21
867.000000
31
0.0
0
LINE
8
LINES
10
243.000000
20
678.000000
30
0.0
11
283.000000
21
678.000000
31
0.0
0
LINE
8
LINES
10
446.000000
20
444.000000
30
0.0
11
446.000000
21
483.000000
31
0.0
0
LINE
8
LINES
10
580.000000
20
444.000000
30
0.0
11
580.000000
21
483.000000
31
0.0
0
LINE
8
LINES
10
323.000000
20
225.000000
30
0.0
11
363.000000
21
225.000000
31
0.0
0
LINE
8
LINES
10
216.000000
20
577.000000
30
0.0
11
256.000000
21
577.000000
31
0.0
0
LINE
8
LINES
10
697.000000
20
691.000000
30
0.0
11
657.000000
21
691.000000
31
0.0
0
LINE
8
LINES
10
465.000000
20
649.000000
30
0.0
11
465.000000
21
688.000000
31
0.0
0
LINE
8
LINES
10
404.000000
20
648.000000
30
0.0
11
404.000000
21
686.000000
31
0.0
0
LINE
8
LINES
10
764.000000
20
41.000000
30
0.0
11
764.000000
21
1.000000
31
0.0
0
LINE
8
LINES
10
483.000000
20
648.000000
30
0.0
11
483.000000
21
686.000000
31
0.0
0
LINE
8
LINES
10
404.000000
20
798.000000
30
0.0
11
404.000000
21
836.000000
31
0.0
0
LINE
8
LINES
10
409.000000
20
836.000000
30
0.0
11
409.000000
21
798.000000
31
0.0
0
LINE
8
LINES
10
588.000000
20
532.000000
30
0.0
11
588.000000
21
494.000000
31
0.0
0
LINE
8
LINES
10
617.000000
20
648.000000
30
0.0
11
617.000000
21
686.000000
31
0.0
0
LINE
8
LINES
10
678.000000
20
686.000000
30
0.0
11
678.000000
21
648.000000
31
0.0
0
LINE
8
LINES
10
526.000000
20
531.000000
30
0.0
11
526.000000
21
492.000000
31
0.0
0
LINE
8
LINES
10
588.000000
20
686.000000
30
0.0
11
588.000000
21
646.000000
31
0.0
0
LINE
8
LINES
10
243.000000
20
257.000000
30
0.0
11
281.000000
21
257.000000
31
0.0
0
LINE
8
LINES
10
689.000000
20
648.000000
30
0.0
11
689.000000
21
686.000000
31
0.0
0
LINE
8
LINES
10
284.000000
20
598.000000
30
0.0
11
246.000000
21
598.000000
31
0.0
0
LINE
8
LINES
10
456.000000
20
953.000000
30
0.0
11
456.000000
21
913.000000
31
0.0
0
LINE
8
LINES
10
678.000000
20
838.000000
30
0.0
11
678.000000
21
798.000000
31
0.0
0
LINE
8
LINES
10
673.000000
20
798.000000
30
0.0
11
673.000000
21
836.000000
31
0.0
0
LINE
8
LINES
10
705.000000
20
483.000000
30
0.0
11
705.000000
21
444.000000
31
0.0
0
LINE
8
LINES
10
323.000000
20
236.000000
30
0.0
11
363.000000
21
236.000000
31
0.0
0
LINE
8
LINES
10
630.000000
20
531.000000
30
0.0
11
630.000000
21
492.000000
31
0.0
0
LINE
8
LINES
10
432.000000
20
483.000000
30
0.0
11
432.000000
21
446.000000
31
0.0
0
LINE
8
LINES
10
432.000000
20
531.000000
30
0.0
11
432.000000
21
492.000000
31
0.0
0
LINE
8
LINES
10
257.000000
20
131.000000
30
0.0
11
219.000000
21
131.000000
31
0.0
0
LINE
8
LINES
10
561.000000
20
492.000000
30
0.0
11
561.000000
21
531.000000
31
0.0
0
LINE
8
LINES
10
622.000000
20
492.000000
30
0.0
11
622.000000
21
531.000000
31
0.0
0
LINE
8
LINES
10
217.000000
20
580.000000
30
0.0
11
256.000000
21
580.000000
31
0.0
0
LINE
8
LINES
10
256.000000
20
579.000000
30
0.0
11
217.000000
21
579.000000
31
0.0
0
LINE
8
LINES
10
203.000000
20
937.000000
30
0.0
11
203.000000
21
977.000000
31
0.0
0
LINE
8
LINES
10
147.000000
20
124.000000
30
0.0
11
155.000000
21
161.000000
31
0.0
0
LINE
8
LINES
10
214.000000
20
379.000000
30
0.0
11
209.000000
21
342.000000
31
0.0
0
LINE
8
LINES
10
689.000000
20
496.000000
30
0.0
11
689.000000
21
532.000000
31
0.0
0
LINE
8
LINES
10
672.000000
20
649.000000
30
0.0
11
672.000000
21
686.000000
31
0.0
0
LINE
8
LINES
10
409.000000
20
686.000000
30
0.0
11
409.000000
21
648.000000
31
0.0
0
LINE
8
LINES
10
617.000000
20
961.000000
30
0.0
11
654.000000
21
961.000000
31
0.0
0
LINE
8
LINES
10
470.000000
20
686.000000
30
0.0
11
470.000000
21
649.000000
31
0.0
0
LINE
8
LINES
10
617.000000
20
496.000000
30
0.0
11
617.000000
21
532.000000
31
0.0
0
LINE
8
LINES
10
465.000000
20
798.000000
30
0.0
11
465.000000
21
835.000000
31
0.0
0
LINE
8
LINES
10
534.000000
20
689.000000
30
0.0
11
534.000000
21
652.000000
31
0.0
0
LINE
8
LINES
10
246.000000
20
590.000000
30
0.0
11
283.000000
21
590.000000
31
0.0
0
LINE
8
LINES
10
604.000000
20
686.000000
30
0.0
11
604.000000
21
648.000000
31
0.0
0
LINE
8
LINES
10
452.000000
20
531.000000
30
0.0
11
452.000000
21
492.000000
31
0.0
0
LINE
8
LINES
10
361.000000
20
240.000000
30
0.0
11
323.000000
21
240.000000
31
0.0
0
LINE
8
LINES
10
212.000000
20
536.000000
30
0.0
11
176.000000
21
536.000000
31
0.0
0
LINE
8
LINES
10
486.000000
20
492.000000
30
0.0
11
486.000000
21
531.000000
31
0.0
0
LINE
8
LINES
10
489.000000
20
713.000000
30
0.0
11
451.000000
21
713.000000
31
0.0
0
LINE
8
LINES
10
624.000000
20
712.000000
30
0.0
11
587.000000
21
712.000000
31
0.0
0
LINE
8
LINES
10
392.000000
20
377.000000
30
0.0
11
392.000000
21
342.000000
31
0.0
0
LINE
8
LINES
10
174.000000
20
859.000000
30
0.0
11
174.000000
21
896.000000
31
0.0
0
LINE
8
LINES
10
689.000000
20
798.000000
30
0.0
11
689.000000
21
835.000000
31
0.0
0
LINE
8
LINES
10
673.000000
20
497.000000
30
0.0
11
673.000000
21
532.000000
31
0.0
0
LINE
8
LINES
10
604.000000
20
532.000000
30
0.0
11
604.000000
21
497.000000
31
0.0
0
LINE
8
LINES
10
678.000000
20
532.000000
30
0.0
11
678.000000
21
497.000000
31
0.0
0
LINE
8
LINES
10
361.000000
20
894.000000
30
0.0
11
361.000000
21
857.000000
31
0.0
0
LINE
8
LINES
10
556.000000
20
496.000000
30
0.0
11
556.000000
21
531.000000
31
0.0
0
LINE
8
LINES
10
176.000000
20
691.000000
30
0.0
11
211.000000
21
691.000000
31
0.0
0
LINE
8
LINES
10
211.000000
20
689.000000
30
0.0
11
176.000000
21
689.000000
31
0.0
0
LINE
8
LINES
10
246.000000
20
536.000000
30
0.0
11
281.000000
21
536.000000
31
0.0
0
LINE
8
LINES
10
281.000000
20
299.000000
30
0.0
11
243.000000
21
299.000000
31
0.0
0
LINE
8
LINES
10
211.000000
20
604.000000
30
0.0
11
176.000000
21
604.000000
31
0.0
0
LINE
8
LINES
10
424.000000
20
492.000000
30
0.0
11
424.000000
21
529.000000
31
0.0
0
LINE
8
LINES
10
281.000000
20
302.000000
30
0.0
11
281.000000
21
337.000000
31
0.0
0
LINE
8
LINES
10
427.000000
20
713.000000
30
0.0
11
390.000000
21
713.000000
31
0.0
0
LINE
8
LINES
10
268.000000
20
801.000000
30
0.0
11
268.000000
21
838.000000
31
0.0
0
LINE
8
LINES
10
281.000000
20
454.000000
30
0.0
11
246.000000
21
454.000000
31
0.0
0
LINE
8
LINES
10
632.000000
20
881.000000
30
0.0
11
668.000000
21
881.000000
31
0.0
0
LINE
8
LINES
10
176.000000
20
616.000000
30
0.0
11
211.000000
21
616.000000
31
0.0
0
LINE
8
LINES
10
388.000000
20
697.000000
30
0.0
11
425.000000
21
697.000000
31
0.0
0
LINE
8
LINES
10
697.000000
20
712.000000
30
0.0
11
660.000000
21
712.000000
31
0.0
0
LINE
8
LINES
10
561.000000
20
712.000000
30
0.0
11
526.000000
21
712.000000
31
0.0
0
LINE
8
LINES
10
451.000000
20
697.000000
30
0.0
11
488.000000
21
697.000000
31
0.0
0
LINE
8
LINES
10
630.000000
20
923.000000
30
0.0
11
630.000000
21
886.000000
31
0.0
0
LINE
8
LINES
10
489.000000
20
849.000000
30
0.0
11
452.000000
21
849.000000
31
0.0
0
LINE
8
LINES
10
363.000000
20
329.000000
30
0.0
11
363.000000
21
292.000000
31
0.0
0
LINE
8
LINES
10
601.000000
20
497.000000
30
0.0
11
601.000000
21
531.000000
31
0.0
0
LINE
8
LINES
10
360.000000
20
1001.000000
30
0.0
11
364.000000
21
964.000000
31
0.0
0
LINE
8
LINES
10
540.000000
20
497.000000
30
0.0
11
540.000000
21
531.000000
31
0.0
0
LINE
8
LINES
10
542.000000
20
531.000000
30
0.0
11
542.000000
21
497.000000
31
0.0
0
LINE
8
LINES
10
600.000000
20
651.000000
30
0.0
11
600.000000
21
686.000000
31
0.0
0
LINE
8
LINES
10
316.000000
20
345.000000
30
0.0
11
316.000000
21
380.000000
31
0.0
0
LINE
8
LINES
10
313.000000
20
380.000000
30
0.0
11
313.000000
21
345.000000
31
0.0
0
LINE
8
LINES
10
260.000000
20
120.000000
30
0.0
11
225.000000
21
120.000000
31
0.0
0
LINE
8
LINES
10
361.000000
20
542.000000
30
0.0
11
326.000000
21
542.000000
31
0.0
0
LINE
8
LINES
10
211.000000
20
596.000000
30
0.0
11
177.000000
21
596.000000
31
0.0
0
LINE
8
LINES
10
310.000000
20
758.000000
30
0.0
11
275.000000
21
758.000000
31
0.0
0
LINE
8
LINES
10
692.000000
20
716.000000
30
0.0
11
657.000000
21
716.000000
31
0.0
0
LINE
8
LINES
10
662.000000
20
188.000000
30
0.0
11
662.000000
21
153.000000
31
0.0
0
LINE
8
LINES
10
699.000000
20
224.000000
30
0.0
11
734.000000
21
224.000000
31
0.0
0
LINE
8
LINES
10
281.000000
20
275.000000
30
0.0
11
246.000000
21
275.000000
31
0.0
0
LINE
8
LINES
10
662.000000
20
339.000000
30
0.0
11
662.000000
21
304.000000
31
0.0
0
LINE
8
LINES
10
590.000000
20
339.000000
30
0.0
11
590.000000
21
304.000000
31
0.0
0
LINE
8
LINES
10
452.000000
20
302.000000
30
0.0
11
488.000000
21
302.000000
31
0.0
0
LINE
8
LINES
10
457.000000
20
913.000000
30
0.0
11
492.000000
21
913.000000
31
0.0
0
LINE
8
LINES
10
260.000000
20
302.000000
30
0.0
11
260.000000
21
337.000000
31
0.0
0
LINE
8
LINES
10
177.000000
20
659.000000
30
0.0
11
211.000000
21
659.000000
31
0.0
0
LINE
8
LINES
10
177.000000
20
630.000000
30
0.0
11
211.000000
21
630.000000
31
0.0
0
LINE
8
LINES
10
265.000000
20
337.000000
30
0.0
11
265.000000
21
302.000000
31
0.0
0
LINE
8
LINES
10
272.000000
20
838.000000
30
0.0
11
272.000000
21
803.000000
31
0.0
0
LINE
8
LINES
10
211.000000
20
619.000000
30
0.0
11
177.000000
21
619.000000
31
0.0
0
LINE
8
LINES
10
252.000000
20
764.000000
30
0.0
11
286.000000
21
764.000000
31
0.0
0
LINE
8
LINES
10
504.000000
20
128.000000
30
0.0
11
539.000000
21
128.000000
31
0.0
0
LINE
8
LINES
10
281.000000
20
593.000000
30
0.0
11
246.000000
21
593.000000
31
0.0
0
LINE
8
LINES
10
177.000000
20
644.000000
30
0.0
11
211.000000
21
644.000000
31
0.0
0
LINE
8
LINES
10
627.000000
20
716.000000
30
0.0
11
592.000000
21
716.000000
31
0.0
0
LINE
8
LINES
10
132.000000
20
780.000000
30
0.0
11
152.000000
21
809.000000
31
0.0
0
LINE
8
LINES
10
158.000000
20
758.000000
30
0.0
11
148.000000
21
726.000000
31
0.0
0
LINE
8
LINES
10
428.000000
20
763.000000
30
0.0
11
462.000000
21
758.000000
31
0.0
0
LINE
8
LINES
10
169.000000
20
220.000000
30
0.0
11
203.000000
21
220.000000
31
0.0
0
LINE
8
LINES
10
403.000000
20
497.000000
30
0.0
11
403.000000
21
531.000000
31
0.0
0
LINE
8
LINES
10
390.000000
20
187.000000
30
0.0
11
390.000000
21
153.000000
31
0.0
0
LINE
8
LINES
10
390.000000
20
766.000000
30
0.0
11
424.000000
21
766.000000
31
0.0
0
LINE
8
LINES
10
662.000000
20
302.000000
30
0.0
11
697.000000
21
302.000000
31
0.0
0
LINE
8
LINES
10
281.000000
20
435.000000
30
0.0
11
246.000000
21
435.000000
31
0.0
0
LINE
8
LINES
10
313.000000
20
212.000000
30
0.0
11
313.000000
21
179.000000
31
0.0
0
LINE
8
LINES
10
491.000000
20
956.000000
30
0.0
11
457.000000
21
953.000000
31
0.0
0
LINE
8
LINES
10
617.000000
20
121.000000
30
0.0
11
652.000000
21
121.000000
31
0.0
0
LINE
8
LINES
10
654.000000
20
121.000000
30
0.0
11
688.000000
21
118.000000
31
0.0
0
LINE
8
LINES
10
211.000000
20
670.000000
30
0.0
11
243.000000
21
670.000000
31
0.0
0
LINE
8
LINES
10
211.000000
20
694.000000
30
0.0
11
177.000000
21
694.000000
31
0.0
0
LINE
8
LINES
10
281.000000
20
619.000000
30
0.0
11
248.000000
21
619.000000
31
0.0
0
LINE
8
LINES
10
249.000000
20
620.000000
30
0.0
11
283.000000
21
620.000000
31
0.0
0
LINE
8
LINES
10
428.000000
20
601.000000
30
0.0
11
462.000000
21
601.000000
31
0.0
0
LINE
8
LINES
10
211.000000
20
580.000000
30
0.0
11
177.000000
21
580.000000
31
0.0
0
LINE
8
LINES
10
246.000000
20
292.000000
30
0.0
11
281.000000
21
292.000000
31
0.0
0
LINE
8
LINES
10
177.000000
20
601.000000
30
0.0
11
211.000000
21
601.000000
31
0.0
0
LINE
8
LINES
10
692.000000
20
684.000000
30
0.0
11
692.000000
21
651.000000
31
0.0
0
LINE
8
LINES
10
316.000000
20
708.000000
30
0.0
11
316.000000
21
675.000000
31
0.0
0
LINE
8
LINES
10
569.000000
20
846.000000
30
0.0
11
540.000000
21
862.000000
31
0.0
0
LINE
8
LINES
10
651.000000
20
982.000000
30
0.0
11
622.000000
21
966.000000
31
0.0
0
LINE
8
LINES
10
608.000000
20
86.000000
30
0.0
11
641.000000
21
86.000000
31
0.0
0
LINE
8
LINES
10
728.000000
20
185.000000
30
0.0
11
728.000000
21
153.000000
31
0.0
0
LINE
8
LINES
10
550.000000
20
656.000000
30
0.0
11
550.000000
21
688.000000
31
0.0
0
LINE
8
LINES
10
452.000000
20
766.000000
30
0.0
11
486.000000
21
766.000000
31
0.0
0
LINE
8
LINES
10
390.000000
20
302.000000
30
0.0
11
422.000000
21
302.000000
31
0.0
0
LINE
8
LINES
10
590.000000
20
302.000000
30
0.0
11
622.000000
21
302.000000
31
0.0
0
LINE
8
LINES
10
528.000000
20
302.000000
30
0.0
11
561.000000
21
302.000000
31
0.0
0
LINE
8
LINES
10
691.000000
20
344.000000
30
0.0
11
691.000000
21
377.000000
31
0.0
0
LINE
8
LINES
10
531.000000
20
654.000000
30
0.0
11
531.000000
21
686.000000
31
0.0
0
LINE
8
LINES
10
286.000000
20
769.000000
30
0.0
11
254.000000
21
769.000000
31
0.0
0
LINE
8
LINES
10
420.000000
20
497.000000
30
0.0
11
420.000000
21
531.000000
31
0.0
0
LINE
8
LINES
10
619.000000
20
344.000000
30
0.0
11
619.000000
21
377.000000
31
0.0
0
LINE
8
LINES
10
246.000000
20
430.000000
30
0.0
11
278.000000
21
430.000000
31
0.0
0
LINE
8
LINES
10
305.000000
20
120.000000
30
0.0
11
273.000000
21
120.000000
31
0.0
0
LINE
8
LINES
10
246.000000
20
270.000000
30
0.0
11
278.000000
21
270.000000
31
0.0
0
LINE
8
LINES
10
211.000000
20
236.000000
30
0.0
11
211.000000
21
268.000000
31
0.0
0
LINE
8
LINES
10
401.000000
20
233.000000
30
0.0
11
369.000000
21
233.000000
31
0.0
0
LINE
8
LINES
10
643.000000
20
88.000000
30
0.0
11
676.000000
21
88.000000
31
0.0
0
LINE
8
LINES
10
403.000000
20
883.000000
30
0.0
11
371.000000
21
883.000000
31
0.0
0
LINE
8
LINES
10
227.000000
20
124.000000
30
0.0
11
260.000000
21
124.000000
31
0.0
0
LINE
8
LINES
10
307.000000
20
100.000000
30
0.0
11
275.000000
21
100.000000
31
0.0
0
LINE
8
LINES
10
542.000000
20
784.000000
30
0.0
11
542.000000
21
817.000000
31
0.0
0
LINE
8
LINES
10
201.000000
20
1020.000000
30
0.0
11
233.000000
21
1020.000000
31
0.0
0
LINE
8
LINES
10
246.000000
20
905.000000
30
0.0
11
214.000000
21
905.000000
31
0.0
0
LINE
8
LINES
10
177.000000
20
598.000000
30
0.0
11
209.000000
21
598.000000
31
0.0
0
LINE
8
LINES
10
529.000000
20
697.000000
30
0.0
11
561.000000
21
697.000000
31
0.0
0
LINE
8
LINES
10
544.000000
20
958.000000
30
0.0
11
518.000000
21
977.000000
31
0.0
0
LINE
8
LINES
10
283.000000
20
259.000000
30
0.0
11
283.000000
21
291.000000
31
0.0
0
LINE
8
LINES
10
601.000000
20
345.000000
30
0.0
11
601.000000
21
377.000000
31
0.0
0
LINE
8
LINES
10
452.000000
20
222.000000
30
0.0
11
452.000000
21
190.000000
31
0.0
0
LINE
8
LINES
10
556.000000
20
534.000000
30
0.0
11
588.000000
21
534.000000
31
0.0
0
LINE
8
LINES
10
454.000000
20
192.000000
30
0.0
11
486.000000
21
192.000000
31
0.0
0
LINE
8
LINES
10
392.000000
20
612.000000
30
0.0
11
422.000000
21
612.000000
31
0.0
0
LINE
8
LINES
10
528.000000
20
612.000000
30
0.0
11
558.000000
21
612.000000
31
0.0
0
LINE
8
LINES
10
454.000000
20
612.000000
30
0.0
11
486.000000
21
612.000000
31
0.0
0
LINE
8
LINES
10
688.000000
20
489.000000
30
0.0
11
657.000000
21
489.000000
31
0.0
0
LINE
8
LINES
10
390.000000
20
494.000000
30
0.0
11
422.000000
21
494.000000
31
0.0
0
LINE
8
LINES
10
590.000000
20
395.000000
30
0.0
11
622.000000
21
395.000000
31
0.0
0
LINE
8
LINES
10
555.000000
20
686.000000
30
0.0
11
555.000000
21
656.000000
31
0.0
0
LINE
8
LINES
10
454.000000
20
340.000000
30
0.0
11
486.000000
21
340.000000
31
0.0
0
LINE
8
LINES
10
528.000000
20
340.000000
30
0.0
11
558.000000
21
340.000000
31
0.0
0
LINE
8
LINES
10
526.000000
20
184.000000
30
0.0
11
558.000000
21
184.000000
31
0.0
0
LINE
8
LINES
10
643.000000
20
97.000000
30
0.0
11
673.000000
21
97.000000
31
0.0
0
LINE
8
LINES
10
454.000000
20
184.000000
30
0.0
11
486.000000
21
184.000000
31
0.0
0
LINE
8
LINES
10
678.000000
20
97.000000
30
0.0
11
710.000000
21
97.000000
31
0.0
0
LINE
8
LINES
10
256.000000
20
796.000000
30
0.0
11
286.000000
21
796.000000
31
0.0
0
LINE
8
LINES
10
556.000000
20
345.000000
30
0.0
11
556.000000
21
377.000000
31
0.0
0
LINE
8
LINES
10
368.000000
20
241.000000
30
0.0
11
398.000000
21
241.000000
31
0.0
0
LINE
8
LINES
10
718.000000
20
443.000000
30
0.0
11
718.000000
21
473.000000
31
0.0
0
LINE
8
LINES
10
275.000000
20
94.000000
30
0.0
11
307.000000
21
94.000000
31
0.0
0
LINE
8
LINES
10
201.000000
20
222.000000
30
0.0
11
171.000000
21
222.000000
31
0.0
0
LINE
8
LINES
10
172.000000
20
236.000000
30
0.0
11
203.000000
21
236.000000
31
0.0
0
LINE
8
LINES
10
537.000000
20
124.000000
30
0.0
11
507.000000
21
124.000000
31
0.0
0
LINE
8
LINES
10
398.000000
20
243.000000
30
0.0
11
368.000000
21
243.000000
31
0.0
0
LINE
8
LINES
10
483.000000
20
345.000000
30
0.0
11
483.000000
21
377.000000
31
0.0
0
LINE
8
LINES
10
172.000000
20
225.000000
30
0.0
11
203.000000
21
225.000000
31
0.0
0
LINE
8
LINES
10
528.000000
20
491.000000
30
0.0
11
558.000000
21
491.000000
31
0.0
0
LINE
8
LINES
10
275.000000
20
123.000000
30
0.0
11
307.000000
21
123.000000
31
0.0
0
LINE
8
LINES
10
396.000000
20
136.000000
30
0.0
11
366.000000
21
136.000000
31
0.0
0
LINE
8
LINES
10
392.000000
20
184.000000
30
0.0
11
422.000000
21
184.000000
31
0.0
0
LINE
8
LINES
10
620.000000
20
531.000000
30
0.0
11
620.000000
21
499.000000
31
0.0
0
LINE
8
LINES
10
286.000000
20
793.000000
30
0.0
11
256.000000
21
793.000000
31
0.0
0
LINE
8
LINES
10
608.000000
20
816.000000
30
0.0
11
608.000000
21
784.000000
31
0.0
0
LINE
8
LINES
10
544.000000
20
816.000000
30
0.0
11
544.000000
21
784.000000
31
0.0
0
LINE
8
LINES
10
604.000000
20
784.000000
30
0.0
11
604.000000
21
816.000000
31
0.0
0
LINE
8
LINES
10
558.000000
20
377.000000
30
0.0
11
558.000000
21
345.000000
31
0.0
0
LINE
8
LINES
10
425.000000
20
459.000000
30
0.0
11
419.000000
21
489.000000
31
0.0
0
LINE
8
LINES
10
499.000000
20
99.000000
30
0.0
11
468.000000
21
104.000000
31
0.0
0
LINE
8
LINES
10
744.000000
20
214.000000
30
0.0
11
748.000000
21
184.000000
31
0.0
0
LINE
8
LINES
10
681.000000
20
377.000000
30
0.0
11
678.000000
21
347.000000
31
0.0
0
LINE
8
LINES
10
408.000000
20
526.000000
30
0.0
11
408.000000
21
497.000000
31
0.0
0
LINE
8
LINES
10
662.000000
20
766.000000
30
0.0
11
692.000000
21
766.000000
31
0.0
0
LINE
8
LINES
10
664.000000
20
612.000000
30
0.0
11
694.000000
21
612.000000
31
0.0
0
LINE
8
LINES
10
392.000000
20
342.000000
30
0.0
11
422.000000
21
342.000000
31
0.0
0
LINE
8
LINES
10
606.000000
20
97.000000
30
0.0
11
636.000000
21
97.000000
31
0.0
0
LINE
8
LINES
10
204.000000
20
241.000000
30
0.0
11
174.000000
21
241.000000
31
0.0
0
LINE
8
LINES
10
369.000000
20
97.000000
30
0.0
11
398.000000
21
97.000000
31
0.0
0
LINE
8
LINES
10
444.000000
20
99.000000
30
0.0
11
473.000000
21
99.000000
31
0.0
0
LINE
8
LINES
10
289.000000
20
944.000000
30
0.0
11
289.000000
21
913.000000
31
0.0
0
LINE
8
LINES
10
208.000000
20
905.000000
30
0.0
11
177.000000
21
905.000000
31
0.0
0
LINE
8
LINES
10
692.000000
20
376.000000
30
0.0
11
692.000000
21
345.000000
31
0.0
0
LINE
8
LINES
10
588.000000
20
643.000000
30
0.0
11
588.000000
21
614.000000
31
0.0
0
LINE
8
LINES
10
528.000000
20
190.000000
30
0.0
11
558.000000
21
190.000000
31
0.0
0
LINE
8
LINES
10
590.000000
20
612.000000
30
0.0
11
620.000000
21
612.000000
31
0.0
0
LINE
8
LINES
10
680.000000
20
843.000000
30
0.0
11
680.000000
21
873.000000
31
0.0
0
LINE
8
LINES
10
456.000000
20
395.000000
30
0.0
11
486.000000
21
395.000000
31
0.0
0
LINE
8
LINES
10
392.000000
20
395.000000
30
0.0
11
422.000000
21
395.000000
31
0.0
0
LINE
8
LINES
10
393.000000
20
796.000000
30
0.0
11
422.000000
21
796.000000
31
0.0
0
LINE
8
LINES
10
590.000000
20
220.000000
30
0.0
11
590.000000
21
190.000000
31
0.0
0
LINE
8
LINES
10
307.000000
20
94.000000
30
0.0
11
337.000000
21
94.000000
31
0.0
0
LINE
8
LINES
10
366.000000
20
910.000000
30
0.0
11
396.000000
21
910.000000
31
0.0
0
LINE
8
LINES
10
352.000000
20
190.000000
30
0.0
11
321.000000
21
190.000000
31
0.0
0
LINE
8
LINES
10
467.000000
20
347.000000
30
0.0
11
467.000000
21
377.000000
31
0.0
0
LINE
8
LINES
10
558.000000
20
187.000000
30
0.0
11
529.000000
21
187.000000
31
0.0
0
LINE
8
LINES
10
483.000000
20
187.000000
30
0.0
11
454.000000
21
187.000000
31
0.0
0
LINE
8
LINES
10
241.000000
20
596.000000
30
0.0
11
211.000000
21
596.000000
31
0.0
0
LINE
8
LINES
10
177.000000
20
673.000000
30
0.0
11
206.000000
21
673.000000
31
0.0
0
LINE
8
LINES
10
454.000000
20
377.000000
30
0.0
11
454.000000
21
347.000000
31
0.0
0
LINE
8
LINES
10
262.000000
20
100.000000
30
0.0
11
232.000000
21
100.000000
31
0.0
0
LINE
8
LINES
10
486.000000
20
531.000000
30
0.0
11
486.000000
21
500.000000
31
0.0
0
ENDSEC
0
EOF
