0
SECTION
2
ENTITIES
0
LWPOLYLINE
8
FACADE_OUTLINE
90
4
70
1
10
0.000000
20
0.000000
10
1043.000000
20
0.000000
10
1043.000000
20
583.000000
10
0.000000
20
583.000000
0
LINE
8
LINES
10
4.000000
20
576.000000
30
0.0
11
1036.000000
21
576.000000
31
0.0
0
LINE
8
LINES
10
1036.000000
20
4.000000
30
0.0
11
8.000000
21
4.000000
31
0.0
0
LINE
8
LINES
10
4.000000
20
4.000000
30
0.0
11
4.000000
21
576.000000
31
0.0
0
LINE
8
LINES
10
1036.000000
20
576.000000
30
0.0
11
1036.000000
21
8.000000
31
0.0
0
LINE
8
LINES
10
584.000000
20
380.000000
30
0.0
11
584.000000
21
572.000000
31
0.0
0
LINE
8
LINES
10
576.000000
20
568.000000
30
0.0
11
576.000000
21
384.000000
31
0.0
0
LINE
8
LINES
10
580.000000
20
572.000000
30
0.0
11
440.000000
21
572.000000
31
0.0
0
LINE
8
LINES
10
444.000000
20
568.000000
30
0.0
11
576.000000
21
568.000000
31
0.0
0
LINE
8
LINES
10
440.000000
20
572.000000
30
0.0
11
440.000000
21
456.000000
31
0.0
0
LINE
8
LINES
10
444.000000
20
456.000000
30
0.0
11
444.000000
21
568.000000
31
0.0
0
LINE
8
LINES
10
880.000000
20
312.000000
30
0.0
11
780.000000
21
312.000000
31
0.0
0
LINE
8
LINES
10
64.000000
20
80.000000
30
0.0
11
160.000000
21
80.000000
31
0.0
0
LINE
8
LINES
10
600.000000
20
360.000000
30
0.0
11
700.000000
21
360.000000
31
0.0
0
LINE
8
LINES
10
700.000000
20
312.000000
30
0.0
11
600.000000
21
312.000000
31
0.0
0
LINE
8
LINES
10
700.000000
20
452.000000
30
0.0
11
600.000000
21
452.000000
31
0.0
0
LINE
8
LINES
10
780.000000
20
360.000000
30
0.0
11
880.000000
21
360.000000
31
0.0
0
LINE
8
LINES
10
784.000000
20
220.000000
30
0.0
11
880.000000
21
220.000000
31
0.0
0
LINE
8
LINES
10
340.000000
20
172.000000
30
0.0
11
240.000000
21
172.000000
31
0.0
0
LINE
8
LINES
10
880.000000
20
452.000000
30
0.0
11
780.000000
21
452.000000
31
0.0
0
LINE
8
LINES
10
240.000000
20
216.000000
30
0.0
11
340.000000
21
216.000000
31
0.0
0
LINE
8
LINES
10
520.000000
20
312.000000
30
0.0
11
424.000000
21
312.000000
31
0.0
0
LINE
8
LINES
10
424.000000
20
216.000000
30
0.0
11
520.000000
21
216.000000
31
0.0
0
LINE
8
LINES
10
424.000000
20
360.000000
30
0.0
11
520.000000
21
360.000000
31
0.0
0
LINE
8
LINES
10
160.000000
20
172.000000
30
0.0
11
64.000000
21
172.000000
31
0.0
0
LINE
8
LINES
10
520.000000
20
176.000000
30
0.0
11
424.000000
21
176.000000
31
0.0
0
LINE
8
LINES
10
240.000000
20
80.000000
30
0.0
11
340.000000
21
80.000000
31
0.0
0
LINE
8
LINES
10
64.000000
20
216.000000
30
0.0
11
160.000000
21
216.000000
31
0.0
0
LINE
8
LINES
10
340.000000
20
312.000000
30
0.0
11
240.000000
21
312.000000
31
0.0
0
LINE
8
LINES
10
784.000000
20
80.000000
30
0.0
11
880.000000
21
80.000000
31
0.0
0
LINE
8
LINES
10
240.000000
20
360.000000
30
0.0
11
340.000000
21
360.000000
31
0.0
0
LINE
8
LINES
10
160.000000
20
312.000000
30
0.0
11
64.000000
21
312.000000
31
0.0
0
LINE
8
LINES
10
340.000000
20
452.000000
30
0.0
11
240.000000
21
452.000000
31
0.0
0
LINE
8
LINES
10
600.000000
20
220.000000
30
0.0
11
700.000000
21
220.000000
31
0.0
0
LINE
8
LINES
10
64.000000
20
360.000000
30
0.0
11
160.000000
21
360.000000
31
0.0
0
LINE
8
LINES
10
600.000000
20
80.000000
30
0.0
11
700.000000
21
80.000000
31
0.0
0
LINE
8
LINES
10
160.000000
20
452.000000
30
0.0
11
64.000000
21
452.000000
31
0.0
0
LINE
8
LINES
10
424.000000
20
80.000000
30
0.0
11
520.000000
21
80.000000
31
0.0
0
LINE
8
LINES
10
700.000000
20
176.000000
30
0.0
11
600.000000
21
176.000000
31
0.0
0
LINE
8
LINES
10
880.000000
20
176.000000
30
0.0
11
784.000000
21
176.000000
31
0.0
0
LINE
8
LINES
10
784.000000
20
448.000000
30
0.0
11
876.000000
21
448.000000
31
0.0
0
LINE
8
LINES
10
244.000000
20
168.000000
30
0.0
11
336.000000
21
168.000000
31
0.0
0
LINE
8
LINES
10
336.000000
20
224.000000
30
0.0
11
244.000000
21
224.000000
31
0.0
0
LINE
8
LINES
10
244.000000
20
308.000000
30
0.0
11
336.000000
21
308.000000
31
0.0
0
LINE
8
LINES
10
336.000000
20
84.000000
30
0.0
11
244.000000
21
84.000000
31
0.0
0
LINE
8
LINES
10
64.000000
20
308.000000
30
0.0
11
160.000000
21
308.000000
31
0.0
0
LINE
8
LINES
10
520.000000
20
84.000000
30
0.0
11
424.000000
21
84.000000
31
0.0
0
LINE
8
LINES
10
160.000000
20
84.000000
30
0.0
11
64.000000
21
84.000000
31
0.0
0
LINE
8
LINES
10
696.000000
20
364.000000
30
0.0
11
604.000000
21
364.000000
31
0.0
0
LINE
8
LINES
10
424.000000
20
308.000000
30
0.0
11
516.000000
21
308.000000
31
0.0
0
LINE
8
LINES
10
516.000000
20
224.000000
30
0.0
11
424.000000
21
224.000000
31
0.0
0
LINE
8
LINES
10
604.000000
20
448.000000
30
0.0
11
696.000000
21
448.000000
31
0.0
0
LINE
8
LINES
10
604.000000
20
308.000000
30
0.0
11
696.000000
21
308.000000
31
0.0
0
LINE
8
LINES
10
516.000000
20
364.000000
30
0.0
11
424.000000
21
364.000000
31
0.0
0
LINE
8
LINES
10
64.000000
20
168.000000
30
0.0
11
160.000000
21
168.000000
31
0.0
0
LINE
8
LINES
10
160.000000
20
224.000000
30
0.0
11
64.000000
21
224.000000
31
0.0
0
LINE
8
LINES
10
424.000000
20
168.000000
30
0.0
11
516.000000
21
168.000000
31
0.0
0
LINE
8
LINES
10
876.000000
20
364.000000
30
0.0
11
784.000000
21
364.000000
31
0.0
0
LINE
8
LINES
10
336.000000
20
364.000000
30
0.0
11
244.000000
21
364.000000
31
0.0
0
LINE
8
LINES
10
876.000000
20
84.000000
30
0.0
11
784.000000
21
84.000000
31
0.0
0
LINE
8
LINES
10
696.000000
20
224.000000
30
0.0
11
604.000000
21
224.000000
31
0.0
0
LINE
8
LINES
10
244.000000
20
448.000000
30
0.0
11
336.000000
21
448.000000
31
0.0
0
LINE
8
LINES
10
156.000000
20
364.000000
30
0.0
11
64.000000
21
364.000000
31
0.0
0
LINE
8
LINES
10
784.000000
20
308.000000
30
0.0
11
876.000000
21
308.000000
31
0.0
0
LINE
8
LINES
10
784.000000
20
168.000000
30
0.0
11
876.000000
21
168.000000
31
0.0
0
LINE
8
LINES
10
604.000000
20
168.000000
30
0.0
11
696.000000
21
168.000000
31
0.0
0
LINE
8
LINES
10
64.000000
20
448.000000
30
0.0
11
156.000000
21
448.000000
31
0.0
0
LINE
8
LINES
10
696.000000
20
84.000000
30
0.0
11
604.000000
21
84.000000
31
0.0
0
LINE
8
LINES
10
876.000000
20
224.000000
30
0.0
11
784.000000
21
224.000000
31
0.0
0
LINE
8
LINES
10
164.000000
20
220.000000
30
0.0
11
164.000000
21
312.000000
31
0.0
0
LINE
8
LINES
10
344.000000
20
360.000000
30
0.0
11
344.000000
21
452.000000
31
0.0
0
LINE
8
LINES
10
240.000000
20
452.000000
30
0.0
11
240.000000
21
360.000000
31
0.0
0
LINE
8
LINES
10
416.000000
20
452.000000
30
0.0
11
416.000000
21
360.000000
31
0.0
0
LINE
8
LINES
10
60.000000
20
172.000000
30
0.0
11
60.000000
21
80.000000
31
0.0
0
LINE
8
LINES
10
164.000000
20
360.000000
30
0.0
11
164.000000
21
452.000000
31
0.0
0
LINE
8
LINES
10
600.000000
20
452.000000
30
0.0
11
600.000000
21
360.000000
31
0.0
0
LINE
8
LINES
10
704.000000
20
360.000000
30
0.0
11
704.000000
21
452.000000
31
0.0
0
LINE
8
LINES
10
164.000000
20
80.000000
30
0.0
11
164.000000
21
172.000000
31
0.0
0
LINE
8
LINES
10
240.000000
20
172.000000
30
0.0
11
240.000000
21
80.000000
31
0.0
0
LINE
8
LINES
10
524.000000
20
80.000000
30
0.0
11
524.000000
21
172.000000
31
0.0
0
LINE
8
LINES
10
240.000000
20
312.000000
30
0.0
11
240.000000
21
220.000000
31
0.0
0
LINE
8
LINES
10
884.000000
20
80.000000
30
0.0
11
884.000000
21
172.000000
31
0.0
0
LINE
8
LINES
10
776.000000
20
172.000000
30
0.0
11
776.000000
21
80.000000
31
0.0
0
LINE
8
LINES
10
524.000000
20
224.000000
30
0.0
11
524.000000
21
312.000000
31
0.0
0
LINE
8
LINES
10
600.000000
20
312.000000
30
0.0
11
600.000000
21
224.000000
31
0.0
0
LINE
8
LINES
10
704.000000
20
224.000000
30
0.0
11
704.000000
21
312.000000
31
0.0
0
LINE
8
LINES
10
704.000000
20
80.000000
30
0.0
11
704.000000
21
172.000000
31
0.0
0
LINE
8
LINES
10
416.000000
20
312.000000
30
0.0
11
416.000000
21
224.000000
31
0.0
0
LINE
8
LINES
10
776.000000
20
312.000000
30
0.0
11
776.000000
21
224.000000
31
0.0
0
LINE
8
LINES
10
884.000000
20
224.000000
30
0.0
11
884.000000
21
312.000000
31
0.0
0
LINE
8
LINES
10
600.000000
20
172.000000
30
0.0
11
600.000000
21
80.000000
31
0.0
0
LINE
8
LINES
10
344.000000
20
224.000000
30
0.0
11
344.000000
21
312.000000
31
0.0
0
LINE
8
LINES
10
776.000000
20
452.000000
30
0.0
11
776.000000
21
360.000000
31
0.0
0
LINE
8
LINES
10
56.000000
20
448.000000
30
0.0
11
56.000000
21
360.000000
31
0.0
0
LINE
8
LINES
10
884.000000
20
360.000000
30
0.0
11
884.000000
21
452.000000
31
0.0
0
LINE
8
LINES
10
344.000000
20
80.000000
30
0.0
11
344.000000
21
172.000000
31
0.0
0
LINE
8
LINES
10
420.000000
20
172.000000
30
0.0
11
420.000000
21
80.000000
31
0.0
0
LINE
8
LINES
10
60.000000
20
308.000000
30
0.0
11
60.000000
21
224.000000
31
0.0
0
LINE
8
LINES
10
784.000000
20
84.000000
30
0.0
11
784.000000
21
168.000000
31
0.0
0
LINE
8
LINES
10
880.000000
20
168.000000
30
0.0
11
880.000000
21
84.000000
31
0.0
0
LINE
8
LINES
10
880.000000
20
308.000000
30
0.0
11
880.000000
21
224.000000
31
0.0
0
LINE
8
LINES
10
604.000000
20
84.000000
30
0.0
11
604.000000
21
168.000000
31
0.0
0
LINE
8
LINES
10
64.000000
20
364.000000
30
0.0
11
64.000000
21
448.000000
31
0.0
0
LINE
8
LINES
10
520.000000
20
308.000000
30
0.0
11
520.000000
21
224.000000
31
0.0
0
LINE
8
LINES
10
604.000000
20
224.000000
30
0.0
11
604.000000
21
308.000000
31
0.0
0
LINE
8
LINES
10
336.000000
20
448.000000
30
0.0
11
336.000000
21
364.000000
31
0.0
0
LINE
8
LINES
10
244.000000
20
364.000000
30
0.0
11
244.000000
21
448.000000
31
0.0
0
LINE
8
LINES
10
696.000000
20
308.000000
30
0.0
11
696.000000
21
224.000000
31
0.0
0
LINE
8
LINES
10
424.000000
20
364.000000
30
0.0
11
424.000000
21
448.000000
31
0.0
0
LINE
8
LINES
10
696.000000
20
168.000000
30
0.0
11
696.000000
21
88.000000
31
0.0
0
LINE
8
LINES
10
784.000000
20
224.000000
30
0.0
11
784.000000
21
308.000000
31
0.0
0
LINE
8
LINES
10
424.000000
20
224.000000
30
0.0
11
424.000000
21
308.000000
31
0.0
0
LINE
8
LINES
10
64.000000
20
84.000000
30
0.0
11
64.000000
21
168.000000
31
0.0
0
LINE
8
LINES
10
604.000000
20
364.000000
30
0.0
11
604.000000
21
448.000000
31
0.0
0
LINE
8
LINES
10
160.000000
20
448.000000
30
0.0
11
160.000000
21
364.000000
31
0.0
0
LINE
8
LINES
10
696.000000
20
448.000000
30
0.0
11
696.000000
21
364.000000
31
0.0
0
LINE
8
LINES
10
160.000000
20
168.000000
30
0.0
11
160.000000
21
84.000000
31
0.0
0
LINE
8
LINES
10
336.000000
20
308.000000
30
0.0
11
336.000000
21
224.000000
31
0.0
0
LINE
8
LINES
10
784.000000
20
364.000000
30
0.0
11
784.000000
21
448.000000
31
0.0
0
LINE
8
LINES
10
244.000000
20
84.000000
30
0.0
11
244.000000
21
168.000000
31
0.0
0
LINE
8
LINES
10
880.000000
20
448.000000
30
0.0
11
880.000000
21
364.000000
31
0.0
0
LINE
8
LINES
10
520.000000
20
168.000000
30
0.0
11
520.000000
21
84.000000
31
0.0
0
LINE
8
LINES
10
244.000000
20
224.000000
30
0.0
11
244.000000
21
308.000000
31
0.0
0
LINE
8
LINES
10
64.000000
20
224.000000
30
0.0
11
64.000000
21
308.000000
31
0.0
0
LINE
8
LINES
10
340.000000
20
168.000000
30
0.0
11
340.000000
21
84.000000
31
0.0
0
LINE
8
LINES
10
424.000000
20
84.000000
30
0.0
11
424.000000
21
168.000000
31
0.0
0
LINE
8
LINES
10
160.000000
20
308.000000
30
0.0
11
160.000000
21
224.000000
31
0.0
0
LINE
8
LINES
10
520.000000
20
452.000000
30
0.0
11
444.000000
21
452.000000
31
0.0
0
LINE
8
LINES
10
440.000000
20
376.000000
30
0.0
11
516.000000
21
376.000000
31
0.0
0
LINE
8
LINES
10
516.000000
20
384.000000
30
0.0
11
444.000000
21
384.000000
31
0.0
0
LINE
8
LINES
10
444.000000
20
448.000000
30
0.0
11
516.000000
21
448.000000
31
0.0
0
LINE
8
LINES
10
440.000000
20
448.000000
30
0.0
11
440.000000
21
380.000000
31
0.0
0
LINE
8
LINES
10
524.000000
20
384.000000
30
0.0
11
524.000000
21
452.000000
31
0.0
0
LINE
8
LINES
10
444.000000
20
384.000000
30
0.0
11
444.000000
21
448.000000
31
0.0
0
LINE
8
LINES
10
520.000000
20
448.000000
30
0.0
11
520.000000
21
384.000000
31
0.0
0
LINE
8
LINES
10
524.000000
20
376.000000
30
0.0
11
580.000000
21
376.000000
31
0.0
0
LINE
8
LINES
10
576.000000
20
384.000000
30
0.0
11
524.000000
21
384.000000
31
0.0
0
ENDSEC
0
EOF
