0
SECTION
2
ENTITIES
0
LWPOLYLINE
8
FACADE_OUTLINE
90
4
70
1
10
0.000000
20
0.000000
10
680.000000
20
0.000000
10
680.000000
20
1024.000000
10
0.000000
20
1024.000000
0
LWPOLYLINE
8
WINDOWS
90
4
70
1
10
96.000000
20
252.000000
10
680.000000
20
252.000000
10
680.000000
20
1024.000000
10
96.000000
20
1024.000000
0
LWPOLYLINE
8
WINDOWS
90
4
70
1
10
460.000000
20
308.000000
10
515.000000
20
308.000000
10
515.000000
20
384.000000
10
460.000000
20
384.000000
0
LWPOLYLINE
8
WINDOWS
90
4
70
1
10
542.000000
20
308.000000
10
595.000000
20
308.000000
10
595.000000
20
384.000000
10
542.000000
20
384.000000
0
LWPOLYLINE
8
WINDOWS
90
4
70
1
10
275.000000
20
355.000000
10
521.000000
20
355.000000
10
521.000000
20
451.000000
10
275.000000
20
451.000000
0
LWPOLYLINE
8
WINDOWS
90
4
70
1
10
0.000000
20
371.000000
10
89.000000
20
371.000000
10
89.000000
20
417.000000
10
0.000000
20
417.000000
0
LWPOLYLINE
8
WINDOWS
90
4
70
1
10
0.000000
20
420.000000
10
91.000000
20
420.000000
10
91.000000
20
470.000000
10
0.000000
20
470.000000
0
LWPOLYLINE
8
WINDOWS
90
4
70
1
10
0.000000
20
476.000000
10
464.000000
20
476.000000
10
464.000000
20
1003.000000
10
0.000000
20
1003.000000
0
LWPOLYLINE
8
WINDOWS
90
4
70
1
10
380.000000
20
628.000000
10
462.000000
20
628.000000
10
462.000000
20
689.000000
10
380.000000
20
689.000000
0
LWPOLYLINE
8
WINDOWS
90
4
70
1
10
214.000000
20
670.000000
10
291.000000
20
670.000000
10
291.000000
20
734.000000
10
214.000000
20
734.000000
0
LWPOLYLINE
8
WINDOWS
90
4
70
1
10
212.000000
20
737.000000
10
294.000000
20
737.000000
10
294.000000
20
822.000000
10
212.000000
20
822.000000
0
LWPOLYLINE
8
WINDOWS
90
4
70
1
10
48.000000
20
774.000000
10
206.000000
20
774.000000
10
206.000000
20
910.000000
10
48.000000
20
910.000000
0
LWPOLYLINE
8
WINDOWS
90
4
70
1
10
545.000000
20
908.000000
10
585.000000
20
908.000000
10
585.000000
20
950.000000
10
545.000000
20
950.000000
0
LWPOLYLINE
8
DOORS
90
4
70
1
10
627.000000
20
761.000000
10
675.000000
20
761.000000
10
675.000000
20
851.000000
10
627.000000
20
851.000000
0
LWPOLYLINE
8
DOORS
90
4
70
1
10
625.000000
20
867.000000
10
654.000000
20
867.000000
10
654.000000
20
960.000000
10
625.000000
20
960.000000
0
LINE
8
LINES
10
641.000000
20
56.000000
30
0.0
11
102.000000
21
56.000000
31
0.0
0
LINE
8
LINES
10
102.000000
20
70.000000
30
0.0
11
638.000000
21
70.000000
31
0.0
0
LINE
8
LINES
10
102.000000
20
238.000000
30
0.0
11
627.000000
21
238.000000
31
0.0
0
LINE
8
LINES
10
627.000000
20
238.000000
30
0.0
11
102.000000
21
238.000000
31
0.0
0
LINE
8
LINES
10
105.000000
20
244.000000
30
0.0
11
627.000000
21
244.000000
31
0.0
0
LINE
8
LINES
10
617.000000
20
105.000000
30
0.0
11
100.000000
21
105.000000
31
0.0
0
LINE
8
LINES
10
163.000000
20
49.000000
30
0.0
11
643.000000
21
49.000000
31
0.0
0
LINE
8
LINES
10
132.000000
20
64.000000
30
0.0
11
601.000000
21
64.000000
31
0.0
0
LINE
8
LINES
10
553.000000
20
248.000000
30
0.0
11
107.000000
21
248.000000
31
0.0
0
LINE
8
LINES
10
211.000000
20
590.000000
30
0.0
11
211.000000
21
916.000000
31
0.0
0
LINE
8
LINES
10
1.000000
20
483.000000
30
0.0
11
33.000000
21
806.000000
31
0.0
0
LINE
8
LINES
10
212.000000
20
918.000000
30
0.0
11
531.000000
21
918.000000
31
0.0
0
LINE
8
LINES
10
214.000000
20
878.000000
30
0.0
11
531.000000
21
878.000000
31
0.0
0
LINE
8
LINES
10
528.000000
20
924.000000
30
0.0
11
212.000000
21
924.000000
31
0.0
0
LINE
8
LINES
10
526.000000
20
875.000000
30
0.0
11
214.000000
21
875.000000
31
0.0
0
LINE
8
LINES
10
622.000000
20
550.000000
30
0.0
11
622.000000
21
257.000000
31
0.0
0
LINE
8
LINES
10
113.000000
20
108.000000
30
0.0
11
403.000000
21
108.000000
31
0.0
0
LINE
8
LINES
10
624.000000
20
257.000000
30
0.0
11
336.000000
21
257.000000
31
0.0
0
LINE
8
LINES
10
627.000000
20
1003.000000
30
0.0
11
678.000000
21
736.000000
31
0.0
0
LINE
8
LINES
10
633.000000
20
51.000000
30
0.0
11
363.000000
21
51.000000
31
0.0
0
LINE
8
LINES
10
204.000000
20
1009.000000
30
0.0
11
451.000000
21
1009.000000
31
0.0
0
LINE
8
LINES
10
286.000000
20
393.000000
30
0.0
11
521.000000
21
393.000000
31
0.0
0
LINE
8
LINES
10
516.000000
20
401.000000
30
0.0
11
289.000000
21
401.000000
31
0.0
0
LINE
8
LINES
10
97.000000
20
550.000000
30
0.0
11
97.000000
21
328.000000
31
0.0
0
LINE
8
LINES
10
336.000000
20
254.000000
30
0.0
11
553.000000
21
254.000000
31
0.0
0
LINE
8
LINES
10
104.000000
20
256.000000
30
0.0
11
321.000000
21
256.000000
31
0.0
0
LINE
8
LINES
10
321.000000
20
259.000000
30
0.0
11
105.000000
21
259.000000
31
0.0
0
LINE
8
LINES
10
628.000000
20
956.000000
30
0.0
11
425.000000
21
956.000000
31
0.0
0
LINE
8
LINES
10
212.000000
20
873.000000
30
0.0
11
416.000000
21
873.000000
31
0.0
0
LINE
8
LINES
10
424.000000
20
977.000000
30
0.0
11
611.000000
21
977.000000
31
0.0
0
LINE
8
LINES
10
286.000000
20
566.000000
30
0.0
11
468.000000
21
566.000000
31
0.0
0
LINE
8
LINES
10
100.000000
20
104.000000
30
0.0
11
278.000000
21
104.000000
31
0.0
0
LINE
8
LINES
10
448.000000
20
760.000000
30
0.0
11
625.000000
21
760.000000
31
0.0
0
LINE
8
LINES
10
446.000000
20
598.000000
30
0.0
11
624.000000
21
598.000000
31
0.0
0
LINE
8
LINES
10
470.000000
20
574.000000
30
0.0
11
294.000000
21
574.000000
31
0.0
0
LINE
8
LINES
10
627.000000
20
756.000000
30
0.0
11
451.000000
21
756.000000
31
0.0
0
LINE
8
LINES
10
622.000000
20
606.000000
30
0.0
11
448.000000
21
606.000000
31
0.0
0
LINE
8
LINES
10
291.000000
20
524.000000
30
0.0
11
462.000000
21
524.000000
31
0.0
0
LINE
8
LINES
10
289.000000
20
577.000000
30
0.0
11
460.000000
21
577.000000
31
0.0
0
LINE
8
LINES
10
457.000000
20
748.000000
30
0.0
11
627.000000
21
748.000000
31
0.0
0
LINE
8
LINES
10
454.000000
20
588.000000
30
0.0
11
624.000000
21
588.000000
31
0.0
0
LINE
8
LINES
10
289.000000
20
747.000000
30
0.0
11
457.000000
21
747.000000
31
0.0
0
LINE
8
LINES
10
291.000000
20
406.000000
30
0.0
11
459.000000
21
406.000000
31
0.0
0
LINE
8
LINES
10
620.000000
20
257.000000
30
0.0
11
620.000000
21
427.000000
31
0.0
0
LINE
8
LINES
10
625.000000
20
1006.000000
30
0.0
11
457.000000
21
1006.000000
31
0.0
0
LINE
8
LINES
10
628.000000
20
588.000000
30
0.0
11
628.000000
21
756.000000
31
0.0
0
LINE
8
LINES
10
459.000000
20
552.000000
30
0.0
11
624.000000
21
552.000000
31
0.0
0
LINE
8
LINES
10
296.000000
20
531.000000
30
0.0
11
459.000000
21
531.000000
31
0.0
0
LINE
8
LINES
10
622.000000
20
595.000000
30
0.0
11
459.000000
21
595.000000
31
0.0
0
LINE
8
LINES
10
457.000000
20
120.000000
30
0.0
11
616.000000
21
120.000000
31
0.0
0
LINE
8
LINES
10
286.000000
20
121.000000
30
0.0
11
443.000000
21
121.000000
31
0.0
0
LINE
8
LINES
10
116.000000
20
121.000000
30
0.0
11
273.000000
21
121.000000
31
0.0
0
LINE
8
LINES
10
627.000000
20
430.000000
30
0.0
11
627.000000
21
587.000000
31
0.0
0
LINE
8
LINES
10
468.000000
20
1022.000000
30
0.0
11
624.000000
21
1022.000000
31
0.0
0
LINE
8
LINES
10
305.000000
20
696.000000
30
0.0
11
457.000000
21
696.000000
31
0.0
0
LINE
8
LINES
10
616.000000
20
553.000000
30
0.0
11
462.000000
21
553.000000
31
0.0
0
LINE
8
LINES
10
51.000000
20
1004.000000
30
0.0
11
201.000000
21
1004.000000
31
0.0
0
LINE
8
LINES
10
211.000000
20
820.000000
30
0.0
11
211.000000
21
670.000000
31
0.0
0
LINE
8
LINES
10
473.000000
20
558.000000
30
0.0
11
622.000000
21
558.000000
31
0.0
0
LINE
8
LINES
10
211.000000
20
971.000000
30
0.0
11
211.000000
21
822.000000
31
0.0
0
LINE
8
LINES
10
473.000000
20
108.000000
30
0.0
11
617.000000
21
108.000000
31
0.0
0
LINE
8
LINES
10
329.000000
20
1001.000000
30
0.0
11
462.000000
21
1001.000000
31
0.0
0
LINE
8
LINES
10
593.000000
20
726.000000
30
0.0
11
460.000000
21
726.000000
31
0.0
0
LINE
8
LINES
10
491.000000
20
94.000000
30
0.0
11
622.000000
21
94.000000
31
0.0
0
LINE
8
LINES
10
556.000000
20
793.000000
30
0.0
11
427.000000
21
793.000000
31
0.0
0
LINE
8
LINES
10
481.000000
20
900.000000
30
0.0
11
355.000000
21
900.000000
31
0.0
0
LINE
8
LINES
10
337.000000
20
881.000000
30
0.0
11
214.000000
21
881.000000
31
0.0
0
LINE
8
LINES
10
462.000000
20
569.000000
30
0.0
11
342.000000
21
569.000000
31
0.0
0
LINE
8
LINES
10
339.000000
20
355.000000
30
0.0
11
457.000000
21
355.000000
31
0.0
0
LINE
8
LINES
10
99.000000
20
553.000000
30
0.0
11
216.000000
21
553.000000
31
0.0
0
LINE
8
LINES
10
97.000000
20
588.000000
30
0.0
11
211.000000
21
588.000000
31
0.0
0
LINE
8
LINES
10
214.000000
20
555.000000
30
0.0
11
100.000000
21
555.000000
31
0.0
0
LINE
8
LINES
10
100.000000
20
558.000000
30
0.0
11
212.000000
21
558.000000
31
0.0
0
LINE
8
LINES
10
100.000000
20
598.000000
30
0.0
11
209.000000
21
598.000000
31
0.0
0
LINE
8
LINES
10
513.000000
20
777.000000
30
0.0
11
622.000000
21
777.000000
31
0.0
0
LINE
8
LINES
10
209.000000
20
593.000000
30
0.0
11
100.000000
21
593.000000
31
0.0
0
LINE
8
LINES
10
622.000000
20
780.000000
30
0.0
11
513.000000
21
780.000000
31
0.0
0
LINE
8
LINES
10
627.000000
20
291.000000
30
0.0
11
627.000000
21
398.000000
31
0.0
0
LINE
8
LINES
10
209.000000
20
606.000000
30
0.0
11
102.000000
21
606.000000
31
0.0
0
LINE
8
LINES
10
100.000000
20
750.000000
30
0.0
11
206.000000
21
750.000000
31
0.0
0
LINE
8
LINES
10
630.000000
20
128.000000
30
0.0
11
630.000000
21
233.000000
31
0.0
0
LINE
8
LINES
10
97.000000
20
918.000000
30
0.0
11
201.000000
21
918.000000
31
0.0
0
LINE
8
LINES
10
97.000000
20
878.000000
30
0.0
11
201.000000
21
878.000000
31
0.0
0
LINE
8
LINES
10
100.000000
20
760.000000
30
0.0
11
204.000000
21
760.000000
31
0.0
0
LINE
8
LINES
10
99.000000
20
72.000000
30
0.0
11
0.000000
21
94.000000
31
0.0
0
LINE
8
LINES
10
203.000000
20
792.000000
30
0.0
11
100.000000
21
792.000000
31
0.0
0
LINE
8
LINES
10
201.000000
20
876.000000
30
0.0
11
99.000000
21
876.000000
31
0.0
0
LINE
8
LINES
10
201.000000
20
924.000000
30
0.0
11
99.000000
21
924.000000
31
0.0
0
LINE
8
LINES
10
204.000000
20
755.000000
30
0.0
11
102.000000
21
755.000000
31
0.0
0
LINE
8
LINES
10
49.000000
20
988.000000
30
0.0
11
150.000000
21
988.000000
31
0.0
0
LINE
8
LINES
10
100.000000
20
718.000000
30
0.0
11
201.000000
21
718.000000
31
0.0
0
LINE
8
LINES
10
1.000000
20
249.000000
30
0.0
11
97.000000
21
249.000000
31
0.0
0
LINE
8
LINES
10
1.000000
20
156.000000
30
0.0
11
97.000000
21
156.000000
31
0.0
0
LINE
8
LINES
10
1.000000
20
265.000000
30
0.0
11
97.000000
21
265.000000
31
0.0
0
LINE
8
LINES
10
1.000000
20
120.000000
30
0.0
11
97.000000
21
120.000000
31
0.0
0
LINE
8
LINES
10
97.000000
20
270.000000
30
0.0
11
1.000000
21
270.000000
31
0.0
0
LINE
8
LINES
10
97.000000
20
252.000000
30
0.0
11
1.000000
21
252.000000
31
0.0
0
LINE
8
LINES
10
97.000000
20
152.000000
30
0.0
11
1.000000
21
152.000000
31
0.0
0
LINE
8
LINES
10
97.000000
20
259.000000
30
0.0
11
1.000000
21
259.000000
31
0.0
0
LINE
8
LINES
10
1.000000
20
254.000000
30
0.0
11
97.000000
21
254.000000
31
0.0
0
LINE
8
LINES
10
1.000000
20
144.000000
30
0.0
11
92.000000
21
144.000000
31
0.0
0
LINE
8
LINES
10
208.000000
20
113.000000
30
0.0
11
115.000000
21
113.000000
31
0.0
0
LINE
8
LINES
10
532.000000
20
875.000000
30
0.0
11
622.000000
21
875.000000
31
0.0
0
LINE
8
LINES
10
625.000000
20
232.000000
30
0.0
11
625.000000
21
142.000000
31
0.0
0
LINE
8
LINES
10
467.000000
20
956.000000
30
0.0
11
380.000000
21
971.000000
31
0.0
0
LINE
8
LINES
10
507.000000
20
881.000000
30
0.0
11
419.000000
21
881.000000
31
0.0
0
LINE
8
LINES
10
86.000000
20
414.000000
30
0.0
11
1.000000
21
414.000000
31
0.0
0
LINE
8
LINES
10
128.000000
20
881.000000
30
0.0
11
41.000000
21
881.000000
31
0.0
0
LINE
8
LINES
10
1.000000
20
371.000000
30
0.0
11
86.000000
21
371.000000
31
0.0
0
LINE
8
LINES
10
99.000000
20
462.000000
30
0.0
11
99.000000
21
548.000000
31
0.0
0
LINE
8
LINES
10
1.000000
20
420.000000
30
0.0
11
86.000000
21
420.000000
31
0.0
0
LINE
8
LINES
10
198.000000
20
126.000000
30
0.0
11
284.000000
21
126.000000
31
0.0
0
LINE
8
LINES
10
9.000000
20
540.000000
30
0.0
11
92.000000
21
540.000000
31
0.0
0
LINE
8
LINES
10
1.000000
20
379.000000
30
0.0
11
83.000000
21
379.000000
31
0.0
0
LINE
8
LINES
10
675.000000
20
542.000000
30
0.0
11
675.000000
21
459.000000
31
0.0
0
LINE
8
LINES
10
385.000000
20
104.000000
30
0.0
11
467.000000
21
104.000000
31
0.0
0
LINE
8
LINES
10
12.000000
20
577.000000
30
0.0
11
94.000000
21
577.000000
31
0.0
0
LINE
8
LINES
10
94.000000
20
582.000000
30
0.0
11
14.000000
21
582.000000
31
0.0
0
LINE
8
LINES
10
622.000000
20
723.000000
30
0.0
11
542.000000
21
723.000000
31
0.0
0
LINE
8
LINES
10
601.000000
20
91.000000
30
0.0
11
523.000000
21
91.000000
31
0.0
0
LINE
8
LINES
10
228.000000
20
982.000000
30
0.0
11
307.000000
21
982.000000
31
0.0
0
LINE
8
LINES
10
38.000000
20
878.000000
30
0.0
11
38.000000
21
956.000000
31
0.0
0
LINE
8
LINES
10
292.000000
20
793.000000
30
0.0
11
216.000000
21
793.000000
31
0.0
0
LINE
8
LINES
10
345.000000
20
91.000000
30
0.0
11
268.000000
21
91.000000
31
0.0
0
LINE
8
LINES
10
14.000000
20
585.000000
30
0.0
11
92.000000
21
585.000000
31
0.0
0
LINE
8
LINES
10
619.000000
20
561.000000
30
0.0
11
542.000000
21
561.000000
31
0.0
0
LINE
8
LINES
10
417.000000
20
881.000000
30
0.0
11
340.000000
21
881.000000
31
0.0
0
LINE
8
LINES
10
86.000000
20
371.000000
30
0.0
11
86.000000
21
446.000000
31
0.0
0
LINE
8
LINES
10
129.000000
20
793.000000
30
0.0
11
129.000000
21
868.000000
31
0.0
0
LINE
8
LINES
10
454.000000
20
278.000000
30
0.0
11
529.000000
21
278.000000
31
0.0
0
LINE
8
LINES
10
115.000000
20
281.000000
30
0.0
11
190.000000
21
281.000000
31
0.0
0
LINE
8
LINES
10
537.000000
20
278.000000
30
0.0
11
612.000000
21
278.000000
31
0.0
0
LINE
8
LINES
10
201.000000
20
721.000000
30
0.0
11
126.000000
21
721.000000
31
0.0
0
LINE
8
LINES
10
272.000000
20
124.000000
30
0.0
11
196.000000
21
124.000000
31
0.0
0
LINE
8
LINES
10
286.000000
20
280.000000
30
0.0
11
361.000000
21
280.000000
31
0.0
0
LINE
8
LINES
10
542.000000
20
718.000000
30
0.0
11
616.000000
21
718.000000
31
0.0
0
LINE
8
LINES
10
614.000000
20
120.000000
30
0.0
11
540.000000
21
120.000000
31
0.0
0
LINE
8
LINES
10
606.000000
20
873.000000
30
0.0
11
532.000000
21
873.000000
31
0.0
0
LINE
8
LINES
10
361.000000
20
123.000000
30
0.0
11
286.000000
21
123.000000
31
0.0
0
LINE
8
LINES
10
70.000000
20
878.000000
30
0.0
11
70.000000
21
803.000000
31
0.0
0
LINE
8
LINES
10
99.000000
20
302.000000
30
0.0
11
99.000000
21
377.000000
31
0.0
0
LINE
8
LINES
10
368.000000
20
278.000000
30
0.0
11
441.000000
21
278.000000
31
0.0
0
LINE
8
LINES
10
65.000000
20
806.000000
30
0.0
11
65.000000
21
878.000000
31
0.0
0
LINE
8
LINES
10
505.000000
20
318.000000
30
0.0
11
505.000000
21
390.000000
31
0.0
0
LINE
8
LINES
10
587.000000
20
316.000000
30
0.0
11
587.000000
21
388.000000
31
0.0
0
LINE
8
LINES
10
412.000000
20
868.000000
30
0.0
11
412.000000
21
796.000000
31
0.0
0
LINE
8
LINES
10
366.000000
20
528.000000
30
0.0
11
292.000000
21
528.000000
31
0.0
0
LINE
8
LINES
10
190.000000
20
124.000000
30
0.0
11
118.000000
21
124.000000
31
0.0
0
LINE
8
LINES
10
172.000000
20
899.000000
30
0.0
11
100.000000
21
899.000000
31
0.0
0
LINE
8
LINES
10
526.000000
20
284.000000
30
0.0
11
454.000000
21
284.000000
31
0.0
0
LINE
8
LINES
10
531.000000
20
121.000000
30
0.0
11
459.000000
21
121.000000
31
0.0
0
LINE
8
LINES
10
438.000000
20
124.000000
30
0.0
11
368.000000
21
124.000000
31
0.0
0
LINE
8
LINES
10
131.000000
20
897.000000
30
0.0
11
201.000000
21
897.000000
31
0.0
0
LINE
8
LINES
10
198.000000
20
281.000000
30
0.0
11
268.000000
21
281.000000
31
0.0
0
LINE
8
LINES
10
441.000000
20
534.000000
30
0.0
11
371.000000
21
534.000000
31
0.0
0
LINE
8
LINES
10
606.000000
20
284.000000
30
0.0
11
537.000000
21
284.000000
31
0.0
0
LINE
8
LINES
10
188.000000
20
286.000000
30
0.0
11
118.000000
21
286.000000
31
0.0
0
LINE
8
LINES
10
457.000000
20
131.000000
30
0.0
11
526.000000
21
131.000000
31
0.0
0
LINE
8
LINES
10
198.000000
20
131.000000
30
0.0
11
268.000000
21
131.000000
31
0.0
0
LINE
8
LINES
10
203.000000
20
881.000000
30
0.0
11
132.000000
21
881.000000
31
0.0
0
LINE
8
LINES
10
537.000000
20
870.000000
30
0.0
11
606.000000
21
870.000000
31
0.0
0
LINE
8
LINES
10
268.000000
20
129.000000
30
0.0
11
198.000000
21
129.000000
31
0.0
0
LINE
8
LINES
10
118.000000
20
132.000000
30
0.0
11
188.000000
21
132.000000
31
0.0
0
LINE
8
LINES
10
539.000000
20
129.000000
30
0.0
11
608.000000
21
129.000000
31
0.0
0
LINE
8
LINES
10
268.000000
20
286.000000
30
0.0
11
198.000000
21
286.000000
31
0.0
0
LINE
8
LINES
10
188.000000
20
129.000000
30
0.0
11
118.000000
21
129.000000
31
0.0
0
LINE
8
LINES
10
438.000000
20
284.000000
30
0.0
11
369.000000
21
284.000000
31
0.0
0
LINE
8
LINES
10
134.000000
20
873.000000
30
0.0
11
201.000000
21
873.000000
31
0.0
0
LINE
8
LINES
10
289.000000
20
131.000000
30
0.0
11
356.000000
21
131.000000
31
0.0
0
LINE
8
LINES
10
369.000000
20
131.000000
30
0.0
11
436.000000
21
131.000000
31
0.0
0
LINE
8
LINES
10
526.000000
20
128.000000
30
0.0
11
459.000000
21
128.000000
31
0.0
0
LINE
8
LINES
10
356.000000
20
129.000000
30
0.0
11
289.000000
21
129.000000
31
0.0
0
LINE
8
LINES
10
608.000000
20
126.000000
30
0.0
11
540.000000
21
126.000000
31
0.0
0
LINE
8
LINES
10
436.000000
20
129.000000
30
0.0
11
369.000000
21
129.000000
31
0.0
0
LINE
8
LINES
10
616.000000
20
414.000000
30
0.0
11
616.000000
21
347.000000
31
0.0
0
LINE
8
LINES
10
497.000000
20
713.000000
30
0.0
11
563.000000
21
713.000000
31
0.0
0
LINE
8
LINES
10
16.000000
20
297.000000
30
0.0
11
81.000000
21
297.000000
31
0.0
0
LINE
8
LINES
10
83.000000
20
374.000000
30
0.0
11
17.000000
21
374.000000
31
0.0
0
LINE
8
LINES
10
198.000000
20
292.000000
30
0.0
11
265.000000
21
292.000000
31
0.0
0
LINE
8
LINES
10
216.000000
20
760.000000
30
0.0
11
281.000000
21
760.000000
31
0.0
0
LINE
8
LINES
10
368.000000
20
291.000000
30
0.0
11
433.000000
21
291.000000
31
0.0
0
LINE
8
LINES
10
216.000000
20
716.000000
30
0.0
11
281.000000
21
716.000000
31
0.0
0
LINE
8
LINES
10
353.000000
20
286.000000
30
0.0
11
288.000000
21
286.000000
31
0.0
0
LINE
8
LINES
10
481.000000
20
91.000000
30
0.0
11
416.000000
21
91.000000
31
0.0
0
LINE
8
LINES
10
539.000000
20
392.000000
30
0.0
11
604.000000
21
392.000000
31
0.0
0
LINE
8
LINES
10
278.000000
20
899.000000
30
0.0
11
214.000000
21
899.000000
31
0.0
0
LINE
8
LINES
10
537.000000
20
291.000000
30
0.0
11
603.000000
21
291.000000
31
0.0
0
LINE
8
LINES
10
457.000000
20
291.000000
30
0.0
11
523.000000
21
291.000000
31
0.0
0
LINE
8
LINES
10
289.000000
20
291.000000
30
0.0
11
353.000000
21
291.000000
31
0.0
0
LINE
8
LINES
10
281.000000
20
721.000000
30
0.0
11
216.000000
21
721.000000
31
0.0
0
LINE
8
LINES
10
65.000000
20
177.000000
30
0.0
11
65.000000
21
241.000000
31
0.0
0
LINE
8
LINES
10
67.000000
20
385.000000
30
0.0
11
3.000000
21
385.000000
31
0.0
0
LINE
8
LINES
10
299.000000
20
700.000000
30
0.0
11
363.000000
21
700.000000
31
0.0
0
LINE
8
LINES
10
217.000000
20
598.000000
30
0.0
11
281.000000
21
598.000000
31
0.0
0
LINE
8
LINES
10
139.000000
20
790.000000
30
0.0
11
203.000000
21
790.000000
31
0.0
0
LINE
8
LINES
10
278.000000
20
768.000000
30
0.0
11
216.000000
21
768.000000
31
0.0
0
LINE
8
LINES
10
505.000000
20
868.000000
30
0.0
11
505.000000
21
806.000000
31
0.0
0
LINE
8
LINES
10
497.000000
20
620.000000
30
0.0
11
558.000000
21
620.000000
31
0.0
0
LINE
8
LINES
10
123.000000
20
292.000000
30
0.0
11
185.000000
21
292.000000
31
0.0
0
LINE
8
LINES
10
620.000000
20
163.000000
30
0.0
11
620.000000
21
227.000000
31
0.0
0
LINE
8
LINES
10
121.000000
20
395.000000
30
0.0
11
182.000000
21
395.000000
31
0.0
0
LINE
8
LINES
10
81.000000
20
300.000000
30
0.0
11
17.000000
21
300.000000
31
0.0
0
LINE
8
LINES
10
462.000000
20
403.000000
30
0.0
11
430.000000
21
456.000000
31
0.0
0
LINE
8
LINES
10
339.000000
20
166.000000
30
0.0
11
339.000000
21
227.000000
31
0.0
0
LINE
8
LINES
10
622.000000
20
793.000000
30
0.0
11
561.000000
21
793.000000
31
0.0
0
LINE
8
LINES
10
278.000000
20
608.000000
30
0.0
11
217.000000
21
608.000000
31
0.0
0
LINE
8
LINES
10
675.000000
20
702.000000
30
0.0
11
675.000000
21
641.000000
31
0.0
0
LINE
8
LINES
10
27.000000
20
710.000000
30
0.0
11
86.000000
21
710.000000
31
0.0
0
LINE
8
LINES
10
566.000000
20
713.000000
30
0.0
11
625.000000
21
713.000000
31
0.0
0
LINE
8
LINES
10
417.000000
20
166.000000
30
0.0
11
417.000000
21
225.000000
31
0.0
0
LINE
8
LINES
10
28.000000
20
745.000000
30
0.0
11
89.000000
21
745.000000
31
0.0
0
LINE
8
LINES
10
216.000000
20
750.000000
30
0.0
11
275.000000
21
750.000000
31
0.0
0
LINE
8
LINES
10
601.000000
20
395.000000
30
0.0
11
540.000000
21
395.000000
31
0.0
0
LINE
8
LINES
10
420.000000
20
897.000000
30
0.0
11
481.000000
21
897.000000
31
0.0
0
LINE
8
LINES
10
276.000000
20
593.000000
30
0.0
11
217.000000
21
593.000000
31
0.0
0
LINE
8
LINES
10
409.000000
20
961.000000
30
0.0
11
468.000000
21
953.000000
31
0.0
0
LINE
8
LINES
10
217.000000
20
552.000000
30
0.0
11
276.000000
21
552.000000
31
0.0
0
LINE
8
LINES
10
216.000000
20
588.000000
30
0.0
11
273.000000
21
588.000000
31
0.0
0
LINE
8
LINES
10
86.000000
20
716.000000
30
0.0
11
27.000000
21
716.000000
31
0.0
0
LINE
8
LINES
10
17.000000
20
305.000000
30
0.0
11
76.000000
21
305.000000
31
0.0
0
LINE
8
LINES
10
65.000000
20
648.000000
30
0.0
11
65.000000
21
707.000000
31
0.0
0
LINE
8
LINES
10
89.000000
20
750.000000
30
0.0
11
30.000000
21
750.000000
31
0.0
0
LINE
8
LINES
10
260.000000
20
300.000000
30
0.0
11
201.000000
21
300.000000
31
0.0
0
LINE
8
LINES
10
553.000000
20
622.000000
30
0.0
11
494.000000
21
622.000000
31
0.0
0
LINE
8
LINES
10
204.000000
20
768.000000
30
0.0
11
145.000000
21
768.000000
31
0.0
0
LINE
8
LINES
10
273.000000
20
755.000000
30
0.0
11
216.000000
21
755.000000
31
0.0
0
LINE
8
LINES
10
201.000000
20
395.000000
30
0.0
11
259.000000
21
395.000000
31
0.0
0
LINE
8
LINES
10
30.000000
20
755.000000
30
0.0
11
88.000000
21
755.000000
31
0.0
0
LINE
8
LINES
10
566.000000
20
252.000000
30
0.0
11
624.000000
21
252.000000
31
0.0
0
LINE
8
LINES
10
596.000000
20
403.000000
30
0.0
11
539.000000
21
403.000000
31
0.0
0
LINE
8
LINES
10
278.000000
20
555.000000
30
0.0
11
220.000000
21
555.000000
31
0.0
0
LINE
8
LINES
10
259.000000
20
398.000000
30
0.0
11
201.000000
21
398.000000
31
0.0
0
LINE
8
LINES
10
182.000000
20
396.000000
30
0.0
11
124.000000
21
396.000000
31
0.0
0
LINE
8
LINES
10
337.000000
20
1001.000000
30
0.0
11
387.000000
21
972.000000
31
0.0
0
LINE
8
LINES
10
166.000000
20
947.000000
30
0.0
11
166.000000
21
1003.000000
31
0.0
0
LINE
8
LINES
10
542.000000
20
161.000000
30
0.0
11
598.000000
21
161.000000
31
0.0
0
LINE
8
LINES
10
468.000000
20
872.000000
30
0.0
11
526.000000
21
872.000000
31
0.0
0
LINE
8
LINES
10
41.000000
20
86.000000
30
0.0
11
97.000000
21
86.000000
31
0.0
0
LINE
8
LINES
10
598.000000
20
299.000000
30
0.0
11
542.000000
21
299.000000
31
0.0
0
LINE
8
LINES
10
366.000000
20
534.000000
30
0.0
11
310.000000
21
534.000000
31
0.0
0
LINE
8
LINES
10
457.000000
20
716.000000
30
0.0
11
513.000000
21
716.000000
31
0.0
0
LINE
8
LINES
10
515.000000
20
726.000000
30
0.0
11
459.000000
21
726.000000
31
0.0
0
LINE
8
LINES
10
416.000000
20
798.000000
30
0.0
11
416.000000
21
854.000000
31
0.0
0
LINE
8
LINES
10
542.000000
20
398.000000
30
0.0
11
598.000000
21
398.000000
31
0.0
0
LINE
8
LINES
10
403.000000
20
91.000000
30
0.0
11
348.000000
21
91.000000
31
0.0
0
LINE
8
LINES
10
372.000000
20
161.000000
30
0.0
11
428.000000
21
161.000000
31
0.0
0
LINE
8
LINES
10
73.000000
20
548.000000
30
0.0
11
19.000000
21
548.000000
31
0.0
0
LINE
8
LINES
10
542.000000
20
316.000000
30
0.0
11
596.000000
21
316.000000
31
0.0
0
LINE
8
LINES
10
124.000000
20
398.000000
30
0.0
11
179.000000
21
398.000000
31
0.0
0
LINE
8
LINES
10
428.000000
20
299.000000
30
0.0
11
372.000000
21
299.000000
31
0.0
0
LINE
8
LINES
10
596.000000
20
867.000000
30
0.0
11
542.000000
21
867.000000
31
0.0
0
LINE
8
LINES
10
428.000000
20
142.000000
30
0.0
11
374.000000
21
142.000000
31
0.0
0
LINE
8
LINES
10
259.000000
20
403.000000
30
0.0
11
206.000000
21
403.000000
31
0.0
0
LINE
8
LINES
10
180.000000
20
144.000000
30
0.0
11
126.000000
21
144.000000
31
0.0
0
LINE
8
LINES
10
542.000000
20
952.000000
30
0.0
11
542.000000
21
897.000000
31
0.0
0
LINE
8
LINES
10
459.000000
20
316.000000
30
0.0
11
513.000000
21
316.000000
31
0.0
0
LINE
8
LINES
10
41.000000
20
886.000000
30
0.0
11
96.000000
21
886.000000
31
0.0
0
LINE
8
LINES
10
177.000000
20
300.000000
30
0.0
11
124.000000
21
300.000000
31
0.0
0
LINE
8
LINES
10
504.000000
20
796.000000
30
0.0
11
504.000000
21
851.000000
31
0.0
0
LINE
8
LINES
10
513.000000
20
716.000000
30
0.0
11
459.000000
21
716.000000
31
0.0
0
LINE
8
LINES
10
441.000000
20
528.000000
30
0.0
11
387.000000
21
528.000000
31
0.0
0
LINE
8
LINES
10
179.000000
20
715.000000
30
0.0
11
126.000000
21
715.000000
31
0.0
0
LINE
8
LINES
10
259.000000
20
142.000000
30
0.0
11
206.000000
21
142.000000
31
0.0
0
LINE
8
LINES
10
590.000000
20
900.000000
30
0.0
11
590.000000
21
953.000000
31
0.0
0
LINE
8
LINES
10
595.000000
20
140.000000
30
0.0
11
542.000000
21
140.000000
31
0.0
0
LINE
8
LINES
10
177.000000
20
403.000000
30
0.0
11
126.000000
21
403.000000
31
0.0
0
LINE
8
LINES
10
97.000000
20
931.000000
30
0.0
11
46.000000
21
931.000000
31
0.0
0
LINE
8
LINES
10
593.000000
20
716.000000
30
0.0
11
542.000000
21
716.000000
31
0.0
0
LINE
8
LINES
10
628.000000
20
796.000000
30
0.0
11
628.000000
21
849.000000
31
0.0
0
LINE
8
LINES
10
500.000000
20
625.000000
30
0.0
11
553.000000
21
625.000000
31
0.0
0
LINE
8
LINES
10
206.000000
20
907.000000
30
0.0
11
206.000000
21
958.000000
31
0.0
0
LINE
8
LINES
10
294.000000
20
316.000000
30
0.0
11
345.000000
21
316.000000
31
0.0
0
LINE
8
LINES
10
206.000000
20
318.000000
30
0.0
11
257.000000
21
318.000000
31
0.0
0
LINE
8
LINES
10
177.000000
20
561.000000
30
0.0
11
126.000000
21
561.000000
31
0.0
0
LINE
8
LINES
10
206.000000
20
400.000000
30
0.0
11
257.000000
21
400.000000
31
0.0
0
LINE
8
LINES
10
617.000000
20
110.000000
30
0.0
11
566.000000
21
110.000000
31
0.0
0
LINE
8
LINES
10
150.000000
20
993.000000
30
0.0
11
100.000000
21
993.000000
31
0.0
0
LINE
8
LINES
10
126.000000
20
318.000000
30
0.0
11
177.000000
21
318.000000
31
0.0
0
LINE
8
LINES
10
542.000000
20
899.000000
30
0.0
11
593.000000
21
899.000000
31
0.0
0
LINE
8
LINES
10
374.000000
20
316.000000
30
0.0
11
424.000000
21
316.000000
31
0.0
0
LINE
8
LINES
10
344.000000
20
300.000000
30
0.0
11
294.000000
21
300.000000
31
0.0
0
LINE
8
LINES
10
518.000000
20
395.000000
30
0.0
11
468.000000
21
395.000000
31
0.0
0
LINE
8
LINES
10
46.000000
20
924.000000
30
0.0
11
96.000000
21
924.000000
31
0.0
0
LINE
8
LINES
10
96.000000
20
926.000000
30
0.0
11
46.000000
21
926.000000
31
0.0
0
LINE
8
LINES
10
96.000000
20
126.000000
30
0.0
11
46.000000
21
126.000000
31
0.0
0
LINE
8
LINES
10
46.000000
20
929.000000
30
0.0
11
96.000000
21
929.000000
31
0.0
0
LINE
8
LINES
10
478.000000
20
124.000000
30
0.0
11
528.000000
21
124.000000
31
0.0
0
LINE
8
LINES
10
374.000000
20
977.000000
30
0.0
11
424.000000
21
977.000000
31
0.0
0
LINE
8
LINES
10
420.000000
20
873.000000
30
0.0
11
468.000000
21
873.000000
31
0.0
0
LINE
8
LINES
10
512.000000
20
561.000000
30
0.0
11
462.000000
21
561.000000
31
0.0
0
LINE
8
LINES
10
22.000000
20
321.000000
30
0.0
11
22.000000
21
369.000000
31
0.0
0
LINE
8
LINES
10
467.000000
20
398.000000
30
0.0
11
516.000000
21
398.000000
31
0.0
0
LINE
8
LINES
10
617.000000
20
248.000000
30
0.0
11
569.000000
21
248.000000
31
0.0
0
LINE
8
LINES
10
358.000000
20
403.000000
30
0.0
11
308.000000
21
403.000000
31
0.0
0
LINE
8
LINES
10
627.000000
20
238.000000
30
0.0
11
627.000000
21
288.000000
31
0.0
0
LINE
8
LINES
10
428.000000
20
972.000000
30
0.0
11
473.000000
21
958.000000
31
0.0
0
LINE
8
LINES
10
332.000000
20
939.000000
30
0.0
11
332.000000
21
987.000000
31
0.0
0
LINE
8
LINES
10
667.000000
20
166.000000
30
0.0
11
667.000000
21
214.000000
31
0.0
0
LINE
8
LINES
10
457.000000
20
630.000000
30
0.0
11
409.000000
21
630.000000
31
0.0
0
LINE
8
LINES
10
161.000000
20
619.000000
30
0.0
11
209.000000
21
619.000000
31
0.0
0
LINE
8
LINES
10
172.000000
20
739.000000
30
0.0
11
126.000000
21
739.000000
31
0.0
0
LINE
8
LINES
10
336.000000
20
987.000000
30
0.0
11
336.000000
21
939.000000
31
0.0
0
LINE
8
LINES
10
348.000000
20
937.000000
30
0.0
11
348.000000
21
984.000000
31
0.0
0
LINE
8
LINES
10
462.000000
20
723.000000
30
0.0
11
510.000000
21
723.000000
31
0.0
0
LINE
8
LINES
10
363.000000
20
699.000000
30
0.0
11
316.000000
21
699.000000
31
0.0
0
LINE
8
LINES
10
163.000000
20
908.000000
30
0.0
11
116.000000
21
908.000000
31
0.0
0
LINE
8
LINES
10
84.000000
20
422.000000
30
0.0
11
84.000000
21
468.000000
31
0.0
0
LINE
8
LINES
10
75.000000
20
368.000000
30
0.0
11
75.000000
21
321.000000
31
0.0
0
LINE
8
LINES
10
632.000000
20
120.000000
30
0.0
11
678.000000
21
120.000000
31
0.0
0
LINE
8
LINES
10
249.000000
20
318.000000
30
0.0
11
249.000000
21
366.000000
31
0.0
0
LINE
8
LINES
10
131.000000
20
737.000000
30
0.0
11
177.000000
21
737.000000
31
0.0
0
LINE
8
LINES
10
6.000000
20
369.000000
30
0.0
11
6.000000
21
323.000000
31
0.0
0
LINE
8
LINES
10
433.000000
20
699.000000
30
0.0
11
387.000000
21
699.000000
31
0.0
0
LINE
8
LINES
10
35.000000
20
832.000000
30
0.0
11
38.000000
21
876.000000
31
0.0
0
LINE
8
LINES
10
633.000000
20
425.000000
30
0.0
11
678.000000
21
425.000000
31
0.0
0
LINE
8
LINES
10
678.000000
20
113.000000
30
0.0
11
633.000000
21
113.000000
31
0.0
0
LINE
8
LINES
10
617.000000
20
430.000000
30
0.0
11
617.000000
21
476.000000
31
0.0
0
LINE
8
LINES
10
280.000000
20
398.000000
30
0.0
11
292.000000
21
356.000000
31
0.0
0
LINE
8
LINES
10
46.000000
20
958.000000
30
0.0
11
46.000000
21
1003.000000
31
0.0
0
LINE
8
LINES
10
520.000000
20
473.000000
30
0.0
11
520.000000
21
516.000000
31
0.0
0
LINE
8
LINES
10
628.000000
20
756.000000
30
0.0
11
673.000000
21
756.000000
31
0.0
0
LINE
8
LINES
10
619.000000
20
622.000000
30
0.0
11
576.000000
21
622.000000
31
0.0
0
LINE
8
LINES
10
259.000000
20
713.000000
30
0.0
11
216.000000
21
713.000000
31
0.0
0
LINE
8
LINES
10
252.000000
20
857.000000
30
0.0
11
296.000000
21
857.000000
31
0.0
0
LINE
8
LINES
10
417.000000
20
841.000000
30
0.0
11
417.000000
21
796.000000
31
0.0
0
LINE
8
LINES
10
633.000000
20
436.000000
30
0.0
11
678.000000
21
436.000000
31
0.0
0
LINE
8
LINES
10
540.000000
20
124.000000
30
0.0
11
584.000000
21
124.000000
31
0.0
0
LINE
8
LINES
10
302.000000
20
612.000000
30
0.0
11
347.000000
21
612.000000
31
0.0
0
LINE
8
LINES
10
321.000000
20
1001.000000
30
0.0
11
281.000000
21
987.000000
31
0.0
0
LINE
8
LINES
10
294.000000
20
355.000000
30
0.0
11
337.000000
21
355.000000
31
0.0
0
LINE
8
LINES
10
624.000000
20
700.000000
30
0.0
11
624.000000
21
657.000000
31
0.0
0
LINE
8
LINES
10
678.000000
20
430.000000
30
0.0
11
636.000000
21
430.000000
31
0.0
0
LINE
8
LINES
10
208.000000
20
622.000000
30
0.0
11
166.000000
21
622.000000
31
0.0
0
LINE
8
LINES
10
672.000000
20
761.000000
30
0.0
11
628.000000
21
761.000000
31
0.0
0
LINE
8
LINES
10
142.000000
20
768.000000
30
0.0
11
100.000000
21
768.000000
31
0.0
0
LINE
8
LINES
10
454.000000
20
516.000000
30
0.0
11
454.000000
21
473.000000
31
0.0
0
LINE
8
LINES
10
43.000000
20
126.000000
30
0.0
11
1.000000
21
126.000000
31
0.0
0
LINE
8
LINES
10
297.000000
20
806.000000
30
0.0
11
254.000000
21
806.000000
31
0.0
0
LINE
8
LINES
10
419.000000
20
857.000000
30
0.0
11
462.000000
21
857.000000
31
0.0
0
LINE
8
LINES
10
419.000000
20
844.000000
30
0.0
11
462.000000
21
844.000000
31
0.0
0
LINE
8
LINES
10
257.000000
20
742.000000
30
0.0
11
216.000000
21
742.000000
31
0.0
0
LINE
8
LINES
10
275.000000
20
446.000000
30
0.0
11
286.000000
21
404.000000
31
0.0
0
LINE
8
LINES
10
230.000000
20
870.000000
30
0.0
11
230.000000
21
828.000000
31
0.0
0
LINE
8
LINES
10
396.000000
20
870.000000
30
0.0
11
396.000000
21
828.000000
31
0.0
0
LINE
8
LINES
10
147.000000
20
828.000000
30
0.0
11
147.000000
21
870.000000
31
0.0
0
LINE
8
LINES
10
152.000000
20
870.000000
30
0.0
11
152.000000
21
828.000000
31
0.0
0
LINE
8
LINES
10
46.000000
20
836.000000
30
0.0
11
46.000000
21
878.000000
31
0.0
0
LINE
8
LINES
10
332.000000
20
828.000000
30
0.0
11
332.000000
21
870.000000
31
0.0
0
LINE
8
LINES
10
166.000000
20
828.000000
30
0.0
11
166.000000
21
870.000000
31
0.0
0
LINE
8
LINES
10
49.000000
20
878.000000
30
0.0
11
49.000000
21
836.000000
31
0.0
0
LINE
8
LINES
10
1.000000
20
409.000000
30
0.0
11
41.000000
21
409.000000
31
0.0
0
LINE
8
LINES
10
390.000000
20
828.000000
30
0.0
11
390.000000
21
868.000000
31
0.0
0
LINE
8
LINES
10
409.000000
20
828.000000
30
0.0
11
409.000000
21
870.000000
31
0.0
0
LINE
8
LINES
10
289.000000
20
980.000000
30
0.0
11
289.000000
21
939.000000
31
0.0
0
LINE
8
LINES
10
41.000000
20
412.000000
30
0.0
11
1.000000
21
412.000000
31
0.0
0
LINE
8
LINES
10
291.000000
20
937.000000
30
0.0
11
332.000000
21
937.000000
31
0.0
0
LINE
8
LINES
10
547.000000
20
862.000000
30
0.0
11
588.000000
21
862.000000
31
0.0
0
LINE
8
LINES
10
241.000000
20
619.000000
30
0.0
11
281.000000
21
619.000000
31
0.0
0
LINE
8
LINES
10
41.000000
20
147.000000
30
0.0
11
1.000000
21
147.000000
31
0.0
0
LINE
8
LINES
10
339.000000
20
900.000000
30
0.0
11
297.000000
21
900.000000
31
0.0
0
LINE
8
LINES
10
296.000000
20
860.000000
30
0.0
11
254.000000
21
860.000000
31
0.0
0
LINE
8
LINES
10
246.000000
20
790.000000
30
0.0
11
286.000000
21
790.000000
31
0.0
0
LINE
8
LINES
10
296.000000
20
846.000000
30
0.0
11
254.000000
21
846.000000
31
0.0
0
LINE
8
LINES
10
462.000000
20
819.000000
30
0.0
11
420.000000
21
819.000000
31
0.0
0
LINE
8
LINES
10
297.000000
20
819.000000
30
0.0
11
256.000000
21
819.000000
31
0.0
0
LINE
8
LINES
10
462.000000
20
846.000000
30
0.0
11
420.000000
21
846.000000
31
0.0
0
LINE
8
LINES
10
420.000000
20
830.000000
30
0.0
11
462.000000
21
830.000000
31
0.0
0
LINE
8
LINES
10
420.000000
20
817.000000
30
0.0
11
462.000000
21
817.000000
31
0.0
0
LINE
8
LINES
10
297.000000
20
832.000000
30
0.0
11
256.000000
21
832.000000
31
0.0
0
LINE
8
LINES
10
121.000000
20
548.000000
30
0.0
11
121.000000
21
508.000000
31
0.0
0
LINE
8
LINES
10
505.000000
20
508.000000
30
0.0
11
505.000000
21
548.000000
31
0.0
0
LINE
8
LINES
10
606.000000
20
740.000000
30
0.0
11
566.000000
21
740.000000
31
0.0
0
LINE
8
LINES
10
289.000000
20
400.000000
30
0.0
11
276.000000
21
438.000000
31
0.0
0
LINE
8
LINES
10
577.000000
20
673.000000
30
0.0
11
577.000000
21
713.000000
31
0.0
0
LINE
8
LINES
10
563.000000
20
713.000000
30
0.0
11
563.000000
21
673.000000
31
0.0
0
LINE
8
LINES
10
313.000000
20
828.000000
30
0.0
11
313.000000
21
868.000000
31
0.0
0
LINE
8
LINES
10
497.000000
20
672.000000
30
0.0
11
497.000000
21
712.000000
31
0.0
0
LINE
8
LINES
10
102.000000
20
620.000000
30
0.0
11
142.000000
21
620.000000
31
0.0
0
LINE
8
LINES
10
438.000000
20
620.000000
30
0.0
11
478.000000
21
620.000000
31
0.0
0
LINE
8
LINES
10
462.000000
20
806.000000
30
0.0
11
422.000000
21
806.000000
31
0.0
0
LINE
8
LINES
10
422.000000
20
803.000000
30
0.0
11
462.000000
21
803.000000
31
0.0
0
LINE
8
LINES
10
387.000000
20
1006.000000
30
0.0
11
348.000000
21
1006.000000
31
0.0
0
LINE
8
LINES
10
318.000000
20
870.000000
30
0.0
11
318.000000
21
830.000000
31
0.0
0
LINE
8
LINES
10
225.000000
20
828.000000
30
0.0
11
225.000000
21
868.000000
31
0.0
0
LINE
8
LINES
10
230.000000
20
712.000000
30
0.0
11
230.000000
21
672.000000
31
0.0
0
LINE
8
LINES
10
244.000000
20
672.000000
30
0.0
11
244.000000
21
712.000000
31
0.0
0
LINE
8
LINES
10
476.000000
20
828.000000
30
0.0
11
476.000000
21
868.000000
31
0.0
0
LINE
8
LINES
10
667.000000
20
321.000000
30
0.0
11
667.000000
21
361.000000
31
0.0
0
LINE
8
LINES
10
73.000000
20
697.000000
30
0.0
11
73.000000
21
657.000000
31
0.0
0
LINE
8
LINES
10
500.000000
20
548.000000
30
0.0
11
500.000000
21
508.000000
31
0.0
0
LINE
8
LINES
10
499.000000
20
868.000000
30
0.0
11
499.000000
21
828.000000
31
0.0
0
LINE
8
LINES
10
547.000000
20
819.000000
30
0.0
11
508.000000
21
819.000000
31
0.0
0
LINE
8
LINES
10
97.000000
20
158.000000
30
0.0
11
57.000000
21
158.000000
31
0.0
0
LINE
8
LINES
10
334.000000
20
868.000000
30
0.0
11
334.000000
21
828.000000
31
0.0
0
LINE
8
LINES
10
216.000000
20
737.000000
30
0.0
11
256.000000
21
737.000000
31
0.0
0
LINE
8
LINES
10
172.000000
20
724.000000
30
0.0
11
131.000000
21
724.000000
31
0.0
0
LINE
8
LINES
10
256.000000
20
830.000000
30
0.0
11
296.000000
21
830.000000
31
0.0
0
LINE
8
LINES
10
1.000000
20
150.000000
30
0.0
11
41.000000
21
150.000000
31
0.0
0
LINE
8
LINES
10
460.000000
20
833.000000
30
0.0
11
420.000000
21
833.000000
31
0.0
0
LINE
8
LINES
10
462.000000
20
860.000000
30
0.0
11
422.000000
21
860.000000
31
0.0
0
LINE
8
LINES
10
256.000000
20
817.000000
30
0.0
11
296.000000
21
817.000000
31
0.0
0
LINE
8
LINES
10
425.000000
20
977.000000
30
0.0
11
392.000000
21
996.000000
31
0.0
0
LINE
8
LINES
10
542.000000
20
110.000000
30
0.0
11
502.000000
21
115.000000
31
0.0
0
LINE
8
LINES
10
558.000000
20
673.000000
30
0.0
11
558.000000
21
713.000000
31
0.0
0
LINE
8
LINES
10
148.000000
20
673.000000
30
0.0
11
148.000000
21
712.000000
31
0.0
0
LINE
8
LINES
10
225.000000
20
672.000000
30
0.0
11
225.000000
21
710.000000
31
0.0
0
LINE
8
LINES
10
214.000000
20
628.000000
30
0.0
11
214.000000
21
590.000000
31
0.0
0
LINE
8
LINES
10
497.000000
20
828.000000
30
0.0
11
497.000000
21
867.000000
31
0.0
0
LINE
8
LINES
10
246.000000
20
868.000000
30
0.0
11
246.000000
21
830.000000
31
0.0
0
LINE
8
LINES
10
134.000000
20
867.000000
30
0.0
11
134.000000
21
828.000000
31
0.0
0
LINE
8
LINES
10
483.000000
20
868.000000
30
0.0
11
483.000000
21
830.000000
31
0.0
0
LINE
8
LINES
10
243.000000
20
828.000000
30
0.0
11
243.000000
21
867.000000
31
0.0
0
LINE
8
LINES
10
153.000000
20
712.000000
30
0.0
11
153.000000
21
673.000000
31
0.0
0
LINE
8
LINES
10
483.000000
20
712.000000
30
0.0
11
483.000000
21
673.000000
31
0.0
0
LINE
8
LINES
10
131.000000
20
476.000000
30
0.0
11
169.000000
21
476.000000
31
0.0
0
LINE
8
LINES
10
134.000000
20
712.000000
30
0.0
11
134.000000
21
673.000000
31
0.0
0
LINE
8
LINES
10
48.000000
20
409.000000
30
0.0
11
86.000000
21
409.000000
31
0.0
0
LINE
8
LINES
10
166.000000
20
713.000000
30
0.0
11
206.000000
21
713.000000
31
0.0
0
LINE
8
LINES
10
499.000000
20
712.000000
30
0.0
11
499.000000
21
673.000000
31
0.0
0
LINE
8
LINES
10
476.000000
20
673.000000
30
0.0
11
476.000000
21
712.000000
31
0.0
0
LINE
8
LINES
10
412.000000
20
523.000000
30
0.0
11
412.000000
21
483.000000
31
0.0
0
LINE
8
LINES
10
668.000000
20
769.000000
30
0.0
11
630.000000
21
769.000000
31
0.0
0
LINE
8
LINES
10
169.000000
20
868.000000
30
0.0
11
169.000000
21
830.000000
31
0.0
0
LINE
8
LINES
10
377.000000
20
897.000000
30
0.0
11
417.000000
21
897.000000
31
0.0
0
LINE
8
LINES
10
553.000000
20
723.000000
30
0.0
11
593.000000
21
723.000000
31
0.0
0
LINE
8
LINES
10
620.000000
20
881.000000
30
0.0
11
582.000000
21
881.000000
31
0.0
0
LINE
8
LINES
10
585.000000
20
508.000000
30
0.0
11
585.000000
21
547.000000
31
0.0
0
LINE
8
LINES
10
256.000000
20
844.000000
30
0.0
11
294.000000
21
844.000000
31
0.0
0
LINE
8
LINES
10
396.000000
20
1003.000000
30
0.0
11
430.000000
21
984.000000
31
0.0
0
LINE
8
LINES
10
265.000000
20
465.000000
30
0.0
11
265.000000
21
502.000000
31
0.0
0
LINE
8
LINES
10
334.000000
20
358.000000
30
0.0
11
297.000000
21
358.000000
31
0.0
0
LINE
8
LINES
10
166.000000
20
673.000000
30
0.0
11
166.000000
21
712.000000
31
0.0
0
LINE
8
LINES
10
579.000000
20
712.000000
30
0.0
11
579.000000
21
673.000000
31
0.0
0
LINE
8
LINES
10
300.000000
20
867.000000
30
0.0
11
300.000000
21
830.000000
31
0.0
0
LINE
8
LINES
10
326.000000
20
104.000000
30
0.0
11
364.000000
21
104.000000
31
0.0
0
LINE
8
LINES
10
550.000000
20
712.000000
30
0.0
11
550.000000
21
673.000000
31
0.0
0
LINE
8
LINES
10
467.000000
20
867.000000
30
0.0
11
467.000000
21
830.000000
31
0.0
0
LINE
8
LINES
10
380.000000
20
867.000000
30
0.0
11
380.000000
21
830.000000
31
0.0
0
LINE
8
LINES
10
256.000000
20
561.000000
30
0.0
11
217.000000
21
561.000000
31
0.0
0
LINE
8
LINES
10
547.000000
20
806.000000
30
0.0
11
508.000000
21
806.000000
31
0.0
0
LINE
8
LINES
10
528.000000
20
900.000000
30
0.0
11
491.000000
21
900.000000
31
0.0
0
LINE
8
LINES
10
38.000000
20
158.000000
30
0.0
11
1.000000
21
158.000000
31
0.0
0
LINE
8
LINES
10
508.000000
20
790.000000
30
0.0
11
547.000000
21
790.000000
31
0.0
0
LINE
8
LINES
10
568.000000
20
768.000000
30
0.0
11
531.000000
21
768.000000
31
0.0
0
LINE
8
LINES
10
584.000000
20
803.000000
30
0.0
11
622.000000
21
803.000000
31
0.0
0
LINE
8
LINES
10
508.000000
20
817.000000
30
0.0
11
545.000000
21
817.000000
31
0.0
0
LINE
8
LINES
10
252.000000
20
724.000000
30
0.0
11
216.000000
21
724.000000
31
0.0
0
LINE
8
LINES
10
508.000000
20
803.000000
30
0.0
11
547.000000
21
803.000000
31
0.0
0
LINE
8
LINES
10
252.000000
20
803.000000
30
0.0
11
291.000000
21
803.000000
31
0.0
0
LINE
8
LINES
10
99.000000
20
424.000000
30
0.0
11
99.000000
21
462.000000
31
0.0
0
LINE
8
LINES
10
587.000000
20
193.000000
30
0.0
11
587.000000
21
232.000000
31
0.0
0
LINE
8
LINES
10
390.000000
20
979.000000
30
0.0
11
356.000000
21
996.000000
31
0.0
0
LINE
8
LINES
10
497.000000
20
513.000000
30
0.0
11
497.000000
21
550.000000
31
0.0
0
LINE
8
LINES
10
315.000000
20
985.000000
30
0.0
11
350.000000
21
990.000000
31
0.0
0
LINE
8
LINES
10
521.000000
20
89.000000
30
0.0
11
486.000000
21
89.000000
31
0.0
0
LINE
8
LINES
10
483.000000
20
550.000000
30
0.0
11
483.000000
21
513.000000
31
0.0
0
LINE
8
LINES
10
30.000000
20
331.000000
30
0.0
11
67.000000
21
331.000000
31
0.0
0
LINE
8
LINES
10
563.000000
20
548.000000
30
0.0
11
563.000000
21
513.000000
31
0.0
0
LINE
8
LINES
10
148.000000
20
513.000000
30
0.0
11
148.000000
21
550.000000
31
0.0
0
LINE
8
LINES
10
504.000000
20
952.000000
30
0.0
11
540.000000
21
952.000000
31
0.0
0
LINE
8
LINES
10
665.000000
20
419.000000
30
0.0
11
628.000000
21
419.000000
31
0.0
0
LINE
8
LINES
10
132.000000
20
673.000000
30
0.0
11
132.000000
21
710.000000
31
0.0
0
LINE
8
LINES
10
552.000000
20
956.000000
30
0.0
11
588.000000
21
956.000000
31
0.0
0
LINE
8
LINES
10
467.000000
20
710.000000
30
0.0
11
467.000000
21
673.000000
31
0.0
0
LINE
8
LINES
10
214.000000
20
897.000000
30
0.0
11
251.000000
21
897.000000
31
0.0
0
LINE
8
LINES
10
169.000000
20
710.000000
30
0.0
11
169.000000
21
673.000000
31
0.0
0
LINE
8
LINES
10
246.000000
20
710.000000
30
0.0
11
246.000000
21
673.000000
31
0.0
0
LINE
8
LINES
10
547.000000
20
790.000000
30
0.0
11
584.000000
21
790.000000
31
0.0
0
LINE
8
LINES
10
630.000000
20
782.000000
30
0.0
11
667.000000
21
782.000000
31
0.0
0
LINE
8
LINES
10
540.000000
20
513.000000
30
0.0
11
540.000000
21
548.000000
31
0.0
0
LINE
8
LINES
10
633.000000
20
766.000000
30
0.0
11
668.000000
21
766.000000
31
0.0
0
LINE
8
LINES
10
617.000000
20
217.000000
30
0.0
11
617.000000
21
182.000000
31
0.0
0
LINE
8
LINES
10
246.000000
20
988.000000
30
0.0
11
212.000000
21
998.000000
31
0.0
0
LINE
8
LINES
10
577.000000
20
513.000000
30
0.0
11
577.000000
21
548.000000
31
0.0
0
LINE
8
LINES
10
214.000000
20
476.000000
30
0.0
11
249.000000
21
476.000000
31
0.0
0
LINE
8
LINES
10
667.000000
20
497.000000
30
0.0
11
667.000000
21
532.000000
31
0.0
0
LINE
8
LINES
10
248.000000
20
489.000000
30
0.0
11
212.000000
21
489.000000
31
0.0
0
LINE
8
LINES
10
326.000000
20
982.000000
30
0.0
11
291.000000
21
982.000000
31
0.0
0
LINE
8
LINES
10
166.000000
20
515.000000
30
0.0
11
166.000000
21
550.000000
31
0.0
0
LINE
8
LINES
10
246.000000
20
712.000000
30
0.0
11
281.000000
21
712.000000
31
0.0
0
LINE
8
LINES
10
337.000000
20
318.000000
30
0.0
11
337.000000
21
353.000000
31
0.0
0
LINE
8
LINES
10
417.000000
20
318.000000
30
0.0
11
417.000000
21
353.000000
31
0.0
0
LINE
8
LINES
10
587.000000
20
686.000000
30
0.0
11
622.000000
21
686.000000
31
0.0
0
LINE
8
LINES
10
667.000000
20
785.000000
30
0.0
11
632.000000
21
785.000000
31
0.0
0
LINE
8
LINES
10
625.000000
20
764.000000
30
0.0
11
660.000000
21
764.000000
31
0.0
0
LINE
8
LINES
10
622.000000
20
819.000000
30
0.0
11
587.000000
21
819.000000
31
0.0
0
LINE
8
LINES
10
622.000000
20
806.000000
30
0.0
11
587.000000
21
806.000000
31
0.0
0
LINE
8
LINES
10
281.000000
20
622.000000
30
0.0
11
246.000000
21
622.000000
31
0.0
0
LINE
8
LINES
10
425.000000
20
556.000000
30
0.0
11
390.000000
21
556.000000
31
0.0
0
LINE
8
LINES
10
584.000000
20
817.000000
30
0.0
11
619.000000
21
817.000000
31
0.0
0
LINE
8
LINES
10
425.000000
20
790.000000
30
0.0
11
460.000000
21
790.000000
31
0.0
0
LINE
8
LINES
10
641.000000
20
432.000000
30
0.0
11
675.000000
21
432.000000
31
0.0
0
LINE
8
LINES
10
678.000000
20
86.000000
30
0.0
11
643.000000
21
86.000000
31
0.0
0
LINE
8
LINES
10
289.000000
20
126.000000
30
0.0
11
323.000000
21
126.000000
31
0.0
0
LINE
8
LINES
10
276.000000
20
96.000000
30
0.0
11
312.000000
21
96.000000
31
0.0
0
LINE
8
LINES
10
214.000000
20
550.000000
30
0.0
11
214.000000
21
515.000000
31
0.0
0
LINE
8
LINES
10
449.000000
20
412.000000
30
0.0
11
419.000000
21
430.000000
31
0.0
0
LINE
8
LINES
10
454.000000
20
44.000000
30
0.0
11
470.000000
21
14.000000
31
0.0
0
LINE
8
LINES
10
153.000000
20
550.000000
30
0.0
11
153.000000
21
516.000000
31
0.0
0
LINE
8
LINES
10
136.000000
20
550.000000
30
0.0
11
136.000000
21
516.000000
31
0.0
0
LINE
8
LINES
10
244.000000
20
515.000000
30
0.0
11
244.000000
21
548.000000
31
0.0
0
LINE
8
LINES
10
457.000000
20
355.000000
30
0.0
11
457.000000
21
388.000000
31
0.0
0
LINE
8
LINES
10
478.000000
20
515.000000
30
0.0
11
478.000000
21
548.000000
31
0.0
0
LINE
8
LINES
10
643.000000
20
73.000000
30
0.0
11
678.000000
21
73.000000
31
0.0
0
LINE
8
LINES
10
248.000000
20
412.000000
30
0.0
11
214.000000
21
412.000000
31
0.0
0
LINE
8
LINES
10
86.000000
20
121.000000
30
0.0
11
51.000000
21
121.000000
31
0.0
0
LINE
8
LINES
10
169.000000
20
412.000000
30
0.0
11
136.000000
21
412.000000
31
0.0
0
LINE
8
LINES
10
550.000000
20
636.000000
30
0.0
11
584.000000
21
636.000000
31
0.0
0
LINE
8
LINES
10
132.000000
20
515.000000
30
0.0
11
132.000000
21
548.000000
31
0.0
0
LINE
8
LINES
10
248.000000
20
548.000000
30
0.0
11
248.000000
21
515.000000
31
0.0
0
LINE
8
LINES
10
457.000000
20
688.000000
30
0.0
11
424.000000
21
688.000000
31
0.0
0
LINE
8
LINES
10
505.000000
20
684.000000
30
0.0
11
539.000000
21
684.000000
31
0.0
0
LINE
8
LINES
10
169.000000
20
548.000000
30
0.0
11
169.000000
21
515.000000
31
0.0
0
LINE
8
LINES
10
505.000000
20
657.000000
30
0.0
11
539.000000
21
657.000000
31
0.0
0
LINE
8
LINES
10
622.000000
20
958.000000
30
0.0
11
622.000000
21
924.000000
31
0.0
0
LINE
8
LINES
10
577.000000
20
619.000000
30
0.0
11
611.000000
21
619.000000
31
0.0
0
LINE
8
LINES
10
291.000000
20
630.000000
30
0.0
11
257.000000
21
630.000000
31
0.0
0
LINE
8
LINES
10
136.000000
20
622.000000
30
0.0
11
102.000000
21
622.000000
31
0.0
0
LINE
8
LINES
10
603.000000
20
768.000000
30
0.0
11
569.000000
21
768.000000
31
0.0
0
LINE
8
LINES
10
468.000000
20
622.000000
30
0.0
11
435.000000
21
622.000000
31
0.0
0
LINE
8
LINES
10
457.000000
20
467.000000
30
0.0
11
457.000000
21
502.000000
31
0.0
0
LINE
8
LINES
10
32.000000
20
366.000000
30
0.0
11
65.000000
21
366.000000
31
0.0
0
LINE
8
LINES
10
124.000000
20
515.000000
30
0.0
11
124.000000
21
548.000000
31
0.0
0
LINE
8
LINES
10
102.000000
20
625.000000
30
0.0
11
136.000000
21
625.000000
31
0.0
0
LINE
8
LINES
10
201.000000
20
908.000000
30
0.0
11
168.000000
21
908.000000
31
0.0
0
LINE
8
LINES
10
97.000000
20
318.000000
30
0.0
11
97.000000
21
286.000000
31
0.0
0
LINE
8
LINES
10
534.000000
20
41.000000
30
0.0
11
552.000000
21
14.000000
31
0.0
0
LINE
8
LINES
10
33.000000
20
364.000000
30
0.0
11
28.000000
21
332.000000
31
0.0
0
LINE
8
LINES
10
558.000000
20
516.000000
30
0.0
11
558.000000
21
548.000000
31
0.0
0
LINE
8
LINES
10
46.000000
20
956.000000
30
0.0
11
78.000000
21
956.000000
31
0.0
0
LINE
8
LINES
10
577.000000
20
505.000000
30
0.0
11
544.000000
21
505.000000
31
0.0
0
LINE
8
LINES
10
332.000000
20
667.000000
30
0.0
11
300.000000
21
667.000000
31
0.0
0
LINE
8
LINES
10
64.000000
20
500.000000
30
0.0
11
32.000000
21
500.000000
31
0.0
0
LINE
8
LINES
10
100.000000
20
713.000000
30
0.0
11
132.000000
21
713.000000
31
0.0
0
LINE
8
LINES
10
86.000000
20
147.000000
30
0.0
11
52.000000
21
147.000000
31
0.0
0
LINE
8
LINES
10
166.000000
20
481.000000
30
0.0
11
134.000000
21
481.000000
31
0.0
0
LINE
8
LINES
10
476.000000
20
1012.000000
30
0.0
11
476.000000
21
980.000000
31
0.0
0
LINE
8
LINES
10
232.000000
20
548.000000
30
0.0
11
232.000000
21
516.000000
31
0.0
0
LINE
8
LINES
10
227.000000
20
516.000000
30
0.0
11
227.000000
21
548.000000
31
0.0
0
LINE
8
LINES
10
334.000000
20
334.000000
30
0.0
11
302.000000
21
334.000000
31
0.0
0
LINE
8
LINES
10
134.000000
20
672.000000
30
0.0
11
166.000000
21
672.000000
31
0.0
0
LINE
8
LINES
10
548.000000
20
548.000000
30
0.0
11
548.000000
21
516.000000
31
0.0
0
LINE
8
LINES
10
470.000000
20
409.000000
30
0.0
11
502.000000
21
409.000000
31
0.0
0
LINE
8
LINES
10
502.000000
20
411.000000
30
0.0
11
470.000000
21
411.000000
31
0.0
0
LINE
8
LINES
10
291.000000
20
644.000000
30
0.0
11
259.000000
21
644.000000
31
0.0
0
LINE
8
LINES
10
291.000000
20
673.000000
30
0.0
11
259.000000
21
673.000000
31
0.0
0
LINE
8
LINES
10
500.000000
20
390.000000
30
0.0
11
500.000000
21
358.000000
31
0.0
0
LINE
8
LINES
10
468.000000
20
795.000000
30
0.0
11
502.000000
21
795.000000
31
0.0
0
LINE
8
LINES
10
22.000000
20
483.000000
30
0.0
11
22.000000
21
515.000000
31
0.0
0
LINE
8
LINES
10
6.000000
20
515.000000
30
0.0
11
6.000000
21
483.000000
31
0.0
0
LINE
8
LINES
10
259.000000
20
670.000000
30
0.0
11
291.000000
21
670.000000
31
0.0
0
LINE
8
LINES
10
32.000000
20
214.000000
30
0.0
11
64.000000
21
214.000000
31
0.0
0
LINE
8
LINES
10
259.000000
20
641.000000
30
0.0
11
291.000000
21
641.000000
31
0.0
0
LINE
8
LINES
10
662.000000
20
801.000000
30
0.0
11
630.000000
21
801.000000
31
0.0
0
LINE
8
LINES
10
587.000000
20
790.000000
30
0.0
11
619.000000
21
790.000000
31
0.0
0
LINE
8
LINES
10
291.000000
20
688.000000
30
0.0
11
259.000000
21
688.000000
31
0.0
0
LINE
8
LINES
10
134.000000
20
795.000000
30
0.0
11
166.000000
21
795.000000
31
0.0
0
LINE
8
LINES
10
248.000000
20
174.000000
30
0.0
11
216.000000
21
174.000000
31
0.0
0
LINE
8
LINES
10
259.000000
20
656.000000
30
0.0
11
291.000000
21
656.000000
31
0.0
0
LINE
8
LINES
10
424.000000
20
656.000000
30
0.0
11
457.000000
21
656.000000
31
0.0
0
LINE
8
LINES
10
259.000000
20
684.000000
30
0.0
11
291.000000
21
684.000000
31
0.0
0
LINE
8
LINES
10
412.000000
20
481.000000
30
0.0
11
379.000000
21
481.000000
31
0.0
0
LINE
8
LINES
10
291.000000
20
659.000000
30
0.0
11
259.000000
21
659.000000
31
0.0
0
LINE
8
LINES
10
304.000000
20
934.000000
30
0.0
11
337.000000
21
934.000000
31
0.0
0
LINE
8
LINES
10
366.000000
20
700.000000
30
0.0
11
398.000000
21
700.000000
31
0.0
0
LINE
8
LINES
10
294.000000
20
499.000000
30
0.0
11
294.000000
21
467.000000
31
0.0
0
LINE
8
LINES
10
64.000000
20
211.000000
30
0.0
11
32.000000
21
211.000000
31
0.0
0
LINE
8
LINES
10
246.000000
20
908.000000
30
0.0
11
214.000000
21
908.000000
31
0.0
0
LINE
8
LINES
10
214.000000
20
910.000000
30
0.0
11
246.000000
21
910.000000
31
0.0
0
LINE
8
LINES
10
292.000000
20
145.000000
30
0.0
11
260.000000
21
145.000000
31
0.0
0
LINE
8
LINES
10
67.000000
20
332.000000
30
0.0
11
67.000000
21
363.000000
31
0.0
0
LINE
8
LINES
10
460.000000
20
145.000000
30
0.0
11
428.000000
21
145.000000
31
0.0
0
LINE
8
LINES
10
86.000000
20
948.000000
30
0.0
11
86.000000
21
980.000000
31
0.0
0
LINE
8
LINES
10
579.000000
20
358.000000
30
0.0
11
579.000000
21
388.000000
31
0.0
0
LINE
8
LINES
10
574.000000
20
388.000000
30
0.0
11
574.000000
21
358.000000
31
0.0
0
LINE
8
LINES
10
628.000000
20
766.000000
30
0.0
11
628.000000
21
796.000000
31
0.0
0
LINE
8
LINES
10
494.000000
20
388.000000
30
0.0
11
494.000000
21
358.000000
31
0.0
0
LINE
8
LINES
10
169.000000
20
392.000000
30
0.0
11
169.000000
21
361.000000
31
0.0
0
LINE
8
LINES
10
590.000000
20
438.000000
30
0.0
11
560.000000
21
433.000000
31
0.0
0
LINE
8
LINES
10
214.000000
20
662.000000
30
0.0
11
214.000000
21
632.000000
31
0.0
0
LINE
8
LINES
10
204.000000
20
163.000000
30
0.0
11
236.000000
21
163.000000
31
0.0
0
LINE
8
LINES
10
606.000000
20
968.000000
30
0.0
11
632.000000
21
985.000000
31
0.0
0
LINE
8
LINES
10
137.000000
20
409.000000
30
0.0
11
168.000000
21
409.000000
31
0.0
0
LINE
8
LINES
10
216.000000
20
409.000000
30
0.0
11
246.000000
21
409.000000
31
0.0
0
LINE
8
LINES
10
472.000000
20
948.000000
30
0.0
11
502.000000
21
948.000000
31
0.0
0
LINE
8
LINES
10
499.000000
20
358.000000
30
0.0
11
499.000000
21
388.000000
31
0.0
0
LINE
8
LINES
10
382.000000
20
948.000000
30
0.0
11
412.000000
21
948.000000
31
0.0
0
LINE
8
LINES
10
622.000000
20
750.000000
30
0.0
11
622.000000
21
718.000000
31
0.0
0
LINE
8
LINES
10
284.000000
20
104.000000
30
0.0
11
316.000000
21
104.000000
31
0.0
0
LINE
8
LINES
10
660.000000
20
819.000000
30
0.0
11
628.000000
21
819.000000
31
0.0
0
LINE
8
LINES
10
217.000000
20
636.000000
30
0.0
11
248.000000
21
636.000000
31
0.0
0
LINE
8
LINES
10
216.000000
20
795.000000
30
0.0
11
246.000000
21
795.000000
31
0.0
0
LINE
8
LINES
10
508.000000
20
857.000000
30
0.0
11
539.000000
21
857.000000
31
0.0
0
LINE
8
LINES
10
425.000000
20
641.000000
30
0.0
11
457.000000
21
641.000000
31
0.0
0
LINE
8
LINES
10
427.000000
20
684.000000
30
0.0
11
457.000000
21
684.000000
31
0.0
0
LINE
8
LINES
10
417.000000
20
473.000000
30
0.0
11
417.000000
21
504.000000
31
0.0
0
LINE
8
LINES
10
427.000000
20
670.000000
30
0.0
11
457.000000
21
670.000000
31
0.0
0
LINE
8
LINES
10
457.000000
20
673.000000
30
0.0
11
427.000000
21
673.000000
31
0.0
0
LINE
8
LINES
10
580.000000
20
388.000000
30
0.0
11
580.000000
21
358.000000
31
0.0
0
LINE
8
LINES
10
134.000000
20
361.000000
30
0.0
11
134.000000
21
392.000000
31
0.0
0
LINE
8
LINES
10
220.000000
20
558.000000
30
0.0
11
252.000000
21
558.000000
31
0.0
0
LINE
8
LINES
10
336.000000
20
172.000000
30
0.0
11
304.000000
21
172.000000
31
0.0
0
LINE
8
LINES
10
414.000000
20
233.000000
30
0.0
11
414.000000
21
203.000000
31
0.0
0
LINE
8
LINES
10
169.000000
20
174.000000
30
0.0
11
137.000000
21
174.000000
31
0.0
0
LINE
8
LINES
10
246.000000
20
392.000000
30
0.0
11
246.000000
21
361.000000
31
0.0
0
LINE
8
LINES
10
632.000000
20
441.000000
30
0.0
11
662.000000
21
441.000000
31
0.0
0
LINE
8
LINES
10
136.000000
20
508.000000
30
0.0
11
166.000000
21
508.000000
31
0.0
0
LINE
8
LINES
10
211.000000
20
361.000000
30
0.0
11
211.000000
21
392.000000
31
0.0
0
LINE
8
LINES
10
374.000000
20
859.000000
30
0.0
11
342.000000
21
859.000000
31
0.0
0
LINE
8
LINES
10
246.000000
20
625.000000
30
0.0
11
278.000000
21
625.000000
31
0.0
0
LINE
8
LINES
10
168.000000
20
326.000000
30
0.0
11
137.000000
21
326.000000
31
0.0
0
LINE
8
LINES
10
52.000000
20
124.000000
30
0.0
11
83.000000
21
124.000000
31
0.0
0
LINE
8
LINES
10
166.000000
20
625.000000
30
0.0
11
198.000000
21
625.000000
31
0.0
0
LINE
8
LINES
10
166.000000
20
510.000000
30
0.0
11
136.000000
21
510.000000
31
0.0
0
LINE
8
LINES
10
374.000000
20
846.000000
30
0.0
11
342.000000
21
846.000000
31
0.0
0
LINE
8
LINES
10
169.000000
20
988.000000
30
0.0
11
201.000000
21
988.000000
31
0.0
0
LINE
8
LINES
10
342.000000
20
844.000000
30
0.0
11
374.000000
21
844.000000
31
0.0
0
LINE
8
LINES
10
372.000000
20
819.000000
30
0.0
11
342.000000
21
819.000000
31
0.0
0
LINE
8
LINES
10
678.000000
20
68.000000
30
0.0
11
646.000000
21
68.000000
31
0.0
0
LINE
8
LINES
10
497.000000
20
908.000000
30
0.0
11
465.000000
21
908.000000
31
0.0
0
LINE
8
LINES
10
291.000000
20
534.000000
30
0.0
11
286.000000
21
564.000000
31
0.0
0
LINE
8
LINES
10
294.000000
20
163.000000
30
0.0
11
324.000000
21
163.000000
31
0.0
0
LINE
8
LINES
10
379.000000
20
44.000000
30
0.0
11
409.000000
21
44.000000
31
0.0
0
LINE
8
LINES
10
208.000000
20
480.000000
30
0.0
11
212.000000
21
508.000000
31
0.0
0
LINE
8
LINES
10
486.000000
20
388.000000
30
0.0
11
486.000000
21
358.000000
31
0.0
0
LINE
8
LINES
10
126.000000
20
163.000000
30
0.0
11
156.000000
21
163.000000
31
0.0
0
LINE
8
LINES
10
412.000000
20
196.000000
30
0.0
11
382.000000
21
196.000000
31
0.0
0
LINE
8
LINES
10
532.000000
20
918.000000
30
0.0
11
532.000000
21
948.000000
31
0.0
0
LINE
8
LINES
10
504.000000
20
435.000000
30
0.0
11
473.000000
21
435.000000
31
0.0
0
LINE
8
LINES
10
566.000000
20
388.000000
30
0.0
11
566.000000
21
358.000000
31
0.0
0
LINE
8
LINES
10
409.000000
20
665.000000
30
0.0
11
379.000000
21
665.000000
31
0.0
0
LINE
8
LINES
10
411.000000
20
822.000000
30
0.0
11
380.000000
21
822.000000
31
0.0
0
LINE
8
LINES
10
332.000000
20
822.000000
30
0.0
11
302.000000
21
822.000000
31
0.0
0
LINE
8
LINES
10
137.000000
20
948.000000
30
0.0
11
166.000000
21
948.000000
31
0.0
0
LINE
8
LINES
10
412.000000
20
204.000000
30
0.0
11
412.000000
21
233.000000
31
0.0
0
LINE
8
LINES
10
502.000000
20
172.000000
30
0.0
11
473.000000
21
172.000000
31
0.0
0
LINE
8
LINES
10
203.000000
20
806.000000
30
0.0
11
172.000000
21
806.000000
31
0.0
0
LINE
8
LINES
10
150.000000
20
361.000000
30
0.0
11
150.000000
21
392.000000
31
0.0
0
LINE
8
LINES
10
35.000000
20
520.000000
30
0.0
11
65.000000
21
520.000000
31
0.0
0
LINE
8
LINES
10
302.000000
20
504.000000
30
0.0
11
302.000000
21
473.000000
31
0.0
0
LINE
8
LINES
10
332.000000
20
483.000000
30
0.0
11
302.000000
21
483.000000
31
0.0
0
LINE
8
LINES
10
227.000000
20
361.000000
30
0.0
11
227.000000
21
392.000000
31
0.0
0
LINE
8
LINES
10
336.000000
20
233.000000
30
0.0
11
336.000000
21
204.000000
31
0.0
0
LINE
8
LINES
10
203.000000
20
819.000000
30
0.0
11
172.000000
21
819.000000
31
0.0
0
LINE
8
LINES
10
153.000000
20
392.000000
30
0.0
11
153.000000
21
361.000000
31
0.0
0
LINE
8
LINES
10
172.000000
20
830.000000
30
0.0
11
203.000000
21
830.000000
31
0.0
0
LINE
8
LINES
10
457.000000
20
659.000000
30
0.0
11
427.000000
21
659.000000
31
0.0
0
LINE
8
LINES
10
230.000000
20
392.000000
30
0.0
11
230.000000
21
361.000000
31
0.0
0
LINE
8
LINES
10
582.000000
20
171.000000
30
0.0
11
552.000000
21
171.000000
31
0.0
0
LINE
8
LINES
10
9.000000
20
414.000000
30
0.0
11
38.000000
21
414.000000
31
0.0
0
LINE
8
LINES
10
137.000000
20
643.000000
30
0.0
11
166.000000
21
643.000000
31
0.0
0
LINE
8
LINES
10
595.000000
20
500.000000
30
0.0
11
595.000000
21
470.000000
31
0.0
0
LINE
8
LINES
10
64.000000
20
510.000000
30
0.0
11
33.000000
21
510.000000
31
0.0
0
LINE
8
LINES
10
203.000000
20
832.000000
30
0.0
11
172.000000
21
832.000000
31
0.0
0
LINE
8
LINES
10
411.000000
20
641.000000
30
0.0
11
380.000000
21
641.000000
31
0.0
0
LINE
8
LINES
10
166.000000
20
361.000000
30
0.0
11
166.000000
21
390.000000
31
0.0
0
LINE
8
LINES
10
172.000000
20
844.000000
30
0.0
11
203.000000
21
844.000000
31
0.0
0
LINE
8
LINES
10
136.000000
20
392.000000
30
0.0
11
136.000000
21
361.000000
31
0.0
0
LINE
8
LINES
10
411.000000
20
796.000000
30
0.0
11
380.000000
21
796.000000
31
0.0
0
LINE
8
LINES
10
548.000000
20
358.000000
30
0.0
11
548.000000
21
388.000000
31
0.0
0
LINE
8
LINES
10
243.000000
20
483.000000
30
0.0
11
214.000000
21
483.000000
31
0.0
0
LINE
8
LINES
10
166.000000
20
641.000000
30
0.0
11
136.000000
21
641.000000
31
0.0
0
LINE
8
LINES
10
340.000000
20
656.000000
30
0.0
11
371.000000
21
656.000000
31
0.0
0
LINE
8
LINES
10
166.000000
20
203.000000
30
0.0
11
137.000000
21
203.000000
31
0.0
0
LINE
8
LINES
10
217.000000
20
198.000000
30
0.0
11
246.000000
21
198.000000
31
0.0
0
LINE
8
LINES
10
100.000000
20
873.000000
30
0.0
11
131.000000
21
873.000000
31
0.0
0
LINE
8
LINES
10
244.000000
20
361.000000
30
0.0
11
244.000000
21
392.000000
31
0.0
0
LINE
8
LINES
10
344.000000
20
857.000000
30
0.0
11
374.000000
21
857.000000
31
0.0
0
LINE
8
LINES
10
198.000000
20
985.000000
30
0.0
11
169.000000
21
985.000000
31
0.0
0
LINE
8
LINES
10
648.000000
20
83.000000
30
0.0
11
678.000000
21
83.000000
31
0.0
0
ENDSEC
0
EOF
