<svg xmlns="http://www.w3.org/2000/svg" viewBox="0 0 595 441" width="595" height="441">
  <rect x="0" y="0" width="595" height="441" fill="#fff"/>
  <g id="facade_outline">
    <polygon id="facade_0001" points="0,0 595,0 595,441 0,441" stroke="#000" stroke-width="2" fill="none"/>
  </g>
  <g id="openings_windows">
    <rect id="window_0001" x="153" y="27" width="54" height="27" stroke="#000" stroke-width="1" fill="none" data-conf="0.7052" data-type="window"/>
    <rect id="window_0002" x="225" y="45" width="216" height="81" stroke="#000" stroke-width="1" fill="none" data-conf="0.7100" data-type="window"/>
    <rect id="window_0003" x="153" y="63" width="36" height="36" stroke="#000" stroke-width="1" fill="none" data-conf="0.6619" data-type="window"/>
    <rect id="window_0004" x="171" y="63" width="144" height="63" stroke="#000" stroke-width="1" fill="none" data-conf="0.8380" data-type="window"/>
    <rect id="window_0005" x="108" y="72" width="45" height="54" stroke="#000" stroke-width="1" fill="none" data-conf="0.8978" data-type="window"/>
    <rect id="window_0006" x="297" y="117" width="63" height="36" stroke="#000" stroke-width="1" fill="none" data-conf="0.8622" data-type="window"/>
    <rect id="window_0007" x="360" y="126" width="36" height="27" stroke="#000" stroke-width="1" fill="none" data-conf="0.9290" data-type="window"/>
    <rect id="window_0008" x="279" y="126" width="36" height="27" stroke="#000" stroke-width="1" fill="none" data-conf="0.8036" data-type="window"/>
    <rect id="window_0009" x="279" y="144" width="315" height="252" stroke="#000" stroke-width="1" fill="none" data-conf="0.7842" data-type="window"/>
    <rect id="window_0010" x="432" y="180" width="90" height="72" stroke="#000" stroke-width="1" fill="none" data-conf="0.9402" data-type="window"/>
    <rect id="window_0011" x="144" y="180" width="99" height="81" stroke="#000" stroke-width="1" fill="none" data-conf="0.9347" data-type="window"/>
    <rect id="window_0012" x="450" y="180" width="54" height="72" stroke="#000" stroke-width="1" fill="none" data-conf="0.8551" data-type="window"/>
    <rect id="window_0013" x="162" y="189" width="54" height="63" stroke="#000" stroke-width="1" fill="none" data-conf="0.8819" data-type="window"/>
    <rect id="window_0014" x="279" y="243" width="36" height="36" stroke="#000" stroke-width="1" fill="none" data-conf="0.7599" data-type="window"/>
    <rect id="window_0015" x="0" y="288" width="99" height="99" stroke="#000" stroke-width="1" fill="none" data-conf="0.6048" data-type="window"/>
    <rect id="window_0016" x="144" y="288" width="99" height="108" stroke="#000" stroke-width="1" fill="none" data-conf="0.8637" data-type="window"/>
    <rect id="window_0017" x="171" y="297" width="54" height="72" stroke="#000" stroke-width="1" fill="none" data-conf="0.8801" data-type="window"/>
    <rect id="window_0018" x="459" y="306" width="45" height="54" stroke="#000" stroke-width="1" fill="none" data-conf="0.9153" data-type="window"/>
    <rect id="window_0019" x="450" y="369" width="54" height="27" stroke="#000" stroke-width="1" fill="none" data-conf="0.9040" data-type="window"/>
  </g>
  <g id="openings_doors">
    <rect id="door_0001" x="45" y="189" width="9" height="63" stroke="#000" stroke-width="1" fill="none" data-conf="0.8586" data-type="door"/>
  </g>
  <g id="lines">
    <line id="line_0001" x1="567" y1="396" x2="261" y2="396" stroke="#000" stroke-width="1" data-conf="0.4172"/>
    <line id="line_0002" x1="279" y1="396" x2="567" y2="396" stroke="#000" stroke-width="1" data-conf="0.3883"/>
    <line id="line_0003" x1="567" y1="441" x2="567" y2="171" stroke="#000" stroke-width="1" data-conf="0.3674"/>
    <line id="line_0004" x1="279" y1="144" x2="9" y2="144" stroke="#000" stroke-width="1" data-conf="0.3640"/>
    <line id="line_0005" x1="585" y1="162" x2="360" y2="162" stroke="#000" stroke-width="1" data-conf="0.3058"/>
    <line id="line_0006" x1="306" y1="171" x2="90" y2="171" stroke="#000" stroke-width="1" data-conf="0.2872"/>
    <line id="line_0007" x1="396" y1="135" x2="585" y2="135" stroke="#000" stroke-width="1" data-conf="0.2634"/>
    <line id="line_0008" x1="81" y1="162" x2="270" y2="162" stroke="#000" stroke-width="1" data-conf="0.2633"/>
    <line id="line_0009" x1="270" y1="405" x2="72" y2="405" stroke="#000" stroke-width="1" data-conf="0.2600"/>
    <line id="line_0010" x1="585" y1="144" x2="396" y2="144" stroke="#000" stroke-width="1" data-conf="0.2584"/>
    <line id="line_0011" x1="396" y1="153" x2="585" y2="153" stroke="#000" stroke-width="1" data-conf="0.2549"/>
    <line id="line_0012" x1="90" y1="144" x2="270" y2="144" stroke="#000" stroke-width="1" data-conf="0.2532"/>
    <line id="line_0013" x1="90" y1="396" x2="270" y2="396" stroke="#000" stroke-width="1" data-conf="0.2431"/>
    <line id="line_0014" x1="594" y1="18" x2="441" y2="18" stroke="#000" stroke-width="1" data-conf="0.2071"/>
    <line id="line_0015" x1="459" y1="36" x2="585" y2="36" stroke="#000" stroke-width="1" data-conf="0.1732"/>
    <line id="line_0016" x1="468" y1="0" x2="594" y2="0" stroke="#000" stroke-width="1" data-conf="0.1730"/>
    <line id="line_0017" x1="279" y1="27" x2="162" y2="27" stroke="#000" stroke-width="1" data-conf="0.1621"/>
    <line id="line_0018" x1="117" y1="432" x2="234" y2="432" stroke="#000" stroke-width="1" data-conf="0.1604"/>
    <line id="line_0019" x1="279" y1="432" x2="396" y2="432" stroke="#000" stroke-width="1" data-conf="0.1603"/>
    <line id="line_0020" x1="279" y1="387" x2="279" y2="270" stroke="#000" stroke-width="1" data-conf="0.1571"/>
    <line id="line_0021" x1="441" y1="423" x2="558" y2="423" stroke="#000" stroke-width="1" data-conf="0.1570"/>
    <line id="line_0022" x1="234" y1="432" x2="117" y2="432" stroke="#000" stroke-width="1" data-conf="0.1503"/>
    <line id="line_0023" x1="279" y1="288" x2="279" y2="396" stroke="#000" stroke-width="1" data-conf="0.1502"/>
    <line id="line_0024" x1="180" y1="27" x2="288" y2="27" stroke="#000" stroke-width="1" data-conf="0.1486"/>
    <line id="line_0025" x1="396" y1="432" x2="279" y2="432" stroke="#000" stroke-width="1" data-conf="0.1486"/>
    <line id="line_0026" x1="549" y1="432" x2="441" y2="432" stroke="#000" stroke-width="1" data-conf="0.1452"/>
    <line id="line_0027" x1="387" y1="153" x2="279" y2="153" stroke="#000" stroke-width="1" data-conf="0.1435"/>
    <line id="line_0028" x1="504" y1="135" x2="396" y2="135" stroke="#000" stroke-width="1" data-conf="0.1417"/>
    <line id="line_0029" x1="279" y1="162" x2="387" y2="162" stroke="#000" stroke-width="1" data-conf="0.1367"/>
    <line id="line_0030" x1="405" y1="27" x2="306" y2="27" stroke="#000" stroke-width="1" data-conf="0.1317"/>
    <line id="line_0031" x1="288" y1="387" x2="288" y2="297" stroke="#000" stroke-width="1" data-conf="0.1283"/>
    <line id="line_0032" x1="387" y1="297" x2="387" y2="387" stroke="#000" stroke-width="1" data-conf="0.1266"/>
    <line id="line_0033" x1="144" y1="180" x2="234" y2="180" stroke="#000" stroke-width="1" data-conf="0.1266"/>
    <line id="line_0034" x1="432" y1="288" x2="522" y2="288" stroke="#000" stroke-width="1" data-conf="0.1266"/>
    <line id="line_0035" x1="432" y1="180" x2="522" y2="180" stroke="#000" stroke-width="1" data-conf="0.1249"/>
    <line id="line_0036" x1="279" y1="270" x2="378" y2="270" stroke="#000" stroke-width="1" data-conf="0.1232"/>
    <line id="line_0037" x1="315" y1="297" x2="315" y2="387" stroke="#000" stroke-width="1" data-conf="0.1215"/>
    <line id="line_0038" x1="369" y1="279" x2="279" y2="279" stroke="#000" stroke-width="1" data-conf="0.1127"/>
    <line id="line_0039" x1="0" y1="63" x2="72" y2="27" stroke="#000" stroke-width="1" data-conf="0.1108"/>
    <line id="line_0040" x1="315" y1="180" x2="315" y2="261" stroke="#000" stroke-width="1" data-conf="0.1097"/>
    <line id="line_0041" x1="477" y1="144" x2="396" y2="144" stroke="#000" stroke-width="1" data-conf="0.1097"/>
    <line id="line_0042" x1="360" y1="387" x2="360" y2="306" stroke="#000" stroke-width="1" data-conf="0.1080"/>
    <line id="line_0043" x1="594" y1="9" x2="513" y2="9" stroke="#000" stroke-width="1" data-conf="0.1067"/>
    <line id="line_0044" x1="387" y1="180" x2="387" y2="261" stroke="#000" stroke-width="1" data-conf="0.1063"/>
    <line id="line_0045" x1="567" y1="378" x2="567" y2="306" stroke="#000" stroke-width="1" data-conf="0.1013"/>
    <line id="line_0046" x1="0" y1="162" x2="63" y2="144" stroke="#000" stroke-width="1" data-conf="0.0950"/>
    <line id="line_0047" x1="567" y1="243" x2="495" y2="243" stroke="#000" stroke-width="1" data-conf="0.0946"/>
    <line id="line_0048" x1="171" y1="297" x2="243" y2="297" stroke="#000" stroke-width="1" data-conf="0.0945"/>
    <line id="line_0049" x1="576" y1="63" x2="504" y2="63" stroke="#000" stroke-width="1" data-conf="0.0928"/>
    <line id="line_0050" x1="135" y1="207" x2="72" y2="207" stroke="#000" stroke-width="1" data-conf="0.0913"/>
    <line id="line_0051" x1="72" y1="225" x2="135" y2="225" stroke="#000" stroke-width="1" data-conf="0.0913"/>
    <line id="line_0052" x1="72" y1="207" x2="135" y2="207" stroke="#000" stroke-width="1" data-conf="0.0913"/>
    <line id="line_0053" x1="459" y1="297" x2="459" y2="360" stroke="#000" stroke-width="1" data-conf="0.0912"/>
    <line id="line_0054" x1="171" y1="297" x2="171" y2="369" stroke="#000" stroke-width="1" data-conf="0.0912"/>
    <line id="line_0055" x1="90" y1="396" x2="162" y2="396" stroke="#000" stroke-width="1" data-conf="0.0912"/>
    <line id="line_0056" x1="513" y1="54" x2="576" y2="54" stroke="#000" stroke-width="1" data-conf="0.0911"/>
    <line id="line_0057" x1="72" y1="234" x2="135" y2="234" stroke="#000" stroke-width="1" data-conf="0.0896"/>
    <line id="line_0058" x1="135" y1="234" x2="72" y2="234" stroke="#000" stroke-width="1" data-conf="0.0896"/>
    <line id="line_0059" x1="243" y1="180" x2="243" y2="243" stroke="#000" stroke-width="1" data-conf="0.0895"/>
    <line id="line_0060" x1="450" y1="180" x2="450" y2="243" stroke="#000" stroke-width="1" data-conf="0.0895"/>
    <line id="line_0061" x1="432" y1="243" x2="432" y2="180" stroke="#000" stroke-width="1" data-conf="0.0895"/>
    <line id="line_0062" x1="243" y1="297" x2="243" y2="360" stroke="#000" stroke-width="1" data-conf="0.0895"/>
    <line id="line_0063" x1="522" y1="180" x2="522" y2="243" stroke="#000" stroke-width="1" data-conf="0.0894"/>
    <line id="line_0064" x1="54" y1="297" x2="54" y2="360" stroke="#000" stroke-width="1" data-conf="0.0894"/>
    <line id="line_0065" x1="9" y1="72" x2="63" y2="45" stroke="#000" stroke-width="1" data-conf="0.0887"/>
    <line id="line_0066" x1="306" y1="18" x2="369" y2="18" stroke="#000" stroke-width="1" data-conf="0.0879"/>
    <line id="line_0067" x1="144" y1="360" x2="144" y2="297" stroke="#000" stroke-width="1" data-conf="0.0878"/>
    <line id="line_0068" x1="144" y1="252" x2="144" y2="180" stroke="#000" stroke-width="1" data-conf="0.0878"/>
    <line id="line_0069" x1="216" y1="360" x2="216" y2="297" stroke="#000" stroke-width="1" data-conf="0.0878"/>
    <line id="line_0070" x1="153" y1="54" x2="216" y2="54" stroke="#000" stroke-width="1" data-conf="0.0878"/>
    <line id="line_0071" x1="522" y1="297" x2="522" y2="360" stroke="#000" stroke-width="1" data-conf="0.0861"/>
    <line id="line_0072" x1="432" y1="360" x2="432" y2="297" stroke="#000" stroke-width="1" data-conf="0.0861"/>
    <line id="line_0073" x1="216" y1="54" x2="153" y2="54" stroke="#000" stroke-width="1" data-conf="0.0861"/>
    <line id="line_0074" x1="369" y1="54" x2="306" y2="54" stroke="#000" stroke-width="1" data-conf="0.0861"/>
    <line id="line_0075" x1="342" y1="387" x2="342" y2="324" stroke="#000" stroke-width="1" data-conf="0.0844"/>
    <line id="line_0076" x1="216" y1="252" x2="216" y2="189" stroke="#000" stroke-width="1" data-conf="0.0844"/>
    <line id="line_0077" x1="72" y1="297" x2="72" y2="360" stroke="#000" stroke-width="1" data-conf="0.0844"/>
    <line id="line_0078" x1="441" y1="54" x2="504" y2="54" stroke="#000" stroke-width="1" data-conf="0.0844"/>
    <line id="line_0079" x1="504" y1="54" x2="441" y2="54" stroke="#000" stroke-width="1" data-conf="0.0844"/>
    <line id="line_0080" x1="9" y1="297" x2="72" y2="297" stroke="#000" stroke-width="1" data-conf="0.0838"/>
    <line id="line_0081" x1="81" y1="126" x2="108" y2="72" stroke="#000" stroke-width="1" data-conf="0.0831"/>
    <line id="line_0082" x1="18" y1="369" x2="18" y2="306" stroke="#000" stroke-width="1" data-conf="0.0827"/>
    <line id="line_0083" x1="117" y1="72" x2="90" y2="135" stroke="#000" stroke-width="1" data-conf="0.0822"/>
    <line id="line_0084" x1="9" y1="405" x2="63" y2="405" stroke="#000" stroke-width="1" data-conf="0.0822"/>
    <line id="line_0085" x1="171" y1="180" x2="171" y2="243" stroke="#000" stroke-width="1" data-conf="0.0811"/>
    <line id="line_0086" x1="333" y1="324" x2="333" y2="387" stroke="#000" stroke-width="1" data-conf="0.0810"/>
    <line id="line_0087" x1="9" y1="234" x2="9" y2="288" stroke="#000" stroke-width="1" data-conf="0.0793"/>
    <line id="line_0088" x1="9" y1="189" x2="72" y2="189" stroke="#000" stroke-width="1" data-conf="0.0784"/>
    <line id="line_0089" x1="504" y1="243" x2="504" y2="189" stroke="#000" stroke-width="1" data-conf="0.0778"/>
    <line id="line_0090" x1="360" y1="54" x2="306" y2="54" stroke="#000" stroke-width="1" data-conf="0.0777"/>
    <line id="line_0091" x1="162" y1="252" x2="225" y2="252" stroke="#000" stroke-width="1" data-conf="0.0777"/>
    <line id="line_0092" x1="513" y1="252" x2="567" y2="252" stroke="#000" stroke-width="1" data-conf="0.0777"/>
    <line id="line_0093" x1="567" y1="252" x2="513" y2="252" stroke="#000" stroke-width="1" data-conf="0.0777"/>
    <line id="line_0094" x1="378" y1="54" x2="432" y2="54" stroke="#000" stroke-width="1" data-conf="0.0776"/>
    <line id="line_0095" x1="450" y1="243" x2="504" y2="243" stroke="#000" stroke-width="1" data-conf="0.0776"/>
    <line id="line_0096" x1="279" y1="153" x2="333" y2="153" stroke="#000" stroke-width="1" data-conf="0.0776"/>
    <line id="line_0097" x1="279" y1="72" x2="225" y2="72" stroke="#000" stroke-width="1" data-conf="0.0776"/>
    <line id="line_0098" x1="54" y1="45" x2="0" y2="63" stroke="#000" stroke-width="1" data-conf="0.0774"/>
    <line id="line_0099" x1="162" y1="369" x2="225" y2="369" stroke="#000" stroke-width="1" data-conf="0.0760"/>
    <line id="line_0100" x1="162" y1="288" x2="225" y2="288" stroke="#000" stroke-width="1" data-conf="0.0760"/>
    <line id="line_0101" x1="72" y1="405" x2="9" y2="405" stroke="#000" stroke-width="1" data-conf="0.0755"/>
    <line id="line_0102" x1="180" y1="135" x2="126" y2="135" stroke="#000" stroke-width="1" data-conf="0.0743"/>
    <line id="line_0103" x1="27" y1="315" x2="27" y2="369" stroke="#000" stroke-width="1" data-conf="0.0743"/>
    <line id="line_0104" x1="504" y1="117" x2="504" y2="63" stroke="#000" stroke-width="1" data-conf="0.0743"/>
    <line id="line_0105" x1="513" y1="387" x2="567" y2="387" stroke="#000" stroke-width="1" data-conf="0.0743"/>
    <line id="line_0106" x1="216" y1="63" x2="162" y2="63" stroke="#000" stroke-width="1" data-conf="0.0743"/>
    <line id="line_0107" x1="72" y1="54" x2="18" y2="72" stroke="#000" stroke-width="1" data-conf="0.0739"/>
    <line id="line_0108" x1="450" y1="360" x2="504" y2="360" stroke="#000" stroke-width="1" data-conf="0.0726"/>
    <line id="line_0109" x1="504" y1="360" x2="504" y2="306" stroke="#000" stroke-width="1" data-conf="0.0726"/>
    <line id="line_0110" x1="162" y1="171" x2="216" y2="171" stroke="#000" stroke-width="1" data-conf="0.0726"/>
    <line id="line_0111" x1="495" y1="63" x2="441" y2="63" stroke="#000" stroke-width="1" data-conf="0.0726"/>
    <line id="line_0112" x1="405" y1="27" x2="450" y2="27" stroke="#000" stroke-width="1" data-conf="0.0716"/>
    <line id="line_0113" x1="432" y1="54" x2="378" y2="54" stroke="#000" stroke-width="1" data-conf="0.0709"/>
    <line id="line_0114" x1="450" y1="171" x2="504" y2="171" stroke="#000" stroke-width="1" data-conf="0.0709"/>
    <line id="line_0115" x1="315" y1="288" x2="360" y2="288" stroke="#000" stroke-width="1" data-conf="0.0709"/>
    <line id="line_0116" x1="342" y1="153" x2="396" y2="153" stroke="#000" stroke-width="1" data-conf="0.0709"/>
    <line id="line_0117" x1="504" y1="387" x2="450" y2="387" stroke="#000" stroke-width="1" data-conf="0.0709"/>
    <line id="line_0118" x1="504" y1="369" x2="450" y2="369" stroke="#000" stroke-width="1" data-conf="0.0693"/>
    <line id="line_0119" x1="333" y1="117" x2="387" y2="117" stroke="#000" stroke-width="1" data-conf="0.0692"/>
    <line id="line_0120" x1="441" y1="45" x2="495" y2="45" stroke="#000" stroke-width="1" data-conf="0.0692"/>
    <line id="line_0121" x1="360" y1="108" x2="360" y2="54" stroke="#000" stroke-width="1" data-conf="0.0691"/>
    <line id="line_0122" x1="27" y1="153" x2="72" y2="135" stroke="#000" stroke-width="1" data-conf="0.0683"/>
    <line id="line_0123" x1="450" y1="252" x2="396" y2="252" stroke="#000" stroke-width="1" data-conf="0.0676"/>
    <line id="line_0124" x1="441" y1="63" x2="441" y2="108" stroke="#000" stroke-width="1" data-conf="0.0676"/>
    <line id="line_0125" x1="171" y1="72" x2="171" y2="126" stroke="#000" stroke-width="1" data-conf="0.0675"/>
    <line id="line_0126" x1="9" y1="396" x2="63" y2="396" stroke="#000" stroke-width="1" data-conf="0.0660"/>
    <line id="line_0127" x1="225" y1="396" x2="270" y2="396" stroke="#000" stroke-width="1" data-conf="0.0659"/>
    <line id="line_0128" x1="36" y1="81" x2="36" y2="135" stroke="#000" stroke-width="1" data-conf="0.0658"/>
    <line id="line_0129" x1="450" y1="387" x2="504" y2="387" stroke="#000" stroke-width="1" data-conf="0.0658"/>
    <line id="line_0130" x1="423" y1="72" x2="378" y2="72" stroke="#000" stroke-width="1" data-conf="0.0658"/>
    <line id="line_0131" x1="225" y1="36" x2="270" y2="36" stroke="#000" stroke-width="1" data-conf="0.0643"/>
    <line id="line_0132" x1="360" y1="18" x2="414" y2="18" stroke="#000" stroke-width="1" data-conf="0.0642"/>
    <line id="line_0133" x1="207" y1="126" x2="207" y2="72" stroke="#000" stroke-width="1" data-conf="0.0642"/>
    <line id="line_0134" x1="63" y1="90" x2="63" y2="135" stroke="#000" stroke-width="1" data-conf="0.0642"/>
    <line id="line_0135" x1="135" y1="243" x2="90" y2="243" stroke="#000" stroke-width="1" data-conf="0.0642"/>
    <line id="line_0136" x1="18" y1="135" x2="18" y2="81" stroke="#000" stroke-width="1" data-conf="0.0642"/>
    <line id="line_0137" x1="450" y1="72" x2="450" y2="117" stroke="#000" stroke-width="1" data-conf="0.0641"/>
    <line id="line_0138" x1="216" y1="252" x2="162" y2="252" stroke="#000" stroke-width="1" data-conf="0.0641"/>
    <line id="line_0139" x1="9" y1="126" x2="9" y2="81" stroke="#000" stroke-width="1" data-conf="0.0641"/>
    <line id="line_0140" x1="117" y1="45" x2="162" y2="45" stroke="#000" stroke-width="1" data-conf="0.0632"/>
    <line id="line_0141" x1="9" y1="369" x2="54" y2="369" stroke="#000" stroke-width="1" data-conf="0.0632"/>
    <line id="line_0142" x1="234" y1="63" x2="279" y2="63" stroke="#000" stroke-width="1" data-conf="0.0627"/>
    <line id="line_0143" x1="45" y1="423" x2="90" y2="423" stroke="#000" stroke-width="1" data-conf="0.0625"/>
    <line id="line_0144" x1="288" y1="225" x2="288" y2="180" stroke="#000" stroke-width="1" data-conf="0.0625"/>
    <line id="line_0145" x1="486" y1="117" x2="486" y2="72" stroke="#000" stroke-width="1" data-conf="0.0625"/>
    <line id="line_0146" x1="306" y1="63" x2="306" y2="108" stroke="#000" stroke-width="1" data-conf="0.0625"/>
    <line id="line_0147" x1="360" y1="234" x2="360" y2="189" stroke="#000" stroke-width="1" data-conf="0.0625"/>
    <line id="line_0148" x1="351" y1="36" x2="396" y2="36" stroke="#000" stroke-width="1" data-conf="0.0625"/>
    <line id="line_0149" x1="9" y1="171" x2="9" y2="216" stroke="#000" stroke-width="1" data-conf="0.0624"/>
    <line id="line_0150" x1="360" y1="180" x2="315" y2="180" stroke="#000" stroke-width="1" data-conf="0.0624"/>
    <line id="line_0151" x1="9" y1="261" x2="54" y2="261" stroke="#000" stroke-width="1" data-conf="0.0622"/>
    <line id="line_0152" x1="72" y1="27" x2="117" y2="45" stroke="#000" stroke-width="1" data-conf="0.0611"/>
    <line id="line_0153" x1="315" y1="63" x2="360" y2="63" stroke="#000" stroke-width="1" data-conf="0.0608"/>
    <line id="line_0154" x1="63" y1="135" x2="18" y2="135" stroke="#000" stroke-width="1" data-conf="0.0608"/>
    <line id="line_0155" x1="315" y1="108" x2="315" y2="63" stroke="#000" stroke-width="1" data-conf="0.0608"/>
    <line id="line_0156" x1="360" y1="63" x2="360" y2="108" stroke="#000" stroke-width="1" data-conf="0.0591"/>
    <line id="line_0157" x1="216" y1="189" x2="171" y2="189" stroke="#000" stroke-width="1" data-conf="0.0591"/>
    <line id="line_0158" x1="567" y1="225" x2="567" y2="180" stroke="#000" stroke-width="1" data-conf="0.0591"/>
    <line id="line_0159" x1="18" y1="144" x2="63" y2="126" stroke="#000" stroke-width="1" data-conf="0.0587"/>
    <line id="line_0160" x1="171" y1="45" x2="216" y2="45" stroke="#000" stroke-width="1" data-conf="0.0574"/>
    <line id="line_0161" x1="171" y1="306" x2="216" y2="306" stroke="#000" stroke-width="1" data-conf="0.0574"/>
    <line id="line_0162" x1="360" y1="297" x2="315" y2="297" stroke="#000" stroke-width="1" data-conf="0.0574"/>
    <line id="line_0163" x1="216" y1="297" x2="171" y2="297" stroke="#000" stroke-width="1" data-conf="0.0574"/>
    <line id="line_0164" x1="72" y1="126" x2="72" y2="90" stroke="#000" stroke-width="1" data-conf="0.0574"/>
    <line id="line_0165" x1="72" y1="90" x2="72" y2="126" stroke="#000" stroke-width="1" data-conf="0.0574"/>
    <line id="line_0166" x1="495" y1="180" x2="459" y2="180" stroke="#000" stroke-width="1" data-conf="0.0573"/>
    <line id="line_0167" x1="243" y1="216" x2="288" y2="216" stroke="#000" stroke-width="1" data-conf="0.0558"/>
    <line id="line_0168" x1="288" y1="216" x2="243" y2="216" stroke="#000" stroke-width="1" data-conf="0.0558"/>
    <line id="line_0169" x1="360" y1="72" x2="315" y2="72" stroke="#000" stroke-width="1" data-conf="0.0557"/>
    <line id="line_0170" x1="495" y1="297" x2="459" y2="297" stroke="#000" stroke-width="1" data-conf="0.0557"/>
    <line id="line_0171" x1="495" y1="252" x2="459" y2="252" stroke="#000" stroke-width="1" data-conf="0.0557"/>
    <line id="line_0172" x1="270" y1="117" x2="315" y2="117" stroke="#000" stroke-width="1" data-conf="0.0557"/>
    <line id="line_0173" x1="90" y1="45" x2="126" y2="63" stroke="#000" stroke-width="1" data-conf="0.0543"/>
    <line id="line_0174" x1="81" y1="54" x2="117" y2="72" stroke="#000" stroke-width="1" data-conf="0.0543"/>
    <line id="line_0175" x1="567" y1="135" x2="531" y2="135" stroke="#000" stroke-width="1" data-conf="0.0541"/>
    <line id="line_0176" x1="171" y1="126" x2="207" y2="126" stroke="#000" stroke-width="1" data-conf="0.0540"/>
    <line id="line_0177" x1="81" y1="90" x2="81" y2="126" stroke="#000" stroke-width="1" data-conf="0.0540"/>
    <line id="line_0178" x1="450" y1="126" x2="495" y2="126" stroke="#000" stroke-width="1" data-conf="0.0540"/>
    <line id="line_0179" x1="459" y1="306" x2="495" y2="306" stroke="#000" stroke-width="1" data-conf="0.0540"/>
    <line id="line_0180" x1="315" y1="306" x2="360" y2="306" stroke="#000" stroke-width="1" data-conf="0.0540"/>
    <line id="line_0181" x1="387" y1="216" x2="423" y2="216" stroke="#000" stroke-width="1" data-conf="0.0540"/>
    <line id="line_0182" x1="504" y1="63" x2="504" y2="99" stroke="#000" stroke-width="1" data-conf="0.0540"/>
    <line id="line_0183" x1="369" y1="99" x2="369" y2="63" stroke="#000" stroke-width="1" data-conf="0.0540"/>
    <line id="line_0184" x1="369" y1="63" x2="369" y2="108" stroke="#000" stroke-width="1" data-conf="0.0540"/>
    <line id="line_0185" x1="351" y1="180" x2="315" y2="180" stroke="#000" stroke-width="1" data-conf="0.0540"/>
    <line id="line_0186" x1="54" y1="252" x2="18" y2="252" stroke="#000" stroke-width="1" data-conf="0.0536"/>
    <line id="line_0187" x1="468" y1="72" x2="468" y2="117" stroke="#000" stroke-width="1" data-conf="0.0524"/>
    <line id="line_0188" x1="342" y1="180" x2="378" y2="180" stroke="#000" stroke-width="1" data-conf="0.0524"/>
    <line id="line_0189" x1="405" y1="252" x2="441" y2="252" stroke="#000" stroke-width="1" data-conf="0.0524"/>
    <line id="line_0190" x1="567" y1="234" x2="531" y2="234" stroke="#000" stroke-width="1" data-conf="0.0524"/>
    <line id="line_0191" x1="360" y1="117" x2="315" y2="117" stroke="#000" stroke-width="1" data-conf="0.0523"/>
    <line id="line_0192" x1="495" y1="72" x2="450" y2="72" stroke="#000" stroke-width="1" data-conf="0.0523"/>
    <line id="line_0193" x1="315" y1="261" x2="351" y2="261" stroke="#000" stroke-width="1" data-conf="0.0523"/>
    <line id="line_0194" x1="423" y1="225" x2="387" y2="225" stroke="#000" stroke-width="1" data-conf="0.0523"/>
    <line id="line_0195" x1="504" y1="351" x2="504" y2="315" stroke="#000" stroke-width="1" data-conf="0.0523"/>
    <line id="line_0196" x1="315" y1="63" x2="360" y2="63" stroke="#000" stroke-width="1" data-conf="0.0523"/>
    <line id="line_0197" x1="504" y1="234" x2="504" y2="198" stroke="#000" stroke-width="1" data-conf="0.0523"/>
    <line id="line_0198" x1="432" y1="351" x2="432" y2="315" stroke="#000" stroke-width="1" data-conf="0.0523"/>
    <line id="line_0199" x1="27" y1="432" x2="63" y2="432" stroke="#000" stroke-width="1" data-conf="0.0509"/>
    <line id="line_0200" x1="54" y1="126" x2="54" y2="90" stroke="#000" stroke-width="1" data-conf="0.0507"/>
    <line id="line_0201" x1="531" y1="243" x2="567" y2="243" stroke="#000" stroke-width="1" data-conf="0.0507"/>
    <line id="line_0202" x1="531" y1="225" x2="567" y2="225" stroke="#000" stroke-width="1" data-conf="0.0507"/>
    <line id="line_0203" x1="315" y1="72" x2="315" y2="108" stroke="#000" stroke-width="1" data-conf="0.0506"/>
    <line id="line_0204" x1="189" y1="324" x2="189" y2="360" stroke="#000" stroke-width="1" data-conf="0.0506"/>
    <line id="line_0205" x1="477" y1="315" x2="477" y2="360" stroke="#000" stroke-width="1" data-conf="0.0506"/>
    <line id="line_0206" x1="450" y1="63" x2="486" y2="63" stroke="#000" stroke-width="1" data-conf="0.0506"/>
    <line id="line_0207" x1="45" y1="90" x2="45" y2="135" stroke="#000" stroke-width="1" data-conf="0.0499"/>
    <line id="line_0208" x1="261" y1="54" x2="225" y2="54" stroke="#000" stroke-width="1" data-conf="0.0491"/>
    <line id="line_0209" x1="360" y1="108" x2="360" y2="72" stroke="#000" stroke-width="1" data-conf="0.0490"/>
    <line id="line_0210" x1="477" y1="189" x2="477" y2="225" stroke="#000" stroke-width="1" data-conf="0.0490"/>
    <line id="line_0211" x1="342" y1="45" x2="378" y2="45" stroke="#000" stroke-width="1" data-conf="0.0490"/>
    <line id="line_0212" x1="171" y1="63" x2="207" y2="63" stroke="#000" stroke-width="1" data-conf="0.0490"/>
    <line id="line_0213" x1="198" y1="396" x2="162" y2="396" stroke="#000" stroke-width="1" data-conf="0.0490"/>
    <line id="line_0214" x1="18" y1="189" x2="54" y2="189" stroke="#000" stroke-width="1" data-conf="0.0475"/>
    <line id="line_0215" x1="198" y1="360" x2="198" y2="324" stroke="#000" stroke-width="1" data-conf="0.0473"/>
    <line id="line_0216" x1="54" y1="360" x2="54" y2="324" stroke="#000" stroke-width="1" data-conf="0.0473"/>
    <line id="line_0217" x1="477" y1="351" x2="477" y2="315" stroke="#000" stroke-width="1" data-conf="0.0473"/>
    <line id="line_0218" x1="36" y1="360" x2="36" y2="333" stroke="#000" stroke-width="1" data-conf="0.0473"/>
    <line id="line_0219" x1="180" y1="360" x2="180" y2="324" stroke="#000" stroke-width="1" data-conf="0.0473"/>
    <line id="line_0220" x1="459" y1="360" x2="459" y2="324" stroke="#000" stroke-width="1" data-conf="0.0473"/>
    <line id="line_0221" x1="117" y1="63" x2="90" y2="45" stroke="#000" stroke-width="1" data-conf="0.0468"/>
    <line id="line_0222" x1="45" y1="324" x2="45" y2="360" stroke="#000" stroke-width="1" data-conf="0.0456"/>
    <line id="line_0223" x1="36" y1="135" x2="36" y2="99" stroke="#000" stroke-width="1" data-conf="0.0456"/>
    <line id="line_0224" x1="72" y1="252" x2="72" y2="288" stroke="#000" stroke-width="1" data-conf="0.0456"/>
    <line id="line_0225" x1="216" y1="324" x2="216" y2="360" stroke="#000" stroke-width="1" data-conf="0.0456"/>
    <line id="line_0226" x1="27" y1="306" x2="54" y2="306" stroke="#000" stroke-width="1" data-conf="0.0447"/>
    <line id="line_0227" x1="288" y1="162" x2="324" y2="162" stroke="#000" stroke-width="1" data-conf="0.0439"/>
    <line id="line_0228" x1="27" y1="72" x2="54" y2="63" stroke="#000" stroke-width="1" data-conf="0.0439"/>
    <line id="line_0229" x1="495" y1="351" x2="495" y2="324" stroke="#000" stroke-width="1" data-conf="0.0439"/>
    <line id="line_0230" x1="81" y1="432" x2="117" y2="432" stroke="#000" stroke-width="1" data-conf="0.0423"/>
    <line id="line_0231" x1="567" y1="288" x2="567" y2="261" stroke="#000" stroke-width="1" data-conf="0.0422"/>
    <line id="line_0232" x1="342" y1="162" x2="378" y2="162" stroke="#000" stroke-width="1" data-conf="0.0422"/>
    <line id="line_0233" x1="54" y1="99" x2="54" y2="126" stroke="#000" stroke-width="1" data-conf="0.0422"/>
    <line id="line_0234" x1="333" y1="171" x2="360" y2="171" stroke="#000" stroke-width="1" data-conf="0.0422"/>
    <line id="line_0235" x1="126" y1="54" x2="99" y2="54" stroke="#000" stroke-width="1" data-conf="0.0411"/>
    <line id="line_0236" x1="45" y1="414" x2="18" y2="414" stroke="#000" stroke-width="1" data-conf="0.0406"/>
    <line id="line_0237" x1="162" y1="90" x2="162" y2="117" stroke="#000" stroke-width="1" data-conf="0.0405"/>
    <line id="line_0238" x1="216" y1="90" x2="216" y2="63" stroke="#000" stroke-width="1" data-conf="0.0405"/>
    <line id="line_0239" x1="54" y1="126" x2="54" y2="99" stroke="#000" stroke-width="1" data-conf="0.0405"/>
  </g>
  <g id="metadata" data-source="pipeline" data-ortho-width="595" data-ortho-height="441" data-units="px" data-rectification-score="0.5943"/>
</svg>