0
SECTION
2
ENTITIES
0
LWPOLYLINE
8
FACADE_OUTLINE
90
4
70
1
10
0.000000
20
0.000000
10
1024.000000
20
0.000000
10
1024.000000
20
468.000000
10
0.000000
20
468.000000
0
LWPOLYLINE
8
WINDOWS
90
4
70
1
10
121.000000
20
33.000000
10
201.000000
20
33.000000
10
201.000000
20
118.000000
10
121.000000
20
118.000000
0
LWPOLYLINE
8
WINDOWS
90
4
70
1
10
273.000000
20
35.000000
10
360.000000
20
35.000000
10
360.000000
20
110.000000
10
273.000000
20
110.000000
0
LWPOLYLINE
8
WINDOWS
90
4
70
1
10
520.000000
20
38.000000
10
620.000000
20
38.000000
10
620.000000
20
113.000000
10
520.000000
20
113.000000
0
LWPOLYLINE
8
WINDOWS
90
4
70
1
10
665.000000
20
38.000000
10
777.000000
20
38.000000
10
777.000000
20
113.000000
10
665.000000
20
113.000000
0
LWPOLYLINE
8
WINDOWS
90
4
70
1
10
14.000000
20
52.000000
10
44.000000
20
52.000000
10
44.000000
20
88.000000
10
14.000000
20
88.000000
0
LWPOLYLINE
8
WINDOWS
90
4
70
1
10
147.000000
20
54.000000
10
176.000000
20
54.000000
10
176.000000
20
89.000000
10
147.000000
20
89.000000
0
LWPOLYLINE
8
WINDOWS
90
4
70
1
10
313.000000
20
57.000000
10
342.000000
20
57.000000
10
342.000000
20
92.000000
10
313.000000
20
92.000000
0
LWPOLYLINE
8
WINDOWS
90
4
70
1
10
436.000000
20
57.000000
10
470.000000
20
57.000000
10
470.000000
20
99.000000
10
436.000000
20
99.000000
0
LWPOLYLINE
8
WINDOWS
90
4
70
1
10
576.000000
20
59.000000
10
608.000000
20
59.000000
10
608.000000
20
99.000000
10
576.000000
20
99.000000
0
LWPOLYLINE
8
WINDOWS
90
4
70
1
10
894.000000
20
59.000000
10
929.000000
20
59.000000
10
929.000000
20
102.000000
10
894.000000
20
102.000000
0
LWPOLYLINE
8
WINDOWS
90
4
70
1
10
732.000000
20
60.000000
10
764.000000
20
60.000000
10
764.000000
20
100.000000
10
732.000000
20
100.000000
0
LWPOLYLINE
8
WINDOWS
90
4
70
1
10
774.000000
20
140.000000
10
1024.000000
20
140.000000
10
1024.000000
20
467.000000
10
774.000000
20
467.000000
0
LWPOLYLINE
8
WINDOWS
90
4
70
1
10
68.000000
20
164.000000
10
196.000000
20
164.000000
10
196.000000
20
249.000000
10
68.000000
20
249.000000
0
LWPOLYLINE
8
WINDOWS
90
4
70
1
10
0.000000
20
166.000000
10
64.000000
20
166.000000
10
64.000000
20
249.000000
10
0.000000
20
249.000000
0
LWPOLYLINE
8
WINDOWS
90
4
70
1
10
214.000000
20
166.000000
10
276.000000
20
166.000000
10
276.000000
20
251.000000
10
214.000000
20
251.000000
0
LWPOLYLINE
8
WINDOWS
90
4
70
1
10
302.000000
20
166.000000
10
968.000000
20
166.000000
10
968.000000
20
467.000000
10
302.000000
20
467.000000
0
LWPOLYLINE
8
WINDOWS
90
4
70
1
10
364.000000
20
166.000000
10
425.000000
20
166.000000
10
425.000000
20
249.000000
10
364.000000
20
249.000000
0
LWPOLYLINE
8
WINDOWS
90
4
70
1
10
572.000000
20
166.000000
10
636.000000
20
166.000000
10
636.000000
20
262.000000
10
572.000000
20
262.000000
0
LWPOLYLINE
8
WINDOWS
90
4
70
1
10
641.000000
20
166.000000
10
705.000000
20
166.000000
10
705.000000
20
257.000000
10
641.000000
20
257.000000
0
LWPOLYLINE
8
WINDOWS
90
4
70
1
10
294.000000
20
168.000000
10
355.000000
20
168.000000
10
355.000000
20
254.000000
10
294.000000
20
254.000000
0
LWPOLYLINE
8
WINDOWS
90
4
70
1
10
731.000000
20
168.000000
10
796.000000
20
168.000000
10
796.000000
20
251.000000
10
731.000000
20
251.000000
0
LWPOLYLINE
8
WINDOWS
90
4
70
1
10
822.000000
20
169.000000
10
886.000000
20
169.000000
10
886.000000
20
251.000000
10
822.000000
20
251.000000
0
LWPOLYLINE
8
WINDOWS
90
4
70
1
10
312.000000
20
172.000000
10
344.000000
20
172.000000
10
344.000000
20
236.000000
10
312.000000
20
236.000000
0
LWPOLYLINE
8
WINDOWS
90
4
70
1
10
227.000000
20
174.000000
10
264.000000
20
174.000000
10
264.000000
20
243.000000
10
227.000000
20
243.000000
0
LWPOLYLINE
8
WINDOWS
90
4
70
1
10
652.000000
20
192.000000
10
684.000000
20
192.000000
10
684.000000
20
243.000000
10
652.000000
20
243.000000
0
LWPOLYLINE
8
WINDOWS
90
4
70
1
10
46.000000
20
265.000000
10
270.000000
20
265.000000
10
270.000000
20
467.000000
10
46.000000
20
467.000000
0
LWPOLYLINE
8
WINDOWS
90
4
70
1
10
726.000000
20
268.000000
10
803.000000
20
268.000000
10
803.000000
20
348.000000
10
726.000000
20
348.000000
0
LWPOLYLINE
8
WINDOWS
90
4
70
1
10
824.000000
20
268.000000
10
888.000000
20
268.000000
10
888.000000
20
355.000000
10
824.000000
20
355.000000
0
LWPOLYLINE
8
WINDOWS
90
4
70
1
10
289.000000
20
270.000000
10
355.000000
20
270.000000
10
355.000000
20
360.000000
10
289.000000
20
360.000000
0
LWPOLYLINE
8
WINDOWS
90
4
70
1
10
364.000000
20
270.000000
10
425.000000
20
270.000000
10
425.000000
20
356.000000
10
364.000000
20
356.000000
0
LWPOLYLINE
8
WINDOWS
90
4
70
1
10
643.000000
20
270.000000
10
705.000000
20
270.000000
10
705.000000
20
358.000000
10
643.000000
20
358.000000
0
LWPOLYLINE
8
WINDOWS
90
4
70
1
10
897.000000
20
270.000000
10
963.000000
20
270.000000
10
963.000000
20
353.000000
10
897.000000
20
353.000000
0
LWPOLYLINE
8
WINDOWS
90
4
70
1
10
145.000000
20
275.000000
10
188.000000
20
275.000000
10
188.000000
20
344.000000
10
145.000000
20
344.000000
0
LWPOLYLINE
8
WINDOWS
90
4
70
1
10
833.000000
20
275.000000
10
873.000000
20
275.000000
10
873.000000
20
345.000000
10
833.000000
20
345.000000
0
LWPOLYLINE
8
WINDOWS
90
4
70
1
10
374.000000
20
276.000000
10
414.000000
20
276.000000
10
414.000000
20
347.000000
10
374.000000
20
347.000000
0
LWPOLYLINE
8
WINDOWS
90
4
70
1
10
206.000000
20
313.000000
10
296.000000
20
313.000000
10
296.000000
20
348.000000
10
206.000000
20
348.000000
0
LWPOLYLINE
8
WINDOWS
90
4
70
1
10
81.000000
20
396.000000
10
124.000000
20
396.000000
10
124.000000
20
467.000000
10
81.000000
20
467.000000
0
LWPOLYLINE
8
WINDOWS
90
4
70
1
10
289.000000
20
396.000000
10
419.000000
20
396.000000
10
419.000000
20
449.000000
10
289.000000
20
449.000000
0
LWPOLYLINE
8
WINDOWS
90
4
70
1
10
652.000000
20
396.000000
10
718.000000
20
396.000000
10
718.000000
20
467.000000
10
652.000000
20
467.000000
0
LWPOLYLINE
8
WINDOWS
90
4
70
1
10
913.000000
20
404.000000
10
944.000000
20
404.000000
10
944.000000
20
440.000000
10
913.000000
20
440.000000
0
LWPOLYLINE
8
DOORS
90
4
70
1
10
0.000000
20
270.000000
10
65.000000
20
270.000000
10
65.000000
20
467.000000
10
0.000000
20
467.000000
0
LWPOLYLINE
8
DOORS
90
4
70
1
10
11.000000
20
275.000000
10
57.000000
20
275.000000
10
57.000000
20
433.000000
10
11.000000
20
433.000000
0
LINE
8
LINES
10
572.000000
20
270.000000
30
0.0
11
988.000000
21
270.000000
31
0.0
0
LINE
8
LINES
10
51.000000
20
129.000000
30
0.0
11
464.000000
21
129.000000
31
0.0
0
LINE
8
LINES
10
625.000000
20
129.000000
30
0.0
11
1017.000000
21
129.000000
31
0.0
0
LINE
8
LINES
10
331.000000
20
14.000000
30
0.0
11
587.000000
21
14.000000
31
0.0
0
LINE
8
LINES
10
252.000000
20
265.000000
30
0.0
11
494.000000
21
265.000000
31
0.0
0
LINE
8
LINES
10
3.000000
20
265.000000
30
0.0
11
241.000000
21
265.000000
31
0.0
0
LINE
8
LINES
10
499.000000
20
166.000000
30
0.0
11
499.000000
21
379.000000
31
0.0
0
LINE
8
LINES
10
499.000000
20
377.000000
30
0.0
11
499.000000
21
168.000000
31
0.0
0
LINE
8
LINES
10
921.000000
20
465.000000
30
0.0
11
718.000000
21
465.000000
31
0.0
0
LINE
8
LINES
10
993.000000
20
179.000000
30
0.0
11
993.000000
21
377.000000
31
0.0
0
LINE
8
LINES
10
497.000000
20
382.000000
30
0.0
11
312.000000
21
382.000000
31
0.0
0
LINE
8
LINES
10
318.000000
20
377.000000
30
0.0
11
497.000000
21
377.000000
31
0.0
0
LINE
8
LINES
10
988.000000
20
382.000000
30
0.0
11
811.000000
21
382.000000
31
0.0
0
LINE
8
LINES
10
830.000000
20
379.000000
30
0.0
11
987.000000
21
379.000000
31
0.0
0
LINE
8
LINES
10
593.000000
20
14.000000
30
0.0
11
742.000000
21
14.000000
31
0.0
0
LINE
8
LINES
10
32.000000
20
9.000000
30
0.0
11
158.000000
21
9.000000
31
0.0
0
LINE
8
LINES
10
238.000000
20
161.000000
30
0.0
11
110.000000
21
161.000000
31
0.0
0
LINE
8
LINES
10
161.000000
20
270.000000
30
0.0
11
35.000000
21
270.000000
31
0.0
0
LINE
8
LINES
10
894.000000
20
443.000000
30
0.0
11
771.000000
21
443.000000
31
0.0
0
LINE
8
LINES
10
990.000000
20
377.000000
30
0.0
11
990.000000
21
270.000000
31
0.0
0
LINE
8
LINES
10
611.000000
20
382.000000
30
0.0
11
504.000000
21
382.000000
31
0.0
0
LINE
8
LINES
10
504.000000
20
377.000000
30
0.0
11
609.000000
21
377.000000
31
0.0
0
LINE
8
LINES
10
518.000000
20
131.000000
30
0.0
11
622.000000
21
131.000000
31
0.0
0
LINE
8
LINES
10
753.000000
20
12.000000
30
0.0
11
841.000000
21
54.000000
31
0.0
0
LINE
8
LINES
10
700.000000
20
371.000000
30
0.0
11
793.000000
21
356.000000
31
0.0
0
LINE
8
LINES
10
710.000000
20
382.000000
30
0.0
11
617.000000
21
382.000000
31
0.0
0
LINE
8
LINES
10
990.000000
20
268.000000
30
0.0
11
990.000000
21
179.000000
31
0.0
0
LINE
8
LINES
10
147.000000
20
382.000000
30
0.0
11
60.000000
21
382.000000
31
0.0
0
LINE
8
LINES
10
825.000000
20
62.000000
30
0.0
11
905.000000
21
28.000000
31
0.0
0
LINE
8
LINES
10
1.000000
20
180.000000
30
0.0
11
1.000000
21
267.000000
31
0.0
0
LINE
8
LINES
10
60.000000
20
377.000000
30
0.0
11
147.000000
21
377.000000
31
0.0
0
LINE
8
LINES
10
617.000000
20
377.000000
30
0.0
11
704.000000
21
377.000000
31
0.0
0
LINE
8
LINES
10
307.000000
20
433.000000
30
0.0
11
222.000000
21
433.000000
31
0.0
0
LINE
8
LINES
10
526.000000
20
425.000000
30
0.0
11
611.000000
21
425.000000
31
0.0
0
LINE
8
LINES
10
371.000000
20
366.000000
30
0.0
11
371.000000
21
286.000000
31
0.0
0
LINE
8
LINES
10
3.000000
20
382.000000
30
0.0
11
3.000000
21
462.000000
31
0.0
0
LINE
8
LINES
10
502.000000
20
267.000000
30
0.0
11
582.000000
21
267.000000
31
0.0
0
LINE
8
LINES
10
947.000000
20
99.000000
30
0.0
11
1022.000000
21
118.000000
31
0.0
0
LINE
8
LINES
10
619.000000
20
422.000000
30
0.0
11
696.000000
21
422.000000
31
0.0
0
LINE
8
LINES
10
403.000000
20
446.000000
30
0.0
11
328.000000
21
446.000000
31
0.0
0
LINE
8
LINES
10
904.000000
20
366.000000
30
0.0
11
904.000000
21
291.000000
31
0.0
0
LINE
8
LINES
10
1.000000
20
281.000000
30
0.0
11
1.000000
21
352.000000
31
0.0
0
LINE
8
LINES
10
828.000000
20
72.000000
30
0.0
11
892.000000
21
44.000000
31
0.0
0
LINE
8
LINES
10
321.000000
20
161.000000
30
0.0
11
252.000000
21
161.000000
31
0.0
0
LINE
8
LINES
10
318.000000
20
270.000000
30
0.0
11
251.000000
21
270.000000
31
0.0
0
LINE
8
LINES
10
876.000000
20
456.000000
30
0.0
11
942.000000
21
449.000000
31
0.0
0
LINE
8
LINES
10
771.000000
20
438.000000
30
0.0
11
707.000000
21
428.000000
31
0.0
0
LINE
8
LINES
10
846.000000
20
270.000000
30
0.0
11
780.000000
21
270.000000
31
0.0
0
LINE
8
LINES
10
1.000000
20
449.000000
30
0.0
11
1.000000
21
384.000000
31
0.0
0
LINE
8
LINES
10
755.000000
20
270.000000
30
0.0
11
691.000000
21
270.000000
31
0.0
0
LINE
8
LINES
10
241.000000
20
268.000000
30
0.0
11
177.000000
21
268.000000
31
0.0
0
LINE
8
LINES
10
726.000000
20
454.000000
30
0.0
11
790.000000
21
454.000000
31
0.0
0
LINE
8
LINES
10
486.000000
20
286.000000
30
0.0
11
486.000000
21
348.000000
31
0.0
0
LINE
8
LINES
10
216.000000
20
438.000000
30
0.0
11
216.000000
21
376.000000
31
0.0
0
LINE
8
LINES
10
904.000000
20
241.000000
30
0.0
11
904.000000
21
179.000000
31
0.0
0
LINE
8
LINES
10
830.000000
20
238.000000
30
0.0
11
830.000000
21
179.000000
31
0.0
0
LINE
8
LINES
10
300.000000
20
238.000000
30
0.0
11
300.000000
21
179.000000
31
0.0
0
LINE
8
LINES
10
649.000000
20
353.000000
30
0.0
11
649.000000
21
292.000000
31
0.0
0
LINE
8
LINES
10
752.000000
20
163.000000
30
0.0
11
691.000000
21
163.000000
31
0.0
0
LINE
8
LINES
10
49.000000
20
286.000000
30
0.0
11
49.000000
21
347.000000
31
0.0
0
LINE
8
LINES
10
124.000000
20
188.000000
30
0.0
11
124.000000
21
246.000000
31
0.0
0
LINE
8
LINES
10
502.000000
20
382.000000
30
0.0
11
502.000000
21
441.000000
31
0.0
0
LINE
8
LINES
10
830.000000
20
350.000000
30
0.0
11
830.000000
21
291.000000
31
0.0
0
LINE
8
LINES
10
718.000000
20
44.000000
30
0.0
11
777.000000
21
44.000000
31
0.0
0
LINE
8
LINES
10
1.000000
20
110.000000
30
0.0
11
59.000000
21
110.000000
31
0.0
0
LINE
8
LINES
10
737.000000
20
243.000000
30
0.0
11
737.000000
21
187.000000
31
0.0
0
LINE
8
LINES
10
841.000000
20
163.000000
30
0.0
11
782.000000
21
163.000000
31
0.0
0
LINE
8
LINES
10
161.000000
20
16.000000
30
0.0
11
217.000000
21
16.000000
31
0.0
0
LINE
8
LINES
10
648.000000
20
243.000000
30
0.0
11
648.000000
21
187.000000
31
0.0
0
LINE
8
LINES
10
188.000000
20
188.000000
30
0.0
11
188.000000
21
243.000000
31
0.0
0
LINE
8
LINES
10
417.000000
20
292.000000
30
0.0
11
417.000000
21
348.000000
31
0.0
0
LINE
8
LINES
10
134.000000
20
41.000000
30
0.0
11
188.000000
21
41.000000
31
0.0
0
LINE
8
LINES
10
739.000000
20
348.000000
30
0.0
11
739.000000
21
292.000000
31
0.0
0
LINE
8
LINES
10
208.000000
20
432.000000
30
0.0
11
208.000000
21
377.000000
31
0.0
0
LINE
8
LINES
10
136.000000
20
110.000000
30
0.0
11
190.000000
21
110.000000
31
0.0
0
LINE
8
LINES
10
512.000000
20
339.000000
30
0.0
11
512.000000
21
286.000000
31
0.0
0
LINE
8
LINES
10
876.000000
20
292.000000
30
0.0
11
876.000000
21
347.000000
31
0.0
0
LINE
8
LINES
10
347.000000
20
187.000000
30
0.0
11
347.000000
21
241.000000
31
0.0
0
LINE
8
LINES
10
625.000000
20
187.000000
30
0.0
11
625.000000
21
241.000000
31
0.0
0
LINE
8
LINES
10
499.000000
20
436.000000
30
0.0
11
499.000000
21
382.000000
31
0.0
0
LINE
8
LINES
10
371.000000
20
241.000000
30
0.0
11
371.000000
21
187.000000
31
0.0
0
LINE
8
LINES
10
76.000000
20
241.000000
30
0.0
11
76.000000
21
187.000000
31
0.0
0
LINE
8
LINES
10
950.000000
20
292.000000
30
0.0
11
950.000000
21
347.000000
31
0.0
0
LINE
8
LINES
10
556.000000
20
187.000000
30
0.0
11
556.000000
21
241.000000
31
0.0
0
LINE
8
LINES
10
57.000000
20
188.000000
30
0.0
11
57.000000
21
241.000000
31
0.0
0
LINE
8
LINES
10
57.000000
20
294.000000
30
0.0
11
57.000000
21
348.000000
31
0.0
0
LINE
8
LINES
10
9.000000
20
241.000000
30
0.0
11
9.000000
21
187.000000
31
0.0
0
LINE
8
LINES
10
950.000000
20
185.000000
30
0.0
11
950.000000
21
238.000000
31
0.0
0
LINE
8
LINES
10
387.000000
20
161.000000
30
0.0
11
334.000000
21
161.000000
31
0.0
0
LINE
8
LINES
10
124.000000
20
294.000000
30
0.0
11
124.000000
21
348.000000
31
0.0
0
LINE
8
LINES
10
486.000000
20
187.000000
30
0.0
11
486.000000
21
241.000000
31
0.0
0
LINE
8
LINES
10
417.000000
20
187.000000
30
0.0
11
417.000000
21
241.000000
31
0.0
0
LINE
8
LINES
10
347.000000
20
294.000000
30
0.0
11
347.000000
21
348.000000
31
0.0
0
LINE
8
LINES
10
694.000000
20
292.000000
30
0.0
11
694.000000
21
347.000000
31
0.0
0
LINE
8
LINES
10
785.000000
20
187.000000
30
0.0
11
785.000000
21
241.000000
31
0.0
0
LINE
8
LINES
10
9.000000
20
348.000000
30
0.0
11
9.000000
21
294.000000
31
0.0
0
LINE
8
LINES
10
3.000000
20
40.000000
30
0.0
11
57.000000
21
40.000000
31
0.0
0
LINE
8
LINES
10
833.000000
20
73.000000
30
0.0
11
878.000000
21
100.000000
31
0.0
0
LINE
8
LINES
10
252.000000
20
454.000000
30
0.0
11
201.000000
21
454.000000
31
0.0
0
LINE
8
LINES
10
142.000000
20
241.000000
30
0.0
11
142.000000
21
188.000000
31
0.0
0
LINE
8
LINES
10
220.000000
20
238.000000
30
0.0
11
220.000000
21
187.000000
31
0.0
0
LINE
8
LINES
10
78.000000
20
348.000000
30
0.0
11
78.000000
21
296.000000
31
0.0
0
LINE
8
LINES
10
694.000000
20
187.000000
30
0.0
11
694.000000
21
238.000000
31
0.0
0
LINE
8
LINES
10
876.000000
20
187.000000
30
0.0
11
876.000000
21
238.000000
31
0.0
0
LINE
8
LINES
10
556.000000
20
294.000000
30
0.0
11
556.000000
21
347.000000
31
0.0
0
LINE
8
LINES
10
387.000000
20
270.000000
30
0.0
11
334.000000
21
270.000000
31
0.0
0
LINE
8
LINES
10
566.000000
20
44.000000
30
0.0
11
617.000000
21
44.000000
31
0.0
0
LINE
8
LINES
10
996.000000
20
380.000000
30
0.0
11
996.000000
21
433.000000
31
0.0
0
LINE
8
LINES
10
92.000000
20
161.000000
30
0.0
11
41.000000
21
161.000000
31
0.0
0
LINE
8
LINES
10
971.000000
20
443.000000
30
0.0
11
1022.000000
21
433.000000
31
0.0
0
LINE
8
LINES
10
441.000000
20
337.000000
30
0.0
11
441.000000
21
286.000000
31
0.0
0
LINE
8
LINES
10
672.000000
20
73.000000
30
0.0
11
716.000000
21
49.000000
31
0.0
0
LINE
8
LINES
10
236.000000
20
12.000000
30
0.0
11
286.000000
21
12.000000
31
0.0
0
LINE
8
LINES
10
923.000000
20
270.000000
30
0.0
11
872.000000
21
270.000000
31
0.0
0
LINE
8
LINES
10
723.000000
20
49.000000
30
0.0
11
678.000000
21
72.000000
31
0.0
0
LINE
8
LINES
10
881.000000
20
54.000000
30
0.0
11
835.000000
21
72.000000
31
0.0
0
LINE
8
LINES
10
409.000000
20
297.000000
30
0.0
11
409.000000
21
347.000000
31
0.0
0
LINE
8
LINES
10
777.000000
20
296.000000
30
0.0
11
777.000000
21
345.000000
31
0.0
0
LINE
8
LINES
10
873.000000
20
51.000000
30
0.0
11
827.000000
21
68.000000
31
0.0
0
LINE
8
LINES
10
676.000000
20
73.000000
30
0.0
11
718.000000
21
100.000000
31
0.0
0
LINE
8
LINES
10
886.000000
20
112.000000
30
0.0
11
934.000000
21
112.000000
31
0.0
0
LINE
8
LINES
10
596.000000
20
270.000000
30
0.0
11
547.000000
21
270.000000
31
0.0
0
LINE
8
LINES
10
430.000000
20
44.000000
30
0.0
11
478.000000
21
44.000000
31
0.0
0
LINE
8
LINES
10
990.000000
20
433.000000
30
0.0
11
990.000000
21
384.000000
31
0.0
0
LINE
8
LINES
10
910.000000
20
344.000000
30
0.0
11
910.000000
21
296.000000
31
0.0
0
LINE
8
LINES
10
182.000000
20
297.000000
30
0.0
11
182.000000
21
347.000000
31
0.0
0
LINE
8
LINES
10
9.000000
20
243.000000
30
0.0
11
57.000000
21
243.000000
31
0.0
0
LINE
8
LINES
10
222.000000
20
318.000000
30
0.0
11
268.000000
21
312.000000
31
0.0
0
LINE
8
LINES
10
454.000000
20
270.000000
30
0.0
11
406.000000
21
270.000000
31
0.0
0
LINE
8
LINES
10
454.000000
20
163.000000
30
0.0
11
406.000000
21
163.000000
31
0.0
0
LINE
8
LINES
10
307.000000
20
238.000000
30
0.0
11
307.000000
21
192.000000
31
0.0
0
LINE
8
LINES
10
57.000000
20
246.000000
30
0.0
11
11.000000
21
246.000000
31
0.0
0
LINE
8
LINES
10
745.000000
20
238.000000
30
0.0
11
745.000000
21
192.000000
31
0.0
0
LINE
8
LINES
10
739.000000
20
243.000000
30
0.0
11
787.000000
21
243.000000
31
0.0
0
LINE
8
LINES
10
867.000000
20
192.000000
30
0.0
11
867.000000
21
238.000000
31
0.0
0
LINE
8
LINES
10
828.000000
20
243.000000
30
0.0
11
876.000000
21
243.000000
31
0.0
0
LINE
8
LINES
10
688.000000
20
297.000000
30
0.0
11
688.000000
21
345.000000
31
0.0
0
LINE
8
LINES
10
76.000000
20
243.000000
30
0.0
11
124.000000
21
243.000000
31
0.0
0
LINE
8
LINES
10
142.000000
20
243.000000
30
0.0
11
188.000000
21
243.000000
31
0.0
0
LINE
8
LINES
10
17.000000
20
238.000000
30
0.0
11
17.000000
21
192.000000
31
0.0
0
LINE
8
LINES
10
942.000000
20
297.000000
30
0.0
11
942.000000
21
345.000000
31
0.0
0
LINE
8
LINES
10
78.000000
20
352.000000
30
0.0
11
126.000000
21
352.000000
31
0.0
0
LINE
8
LINES
10
548.000000
20
297.000000
30
0.0
11
548.000000
21
345.000000
31
0.0
0
LINE
8
LINES
10
17.000000
20
347.000000
30
0.0
11
17.000000
21
299.000000
31
0.0
0
LINE
8
LINES
10
547.000000
20
190.000000
30
0.0
11
547.000000
21
238.000000
31
0.0
0
LINE
8
LINES
10
910.000000
20
238.000000
30
0.0
11
910.000000
21
190.000000
31
0.0
0
LINE
8
LINES
10
83.000000
20
238.000000
30
0.0
11
83.000000
21
192.000000
31
0.0
0
LINE
8
LINES
10
526.000000
20
73.000000
30
0.0
11
564.000000
21
46.000000
31
0.0
0
LINE
8
LINES
10
150.000000
20
444.000000
30
0.0
11
150.000000
21
398.000000
31
0.0
0
LINE
8
LINES
10
19.000000
20
449.000000
30
0.0
11
19.000000
21
403.000000
31
0.0
0
LINE
8
LINES
10
713.000000
20
48.000000
30
0.0
11
672.000000
21
68.000000
31
0.0
0
LINE
8
LINES
10
691.000000
20
422.000000
30
0.0
11
720.000000
21
460.000000
31
0.0
0
LINE
8
LINES
10
652.000000
20
396.000000
30
0.0
11
699.000000
21
396.000000
31
0.0
0
LINE
8
LINES
10
441.000000
20
396.000000
30
0.0
11
488.000000
21
396.000000
31
0.0
0
LINE
8
LINES
10
907.000000
20
398.000000
30
0.0
11
953.000000
21
398.000000
31
0.0
0
LINE
8
LINES
10
580.000000
20
350.000000
30
0.0
11
580.000000
21
304.000000
31
0.0
0
LINE
8
LINES
10
667.000000
20
270.000000
30
0.0
11
620.000000
21
270.000000
31
0.0
0
LINE
8
LINES
10
587.000000
20
238.000000
30
0.0
11
587.000000
21
192.000000
31
0.0
0
LINE
8
LINES
10
188.000000
20
246.000000
30
0.0
11
142.000000
21
246.000000
31
0.0
0
LINE
8
LINES
10
835.000000
20
238.000000
30
0.0
11
835.000000
21
192.000000
31
0.0
0
LINE
8
LINES
10
446.000000
20
345.000000
30
0.0
11
446.000000
21
299.000000
31
0.0
0
LINE
8
LINES
10
478.000000
20
299.000000
30
0.0
11
478.000000
21
345.000000
31
0.0
0
LINE
8
LINES
10
516.000000
20
238.000000
30
0.0
11
516.000000
21
192.000000
31
0.0
0
LINE
8
LINES
10
377.000000
20
238.000000
30
0.0
11
377.000000
21
192.000000
31
0.0
0
LINE
8
LINES
10
777.000000
20
192.000000
30
0.0
11
777.000000
21
238.000000
31
0.0
0
LINE
8
LINES
10
409.000000
20
192.000000
30
0.0
11
409.000000
21
238.000000
31
0.0
0
LINE
8
LINES
10
123.000000
20
248.000000
30
0.0
11
76.000000
21
248.000000
31
0.0
0
LINE
8
LINES
10
84.000000
20
347.000000
30
0.0
11
84.000000
21
300.000000
31
0.0
0
LINE
8
LINES
10
268.000000
20
246.000000
30
0.0
11
222.000000
21
246.000000
31
0.0
0
LINE
8
LINES
10
656.000000
20
344.000000
30
0.0
11
656.000000
21
297.000000
31
0.0
0
LINE
8
LINES
10
307.000000
20
345.000000
30
0.0
11
307.000000
21
299.000000
31
0.0
0
LINE
8
LINES
10
835.000000
20
344.000000
30
0.0
11
835.000000
21
297.000000
31
0.0
0
LINE
8
LINES
10
377.000000
20
344.000000
30
0.0
11
377.000000
21
297.000000
31
0.0
0
LINE
8
LINES
10
588.000000
20
345.000000
30
0.0
11
588.000000
21
299.000000
31
0.0
0
LINE
8
LINES
10
49.000000
20
193.000000
30
0.0
11
49.000000
21
238.000000
31
0.0
0
LINE
8
LINES
10
446.000000
20
238.000000
30
0.0
11
446.000000
21
192.000000
31
0.0
0
LINE
8
LINES
10
116.000000
20
300.000000
30
0.0
11
116.000000
21
347.000000
31
0.0
0
LINE
8
LINES
10
942.000000
20
192.000000
30
0.0
11
942.000000
21
238.000000
31
0.0
0
LINE
8
LINES
10
868.000000
20
299.000000
30
0.0
11
868.000000
21
345.000000
31
0.0
0
LINE
8
LINES
10
654.000000
20
238.000000
30
0.0
11
654.000000
21
192.000000
31
0.0
0
LINE
8
LINES
10
478.000000
20
192.000000
30
0.0
11
478.000000
21
238.000000
31
0.0
0
LINE
8
LINES
10
686.000000
20
192.000000
30
0.0
11
686.000000
21
238.000000
31
0.0
0
LINE
8
LINES
10
115.000000
20
193.000000
30
0.0
11
115.000000
21
238.000000
31
0.0
0
LINE
8
LINES
10
838.000000
20
75.000000
30
0.0
11
881.000000
21
59.000000
31
0.0
0
LINE
8
LINES
10
467.000000
20
129.000000
30
0.0
11
512.000000
21
129.000000
31
0.0
0
LINE
8
LINES
10
372.000000
20
396.000000
30
0.0
11
417.000000
21
396.000000
31
0.0
0
LINE
8
LINES
10
46.000000
20
465.000000
30
0.0
11
92.000000
21
465.000000
31
0.0
0
LINE
8
LINES
10
268.000000
20
187.000000
30
0.0
11
268.000000
21
232.000000
31
0.0
0
LINE
8
LINES
10
833.000000
20
398.000000
30
0.0
11
878.000000
21
398.000000
31
0.0
0
LINE
8
LINES
10
307.000000
20
41.000000
30
0.0
11
352.000000
21
41.000000
31
0.0
0
LINE
8
LINES
10
57.000000
20
348.000000
30
0.0
11
12.000000
21
348.000000
31
0.0
0
LINE
8
LINES
10
593.000000
20
163.000000
30
0.0
11
548.000000
21
163.000000
31
0.0
0
LINE
8
LINES
10
510.000000
20
243.000000
30
0.0
11
556.000000
21
243.000000
31
0.0
0
LINE
8
LINES
10
441.000000
20
243.000000
30
0.0
11
486.000000
21
243.000000
31
0.0
0
LINE
8
LINES
10
417.000000
20
246.000000
30
0.0
11
371.000000
21
246.000000
31
0.0
0
LINE
8
LINES
10
124.000000
20
355.000000
30
0.0
11
78.000000
21
355.000000
31
0.0
0
LINE
8
LINES
10
441.000000
20
350.000000
30
0.0
11
486.000000
21
350.000000
31
0.0
0
LINE
8
LINES
10
784.000000
20
246.000000
30
0.0
11
739.000000
21
246.000000
31
0.0
0
LINE
8
LINES
10
150.000000
20
345.000000
30
0.0
11
150.000000
21
300.000000
31
0.0
0
LINE
8
LINES
10
371.000000
20
243.000000
30
0.0
11
417.000000
21
243.000000
31
0.0
0
LINE
8
LINES
10
745.000000
20
344.000000
30
0.0
11
745.000000
21
299.000000
31
0.0
0
LINE
8
LINES
10
876.000000
20
246.000000
30
0.0
11
830.000000
21
246.000000
31
0.0
0
LINE
8
LINES
10
180.000000
20
195.000000
30
0.0
11
180.000000
21
241.000000
31
0.0
0
LINE
8
LINES
10
302.000000
20
243.000000
30
0.0
11
347.000000
21
243.000000
31
0.0
0
LINE
8
LINES
10
905.000000
20
243.000000
30
0.0
11
950.000000
21
243.000000
31
0.0
0
LINE
8
LINES
10
619.000000
20
193.000000
30
0.0
11
619.000000
21
238.000000
31
0.0
0
LINE
8
LINES
10
339.000000
20
300.000000
30
0.0
11
339.000000
21
345.000000
31
0.0
0
LINE
8
LINES
10
339.000000
20
193.000000
30
0.0
11
339.000000
21
238.000000
31
0.0
0
LINE
8
LINES
10
401.000000
20
75.000000
30
0.0
11
428.000000
21
108.000000
31
0.0
0
LINE
8
LINES
10
627.000000
20
292.000000
30
0.0
11
627.000000
21
337.000000
31
0.0
0
LINE
8
LINES
10
508.000000
20
243.000000
30
0.0
11
508.000000
21
201.000000
31
0.0
0
LINE
8
LINES
10
140.000000
20
353.000000
30
0.0
11
140.000000
21
308.000000
31
0.0
0
LINE
8
LINES
10
281.000000
20
382.000000
30
0.0
11
281.000000
21
425.000000
31
0.0
0
LINE
8
LINES
10
353.000000
20
452.000000
30
0.0
11
398.000000
21
452.000000
31
0.0
0
LINE
8
LINES
10
515.000000
20
396.000000
30
0.0
11
558.000000
21
396.000000
31
0.0
0
LINE
8
LINES
10
897.000000
20
44.000000
30
0.0
11
940.000000
21
44.000000
31
0.0
0
LINE
8
LINES
10
556.000000
20
246.000000
30
0.0
11
512.000000
21
246.000000
31
0.0
0
LINE
8
LINES
10
518.000000
20
344.000000
30
0.0
11
518.000000
21
300.000000
31
0.0
0
LINE
8
LINES
10
947.000000
20
246.000000
30
0.0
11
904.000000
21
246.000000
31
0.0
0
LINE
8
LINES
10
512.000000
20
350.000000
30
0.0
11
556.000000
21
350.000000
31
0.0
0
LINE
8
LINES
10
907.000000
20
348.000000
30
0.0
11
950.000000
21
348.000000
31
0.0
0
LINE
8
LINES
10
416.000000
20
353.000000
30
0.0
11
371.000000
21
353.000000
31
0.0
0
LINE
8
LINES
10
832.000000
20
348.000000
30
0.0
11
876.000000
21
348.000000
31
0.0
0
LINE
8
LINES
10
372.000000
20
350.000000
30
0.0
11
417.000000
21
350.000000
31
0.0
0
LINE
8
LINES
10
579.000000
20
243.000000
30
0.0
11
579.000000
21
201.000000
31
0.0
0
LINE
8
LINES
10
737.000000
20
108.000000
30
0.0
11
780.000000
21
112.000000
31
0.0
0
LINE
8
LINES
10
707.000000
20
435.000000
30
0.0
11
748.000000
21
435.000000
31
0.0
0
LINE
8
LINES
10
198.000000
20
465.000000
30
0.0
11
241.000000
21
465.000000
31
0.0
0
LINE
8
LINES
10
345.000000
20
246.000000
30
0.0
11
302.000000
21
246.000000
31
0.0
0
LINE
8
LINES
10
483.000000
20
246.000000
30
0.0
11
441.000000
21
246.000000
31
0.0
0
LINE
8
LINES
10
692.000000
20
246.000000
30
0.0
11
651.000000
21
246.000000
31
0.0
0
LINE
8
LINES
10
948.000000
20
352.000000
30
0.0
11
907.000000
21
352.000000
31
0.0
0
LINE
8
LINES
10
150.000000
20
238.000000
30
0.0
11
150.000000
21
196.000000
31
0.0
0
LINE
8
LINES
10
876.000000
20
353.000000
30
0.0
11
833.000000
21
353.000000
31
0.0
0
LINE
8
LINES
10
694.000000
20
353.000000
30
0.0
11
652.000000
21
353.000000
31
0.0
0
LINE
8
LINES
10
556.000000
20
353.000000
30
0.0
11
513.000000
21
353.000000
31
0.0
0
LINE
8
LINES
10
566.000000
20
49.000000
30
0.0
11
531.000000
21
73.000000
31
0.0
0
LINE
8
LINES
10
883.000000
20
60.000000
30
0.0
11
843.000000
21
76.000000
31
0.0
0
LINE
8
LINES
10
956.000000
20
451.000000
30
0.0
11
996.000000
21
451.000000
31
0.0
0
LINE
8
LINES
10
614.000000
20
353.000000
30
0.0
11
614.000000
21
396.000000
31
0.0
0
LINE
8
LINES
10
612.000000
20
396.000000
30
0.0
11
612.000000
21
353.000000
31
0.0
0
LINE
8
LINES
10
944.000000
20
446.000000
30
0.0
11
902.000000
21
446.000000
31
0.0
0
LINE
8
LINES
10
81.000000
20
396.000000
30
0.0
11
123.000000
21
396.000000
31
0.0
0
LINE
8
LINES
10
988.000000
20
270.000000
30
0.0
11
947.000000
21
270.000000
31
0.0
0
LINE
8
LINES
10
483.000000
20
353.000000
30
0.0
11
443.000000
21
353.000000
31
0.0
0
LINE
8
LINES
10
652.000000
20
243.000000
30
0.0
11
694.000000
21
243.000000
31
0.0
0
LINE
8
LINES
10
302.000000
20
156.000000
30
0.0
11
262.000000
21
156.000000
31
0.0
0
LINE
8
LINES
10
558.000000
20
48.000000
30
0.0
11
524.000000
21
70.000000
31
0.0
0
LINE
8
LINES
10
838.000000
20
438.000000
30
0.0
11
838.000000
21
398.000000
31
0.0
0
LINE
8
LINES
10
440.000000
20
241.000000
30
0.0
11
440.000000
21
201.000000
31
0.0
0
LINE
8
LINES
10
49.000000
20
403.000000
30
0.0
11
49.000000
21
443.000000
31
0.0
0
LINE
8
LINES
10
118.000000
20
403.000000
30
0.0
11
118.000000
21
443.000000
31
0.0
0
LINE
8
LINES
10
817.000000
20
396.000000
30
0.0
11
817.000000
21
435.000000
31
0.0
0
LINE
8
LINES
10
662.000000
20
163.000000
30
0.0
11
622.000000
21
163.000000
31
0.0
0
LINE
8
LINES
10
913.000000
20
163.000000
30
0.0
11
873.000000
21
163.000000
31
0.0
0
LINE
8
LINES
10
988.000000
20
163.000000
30
0.0
11
947.000000
21
163.000000
31
0.0
0
LINE
8
LINES
10
739.000000
20
158.000000
30
0.0
11
699.000000
21
158.000000
31
0.0
0
LINE
8
LINES
10
763.000000
20
382.000000
30
0.0
11
801.000000
21
388.000000
31
0.0
0
LINE
8
LINES
10
198.000000
20
377.000000
30
0.0
11
198.000000
21
417.000000
31
0.0
0
LINE
8
LINES
10
785.000000
20
307.000000
30
0.0
11
785.000000
21
347.000000
31
0.0
0
LINE
8
LINES
10
481.000000
20
240.000000
30
0.0
11
443.000000
21
240.000000
31
0.0
0
LINE
8
LINES
10
188.000000
20
446.000000
30
0.0
11
188.000000
21
408.000000
31
0.0
0
LINE
8
LINES
10
713.000000
20
464.000000
30
0.0
11
753.000000
21
464.000000
31
0.0
0
LINE
8
LINES
10
123.000000
20
241.000000
30
0.0
11
83.000000
21
241.000000
31
0.0
0
LINE
8
LINES
10
697.000000
20
259.000000
30
0.0
11
736.000000
21
259.000000
31
0.0
0
LINE
8
LINES
10
584.000000
20
195.000000
30
0.0
11
584.000000
21
233.000000
31
0.0
0
LINE
8
LINES
10
529.000000
20
75.000000
30
0.0
11
558.000000
21
99.000000
31
0.0
0
LINE
8
LINES
10
683.000000
20
76.000000
30
0.0
11
716.000000
21
59.000000
31
0.0
0
LINE
8
LINES
10
534.000000
20
76.000000
30
0.0
11
566.000000
21
56.000000
31
0.0
0
LINE
8
LINES
10
664.000000
20
456.000000
30
0.0
11
627.000000
21
456.000000
31
0.0
0
LINE
8
LINES
10
812.000000
20
444.000000
30
0.0
11
849.000000
21
444.000000
31
0.0
0
LINE
8
LINES
10
449.000000
20
438.000000
30
0.0
11
449.000000
21
401.000000
31
0.0
0
LINE
8
LINES
10
481.000000
20
401.000000
30
0.0
11
481.000000
21
438.000000
31
0.0
0
LINE
8
LINES
10
310.000000
20
396.000000
30
0.0
11
348.000000
21
396.000000
31
0.0
0
LINE
8
LINES
10
713.000000
20
428.000000
30
0.0
11
713.000000
21
390.000000
31
0.0
0
LINE
8
LINES
10
788.000000
20
259.000000
30
0.0
11
827.000000
21
259.000000
31
0.0
0
LINE
8
LINES
10
246.000000
20
316.000000
30
0.0
11
281.000000
21
324.000000
31
0.0
0
LINE
8
LINES
10
252.000000
20
430.000000
30
0.0
11
264.000000
21
465.000000
31
0.0
0
LINE
8
LINES
10
57.000000
20
449.000000
30
0.0
11
94.000000
21
449.000000
31
0.0
0
LINE
8
LINES
10
947.000000
20
401.000000
30
0.0
11
947.000000
21
438.000000
31
0.0
0
LINE
8
LINES
10
86.000000
20
438.000000
30
0.0
11
86.000000
21
403.000000
31
0.0
0
LINE
8
LINES
10
273.000000
20
62.000000
30
0.0
11
297.000000
21
35.000000
31
0.0
0
LINE
8
LINES
10
344.000000
20
240.000000
30
0.0
11
307.000000
21
240.000000
31
0.0
0
LINE
8
LINES
10
198.000000
20
100.000000
30
0.0
11
182.000000
21
68.000000
31
0.0
0
LINE
8
LINES
10
718.000000
20
60.000000
30
0.0
11
686.000000
21
76.000000
31
0.0
0
LINE
8
LINES
10
624.000000
20
278.000000
30
0.0
11
659.000000
21
278.000000
31
0.0
0
LINE
8
LINES
10
286.000000
20
307.000000
30
0.0
11
286.000000
21
273.000000
31
0.0
0
LINE
8
LINES
10
342.000000
20
403.000000
30
0.0
11
342.000000
21
438.000000
31
0.0
0
LINE
8
LINES
10
153.000000
20
396.000000
30
0.0
11
188.000000
21
396.000000
31
0.0
0
LINE
8
LINES
10
392.000000
20
454.000000
30
0.0
11
356.000000
21
454.000000
31
0.0
0
LINE
8
LINES
10
782.000000
20
240.000000
30
0.0
11
747.000000
21
240.000000
31
0.0
0
LINE
8
LINES
10
942.000000
20
240.000000
30
0.0
11
907.000000
21
240.000000
31
0.0
0
LINE
8
LINES
10
944.000000
20
348.000000
30
0.0
11
908.000000
21
348.000000
31
0.0
0
LINE
8
LINES
10
1020.000000
20
355.000000
30
0.0
11
1020.000000
21
321.000000
31
0.0
0
LINE
8
LINES
10
185.000000
20
406.000000
30
0.0
11
185.000000
21
441.000000
31
0.0
0
LINE
8
LINES
10
1006.000000
20
217.000000
30
0.0
11
1006.000000
21
252.000000
31
0.0
0
LINE
8
LINES
10
883.000000
20
460.000000
30
0.0
11
852.000000
21
444.000000
31
0.0
0
LINE
8
LINES
10
320.000000
20
105.000000
30
0.0
11
353.000000
21
112.000000
31
0.0
0
LINE
8
LINES
10
200.000000
20
273.000000
30
0.0
11
204.000000
21
307.000000
31
0.0
0
LINE
8
LINES
10
918.000000
20
459.000000
30
0.0
11
953.000000
21
459.000000
31
0.0
0
LINE
8
LINES
10
873.000000
20
398.000000
30
0.0
11
873.000000
21
433.000000
31
0.0
0
LINE
8
LINES
10
931.000000
20
438.000000
30
0.0
11
897.000000
21
438.000000
31
0.0
0
LINE
8
LINES
10
118.000000
20
348.000000
30
0.0
11
86.000000
21
348.000000
31
0.0
0
LINE
8
LINES
10
395.000000
20
73.000000
30
0.0
11
422.000000
21
51.000000
31
0.0
0
LINE
8
LINES
10
921.000000
20
22.000000
30
0.0
11
950.000000
21
38.000000
31
0.0
0
LINE
8
LINES
10
201.000000
20
345.000000
30
0.0
11
222.000000
21
320.000000
31
0.0
0
LINE
8
LINES
10
270.000000
20
313.000000
30
0.0
11
297.000000
21
331.000000
31
0.0
0
LINE
8
LINES
10
299.000000
20
41.000000
30
0.0
11
276.000000
21
65.000000
31
0.0
0
LINE
8
LINES
10
345.000000
20
353.000000
30
0.0
11
313.000000
21
353.000000
31
0.0
0
LINE
8
LINES
10
182.000000
20
355.000000
30
0.0
11
148.000000
21
352.000000
31
0.0
0
LINE
8
LINES
10
380.000000
20
435.000000
30
0.0
11
380.000000
21
403.000000
31
0.0
0
LINE
8
LINES
10
46.000000
20
88.000000
30
0.0
11
12.000000
21
88.000000
31
0.0
0
LINE
8
LINES
10
270.000000
20
465.000000
30
0.0
11
302.000000
21
465.000000
31
0.0
0
LINE
8
LINES
10
313.000000
20
91.000000
30
0.0
11
313.000000
21
57.000000
31
0.0
0
LINE
8
LINES
10
691.000000
20
348.000000
30
0.0
11
657.000000
21
348.000000
31
0.0
0
LINE
8
LINES
10
868.000000
20
348.000000
30
0.0
11
836.000000
21
348.000000
31
0.0
0
LINE
8
LINES
10
625.000000
20
246.000000
30
0.0
11
593.000000
21
246.000000
31
0.0
0
LINE
8
LINES
10
1020.000000
20
294.000000
30
0.0
11
1020.000000
21
262.000000
31
0.0
0
LINE
8
LINES
10
147.000000
20
86.000000
30
0.0
11
147.000000
21
56.000000
31
0.0
0
LINE
8
LINES
10
14.000000
20
86.000000
30
0.0
11
14.000000
21
54.000000
31
0.0
0
LINE
8
LINES
10
579.000000
20
92.000000
30
0.0
11
579.000000
21
60.000000
31
0.0
0
LINE
8
LINES
10
425.000000
20
406.000000
30
0.0
11
425.000000
21
436.000000
31
0.0
0
LINE
8
LINES
10
174.000000
20
57.000000
30
0.0
11
174.000000
21
88.000000
31
0.0
0
LINE
8
LINES
10
174.000000
20
89.000000
30
0.0
11
142.000000
21
89.000000
31
0.0
0
LINE
8
LINES
10
734.000000
20
92.000000
30
0.0
11
734.000000
21
62.000000
31
0.0
0
LINE
8
LINES
10
44.000000
20
54.000000
30
0.0
11
44.000000
21
86.000000
31
0.0
0
LINE
8
LINES
10
900.000000
20
92.000000
30
0.0
11
900.000000
21
62.000000
31
0.0
0
LINE
8
LINES
10
766.000000
20
94.000000
30
0.0
11
736.000000
21
94.000000
31
0.0
0
LINE
8
LINES
10
467.000000
20
60.000000
30
0.0
11
467.000000
21
92.000000
31
0.0
0
LINE
8
LINES
10
340.000000
20
91.000000
30
0.0
11
308.000000
21
91.000000
31
0.0
0
LINE
8
LINES
10
942.000000
20
438.000000
30
0.0
11
942.000000
21
406.000000
31
0.0
0
LINE
8
LINES
10
944.000000
20
404.000000
30
0.0
11
913.000000
21
404.000000
31
0.0
0
LINE
8
LINES
10
185.000000
20
382.000000
30
0.0
11
153.000000
21
382.000000
31
0.0
0
LINE
8
LINES
10
57.000000
20
384.000000
30
0.0
11
25.000000
21
384.000000
31
0.0
0
LINE
8
LINES
10
25.000000
20
369.000000
30
0.0
11
57.000000
21
369.000000
31
0.0
0
LINE
8
LINES
10
604.000000
20
60.000000
30
0.0
11
604.000000
21
92.000000
31
0.0
0
LINE
8
LINES
10
409.000000
20
240.000000
30
0.0
11
377.000000
21
240.000000
31
0.0
0
LINE
8
LINES
10
25.000000
20
395.000000
30
0.0
11
57.000000
21
395.000000
31
0.0
0
LINE
8
LINES
10
761.000000
20
62.000000
30
0.0
11
761.000000
21
92.000000
31
0.0
0
LINE
8
LINES
10
779.000000
20
348.000000
30
0.0
11
748.000000
21
348.000000
31
0.0
0
LINE
8
LINES
10
593.000000
20
243.000000
30
0.0
11
625.000000
21
243.000000
31
0.0
0
LINE
8
LINES
10
57.000000
20
393.000000
30
0.0
11
25.000000
21
393.000000
31
0.0
0
LINE
8
LINES
10
153.000000
20
377.000000
30
0.0
11
185.000000
21
377.000000
31
0.0
0
LINE
8
LINES
10
180.000000
20
406.000000
30
0.0
11
180.000000
21
436.000000
31
0.0
0
LINE
8
LINES
10
425.000000
20
54.000000
30
0.0
11
401.000000
21
73.000000
31
0.0
0
LINE
8
LINES
10
382.000000
20
441.000000
30
0.0
11
412.000000
21
448.000000
31
0.0
0
LINE
8
LINES
10
401.000000
20
59.000000
30
0.0
11
424.000000
21
38.000000
31
0.0
0
LINE
8
LINES
10
563.000000
20
60.000000
30
0.0
11
537.000000
21
76.000000
31
0.0
0
LINE
8
LINES
10
192.000000
20
294.000000
30
0.0
11
188.000000
21
324.000000
31
0.0
0
LINE
8
LINES
10
726.000000
20
457.000000
30
0.0
11
704.000000
21
436.000000
31
0.0
0
LINE
8
LINES
10
441.000000
20
92.000000
30
0.0
11
441.000000
21
62.000000
31
0.0
0
LINE
8
LINES
10
339.000000
20
59.000000
30
0.0
11
339.000000
21
89.000000
31
0.0
0
LINE
8
LINES
10
841.000000
20
406.000000
30
0.0
11
841.000000
21
436.000000
31
0.0
0
LINE
8
LINES
10
868.000000
20
436.000000
30
0.0
11
868.000000
21
406.000000
31
0.0
0
LINE
8
LINES
10
33.000000
20
268.000000
30
0.0
11
3.000000
21
268.000000
31
0.0
0
LINE
8
LINES
10
409.000000
20
348.000000
30
0.0
11
379.000000
21
348.000000
31
0.0
0
LINE
8
LINES
10
57.000000
20
376.000000
30
0.0
11
27.000000
21
376.000000
31
0.0
0
LINE
8
LINES
10
926.000000
20
62.000000
30
0.0
11
926.000000
21
92.000000
31
0.0
0
LINE
8
LINES
10
686.000000
20
240.000000
30
0.0
11
657.000000
21
240.000000
31
0.0
0
LINE
8
LINES
10
302.000000
20
412.000000
30
0.0
11
302.000000
21
382.000000
31
0.0
0
LINE
8
LINES
10
806.000000
20
158.000000
30
0.0
11
777.000000
21
158.000000
31
0.0
0
LINE
8
LINES
10
867.000000
20
240.000000
30
0.0
11
836.000000
21
240.000000
31
0.0
0
LINE
8
LINES
10
48.000000
20
241.000000
30
0.0
11
17.000000
21
241.000000
31
0.0
0
ENDSEC
0
EOF
