<svg xmlns="http://www.w3.org/2000/svg" viewBox="0 0 507 474" width="507" height="474">
  <rect x="0" y="0" width="507" height="474" fill="#fff"/>
  <g id="facade_outline">
    <polygon id="facade_0001" points="0,0 507,0 507,474 0,474" stroke="#000" stroke-width="2" fill="none"/>
  </g>
  <g id="openings_windows">
  </g>
  <g id="openings_doors">
  </g>
  <g id="lines">
    <line id="line_0001" x1="60" y1="360" x2="496" y2="360" stroke="#000" stroke-width="1" data-conf="0.6251"/>
    <line id="line_0002" x1="324" y1="116" x2="56" y2="116" stroke="#000" stroke-width="1" data-conf="0.3872"/>
    <line id="line_0003" x1="60" y1="296" x2="328" y2="296" stroke="#000" stroke-width="1" data-conf="0.3819"/>
    <line id="line_0004" x1="328" y1="304" x2="60" y2="304" stroke="#000" stroke-width="1" data-conf="0.3818"/>
    <line id="line_0005" x1="328" y1="372" x2="88" y2="372" stroke="#000" stroke-width="1" data-conf="0.3495"/>
    <line id="line_0006" x1="288" y1="192" x2="56" y2="192" stroke="#000" stroke-width="1" data-conf="0.3300"/>
    <line id="line_0007" x1="92" y1="104" x2="320" y2="104" stroke="#000" stroke-width="1" data-conf="0.3260"/>
    <line id="line_0008" x1="316" y1="100" x2="92" y2="100" stroke="#000" stroke-width="1" data-conf="0.3242"/>
    <line id="line_0009" x1="316" y1="80" x2="120" y2="0" stroke="#000" stroke-width="1" data-conf="0.3047"/>
    <line id="line_0010" x1="507" y1="156" x2="312" y2="88" stroke="#000" stroke-width="1" data-conf="0.2949"/>
    <line id="line_0011" x1="328" y1="300" x2="488" y2="300" stroke="#000" stroke-width="1" data-conf="0.2287"/>
    <line id="line_0012" x1="56" y1="36" x2="212" y2="36" stroke="#000" stroke-width="1" data-conf="0.2234"/>
    <line id="line_0013" x1="464" y1="304" x2="332" y2="304" stroke="#000" stroke-width="1" data-conf="0.1928"/>
    <line id="line_0014" x1="368" y1="400" x2="484" y2="400" stroke="#000" stroke-width="1" data-conf="0.1675"/>
    <line id="line_0015" x1="464" y1="184" x2="352" y2="184" stroke="#000" stroke-width="1" data-conf="0.1640"/>
    <line id="line_0016" x1="332" y1="120" x2="332" y2="232" stroke="#000" stroke-width="1" data-conf="0.1621"/>
    <line id="line_0017" x1="60" y1="88" x2="168" y2="88" stroke="#000" stroke-width="1" data-conf="0.1567"/>
    <line id="line_0018" x1="464" y1="188" x2="352" y2="188" stroke="#000" stroke-width="1" data-conf="0.1567"/>
    <line id="line_0019" x1="328" y1="180" x2="216" y2="180" stroke="#000" stroke-width="1" data-conf="0.1549"/>
    <line id="line_0020" x1="0" y1="456" x2="100" y2="456" stroke="#000" stroke-width="1" data-conf="0.1442"/>
    <line id="line_0021" x1="232" y1="188" x2="324" y2="220" stroke="#000" stroke-width="1" data-conf="0.1435"/>
    <line id="line_0022" x1="464" y1="372" x2="368" y2="372" stroke="#000" stroke-width="1" data-conf="0.1405"/>
    <line id="line_0023" x1="16" y1="352" x2="16" y2="264" stroke="#000" stroke-width="1" data-conf="0.1315"/>
    <line id="line_0024" x1="324" y1="184" x2="232" y2="184" stroke="#000" stroke-width="1" data-conf="0.1315"/>
    <line id="line_0025" x1="8" y1="264" x2="8" y2="352" stroke="#000" stroke-width="1" data-conf="0.1297"/>
    <line id="line_0026" x1="328" y1="272" x2="328" y2="184" stroke="#000" stroke-width="1" data-conf="0.1279"/>
    <line id="line_0027" x1="216" y1="88" x2="304" y2="88" stroke="#000" stroke-width="1" data-conf="0.1261"/>
    <line id="line_0028" x1="16" y1="456" x2="16" y2="368" stroke="#000" stroke-width="1" data-conf="0.1226"/>
    <line id="line_0029" x1="368" y1="388" x2="452" y2="388" stroke="#000" stroke-width="1" data-conf="0.1225"/>
    <line id="line_0030" x1="16" y1="260" x2="16" y2="176" stroke="#000" stroke-width="1" data-conf="0.1225"/>
    <line id="line_0031" x1="448" y1="392" x2="368" y2="392" stroke="#000" stroke-width="1" data-conf="0.1189"/>
    <line id="line_0032" x1="56" y1="180" x2="56" y2="264" stroke="#000" stroke-width="1" data-conf="0.1189"/>
    <line id="line_0033" x1="320" y1="464" x2="400" y2="464" stroke="#000" stroke-width="1" data-conf="0.1172"/>
    <line id="line_0034" x1="184" y1="92" x2="104" y2="92" stroke="#000" stroke-width="1" data-conf="0.1153"/>
    <line id="line_0035" x1="176" y1="384" x2="256" y2="384" stroke="#000" stroke-width="1" data-conf="0.1135"/>
    <line id="line_0036" x1="12" y1="372" x2="12" y2="448" stroke="#000" stroke-width="1" data-conf="0.1118"/>
    <line id="line_0037" x1="180" y1="396" x2="256" y2="396" stroke="#000" stroke-width="1" data-conf="0.1063"/>
    <line id="line_0038" x1="468" y1="264" x2="468" y2="192" stroke="#000" stroke-width="1" data-conf="0.1045"/>
    <line id="line_0039" x1="312" y1="96" x2="240" y2="96" stroke="#000" stroke-width="1" data-conf="0.1045"/>
    <line id="line_0040" x1="32" y1="172" x2="32" y2="244" stroke="#000" stroke-width="1" data-conf="0.1027"/>
    <line id="line_0041" x1="256" y1="396" x2="324" y2="396" stroke="#000" stroke-width="1" data-conf="0.0954"/>
    <line id="line_0042" x1="256" y1="388" x2="324" y2="388" stroke="#000" stroke-width="1" data-conf="0.0954"/>
    <line id="line_0043" x1="144" y1="112" x2="80" y2="112" stroke="#000" stroke-width="1" data-conf="0.0919"/>
    <line id="line_0044" x1="256" y1="272" x2="256" y2="212" stroke="#000" stroke-width="1" data-conf="0.0901"/>
    <line id="line_0045" x1="80" y1="272" x2="80" y2="212" stroke="#000" stroke-width="1" data-conf="0.0866"/>
    <line id="line_0046" x1="152" y1="212" x2="152" y2="272" stroke="#000" stroke-width="1" data-conf="0.0864"/>
    <line id="line_0047" x1="320" y1="104" x2="376" y2="104" stroke="#000" stroke-width="1" data-conf="0.0850"/>
    <line id="line_0048" x1="16" y1="168" x2="16" y2="108" stroke="#000" stroke-width="1" data-conf="0.0846"/>
    <line id="line_0049" x1="240" y1="216" x2="240" y2="272" stroke="#000" stroke-width="1" data-conf="0.0846"/>
    <line id="line_0050" x1="332" y1="240" x2="332" y2="296" stroke="#000" stroke-width="1" data-conf="0.0829"/>
    <line id="line_0051" x1="324" y1="176" x2="264" y2="176" stroke="#000" stroke-width="1" data-conf="0.0829"/>
    <line id="line_0052" x1="64" y1="216" x2="64" y2="272" stroke="#000" stroke-width="1" data-conf="0.0829"/>
    <line id="line_0053" x1="352" y1="232" x2="352" y2="288" stroke="#000" stroke-width="1" data-conf="0.0828"/>
    <line id="line_0054" x1="452" y1="412" x2="452" y2="468" stroke="#000" stroke-width="1" data-conf="0.0811"/>
    <line id="line_0055" x1="436" y1="180" x2="380" y2="180" stroke="#000" stroke-width="1" data-conf="0.0811"/>
    <line id="line_0056" x1="56" y1="92" x2="56" y2="36" stroke="#000" stroke-width="1" data-conf="0.0811"/>
    <line id="line_0057" x1="316" y1="392" x2="260" y2="392" stroke="#000" stroke-width="1" data-conf="0.0811"/>
    <line id="line_0058" x1="408" y1="180" x2="464" y2="180" stroke="#000" stroke-width="1" data-conf="0.0810"/>
    <line id="line_0059" x1="328" y1="360" x2="328" y2="304" stroke="#000" stroke-width="1" data-conf="0.0793"/>
    <line id="line_0060" x1="232" y1="392" x2="176" y2="392" stroke="#000" stroke-width="1" data-conf="0.0793"/>
    <line id="line_0061" x1="8" y1="268" x2="8" y2="216" stroke="#000" stroke-width="1" data-conf="0.0757"/>
    <line id="line_0062" x1="184" y1="220" x2="184" y2="272" stroke="#000" stroke-width="1" data-conf="0.0739"/>
    <line id="line_0063" x1="96" y1="268" x2="96" y2="216" stroke="#000" stroke-width="1" data-conf="0.0738"/>
    <line id="line_0064" x1="380" y1="420" x2="432" y2="420" stroke="#000" stroke-width="1" data-conf="0.0722"/>
    <line id="line_0065" x1="236" y1="128" x2="236" y2="176" stroke="#000" stroke-width="1" data-conf="0.0721"/>
    <line id="line_0066" x1="60" y1="264" x2="60" y2="216" stroke="#000" stroke-width="1" data-conf="0.0721"/>
    <line id="line_0067" x1="136" y1="308" x2="184" y2="308" stroke="#000" stroke-width="1" data-conf="0.0704"/>
    <line id="line_0068" x1="496" y1="228" x2="496" y2="276" stroke="#000" stroke-width="1" data-conf="0.0703"/>
    <line id="line_0069" x1="496" y1="280" x2="496" y2="232" stroke="#000" stroke-width="1" data-conf="0.0703"/>
    <line id="line_0070" x1="328" y1="180" x2="328" y2="132" stroke="#000" stroke-width="1" data-conf="0.0703"/>
    <line id="line_0071" x1="152" y1="408" x2="152" y2="456" stroke="#000" stroke-width="1" data-conf="0.0703"/>
    <line id="line_0072" x1="60" y1="304" x2="60" y2="352" stroke="#000" stroke-width="1" data-conf="0.0703"/>
    <line id="line_0073" x1="260" y1="360" x2="260" y2="312" stroke="#000" stroke-width="1" data-conf="0.0703"/>
    <line id="line_0074" x1="212" y1="464" x2="260" y2="464" stroke="#000" stroke-width="1" data-conf="0.0685"/>
    <line id="line_0075" x1="88" y1="172" x2="136" y2="172" stroke="#000" stroke-width="1" data-conf="0.0685"/>
    <line id="line_0076" x1="232" y1="168" x2="232" y2="120" stroke="#000" stroke-width="1" data-conf="0.0685"/>
    <line id="line_0077" x1="104" y1="208" x2="152" y2="208" stroke="#000" stroke-width="1" data-conf="0.0673"/>
    <line id="line_0078" x1="188" y1="172" x2="188" y2="124" stroke="#000" stroke-width="1" data-conf="0.0667"/>
    <line id="line_0079" x1="136" y1="176" x2="184" y2="176" stroke="#000" stroke-width="1" data-conf="0.0666"/>
    <line id="line_0080" x1="324" y1="172" x2="324" y2="128" stroke="#000" stroke-width="1" data-conf="0.0648"/>
    <line id="line_0081" x1="8" y1="208" x2="8" y2="256" stroke="#000" stroke-width="1" data-conf="0.0648"/>
    <line id="line_0082" x1="60" y1="128" x2="60" y2="172" stroke="#000" stroke-width="1" data-conf="0.0630"/>
    <line id="line_0083" x1="88" y1="380" x2="128" y2="380" stroke="#000" stroke-width="1" data-conf="0.0615"/>
    <line id="line_0084" x1="496" y1="452" x2="496" y2="412" stroke="#000" stroke-width="1" data-conf="0.0613"/>
    <line id="line_0085" x1="168" y1="272" x2="168" y2="232" stroke="#000" stroke-width="1" data-conf="0.0612"/>
    <line id="line_0086" x1="228" y1="288" x2="272" y2="288" stroke="#000" stroke-width="1" data-conf="0.0612"/>
    <line id="line_0087" x1="172" y1="88" x2="212" y2="88" stroke="#000" stroke-width="1" data-conf="0.0595"/>
    <line id="line_0088" x1="328" y1="320" x2="328" y2="360" stroke="#000" stroke-width="1" data-conf="0.0594"/>
    <line id="line_0089" x1="384" y1="424" x2="384" y2="464" stroke="#000" stroke-width="1" data-conf="0.0594"/>
    <line id="line_0090" x1="352" y1="176" x2="392" y2="176" stroke="#000" stroke-width="1" data-conf="0.0594"/>
    <line id="line_0091" x1="276" y1="224" x2="276" y2="264" stroke="#000" stroke-width="1" data-conf="0.0594"/>
    <line id="line_0092" x1="424" y1="468" x2="424" y2="428" stroke="#000" stroke-width="1" data-conf="0.0577"/>
    <line id="line_0093" x1="220" y1="168" x2="220" y2="128" stroke="#000" stroke-width="1" data-conf="0.0577"/>
    <line id="line_0094" x1="280" y1="320" x2="280" y2="360" stroke="#000" stroke-width="1" data-conf="0.0576"/>
    <line id="line_0095" x1="184" y1="264" x2="184" y2="224" stroke="#000" stroke-width="1" data-conf="0.0576"/>
    <line id="line_0096" x1="188" y1="320" x2="188" y2="360" stroke="#000" stroke-width="1" data-conf="0.0576"/>
    <line id="line_0097" x1="448" y1="216" x2="448" y2="256" stroke="#000" stroke-width="1" data-conf="0.0575"/>
    <line id="line_0098" x1="372" y1="272" x2="372" y2="236" stroke="#000" stroke-width="1" data-conf="0.0560"/>
    <line id="line_0099" x1="424" y1="232" x2="424" y2="272" stroke="#000" stroke-width="1" data-conf="0.0559"/>
    <line id="line_0100" x1="496" y1="156" x2="496" y2="192" stroke="#000" stroke-width="1" data-conf="0.0559"/>
    <line id="line_0101" x1="296" y1="232" x2="296" y2="272" stroke="#000" stroke-width="1" data-conf="0.0558"/>
    <line id="line_0102" x1="208" y1="232" x2="208" y2="272" stroke="#000" stroke-width="1" data-conf="0.0558"/>
    <line id="line_0103" x1="392" y1="176" x2="428" y2="176" stroke="#000" stroke-width="1" data-conf="0.0558"/>
    <line id="line_0104" x1="100" y1="92" x2="60" y2="92" stroke="#000" stroke-width="1" data-conf="0.0558"/>
    <line id="line_0105" x1="352" y1="188" x2="352" y2="224" stroke="#000" stroke-width="1" data-conf="0.0558"/>
    <line id="line_0106" x1="392" y1="172" x2="392" y2="136" stroke="#000" stroke-width="1" data-conf="0.0558"/>
    <line id="line_0107" x1="268" y1="288" x2="228" y2="288" stroke="#000" stroke-width="1" data-conf="0.0558"/>
    <line id="line_0108" x1="144" y1="96" x2="180" y2="96" stroke="#000" stroke-width="1" data-conf="0.0558"/>
    <line id="line_0109" x1="236" y1="184" x2="276" y2="184" stroke="#000" stroke-width="1" data-conf="0.0558"/>
    <line id="line_0110" x1="104" y1="432" x2="104" y2="392" stroke="#000" stroke-width="1" data-conf="0.0543"/>
    <line id="line_0111" x1="452" y1="468" x2="492" y2="468" stroke="#000" stroke-width="1" data-conf="0.0541"/>
    <line id="line_0112" x1="260" y1="432" x2="260" y2="396" stroke="#000" stroke-width="1" data-conf="0.0541"/>
    <line id="line_0113" x1="100" y1="320" x2="100" y2="360" stroke="#000" stroke-width="1" data-conf="0.0541"/>
    <line id="line_0114" x1="140" y1="284" x2="176" y2="284" stroke="#000" stroke-width="1" data-conf="0.0541"/>
    <line id="line_0115" x1="120" y1="232" x2="120" y2="272" stroke="#000" stroke-width="1" data-conf="0.0540"/>
    <line id="line_0116" x1="180" y1="432" x2="180" y2="396" stroke="#000" stroke-width="1" data-conf="0.0540"/>
    <line id="line_0117" x1="284" y1="272" x2="284" y2="232" stroke="#000" stroke-width="1" data-conf="0.0540"/>
    <line id="line_0118" x1="108" y1="272" x2="108" y2="232" stroke="#000" stroke-width="1" data-conf="0.0540"/>
    <line id="line_0119" x1="212" y1="272" x2="212" y2="232" stroke="#000" stroke-width="1" data-conf="0.0540"/>
    <line id="line_0120" x1="364" y1="184" x2="400" y2="184" stroke="#000" stroke-width="1" data-conf="0.0540"/>
    <line id="line_0121" x1="300" y1="272" x2="300" y2="236" stroke="#000" stroke-width="1" data-conf="0.0523"/>
    <line id="line_0122" x1="144" y1="460" x2="180" y2="460" stroke="#000" stroke-width="1" data-conf="0.0523"/>
    <line id="line_0123" x1="312" y1="232" x2="312" y2="272" stroke="#000" stroke-width="1" data-conf="0.0523"/>
    <line id="line_0124" x1="440" y1="144" x2="440" y2="180" stroke="#000" stroke-width="1" data-conf="0.0523"/>
    <line id="line_0125" x1="416" y1="272" x2="416" y2="236" stroke="#000" stroke-width="1" data-conf="0.0522"/>
    <line id="line_0126" x1="408" y1="240" x2="408" y2="272" stroke="#000" stroke-width="1" data-conf="0.0522"/>
    <line id="line_0127" x1="124" y1="268" x2="124" y2="232" stroke="#000" stroke-width="1" data-conf="0.0522"/>
    <line id="line_0128" x1="276" y1="172" x2="276" y2="136" stroke="#000" stroke-width="1" data-conf="0.0522"/>
    <line id="line_0129" x1="424" y1="424" x2="388" y2="424" stroke="#000" stroke-width="1" data-conf="0.0508"/>
    <line id="line_0130" x1="132" y1="232" x2="132" y2="268" stroke="#000" stroke-width="1" data-conf="0.0506"/>
    <line id="line_0131" x1="24" y1="36" x2="24" y2="0" stroke="#000" stroke-width="1" data-conf="0.0505"/>
    <line id="line_0132" x1="400" y1="272" x2="400" y2="240" stroke="#000" stroke-width="1" data-conf="0.0505"/>
    <line id="line_0133" x1="196" y1="272" x2="196" y2="236" stroke="#000" stroke-width="1" data-conf="0.0504"/>
    <line id="line_0134" x1="236" y1="232" x2="236" y2="268" stroke="#000" stroke-width="1" data-conf="0.0504"/>
    <line id="line_0135" x1="352" y1="132" x2="352" y2="168" stroke="#000" stroke-width="1" data-conf="0.0504"/>
    <line id="line_0136" x1="272" y1="232" x2="272" y2="268" stroke="#000" stroke-width="1" data-conf="0.0504"/>
    <line id="line_0137" x1="496" y1="188" x2="496" y2="152" stroke="#000" stroke-width="1" data-conf="0.0487"/>
    <line id="line_0138" x1="24" y1="168" x2="24" y2="204" stroke="#000" stroke-width="1" data-conf="0.0487"/>
    <line id="line_0139" x1="92" y1="232" x2="92" y2="264" stroke="#000" stroke-width="1" data-conf="0.0486"/>
    <line id="line_0140" x1="148" y1="232" x2="148" y2="264" stroke="#000" stroke-width="1" data-conf="0.0486"/>
    <line id="line_0141" x1="180" y1="232" x2="180" y2="264" stroke="#000" stroke-width="1" data-conf="0.0486"/>
    <line id="line_0142" x1="436" y1="332" x2="436" y2="364" stroke="#000" stroke-width="1" data-conf="0.0473"/>
    <line id="line_0143" x1="56" y1="0" x2="56" y2="32" stroke="#000" stroke-width="1" data-conf="0.0471"/>
    <line id="line_0144" x1="332" y1="424" x2="364" y2="424" stroke="#000" stroke-width="1" data-conf="0.0469"/>
    <line id="line_0145" x1="188" y1="276" x2="220" y2="276" stroke="#000" stroke-width="1" data-conf="0.0468"/>
    <line id="line_0146" x1="280" y1="276" x2="312" y2="276" stroke="#000" stroke-width="1" data-conf="0.0468"/>
    <line id="line_0147" x1="288" y1="240" x2="288" y2="272" stroke="#000" stroke-width="1" data-conf="0.0468"/>
    <line id="line_0148" x1="332" y1="416" x2="364" y2="416" stroke="#000" stroke-width="1" data-conf="0.0468"/>
    <line id="line_0149" x1="136" y1="264" x2="136" y2="232" stroke="#000" stroke-width="1" data-conf="0.0468"/>
    <line id="line_0150" x1="292" y1="272" x2="292" y2="240" stroke="#000" stroke-width="1" data-conf="0.0468"/>
    <line id="line_0151" x1="4" y1="232" x2="4" y2="264" stroke="#000" stroke-width="1" data-conf="0.0468"/>
    <line id="line_0152" x1="224" y1="264" x2="224" y2="232" stroke="#000" stroke-width="1" data-conf="0.0468"/>
    <line id="line_0153" x1="312" y1="268" x2="312" y2="232" stroke="#000" stroke-width="1" data-conf="0.0468"/>
    <line id="line_0154" x1="432" y1="312" x2="464" y2="312" stroke="#000" stroke-width="1" data-conf="0.0468"/>
    <line id="line_0155" x1="96" y1="348" x2="96" y2="312" stroke="#000" stroke-width="1" data-conf="0.0468"/>
    <line id="line_0156" x1="20" y1="32" x2="12" y2="0" stroke="#000" stroke-width="1" data-conf="0.0462"/>
    <line id="line_0157" x1="16" y1="0" x2="24" y2="32" stroke="#000" stroke-width="1" data-conf="0.0459"/>
    <line id="line_0158" x1="400" y1="212" x2="432" y2="216" stroke="#000" stroke-width="1" data-conf="0.0453"/>
    <line id="line_0159" x1="280" y1="312" x2="312" y2="312" stroke="#000" stroke-width="1" data-conf="0.0452"/>
    <line id="line_0160" x1="168" y1="360" x2="168" y2="328" stroke="#000" stroke-width="1" data-conf="0.0452"/>
    <line id="line_0161" x1="396" y1="312" x2="428" y2="312" stroke="#000" stroke-width="1" data-conf="0.0451"/>
    <line id="line_0162" x1="220" y1="280" x2="188" y2="280" stroke="#000" stroke-width="1" data-conf="0.0451"/>
    <line id="line_0163" x1="364" y1="428" x2="332" y2="428" stroke="#000" stroke-width="1" data-conf="0.0451"/>
    <line id="line_0164" x1="364" y1="456" x2="332" y2="456" stroke="#000" stroke-width="1" data-conf="0.0451"/>
    <line id="line_0165" x1="32" y1="416" x2="32" y2="448" stroke="#000" stroke-width="1" data-conf="0.0451"/>
    <line id="line_0166" x1="392" y1="280" x2="424" y2="280" stroke="#000" stroke-width="1" data-conf="0.0450"/>
    <line id="line_0167" x1="232" y1="176" x2="264" y2="176" stroke="#000" stroke-width="1" data-conf="0.0450"/>
    <line id="line_0168" x1="332" y1="456" x2="364" y2="456" stroke="#000" stroke-width="1" data-conf="0.0450"/>
    <line id="line_0169" x1="432" y1="288" x2="464" y2="288" stroke="#000" stroke-width="1" data-conf="0.0450"/>
    <line id="line_0170" x1="92" y1="136" x2="64" y2="128" stroke="#000" stroke-width="1" data-conf="0.0439"/>
    <line id="line_0171" x1="504" y1="188" x2="504" y2="156" stroke="#000" stroke-width="1" data-conf="0.0437"/>
    <line id="line_0172" x1="192" y1="208" x2="224" y2="208" stroke="#000" stroke-width="1" data-conf="0.0436"/>
    <line id="line_0173" x1="308" y1="280" x2="280" y2="280" stroke="#000" stroke-width="1" data-conf="0.0433"/>
    <line id="line_0174" x1="280" y1="232" x2="312" y2="232" stroke="#000" stroke-width="1" data-conf="0.0433"/>
    <line id="line_0175" x1="332" y1="432" x2="360" y2="432" stroke="#000" stroke-width="1" data-conf="0.0433"/>
    <line id="line_0176" x1="492" y1="200" x2="492" y2="228" stroke="#000" stroke-width="1" data-conf="0.0433"/>
    <line id="line_0177" x1="464" y1="292" x2="432" y2="292" stroke="#000" stroke-width="1" data-conf="0.0433"/>
    <line id="line_0178" x1="424" y1="280" x2="392" y2="280" stroke="#000" stroke-width="1" data-conf="0.0432"/>
    <line id="line_0179" x1="100" y1="272" x2="128" y2="272" stroke="#000" stroke-width="1" data-conf="0.0432"/>
    <line id="line_0180" x1="332" y1="408" x2="360" y2="408" stroke="#000" stroke-width="1" data-conf="0.0432"/>
    <line id="line_0181" x1="144" y1="152" x2="144" y2="120" stroke="#000" stroke-width="1" data-conf="0.0432"/>
    <line id="line_0182" x1="60" y1="96" x2="92" y2="96" stroke="#000" stroke-width="1" data-conf="0.0432"/>
    <line id="line_0183" x1="184" y1="328" x2="184" y2="360" stroke="#000" stroke-width="1" data-conf="0.0432"/>
    <line id="line_0184" x1="384" y1="292" x2="352" y2="292" stroke="#000" stroke-width="1" data-conf="0.0432"/>
    <line id="line_0185" x1="352" y1="288" x2="384" y2="288" stroke="#000" stroke-width="1" data-conf="0.0432"/>
    <line id="line_0186" x1="240" y1="248" x2="240" y2="220" stroke="#000" stroke-width="1" data-conf="0.0432"/>
  </g>
  <g id="metadata" data-source="pipeline" data-ortho-width="507" data-ortho-height="474" data-units="px" data-rectification-score="0.4574"/>
</svg>