0
SECTION
2
ENTITIES
0
LWPOLYLINE
8
FACADE_OUTLINE
90
4
70
1
10
0.000000
20
0.000000
10
529.000000
20
0.000000
10
529.000000
20
365.000000
10
0.000000
20
365.000000
0
LWPOLYLINE
8
WINDOWS
90
4
70
1
10
510.000000
20
0.000000
10
529.000000
20
0.000000
10
529.000000
20
33.000000
10
510.000000
20
33.000000
0
LWPOLYLINE
8
WINDOWS
90
4
70
1
10
0.000000
20
38.000000
10
529.000000
20
38.000000
10
529.000000
20
364.000000
10
0.000000
20
364.000000
0
LWPOLYLINE
8
WINDOWS
90
4
70
1
10
473.000000
20
72.000000
10
505.000000
20
72.000000
10
505.000000
20
94.000000
10
473.000000
20
94.000000
0
LWPOLYLINE
8
WINDOWS
90
4
70
1
10
510.000000
20
72.000000
10
529.000000
20
72.000000
10
529.000000
20
99.000000
10
510.000000
20
99.000000
0
LWPOLYLINE
8
WINDOWS
90
4
70
1
10
132.000000
20
94.000000
10
163.000000
20
94.000000
10
163.000000
20
145.000000
10
132.000000
20
145.000000
0
LWPOLYLINE
8
WINDOWS
90
4
70
1
10
369.000000
20
94.000000
10
398.000000
20
94.000000
10
398.000000
20
147.000000
10
369.000000
20
147.000000
0
LWPOLYLINE
8
WINDOWS
90
4
70
1
10
110.000000
20
153.000000
10
166.000000
20
153.000000
10
166.000000
20
216.000000
10
110.000000
20
216.000000
0
LWPOLYLINE
8
WINDOWS
90
4
70
1
10
382.000000
20
166.000000
10
412.000000
20
166.000000
10
412.000000
20
198.000000
10
382.000000
20
198.000000
0
LWPOLYLINE
8
WINDOWS
90
4
70
1
10
345.000000
20
169.000000
10
361.000000
20
169.000000
10
361.000000
20
198.000000
10
345.000000
20
198.000000
0
LWPOLYLINE
8
WINDOWS
90
4
70
1
10
78.000000
20
281.000000
10
97.000000
20
281.000000
10
97.000000
20
304.000000
10
78.000000
20
304.000000
0
LWPOLYLINE
8
WINDOWS
90
4
70
1
10
97.000000
20
307.000000
10
124.000000
20
307.000000
10
124.000000
20
337.000000
10
97.000000
20
337.000000
0
LWPOLYLINE
8
WINDOWS
90
4
70
1
10
433.000000
20
307.000000
10
460.000000
20
307.000000
10
460.000000
20
332.000000
10
433.000000
20
332.000000
0
LWPOLYLINE
8
DOORS
90
4
70
1
10
12.000000
20
180.000000
10
25.000000
20
180.000000
10
25.000000
20
216.000000
10
12.000000
20
216.000000
0
LINE
8
LINES
10
33.000000
20
19.000000
30
0.0
11
502.000000
21
19.000000
31
0.0
0
LINE
8
LINES
10
28.000000
20
273.000000
30
0.0
11
497.000000
21
273.000000
31
0.0
0
LINE
8
LINES
10
505.000000
20
28.000000
30
0.0
11
38.000000
21
28.000000
31
0.0
0
LINE
8
LINES
10
502.000000
20
19.000000
30
0.0
11
91.000000
21
19.000000
31
0.0
0
LINE
8
LINES
10
41.000000
20
91.000000
30
0.0
11
41.000000
21
260.000000
31
0.0
0
LINE
8
LINES
10
25.000000
20
9.000000
30
0.0
11
163.000000
21
9.000000
31
0.0
0
LINE
8
LINES
10
505.000000
20
153.000000
30
0.0
11
505.000000
21
272.000000
31
0.0
0
LINE
8
LINES
10
57.000000
20
16.000000
30
0.0
11
166.000000
21
16.000000
31
0.0
0
LINE
8
LINES
10
393.000000
20
17.000000
30
0.0
11
502.000000
21
17.000000
31
0.0
0
LINE
8
LINES
10
169.000000
20
155.000000
30
0.0
11
64.000000
21
155.000000
31
0.0
0
LINE
8
LINES
10
208.000000
20
78.000000
30
0.0
11
104.000000
21
78.000000
31
0.0
0
LINE
8
LINES
10
337.000000
20
201.000000
30
0.0
11
238.000000
21
201.000000
31
0.0
0
LINE
8
LINES
10
377.000000
20
292.000000
30
0.0
11
283.000000
21
292.000000
31
0.0
0
LINE
8
LINES
10
473.000000
20
297.000000
30
0.0
11
393.000000
21
297.000000
31
0.0
0
LINE
8
LINES
10
476.000000
20
283.000000
30
0.0
11
398.000000
21
283.000000
31
0.0
0
LINE
8
LINES
10
486.000000
20
201.000000
30
0.0
11
416.000000
21
201.000000
31
0.0
0
LINE
8
LINES
10
249.000000
20
339.000000
30
0.0
11
318.000000
21
339.000000
31
0.0
0
LINE
8
LINES
10
424.000000
20
163.000000
30
0.0
11
489.000000
21
163.000000
31
0.0
0
LINE
8
LINES
10
278.000000
20
265.000000
30
0.0
11
212.000000
21
265.000000
31
0.0
0
LINE
8
LINES
10
515.000000
20
153.000000
30
0.0
11
515.000000
21
219.000000
31
0.0
0
LINE
8
LINES
10
337.000000
20
134.000000
30
0.0
11
273.000000
21
134.000000
31
0.0
0
LINE
8
LINES
10
348.000000
20
81.000000
30
0.0
11
284.000000
21
81.000000
31
0.0
0
LINE
8
LINES
10
342.000000
20
214.000000
30
0.0
11
406.000000
21
214.000000
31
0.0
0
LINE
8
LINES
10
203.000000
20
16.000000
30
0.0
11
267.000000
21
16.000000
31
0.0
0
LINE
8
LINES
10
524.000000
20
158.000000
30
0.0
11
524.000000
21
219.000000
31
0.0
0
LINE
8
LINES
10
331.000000
20
16.000000
30
0.0
11
392.000000
21
16.000000
31
0.0
0
LINE
8
LINES
10
188.000000
20
225.000000
30
0.0
11
248.000000
21
225.000000
31
0.0
0
LINE
8
LINES
10
188.000000
20
44.000000
30
0.0
11
249.000000
21
44.000000
31
0.0
0
LINE
8
LINES
10
188.000000
20
163.000000
30
0.0
11
249.000000
21
163.000000
31
0.0
0
LINE
8
LINES
10
238.000000
20
131.000000
30
0.0
11
179.000000
21
131.000000
31
0.0
0
LINE
8
LINES
10
473.000000
20
131.000000
30
0.0
11
414.000000
21
131.000000
31
0.0
0
LINE
8
LINES
10
422.000000
20
363.000000
30
0.0
11
481.000000
21
363.000000
31
0.0
0
LINE
8
LINES
10
307.000000
20
97.000000
30
0.0
11
366.000000
21
97.000000
31
0.0
0
LINE
8
LINES
10
307.000000
20
44.000000
30
0.0
11
366.000000
21
44.000000
31
0.0
0
LINE
8
LINES
10
73.000000
20
44.000000
30
0.0
11
131.000000
21
44.000000
31
0.0
0
LINE
8
LINES
10
73.000000
20
97.000000
30
0.0
11
131.000000
21
97.000000
31
0.0
0
LINE
8
LINES
10
73.000000
20
163.000000
30
0.0
11
131.000000
21
163.000000
31
0.0
0
LINE
8
LINES
10
409.000000
20
158.000000
30
0.0
11
352.000000
21
158.000000
31
0.0
0
LINE
8
LINES
10
444.000000
20
264.000000
30
0.0
11
500.000000
21
264.000000
31
0.0
0
LINE
8
LINES
10
270.000000
20
16.000000
30
0.0
11
326.000000
21
16.000000
31
0.0
0
LINE
8
LINES
10
342.000000
20
145.000000
30
0.0
11
398.000000
21
145.000000
31
0.0
0
LINE
8
LINES
10
526.000000
20
281.000000
30
0.0
11
526.000000
21
225.000000
31
0.0
0
LINE
8
LINES
10
113.000000
20
265.000000
30
0.0
11
57.000000
21
265.000000
31
0.0
0
LINE
8
LINES
10
81.000000
20
14.000000
30
0.0
11
27.000000
21
14.000000
31
0.0
0
LINE
8
LINES
10
508.000000
20
123.000000
30
0.0
11
508.000000
21
68.000000
31
0.0
0
LINE
8
LINES
10
416.000000
20
92.000000
30
0.0
11
468.000000
21
92.000000
31
0.0
0
LINE
8
LINES
10
179.000000
20
219.000000
30
0.0
11
233.000000
21
219.000000
31
0.0
0
LINE
8
LINES
10
416.000000
20
220.000000
30
0.0
11
467.000000
21
220.000000
31
0.0
0
LINE
8
LINES
10
425.000000
20
46.000000
30
0.0
11
478.000000
21
46.000000
31
0.0
0
LINE
8
LINES
10
188.000000
20
97.000000
30
0.0
11
241.000000
21
97.000000
31
0.0
0
LINE
8
LINES
10
180.000000
20
91.000000
30
0.0
11
233.000000
21
91.000000
31
0.0
0
LINE
8
LINES
10
180.000000
20
156.000000
30
0.0
11
233.000000
21
156.000000
31
0.0
0
LINE
8
LINES
10
57.000000
20
262.000000
30
0.0
11
110.000000
21
262.000000
31
0.0
0
LINE
8
LINES
10
172.000000
20
297.000000
30
0.0
11
121.000000
21
297.000000
31
0.0
0
LINE
8
LINES
10
299.000000
20
38.000000
30
0.0
11
350.000000
21
38.000000
31
0.0
0
LINE
8
LINES
10
232.000000
20
160.000000
30
0.0
11
180.000000
21
160.000000
31
0.0
0
LINE
8
LINES
10
470.000000
20
336.000000
30
0.0
11
419.000000
21
336.000000
31
0.0
0
LINE
8
LINES
10
500.000000
20
196.000000
30
0.0
11
500.000000
21
145.000000
31
0.0
0
LINE
8
LINES
10
424.000000
20
99.000000
30
0.0
11
476.000000
21
99.000000
31
0.0
0
LINE
8
LINES
10
348.000000
20
161.000000
30
0.0
11
297.000000
21
161.000000
31
0.0
0
LINE
8
LINES
10
180.000000
20
38.000000
30
0.0
11
232.000000
21
38.000000
31
0.0
0
LINE
8
LINES
10
504.000000
20
73.000000
30
0.0
11
504.000000
21
123.000000
31
0.0
0
LINE
8
LINES
10
110.000000
20
144.000000
30
0.0
11
161.000000
21
144.000000
31
0.0
0
LINE
8
LINES
10
115.000000
20
41.000000
30
0.0
11
65.000000
21
41.000000
31
0.0
0
LINE
8
LINES
10
97.000000
20
203.000000
30
0.0
11
48.000000
21
203.000000
31
0.0
0
LINE
8
LINES
10
12.000000
20
75.000000
30
0.0
11
62.000000
21
83.000000
31
0.0
0
LINE
8
LINES
10
417.000000
20
40.000000
30
0.0
11
465.000000
21
40.000000
31
0.0
0
LINE
8
LINES
10
465.000000
20
43.000000
30
0.0
11
417.000000
21
43.000000
31
0.0
0
LINE
8
LINES
10
65.000000
20
38.000000
30
0.0
11
113.000000
21
38.000000
31
0.0
0
LINE
8
LINES
10
307.000000
20
163.000000
30
0.0
11
355.000000
21
163.000000
31
0.0
0
LINE
8
LINES
10
228.000000
20
41.000000
30
0.0
11
180.000000
21
41.000000
31
0.0
0
LINE
8
LINES
10
464.000000
20
161.000000
30
0.0
11
416.000000
21
161.000000
31
0.0
0
LINE
8
LINES
10
227.000000
20
222.000000
30
0.0
11
179.000000
21
222.000000
31
0.0
0
LINE
8
LINES
10
521.000000
20
206.000000
30
0.0
11
521.000000
21
156.000000
31
0.0
0
LINE
8
LINES
10
464.000000
20
96.000000
30
0.0
11
416.000000
21
96.000000
31
0.0
0
LINE
8
LINES
10
299.000000
20
91.000000
30
0.0
11
348.000000
21
91.000000
31
0.0
0
LINE
8
LINES
10
62.000000
20
217.000000
30
0.0
11
110.000000
21
217.000000
31
0.0
0
LINE
8
LINES
10
131.000000
20
161.000000
30
0.0
11
131.000000
21
209.000000
31
0.0
0
LINE
8
LINES
10
281.000000
20
80.000000
30
0.0
11
233.000000
21
80.000000
31
0.0
0
LINE
8
LINES
10
417.000000
20
158.000000
30
0.0
11
464.000000
21
158.000000
31
0.0
0
LINE
8
LINES
10
297.000000
20
158.000000
30
0.0
11
345.000000
21
158.000000
31
0.0
0
LINE
8
LINES
10
347.000000
20
41.000000
30
0.0
11
299.000000
21
41.000000
31
0.0
0
LINE
8
LINES
10
227.000000
20
94.000000
30
0.0
11
180.000000
21
94.000000
31
0.0
0
LINE
8
LINES
10
347.000000
20
94.000000
30
0.0
11
299.000000
21
94.000000
31
0.0
0
LINE
8
LINES
10
110.000000
20
222.000000
30
0.0
11
62.000000
21
222.000000
31
0.0
0
LINE
8
LINES
10
254.000000
20
97.000000
30
0.0
11
300.000000
21
97.000000
31
0.0
0
LINE
8
LINES
10
372.000000
20
44.000000
30
0.0
11
419.000000
21
44.000000
31
0.0
0
LINE
8
LINES
10
65.000000
20
91.000000
30
0.0
11
112.000000
21
91.000000
31
0.0
0
LINE
8
LINES
10
350.000000
20
265.000000
30
0.0
11
304.000000
21
265.000000
31
0.0
0
LINE
8
LINES
10
393.000000
20
220.000000
30
0.0
11
348.000000
21
220.000000
31
0.0
0
LINE
8
LINES
10
396.000000
20
352.000000
30
0.0
11
441.000000
21
352.000000
31
0.0
0
LINE
8
LINES
10
62.000000
20
156.000000
30
0.0
11
108.000000
21
156.000000
31
0.0
0
LINE
8
LINES
10
297.000000
20
217.000000
30
0.0
11
342.000000
21
217.000000
31
0.0
0
LINE
8
LINES
10
368.000000
20
163.000000
30
0.0
11
368.000000
21
209.000000
31
0.0
0
LINE
8
LINES
10
262.000000
20
294.000000
30
0.0
11
249.000000
21
337.000000
31
0.0
0
LINE
8
LINES
10
137.000000
20
44.000000
30
0.0
11
182.000000
21
44.000000
31
0.0
0
LINE
8
LINES
10
372.000000
20
163.000000
30
0.0
11
417.000000
21
163.000000
31
0.0
0
LINE
8
LINES
10
110.000000
20
94.000000
30
0.0
11
65.000000
21
94.000000
31
0.0
0
LINE
8
LINES
10
97.000000
20
134.000000
30
0.0
11
52.000000
21
134.000000
31
0.0
0
LINE
8
LINES
10
236.000000
20
201.000000
30
0.0
11
192.000000
21
201.000000
31
0.0
0
LINE
8
LINES
10
374.000000
20
97.000000
30
0.0
11
417.000000
21
97.000000
31
0.0
0
LINE
8
LINES
10
369.000000
20
99.000000
30
0.0
11
369.000000
21
142.000000
31
0.0
0
LINE
8
LINES
10
139.000000
20
97.000000
30
0.0
11
182.000000
21
97.000000
31
0.0
0
LINE
8
LINES
10
257.000000
20
44.000000
30
0.0
11
300.000000
21
44.000000
31
0.0
0
LINE
8
LINES
10
366.000000
20
329.000000
30
0.0
11
323.000000
21
329.000000
31
0.0
0
LINE
8
LINES
10
403.000000
20
340.000000
30
0.0
11
358.000000
21
340.000000
31
0.0
0
LINE
8
LINES
10
483.000000
20
361.000000
30
0.0
11
526.000000
21
361.000000
31
0.0
0
LINE
8
LINES
10
139.000000
20
161.000000
30
0.0
11
182.000000
21
161.000000
31
0.0
0
LINE
8
LINES
10
304.000000
20
262.000000
30
0.0
11
347.000000
21
262.000000
31
0.0
0
LINE
8
LINES
10
524.000000
20
220.000000
30
0.0
11
524.000000
21
262.000000
31
0.0
0
LINE
8
LINES
10
339.000000
20
224.000000
30
0.0
11
297.000000
21
224.000000
31
0.0
0
LINE
8
LINES
10
142.000000
20
334.000000
30
0.0
11
184.000000
21
334.000000
31
0.0
0
LINE
8
LINES
10
1.000000
20
342.000000
30
0.0
11
41.000000
21
342.000000
31
0.0
0
LINE
8
LINES
10
321.000000
20
332.000000
30
0.0
11
361.000000
21
332.000000
31
0.0
0
LINE
8
LINES
10
268.000000
20
12.000000
30
0.0
11
227.000000
21
12.000000
31
0.0
0
LINE
8
LINES
10
246.000000
20
219.000000
30
0.0
11
286.000000
21
219.000000
31
0.0
0
LINE
8
LINES
10
46.000000
20
201.000000
30
0.0
11
46.000000
21
161.000000
31
0.0
0
LINE
8
LINES
10
508.000000
20
193.000000
30
0.0
11
508.000000
21
153.000000
31
0.0
0
LINE
8
LINES
10
0.000000
20
94.000000
30
0.0
11
38.000000
21
99.000000
31
0.0
0
LINE
8
LINES
10
30.000000
20
305.000000
30
0.0
11
14.000000
21
339.000000
31
0.0
0
LINE
8
LINES
10
132.000000
20
233.000000
30
0.0
11
132.000000
21
270.000000
31
0.0
0
LINE
8
LINES
10
184.000000
20
131.000000
30
0.0
11
222.000000
21
131.000000
31
0.0
0
LINE
8
LINES
10
72.000000
20
76.000000
30
0.0
11
108.000000
21
76.000000
31
0.0
0
LINE
8
LINES
10
206.000000
20
339.000000
30
0.0
11
243.000000
21
339.000000
31
0.0
0
LINE
8
LINES
10
417.000000
20
78.000000
30
0.0
11
380.000000
21
78.000000
31
0.0
0
LINE
8
LINES
10
283.000000
20
224.000000
30
0.0
11
246.000000
21
224.000000
31
0.0
0
LINE
8
LINES
10
265.000000
20
161.000000
30
0.0
11
265.000000
21
198.000000
31
0.0
0
LINE
8
LINES
10
345.000000
20
299.000000
30
0.0
11
377.000000
21
315.000000
31
0.0
0
LINE
8
LINES
10
12.000000
20
216.000000
30
0.0
11
12.000000
21
179.000000
31
0.0
0
LINE
8
LINES
10
273.000000
20
198.000000
30
0.0
11
273.000000
21
163.000000
31
0.0
0
LINE
8
LINES
10
478.000000
20
227.000000
30
0.0
11
478.000000
21
262.000000
31
0.0
0
LINE
8
LINES
10
68.000000
20
163.000000
30
0.0
11
68.000000
21
198.000000
31
0.0
0
LINE
8
LINES
10
129.000000
20
91.000000
30
0.0
11
166.000000
21
91.000000
31
0.0
0
LINE
8
LINES
10
518.000000
20
33.000000
30
0.0
11
518.000000
21
68.000000
31
0.0
0
LINE
8
LINES
10
30.000000
20
217.000000
30
0.0
11
30.000000
21
182.000000
31
0.0
0
LINE
8
LINES
10
513.000000
20
32.000000
30
0.0
11
513.000000
21
67.000000
31
0.0
0
LINE
8
LINES
10
361.000000
20
339.000000
30
0.0
11
326.000000
21
339.000000
31
0.0
0
LINE
8
LINES
10
153.000000
20
11.000000
30
0.0
11
118.000000
21
11.000000
31
0.0
0
LINE
8
LINES
10
35.000000
20
174.000000
30
0.0
11
0.000000
21
171.000000
31
0.0
0
LINE
8
LINES
10
251.000000
20
163.000000
30
0.0
11
251.000000
21
198.000000
31
0.0
0
LINE
8
LINES
10
131.000000
20
38.000000
30
0.0
11
166.000000
21
38.000000
31
0.0
0
LINE
8
LINES
10
281.000000
20
94.000000
30
0.0
11
246.000000
21
94.000000
31
0.0
0
LINE
8
LINES
10
163.000000
20
94.000000
30
0.0
11
129.000000
21
94.000000
31
0.0
0
LINE
8
LINES
10
302.000000
20
163.000000
30
0.0
11
302.000000
21
198.000000
31
0.0
0
LINE
8
LINES
10
398.000000
20
41.000000
30
0.0
11
364.000000
21
41.000000
31
0.0
0
LINE
8
LINES
10
248.000000
20
91.000000
30
0.0
11
283.000000
21
91.000000
31
0.0
0
LINE
8
LINES
10
283.000000
20
161.000000
30
0.0
11
248.000000
21
161.000000
31
0.0
0
LINE
8
LINES
10
444.000000
20
299.000000
30
0.0
11
476.000000
21
308.000000
31
0.0
0
LINE
8
LINES
10
500.000000
20
275.000000
30
0.0
11
500.000000
21
310.000000
31
0.0
0
LINE
8
LINES
10
281.000000
20
288.000000
30
0.0
11
248.000000
21
284.000000
31
0.0
0
LINE
8
LINES
10
248.000000
20
156.000000
30
0.0
11
281.000000
21
156.000000
31
0.0
0
LINE
8
LINES
10
70.000000
20
46.000000
30
0.0
11
70.000000
21
78.000000
31
0.0
0
LINE
8
LINES
10
451.000000
20
227.000000
30
0.0
11
451.000000
21
262.000000
31
0.0
0
LINE
8
LINES
10
489.000000
20
166.000000
30
0.0
11
489.000000
21
198.000000
31
0.0
0
LINE
8
LINES
10
366.000000
20
38.000000
30
0.0
11
398.000000
21
38.000000
31
0.0
0
LINE
8
LINES
10
526.000000
20
201.000000
30
0.0
11
526.000000
21
166.000000
31
0.0
0
LINE
8
LINES
10
248.000000
20
38.000000
30
0.0
11
281.000000
21
38.000000
31
0.0
0
LINE
8
LINES
10
185.000000
20
163.000000
30
0.0
11
185.000000
21
198.000000
31
0.0
0
LINE
8
LINES
10
398.000000
20
94.000000
30
0.0
11
364.000000
21
94.000000
31
0.0
0
LINE
8
LINES
10
364.000000
20
92.000000
30
0.0
11
398.000000
21
92.000000
31
0.0
0
LINE
8
LINES
10
281.000000
20
134.000000
30
0.0
11
248.000000
21
134.000000
31
0.0
0
LINE
8
LINES
10
414.000000
20
310.000000
30
0.0
11
446.000000
21
300.000000
31
0.0
0
LINE
8
LINES
10
502.000000
20
89.000000
30
0.0
11
468.000000
21
94.000000
31
0.0
0
LINE
8
LINES
10
51.000000
20
129.000000
30
0.0
11
51.000000
21
97.000000
31
0.0
0
LINE
8
LINES
10
201.000000
20
227.000000
30
0.0
11
201.000000
21
259.000000
31
0.0
0
LINE
8
LINES
10
99.000000
20
227.000000
30
0.0
11
99.000000
21
259.000000
31
0.0
0
LINE
8
LINES
10
105.000000
20
196.000000
30
0.0
11
105.000000
21
163.000000
31
0.0
0
LINE
8
LINES
10
86.000000
20
163.000000
30
0.0
11
86.000000
21
196.000000
31
0.0
0
LINE
8
LINES
10
419.000000
20
336.000000
30
0.0
11
432.000000
21
305.000000
31
0.0
0
LINE
8
LINES
10
220.000000
20
198.000000
30
0.0
11
220.000000
21
166.000000
31
0.0
0
LINE
8
LINES
10
419.000000
20
166.000000
30
0.0
11
419.000000
21
198.000000
31
0.0
0
LINE
8
LINES
10
419.000000
20
227.000000
30
0.0
11
419.000000
21
260.000000
31
0.0
0
LINE
8
LINES
10
304.000000
20
46.000000
30
0.0
11
304.000000
21
78.000000
31
0.0
0
LINE
8
LINES
10
163.000000
20
41.000000
30
0.0
11
131.000000
21
41.000000
31
0.0
0
LINE
8
LINES
10
281.000000
20
41.000000
30
0.0
11
248.000000
21
41.000000
31
0.0
0
LINE
8
LINES
10
252.000000
20
131.000000
30
0.0
11
252.000000
21
97.000000
31
0.0
0
LINE
8
LINES
10
307.000000
20
225.000000
30
0.0
11
339.000000
21
225.000000
31
0.0
0
LINE
8
LINES
10
241.000000
20
97.000000
30
0.0
11
241.000000
21
131.000000
31
0.0
0
LINE
8
LINES
10
521.000000
20
260.000000
30
0.0
11
521.000000
21
227.000000
31
0.0
0
LINE
8
LINES
10
185.000000
20
97.000000
30
0.0
11
185.000000
21
131.000000
31
0.0
0
LINE
8
LINES
10
481.000000
20
307.000000
30
0.0
11
472.000000
21
337.000000
31
0.0
0
LINE
8
LINES
10
174.000000
20
323.000000
30
0.0
11
198.000000
21
302.000000
31
0.0
0
LINE
8
LINES
10
84.000000
20
227.000000
30
0.0
11
84.000000
21
257.000000
31
0.0
0
LINE
8
LINES
10
505.000000
20
1.000000
30
0.0
11
505.000000
21
32.000000
31
0.0
0
LINE
8
LINES
10
478.000000
20
46.000000
30
0.0
11
478.000000
21
78.000000
31
0.0
0
LINE
8
LINES
10
238.000000
20
196.000000
30
0.0
11
238.000000
21
166.000000
31
0.0
0
LINE
8
LINES
10
457.000000
20
326.000000
30
0.0
11
425.000000
21
326.000000
31
0.0
0
LINE
8
LINES
10
387.000000
20
169.000000
30
0.0
11
387.000000
21
201.000000
31
0.0
0
LINE
8
LINES
10
214.000000
20
227.000000
30
0.0
11
214.000000
21
259.000000
31
0.0
0
LINE
8
LINES
10
156.000000
20
195.000000
30
0.0
11
156.000000
21
163.000000
31
0.0
0
LINE
8
LINES
10
134.000000
20
46.000000
30
0.0
11
134.000000
21
76.000000
31
0.0
0
LINE
8
LINES
10
244.000000
20
339.000000
30
0.0
11
254.000000
21
308.000000
31
0.0
0
LINE
8
LINES
10
476.000000
20
100.000000
30
0.0
11
476.000000
21
131.000000
31
0.0
0
LINE
8
LINES
10
403.000000
20
227.000000
30
0.0
11
403.000000
21
257.000000
31
0.0
0
LINE
8
LINES
10
68.000000
20
99.000000
30
0.0
11
68.000000
21
131.000000
31
0.0
0
LINE
8
LINES
10
1.000000
20
155.000000
30
0.0
11
30.000000
21
160.000000
31
0.0
0
LINE
8
LINES
10
30.000000
20
163.000000
30
0.0
11
1.000000
21
160.000000
31
0.0
0
LINE
8
LINES
10
1.000000
20
166.000000
30
0.0
11
30.000000
21
169.000000
31
0.0
0
LINE
8
LINES
10
206.000000
20
257.000000
30
0.0
11
206.000000
21
227.000000
31
0.0
0
LINE
8
LINES
10
91.000000
20
195.000000
30
0.0
11
91.000000
21
166.000000
31
0.0
0
LINE
8
LINES
10
249.000000
20
227.000000
30
0.0
11
249.000000
21
257.000000
31
0.0
0
LINE
8
LINES
10
369.000000
20
49.000000
30
0.0
11
369.000000
21
78.000000
31
0.0
0
LINE
8
LINES
10
252.000000
20
46.000000
30
0.0
11
252.000000
21
76.000000
31
0.0
0
LINE
8
LINES
10
126.000000
20
217.000000
30
0.0
11
156.000000
21
217.000000
31
0.0
0
LINE
8
LINES
10
99.000000
20
166.000000
30
0.0
11
99.000000
21
195.000000
31
0.0
0
LINE
8
LINES
10
436.000000
20
168.000000
30
0.0
11
436.000000
21
198.000000
31
0.0
0
LINE
8
LINES
10
220.000000
20
259.000000
30
0.0
11
220.000000
21
228.000000
31
0.0
0
LINE
8
LINES
10
320.000000
20
230.000000
30
0.0
11
320.000000
21
260.000000
31
0.0
0
LINE
8
LINES
10
420.000000
20
100.000000
30
0.0
11
420.000000
21
131.000000
31
0.0
0
LINE
8
LINES
10
108.000000
20
76.000000
30
0.0
11
108.000000
21
46.000000
31
0.0
0
LINE
8
LINES
10
185.000000
20
46.000000
30
0.0
11
185.000000
21
76.000000
31
0.0
0
LINE
8
LINES
10
304.000000
20
102.000000
30
0.0
11
304.000000
21
131.000000
31
0.0
0
LINE
8
LINES
10
404.000000
20
166.000000
30
0.0
11
404.000000
21
196.000000
31
0.0
0
ENDSEC
0
EOF
