0
SECTION
2
ENTITIES
0
LWPOLYLINE
8
FACADE_OUTLINE
90
4
70
1
10
0.000000
20
0.000000
10
753.000000
20
0.000000
10
753.000000
20
1024.000000
10
0.000000
20
1024.000000
0
LWPOLYLINE
8
WINDOWS
90
4
70
1
10
0.000000
20
0.000000
10
753.000000
20
0.000000
10
753.000000
20
363.000000
10
0.000000
20
363.000000
0
LWPOLYLINE
8
WINDOWS
90
4
70
1
10
113.000000
20
105.000000
10
214.000000
20
105.000000
10
214.000000
20
190.000000
10
113.000000
20
190.000000
0
LWPOLYLINE
8
WINDOWS
90
4
70
1
10
233.000000
20
105.000000
10
521.000000
20
105.000000
10
521.000000
20
499.000000
10
233.000000
20
499.000000
0
LWPOLYLINE
8
WINDOWS
90
4
70
1
10
323.000000
20
105.000000
10
366.000000
20
105.000000
10
366.000000
20
187.000000
10
323.000000
20
187.000000
0
LWPOLYLINE
8
WINDOWS
90
4
70
1
10
377.000000
20
107.000000
10
488.000000
20
107.000000
10
488.000000
20
188.000000
10
377.000000
20
188.000000
0
LWPOLYLINE
8
WINDOWS
90
4
70
1
10
526.000000
20
110.000000
10
657.000000
20
110.000000
10
657.000000
20
313.000000
10
526.000000
20
313.000000
0
LWPOLYLINE
8
WINDOWS
90
4
70
1
10
89.000000
20
163.000000
10
219.000000
20
163.000000
10
219.000000
20
332.000000
10
89.000000
20
332.000000
0
LWPOLYLINE
8
WINDOWS
90
4
70
1
10
556.000000
20
217.000000
10
633.000000
20
217.000000
10
633.000000
20
299.000000
10
556.000000
20
299.000000
0
LWPOLYLINE
8
WINDOWS
90
4
70
1
10
403.000000
20
243.000000
10
457.000000
20
243.000000
10
457.000000
20
300.000000
10
403.000000
20
300.000000
0
LWPOLYLINE
8
WINDOWS
90
4
70
1
10
524.000000
20
305.000000
10
659.000000
20
305.000000
10
659.000000
20
486.000000
10
524.000000
20
486.000000
0
LWPOLYLINE
8
WINDOWS
90
4
70
1
10
89.000000
20
339.000000
10
220.000000
20
339.000000
10
220.000000
20
451.000000
10
89.000000
20
451.000000
0
LWPOLYLINE
8
WINDOWS
90
4
70
1
10
286.000000
20
384.000000
10
345.000000
20
384.000000
10
345.000000
20
449.000000
10
286.000000
20
449.000000
0
LWPOLYLINE
8
WINDOWS
90
4
70
1
10
401.000000
20
384.000000
10
460.000000
20
384.000000
10
460.000000
20
481.000000
10
401.000000
20
481.000000
0
LWPOLYLINE
8
WINDOWS
90
4
70
1
10
113.000000
20
385.000000
10
278.000000
20
385.000000
10
278.000000
20
641.000000
10
113.000000
20
641.000000
0
LWPOLYLINE
8
WINDOWS
90
4
70
1
10
283.000000
20
454.000000
10
347.000000
20
454.000000
10
347.000000
20
481.000000
10
283.000000
20
481.000000
0
LWPOLYLINE
8
WINDOWS
90
4
70
1
10
524.000000
20
454.000000
10
660.000000
20
454.000000
10
660.000000
20
550.000000
10
524.000000
20
550.000000
0
LWPOLYLINE
8
WINDOWS
90
4
70
1
10
89.000000
20
489.000000
10
158.000000
20
489.000000
10
158.000000
20
531.000000
10
89.000000
20
531.000000
0
LWPOLYLINE
8
WINDOWS
90
4
70
1
10
12.000000
20
494.000000
10
108.000000
20
494.000000
10
108.000000
20
561.000000
10
12.000000
20
561.000000
0
LWPOLYLINE
8
WINDOWS
90
4
70
1
10
540.000000
20
529.000000
10
638.000000
20
529.000000
10
638.000000
20
622.000000
10
540.000000
20
622.000000
0
LWPOLYLINE
8
WINDOWS
90
4
70
1
10
286.000000
20
537.000000
10
348.000000
20
537.000000
10
348.000000
20
619.000000
10
286.000000
20
619.000000
0
LWPOLYLINE
8
WINDOWS
90
4
70
1
10
398.000000
20
537.000000
10
460.000000
20
537.000000
10
460.000000
20
619.000000
10
398.000000
20
619.000000
0
LWPOLYLINE
8
WINDOWS
90
4
70
1
10
561.000000
20
542.000000
10
609.000000
20
542.000000
10
609.000000
20
617.000000
10
561.000000
20
617.000000
0
LWPOLYLINE
8
WINDOWS
90
4
70
1
10
144.000000
20
561.000000
10
230.000000
20
561.000000
10
230.000000
20
616.000000
10
144.000000
20
616.000000
0
LWPOLYLINE
8
WINDOWS
90
4
70
1
10
3.000000
20
611.000000
10
145.000000
20
611.000000
10
145.000000
20
704.000000
10
3.000000
20
704.000000
0
LWPOLYLINE
8
WINDOWS
90
4
70
1
10
158.000000
20
619.000000
10
259.000000
20
619.000000
10
259.000000
20
723.000000
10
158.000000
20
723.000000
0
LWPOLYLINE
8
WINDOWS
90
4
70
1
10
521.000000
20
620.000000
10
662.000000
20
620.000000
10
662.000000
20
796.000000
10
521.000000
20
796.000000
0
LWPOLYLINE
8
WINDOWS
90
4
70
1
10
401.000000
20
624.000000
10
460.000000
20
624.000000
10
460.000000
20
651.000000
10
401.000000
20
651.000000
0
LWPOLYLINE
8
WINDOWS
90
4
70
1
10
556.000000
20
627.000000
10
614.000000
20
627.000000
10
614.000000
20
652.000000
10
556.000000
20
652.000000
0
LWPOLYLINE
8
WINDOWS
90
4
70
1
10
307.000000
20
651.000000
10
396.000000
20
651.000000
10
396.000000
20
795.000000
10
307.000000
20
795.000000
0
LWPOLYLINE
8
WINDOWS
90
4
70
1
10
403.000000
20
657.000000
10
513.000000
20
657.000000
10
513.000000
20
796.000000
10
403.000000
20
796.000000
0
LWPOLYLINE
8
WINDOWS
90
4
70
1
10
0.000000
20
675.000000
10
153.000000
20
675.000000
10
153.000000
20
843.000000
10
0.000000
20
843.000000
0
LWPOLYLINE
8
WINDOWS
90
4
70
1
10
321.000000
20
699.000000
10
753.000000
20
699.000000
10
753.000000
20
1024.000000
10
321.000000
20
1024.000000
0
LWPOLYLINE
8
WINDOWS
90
4
70
1
10
560.000000
20
705.000000
10
622.000000
20
705.000000
10
622.000000
20
745.000000
10
560.000000
20
745.000000
0
LWPOLYLINE
8
WINDOWS
90
4
70
1
10
94.000000
20
836.000000
10
232.000000
20
836.000000
10
232.000000
20
996.000000
10
94.000000
20
996.000000
0
LWPOLYLINE
8
WINDOWS
90
4
70
1
10
540.000000
20
860.000000
10
630.000000
20
860.000000
10
630.000000
20
915.000000
10
540.000000
20
915.000000
0
LWPOLYLINE
8
WINDOWS
90
4
70
1
10
0.000000
20
910.000000
10
121.000000
20
910.000000
10
121.000000
20
1024.000000
10
0.000000
20
1024.000000
0
LWPOLYLINE
8
WINDOWS
90
4
70
1
10
147.000000
20
921.000000
10
214.000000
20
921.000000
10
214.000000
20
1020.000000
10
147.000000
20
1020.000000
0
LWPOLYLINE
8
WINDOWS
90
4
70
1
10
249.000000
20
924.000000
10
318.000000
20
924.000000
10
318.000000
20
1024.000000
10
249.000000
20
1024.000000
0
LWPOLYLINE
8
WINDOWS
90
4
70
1
10
494.000000
20
937.000000
10
612.000000
20
937.000000
10
612.000000
20
987.000000
10
494.000000
20
987.000000
0
LWPOLYLINE
8
DOORS
90
4
70
1
10
673.000000
20
708.000000
10
736.000000
20
708.000000
10
736.000000
20
822.000000
10
673.000000
20
822.000000
0
LWPOLYLINE
8
DOORS
90
4
70
1
10
419.000000
20
710.000000
10
441.000000
20
710.000000
10
441.000000
20
790.000000
10
419.000000
20
790.000000
0
LINE
8
LINES
10
206.000000
20
28.000000
30
0.0
11
542.000000
21
28.000000
31
0.0
0
LINE
8
LINES
10
540.000000
20
35.000000
30
0.0
11
206.000000
21
35.000000
31
0.0
0
LINE
8
LINES
10
208.000000
20
33.000000
30
0.0
11
539.000000
21
33.000000
31
0.0
0
LINE
8
LINES
10
211.000000
20
40.000000
30
0.0
11
537.000000
21
40.000000
31
0.0
0
LINE
8
LINES
10
537.000000
20
41.000000
30
0.0
11
211.000000
21
41.000000
31
0.0
0
LINE
8
LINES
10
531.000000
20
28.000000
30
0.0
11
236.000000
21
28.000000
31
0.0
0
LINE
8
LINES
10
504.000000
20
347.000000
30
0.0
11
262.000000
21
347.000000
31
0.0
0
LINE
8
LINES
10
259.000000
20
342.000000
30
0.0
11
492.000000
21
342.000000
31
0.0
0
LINE
8
LINES
10
492.000000
20
497.000000
30
0.0
11
262.000000
21
497.000000
31
0.0
0
LINE
8
LINES
10
262.000000
20
499.000000
30
0.0
11
492.000000
21
499.000000
31
0.0
0
LINE
8
LINES
10
262.000000
20
348.000000
30
0.0
11
491.000000
21
348.000000
31
0.0
0
LINE
8
LINES
10
260.000000
20
198.000000
30
0.0
11
489.000000
21
198.000000
31
0.0
0
LINE
8
LINES
10
262.000000
20
204.000000
30
0.0
11
486.000000
21
204.000000
31
0.0
0
LINE
8
LINES
10
486.000000
20
204.000000
30
0.0
11
262.000000
21
204.000000
31
0.0
0
LINE
8
LINES
10
396.000000
20
641.000000
30
0.0
11
396.000000
21
862.000000
31
0.0
0
LINE
8
LINES
10
257.000000
20
491.000000
30
0.0
11
457.000000
21
491.000000
31
0.0
0
LINE
8
LINES
10
41.000000
20
41.000000
30
0.0
11
208.000000
21
41.000000
31
0.0
0
LINE
8
LINES
10
67.000000
20
86.000000
30
0.0
11
233.000000
21
86.000000
31
0.0
0
LINE
8
LINES
10
206.000000
20
41.000000
30
0.0
11
43.000000
21
41.000000
31
0.0
0
LINE
8
LINES
10
537.000000
20
49.000000
30
0.0
11
702.000000
21
49.000000
31
0.0
0
LINE
8
LINES
10
702.000000
20
49.000000
30
0.0
11
539.000000
21
49.000000
31
0.0
0
LINE
8
LINES
10
425.000000
20
340.000000
30
0.0
11
262.000000
21
340.000000
31
0.0
0
LINE
8
LINES
10
67.000000
20
83.000000
30
0.0
11
230.000000
21
83.000000
31
0.0
0
LINE
8
LINES
10
230.000000
20
86.000000
30
0.0
11
67.000000
21
86.000000
31
0.0
0
LINE
8
LINES
10
206.000000
20
35.000000
30
0.0
11
44.000000
21
35.000000
31
0.0
0
LINE
8
LINES
10
46.000000
20
35.000000
30
0.0
11
206.000000
21
35.000000
31
0.0
0
LINE
8
LINES
10
510.000000
20
89.000000
30
0.0
11
670.000000
21
89.000000
31
0.0
0
LINE
8
LINES
10
512.000000
20
92.000000
30
0.0
11
672.000000
21
92.000000
31
0.0
0
LINE
8
LINES
10
672.000000
20
94.000000
30
0.0
11
513.000000
21
94.000000
31
0.0
0
LINE
8
LINES
10
46.000000
20
28.000000
30
0.0
11
203.000000
21
28.000000
31
0.0
0
LINE
8
LINES
10
542.000000
20
43.000000
30
0.0
11
699.000000
21
43.000000
31
0.0
0
LINE
8
LINES
10
542.000000
20
36.000000
30
0.0
11
699.000000
21
36.000000
31
0.0
0
LINE
8
LINES
10
702.000000
20
43.000000
30
0.0
11
545.000000
21
43.000000
31
0.0
0
LINE
8
LINES
10
401.000000
20
824.000000
30
0.0
11
401.000000
21
668.000000
31
0.0
0
LINE
8
LINES
10
409.000000
20
196.000000
30
0.0
11
262.000000
21
196.000000
31
0.0
0
LINE
8
LINES
10
672.000000
20
841.000000
30
0.0
11
529.000000
21
841.000000
31
0.0
0
LINE
8
LINES
10
206.000000
20
846.000000
30
0.0
11
340.000000
21
846.000000
31
0.0
0
LINE
8
LINES
10
526.000000
20
672.000000
30
0.0
11
659.000000
21
672.000000
31
0.0
0
LINE
8
LINES
10
540.000000
20
840.000000
30
0.0
11
672.000000
21
840.000000
31
0.0
0
LINE
8
LINES
10
563.000000
20
856.000000
30
0.0
11
692.000000
21
856.000000
31
0.0
0
LINE
8
LINES
10
542.000000
20
846.000000
30
0.0
11
672.000000
21
846.000000
31
0.0
0
LINE
8
LINES
10
529.000000
20
665.000000
30
0.0
11
657.000000
21
665.000000
31
0.0
0
LINE
8
LINES
10
91.000000
20
344.000000
30
0.0
11
217.000000
21
344.000000
31
0.0
0
LINE
8
LINES
10
747.000000
20
508.000000
30
0.0
11
747.000000
21
382.000000
31
0.0
0
LINE
8
LINES
10
657.000000
20
668.000000
30
0.0
11
531.000000
21
668.000000
31
0.0
0
LINE
8
LINES
10
92.000000
20
350.000000
30
0.0
11
217.000000
21
350.000000
31
0.0
0
LINE
8
LINES
10
92.000000
20
201.000000
30
0.0
11
217.000000
21
201.000000
31
0.0
0
LINE
8
LINES
10
531.000000
20
505.000000
30
0.0
11
657.000000
21
505.000000
31
0.0
0
LINE
8
LINES
10
531.000000
20
203.000000
30
0.0
11
657.000000
21
203.000000
31
0.0
0
LINE
8
LINES
10
531.000000
20
499.000000
30
0.0
11
656.000000
21
499.000000
31
0.0
0
LINE
8
LINES
10
216.000000
20
348.000000
30
0.0
11
92.000000
21
348.000000
31
0.0
0
LINE
8
LINES
10
531.000000
20
348.000000
30
0.0
11
656.000000
21
348.000000
31
0.0
0
LINE
8
LINES
10
92.000000
20
206.000000
30
0.0
11
214.000000
21
206.000000
31
0.0
0
LINE
8
LINES
10
657.000000
20
502.000000
30
0.0
11
534.000000
21
502.000000
31
0.0
0
LINE
8
LINES
10
531.000000
20
206.000000
30
0.0
11
652.000000
21
206.000000
31
0.0
0
LINE
8
LINES
10
532.000000
20
355.000000
30
0.0
11
654.000000
21
355.000000
31
0.0
0
LINE
8
LINES
10
216.000000
20
206.000000
30
0.0
11
94.000000
21
206.000000
31
0.0
0
LINE
8
LINES
10
654.000000
20
497.000000
30
0.0
11
532.000000
21
497.000000
31
0.0
0
LINE
8
LINES
10
673.000000
20
646.000000
30
0.0
11
673.000000
21
526.000000
31
0.0
0
LINE
8
LINES
10
532.000000
20
212.000000
30
0.0
11
652.000000
21
212.000000
31
0.0
0
LINE
8
LINES
10
654.000000
20
353.000000
30
0.0
11
536.000000
21
353.000000
31
0.0
0
LINE
8
LINES
10
673.000000
20
358.000000
30
0.0
11
673.000000
21
238.000000
31
0.0
0
LINE
8
LINES
10
609.000000
20
993.000000
30
0.0
11
492.000000
21
993.000000
31
0.0
0
LINE
8
LINES
10
652.000000
20
211.000000
30
0.0
11
536.000000
21
211.000000
31
0.0
0
LINE
8
LINES
10
297.000000
20
1022.000000
30
0.0
11
297.000000
21
905.000000
31
0.0
0
LINE
8
LINES
10
267.000000
20
907.000000
30
0.0
11
267.000000
21
1022.000000
31
0.0
0
LINE
8
LINES
10
648.000000
20
206.000000
30
0.0
11
534.000000
21
206.000000
31
0.0
0
LINE
8
LINES
10
745.000000
20
364.000000
30
0.0
11
745.000000
21
252.000000
31
0.0
0
LINE
8
LINES
10
625.000000
20
99.000000
30
0.0
11
513.000000
21
99.000000
31
0.0
0
LINE
8
LINES
10
635.000000
20
878.000000
30
0.0
11
635.000000
21
990.000000
31
0.0
0
LINE
8
LINES
10
745.000000
20
803.000000
30
0.0
11
745.000000
21
694.000000
31
0.0
0
LINE
8
LINES
10
646.000000
20
662.000000
30
0.0
11
537.000000
21
662.000000
31
0.0
0
LINE
8
LINES
10
494.000000
20
961.000000
30
0.0
11
603.000000
21
961.000000
31
0.0
0
LINE
8
LINES
10
667.000000
20
849.000000
30
0.0
11
563.000000
21
849.000000
31
0.0
0
LINE
8
LINES
10
425.000000
20
886.000000
30
0.0
11
425.000000
21
988.000000
31
0.0
0
LINE
8
LINES
10
601.000000
20
956.000000
30
0.0
11
500.000000
21
956.000000
31
0.0
0
LINE
8
LINES
10
403.000000
20
1022.000000
30
0.0
11
403.000000
21
921.000000
31
0.0
0
LINE
8
LINES
10
393.000000
20
921.000000
30
0.0
11
393.000000
21
1022.000000
31
0.0
0
LINE
8
LINES
10
321.000000
20
988.000000
30
0.0
11
321.000000
21
889.000000
31
0.0
0
LINE
8
LINES
10
747.000000
20
636.000000
30
0.0
11
747.000000
21
539.000000
31
0.0
0
LINE
8
LINES
10
401.000000
20
633.000000
30
0.0
11
401.000000
21
539.000000
31
0.0
0
LINE
8
LINES
10
211.000000
20
921.000000
30
0.0
11
211.000000
21
1017.000000
31
0.0
0
LINE
8
LINES
10
451.000000
20
987.000000
30
0.0
11
451.000000
21
892.000000
31
0.0
0
LINE
8
LINES
10
500.000000
20
1003.000000
30
0.0
11
593.000000
21
1003.000000
31
0.0
0
LINE
8
LINES
10
161.000000
20
91.000000
30
0.0
11
68.000000
21
91.000000
31
0.0
0
LINE
8
LINES
10
552.000000
20
793.000000
30
0.0
11
552.000000
21
704.000000
31
0.0
0
LINE
8
LINES
10
188.000000
20
929.000000
30
0.0
11
188.000000
21
1019.000000
31
0.0
0
LINE
8
LINES
10
627.000000
20
705.000000
30
0.0
11
627.000000
21
793.000000
31
0.0
0
LINE
8
LINES
10
532.000000
20
848.000000
30
0.0
11
444.000000
21
848.000000
31
0.0
0
LINE
8
LINES
10
444.000000
20
844.000000
30
0.0
11
531.000000
21
844.000000
31
0.0
0
LINE
8
LINES
10
670.000000
20
232.000000
30
0.0
11
670.000000
21
148.000000
31
0.0
0
LINE
8
LINES
10
460.000000
20
536.000000
30
0.0
11
460.000000
21
617.000000
31
0.0
0
LINE
8
LINES
10
347.000000
20
536.000000
30
0.0
11
347.000000
21
617.000000
31
0.0
0
LINE
8
LINES
10
232.000000
20
835.000000
30
0.0
11
312.000000
21
835.000000
31
0.0
0
LINE
8
LINES
10
537.000000
20
902.000000
30
0.0
11
617.000000
21
902.000000
31
0.0
0
LINE
8
LINES
10
614.000000
20
540.000000
30
0.0
11
614.000000
21
619.000000
31
0.0
0
LINE
8
LINES
10
171.000000
20
200.000000
30
0.0
11
92.000000
21
200.000000
31
0.0
0
LINE
8
LINES
10
556.000000
20
619.000000
30
0.0
11
556.000000
21
542.000000
31
0.0
0
LINE
8
LINES
10
403.000000
20
668.000000
30
0.0
11
481.000000
21
668.000000
31
0.0
0
LINE
8
LINES
10
318.000000
20
668.000000
30
0.0
11
393.000000
21
668.000000
31
0.0
0
LINE
8
LINES
10
748.000000
20
190.000000
30
0.0
11
748.000000
21
113.000000
31
0.0
0
LINE
8
LINES
10
584.000000
20
617.000000
30
0.0
11
584.000000
21
542.000000
31
0.0
0
LINE
8
LINES
10
478.000000
20
665.000000
30
0.0
11
403.000000
21
665.000000
31
0.0
0
LINE
8
LINES
10
553.000000
20
249.000000
30
0.0
11
627.000000
21
249.000000
31
0.0
0
LINE
8
LINES
10
454.000000
20
540.000000
30
0.0
11
454.000000
21
616.000000
31
0.0
0
LINE
8
LINES
10
348.000000
20
489.000000
30
0.0
11
422.000000
21
489.000000
31
0.0
0
LINE
8
LINES
10
406.000000
20
849.000000
30
0.0
11
481.000000
21
849.000000
31
0.0
0
LINE
8
LINES
10
352.000000
20
540.000000
30
0.0
11
352.000000
21
614.000000
31
0.0
0
LINE
8
LINES
10
470.000000
20
892.000000
30
0.0
11
470.000000
21
966.000000
31
0.0
0
LINE
8
LINES
10
344.000000
20
614.000000
30
0.0
11
344.000000
21
542.000000
31
0.0
0
LINE
8
LINES
10
393.000000
20
665.000000
30
0.0
11
323.000000
21
665.000000
31
0.0
0
LINE
8
LINES
10
448.000000
20
896.000000
30
0.0
11
448.000000
21
966.000000
31
0.0
0
LINE
8
LINES
10
414.000000
20
793.000000
30
0.0
11
414.000000
21
723.000000
31
0.0
0
LINE
8
LINES
10
348.000000
20
793.000000
30
0.0
11
348.000000
21
723.000000
31
0.0
0
LINE
8
LINES
10
489.000000
20
198.000000
30
0.0
11
420.000000
21
198.000000
31
0.0
0
LINE
8
LINES
10
524.000000
20
841.000000
30
0.0
11
456.000000
21
841.000000
31
0.0
0
LINE
8
LINES
10
750.000000
20
734.000000
30
0.0
11
750.000000
21
803.000000
31
0.0
0
LINE
8
LINES
10
337.000000
20
726.000000
30
0.0
11
337.000000
21
793.000000
31
0.0
0
LINE
8
LINES
10
547.000000
20
454.000000
30
0.0
11
547.000000
21
387.000000
31
0.0
0
LINE
8
LINES
10
608.000000
20
907.000000
30
0.0
11
542.000000
21
907.000000
31
0.0
0
LINE
8
LINES
10
345.000000
20
382.000000
30
0.0
11
345.000000
21
448.000000
31
0.0
0
LINE
8
LINES
10
459.000000
20
382.000000
30
0.0
11
459.000000
21
449.000000
31
0.0
0
LINE
8
LINES
10
273.000000
20
193.000000
30
0.0
11
339.000000
21
193.000000
31
0.0
0
LINE
8
LINES
10
185.000000
20
387.000000
30
0.0
11
185.000000
21
451.000000
31
0.0
0
LINE
8
LINES
10
553.000000
20
702.000000
30
0.0
11
617.000000
21
702.000000
31
0.0
0
LINE
8
LINES
10
502.000000
20
977.000000
30
0.0
11
564.000000
21
968.000000
31
0.0
0
LINE
8
LINES
10
288.000000
20
448.000000
30
0.0
11
288.000000
21
384.000000
31
0.0
0
LINE
8
LINES
10
128.000000
20
451.000000
30
0.0
11
128.000000
21
387.000000
31
0.0
0
LINE
8
LINES
10
401.000000
20
449.000000
30
0.0
11
401.000000
21
385.000000
31
0.0
0
LINE
8
LINES
10
630.000000
20
390.000000
30
0.0
11
630.000000
21
454.000000
31
0.0
0
LINE
8
LINES
10
492.000000
20
342.000000
30
0.0
11
428.000000
21
342.000000
31
0.0
0
LINE
8
LINES
10
673.000000
20
779.000000
30
0.0
11
673.000000
21
716.000000
31
0.0
0
LINE
8
LINES
10
168.000000
20
494.000000
30
0.0
11
104.000000
21
494.000000
31
0.0
0
LINE
8
LINES
10
552.000000
20
388.000000
30
0.0
11
616.000000
21
388.000000
31
0.0
0
LINE
8
LINES
10
561.000000
20
392.000000
30
0.0
11
561.000000
21
454.000000
31
0.0
0
LINE
8
LINES
10
673.000000
20
486.000000
30
0.0
11
673.000000
21
422.000000
31
0.0
0
LINE
8
LINES
10
62.000000
20
166.000000
30
0.0
11
62.000000
21
104.000000
31
0.0
0
LINE
8
LINES
10
358.000000
20
841.000000
30
0.0
11
297.000000
21
841.000000
31
0.0
0
LINE
8
LINES
10
92.000000
20
500.000000
30
0.0
11
153.000000
21
500.000000
31
0.0
0
LINE
8
LINES
10
238.000000
20
104.000000
30
0.0
11
238.000000
21
166.000000
31
0.0
0
LINE
8
LINES
10
428.000000
20
492.000000
30
0.0
11
366.000000
21
492.000000
31
0.0
0
LINE
8
LINES
10
593.000000
20
347.000000
30
0.0
11
532.000000
21
347.000000
31
0.0
0
LINE
8
LINES
10
164.000000
20
387.000000
30
0.0
11
164.000000
21
448.000000
31
0.0
0
LINE
8
LINES
10
390.000000
20
1019.000000
30
0.0
11
329.000000
21
1019.000000
31
0.0
0
LINE
8
LINES
10
180.000000
20
448.000000
30
0.0
11
180.000000
21
387.000000
31
0.0
0
LINE
8
LINES
10
736.000000
20
182.000000
30
0.0
11
736.000000
21
121.000000
31
0.0
0
LINE
8
LINES
10
507.000000
20
300.000000
30
0.0
11
446.000000
21
300.000000
31
0.0
0
LINE
8
LINES
10
497.000000
20
851.000000
30
0.0
11
556.000000
21
851.000000
31
0.0
0
LINE
8
LINES
10
91.000000
20
494.000000
30
0.0
11
150.000000
21
494.000000
31
0.0
0
LINE
8
LINES
10
552.000000
20
934.000000
30
0.0
11
611.000000
21
934.000000
31
0.0
0
LINE
8
LINES
10
561.000000
20
734.000000
30
0.0
11
561.000000
21
793.000000
31
0.0
0
LINE
8
LINES
10
588.000000
20
734.000000
30
0.0
11
588.000000
21
793.000000
31
0.0
0
LINE
8
LINES
10
67.000000
20
291.000000
30
0.0
11
67.000000
21
352.000000
31
0.0
0
LINE
8
LINES
10
296.000000
20
841.000000
30
0.0
11
236.000000
21
841.000000
31
0.0
0
LINE
8
LINES
10
345.000000
20
230.000000
30
0.0
11
286.000000
21
230.000000
31
0.0
0
LINE
8
LINES
10
510.000000
20
699.000000
30
0.0
11
510.000000
21
758.000000
31
0.0
0
LINE
8
LINES
10
126.000000
20
361.000000
30
0.0
11
185.000000
21
361.000000
31
0.0
0
LINE
8
LINES
10
174.000000
20
62.000000
30
0.0
11
118.000000
21
81.000000
31
0.0
0
LINE
8
LINES
10
576.000000
20
793.000000
30
0.0
11
576.000000
21
736.000000
31
0.0
0
LINE
8
LINES
10
249.000000
20
19.000000
30
0.0
11
307.000000
21
19.000000
31
0.0
0
LINE
8
LINES
10
460.000000
20
230.000000
30
0.0
11
401.000000
21
230.000000
31
0.0
0
LINE
8
LINES
10
147.000000
20
928.000000
30
0.0
11
206.000000
21
928.000000
31
0.0
0
LINE
8
LINES
10
608.000000
20
793.000000
30
0.0
11
608.000000
21
736.000000
31
0.0
0
LINE
8
LINES
10
558.000000
20
513.000000
30
0.0
11
617.000000
21
513.000000
31
0.0
0
LINE
8
LINES
10
617.000000
20
515.000000
30
0.0
11
558.000000
21
515.000000
31
0.0
0
LINE
8
LINES
10
438.000000
20
22.000000
30
0.0
11
497.000000
21
22.000000
31
0.0
0
LINE
8
LINES
10
128.000000
20
246.000000
30
0.0
11
185.000000
21
246.000000
31
0.0
0
LINE
8
LINES
10
288.000000
20
537.000000
30
0.0
11
345.000000
21
537.000000
31
0.0
0
LINE
8
LINES
10
336.000000
20
662.000000
30
0.0
11
393.000000
21
662.000000
31
0.0
0
LINE
8
LINES
10
491.000000
20
950.000000
30
0.0
11
491.000000
21
892.000000
31
0.0
0
LINE
8
LINES
10
291.000000
20
387.000000
30
0.0
11
291.000000
21
444.000000
31
0.0
0
LINE
8
LINES
10
454.000000
20
446.000000
30
0.0
11
454.000000
21
388.000000
31
0.0
0
LINE
8
LINES
10
451.000000
20
388.000000
30
0.0
11
451.000000
21
446.000000
31
0.0
0
LINE
8
LINES
10
288.000000
20
358.000000
30
0.0
11
345.000000
21
358.000000
31
0.0
0
LINE
8
LINES
10
401.000000
20
360.000000
30
0.0
11
459.000000
21
360.000000
31
0.0
0
LINE
8
LINES
10
561.000000
20
364.000000
30
0.0
11
617.000000
21
364.000000
31
0.0
0
LINE
8
LINES
10
593.000000
20
838.000000
30
0.0
11
649.000000
21
838.000000
31
0.0
0
LINE
8
LINES
10
288.000000
20
382.000000
30
0.0
11
344.000000
21
382.000000
31
0.0
0
LINE
8
LINES
10
118.000000
20
75.000000
30
0.0
11
64.000000
21
65.000000
31
0.0
0
LINE
8
LINES
10
401.000000
20
384.000000
30
0.0
11
457.000000
21
384.000000
31
0.0
0
LINE
8
LINES
10
345.000000
20
297.000000
30
0.0
11
401.000000
21
297.000000
31
0.0
0
LINE
8
LINES
10
505.000000
20
166.000000
30
0.0
11
505.000000
21
108.000000
31
0.0
0
LINE
8
LINES
10
566.000000
20
88.000000
30
0.0
11
510.000000
21
83.000000
31
0.0
0
LINE
8
LINES
10
446.000000
20
3.000000
30
0.0
11
500.000000
21
3.000000
31
0.0
0
LINE
8
LINES
10
670.000000
20
675.000000
30
0.0
11
726.000000
21
675.000000
31
0.0
0
LINE
8
LINES
10
19.000000
20
809.000000
30
0.0
11
73.000000
21
809.000000
31
0.0
0
LINE
8
LINES
10
65.000000
20
233.000000
30
0.0
11
65.000000
21
289.000000
31
0.0
0
LINE
8
LINES
10
6.000000
20
840.000000
30
0.0
11
62.000000
21
840.000000
31
0.0
0
LINE
8
LINES
10
65.000000
20
168.000000
30
0.0
11
65.000000
21
222.000000
31
0.0
0
LINE
8
LINES
10
100.000000
20
393.000000
30
0.0
11
88.000000
21
340.000000
31
0.0
0
LINE
8
LINES
10
342.000000
20
243.000000
30
0.0
11
342.000000
21
297.000000
31
0.0
0
LINE
8
LINES
10
403.000000
20
297.000000
30
0.0
11
403.000000
21
243.000000
31
0.0
0
LINE
8
LINES
10
604.000000
20
454.000000
30
0.0
11
604.000000
21
401.000000
31
0.0
0
LINE
8
LINES
10
286.000000
20
297.000000
30
0.0
11
286.000000
21
243.000000
31
0.0
0
LINE
8
LINES
10
345.000000
20
195.000000
30
0.0
11
398.000000
21
195.000000
31
0.0
0
LINE
8
LINES
10
587.000000
20
401.000000
30
0.0
11
587.000000
21
454.000000
31
0.0
0
LINE
8
LINES
10
454.000000
20
779.000000
30
0.0
11
508.000000
21
779.000000
31
0.0
0
LINE
8
LINES
10
246.000000
20
792.000000
30
0.0
11
300.000000
21
792.000000
31
0.0
0
LINE
8
LINES
10
508.000000
20
761.000000
30
0.0
11
454.000000
21
761.000000
31
0.0
0
LINE
8
LINES
10
616.000000
20
235.000000
30
0.0
11
561.000000
21
235.000000
31
0.0
0
LINE
8
LINES
10
339.000000
20
561.000000
30
0.0
11
339.000000
21
614.000000
31
0.0
0
LINE
8
LINES
10
131.000000
20
393.000000
30
0.0
11
131.000000
21
448.000000
31
0.0
0
LINE
8
LINES
10
643.000000
20
984.000000
30
0.0
11
643.000000
21
931.000000
31
0.0
0
LINE
8
LINES
10
388.000000
20
1008.000000
30
0.0
11
336.000000
21
1008.000000
31
0.0
0
LINE
8
LINES
10
617.000000
20
368.000000
30
0.0
11
563.000000
21
368.000000
31
0.0
0
LINE
8
LINES
10
307.000000
20
851.000000
30
0.0
11
358.000000
21
844.000000
31
0.0
0
LINE
8
LINES
10
44.000000
20
113.000000
30
0.0
11
44.000000
21
166.000000
31
0.0
0
LINE
8
LINES
10
609.000000
20
937.000000
30
0.0
11
556.000000
21
937.000000
31
0.0
0
LINE
8
LINES
10
438.000000
20
195.000000
30
0.0
11
491.000000
21
195.000000
31
0.0
0
LINE
8
LINES
10
456.000000
20
246.000000
30
0.0
11
456.000000
21
297.000000
31
0.0
0
LINE
8
LINES
10
176.000000
20
300.000000
30
0.0
11
176.000000
21
248.000000
31
0.0
0
LINE
8
LINES
10
673.000000
20
812.000000
30
0.0
11
726.000000
21
812.000000
31
0.0
0
LINE
8
LINES
10
660.000000
20
798.000000
30
0.0
11
608.000000
21
798.000000
31
0.0
0
LINE
8
LINES
10
454.000000
20
740.000000
30
0.0
11
507.000000
21
740.000000
31
0.0
0
LINE
8
LINES
10
507.000000
20
742.000000
30
0.0
11
454.000000
21
742.000000
31
0.0
0
LINE
8
LINES
10
211.000000
20
342.000000
30
0.0
11
158.000000
21
342.000000
31
0.0
0
LINE
8
LINES
10
507.000000
20
780.000000
30
0.0
11
454.000000
21
780.000000
31
0.0
0
LINE
8
LINES
10
454.000000
20
760.000000
30
0.0
11
507.000000
21
760.000000
31
0.0
0
LINE
8
LINES
10
294.000000
20
441.000000
30
0.0
11
294.000000
21
387.000000
31
0.0
0
LINE
8
LINES
10
524.000000
20
875.000000
30
0.0
11
577.000000
21
875.000000
31
0.0
0
LINE
8
LINES
10
406.000000
20
219.000000
30
0.0
11
457.000000
21
219.000000
31
0.0
0
LINE
8
LINES
10
678.000000
20
83.000000
30
0.0
11
628.000000
21
72.000000
31
0.0
0
LINE
8
LINES
10
108.000000
20
980.000000
30
0.0
11
108.000000
21
929.000000
31
0.0
0
LINE
8
LINES
10
579.000000
20
452.000000
30
0.0
11
579.000000
21
401.000000
31
0.0
0
LINE
8
LINES
10
348.000000
20
448.000000
30
0.0
11
398.000000
21
448.000000
31
0.0
0
LINE
8
LINES
10
403.000000
20
243.000000
30
0.0
11
456.000000
21
243.000000
31
0.0
0
LINE
8
LINES
10
561.000000
20
243.000000
30
0.0
11
612.000000
21
243.000000
31
0.0
0
LINE
8
LINES
10
70.000000
20
1001.000000
30
0.0
11
19.000000
21
1001.000000
31
0.0
0
LINE
8
LINES
10
505.000000
20
702.000000
30
0.0
11
454.000000
21
702.000000
31
0.0
0
LINE
8
LINES
10
505.000000
20
723.000000
30
0.0
11
454.000000
21
723.000000
31
0.0
0
LINE
8
LINES
10
129.000000
20
297.000000
30
0.0
11
129.000000
21
246.000000
31
0.0
0
LINE
8
LINES
10
201.000000
20
843.000000
30
0.0
11
148.000000
21
843.000000
31
0.0
0
LINE
8
LINES
10
676.000000
20
121.000000
30
0.0
11
676.000000
21
172.000000
31
0.0
0
LINE
8
LINES
10
614.000000
20
451.000000
30
0.0
11
614.000000
21
401.000000
31
0.0
0
LINE
8
LINES
10
289.000000
20
217.000000
30
0.0
11
340.000000
21
217.000000
31
0.0
0
LINE
8
LINES
10
152.000000
20
988.000000
30
0.0
11
147.000000
21
937.000000
31
0.0
0
LINE
8
LINES
10
414.000000
20
916.000000
30
0.0
11
414.000000
21
867.000000
31
0.0
0
LINE
8
LINES
10
302.000000
20
792.000000
30
0.0
11
302.000000
21
742.000000
31
0.0
0
LINE
8
LINES
10
700.000000
20
844.000000
30
0.0
11
750.000000
21
844.000000
31
0.0
0
LINE
8
LINES
10
675.000000
20
801.000000
30
0.0
11
726.000000
21
801.000000
31
0.0
0
LINE
8
LINES
10
115.000000
20
92.000000
30
0.0
11
65.000000
21
92.000000
31
0.0
0
LINE
8
LINES
10
147.000000
20
448.000000
30
0.0
11
147.000000
21
398.000000
31
0.0
0
LINE
8
LINES
10
377.000000
20
867.000000
30
0.0
11
377.000000
21
916.000000
31
0.0
0
LINE
8
LINES
10
129.000000
20
238.000000
30
0.0
11
179.000000
21
238.000000
31
0.0
0
LINE
8
LINES
10
457.000000
20
297.000000
30
0.0
11
507.000000
21
297.000000
31
0.0
0
LINE
8
LINES
10
291.000000
20
294.000000
30
0.0
11
291.000000
21
243.000000
31
0.0
0
LINE
8
LINES
10
337.000000
20
243.000000
30
0.0
11
337.000000
21
294.000000
31
0.0
0
LINE
8
LINES
10
339.000000
20
294.000000
30
0.0
11
339.000000
21
243.000000
31
0.0
0
LINE
8
LINES
10
179.000000
20
241.000000
30
0.0
11
129.000000
21
241.000000
31
0.0
0
LINE
8
LINES
10
456.000000
20
721.000000
30
0.0
11
505.000000
21
721.000000
31
0.0
0
LINE
8
LINES
10
148.000000
20
846.000000
30
0.0
11
198.000000
21
846.000000
31
0.0
0
LINE
8
LINES
10
289.000000
20
243.000000
30
0.0
11
289.000000
21
294.000000
31
0.0
0
LINE
8
LINES
10
454.000000
20
241.000000
30
0.0
11
403.000000
21
241.000000
31
0.0
0
LINE
8
LINES
10
216.000000
20
931.000000
30
0.0
11
216.000000
21
881.000000
31
0.0
0
LINE
8
LINES
10
179.000000
20
222.000000
30
0.0
11
129.000000
21
222.000000
31
0.0
0
LINE
8
LINES
10
198.000000
20
668.000000
30
0.0
11
192.000000
21
620.000000
31
0.0
0
LINE
8
LINES
10
611.000000
20
980.000000
30
0.0
11
611.000000
21
931.000000
31
0.0
0
LINE
8
LINES
10
206.000000
20
499.000000
30
0.0
11
158.000000
21
499.000000
31
0.0
0
LINE
8
LINES
10
611.000000
20
246.000000
30
0.0
11
563.000000
21
246.000000
31
0.0
0
LINE
8
LINES
10
457.000000
20
700.000000
30
0.0
11
505.000000
21
700.000000
31
0.0
0
LINE
8
LINES
10
406.000000
20
238.000000
30
0.0
11
454.000000
21
238.000000
31
0.0
0
LINE
8
LINES
10
572.000000
20
742.000000
30
0.0
11
572.000000
21
792.000000
31
0.0
0
LINE
8
LINES
10
180.000000
20
230.000000
30
0.0
11
131.000000
21
230.000000
31
0.0
0
LINE
8
LINES
10
139.000000
20
499.000000
30
0.0
11
92.000000
21
499.000000
31
0.0
0
LINE
8
LINES
10
526.000000
20
1020.000000
30
0.0
11
572.000000
21
1020.000000
31
0.0
0
LINE
8
LINES
10
236.000000
20
412.000000
30
0.0
11
236.000000
21
366.000000
31
0.0
0
LINE
8
LINES
10
566.000000
20
745.000000
30
0.0
11
566.000000
21
793.000000
31
0.0
0
LINE
8
LINES
10
424.000000
20
68.000000
30
0.0
11
377.000000
21
68.000000
31
0.0
0
LINE
8
LINES
10
499.000000
20
3.000000
30
0.0
11
547.000000
21
8.000000
31
0.0
0
LINE
8
LINES
10
446.000000
20
723.000000
30
0.0
11
446.000000
21
771.000000
31
0.0
0
LINE
8
LINES
10
291.000000
20
241.000000
30
0.0
11
337.000000
21
241.000000
31
0.0
0
LINE
8
LINES
10
348.000000
20
617.000000
30
0.0
11
396.000000
21
617.000000
31
0.0
0
LINE
8
LINES
10
348.000000
20
657.000000
30
0.0
11
396.000000
21
657.000000
31
0.0
0
LINE
8
LINES
10
451.000000
20
841.000000
30
0.0
11
406.000000
21
841.000000
31
0.0
0
LINE
8
LINES
10
465.000000
20
545.000000
30
0.0
11
465.000000
21
592.000000
31
0.0
0
LINE
8
LINES
10
337.000000
20
240.000000
30
0.0
11
291.000000
21
240.000000
31
0.0
0
LINE
8
LINES
10
131.000000
20
219.000000
30
0.0
11
177.000000
21
219.000000
31
0.0
0
LINE
8
LINES
10
750.000000
20
587.000000
30
0.0
11
750.000000
21
633.000000
31
0.0
0
LINE
8
LINES
10
478.000000
20
108.000000
30
0.0
11
473.000000
21
153.000000
31
0.0
0
LINE
8
LINES
10
612.000000
20
78.000000
30
0.0
11
568.000000
21
78.000000
31
0.0
0
LINE
8
LINES
10
267.000000
20
152.000000
30
0.0
11
267.000000
21
107.000000
31
0.0
0
LINE
8
LINES
10
236.000000
20
94.000000
30
0.0
11
190.000000
21
94.000000
31
0.0
0
LINE
8
LINES
10
478.000000
20
67.000000
30
0.0
11
433.000000
21
67.000000
31
0.0
0
LINE
8
LINES
10
446.000000
20
448.000000
30
0.0
11
446.000000
21
403.000000
31
0.0
0
LINE
8
LINES
10
430.000000
20
403.000000
30
0.0
11
430.000000
21
448.000000
31
0.0
0
LINE
8
LINES
10
404.000000
20
403.000000
30
0.0
11
404.000000
21
448.000000
31
0.0
0
LINE
8
LINES
10
422.000000
20
448.000000
30
0.0
11
422.000000
21
403.000000
31
0.0
0
LINE
8
LINES
10
451.000000
20
617.000000
30
0.0
11
406.000000
21
617.000000
31
0.0
0
LINE
8
LINES
10
672.000000
20
102.000000
30
0.0
11
627.000000
21
102.000000
31
0.0
0
LINE
8
LINES
10
464.000000
20
792.000000
30
0.0
11
508.000000
21
792.000000
31
0.0
0
LINE
8
LINES
10
456.000000
20
835.000000
30
0.0
11
500.000000
21
835.000000
31
0.0
0
LINE
8
LINES
10
115.000000
20
979.000000
30
0.0
11
115.000000
21
934.000000
31
0.0
0
LINE
8
LINES
10
348.000000
20
702.000000
30
0.0
11
393.000000
21
702.000000
31
0.0
0
LINE
8
LINES
10
449.000000
20
251.000000
30
0.0
11
449.000000
21
296.000000
31
0.0
0
LINE
8
LINES
10
563.000000
20
259.000000
30
0.0
11
563.000000
21
304.000000
31
0.0
0
LINE
8
LINES
10
67.000000
20
91.000000
30
0.0
11
113.000000
21
91.000000
31
0.0
0
LINE
8
LINES
10
508.000000
20
537.000000
30
0.0
11
508.000000
21
582.000000
31
0.0
0
LINE
8
LINES
10
323.000000
20
886.000000
30
0.0
11
364.000000
21
875.000000
31
0.0
0
LINE
8
LINES
10
577.000000
20
1009.000000
30
0.0
11
534.000000
21
1009.000000
31
0.0
0
LINE
8
LINES
10
67.000000
20
438.000000
30
0.0
11
67.000000
21
483.000000
31
0.0
0
LINE
8
LINES
10
283.000000
20
280.000000
30
0.0
11
238.000000
21
280.000000
31
0.0
0
LINE
8
LINES
10
161.000000
20
403.000000
30
0.0
11
161.000000
21
448.000000
31
0.0
0
LINE
8
LINES
10
489.000000
20
492.000000
30
0.0
11
446.000000
21
492.000000
31
0.0
0
LINE
8
LINES
10
236.000000
20
270.000000
30
0.0
11
236.000000
21
227.000000
31
0.0
0
LINE
8
LINES
10
587.000000
20
574.000000
30
0.0
11
587.000000
21
617.000000
31
0.0
0
LINE
8
LINES
10
11.000000
20
913.000000
30
0.0
11
54.000000
21
913.000000
31
0.0
0
LINE
8
LINES
10
112.000000
20
934.000000
30
0.0
11
112.000000
21
977.000000
31
0.0
0
LINE
8
LINES
10
430.000000
20
616.000000
30
0.0
11
430.000000
21
572.000000
31
0.0
0
LINE
8
LINES
10
388.000000
20
1001.000000
30
0.0
11
345.000000
21
1001.000000
31
0.0
0
LINE
8
LINES
10
750.000000
20
851.000000
30
0.0
11
707.000000
21
856.000000
31
0.0
0
LINE
8
LINES
10
548.000000
20
99.000000
30
0.0
11
507.000000
21
99.000000
31
0.0
0
LINE
8
LINES
10
734.000000
20
814.000000
30
0.0
11
691.000000
21
814.000000
31
0.0
0
LINE
8
LINES
10
67.000000
20
1001.000000
30
0.0
11
108.000000
21
1001.000000
31
0.0
0
LINE
8
LINES
10
51.000000
20
121.000000
30
0.0
11
51.000000
21
163.000000
31
0.0
0
LINE
8
LINES
10
336.000000
20
265.000000
30
0.0
11
292.000000
21
265.000000
31
0.0
0
LINE
8
LINES
10
318.000000
20
403.000000
30
0.0
11
318.000000
21
446.000000
31
0.0
0
LINE
8
LINES
10
617.000000
20
620.000000
30
0.0
11
659.000000
21
620.000000
31
0.0
0
LINE
8
LINES
10
342.000000
20
337.000000
30
0.0
11
384.000000
21
337.000000
31
0.0
0
LINE
8
LINES
10
630.000000
20
795.000000
30
0.0
11
673.000000
21
795.000000
31
0.0
0
LINE
8
LINES
10
406.000000
20
838.000000
30
0.0
11
448.000000
21
838.000000
31
0.0
0
LINE
8
LINES
10
451.000000
20
838.000000
30
0.0
11
494.000000
21
838.000000
31
0.0
0
LINE
8
LINES
10
691.000000
20
870.000000
30
0.0
11
732.000000
21
870.000000
31
0.0
0
LINE
8
LINES
10
654.000000
20
355.000000
30
0.0
11
640.000000
21
396.000000
31
0.0
0
LINE
8
LINES
10
48.000000
20
812.000000
30
0.0
11
6.000000
21
817.000000
31
0.0
0
LINE
8
LINES
10
417.000000
20
539.000000
30
0.0
11
457.000000
21
539.000000
31
0.0
0
LINE
8
LINES
10
364.000000
20
65.000000
30
0.0
11
323.000000
21
65.000000
31
0.0
0
LINE
8
LINES
10
174.000000
20
257.000000
30
0.0
11
132.000000
21
257.000000
31
0.0
0
LINE
8
LINES
10
449.000000
20
576.000000
30
0.0
11
449.000000
21
617.000000
31
0.0
0
LINE
8
LINES
10
160.000000
20
259.000000
30
0.0
11
160.000000
21
300.000000
31
0.0
0
LINE
8
LINES
10
451.000000
20
617.000000
30
0.0
11
451.000000
21
577.000000
31
0.0
0
LINE
8
LINES
10
723.000000
20
798.000000
30
0.0
11
723.000000
21
756.000000
31
0.0
0
LINE
8
LINES
10
579.000000
20
539.000000
30
0.0
11
620.000000
21
539.000000
31
0.0
0
LINE
8
LINES
10
17.000000
20
1004.000000
30
0.0
11
57.000000
21
1004.000000
31
0.0
0
LINE
8
LINES
10
12.000000
20
848.000000
30
0.0
11
54.000000
21
848.000000
31
0.0
0
LINE
8
LINES
10
451.000000
20
768.000000
30
0.0
11
451.000000
21
726.000000
31
0.0
0
LINE
8
LINES
10
406.000000
20
726.000000
30
0.0
11
406.000000
21
768.000000
31
0.0
0
LINE
8
LINES
10
342.000000
20
220.000000
30
0.0
11
300.000000
21
220.000000
31
0.0
0
LINE
8
LINES
10
604.000000
20
262.000000
30
0.0
11
563.000000
21
262.000000
31
0.0
0
LINE
8
LINES
10
310.000000
20
70.000000
30
0.0
11
270.000000
21
62.000000
31
0.0
0
LINE
8
LINES
10
152.000000
20
856.000000
30
0.0
11
192.000000
21
856.000000
31
0.0
0
LINE
8
LINES
10
676.000000
20
182.000000
30
0.0
11
676.000000
21
222.000000
31
0.0
0
LINE
8
LINES
10
563.000000
20
931.000000
30
0.0
11
603.000000
21
931.000000
31
0.0
0
LINE
8
LINES
10
81.000000
20
1011.000000
30
0.0
11
41.000000
21
1011.000000
31
0.0
0
LINE
8
LINES
10
134.000000
20
259.000000
30
0.0
11
134.000000
21
299.000000
31
0.0
0
LINE
8
LINES
10
446.000000
20
265.000000
30
0.0
11
406.000000
21
265.000000
31
0.0
0
LINE
8
LINES
10
153.000000
20
299.000000
30
0.0
11
153.000000
21
259.000000
31
0.0
0
LINE
8
LINES
10
403.000000
20
662.000000
30
0.0
11
444.000000
21
662.000000
31
0.0
0
LINE
8
LINES
10
238.000000
20
276.000000
30
0.0
11
278.000000
21
276.000000
31
0.0
0
LINE
8
LINES
10
278.000000
20
262.000000
30
0.0
11
238.000000
21
262.000000
31
0.0
0
LINE
8
LINES
10
467.000000
20
262.000000
30
0.0
11
507.000000
21
262.000000
31
0.0
0
LINE
8
LINES
10
604.000000
20
304.000000
30
0.0
11
604.000000
21
264.000000
31
0.0
0
LINE
8
LINES
10
11.000000
20
158.000000
30
0.0
11
11.000000
21
118.000000
31
0.0
0
LINE
8
LINES
10
352.000000
20
259.000000
30
0.0
11
392.000000
21
259.000000
31
0.0
0
LINE
8
LINES
10
392.000000
20
262.000000
30
0.0
11
352.000000
21
262.000000
31
0.0
0
LINE
8
LINES
10
296.000000
20
761.000000
30
0.0
11
256.000000
21
761.000000
31
0.0
0
LINE
8
LINES
10
588.000000
20
264.000000
30
0.0
11
588.000000
21
304.000000
31
0.0
0
LINE
8
LINES
10
220.000000
20
996.000000
30
0.0
11
260.000000
21
996.000000
31
0.0
0
LINE
8
LINES
10
353.000000
20
675.000000
30
0.0
11
393.000000
21
675.000000
31
0.0
0
LINE
8
LINES
10
348.000000
20
1014.000000
30
0.0
11
388.000000
21
1014.000000
31
0.0
0
LINE
8
LINES
10
72.000000
20
57.000000
30
0.0
11
112.000000
21
57.000000
31
0.0
0
LINE
8
LINES
10
656.000000
20
505.000000
30
0.0
11
638.000000
21
540.000000
31
0.0
0
LINE
8
LINES
10
222.000000
20
852.000000
30
0.0
11
262.000000
21
852.000000
31
0.0
0
LINE
8
LINES
10
444.000000
20
401.000000
30
0.0
11
406.000000
21
401.000000
31
0.0
0
LINE
8
LINES
10
713.000000
20
24.000000
30
0.0
11
750.000000
21
32.000000
31
0.0
0
LINE
8
LINES
10
612.000000
20
163.000000
30
0.0
11
652.000000
21
163.000000
31
0.0
0
LINE
8
LINES
10
531.000000
20
622.000000
30
0.0
11
531.000000
21
660.000000
31
0.0
0
LINE
8
LINES
10
472.000000
20
97.000000
30
0.0
11
433.000000
21
97.000000
31
0.0
0
LINE
8
LINES
10
238.000000
20
259.000000
30
0.0
11
278.000000
21
259.000000
31
0.0
0
LINE
8
LINES
10
392.000000
20
281.000000
30
0.0
11
353.000000
21
281.000000
31
0.0
0
LINE
8
LINES
10
238.000000
20
294.000000
30
0.0
11
278.000000
21
294.000000
31
0.0
0
LINE
8
LINES
10
467.000000
20
280.000000
30
0.0
11
505.000000
21
280.000000
31
0.0
0
LINE
8
LINES
10
243.000000
20
699.000000
30
0.0
11
281.000000
21
699.000000
31
0.0
0
LINE
8
LINES
10
353.000000
20
278.000000
30
0.0
11
392.000000
21
278.000000
31
0.0
0
LINE
8
LINES
10
652.000000
20
622.000000
30
0.0
11
614.000000
21
622.000000
31
0.0
0
LINE
8
LINES
10
601.000000
20
932.000000
30
0.0
11
563.000000
21
932.000000
31
0.0
0
LINE
8
LINES
10
577.000000
20
878.000000
30
0.0
11
537.000000
21
878.000000
31
0.0
0
LINE
8
LINES
10
326.000000
20
361.000000
30
0.0
11
288.000000
21
361.000000
31
0.0
0
LINE
8
LINES
10
408.000000
20
390.000000
30
0.0
11
446.000000
21
390.000000
31
0.0
0
LINE
8
LINES
10
0.000000
20
17.000000
30
0.0
11
38.000000
21
17.000000
31
0.0
0
LINE
8
LINES
10
115.000000
20
300.000000
30
0.0
11
115.000000
21
262.000000
31
0.0
0
LINE
8
LINES
10
628.000000
20
268.000000
30
0.0
11
628.000000
21
305.000000
31
0.0
0
LINE
8
LINES
10
526.000000
20
219.000000
30
0.0
11
531.000000
21
182.000000
31
0.0
0
LINE
8
LINES
10
233.000000
20
81.000000
30
0.0
11
195.000000
21
81.000000
31
0.0
0
LINE
8
LINES
10
612.000000
20
392.000000
30
0.0
11
612.000000
21
428.000000
31
0.0
0
LINE
8
LINES
10
276.000000
20
846.000000
30
0.0
11
238.000000
21
846.000000
31
0.0
0
LINE
8
LINES
10
272.000000
20
153.000000
30
0.0
11
272.000000
21
192.000000
31
0.0
0
LINE
8
LINES
10
534.000000
20
163.000000
30
0.0
11
534.000000
21
201.000000
31
0.0
0
LINE
8
LINES
10
532.000000
20
456.000000
30
0.0
11
532.000000
21
492.000000
31
0.0
0
LINE
8
LINES
10
334.000000
20
401.000000
30
0.0
11
297.000000
21
401.000000
31
0.0
0
LINE
8
LINES
10
476.000000
20
675.000000
30
0.0
11
513.000000
21
675.000000
31
0.0
0
LINE
8
LINES
10
507.000000
20
444.000000
30
0.0
11
468.000000
21
444.000000
31
0.0
0
LINE
8
LINES
10
505.000000
20
281.000000
30
0.0
11
467.000000
21
281.000000
31
0.0
0
LINE
8
LINES
10
468.000000
20
422.000000
30
0.0
11
507.000000
21
422.000000
31
0.0
0
LINE
8
LINES
10
504.000000
20
681.000000
30
0.0
11
467.000000
21
681.000000
31
0.0
0
LINE
8
LINES
10
256.000000
20
739.000000
30
0.0
11
292.000000
21
739.000000
31
0.0
0
LINE
8
LINES
10
276.000000
20
424.000000
30
0.0
11
238.000000
21
424.000000
31
0.0
0
LINE
8
LINES
10
536.000000
20
913.000000
30
0.0
11
536.000000
21
876.000000
31
0.0
0
LINE
8
LINES
10
238.000000
20
401.000000
30
0.0
11
276.000000
21
401.000000
31
0.0
0
LINE
8
LINES
10
216.000000
20
201.000000
30
0.0
11
177.000000
21
201.000000
31
0.0
0
LINE
8
LINES
10
505.000000
20
264.000000
30
0.0
11
467.000000
21
264.000000
31
0.0
0
LINE
8
LINES
10
238.000000
20
420.000000
30
0.0
11
276.000000
21
420.000000
31
0.0
0
LINE
8
LINES
10
464.000000
20
385.000000
30
0.0
11
464.000000
21
422.000000
31
0.0
0
LINE
8
LINES
10
668.000000
20
97.000000
30
0.0
11
630.000000
21
97.000000
31
0.0
0
LINE
8
LINES
10
576.000000
20
870.000000
30
0.0
11
537.000000
21
870.000000
31
0.0
0
LINE
8
LINES
10
617.000000
20
390.000000
30
0.0
11
617.000000
21
428.000000
31
0.0
0
LINE
8
LINES
10
297.000000
20
390.000000
30
0.0
11
336.000000
21
390.000000
31
0.0
0
LINE
8
LINES
10
233.000000
20
204.000000
30
0.0
11
233.000000
21
166.000000
31
0.0
0
LINE
8
LINES
10
547.000000
20
6.000000
30
0.0
11
584.000000
21
6.000000
31
0.0
0
LINE
8
LINES
10
185.000000
20
264.000000
30
0.0
11
190.000000
21
300.000000
31
0.0
0
LINE
8
LINES
10
721.000000
20
734.000000
30
0.0
11
721.000000
21
697.000000
31
0.0
0
LINE
8
LINES
10
318.000000
20
835.000000
30
0.0
11
353.000000
21
835.000000
31
0.0
0
LINE
8
LINES
10
577.000000
20
929.000000
30
0.0
11
542.000000
21
929.000000
31
0.0
0
LINE
8
LINES
10
59.000000
20
1006.000000
30
0.0
11
22.000000
21
1006.000000
31
0.0
0
LINE
8
LINES
10
624.000000
20
929.000000
30
0.0
11
588.000000
21
929.000000
31
0.0
0
LINE
8
LINES
10
534.000000
20
307.000000
30
0.0
11
534.000000
21
342.000000
31
0.0
0
LINE
8
LINES
10
454.000000
20
793.000000
30
0.0
11
454.000000
21
830.000000
31
0.0
0
LINE
8
LINES
10
568.000000
20
1017.000000
30
0.0
11
531.000000
21
1017.000000
31
0.0
0
LINE
8
LINES
10
451.000000
20
489.000000
30
0.0
11
486.000000
21
489.000000
31
0.0
0
LINE
8
LINES
10
470.000000
20
403.000000
30
0.0
11
507.000000
21
403.000000
31
0.0
0
LINE
8
LINES
10
278.000000
20
443.000000
30
0.0
11
241.000000
21
443.000000
31
0.0
0
LINE
8
LINES
10
507.000000
20
406.000000
30
0.0
11
470.000000
21
406.000000
31
0.0
0
LINE
8
LINES
10
406.000000
20
844.000000
30
0.0
11
441.000000
21
844.000000
31
0.0
0
LINE
8
LINES
10
468.000000
20
441.000000
30
0.0
11
505.000000
21
441.000000
31
0.0
0
LINE
8
LINES
10
262.000000
20
156.000000
30
0.0
11
262.000000
21
192.000000
31
0.0
0
LINE
8
LINES
10
726.000000
20
928.000000
30
0.0
11
691.000000
21
928.000000
31
0.0
0
LINE
8
LINES
10
691.000000
20
948.000000
30
0.0
11
726.000000
21
948.000000
31
0.0
0
LINE
8
LINES
10
691.000000
20
945.000000
30
0.0
11
726.000000
21
945.000000
31
0.0
0
LINE
8
LINES
10
259.000000
20
894.000000
30
0.0
11
259.000000
21
931.000000
31
0.0
0
LINE
8
LINES
10
726.000000
20
931.000000
30
0.0
11
691.000000
21
931.000000
31
0.0
0
LINE
8
LINES
10
512.000000
20
97.000000
30
0.0
11
547.000000
21
97.000000
31
0.0
0
LINE
8
LINES
10
600.000000
20
793.000000
30
0.0
11
600.000000
21
756.000000
31
0.0
0
LINE
8
LINES
10
411.000000
20
252.000000
30
0.0
11
446.000000
21
252.000000
31
0.0
0
LINE
8
LINES
10
716.000000
20
38.000000
30
0.0
11
750.000000
21
44.000000
31
0.0
0
LINE
8
LINES
10
750.000000
20
35.000000
30
0.0
11
715.000000
21
28.000000
31
0.0
0
LINE
8
LINES
10
716.000000
20
30.000000
30
0.0
11
750.000000
21
38.000000
31
0.0
0
LINE
8
LINES
10
358.000000
20
534.000000
30
0.0
11
326.000000
21
521.000000
31
0.0
0
LINE
8
LINES
10
664.000000
20
86.000000
30
0.0
11
628.000000
21
86.000000
31
0.0
0
LINE
8
LINES
10
1.000000
20
30.000000
30
0.0
11
35.000000
21
28.000000
31
0.0
0
LINE
8
LINES
10
417.000000
20
84.000000
30
0.0
11
382.000000
21
84.000000
31
0.0
0
LINE
8
LINES
10
361.000000
20
84.000000
30
0.0
11
326.000000
21
84.000000
31
0.0
0
LINE
8
LINES
10
35.000000
20
19.000000
30
0.0
11
1.000000
21
19.000000
31
0.0
0
LINE
8
LINES
10
750.000000
20
990.000000
30
0.0
11
716.000000
21
993.000000
31
0.0
0
LINE
8
LINES
10
1.000000
20
24.000000
30
0.0
11
35.000000
21
20.000000
31
0.0
0
LINE
8
LINES
10
750.000000
20
995.000000
30
0.0
11
716.000000
21
998.000000
31
0.0
0
LINE
8
LINES
10
100.000000
20
1009.000000
30
0.0
11
65.000000
21
1009.000000
31
0.0
0
LINE
8
LINES
10
92.000000
20
155.000000
30
0.0
11
126.000000
21
155.000000
31
0.0
0
LINE
8
LINES
10
473.000000
20
83.000000
30
0.0
11
508.000000
21
83.000000
31
0.0
0
LINE
8
LINES
10
524.000000
20
664.000000
30
0.0
11
524.000000
21
628.000000
31
0.0
0
LINE
8
LINES
10
241.000000
20
441.000000
30
0.0
11
276.000000
21
441.000000
31
0.0
0
LINE
8
LINES
10
414.000000
20
892.000000
30
0.0
11
379.000000
21
892.000000
31
0.0
0
LINE
8
LINES
10
472.000000
20
84.000000
30
0.0
11
436.000000
21
84.000000
31
0.0
0
LINE
8
LINES
10
472.000000
20
574.000000
30
0.0
11
507.000000
21
574.000000
31
0.0
0
LINE
8
LINES
10
507.000000
20
595.000000
30
0.0
11
472.000000
21
595.000000
31
0.0
0
LINE
8
LINES
10
472.000000
20
612.000000
30
0.0
11
507.000000
21
612.000000
31
0.0
0
LINE
8
LINES
10
472.000000
20
553.000000
30
0.0
11
507.000000
21
553.000000
31
0.0
0
LINE
8
LINES
10
505.000000
20
425.000000
30
0.0
11
470.000000
21
425.000000
31
0.0
0
LINE
8
LINES
10
726.000000
20
908.000000
30
0.0
11
691.000000
21
908.000000
31
0.0
0
LINE
8
LINES
10
507.000000
20
576.000000
30
0.0
11
472.000000
21
576.000000
31
0.0
0
LINE
8
LINES
10
355.000000
20
441.000000
30
0.0
11
390.000000
21
441.000000
31
0.0
0
LINE
8
LINES
10
691.000000
20
929.000000
30
0.0
11
726.000000
21
929.000000
31
0.0
0
LINE
8
LINES
10
694.000000
20
891.000000
30
0.0
11
729.000000
21
891.000000
31
0.0
0
LINE
8
LINES
10
57.000000
20
910.000000
30
0.0
11
22.000000
21
910.000000
31
0.0
0
LINE
8
LINES
10
601.000000
20
875.000000
30
0.0
11
636.000000
21
875.000000
31
0.0
0
LINE
8
LINES
10
299.000000
20
238.000000
30
0.0
11
334.000000
21
238.000000
31
0.0
0
LINE
8
LINES
10
462.000000
20
420.000000
30
0.0
11
462.000000
21
385.000000
31
0.0
0
LINE
8
LINES
10
619.000000
20
427.000000
30
0.0
11
619.000000
21
392.000000
31
0.0
0
LINE
8
LINES
10
339.000000
20
387.000000
30
0.0
11
339.000000
21
422.000000
31
0.0
0
LINE
8
LINES
10
750.000000
20
41.000000
30
0.0
11
716.000000
21
35.000000
31
0.0
0
LINE
8
LINES
10
344.000000
20
865.000000
30
0.0
11
312.000000
21
878.000000
31
0.0
0
LINE
8
LINES
10
531.000000
20
539.000000
30
0.0
11
523.000000
21
505.000000
31
0.0
0
LINE
8
LINES
10
366.000000
20
99.000000
30
0.0
11
332.000000
21
92.000000
31
0.0
0
LINE
8
LINES
10
412.000000
20
94.000000
30
0.0
11
377.000000
21
99.000000
31
0.0
0
LINE
8
LINES
10
268.000000
20
76.000000
30
0.0
11
233.000000
21
76.000000
31
0.0
0
LINE
8
LINES
10
582.000000
20
6.000000
30
0.0
11
617.000000
21
6.000000
31
0.0
0
LINE
8
LINES
10
33.000000
20
25.000000
30
0.0
11
1.000000
21
25.000000
31
0.0
0
LINE
8
LINES
10
76.000000
20
977.000000
30
0.0
11
110.000000
21
982.000000
31
0.0
0
LINE
8
LINES
10
379.000000
20
918.000000
30
0.0
11
412.000000
21
918.000000
31
0.0
0
LINE
8
LINES
10
46.000000
20
1019.000000
30
0.0
11
78.000000
21
1019.000000
31
0.0
0
LINE
8
LINES
10
379.000000
20
883.000000
30
0.0
11
412.000000
21
883.000000
31
0.0
0
LINE
8
LINES
10
526.000000
20
361.000000
30
0.0
11
529.000000
21
326.000000
31
0.0
0
LINE
8
LINES
10
299.000000
20
904.000000
30
0.0
11
265.000000
21
904.000000
31
0.0
0
LINE
8
LINES
10
92.000000
20
449.000000
30
0.0
11
126.000000
21
449.000000
31
0.0
0
LINE
8
LINES
10
236.000000
20
80.000000
30
0.0
11
268.000000
21
80.000000
31
0.0
0
LINE
8
LINES
10
275.000000
20
404.000000
30
0.0
11
241.000000
21
404.000000
31
0.0
0
LINE
8
LINES
10
472.000000
20
593.000000
30
0.0
11
505.000000
21
593.000000
31
0.0
0
LINE
8
LINES
10
507.000000
20
385.000000
30
0.0
11
473.000000
21
385.000000
31
0.0
0
LINE
8
LINES
10
356.000000
20
422.000000
30
0.0
11
390.000000
21
422.000000
31
0.0
0
LINE
8
LINES
10
403.000000
20
833.000000
30
0.0
11
438.000000
21
833.000000
31
0.0
0
LINE
8
LINES
10
390.000000
20
425.000000
30
0.0
11
356.000000
21
425.000000
31
0.0
0
LINE
8
LINES
10
552.000000
20
97.000000
30
0.0
11
552.000000
21
131.000000
31
0.0
0
LINE
8
LINES
10
505.000000
20
556.000000
30
0.0
11
472.000000
21
556.000000
31
0.0
0
LINE
8
LINES
10
286.000000
20
782.000000
30
0.0
11
252.000000
21
782.000000
31
0.0
0
LINE
8
LINES
10
390.000000
20
444.000000
30
0.0
11
356.000000
21
444.000000
31
0.0
0
LINE
8
LINES
10
505.000000
20
614.000000
30
0.0
11
472.000000
21
614.000000
31
0.0
0
LINE
8
LINES
10
476.000000
20
678.000000
30
0.0
11
510.000000
21
678.000000
31
0.0
0
LINE
8
LINES
10
56.000000
20
950.000000
30
0.0
11
22.000000
21
950.000000
31
0.0
0
LINE
8
LINES
10
528.000000
20
948.000000
30
0.0
11
494.000000
21
952.000000
31
0.0
0
LINE
8
LINES
10
369.000000
20
660.000000
30
0.0
11
336.000000
21
660.000000
31
0.0
0
LINE
8
LINES
10
462.000000
20
572.000000
30
0.0
11
462.000000
21
537.000000
31
0.0
0
LINE
8
LINES
10
172.000000
20
115.000000
30
0.0
11
137.000000
21
115.000000
31
0.0
0
LINE
8
LINES
10
636.000000
20
870.000000
30
0.0
11
603.000000
21
870.000000
31
0.0
0
LINE
8
LINES
10
630.000000
20
67.000000
30
0.0
11
664.000000
21
67.000000
31
0.0
0
LINE
8
LINES
10
444.000000
20
300.000000
30
0.0
11
444.000000
21
267.000000
31
0.0
0
LINE
8
LINES
10
656.000000
20
670.000000
30
0.0
11
641.000000
21
700.000000
31
0.0
0
LINE
8
LINES
10
537.000000
20
708.000000
30
0.0
11
524.000000
21
678.000000
31
0.0
0
LINE
8
LINES
10
198.000000
20
630.000000
30
0.0
11
201.000000
21
662.000000
31
0.0
0
LINE
8
LINES
10
462.000000
20
524.000000
30
0.0
11
428.000000
21
524.000000
31
0.0
0
LINE
8
LINES
10
206.000000
20
884.000000
30
0.0
11
172.000000
21
884.000000
31
0.0
0
LINE
8
LINES
10
403.000000
20
862.000000
30
0.0
11
403.000000
21
828.000000
31
0.0
0
LINE
8
LINES
10
380.000000
20
865.000000
30
0.0
11
412.000000
21
865.000000
31
0.0
0
LINE
8
LINES
10
172.000000
20
620.000000
30
0.0
11
139.000000
21
620.000000
31
0.0
0
LINE
8
LINES
10
161.000000
20
496.000000
30
0.0
11
193.000000
21
496.000000
31
0.0
0
LINE
8
LINES
10
377.000000
20
300.000000
30
0.0
11
345.000000
21
300.000000
31
0.0
0
LINE
8
LINES
10
20.000000
20
801.000000
30
0.0
11
52.000000
21
801.000000
31
0.0
0
LINE
8
LINES
10
388.000000
20
404.000000
30
0.0
11
356.000000
21
404.000000
31
0.0
0
LINE
8
LINES
10
358.000000
20
611.000000
30
0.0
11
390.000000
21
611.000000
31
0.0
0
LINE
8
LINES
10
38.000000
20
982.000000
30
0.0
11
72.000000
21
982.000000
31
0.0
0
LINE
8
LINES
10
356.000000
20
401.000000
30
0.0
11
388.000000
21
401.000000
31
0.0
0
LINE
8
LINES
10
54.000000
20
870.000000
30
0.0
11
22.000000
21
870.000000
31
0.0
0
LINE
8
LINES
10
696.000000
20
192.000000
30
0.0
11
696.000000
21
158.000000
31
0.0
0
LINE
8
LINES
10
108.000000
20
910.000000
30
0.0
11
108.000000
21
878.000000
31
0.0
0
LINE
8
LINES
10
659.000000
20
627.000000
30
0.0
11
659.000000
21
659.000000
31
0.0
0
LINE
8
LINES
10
344.000000
20
921.000000
30
0.0
11
344.000000
21
953.000000
31
0.0
0
LINE
8
LINES
10
283.000000
20
428.000000
30
0.0
11
283.000000
21
396.000000
31
0.0
0
LINE
8
LINES
10
609.000000
20
705.000000
30
0.0
11
609.000000
21
737.000000
31
0.0
0
LINE
8
LINES
10
422.000000
20
582.000000
30
0.0
11
422.000000
21
614.000000
31
0.0
0
LINE
8
LINES
10
558.000000
20
552.000000
30
0.0
11
558.000000
21
584.000000
31
0.0
0
LINE
8
LINES
10
422.000000
20
364.000000
30
0.0
11
393.000000
21
380.000000
31
0.0
0
LINE
8
LINES
10
395.000000
20
380.000000
30
0.0
11
364.000000
21
369.000000
31
0.0
0
LINE
8
LINES
10
310.000000
20
97.000000
30
0.0
11
280.000000
21
92.000000
31
0.0
0
LINE
8
LINES
10
286.000000
20
86.000000
30
0.0
11
316.000000
21
97.000000
31
0.0
0
LINE
8
LINES
10
113.000000
20
241.000000
30
0.0
11
91.000000
21
219.000000
31
0.0
0
LINE
8
LINES
10
236.000000
20
126.000000
30
0.0
11
233.000000
21
94.000000
31
0.0
0
LINE
8
LINES
10
652.000000
20
214.000000
30
0.0
11
643.000000
21
244.000000
31
0.0
0
LINE
8
LINES
10
305.000000
20
84.000000
30
0.0
11
275.000000
21
81.000000
31
0.0
0
LINE
8
LINES
10
272.000000
20
225.000000
30
0.0
11
241.000000
21
225.000000
31
0.0
0
LINE
8
LINES
10
745.000000
20
836.000000
30
0.0
11
745.000000
21
806.000000
31
0.0
0
LINE
8
LINES
10
156.000000
20
126.000000
30
0.0
11
156.000000
21
156.000000
31
0.0
0
LINE
8
LINES
10
158.000000
20
158.000000
30
0.0
11
158.000000
21
190.000000
31
0.0
0
LINE
8
LINES
10
401.000000
20
195.000000
30
0.0
11
433.000000
21
195.000000
31
0.0
0
LINE
8
LINES
10
587.000000
20
131.000000
30
0.0
11
587.000000
21
163.000000
31
0.0
0
LINE
8
LINES
10
582.000000
20
163.000000
30
0.0
11
582.000000
21
131.000000
31
0.0
0
LINE
8
LINES
10
182.000000
20
156.000000
30
0.0
11
212.000000
21
156.000000
31
0.0
0
LINE
8
LINES
10
126.000000
20
340.000000
30
0.0
11
156.000000
21
340.000000
31
0.0
0
LINE
8
LINES
10
628.000000
20
494.000000
30
0.0
11
660.000000
21
494.000000
31
0.0
0
LINE
8
LINES
10
489.000000
20
801.000000
30
0.0
11
457.000000
21
801.000000
31
0.0
0
LINE
8
LINES
10
388.000000
20
576.000000
30
0.0
11
358.000000
21
576.000000
31
0.0
0
LINE
8
LINES
10
625.000000
20
131.000000
30
0.0
11
625.000000
21
99.000000
31
0.0
0
LINE
8
LINES
10
358.000000
20
572.000000
30
0.0
11
388.000000
21
572.000000
31
0.0
0
LINE
8
LINES
10
476.000000
20
86.000000
30
0.0
11
508.000000
21
86.000000
31
0.0
0
LINE
8
LINES
10
507.000000
20
246.000000
30
0.0
11
476.000000
21
246.000000
31
0.0
0
LINE
8
LINES
10
561.000000
20
795.000000
30
0.0
11
531.000000
21
798.000000
31
0.0
0
LINE
8
LINES
10
272.000000
20
243.000000
30
0.0
11
241.000000
21
243.000000
31
0.0
0
LINE
8
LINES
10
476.000000
20
243.000000
30
0.0
11
507.000000
21
243.000000
31
0.0
0
LINE
8
LINES
10
358.000000
20
553.000000
30
0.0
11
388.000000
21
553.000000
31
0.0
0
LINE
8
LINES
10
379.000000
20
619.000000
30
0.0
11
348.000000
21
619.000000
31
0.0
0
LINE
8
LINES
10
388.000000
20
595.000000
30
0.0
11
358.000000
21
595.000000
31
0.0
0
LINE
8
LINES
10
353.000000
20
417.000000
30
0.0
11
353.000000
21
387.000000
31
0.0
0
LINE
8
LINES
10
462.000000
20
449.000000
30
0.0
11
492.000000
21
449.000000
31
0.0
0
LINE
8
LINES
10
273.000000
20
801.000000
30
0.0
11
243.000000
21
801.000000
31
0.0
0
LINE
8
LINES
10
732.000000
20
806.000000
30
0.0
11
700.000000
21
806.000000
31
0.0
0
LINE
8
LINES
10
388.000000
20
556.000000
30
0.0
11
358.000000
21
556.000000
31
0.0
0
LINE
8
LINES
10
113.000000
20
1001.000000
30
0.0
11
81.000000
21
1001.000000
31
0.0
0
LINE
8
LINES
10
57.000000
20
929.000000
30
0.0
11
27.000000
21
929.000000
31
0.0
0
LINE
8
LINES
10
731.000000
20
912.000000
30
0.0
11
699.000000
21
912.000000
31
0.0
0
LINE
8
LINES
10
185.000000
20
1017.000000
30
0.0
11
153.000000
21
1017.000000
31
0.0
0
LINE
8
LINES
10
601.000000
20
120.000000
30
0.0
11
571.000000
21
120.000000
31
0.0
0
LINE
8
LINES
10
532.000000
20
388.000000
30
0.0
11
524.000000
21
358.000000
31
0.0
0
LINE
8
LINES
10
646.000000
20
230.000000
30
0.0
11
620.000000
21
249.000000
31
0.0
0
LINE
8
LINES
10
100.000000
20
531.000000
30
0.0
11
92.000000
21
502.000000
31
0.0
0
LINE
8
LINES
10
342.000000
20
300.000000
30
0.0
11
342.000000
21
331.000000
31
0.0
0
LINE
8
LINES
10
504.000000
20
227.000000
30
0.0
11
473.000000
21
227.000000
31
0.0
0
LINE
8
LINES
10
236.000000
20
83.000000
30
0.0
11
267.000000
21
83.000000
31
0.0
0
LINE
8
LINES
10
41.000000
20
806.000000
30
0.0
11
11.000000
21
806.000000
31
0.0
0
LINE
8
LINES
10
395.000000
20
246.000000
30
0.0
11
395.000000
21
275.000000
31
0.0
0
LINE
8
LINES
10
179.000000
20
851.000000
30
0.0
11
148.000000
21
851.000000
31
0.0
0
LINE
8
LINES
10
152.000000
20
156.000000
30
0.0
11
152.000000
21
126.000000
31
0.0
0
LINE
8
LINES
10
17.000000
20
65.000000
30
0.0
11
12.000000
21
35.000000
31
0.0
0
LINE
8
LINES
10
462.000000
20
494.000000
30
0.0
11
492.000000
21
494.000000
31
0.0
0
LINE
8
LINES
10
745.000000
20
668.000000
30
0.0
11
745.000000
21
638.000000
31
0.0
0
LINE
8
LINES
10
358.000000
20
593.000000
30
0.0
11
388.000000
21
593.000000
31
0.0
0
LINE
8
LINES
10
416.000000
20
702.000000
30
0.0
11
446.000000
21
702.000000
31
0.0
0
LINE
8
LINES
10
388.000000
20
614.000000
30
0.0
11
358.000000
21
614.000000
31
0.0
0
LINE
8
LINES
10
406.000000
20
268.000000
30
0.0
11
406.000000
21
297.000000
31
0.0
0
LINE
8
LINES
10
476.000000
20
630.000000
30
0.0
11
507.000000
21
630.000000
31
0.0
0
LINE
8
LINES
10
505.000000
20
539.000000
30
0.0
11
476.000000
21
539.000000
31
0.0
0
LINE
8
LINES
10
726.000000
20
888.000000
30
0.0
11
696.000000
21
888.000000
31
0.0
0
LINE
8
LINES
10
726.000000
20
868.000000
30
0.0
11
696.000000
21
868.000000
31
0.0
0
LINE
8
LINES
10
505.000000
20
665.000000
30
0.0
11
505.000000
21
636.000000
31
0.0
0
LINE
8
LINES
10
462.000000
20
374.000000
30
0.0
11
433.000000
21
374.000000
31
0.0
0
LINE
8
LINES
10
272.000000
20
838.000000
30
0.0
11
302.000000
21
838.000000
31
0.0
0
LINE
8
LINES
10
257.000000
20
1.000000
30
0.0
11
288.000000
21
1.000000
31
0.0
0
LINE
8
LINES
10
350.000000
20
598.000000
30
0.0
11
350.000000
21
569.000000
31
0.0
0
ENDSEC
0
EOF
