0
SECTION
2
ENTITIES
0
LWPOLYLINE
8
FACADE_OUTLINE
90
4
70
1
10
0.000000
20
0.000000
10
1024.000000
20
0.000000
10
1024.000000
20
507.000000
10
0.000000
20
507.000000
0
LWPOLYLINE
8
WINDOWS
90
4
70
1
10
0.000000
20
0.000000
10
1024.000000
20
0.000000
10
1024.000000
20
380.000000
10
0.000000
20
380.000000
0
LWPOLYLINE
8
WINDOWS
90
4
70
1
10
144.000000
20
40.000000
10
244.000000
20
40.000000
10
244.000000
20
96.000000
10
144.000000
20
96.000000
0
LWPOLYLINE
8
WINDOWS
90
4
70
1
10
816.000000
20
120.000000
10
856.000000
20
120.000000
10
856.000000
20
168.000000
10
816.000000
20
168.000000
0
LWPOLYLINE
8
WINDOWS
90
4
70
1
10
256.000000
20
216.000000
10
304.000000
20
216.000000
10
304.000000
20
296.000000
10
256.000000
20
296.000000
0
LWPOLYLINE
8
WINDOWS
90
4
70
1
10
332.000000
20
216.000000
10
380.000000
20
216.000000
10
380.000000
20
296.000000
10
332.000000
20
296.000000
0
LWPOLYLINE
8
WINDOWS
90
4
70
1
10
816.000000
20
220.000000
10
852.000000
20
220.000000
10
852.000000
20
272.000000
10
816.000000
20
272.000000
0
LWPOLYLINE
8
WINDOWS
90
4
70
1
10
480.000000
20
220.000000
10
528.000000
20
220.000000
10
528.000000
20
276.000000
10
480.000000
20
276.000000
0
LWPOLYLINE
8
WINDOWS
90
4
70
1
10
120.000000
20
296.000000
10
160.000000
20
296.000000
10
160.000000
20
368.000000
10
120.000000
20
368.000000
0
LWPOLYLINE
8
WINDOWS
90
4
70
1
10
716.000000
20
300.000000
10
752.000000
20
300.000000
10
752.000000
20
360.000000
10
716.000000
20
360.000000
0
LWPOLYLINE
8
WINDOWS
90
4
70
1
10
940.000000
20
392.000000
10
1024.000000
20
392.000000
10
1024.000000
20
448.000000
10
940.000000
20
448.000000
0
LWPOLYLINE
8
WINDOWS
90
4
70
1
10
0.000000
20
396.000000
10
136.000000
20
396.000000
10
136.000000
20
464.000000
10
0.000000
20
464.000000
0
LWPOLYLINE
8
WINDOWS
90
4
70
1
10
260.000000
20
396.000000
10
288.000000
20
396.000000
10
288.000000
20
440.000000
10
260.000000
20
440.000000
0
LWPOLYLINE
8
WINDOWS
90
4
70
1
10
300.000000
20
396.000000
10
368.000000
20
396.000000
10
368.000000
20
432.000000
10
300.000000
20
432.000000
0
LWPOLYLINE
8
WINDOWS
90
4
70
1
10
240.000000
20
432.000000
10
436.000000
20
432.000000
10
436.000000
20
507.000000
10
240.000000
20
507.000000
0
LWPOLYLINE
8
DOORS
90
4
70
1
10
0.000000
20
200.000000
10
96.000000
20
200.000000
10
96.000000
20
432.000000
10
0.000000
20
432.000000
0
LWPOLYLINE
8
DOORS
90
4
70
1
10
168.000000
20
200.000000
10
216.000000
20
200.000000
10
216.000000
20
368.000000
10
168.000000
20
368.000000
0
LWPOLYLINE
8
DOORS
90
4
70
1
10
624.000000
20
208.000000
10
668.000000
20
208.000000
10
668.000000
20
360.000000
10
624.000000
20
360.000000
0
LWPOLYLINE
8
DOORS
90
4
70
1
10
408.000000
20
216.000000
10
456.000000
20
216.000000
10
456.000000
20
316.000000
10
408.000000
20
316.000000
0
LWPOLYLINE
8
DOORS
90
4
70
1
10
560.000000
20
216.000000
10
604.000000
20
216.000000
10
604.000000
20
300.000000
10
560.000000
20
300.000000
0
LWPOLYLINE
8
DOORS
90
4
70
1
10
708.000000
20
216.000000
10
752.000000
20
216.000000
10
752.000000
20
312.000000
10
708.000000
20
312.000000
0
LWPOLYLINE
8
DOORS
90
4
70
1
10
256.000000
20
280.000000
10
304.000000
20
280.000000
10
304.000000
20
368.000000
10
256.000000
20
368.000000
0
LWPOLYLINE
8
DOORS
90
4
70
1
10
816.000000
20
296.000000
10
848.000000
20
296.000000
10
848.000000
20
356.000000
10
816.000000
20
356.000000
0
LWPOLYLINE
8
DOORS
90
4
70
1
10
416.000000
20
300.000000
10
444.000000
20
300.000000
10
444.000000
20
356.000000
10
416.000000
20
356.000000
0
LWPOLYLINE
8
DOORS
90
4
70
1
10
568.000000
20
300.000000
10
596.000000
20
300.000000
10
596.000000
20
356.000000
10
568.000000
20
356.000000
0
LWPOLYLINE
8
DOORS
90
4
70
1
10
640.000000
20
300.000000
10
672.000000
20
300.000000
10
672.000000
20
356.000000
10
640.000000
20
356.000000
0
LINE
8
LINES
10
40.000000
20
176.000000
30
0.0
11
744.000000
21
176.000000
31
0.0
0
LINE
8
LINES
10
232.000000
20
188.000000
30
0.0
11
896.000000
21
188.000000
31
0.0
0
LINE
8
LINES
10
132.000000
20
108.000000
30
0.0
11
760.000000
21
108.000000
31
0.0
0
LINE
8
LINES
10
672.000000
20
376.000000
30
0.0
11
100.000000
21
376.000000
31
0.0
0
LINE
8
LINES
10
744.000000
20
184.000000
30
0.0
11
236.000000
21
184.000000
31
0.0
0
LINE
8
LINES
10
796.000000
20
60.000000
30
0.0
11
292.000000
21
60.000000
31
0.0
0
LINE
8
LINES
10
296.000000
20
60.000000
30
0.0
11
800.000000
21
60.000000
31
0.0
0
LINE
8
LINES
10
760.000000
20
116.000000
30
0.0
11
276.000000
21
116.000000
31
0.0
0
LINE
8
LINES
10
280.000000
20
112.000000
30
0.0
11
760.000000
21
112.000000
31
0.0
0
LINE
8
LINES
10
760.000000
20
124.000000
30
0.0
11
280.000000
21
124.000000
31
0.0
0
LINE
8
LINES
10
348.000000
20
52.000000
30
0.0
11
812.000000
21
52.000000
31
0.0
0
LINE
8
LINES
10
232.000000
20
384.000000
30
0.0
11
672.000000
21
384.000000
31
0.0
0
LINE
8
LINES
10
648.000000
20
208.000000
30
0.0
11
240.000000
21
208.000000
31
0.0
0
LINE
8
LINES
10
828.000000
20
488.000000
30
0.0
11
448.000000
21
488.000000
31
0.0
0
LINE
8
LINES
10
624.000000
20
388.000000
30
0.0
11
332.000000
21
388.000000
31
0.0
0
LINE
8
LINES
10
532.000000
20
208.000000
30
0.0
11
812.000000
21
208.000000
31
0.0
0
LINE
8
LINES
10
1024.000000
20
80.000000
30
0.0
11
776.000000
21
0.000000
31
0.0
0
LINE
8
LINES
10
744.000000
20
384.000000
30
0.0
11
996.000000
21
384.000000
31
0.0
0
LINE
8
LINES
10
488.000000
20
196.000000
30
0.0
11
240.000000
21
196.000000
31
0.0
0
LINE
8
LINES
10
752.000000
20
192.000000
30
0.0
11
512.000000
21
192.000000
31
0.0
0
LINE
8
LINES
10
760.000000
20
200.000000
30
0.0
11
520.000000
21
200.000000
31
0.0
0
LINE
8
LINES
10
568.000000
20
484.000000
30
0.0
11
808.000000
21
484.000000
31
0.0
0
LINE
8
LINES
10
1000.000000
20
384.000000
30
0.0
11
772.000000
21
384.000000
31
0.0
0
LINE
8
LINES
10
228.000000
20
492.000000
30
0.0
11
0.000000
21
492.000000
31
0.0
0
LINE
8
LINES
10
812.000000
20
460.000000
30
0.0
11
1020.000000
21
460.000000
31
0.0
0
LINE
8
LINES
10
1012.000000
20
496.000000
30
0.0
11
808.000000
21
496.000000
31
0.0
0
LINE
8
LINES
10
28.000000
20
184.000000
30
0.0
11
228.000000
21
184.000000
31
0.0
0
LINE
8
LINES
10
768.000000
20
372.000000
30
0.0
11
956.000000
21
372.000000
31
0.0
0
LINE
8
LINES
10
988.000000
20
464.000000
30
0.0
11
812.000000
21
464.000000
31
0.0
0
LINE
8
LINES
10
240.000000
20
376.000000
30
0.0
11
412.000000
21
376.000000
31
0.0
0
LINE
8
LINES
10
240.000000
20
208.000000
30
0.0
11
240.000000
21
376.000000
31
0.0
0
LINE
8
LINES
10
220.000000
20
376.000000
30
0.0
11
220.000000
21
216.000000
31
0.0
0
LINE
8
LINES
10
184.000000
20
212.000000
30
0.0
11
184.000000
21
372.000000
31
0.0
0
LINE
8
LINES
10
232.000000
20
368.000000
30
0.0
11
232.000000
21
208.000000
31
0.0
0
LINE
8
LINES
10
744.000000
20
176.000000
30
0.0
11
900.000000
21
176.000000
31
0.0
0
LINE
8
LINES
10
312.000000
20
208.000000
30
0.0
11
468.000000
21
208.000000
31
0.0
0
LINE
8
LINES
10
996.000000
20
208.000000
30
0.0
11
896.000000
21
96.000000
31
0.0
0
LINE
8
LINES
10
896.000000
20
180.000000
30
0.0
11
748.000000
21
180.000000
31
0.0
0
LINE
8
LINES
10
896.000000
20
100.000000
30
0.0
11
992.000000
21
212.000000
31
0.0
0
LINE
8
LINES
10
896.000000
20
388.000000
30
0.0
11
748.000000
21
388.000000
31
0.0
0
LINE
8
LINES
10
896.000000
20
184.000000
30
0.0
11
752.000000
21
184.000000
31
0.0
0
LINE
8
LINES
10
528.000000
20
376.000000
30
0.0
11
668.000000
21
376.000000
31
0.0
0
LINE
8
LINES
10
44.000000
20
212.000000
30
0.0
11
44.000000
21
352.000000
31
0.0
0
LINE
8
LINES
10
696.000000
20
356.000000
30
0.0
11
696.000000
21
212.000000
31
0.0
0
LINE
8
LINES
10
244.000000
20
356.000000
30
0.0
11
244.000000
21
216.000000
31
0.0
0
LINE
8
LINES
10
752.000000
20
96.000000
30
0.0
11
896.000000
21
96.000000
31
0.0
0
LINE
8
LINES
10
472.000000
20
356.000000
30
0.0
11
472.000000
21
216.000000
31
0.0
0
LINE
8
LINES
10
320.000000
20
356.000000
30
0.0
11
320.000000
21
216.000000
31
0.0
0
LINE
8
LINES
10
396.000000
20
356.000000
30
0.0
11
396.000000
21
216.000000
31
0.0
0
LINE
8
LINES
10
800.000000
20
356.000000
30
0.0
11
800.000000
21
216.000000
31
0.0
0
LINE
8
LINES
10
896.000000
20
96.000000
30
0.0
11
756.000000
21
96.000000
31
0.0
0
LINE
8
LINES
10
548.000000
20
356.000000
30
0.0
11
548.000000
21
216.000000
31
0.0
0
LINE
8
LINES
10
948.000000
20
460.000000
30
0.0
11
808.000000
21
460.000000
31
0.0
0
LINE
8
LINES
10
760.000000
20
104.000000
30
0.0
11
892.000000
21
104.000000
31
0.0
0
LINE
8
LINES
10
624.000000
20
356.000000
30
0.0
11
624.000000
21
224.000000
31
0.0
0
LINE
8
LINES
10
248.000000
20
220.000000
30
0.0
11
248.000000
21
352.000000
31
0.0
0
LINE
8
LINES
10
100.000000
20
384.000000
30
0.0
11
232.000000
21
384.000000
31
0.0
0
LINE
8
LINES
10
896.000000
20
208.000000
30
0.0
11
764.000000
21
208.000000
31
0.0
0
LINE
8
LINES
10
896.000000
20
184.000000
30
0.0
11
1000.000000
21
268.000000
31
0.0
0
LINE
8
LINES
10
32.000000
20
216.000000
30
0.0
11
32.000000
21
348.000000
31
0.0
0
LINE
8
LINES
10
996.000000
20
272.000000
30
0.0
11
896.000000
21
192.000000
31
0.0
0
LINE
8
LINES
10
688.000000
20
400.000000
30
0.0
11
812.000000
21
400.000000
31
0.0
0
LINE
8
LINES
10
168.000000
20
220.000000
30
0.0
11
168.000000
21
344.000000
31
0.0
0
LINE
8
LINES
10
892.000000
20
196.000000
30
0.0
11
768.000000
21
196.000000
31
0.0
0
LINE
8
LINES
10
888.000000
20
192.000000
30
0.0
11
760.000000
21
192.000000
31
0.0
0
LINE
8
LINES
10
688.000000
20
424.000000
30
0.0
11
812.000000
21
424.000000
31
0.0
0
LINE
8
LINES
10
892.000000
20
204.000000
30
0.0
11
992.000000
21
276.000000
31
0.0
0
LINE
8
LINES
10
900.000000
20
348.000000
30
0.0
11
900.000000
21
228.000000
31
0.0
0
LINE
8
LINES
10
904.000000
20
228.000000
30
0.0
11
904.000000
21
352.000000
31
0.0
0
LINE
8
LINES
10
200.000000
20
348.000000
30
0.0
11
200.000000
21
228.000000
31
0.0
0
LINE
8
LINES
10
784.000000
20
228.000000
30
0.0
11
784.000000
21
348.000000
31
0.0
0
LINE
8
LINES
10
876.000000
20
348.000000
30
0.0
11
876.000000
21
228.000000
31
0.0
0
LINE
8
LINES
10
780.000000
20
348.000000
30
0.0
11
780.000000
21
232.000000
31
0.0
0
LINE
8
LINES
10
168.000000
20
180.000000
30
0.0
11
52.000000
21
180.000000
31
0.0
0
LINE
8
LINES
10
112.000000
20
232.000000
30
0.0
11
112.000000
21
348.000000
31
0.0
0
LINE
8
LINES
10
304.000000
20
452.000000
30
0.0
11
416.000000
21
452.000000
31
0.0
0
LINE
8
LINES
10
64.000000
20
240.000000
30
0.0
11
64.000000
21
352.000000
31
0.0
0
LINE
8
LINES
10
960.000000
20
376.000000
30
0.0
11
960.000000
21
264.000000
31
0.0
0
LINE
8
LINES
10
60.000000
20
348.000000
30
0.0
11
60.000000
21
240.000000
31
0.0
0
LINE
8
LINES
10
476.000000
20
220.000000
30
0.0
11
476.000000
21
332.000000
31
0.0
0
LINE
8
LINES
10
160.000000
20
176.000000
30
0.0
11
52.000000
21
176.000000
31
0.0
0
LINE
8
LINES
10
180.000000
20
204.000000
30
0.0
11
72.000000
21
204.000000
31
0.0
0
LINE
8
LINES
10
72.000000
20
200.000000
30
0.0
11
180.000000
21
200.000000
31
0.0
0
LINE
8
LINES
10
572.000000
20
468.000000
30
0.0
11
680.000000
21
468.000000
31
0.0
0
LINE
8
LINES
10
760.000000
20
208.000000
30
0.0
11
656.000000
21
208.000000
31
0.0
0
LINE
8
LINES
10
172.000000
20
192.000000
30
0.0
11
68.000000
21
192.000000
31
0.0
0
LINE
8
LINES
10
72.000000
20
212.000000
30
0.0
11
172.000000
21
212.000000
31
0.0
0
LINE
8
LINES
10
940.000000
20
360.000000
30
0.0
11
940.000000
21
260.000000
31
0.0
0
LINE
8
LINES
10
860.000000
20
492.000000
30
0.0
11
956.000000
21
492.000000
31
0.0
0
LINE
8
LINES
10
672.000000
20
476.000000
30
0.0
11
576.000000
21
476.000000
31
0.0
0
LINE
8
LINES
10
240.000000
20
48.000000
30
0.0
11
152.000000
21
48.000000
31
0.0
0
LINE
8
LINES
10
952.000000
20
484.000000
30
0.0
11
864.000000
21
484.000000
31
0.0
0
LINE
8
LINES
10
204.000000
20
264.000000
30
0.0
11
204.000000
21
348.000000
31
0.0
0
LINE
8
LINES
10
880.000000
20
264.000000
30
0.0
11
880.000000
21
348.000000
31
0.0
0
LINE
8
LINES
10
900.000000
20
176.000000
30
0.0
11
964.000000
21
232.000000
31
0.0
0
LINE
8
LINES
10
536.000000
20
460.000000
30
0.0
11
456.000000
21
460.000000
31
0.0
0
LINE
8
LINES
10
864.000000
20
480.000000
30
0.0
11
948.000000
21
480.000000
31
0.0
0
LINE
8
LINES
10
376.000000
20
276.000000
30
0.0
11
376.000000
21
356.000000
31
0.0
0
LINE
8
LINES
10
436.000000
20
432.000000
30
0.0
11
516.000000
21
432.000000
31
0.0
0
LINE
8
LINES
10
676.000000
20
460.000000
30
0.0
11
596.000000
21
460.000000
31
0.0
0
LINE
8
LINES
10
964.000000
20
232.000000
30
0.0
11
900.000000
21
184.000000
31
0.0
0
LINE
8
LINES
10
276.000000
20
116.000000
30
0.0
11
200.000000
21
96.000000
31
0.0
0
LINE
8
LINES
10
992.000000
20
216.000000
30
0.0
11
940.000000
21
156.000000
31
0.0
0
LINE
8
LINES
10
144.000000
20
88.000000
30
0.0
11
220.000000
21
88.000000
31
0.0
0
LINE
8
LINES
10
816.000000
20
208.000000
30
0.0
11
892.000000
21
208.000000
31
0.0
0
LINE
8
LINES
10
184.000000
20
304.000000
30
0.0
11
184.000000
21
228.000000
31
0.0
0
LINE
8
LINES
10
960.000000
20
148.000000
30
0.0
11
996.000000
21
212.000000
31
0.0
0
LINE
8
LINES
10
328.000000
20
388.000000
30
0.0
11
256.000000
21
388.000000
31
0.0
0
LINE
8
LINES
10
396.000000
20
128.000000
30
0.0
11
468.000000
21
128.000000
31
0.0
0
LINE
8
LINES
10
916.000000
20
304.000000
30
0.0
11
916.000000
21
232.000000
31
0.0
0
LINE
8
LINES
10
528.000000
20
276.000000
30
0.0
11
528.000000
21
344.000000
31
0.0
0
LINE
8
LINES
10
672.000000
20
376.000000
30
0.0
11
740.000000
21
376.000000
31
0.0
0
LINE
8
LINES
10
984.000000
20
460.000000
30
0.0
11
920.000000
21
444.000000
31
0.0
0
LINE
8
LINES
10
744.000000
20
376.000000
30
0.0
11
672.000000
21
376.000000
31
0.0
0
LINE
8
LINES
10
568.000000
20
484.000000
30
0.0
11
504.000000
21
484.000000
31
0.0
0
LINE
8
LINES
10
1024.000000
20
432.000000
30
0.0
11
960.000000
21
444.000000
31
0.0
0
LINE
8
LINES
10
8.000000
20
440.000000
30
0.0
11
72.000000
21
440.000000
31
0.0
0
LINE
8
LINES
10
72.000000
20
440.000000
30
0.0
11
12.000000
21
440.000000
31
0.0
0
LINE
8
LINES
10
608.000000
20
448.000000
30
0.0
11
672.000000
21
448.000000
31
0.0
0
LINE
8
LINES
10
680.000000
20
384.000000
30
0.0
11
744.000000
21
384.000000
31
0.0
0
LINE
8
LINES
10
300.000000
20
292.000000
30
0.0
11
300.000000
21
352.000000
31
0.0
0
LINE
8
LINES
10
400.000000
20
460.000000
30
0.0
11
460.000000
21
460.000000
31
0.0
0
LINE
8
LINES
10
808.000000
20
396.000000
30
0.0
11
748.000000
21
396.000000
31
0.0
0
LINE
8
LINES
10
400.000000
20
268.000000
30
0.0
11
400.000000
21
332.000000
31
0.0
0
LINE
8
LINES
10
712.000000
20
184.000000
30
0.0
11
652.000000
21
184.000000
31
0.0
0
LINE
8
LINES
10
516.000000
20
432.000000
30
0.0
11
576.000000
21
444.000000
31
0.0
0
LINE
8
LINES
10
992.000000
20
280.000000
30
0.0
11
944.000000
21
244.000000
31
0.0
0
LINE
8
LINES
10
168.000000
20
44.000000
30
0.0
11
228.000000
21
44.000000
31
0.0
0
LINE
8
LINES
10
44.000000
20
112.000000
30
0.0
11
44.000000
21
172.000000
31
0.0
0
LINE
8
LINES
10
940.000000
20
156.000000
30
0.0
11
896.000000
21
116.000000
31
0.0
0
LINE
8
LINES
10
224.000000
20
504.000000
30
0.0
11
164.000000
21
504.000000
31
0.0
0
LINE
8
LINES
10
600.000000
20
436.000000
30
0.0
11
660.000000
21
436.000000
31
0.0
0
LINE
8
LINES
10
396.000000
20
216.000000
30
0.0
11
456.000000
21
216.000000
31
0.0
0
LINE
8
LINES
10
860.000000
20
108.000000
30
0.0
11
800.000000
21
108.000000
31
0.0
0
LINE
8
LINES
10
868.000000
20
32.000000
30
0.0
11
904.000000
21
80.000000
31
0.0
0
LINE
8
LINES
10
800.000000
20
212.000000
30
0.0
11
856.000000
21
212.000000
31
0.0
0
LINE
8
LINES
10
320.000000
20
216.000000
30
0.0
11
380.000000
21
216.000000
31
0.0
0
LINE
8
LINES
10
244.000000
20
164.000000
30
0.0
11
304.000000
21
164.000000
31
0.0
0
LINE
8
LINES
10
748.000000
20
396.000000
30
0.0
11
808.000000
21
396.000000
31
0.0
0
LINE
8
LINES
10
820.000000
20
352.000000
30
0.0
11
820.000000
21
296.000000
31
0.0
0
LINE
8
LINES
10
672.000000
20
296.000000
30
0.0
11
672.000000
21
352.000000
31
0.0
0
LINE
8
LINES
10
32.000000
20
384.000000
30
0.0
11
92.000000
21
384.000000
31
0.0
0
LINE
8
LINES
10
320.000000
20
164.000000
30
0.0
11
376.000000
21
164.000000
31
0.0
0
LINE
8
LINES
10
156.000000
20
440.000000
30
0.0
11
216.000000
21
440.000000
31
0.0
0
LINE
8
LINES
10
788.000000
20
472.000000
30
0.0
11
732.000000
21
472.000000
31
0.0
0
LINE
8
LINES
10
696.000000
20
164.000000
30
0.0
11
756.000000
21
164.000000
31
0.0
0
LINE
8
LINES
10
248.000000
20
216.000000
30
0.0
11
304.000000
21
216.000000
31
0.0
0
LINE
8
LINES
10
396.000000
20
164.000000
30
0.0
11
456.000000
21
164.000000
31
0.0
0
LINE
8
LINES
10
624.000000
20
164.000000
30
0.0
11
680.000000
21
164.000000
31
0.0
0
LINE
8
LINES
10
472.000000
20
164.000000
30
0.0
11
528.000000
21
164.000000
31
0.0
0
LINE
8
LINES
10
300.000000
20
232.000000
30
0.0
11
300.000000
21
288.000000
31
0.0
0
LINE
8
LINES
10
472.000000
20
444.000000
30
0.0
11
412.000000
21
444.000000
31
0.0
0
LINE
8
LINES
10
596.000000
20
296.000000
30
0.0
11
596.000000
21
352.000000
31
0.0
0
LINE
8
LINES
10
376.000000
20
448.000000
30
0.0
11
376.000000
21
504.000000
31
0.0
0
LINE
8
LINES
10
492.000000
20
476.000000
30
0.0
11
548.000000
21
476.000000
31
0.0
0
LINE
8
LINES
10
872.000000
20
44.000000
30
0.0
11
816.000000
21
44.000000
31
0.0
0
LINE
8
LINES
10
548.000000
20
164.000000
30
0.0
11
604.000000
21
164.000000
31
0.0
0
LINE
8
LINES
10
92.000000
20
376.000000
30
0.0
11
36.000000
21
376.000000
31
0.0
0
LINE
8
LINES
10
948.000000
20
476.000000
30
0.0
11
892.000000
21
476.000000
31
0.0
0
LINE
8
LINES
10
920.000000
20
360.000000
30
0.0
11
920.000000
21
304.000000
31
0.0
0
LINE
8
LINES
10
720.000000
20
352.000000
30
0.0
11
720.000000
21
300.000000
31
0.0
0
LINE
8
LINES
10
664.000000
20
448.000000
30
0.0
11
608.000000
21
448.000000
31
0.0
0
LINE
8
LINES
10
368.000000
20
300.000000
30
0.0
11
368.000000
21
352.000000
31
0.0
0
LINE
8
LINES
10
592.000000
20
460.000000
30
0.0
11
540.000000
21
460.000000
31
0.0
0
LINE
8
LINES
10
20.000000
20
504.000000
30
0.0
11
72.000000
21
504.000000
31
0.0
0
LINE
8
LINES
10
868.000000
20
424.000000
30
0.0
11
920.000000
21
424.000000
31
0.0
0
LINE
8
LINES
10
420.000000
20
352.000000
30
0.0
11
420.000000
21
300.000000
31
0.0
0
LINE
8
LINES
10
644.000000
20
352.000000
30
0.0
11
644.000000
21
300.000000
31
0.0
0
LINE
8
LINES
10
568.000000
20
352.000000
30
0.0
11
568.000000
21
300.000000
31
0.0
0
LINE
8
LINES
10
136.000000
20
352.000000
30
0.0
11
136.000000
21
300.000000
31
0.0
0
LINE
8
LINES
10
344.000000
20
352.000000
30
0.0
11
344.000000
21
300.000000
31
0.0
0
LINE
8
LINES
10
272.000000
20
352.000000
30
0.0
11
272.000000
21
304.000000
31
0.0
0
LINE
8
LINES
10
800.000000
20
172.000000
30
0.0
11
800.000000
21
120.000000
31
0.0
0
LINE
8
LINES
10
484.000000
20
344.000000
30
0.0
11
484.000000
21
292.000000
31
0.0
0
LINE
8
LINES
10
408.000000
20
344.000000
30
0.0
11
408.000000
21
292.000000
31
0.0
0
LINE
8
LINES
10
560.000000
20
344.000000
30
0.0
11
560.000000
21
292.000000
31
0.0
0
LINE
8
LINES
10
328.000000
20
268.000000
30
0.0
11
328.000000
21
320.000000
31
0.0
0
LINE
8
LINES
10
680.000000
20
304.000000
30
0.0
11
680.000000
21
356.000000
31
0.0
0
LINE
8
LINES
10
428.000000
20
108.000000
30
0.0
11
480.000000
21
108.000000
31
0.0
0
LINE
8
LINES
10
920.000000
20
408.000000
30
0.0
11
868.000000
21
408.000000
31
0.0
0
LINE
8
LINES
10
920.000000
20
416.000000
30
0.0
11
868.000000
21
416.000000
31
0.0
0
LINE
8
LINES
10
916.000000
20
488.000000
30
0.0
11
864.000000
21
488.000000
31
0.0
0
LINE
8
LINES
10
80.000000
20
440.000000
30
0.0
11
132.000000
21
440.000000
31
0.0
0
LINE
8
LINES
10
92.000000
20
428.000000
30
0.0
11
40.000000
21
428.000000
31
0.0
0
LINE
8
LINES
10
528.000000
20
132.000000
30
0.0
11
476.000000
21
132.000000
31
0.0
0
LINE
8
LINES
10
40.000000
20
404.000000
30
0.0
11
92.000000
21
404.000000
31
0.0
0
LINE
8
LINES
10
332.000000
20
344.000000
30
0.0
11
332.000000
21
296.000000
31
0.0
0
LINE
8
LINES
10
948.000000
20
264.000000
30
0.0
11
948.000000
21
316.000000
31
0.0
0
LINE
8
LINES
10
292.000000
20
296.000000
30
0.0
11
292.000000
21
348.000000
31
0.0
0
LINE
8
LINES
10
372.000000
20
432.000000
30
0.0
11
320.000000
21
432.000000
31
0.0
0
LINE
8
LINES
10
544.000000
20
216.000000
30
0.0
11
592.000000
21
216.000000
31
0.0
0
LINE
8
LINES
10
336.000000
20
348.000000
30
0.0
11
336.000000
21
300.000000
31
0.0
0
LINE
8
LINES
10
420.000000
20
52.000000
30
0.0
11
420.000000
21
0.000000
31
0.0
0
LINE
8
LINES
10
596.000000
20
132.000000
30
0.0
11
548.000000
21
132.000000
31
0.0
0
LINE
8
LINES
10
456.000000
20
132.000000
30
0.0
11
408.000000
21
132.000000
31
0.0
0
LINE
8
LINES
10
40.000000
20
256.000000
30
0.0
11
40.000000
21
208.000000
31
0.0
0
LINE
8
LINES
10
816.000000
20
40.000000
30
0.0
11
864.000000
21
32.000000
31
0.0
0
LINE
8
LINES
10
740.000000
20
400.000000
30
0.0
11
692.000000
21
400.000000
31
0.0
0
LINE
8
LINES
10
708.000000
20
216.000000
30
0.0
11
756.000000
21
216.000000
31
0.0
0
LINE
8
LINES
10
372.000000
20
456.000000
30
0.0
11
324.000000
21
456.000000
31
0.0
0
LINE
8
LINES
10
440.000000
20
404.000000
30
0.0
11
488.000000
21
404.000000
31
0.0
0
LINE
8
LINES
10
928.000000
20
312.000000
30
0.0
11
928.000000
21
360.000000
31
0.0
0
LINE
8
LINES
10
368.000000
20
404.000000
30
0.0
11
416.000000
21
404.000000
31
0.0
0
LINE
8
LINES
10
92.000000
20
400.000000
30
0.0
11
40.000000
21
400.000000
31
0.0
0
LINE
8
LINES
10
824.000000
20
264.000000
30
0.0
11
824.000000
21
216.000000
31
0.0
0
LINE
8
LINES
10
784.000000
20
428.000000
30
0.0
11
736.000000
21
428.000000
31
0.0
0
LINE
8
LINES
10
544.000000
20
456.000000
30
0.0
11
496.000000
21
456.000000
31
0.0
0
LINE
8
LINES
10
448.000000
20
456.000000
30
0.0
11
496.000000
21
456.000000
31
0.0
0
LINE
8
LINES
10
232.000000
20
388.000000
30
0.0
11
184.000000
21
388.000000
31
0.0
0
LINE
8
LINES
10
1020.000000
20
504.000000
30
0.0
11
1020.000000
21
456.000000
31
0.0
0
LINE
8
LINES
10
184.000000
20
200.000000
30
0.0
11
232.000000
21
200.000000
31
0.0
0
LINE
8
LINES
10
656.000000
20
184.000000
30
0.0
11
704.000000
21
184.000000
31
0.0
0
LINE
8
LINES
10
892.000000
20
212.000000
30
0.0
11
848.000000
21
212.000000
31
0.0
0
LINE
8
LINES
10
224.000000
20
96.000000
30
0.0
11
268.000000
21
108.000000
31
0.0
0
LINE
8
LINES
10
1000.000000
20
264.000000
30
0.0
11
964.000000
21
236.000000
31
0.0
0
LINE
8
LINES
10
892.000000
20
88.000000
30
0.0
11
876.000000
21
48.000000
31
0.0
0
LINE
8
LINES
10
288.000000
20
64.000000
30
0.0
11
248.000000
21
48.000000
31
0.0
0
LINE
8
LINES
10
136.000000
20
504.000000
30
0.0
11
184.000000
21
504.000000
31
0.0
0
LINE
8
LINES
10
960.000000
20
436.000000
30
0.0
11
1008.000000
21
436.000000
31
0.0
0
LINE
8
LINES
10
452.000000
20
284.000000
30
0.0
11
452.000000
21
328.000000
31
0.0
0
LINE
8
LINES
10
592.000000
20
216.000000
30
0.0
11
592.000000
21
264.000000
31
0.0
0
LINE
8
LINES
10
288.000000
20
424.000000
30
0.0
11
336.000000
21
424.000000
31
0.0
0
LINE
8
LINES
10
444.000000
20
300.000000
30
0.0
11
444.000000
21
344.000000
31
0.0
0
LINE
8
LINES
10
372.000000
20
352.000000
30
0.0
11
372.000000
21
308.000000
31
0.0
0
LINE
8
LINES
10
128.000000
20
344.000000
30
0.0
11
128.000000
21
300.000000
31
0.0
0
LINE
8
LINES
10
448.000000
20
352.000000
30
0.0
11
448.000000
21
308.000000
31
0.0
0
LINE
8
LINES
10
524.000000
20
352.000000
30
0.0
11
524.000000
21
308.000000
31
0.0
0
LINE
8
LINES
10
880.000000
20
120.000000
30
0.0
11
880.000000
21
168.000000
31
0.0
0
LINE
8
LINES
10
672.000000
20
352.000000
30
0.0
11
672.000000
21
308.000000
31
0.0
0
LINE
8
LINES
10
600.000000
20
352.000000
30
0.0
11
600.000000
21
308.000000
31
0.0
0
LINE
8
LINES
10
444.000000
20
424.000000
30
0.0
11
492.000000
21
424.000000
31
0.0
0
LINE
8
LINES
10
660.000000
20
432.000000
30
0.0
11
616.000000
21
432.000000
31
0.0
0
LINE
8
LINES
10
844.000000
20
216.000000
30
0.0
11
844.000000
21
264.000000
31
0.0
0
LINE
8
LINES
10
440.000000
20
220.000000
30
0.0
11
440.000000
21
264.000000
31
0.0
0
LINE
8
LINES
10
928.000000
20
156.000000
30
0.0
11
928.000000
21
200.000000
31
0.0
0
LINE
8
LINES
10
180.000000
20
388.000000
30
0.0
11
136.000000
21
388.000000
31
0.0
0
LINE
8
LINES
10
968.000000
20
324.000000
30
0.0
11
968.000000
21
368.000000
31
0.0
0
LINE
8
LINES
10
520.000000
20
404.000000
30
0.0
11
568.000000
21
404.000000
31
0.0
0
LINE
8
LINES
10
124.000000
20
376.000000
30
0.0
11
168.000000
21
376.000000
31
0.0
0
LINE
8
LINES
10
128.000000
20
264.000000
30
0.0
11
128.000000
21
220.000000
31
0.0
0
LINE
8
LINES
10
416.000000
20
264.000000
30
0.0
11
416.000000
21
216.000000
31
0.0
0
LINE
8
LINES
10
40.000000
20
396.000000
30
0.0
11
88.000000
21
396.000000
31
0.0
0
LINE
8
LINES
10
708.000000
20
344.000000
30
0.0
11
708.000000
21
300.000000
31
0.0
0
LINE
8
LINES
10
632.000000
20
344.000000
30
0.0
11
632.000000
21
300.000000
31
0.0
0
LINE
8
LINES
10
644.000000
20
264.000000
30
0.0
11
644.000000
21
224.000000
31
0.0
0
LINE
8
LINES
10
808.000000
20
360.000000
30
0.0
11
852.000000
21
360.000000
31
0.0
0
LINE
8
LINES
10
240.000000
20
112.000000
30
0.0
11
240.000000
21
156.000000
31
0.0
0
LINE
8
LINES
10
296.000000
20
352.000000
30
0.0
11
296.000000
21
308.000000
31
0.0
0
LINE
8
LINES
10
176.000000
20
376.000000
30
0.0
11
216.000000
21
376.000000
31
0.0
0
LINE
8
LINES
10
264.000000
20
344.000000
30
0.0
11
264.000000
21
300.000000
31
0.0
0
LINE
8
LINES
10
940.000000
20
248.000000
30
0.0
11
940.000000
21
288.000000
31
0.0
0
LINE
8
LINES
10
92.000000
20
332.000000
30
0.0
11
92.000000
21
376.000000
31
0.0
0
LINE
8
LINES
10
356.000000
20
504.000000
30
0.0
11
312.000000
21
504.000000
31
0.0
0
LINE
8
LINES
10
264.000000
20
264.000000
30
0.0
11
264.000000
21
220.000000
31
0.0
0
LINE
8
LINES
10
748.000000
20
336.000000
30
0.0
11
748.000000
21
292.000000
31
0.0
0
LINE
8
LINES
10
936.000000
20
204.000000
30
0.0
11
936.000000
21
160.000000
31
0.0
0
LINE
8
LINES
10
232.000000
20
416.000000
30
0.0
11
188.000000
21
416.000000
31
0.0
0
LINE
8
LINES
10
232.000000
20
408.000000
30
0.0
11
188.000000
21
408.000000
31
0.0
0
LINE
8
LINES
10
188.000000
20
404.000000
30
0.0
11
232.000000
21
404.000000
31
0.0
0
LINE
8
LINES
10
944.000000
20
360.000000
30
0.0
11
944.000000
21
312.000000
31
0.0
0
LINE
8
LINES
10
112.000000
20
168.000000
30
0.0
11
112.000000
21
128.000000
31
0.0
0
LINE
8
LINES
10
368.000000
20
220.000000
30
0.0
11
368.000000
21
264.000000
31
0.0
0
LINE
8
LINES
10
548.000000
20
456.000000
30
0.0
11
588.000000
21
448.000000
31
0.0
0
LINE
8
LINES
10
56.000000
20
232.000000
30
0.0
11
96.000000
21
240.000000
31
0.0
0
LINE
8
LINES
10
360.000000
20
440.000000
30
0.0
11
316.000000
21
440.000000
31
0.0
0
LINE
8
LINES
10
228.000000
20
88.000000
30
0.0
11
244.000000
21
48.000000
31
0.0
0
LINE
8
LINES
10
120.000000
20
24.000000
30
0.0
11
156.000000
21
40.000000
31
0.0
0
LINE
8
LINES
10
40.000000
20
388.000000
30
0.0
11
40.000000
21
432.000000
31
0.0
0
LINE
8
LINES
10
292.000000
20
220.000000
30
0.0
11
292.000000
21
264.000000
31
0.0
0
LINE
8
LINES
10
156.000000
20
220.000000
30
0.0
11
156.000000
21
264.000000
31
0.0
0
LINE
8
LINES
10
516.000000
20
220.000000
30
0.0
11
516.000000
21
264.000000
31
0.0
0
LINE
8
LINES
10
136.000000
20
264.000000
30
0.0
11
136.000000
21
224.000000
31
0.0
0
LINE
8
LINES
10
32.000000
20
388.000000
30
0.0
11
32.000000
21
432.000000
31
0.0
0
LINE
8
LINES
10
528.000000
20
0.000000
30
0.0
11
528.000000
21
44.000000
31
0.0
0
LINE
8
LINES
10
404.000000
20
0.000000
30
0.0
11
404.000000
21
44.000000
31
0.0
0
LINE
8
LINES
10
752.000000
20
220.000000
30
0.0
11
752.000000
21
264.000000
31
0.0
0
LINE
8
LINES
10
940.000000
20
160.000000
30
0.0
11
940.000000
21
204.000000
31
0.0
0
LINE
8
LINES
10
336.000000
20
416.000000
30
0.0
11
292.000000
21
416.000000
31
0.0
0
LINE
8
LINES
10
224.000000
20
180.000000
30
0.0
11
180.000000
21
180.000000
31
0.0
0
LINE
8
LINES
10
660.000000
20
136.000000
30
0.0
11
620.000000
21
136.000000
31
0.0
0
LINE
8
LINES
10
0.000000
20
352.000000
30
0.0
11
40.000000
21
352.000000
31
0.0
0
LINE
8
LINES
10
376.000000
20
136.000000
30
0.0
11
332.000000
21
136.000000
31
0.0
0
LINE
8
LINES
10
152.000000
20
128.000000
30
0.0
11
152.000000
21
168.000000
31
0.0
0
LINE
8
LINES
10
572.000000
20
264.000000
30
0.0
11
572.000000
21
224.000000
31
0.0
0
LINE
8
LINES
10
496.000000
20
264.000000
30
0.0
11
496.000000
21
224.000000
31
0.0
0
LINE
8
LINES
10
348.000000
20
264.000000
30
0.0
11
348.000000
21
224.000000
31
0.0
0
LINE
8
LINES
10
420.000000
20
264.000000
30
0.0
11
420.000000
21
224.000000
31
0.0
0
LINE
8
LINES
10
556.000000
20
360.000000
30
0.0
11
596.000000
21
360.000000
31
0.0
0
LINE
8
LINES
10
432.000000
20
8.000000
30
0.0
11
432.000000
21
48.000000
31
0.0
0
LINE
8
LINES
10
404.000000
20
360.000000
30
0.0
11
448.000000
21
360.000000
31
0.0
0
LINE
8
LINES
10
148.000000
20
160.000000
30
0.0
11
148.000000
21
120.000000
31
0.0
0
LINE
8
LINES
10
444.000000
20
264.000000
30
0.0
11
444.000000
21
224.000000
31
0.0
0
LINE
8
LINES
10
252.000000
20
360.000000
30
0.0
11
292.000000
21
360.000000
31
0.0
0
LINE
8
LINES
10
176.000000
20
168.000000
30
0.0
11
176.000000
21
124.000000
31
0.0
0
LINE
8
LINES
10
408.000000
20
396.000000
30
0.0
11
368.000000
21
396.000000
31
0.0
0
LINE
8
LINES
10
560.000000
20
396.000000
30
0.0
11
520.000000
21
396.000000
31
0.0
0
LINE
8
LINES
10
900.000000
20
172.000000
30
0.0
11
900.000000
21
128.000000
31
0.0
0
LINE
8
LINES
10
252.000000
20
204.000000
30
0.0
11
292.000000
21
204.000000
31
0.0
0
LINE
8
LINES
10
560.000000
20
416.000000
30
0.0
11
520.000000
21
416.000000
31
0.0
0
LINE
8
LINES
10
408.000000
20
416.000000
30
0.0
11
368.000000
21
416.000000
31
0.0
0
LINE
8
LINES
10
520.000000
20
424.000000
30
0.0
11
560.000000
21
424.000000
31
0.0
0
LINE
8
LINES
10
324.000000
20
220.000000
30
0.0
11
324.000000
21
264.000000
31
0.0
0
LINE
8
LINES
10
84.000000
20
288.000000
30
0.0
11
84.000000
21
244.000000
31
0.0
0
LINE
8
LINES
10
720.000000
20
264.000000
30
0.0
11
720.000000
21
224.000000
31
0.0
0
LINE
8
LINES
10
160.000000
20
452.000000
30
0.0
11
200.000000
21
452.000000
31
0.0
0
LINE
8
LINES
10
212.000000
20
432.000000
30
0.0
11
252.000000
21
432.000000
31
0.0
0
LINE
8
LINES
10
492.000000
20
492.000000
30
0.0
11
532.000000
21
492.000000
31
0.0
0
LINE
8
LINES
10
928.000000
20
244.000000
30
0.0
11
928.000000
21
284.000000
31
0.0
0
LINE
8
LINES
10
568.000000
20
436.000000
30
0.0
11
568.000000
21
396.000000
31
0.0
0
LINE
8
LINES
10
44.000000
20
376.000000
30
0.0
11
84.000000
21
376.000000
31
0.0
0
LINE
8
LINES
10
168.000000
20
268.000000
30
0.0
11
168.000000
21
228.000000
31
0.0
0
LINE
8
LINES
10
920.000000
20
188.000000
30
0.0
11
920.000000
21
148.000000
31
0.0
0
LINE
8
LINES
10
212.000000
20
436.000000
30
0.0
11
172.000000
21
436.000000
31
0.0
0
LINE
8
LINES
10
296.000000
20
8.000000
30
0.0
11
296.000000
21
48.000000
31
0.0
0
LINE
8
LINES
10
220.000000
20
92.000000
30
0.0
11
180.000000
21
92.000000
31
0.0
0
LINE
8
LINES
10
328.000000
20
360.000000
30
0.0
11
368.000000
21
360.000000
31
0.0
0
LINE
8
LINES
10
632.000000
20
360.000000
30
0.0
11
672.000000
21
360.000000
31
0.0
0
LINE
8
LINES
10
480.000000
20
360.000000
30
0.0
11
520.000000
21
360.000000
31
0.0
0
LINE
8
LINES
10
92.000000
20
164.000000
30
0.0
11
92.000000
21
124.000000
31
0.0
0
LINE
8
LINES
10
408.000000
20
268.000000
30
0.0
11
448.000000
21
268.000000
31
0.0
0
LINE
8
LINES
10
388.000000
20
504.000000
30
0.0
11
388.000000
21
464.000000
31
0.0
0
LINE
8
LINES
10
144.000000
20
396.000000
30
0.0
11
184.000000
21
396.000000
31
0.0
0
LINE
8
LINES
10
488.000000
20
260.000000
30
0.0
11
488.000000
21
220.000000
31
0.0
0
LINE
8
LINES
10
80.000000
20
348.000000
30
0.0
11
80.000000
21
308.000000
31
0.0
0
LINE
8
LINES
10
80.000000
20
388.000000
30
0.0
11
40.000000
21
388.000000
31
0.0
0
LINE
8
LINES
10
68.000000
20
432.000000
30
0.0
11
104.000000
21
432.000000
31
0.0
0
LINE
8
LINES
10
336.000000
20
460.000000
30
0.0
11
372.000000
21
460.000000
31
0.0
0
LINE
8
LINES
10
32.000000
20
456.000000
30
0.0
11
68.000000
21
456.000000
31
0.0
0
LINE
8
LINES
10
272.000000
20
264.000000
30
0.0
11
272.000000
21
224.000000
31
0.0
0
LINE
8
LINES
10
116.000000
20
160.000000
30
0.0
11
116.000000
21
120.000000
31
0.0
0
LINE
8
LINES
10
256.000000
20
268.000000
30
0.0
11
296.000000
21
268.000000
31
0.0
0
LINE
8
LINES
10
268.000000
20
436.000000
30
0.0
11
268.000000
21
400.000000
31
0.0
0
LINE
8
LINES
10
484.000000
20
396.000000
30
0.0
11
444.000000
21
396.000000
31
0.0
0
LINE
8
LINES
10
96.000000
20
128.000000
30
0.0
11
96.000000
21
168.000000
31
0.0
0
LINE
8
LINES
10
852.000000
20
344.000000
30
0.0
11
852.000000
21
304.000000
31
0.0
0
LINE
8
LINES
10
948.000000
20
320.000000
30
0.0
11
948.000000
21
360.000000
31
0.0
0
LINE
8
LINES
10
908.000000
20
224.000000
30
0.0
11
940.000000
21
244.000000
31
0.0
0
LINE
8
LINES
10
328.000000
20
436.000000
30
0.0
11
368.000000
21
436.000000
31
0.0
0
LINE
8
LINES
10
728.000000
20
428.000000
30
0.0
11
688.000000
21
428.000000
31
0.0
0
LINE
8
LINES
10
160.000000
20
264.000000
30
0.0
11
160.000000
21
224.000000
31
0.0
0
LINE
8
LINES
10
872.000000
20
164.000000
30
0.0
11
872.000000
21
128.000000
31
0.0
0
LINE
8
LINES
10
1016.000000
20
504.000000
30
0.0
11
1016.000000
21
468.000000
31
0.0
0
LINE
8
LINES
10
688.000000
20
432.000000
30
0.0
11
728.000000
21
432.000000
31
0.0
0
LINE
8
LINES
10
24.000000
20
436.000000
30
0.0
11
64.000000
21
436.000000
31
0.0
0
LINE
8
LINES
10
448.000000
20
12.000000
30
0.0
11
448.000000
21
52.000000
31
0.0
0
LINE
8
LINES
10
560.000000
20
268.000000
30
0.0
11
596.000000
21
268.000000
31
0.0
0
LINE
8
LINES
10
368.000000
20
264.000000
30
0.0
11
368.000000
21
224.000000
31
0.0
0
LINE
8
LINES
10
280.000000
20
132.000000
30
0.0
11
244.000000
21
120.000000
31
0.0
0
LINE
8
LINES
10
368.000000
20
424.000000
30
0.0
11
408.000000
21
424.000000
31
0.0
0
LINE
8
LINES
10
292.000000
20
404.000000
30
0.0
11
332.000000
21
404.000000
31
0.0
0
LINE
8
LINES
10
672.000000
20
264.000000
30
0.0
11
672.000000
21
224.000000
31
0.0
0
LINE
8
LINES
10
484.000000
20
416.000000
30
0.0
11
448.000000
21
416.000000
31
0.0
0
LINE
8
LINES
10
120.000000
20
344.000000
30
0.0
11
120.000000
21
308.000000
31
0.0
0
LINE
8
LINES
10
96.000000
20
304.000000
30
0.0
11
96.000000
21
268.000000
31
0.0
0
LINE
8
LINES
10
792.000000
20
208.000000
30
0.0
11
828.000000
21
208.000000
31
0.0
0
LINE
8
LINES
10
44.000000
20
192.000000
30
0.0
11
8.000000
21
180.000000
31
0.0
0
LINE
8
LINES
10
320.000000
20
16.000000
30
0.0
11
352.000000
21
32.000000
31
0.0
0
LINE
8
LINES
10
740.000000
20
300.000000
30
0.0
11
740.000000
21
336.000000
31
0.0
0
LINE
8
LINES
10
352.000000
20
20.000000
30
0.0
11
320.000000
21
8.000000
31
0.0
0
LINE
8
LINES
10
280.000000
20
124.000000
30
0.0
11
244.000000
21
112.000000
31
0.0
0
LINE
8
LINES
10
896.000000
20
216.000000
30
0.0
11
860.000000
21
216.000000
31
0.0
0
LINE
8
LINES
10
228.000000
20
0.000000
30
0.0
11
228.000000
21
36.000000
31
0.0
0
LINE
8
LINES
10
596.000000
20
216.000000
30
0.0
11
632.000000
21
216.000000
31
0.0
0
LINE
8
LINES
10
960.000000
20
224.000000
30
0.0
11
960.000000
21
188.000000
31
0.0
0
LINE
8
LINES
10
332.000000
20
396.000000
30
0.0
11
296.000000
21
396.000000
31
0.0
0
LINE
8
LINES
10
400.000000
20
220.000000
30
0.0
11
400.000000
21
256.000000
31
0.0
0
LINE
8
LINES
10
964.000000
20
232.000000
30
0.0
11
992.000000
21
256.000000
31
0.0
0
LINE
8
LINES
10
960.000000
20
384.000000
30
0.0
11
996.000000
21
384.000000
31
0.0
0
LINE
8
LINES
10
964.000000
20
196.000000
30
0.0
11
964.000000
21
232.000000
31
0.0
0
LINE
8
LINES
10
848.000000
20
164.000000
30
0.0
11
848.000000
21
128.000000
31
0.0
0
LINE
8
LINES
10
820.000000
20
160.000000
30
0.0
11
820.000000
21
124.000000
31
0.0
0
LINE
8
LINES
10
504.000000
20
448.000000
30
0.0
11
536.000000
21
448.000000
31
0.0
0
LINE
8
LINES
10
220.000000
20
192.000000
30
0.0
11
184.000000
21
192.000000
31
0.0
0
LINE
8
LINES
10
340.000000
20
264.000000
30
0.0
11
340.000000
21
228.000000
31
0.0
0
LINE
8
LINES
10
144.000000
20
124.000000
30
0.0
11
144.000000
21
160.000000
31
0.0
0
LINE
8
LINES
10
272.000000
20
0.000000
30
0.0
11
272.000000
21
36.000000
31
0.0
0
LINE
8
LINES
10
708.000000
20
360.000000
30
0.0
11
744.000000
21
360.000000
31
0.0
0
LINE
8
LINES
10
492.000000
20
432.000000
30
0.0
11
492.000000
21
400.000000
31
0.0
0
LINE
8
LINES
10
368.000000
20
356.000000
30
0.0
11
332.000000
21
356.000000
31
0.0
0
LINE
8
LINES
10
136.000000
20
404.000000
30
0.0
11
168.000000
21
404.000000
31
0.0
0
LINE
8
LINES
10
388.000000
20
0.000000
30
0.0
11
388.000000
21
36.000000
31
0.0
0
LINE
8
LINES
10
416.000000
20
432.000000
30
0.0
11
416.000000
21
400.000000
31
0.0
0
LINE
8
LINES
10
636.000000
20
216.000000
30
0.0
11
672.000000
21
216.000000
31
0.0
0
LINE
8
LINES
10
112.000000
20
360.000000
30
0.0
11
148.000000
21
360.000000
31
0.0
0
LINE
8
LINES
10
512.000000
20
0.000000
30
0.0
11
512.000000
21
36.000000
31
0.0
0
LINE
8
LINES
10
900.000000
20
132.000000
30
0.0
11
900.000000
21
168.000000
31
0.0
0
LINE
8
LINES
10
692.000000
20
392.000000
30
0.0
11
728.000000
21
392.000000
31
0.0
0
LINE
8
LINES
10
328.000000
20
424.000000
30
0.0
11
292.000000
21
424.000000
31
0.0
0
LINE
8
LINES
10
944.000000
20
176.000000
30
0.0
11
944.000000
21
212.000000
31
0.0
0
LINE
8
LINES
10
488.000000
20
376.000000
30
0.0
11
520.000000
21
376.000000
31
0.0
0
LINE
8
LINES
10
40.000000
20
172.000000
30
0.0
11
40.000000
21
136.000000
31
0.0
0
LINE
8
LINES
10
132.000000
20
228.000000
30
0.0
11
132.000000
21
264.000000
31
0.0
0
LINE
8
LINES
10
568.000000
20
184.000000
30
0.0
11
536.000000
21
184.000000
31
0.0
0
LINE
8
LINES
10
840.000000
20
184.000000
30
0.0
11
876.000000
21
184.000000
31
0.0
0
LINE
8
LINES
10
928.000000
20
104.000000
30
0.0
11
952.000000
21
132.000000
31
0.0
0
LINE
8
LINES
10
324.000000
20
320.000000
30
0.0
11
324.000000
21
356.000000
31
0.0
0
LINE
8
LINES
10
372.000000
20
432.000000
30
0.0
11
404.000000
21
432.000000
31
0.0
0
LINE
8
LINES
10
796.000000
20
496.000000
30
0.0
11
832.000000
21
496.000000
31
0.0
0
LINE
8
LINES
10
204.000000
20
228.000000
30
0.0
11
204.000000
21
264.000000
31
0.0
0
LINE
8
LINES
10
800.000000
20
220.000000
30
0.0
11
800.000000
21
252.000000
31
0.0
0
LINE
8
LINES
10
784.000000
20
476.000000
30
0.0
11
748.000000
21
476.000000
31
0.0
0
LINE
8
LINES
10
516.000000
20
436.000000
30
0.0
11
484.000000
21
436.000000
31
0.0
0
LINE
8
LINES
10
928.000000
20
400.000000
30
0.0
11
928.000000
21
432.000000
31
0.0
0
LINE
8
LINES
10
796.000000
20
104.000000
30
0.0
11
760.000000
21
104.000000
31
0.0
0
LINE
8
LINES
10
292.000000
20
356.000000
30
0.0
11
256.000000
21
356.000000
31
0.0
0
LINE
8
LINES
10
880.000000
20
228.000000
30
0.0
11
880.000000
21
264.000000
31
0.0
0
LINE
8
LINES
10
204.000000
20
0.000000
30
0.0
11
204.000000
21
32.000000
31
0.0
0
LINE
8
LINES
10
520.000000
20
356.000000
30
0.0
11
484.000000
21
356.000000
31
0.0
0
LINE
8
LINES
10
556.000000
20
424.000000
30
0.0
11
520.000000
21
424.000000
31
0.0
0
LINE
8
LINES
10
404.000000
20
424.000000
30
0.0
11
372.000000
21
424.000000
31
0.0
0
LINE
8
LINES
10
172.000000
20
108.000000
30
0.0
11
136.000000
21
108.000000
31
0.0
0
LINE
8
LINES
10
860.000000
20
396.000000
30
0.0
11
896.000000
21
396.000000
31
0.0
0
LINE
8
LINES
10
944.000000
20
208.000000
30
0.0
11
944.000000
21
176.000000
31
0.0
0
LINE
8
LINES
10
216.000000
20
180.000000
30
0.0
11
180.000000
21
180.000000
31
0.0
0
LINE
8
LINES
10
216.000000
20
208.000000
30
0.0
11
184.000000
21
208.000000
31
0.0
0
LINE
8
LINES
10
664.000000
20
392.000000
30
0.0
11
628.000000
21
392.000000
31
0.0
0
LINE
8
LINES
10
680.000000
20
464.000000
30
0.0
11
712.000000
21
464.000000
31
0.0
0
LINE
8
LINES
10
452.000000
20
468.000000
30
0.0
11
488.000000
21
468.000000
31
0.0
0
LINE
8
LINES
10
288.000000
20
392.000000
30
0.0
11
288.000000
21
424.000000
31
0.0
0
LINE
8
LINES
10
768.000000
20
340.000000
30
0.0
11
768.000000
21
372.000000
31
0.0
0
LINE
8
LINES
10
844.000000
20
356.000000
30
0.0
11
812.000000
21
356.000000
31
0.0
0
LINE
8
LINES
10
236.000000
20
144.000000
30
0.0
11
236.000000
21
112.000000
31
0.0
0
LINE
8
LINES
10
892.000000
20
104.000000
30
0.0
11
860.000000
21
104.000000
31
0.0
0
LINE
8
LINES
10
316.000000
20
48.000000
30
0.0
11
316.000000
21
16.000000
31
0.0
0
LINE
8
LINES
10
912.000000
20
424.000000
30
0.0
11
880.000000
21
424.000000
31
0.0
0
LINE
8
LINES
10
716.000000
20
388.000000
30
0.0
11
684.000000
21
388.000000
31
0.0
0
LINE
8
LINES
10
412.000000
20
376.000000
30
0.0
11
448.000000
21
376.000000
31
0.0
0
LINE
8
LINES
10
80.000000
20
500.000000
30
0.0
11
112.000000
21
500.000000
31
0.0
0
LINE
8
LINES
10
184.000000
20
424.000000
30
0.0
11
216.000000
21
424.000000
31
0.0
0
LINE
8
LINES
10
892.000000
20
112.000000
30
0.0
11
860.000000
21
112.000000
31
0.0
0
LINE
8
LINES
10
372.000000
20
396.000000
30
0.0
11
404.000000
21
396.000000
31
0.0
0
LINE
8
LINES
10
8.000000
20
372.000000
30
0.0
11
40.000000
21
372.000000
31
0.0
0
LINE
8
LINES
10
220.000000
20
396.000000
30
0.0
11
188.000000
21
396.000000
31
0.0
0
LINE
8
LINES
10
184.000000
20
344.000000
30
0.0
11
184.000000
21
308.000000
31
0.0
0
LINE
8
LINES
10
132.000000
20
308.000000
30
0.0
11
132.000000
21
344.000000
31
0.0
0
LINE
8
LINES
10
916.000000
20
440.000000
30
0.0
11
944.000000
21
456.000000
31
0.0
0
LINE
8
LINES
10
668.000000
20
232.000000
30
0.0
11
668.000000
21
264.000000
31
0.0
0
LINE
8
LINES
10
552.000000
20
464.000000
30
0.0
11
584.000000
21
464.000000
31
0.0
0
LINE
8
LINES
10
488.000000
20
464.000000
30
0.0
11
520.000000
21
464.000000
31
0.0
0
LINE
8
LINES
10
744.000000
20
384.000000
30
0.0
11
744.000000
21
352.000000
31
0.0
0
LINE
8
LINES
10
968.000000
20
268.000000
30
0.0
11
968.000000
21
300.000000
31
0.0
0
LINE
8
LINES
10
440.000000
20
356.000000
30
0.0
11
408.000000
21
356.000000
31
0.0
0
LINE
8
LINES
10
776.000000
20
84.000000
30
0.0
11
808.000000
21
84.000000
31
0.0
0
LINE
8
LINES
10
708.000000
20
268.000000
30
0.0
11
740.000000
21
268.000000
31
0.0
0
LINE
8
LINES
10
448.000000
20
376.000000
30
0.0
11
480.000000
21
376.000000
31
0.0
0
LINE
8
LINES
10
480.000000
20
424.000000
30
0.0
11
448.000000
21
424.000000
31
0.0
0
LINE
8
LINES
10
296.000000
20
264.000000
30
0.0
11
296.000000
21
232.000000
31
0.0
0
LINE
8
LINES
10
216.000000
20
428.000000
30
0.0
11
184.000000
21
428.000000
31
0.0
0
LINE
8
LINES
10
484.000000
20
216.000000
30
0.0
11
516.000000
21
216.000000
31
0.0
0
LINE
8
LINES
10
228.000000
20
108.000000
30
0.0
11
196.000000
21
108.000000
31
0.0
0
LINE
8
LINES
10
516.000000
20
216.000000
30
0.0
11
484.000000
21
216.000000
31
0.0
0
LINE
8
LINES
10
524.000000
20
416.000000
30
0.0
11
556.000000
21
416.000000
31
0.0
0
LINE
8
LINES
10
592.000000
20
216.000000
30
0.0
11
560.000000
21
216.000000
31
0.0
0
LINE
8
LINES
10
328.000000
20
408.000000
30
0.0
11
296.000000
21
408.000000
31
0.0
0
LINE
8
LINES
10
368.000000
20
216.000000
30
0.0
11
332.000000
21
216.000000
31
0.0
0
LINE
8
LINES
10
172.000000
20
416.000000
30
0.0
11
136.000000
21
416.000000
31
0.0
0
LINE
8
LINES
10
604.000000
20
320.000000
30
0.0
11
604.000000
21
352.000000
31
0.0
0
LINE
8
LINES
10
404.000000
20
44.000000
30
0.0
11
372.000000
21
32.000000
31
0.0
0
LINE
8
LINES
10
260.000000
20
504.000000
30
0.0
11
228.000000
21
504.000000
31
0.0
0
LINE
8
LINES
10
296.000000
20
68.000000
30
0.0
11
304.000000
21
96.000000
31
0.0
0
LINE
8
LINES
10
408.000000
20
440.000000
30
0.0
11
440.000000
21
456.000000
31
0.0
0
LINE
8
LINES
10
576.000000
20
448.000000
30
0.0
11
548.000000
21
452.000000
31
0.0
0
LINE
8
LINES
10
1000.000000
20
396.000000
30
0.0
11
968.000000
21
396.000000
31
0.0
0
LINE
8
LINES
10
616.000000
20
464.000000
30
0.0
11
648.000000
21
464.000000
31
0.0
0
LINE
8
LINES
10
124.000000
20
156.000000
30
0.0
11
124.000000
21
128.000000
31
0.0
0
LINE
8
LINES
10
744.000000
20
320.000000
30
0.0
11
744.000000
21
352.000000
31
0.0
0
LINE
8
LINES
10
584.000000
20
464.000000
30
0.0
11
552.000000
21
464.000000
31
0.0
0
LINE
8
LINES
10
820.000000
20
428.000000
30
0.0
11
852.000000
21
428.000000
31
0.0
0
LINE
8
LINES
10
256.000000
20
32.000000
30
0.0
11
256.000000
21
0.000000
31
0.0
0
LINE
8
LINES
10
596.000000
20
264.000000
30
0.0
11
596.000000
21
232.000000
31
0.0
0
LINE
8
LINES
10
176.000000
20
96.000000
30
0.0
11
144.000000
21
96.000000
31
0.0
0
LINE
8
LINES
10
844.000000
20
216.000000
30
0.0
11
812.000000
21
216.000000
31
0.0
0
LINE
8
LINES
10
108.000000
20
432.000000
30
0.0
11
108.000000
21
400.000000
31
0.0
0
LINE
8
LINES
10
120.000000
20
164.000000
30
0.0
11
148.000000
21
164.000000
31
0.0
0
LINE
8
LINES
10
552.000000
20
408.000000
30
0.0
11
524.000000
21
408.000000
31
0.0
0
LINE
8
LINES
10
288.000000
20
216.000000
30
0.0
11
256.000000
21
216.000000
31
0.0
0
LINE
8
LINES
10
440.000000
20
216.000000
30
0.0
11
408.000000
21
216.000000
31
0.0
0
LINE
8
LINES
10
764.000000
20
112.000000
30
0.0
11
796.000000
21
112.000000
31
0.0
0
LINE
8
LINES
10
168.000000
20
400.000000
30
0.0
11
136.000000
21
400.000000
31
0.0
0
LINE
8
LINES
10
944.000000
20
288.000000
30
0.0
11
944.000000
21
256.000000
31
0.0
0
LINE
8
LINES
10
944.000000
20
320.000000
30
0.0
11
944.000000
21
348.000000
31
0.0
0
LINE
8
LINES
10
624.000000
20
268.000000
30
0.0
11
624.000000
21
296.000000
31
0.0
0
LINE
8
LINES
10
1016.000000
20
288.000000
30
0.0
11
1016.000000
21
320.000000
31
0.0
0
LINE
8
LINES
10
848.000000
20
320.000000
30
0.0
11
848.000000
21
352.000000
31
0.0
0
LINE
8
LINES
10
128.000000
20
296.000000
30
0.0
11
160.000000
21
296.000000
31
0.0
0
LINE
8
LINES
10
712.000000
20
464.000000
30
0.0
11
680.000000
21
464.000000
31
0.0
0
LINE
8
LINES
10
648.000000
20
464.000000
30
0.0
11
616.000000
21
464.000000
31
0.0
0
LINE
8
LINES
10
448.000000
20
416.000000
30
0.0
11
480.000000
21
416.000000
31
0.0
0
LINE
8
LINES
10
668.000000
20
216.000000
30
0.0
11
636.000000
21
216.000000
31
0.0
0
LINE
8
LINES
10
372.000000
20
416.000000
30
0.0
11
404.000000
21
416.000000
31
0.0
0
LINE
8
LINES
10
524.000000
20
392.000000
30
0.0
11
552.000000
21
392.000000
31
0.0
0
LINE
8
LINES
10
296.000000
20
416.000000
30
0.0
11
328.000000
21
416.000000
31
0.0
0
LINE
8
LINES
10
404.000000
20
408.000000
30
0.0
11
372.000000
21
408.000000
31
0.0
0
LINE
8
LINES
10
744.000000
20
216.000000
30
0.0
11
712.000000
21
216.000000
31
0.0
0
LINE
8
LINES
10
184.000000
20
136.000000
30
0.0
11
184.000000
21
168.000000
31
0.0
0
LINE
8
LINES
10
560.000000
20
128.000000
30
0.0
11
592.000000
21
128.000000
31
0.0
0
LINE
8
LINES
10
604.000000
20
184.000000
30
0.0
11
572.000000
21
184.000000
31
0.0
0
LINE
8
LINES
10
124.000000
20
208.000000
30
0.0
11
92.000000
21
208.000000
31
0.0
0
LINE
8
LINES
10
800.000000
20
212.000000
30
0.0
11
772.000000
21
212.000000
31
0.0
0
LINE
8
LINES
10
284.000000
20
464.000000
30
0.0
11
312.000000
21
464.000000
31
0.0
0
LINE
8
LINES
10
32.000000
20
164.000000
30
0.0
11
0.000000
21
160.000000
31
0.0
0
LINE
8
LINES
10
72.000000
20
196.000000
30
0.0
11
40.000000
21
196.000000
31
0.0
0
LINE
8
LINES
10
0.000000
20
188.000000
30
0.0
11
32.000000
21
188.000000
31
0.0
0
LINE
8
LINES
10
156.000000
20
324.000000
30
0.0
11
156.000000
21
352.000000
31
0.0
0
LINE
8
LINES
10
832.000000
20
320.000000
30
0.0
11
832.000000
21
352.000000
31
0.0
0
LINE
8
LINES
10
372.000000
20
32.000000
30
0.0
11
372.000000
21
0.000000
31
0.0
0
LINE
8
LINES
10
896.000000
20
396.000000
30
0.0
11
864.000000
21
396.000000
31
0.0
0
LINE
8
LINES
10
168.000000
20
428.000000
30
0.0
11
140.000000
21
428.000000
31
0.0
0
LINE
8
LINES
10
520.000000
20
264.000000
30
0.0
11
520.000000
21
232.000000
31
0.0
0
LINE
8
LINES
10
504.000000
20
32.000000
30
0.0
11
504.000000
21
0.000000
31
0.0
0
LINE
8
LINES
10
160.000000
20
104.000000
30
0.0
11
128.000000
21
104.000000
31
0.0
0
LINE
8
LINES
10
344.000000
20
428.000000
30
0.0
11
344.000000
21
400.000000
31
0.0
0
LINE
8
LINES
10
376.000000
20
244.000000
30
0.0
11
376.000000
21
272.000000
31
0.0
0
LINE
8
LINES
10
480.000000
20
408.000000
30
0.0
11
448.000000
21
408.000000
31
0.0
0
LINE
8
LINES
10
296.000000
20
396.000000
30
0.0
11
328.000000
21
396.000000
31
0.0
0
LINE
8
LINES
10
188.000000
20
416.000000
30
0.0
11
216.000000
21
416.000000
31
0.0
0
LINE
8
LINES
10
164.000000
20
472.000000
30
0.0
11
192.000000
21
472.000000
31
0.0
0
LINE
8
LINES
10
136.000000
20
324.000000
30
0.0
11
136.000000
21
352.000000
31
0.0
0
ENDSEC
0
EOF
