0
SECTION
2
ENTITIES
0
LWPOLYLINE
8
FACADE_OUTLINE
90
4
70
1
10
0.000000
20
0.000000
10
1024.000000
20
0.000000
10
1024.000000
20
943.000000
10
0.000000
20
943.000000
0
LWPOLYLINE
8
WINDOWS
90
4
70
1
10
849.000000
20
0.000000
10
1024.000000
20
0.000000
10
1024.000000
20
132.000000
10
849.000000
20
132.000000
0
LWPOLYLINE
8
WINDOWS
90
4
70
1
10
0.000000
20
3.000000
10
1024.000000
20
3.000000
10
1024.000000
20
878.000000
10
0.000000
20
878.000000
0
LWPOLYLINE
8
WINDOWS
90
4
70
1
10
190.000000
20
116.000000
10
307.000000
20
116.000000
10
307.000000
20
193.000000
10
190.000000
20
193.000000
0
LWPOLYLINE
8
WINDOWS
90
4
70
1
10
307.000000
20
116.000000
10
398.000000
20
116.000000
10
398.000000
20
193.000000
10
307.000000
20
193.000000
0
LWPOLYLINE
8
WINDOWS
90
4
70
1
10
489.000000
20
116.000000
10
580.000000
20
116.000000
10
580.000000
20
193.000000
10
489.000000
20
193.000000
0
LWPOLYLINE
8
WINDOWS
90
4
70
1
10
672.000000
20
116.000000
10
809.000000
20
116.000000
10
809.000000
20
193.000000
10
672.000000
20
193.000000
0
LWPOLYLINE
8
WINDOWS
90
4
70
1
10
795.000000
20
116.000000
10
854.000000
20
116.000000
10
854.000000
20
196.000000
10
795.000000
20
196.000000
0
LWPOLYLINE
8
WINDOWS
90
4
70
1
10
398.000000
20
118.000000
10
489.000000
20
118.000000
10
489.000000
20
193.000000
10
398.000000
20
193.000000
0
LWPOLYLINE
8
WINDOWS
90
4
70
1
10
0.000000
20
257.000000
10
118.000000
20
257.000000
10
118.000000
20
393.000000
10
0.000000
20
393.000000
0
LWPOLYLINE
8
WINDOWS
90
4
70
1
10
912.000000
20
272.000000
10
988.000000
20
272.000000
10
988.000000
20
364.000000
10
912.000000
20
364.000000
0
LWPOLYLINE
8
WINDOWS
90
4
70
1
10
153.000000
20
286.000000
10
227.000000
20
286.000000
10
227.000000
20
371.000000
10
153.000000
20
371.000000
0
LWPOLYLINE
8
WINDOWS
90
4
70
1
10
275.000000
20
286.000000
10
348.000000
20
286.000000
10
348.000000
20
387.000000
10
275.000000
20
387.000000
0
LWPOLYLINE
8
WINDOWS
90
4
70
1
10
368.000000
20
286.000000
10
443.000000
20
286.000000
10
443.000000
20
368.000000
10
368.000000
20
368.000000
0
LWPOLYLINE
8
WINDOWS
90
4
70
1
10
460.000000
20
286.000000
10
532.000000
20
286.000000
10
532.000000
20
385.000000
10
460.000000
20
385.000000
0
LWPOLYLINE
8
WINDOWS
90
4
70
1
10
555.000000
20
286.000000
10
625.000000
20
286.000000
10
625.000000
20
371.000000
10
555.000000
20
371.000000
0
LWPOLYLINE
8
WINDOWS
90
4
70
1
10
648.000000
20
286.000000
10
718.000000
20
286.000000
10
718.000000
20
369.000000
10
648.000000
20
369.000000
0
LWPOLYLINE
8
WINDOWS
90
4
70
1
10
768.000000
20
286.000000
10
838.000000
20
286.000000
10
838.000000
20
369.000000
10
768.000000
20
369.000000
0
LWPOLYLINE
8
WINDOWS
90
4
70
1
10
126.000000
20
392.000000
10
233.000000
20
392.000000
10
233.000000
20
451.000000
10
126.000000
20
451.000000
0
LWPOLYLINE
8
WINDOWS
90
4
70
1
10
251.000000
20
393.000000
10
350.000000
20
393.000000
10
350.000000
20
451.000000
10
251.000000
20
451.000000
0
LWPOLYLINE
8
WINDOWS
90
4
70
1
10
510.000000
20
396.000000
10
612.000000
20
396.000000
10
612.000000
20
537.000000
10
510.000000
20
537.000000
0
LWPOLYLINE
8
WINDOWS
90
4
70
1
10
0.000000
20
406.000000
10
121.000000
20
406.000000
10
121.000000
20
524.000000
10
0.000000
20
524.000000
0
LWPOLYLINE
8
WINDOWS
90
4
70
1
10
899.000000
20
428.000000
10
1024.000000
20
428.000000
10
1024.000000
20
548.000000
10
899.000000
20
548.000000
0
LWPOLYLINE
8
WINDOWS
90
4
70
1
10
134.000000
20
569.000000
10
1024.000000
20
569.000000
10
1024.000000
20
942.000000
10
134.000000
20
942.000000
0
LWPOLYLINE
8
WINDOWS
90
4
70
1
10
851.000000
20
614.000000
10
937.000000
20
614.000000
10
937.000000
20
692.000000
10
851.000000
20
692.000000
0
LWPOLYLINE
8
DOORS
90
4
70
1
10
795.000000
20
780.000000
10
824.000000
20
780.000000
10
824.000000
20
860.000000
10
795.000000
20
860.000000
0
LWPOLYLINE
8
DOORS
90
4
70
1
10
532.000000
20
782.000000
10
576.000000
20
782.000000
10
576.000000
20
878.000000
10
532.000000
20
878.000000
0
LWPOLYLINE
8
DOORS
90
4
70
1
10
936.000000
20
784.000000
10
982.000000
20
784.000000
10
982.000000
20
902.000000
10
936.000000
20
902.000000
0
LINE
8
LINES
10
102.000000
20
558.000000
30
0.0
11
838.000000
21
558.000000
31
0.0
0
LINE
8
LINES
10
94.000000
20
67.000000
30
0.0
11
822.000000
21
67.000000
31
0.0
0
LINE
8
LINES
10
81.000000
20
41.000000
30
0.0
11
806.000000
21
41.000000
31
0.0
0
LINE
8
LINES
10
811.000000
20
46.000000
30
0.0
11
86.000000
21
46.000000
31
0.0
0
LINE
8
LINES
10
819.000000
20
62.000000
30
0.0
11
97.000000
21
62.000000
31
0.0
0
LINE
8
LINES
10
843.000000
20
195.000000
30
0.0
11
121.000000
21
195.000000
31
0.0
0
LINE
8
LINES
10
132.000000
20
220.000000
30
0.0
11
846.000000
21
220.000000
31
0.0
0
LINE
8
LINES
10
848.000000
20
211.000000
30
0.0
11
136.000000
21
211.000000
31
0.0
0
LINE
8
LINES
10
846.000000
20
224.000000
30
0.0
11
134.000000
21
224.000000
31
0.0
0
LINE
8
LINES
10
846.000000
20
227.000000
30
0.0
11
136.000000
21
227.000000
31
0.0
0
LINE
8
LINES
10
692.000000
20
582.000000
30
0.0
11
131.000000
21
582.000000
31
0.0
0
LINE
8
LINES
10
307.000000
20
604.000000
30
0.0
11
846.000000
21
604.000000
31
0.0
0
LINE
8
LINES
10
331.000000
20
54.000000
30
0.0
11
812.000000
21
54.000000
31
0.0
0
LINE
8
LINES
10
569.000000
20
563.000000
30
0.0
11
110.000000
21
563.000000
31
0.0
0
LINE
8
LINES
10
452.000000
20
244.000000
30
0.0
11
846.000000
21
244.000000
31
0.0
0
LINE
8
LINES
10
452.000000
20
225.000000
30
0.0
11
846.000000
21
225.000000
31
0.0
0
LINE
8
LINES
10
846.000000
20
246.000000
30
0.0
11
452.000000
21
246.000000
31
0.0
0
LINE
8
LINES
10
452.000000
20
232.000000
30
0.0
11
846.000000
21
232.000000
31
0.0
0
LINE
8
LINES
10
846.000000
20
233.000000
30
0.0
11
452.000000
21
233.000000
31
0.0
0
LINE
8
LINES
10
113.000000
20
192.000000
30
0.0
11
486.000000
21
192.000000
31
0.0
0
LINE
8
LINES
10
473.000000
20
203.000000
30
0.0
11
846.000000
21
203.000000
31
0.0
0
LINE
8
LINES
10
846.000000
20
382.000000
30
0.0
11
497.000000
21
382.000000
31
0.0
0
LINE
8
LINES
10
136.000000
20
732.000000
30
0.0
11
483.000000
21
732.000000
31
0.0
0
LINE
8
LINES
10
128.000000
20
203.000000
30
0.0
11
462.000000
21
203.000000
31
0.0
0
LINE
8
LINES
10
508.000000
20
881.000000
30
0.0
11
172.000000
21
881.000000
31
0.0
0
LINE
8
LINES
10
464.000000
20
736.000000
30
0.0
11
137.000000
21
736.000000
31
0.0
0
LINE
8
LINES
10
531.000000
20
713.000000
30
0.0
11
846.000000
21
713.000000
31
0.0
0
LINE
8
LINES
10
852.000000
20
222.000000
30
0.0
11
852.000000
21
532.000000
31
0.0
0
LINE
8
LINES
10
449.000000
20
246.000000
30
0.0
11
137.000000
21
246.000000
31
0.0
0
LINE
8
LINES
10
448.000000
20
233.000000
30
0.0
11
137.000000
21
233.000000
31
0.0
0
LINE
8
LINES
10
137.000000
20
244.000000
30
0.0
11
448.000000
21
244.000000
31
0.0
0
LINE
8
LINES
10
137.000000
20
232.000000
30
0.0
11
448.000000
21
232.000000
31
0.0
0
LINE
8
LINES
10
436.000000
20
390.000000
30
0.0
11
137.000000
21
390.000000
31
0.0
0
LINE
8
LINES
10
849.000000
20
553.000000
30
0.0
11
849.000000
21
265.000000
31
0.0
0
LINE
8
LINES
10
846.000000
20
716.000000
30
0.0
11
561.000000
21
716.000000
31
0.0
0
LINE
8
LINES
10
228.000000
20
897.000000
30
0.0
11
507.000000
21
897.000000
31
0.0
0
LINE
8
LINES
10
508.000000
20
899.000000
30
0.0
11
236.000000
21
899.000000
31
0.0
0
LINE
8
LINES
10
998.000000
20
921.000000
30
0.0
11
1022.000000
21
656.000000
31
0.0
0
LINE
8
LINES
10
592.000000
20
732.000000
30
0.0
11
846.000000
21
732.000000
31
0.0
0
LINE
8
LINES
10
846.000000
20
736.000000
30
0.0
11
595.000000
21
736.000000
31
0.0
0
LINE
8
LINES
10
670.000000
20
774.000000
30
0.0
11
420.000000
21
774.000000
31
0.0
0
LINE
8
LINES
10
92.000000
20
54.000000
30
0.0
11
321.000000
21
54.000000
31
0.0
0
LINE
8
LINES
10
652.000000
20
697.000000
30
0.0
11
430.000000
21
697.000000
31
0.0
0
LINE
8
LINES
10
1022.000000
20
132.000000
30
0.0
11
848.000000
21
0.000000
31
0.0
0
LINE
8
LINES
10
814.000000
20
563.000000
30
0.0
11
593.000000
21
563.000000
31
0.0
0
LINE
8
LINES
10
660.000000
20
390.000000
30
0.0
11
441.000000
21
390.000000
31
0.0
0
LINE
8
LINES
10
633.000000
20
251.000000
30
0.0
11
846.000000
21
251.000000
31
0.0
0
LINE
8
LINES
10
428.000000
20
697.000000
30
0.0
11
219.000000
21
697.000000
31
0.0
0
LINE
8
LINES
10
598.000000
20
752.000000
30
0.0
11
808.000000
21
752.000000
31
0.0
0
LINE
8
LINES
10
768.000000
20
366.000000
30
0.0
11
558.000000
21
366.000000
31
0.0
0
LINE
8
LINES
10
486.000000
20
385.000000
30
0.0
11
691.000000
21
385.000000
31
0.0
0
LINE
8
LINES
10
489.000000
20
192.000000
30
0.0
11
691.000000
21
192.000000
31
0.0
0
LINE
8
LINES
10
313.000000
20
876.000000
30
0.0
11
507.000000
21
876.000000
31
0.0
0
LINE
8
LINES
10
611.000000
20
59.000000
30
0.0
11
806.000000
21
59.000000
31
0.0
0
LINE
8
LINES
10
65.000000
20
745.000000
30
0.0
11
123.000000
21
929.000000
31
0.0
0
LINE
8
LINES
10
532.000000
20
929.000000
30
0.0
11
340.000000
21
929.000000
31
0.0
0
LINE
8
LINES
10
846.000000
20
696.000000
30
0.0
11
654.000000
21
696.000000
31
0.0
0
LINE
8
LINES
10
681.000000
20
588.000000
30
0.0
11
494.000000
21
588.000000
31
0.0
0
LINE
8
LINES
10
806.000000
20
56.000000
30
0.0
11
625.000000
21
56.000000
31
0.0
0
LINE
8
LINES
10
1008.000000
20
771.000000
30
0.0
11
828.000000
21
771.000000
31
0.0
0
LINE
8
LINES
10
668.000000
20
380.000000
30
0.0
11
846.000000
21
380.000000
31
0.0
0
LINE
8
LINES
10
497.000000
20
716.000000
30
0.0
11
321.000000
21
716.000000
31
0.0
0
LINE
8
LINES
10
129.000000
20
604.000000
30
0.0
11
302.000000
21
604.000000
31
0.0
0
LINE
8
LINES
10
673.000000
20
387.000000
30
0.0
11
846.000000
21
387.000000
31
0.0
0
LINE
8
LINES
10
310.000000
20
752.000000
30
0.0
11
478.000000
21
752.000000
31
0.0
0
LINE
8
LINES
10
321.000000
20
713.000000
30
0.0
11
491.000000
21
713.000000
31
0.0
0
LINE
8
LINES
10
854.000000
20
556.000000
30
0.0
11
1022.000000
21
556.000000
31
0.0
0
LINE
8
LINES
10
857.000000
20
601.000000
30
0.0
11
1022.000000
21
601.000000
31
0.0
0
LINE
8
LINES
10
852.000000
20
710.000000
30
0.0
11
1014.000000
21
710.000000
31
0.0
0
LINE
8
LINES
10
1012.000000
20
713.000000
30
0.0
11
852.000000
21
713.000000
31
0.0
0
LINE
8
LINES
10
851.000000
20
731.000000
30
0.0
11
1011.000000
21
731.000000
31
0.0
0
LINE
8
LINES
10
652.000000
20
936.000000
30
0.0
11
812.000000
21
936.000000
31
0.0
0
LINE
8
LINES
10
296.000000
20
382.000000
30
0.0
11
137.000000
21
382.000000
31
0.0
0
LINE
8
LINES
10
137.000000
20
387.000000
30
0.0
11
294.000000
21
387.000000
31
0.0
0
LINE
8
LINES
10
1009.000000
20
753.000000
30
0.0
11
852.000000
21
753.000000
31
0.0
0
LINE
8
LINES
10
854.000000
20
750.000000
30
0.0
11
1011.000000
21
750.000000
31
0.0
0
LINE
8
LINES
10
852.000000
20
769.000000
30
0.0
11
1008.000000
21
769.000000
31
0.0
0
LINE
8
LINES
10
838.000000
20
588.000000
30
0.0
11
684.000000
21
588.000000
31
0.0
0
LINE
8
LINES
10
1011.000000
20
734.000000
30
0.0
11
857.000000
21
734.000000
31
0.0
0
LINE
8
LINES
10
692.000000
20
190.000000
30
0.0
11
846.000000
21
190.000000
31
0.0
0
LINE
8
LINES
10
707.000000
20
865.000000
30
0.0
11
561.000000
21
851.000000
31
0.0
0
LINE
8
LINES
10
1001.000000
20
204.000000
30
0.0
11
854.000000
21
204.000000
31
0.0
0
LINE
8
LINES
10
838.000000
20
582.000000
30
0.0
11
696.000000
21
582.000000
31
0.0
0
LINE
8
LINES
10
382.000000
20
572.000000
30
0.0
11
524.000000
21
572.000000
31
0.0
0
LINE
8
LINES
10
982.000000
20
560.000000
30
0.0
11
844.000000
21
560.000000
31
0.0
0
LINE
8
LINES
10
854.000000
20
569.000000
30
0.0
11
992.000000
21
569.000000
31
0.0
0
LINE
8
LINES
10
123.000000
20
921.000000
30
0.0
11
257.000000
21
921.000000
31
0.0
0
LINE
8
LINES
10
985.000000
20
774.000000
30
0.0
11
985.000000
21
904.000000
31
0.0
0
LINE
8
LINES
10
308.000000
20
387.000000
30
0.0
11
438.000000
21
387.000000
31
0.0
0
LINE
8
LINES
10
937.000000
20
902.000000
30
0.0
11
937.000000
21
774.000000
31
0.0
0
LINE
8
LINES
10
848.000000
20
878.000000
30
0.0
11
721.000000
21
878.000000
31
0.0
0
LINE
8
LINES
10
721.000000
20
873.000000
30
0.0
11
846.000000
21
873.000000
31
0.0
0
LINE
8
LINES
10
438.000000
20
382.000000
30
0.0
11
312.000000
21
382.000000
31
0.0
0
LINE
8
LINES
10
878.000000
20
201.000000
30
0.0
11
998.000000
21
201.000000
31
0.0
0
LINE
8
LINES
10
153.000000
20
358.000000
30
0.0
11
273.000000
21
358.000000
31
0.0
0
LINE
8
LINES
10
507.000000
20
872.000000
30
0.0
11
385.000000
21
872.000000
31
0.0
0
LINE
8
LINES
10
110.000000
20
572.000000
30
0.0
11
230.000000
21
572.000000
31
0.0
0
LINE
8
LINES
10
190.000000
20
876.000000
30
0.0
11
308.000000
21
876.000000
31
0.0
0
LINE
8
LINES
10
995.000000
20
910.000000
30
0.0
11
878.000000
21
910.000000
31
0.0
0
LINE
8
LINES
10
30.000000
20
633.000000
30
0.0
11
64.000000
21
744.000000
31
0.0
0
LINE
8
LINES
10
184.000000
20
752.000000
30
0.0
11
299.000000
21
752.000000
31
0.0
0
LINE
8
LINES
10
886.000000
20
212.000000
30
0.0
11
998.000000
21
212.000000
31
0.0
0
LINE
8
LINES
10
688.000000
20
614.000000
30
0.0
11
798.000000
21
614.000000
31
0.0
0
LINE
8
LINES
10
195.000000
20
616.000000
30
0.0
11
307.000000
21
616.000000
31
0.0
0
LINE
8
LINES
10
339.000000
20
534.000000
30
0.0
11
230.000000
21
544.000000
31
0.0
0
LINE
8
LINES
10
304.000000
20
716.000000
30
0.0
11
195.000000
21
716.000000
31
0.0
0
LINE
8
LINES
10
798.000000
20
609.000000
30
0.0
11
689.000000
21
609.000000
31
0.0
0
LINE
8
LINES
10
304.000000
20
611.000000
30
0.0
11
195.000000
21
611.000000
31
0.0
0
LINE
8
LINES
10
526.000000
20
921.000000
30
0.0
11
526.000000
21
814.000000
31
0.0
0
LINE
8
LINES
10
195.000000
20
713.000000
30
0.0
11
302.000000
21
713.000000
31
0.0
0
LINE
8
LINES
10
740.000000
20
894.000000
30
0.0
11
848.000000
21
894.000000
31
0.0
0
LINE
8
LINES
10
107.000000
20
264.000000
30
0.0
11
1.000000
21
264.000000
31
0.0
0
LINE
8
LINES
10
307.000000
20
619.000000
30
0.0
11
201.000000
21
619.000000
31
0.0
0
LINE
8
LINES
10
105.000000
20
193.000000
30
0.0
11
1.000000
21
193.000000
31
0.0
0
LINE
8
LINES
10
780.000000
20
390.000000
30
0.0
11
675.000000
21
390.000000
31
0.0
0
LINE
8
LINES
10
1.000000
20
190.000000
30
0.0
11
102.000000
21
190.000000
31
0.0
0
LINE
8
LINES
10
793.000000
20
755.000000
30
0.0
11
692.000000
21
755.000000
31
0.0
0
LINE
8
LINES
10
8.000000
20
561.000000
30
0.0
11
107.000000
21
561.000000
31
0.0
0
LINE
8
LINES
10
694.000000
20
771.000000
30
0.0
11
793.000000
21
771.000000
31
0.0
0
LINE
8
LINES
10
211.000000
20
892.000000
30
0.0
11
113.000000
21
892.000000
31
0.0
0
LINE
8
LINES
10
286.000000
20
873.000000
30
0.0
11
190.000000
21
873.000000
31
0.0
0
LINE
8
LINES
10
820.000000
20
57.000000
30
0.0
11
915.000000
21
57.000000
31
0.0
0
LINE
8
LINES
10
204.000000
20
771.000000
30
0.0
11
299.000000
21
771.000000
31
0.0
0
LINE
8
LINES
10
580.000000
20
572.000000
30
0.0
11
673.000000
21
572.000000
31
0.0
0
LINE
8
LINES
10
294.000000
20
755.000000
30
0.0
11
201.000000
21
755.000000
31
0.0
0
LINE
8
LINES
10
537.000000
20
913.000000
30
0.0
11
630.000000
21
913.000000
31
0.0
0
LINE
8
LINES
10
566.000000
20
939.000000
30
0.0
11
657.000000
21
939.000000
31
0.0
0
LINE
8
LINES
10
208.000000
20
692.000000
30
0.0
11
300.000000
21
692.000000
31
0.0
0
LINE
8
LINES
10
195.000000
20
870.000000
30
0.0
11
288.000000
21
870.000000
31
0.0
0
LINE
8
LINES
10
846.000000
20
897.000000
30
0.0
11
753.000000
21
897.000000
31
0.0
0
LINE
8
LINES
10
299.000000
20
774.000000
30
0.0
11
206.000000
21
774.000000
31
0.0
0
LINE
8
LINES
10
505.000000
20
755.000000
30
0.0
11
412.000000
21
755.000000
31
0.0
0
LINE
8
LINES
10
817.000000
20
929.000000
30
0.0
11
908.000000
21
929.000000
31
0.0
0
LINE
8
LINES
10
628.000000
20
921.000000
30
0.0
11
537.000000
21
921.000000
31
0.0
0
LINE
8
LINES
10
945.000000
20
614.000000
30
0.0
11
854.000000
21
614.000000
31
0.0
0
LINE
8
LINES
10
145.000000
20
862.000000
30
0.0
11
228.000000
21
897.000000
31
0.0
0
LINE
8
LINES
10
854.000000
20
611.000000
30
0.0
11
944.000000
21
611.000000
31
0.0
0
LINE
8
LINES
10
808.000000
20
924.000000
30
0.0
11
718.000000
21
924.000000
31
0.0
0
LINE
8
LINES
10
900.000000
20
404.000000
30
0.0
11
988.000000
21
404.000000
31
0.0
0
LINE
8
LINES
10
337.000000
20
870.000000
30
0.0
11
427.000000
21
870.000000
31
0.0
0
LINE
8
LINES
10
848.000000
20
900.000000
30
0.0
11
758.000000
21
900.000000
31
0.0
0
LINE
8
LINES
10
828.000000
20
776.000000
30
0.0
11
828.000000
21
862.000000
31
0.0
0
LINE
8
LINES
10
622.000000
20
363.000000
30
0.0
11
536.000000
21
363.000000
31
0.0
0
LINE
8
LINES
10
945.000000
20
606.000000
30
0.0
11
857.000000
21
606.000000
31
0.0
0
LINE
8
LINES
10
942.000000
20
902.000000
30
0.0
11
942.000000
21
814.000000
31
0.0
0
LINE
8
LINES
10
97.000000
20
563.000000
30
0.0
11
9.000000
21
563.000000
31
0.0
0
LINE
8
LINES
10
88.000000
20
246.000000
30
0.0
11
1.000000
21
246.000000
31
0.0
0
LINE
8
LINES
10
788.000000
20
862.000000
30
0.0
11
788.000000
21
776.000000
31
0.0
0
LINE
8
LINES
10
617.000000
20
531.000000
30
0.0
11
531.000000
21
542.000000
31
0.0
0
LINE
8
LINES
10
937.000000
20
817.000000
30
0.0
11
937.000000
21
902.000000
31
0.0
0
LINE
8
LINES
10
585.000000
20
771.000000
30
0.0
11
672.000000
21
771.000000
31
0.0
0
LINE
8
LINES
10
1022.000000
20
585.000000
30
0.0
11
936.000000
21
585.000000
31
0.0
0
LINE
8
LINES
10
912.000000
20
924.000000
30
0.0
11
996.000000
21
924.000000
31
0.0
0
LINE
8
LINES
10
979.000000
20
433.000000
30
0.0
11
979.000000
21
518.000000
31
0.0
0
LINE
8
LINES
10
1.000000
20
257.000000
30
0.0
11
86.000000
21
257.000000
31
0.0
0
LINE
8
LINES
10
961.000000
20
579.000000
30
0.0
11
876.000000
21
579.000000
31
0.0
0
LINE
8
LINES
10
670.000000
20
859.000000
30
0.0
11
670.000000
21
774.000000
31
0.0
0
LINE
8
LINES
10
556.000000
20
854.000000
30
0.0
11
529.000000
21
934.000000
31
0.0
0
LINE
8
LINES
10
350.000000
20
251.000000
30
0.0
11
433.000000
21
251.000000
31
0.0
0
LINE
8
LINES
10
782.000000
20
774.000000
30
0.0
11
699.000000
21
774.000000
31
0.0
0
LINE
8
LINES
10
83.000000
20
216.000000
30
0.0
11
1.000000
21
216.000000
31
0.0
0
LINE
8
LINES
10
974.000000
20
180.000000
30
0.0
11
891.000000
21
180.000000
31
0.0
0
LINE
8
LINES
10
508.000000
20
764.000000
30
0.0
11
592.000000
21
764.000000
31
0.0
0
LINE
8
LINES
10
787.000000
20
529.000000
30
0.0
11
787.000000
21
446.000000
31
0.0
0
LINE
8
LINES
10
134.000000
20
252.000000
30
0.0
11
217.000000
21
252.000000
31
0.0
0
LINE
8
LINES
10
214.000000
20
777.000000
30
0.0
11
214.000000
21
859.000000
31
0.0
0
LINE
8
LINES
10
337.000000
20
777.000000
30
0.0
11
337.000000
21
859.000000
31
0.0
0
LINE
8
LINES
10
1.000000
20
406.000000
30
0.0
11
83.000000
21
406.000000
31
0.0
0
LINE
8
LINES
10
502.000000
20
614.000000
30
0.0
11
585.000000
21
614.000000
31
0.0
0
LINE
8
LINES
10
411.000000
20
614.000000
30
0.0
11
492.000000
21
614.000000
31
0.0
0
LINE
8
LINES
10
595.000000
20
614.000000
30
0.0
11
678.000000
21
614.000000
31
0.0
0
LINE
8
LINES
10
937.000000
20
259.000000
30
0.0
11
856.000000
21
259.000000
31
0.0
0
LINE
8
LINES
10
856.000000
20
257.000000
30
0.0
11
937.000000
21
257.000000
31
0.0
0
LINE
8
LINES
10
83.000000
20
49.000000
30
0.0
11
1.000000
21
49.000000
31
0.0
0
LINE
8
LINES
10
668.000000
20
529.000000
30
0.0
11
668.000000
21
448.000000
31
0.0
0
LINE
8
LINES
10
577.000000
20
529.000000
30
0.0
11
577.000000
21
448.000000
31
0.0
0
LINE
8
LINES
10
931.000000
20
352.000000
30
0.0
11
931.000000
21
270.000000
31
0.0
0
LINE
8
LINES
10
444.000000
20
249.000000
30
0.0
11
526.000000
21
249.000000
31
0.0
0
LINE
8
LINES
10
257.000000
20
251.000000
30
0.0
11
337.000000
21
251.000000
31
0.0
0
LINE
8
LINES
10
539.000000
20
252.000000
30
0.0
11
620.000000
21
252.000000
31
0.0
0
LINE
8
LINES
10
612.000000
20
448.000000
30
0.0
11
612.000000
21
529.000000
31
0.0
0
LINE
8
LINES
10
827.000000
20
448.000000
30
0.0
11
827.000000
21
529.000000
31
0.0
0
LINE
8
LINES
10
1.000000
20
220.000000
30
0.0
11
81.000000
21
220.000000
31
0.0
0
LINE
8
LINES
10
1.000000
20
430.000000
30
0.0
11
81.000000
21
430.000000
31
0.0
0
LINE
8
LINES
10
318.000000
20
614.000000
30
0.0
11
398.000000
21
614.000000
31
0.0
0
LINE
8
LINES
10
398.000000
20
619.000000
30
0.0
11
318.000000
21
619.000000
31
0.0
0
LINE
8
LINES
10
584.000000
20
611.000000
30
0.0
11
502.000000
21
611.000000
31
0.0
0
LINE
8
LINES
10
491.000000
20
611.000000
30
0.0
11
409.000000
21
611.000000
31
0.0
0
LINE
8
LINES
10
129.000000
20
176.000000
30
0.0
11
129.000000
21
94.000000
31
0.0
0
LINE
8
LINES
10
932.000000
20
521.000000
30
0.0
11
932.000000
21
441.000000
31
0.0
0
LINE
8
LINES
10
974.000000
20
270.000000
30
0.0
11
974.000000
21
350.000000
31
0.0
0
LINE
8
LINES
10
908.000000
20
428.000000
30
0.0
11
988.000000
21
428.000000
31
0.0
0
LINE
8
LINES
10
854.000000
20
691.000000
30
0.0
11
934.000000
21
691.000000
31
0.0
0
LINE
8
LINES
10
81.000000
20
435.000000
30
0.0
11
1.000000
21
435.000000
31
0.0
0
LINE
8
LINES
10
492.000000
20
619.000000
30
0.0
11
412.000000
21
619.000000
31
0.0
0
LINE
8
LINES
10
675.000000
20
611.000000
30
0.0
11
595.000000
21
611.000000
31
0.0
0
LINE
8
LINES
10
81.000000
20
92.000000
30
0.0
11
1.000000
21
92.000000
31
0.0
0
LINE
8
LINES
10
934.000000
20
585.000000
30
0.0
11
854.000000
21
585.000000
31
0.0
0
LINE
8
LINES
10
1.000000
20
547.000000
30
0.0
11
25.000000
21
622.000000
31
0.0
0
LINE
8
LINES
10
652.000000
20
932.000000
30
0.0
11
574.000000
21
932.000000
31
0.0
0
LINE
8
LINES
10
574.000000
20
924.000000
30
0.0
11
652.000000
21
924.000000
31
0.0
0
LINE
8
LINES
10
1.000000
20
43.000000
30
0.0
11
78.000000
21
43.000000
31
0.0
0
LINE
8
LINES
10
708.000000
20
694.000000
30
0.0
11
787.000000
21
694.000000
31
0.0
0
LINE
8
LINES
10
14.000000
20
281.000000
30
0.0
11
14.000000
21
358.000000
31
0.0
0
LINE
8
LINES
10
302.000000
20
857.000000
30
0.0
11
302.000000
21
779.000000
31
0.0
0
LINE
8
LINES
10
1.000000
20
201.000000
30
0.0
11
78.000000
21
201.000000
31
0.0
0
LINE
8
LINES
10
585.000000
20
619.000000
30
0.0
11
507.000000
21
619.000000
31
0.0
0
LINE
8
LINES
10
216.000000
20
697.000000
30
0.0
11
137.000000
21
697.000000
31
0.0
0
LINE
8
LINES
10
12.000000
20
448.000000
30
0.0
11
12.000000
21
526.000000
31
0.0
0
LINE
8
LINES
10
396.000000
20
611.000000
30
0.0
11
318.000000
21
611.000000
31
0.0
0
LINE
8
LINES
10
588.000000
20
755.000000
30
0.0
11
508.000000
21
755.000000
31
0.0
0
LINE
8
LINES
10
803.000000
20
32.000000
30
0.0
11
881.000000
21
32.000000
31
0.0
0
LINE
8
LINES
10
1.000000
20
268.000000
30
0.0
11
78.000000
21
268.000000
31
0.0
0
LINE
8
LINES
10
395.000000
20
857.000000
30
0.0
11
395.000000
21
779.000000
31
0.0
0
LINE
8
LINES
10
928.000000
20
635.000000
30
0.0
11
851.000000
21
635.000000
31
0.0
0
LINE
8
LINES
10
670.000000
20
755.000000
30
0.0
11
593.000000
21
755.000000
31
0.0
0
LINE
8
LINES
10
430.000000
20
830.000000
30
0.0
11
508.000000
21
830.000000
31
0.0
0
LINE
8
LINES
10
713.000000
20
256.000000
30
0.0
11
636.000000
21
256.000000
31
0.0
0
LINE
8
LINES
10
243.000000
20
225.000000
30
0.0
11
321.000000
21
225.000000
31
0.0
0
LINE
8
LINES
10
164.000000
20
387.000000
30
0.0
11
233.000000
21
422.000000
31
0.0
0
LINE
8
LINES
10
825.000000
20
281.000000
30
0.0
11
825.000000
21
358.000000
31
0.0
0
LINE
8
LINES
10
835.000000
20
254.000000
30
0.0
11
758.000000
21
254.000000
31
0.0
0
LINE
8
LINES
10
928.000000
20
654.000000
30
0.0
11
851.000000
21
654.000000
31
0.0
0
LINE
8
LINES
10
926.000000
20
675.000000
30
0.0
11
851.000000
21
675.000000
31
0.0
0
LINE
8
LINES
10
851.000000
20
651.000000
30
0.0
11
928.000000
21
651.000000
31
0.0
0
LINE
8
LINES
10
851.000000
20
632.000000
30
0.0
11
928.000000
21
632.000000
31
0.0
0
LINE
8
LINES
10
430.000000
20
849.000000
30
0.0
11
507.000000
21
849.000000
31
0.0
0
LINE
8
LINES
10
507.000000
20
833.000000
30
0.0
11
430.000000
21
833.000000
31
0.0
0
LINE
8
LINES
10
217.000000
20
254.000000
30
0.0
11
142.000000
21
254.000000
31
0.0
0
LINE
8
LINES
10
620.000000
20
254.000000
30
0.0
11
544.000000
21
254.000000
31
0.0
0
LINE
8
LINES
10
790.000000
20
356.000000
30
0.0
11
790.000000
21
281.000000
31
0.0
0
LINE
8
LINES
10
158.000000
20
910.000000
30
0.0
11
233.000000
21
910.000000
31
0.0
0
LINE
8
LINES
10
6.000000
20
438.000000
30
0.0
11
81.000000
21
438.000000
31
0.0
0
LINE
8
LINES
10
707.000000
20
619.000000
30
0.0
11
707.000000
21
694.000000
31
0.0
0
LINE
8
LINES
10
851.000000
20
672.000000
30
0.0
11
926.000000
21
672.000000
31
0.0
0
LINE
8
LINES
10
507.000000
20
851.000000
30
0.0
11
432.000000
21
851.000000
31
0.0
0
LINE
8
LINES
10
584.000000
20
849.000000
30
0.0
11
659.000000
21
849.000000
31
0.0
0
LINE
8
LINES
10
268.000000
20
273.000000
30
0.0
11
193.000000
21
273.000000
31
0.0
0
LINE
8
LINES
10
659.000000
20
832.000000
30
0.0
11
584.000000
21
832.000000
31
0.0
0
LINE
8
LINES
10
432.000000
20
811.000000
30
0.0
11
507.000000
21
811.000000
31
0.0
0
LINE
8
LINES
10
432.000000
20
868.000000
30
0.0
11
507.000000
21
868.000000
31
0.0
0
LINE
8
LINES
10
584.000000
20
830.000000
30
0.0
11
659.000000
21
830.000000
31
0.0
0
LINE
8
LINES
10
524.000000
20
254.000000
30
0.0
11
449.000000
21
254.000000
31
0.0
0
LINE
8
LINES
10
132.000000
20
531.000000
30
0.0
11
132.000000
21
457.000000
31
0.0
0
LINE
8
LINES
10
513.000000
20
532.000000
30
0.0
11
440.000000
21
542.000000
31
0.0
0
LINE
8
LINES
10
579.000000
20
694.000000
30
0.0
11
579.000000
21
620.000000
31
0.0
0
LINE
8
LINES
10
336.000000
20
920.000000
30
0.0
11
262.000000
21
920.000000
31
0.0
0
LINE
8
LINES
10
147.000000
20
531.000000
30
0.0
11
220.000000
21
531.000000
31
0.0
0
LINE
8
LINES
10
976.000000
20
616.000000
30
0.0
11
976.000000
21
689.000000
31
0.0
0
LINE
8
LINES
10
428.000000
20
776.000000
30
0.0
11
428.000000
21
849.000000
31
0.0
0
LINE
8
LINES
10
934.000000
20
689.000000
30
0.0
11
934.000000
21
616.000000
31
0.0
0
LINE
8
LINES
10
289.000000
20
851.000000
30
0.0
11
216.000000
21
851.000000
31
0.0
0
LINE
8
LINES
10
216.000000
20
849.000000
30
0.0
11
289.000000
21
849.000000
31
0.0
0
LINE
8
LINES
10
782.000000
20
619.000000
30
0.0
11
707.000000
21
619.000000
31
0.0
0
LINE
8
LINES
10
956.000000
20
209.000000
30
0.0
11
883.000000
21
209.000000
31
0.0
0
LINE
8
LINES
10
337.000000
20
254.000000
30
0.0
11
262.000000
21
254.000000
31
0.0
0
LINE
8
LINES
10
73.000000
20
204.000000
30
0.0
11
1.000000
21
204.000000
31
0.0
0
LINE
8
LINES
10
198.000000
20
569.000000
30
0.0
11
124.000000
21
569.000000
31
0.0
0
LINE
8
LINES
10
382.000000
20
387.000000
30
0.0
11
446.000000
21
420.000000
31
0.0
0
LINE
8
LINES
10
918.000000
20
102.000000
30
0.0
11
918.000000
21
176.000000
31
0.0
0
LINE
8
LINES
10
788.000000
20
691.000000
30
0.0
11
788.000000
21
619.000000
31
0.0
0
LINE
8
LINES
10
3.000000
20
531.000000
30
0.0
11
76.000000
21
531.000000
31
0.0
0
LINE
8
LINES
10
851.000000
20
110.000000
30
0.0
11
851.000000
21
182.000000
31
0.0
0
LINE
8
LINES
10
428.000000
20
619.000000
30
0.0
11
428.000000
21
691.000000
31
0.0
0
LINE
8
LINES
10
707.000000
20
790.000000
30
0.0
11
780.000000
21
790.000000
31
0.0
0
LINE
8
LINES
10
217.000000
20
675.000000
30
0.0
11
289.000000
21
675.000000
31
0.0
0
LINE
8
LINES
10
846.000000
20
368.000000
30
0.0
11
774.000000
21
368.000000
31
0.0
0
LINE
8
LINES
10
289.000000
20
795.000000
30
0.0
11
217.000000
21
795.000000
31
0.0
0
LINE
8
LINES
10
217.000000
20
654.000000
30
0.0
11
289.000000
21
654.000000
31
0.0
0
LINE
8
LINES
10
289.000000
20
657.000000
30
0.0
11
217.000000
21
657.000000
31
0.0
0
LINE
8
LINES
10
289.000000
20
678.000000
30
0.0
11
217.000000
21
678.000000
31
0.0
0
LINE
8
LINES
10
430.000000
20
254.000000
30
0.0
11
358.000000
21
254.000000
31
0.0
0
LINE
8
LINES
10
670.000000
20
356.000000
30
0.0
11
670.000000
21
284.000000
31
0.0
0
LINE
8
LINES
10
670.000000
20
691.000000
30
0.0
11
670.000000
21
620.000000
31
0.0
0
LINE
8
LINES
10
558.000000
20
856.000000
30
0.0
11
630.000000
21
856.000000
31
0.0
0
LINE
8
LINES
10
705.000000
20
286.000000
30
0.0
11
705.000000
21
356.000000
31
0.0
0
LINE
8
LINES
10
913.000000
20
353.000000
30
0.0
11
984.000000
21
353.000000
31
0.0
0
LINE
8
LINES
10
6.000000
20
358.000000
30
0.0
11
76.000000
21
358.000000
31
0.0
0
LINE
8
LINES
10
614.000000
20
620.000000
30
0.0
11
614.000000
21
691.000000
31
0.0
0
LINE
8
LINES
10
272.000000
20
264.000000
30
0.0
11
342.000000
21
264.000000
31
0.0
0
LINE
8
LINES
10
828.000000
20
619.000000
30
0.0
11
828.000000
21
691.000000
31
0.0
0
LINE
8
LINES
10
148.000000
20
264.000000
30
0.0
11
220.000000
21
264.000000
31
0.0
0
LINE
8
LINES
10
336.000000
20
619.000000
30
0.0
11
336.000000
21
691.000000
31
0.0
0
LINE
8
LINES
10
779.000000
20
638.000000
30
0.0
11
707.000000
21
638.000000
31
0.0
0
LINE
8
LINES
10
217.000000
20
635.000000
30
0.0
11
288.000000
21
635.000000
31
0.0
0
LINE
8
LINES
10
707.000000
20
635.000000
30
0.0
11
779.000000
21
635.000000
31
0.0
0
LINE
8
LINES
10
364.000000
20
264.000000
30
0.0
11
435.000000
21
264.000000
31
0.0
0
LINE
8
LINES
10
985.000000
20
355.000000
30
0.0
11
913.000000
21
355.000000
31
0.0
0
LINE
8
LINES
10
217.000000
20
811.000000
30
0.0
11
288.000000
21
811.000000
31
0.0
0
LINE
8
LINES
10
288.000000
20
638.000000
30
0.0
11
217.000000
21
638.000000
31
0.0
0
LINE
8
LINES
10
288.000000
20
833.000000
30
0.0
11
217.000000
21
833.000000
31
0.0
0
LINE
8
LINES
10
217.000000
20
830.000000
30
0.0
11
288.000000
21
830.000000
31
0.0
0
LINE
8
LINES
10
918.000000
20
424.000000
30
0.0
11
988.000000
21
424.000000
31
0.0
0
LINE
8
LINES
10
696.000000
20
400.000000
30
0.0
11
766.000000
21
400.000000
31
0.0
0
LINE
8
LINES
10
571.000000
20
358.000000
30
0.0
11
571.000000
21
286.000000
31
0.0
0
LINE
8
LINES
10
883.000000
20
35.000000
30
0.0
11
812.000000
21
35.000000
31
0.0
0
LINE
8
LINES
10
305.000000
20
356.000000
30
0.0
11
299.000000
21
286.000000
31
0.0
0
LINE
8
LINES
10
396.000000
20
356.000000
30
0.0
11
390.000000
21
286.000000
31
0.0
0
LINE
8
LINES
10
923.000000
20
694.000000
30
0.0
11
852.000000
21
694.000000
31
0.0
0
LINE
8
LINES
10
708.000000
20
654.000000
30
0.0
11
779.000000
21
654.000000
31
0.0
0
LINE
8
LINES
10
708.000000
20
675.000000
30
0.0
11
779.000000
21
675.000000
31
0.0
0
LINE
8
LINES
10
852.000000
20
848.000000
30
0.0
11
923.000000
21
848.000000
31
0.0
0
LINE
8
LINES
10
779.000000
20
678.000000
30
0.0
11
708.000000
21
678.000000
31
0.0
0
LINE
8
LINES
10
457.000000
20
264.000000
30
0.0
11
528.000000
21
264.000000
31
0.0
0
LINE
8
LINES
10
288.000000
20
814.000000
30
0.0
11
217.000000
21
814.000000
31
0.0
0
LINE
8
LINES
10
779.000000
20
657.000000
30
0.0
11
708.000000
21
657.000000
31
0.0
0
LINE
8
LINES
10
915.000000
20
174.000000
30
0.0
11
915.000000
21
104.000000
31
0.0
0
LINE
8
LINES
10
758.000000
20
273.000000
30
0.0
11
688.000000
21
273.000000
31
0.0
0
LINE
8
LINES
10
217.000000
20
792.000000
30
0.0
11
286.000000
21
792.000000
31
0.0
0
LINE
8
LINES
10
988.000000
20
425.000000
30
0.0
11
918.000000
21
425.000000
31
0.0
0
LINE
8
LINES
10
454.000000
20
257.000000
30
0.0
11
524.000000
21
257.000000
31
0.0
0
LINE
8
LINES
10
70.000000
20
99.000000
30
0.0
11
1.000000
21
99.000000
31
0.0
0
LINE
8
LINES
10
480.000000
20
387.000000
30
0.0
11
540.000000
21
422.000000
31
0.0
0
LINE
8
LINES
10
480.000000
20
355.000000
30
0.0
11
480.000000
21
286.000000
31
0.0
0
LINE
8
LINES
10
923.000000
20
811.000000
30
0.0
11
854.000000
21
811.000000
31
0.0
0
LINE
8
LINES
10
921.000000
20
792.000000
30
0.0
11
852.000000
21
792.000000
31
0.0
0
LINE
8
LINES
10
923.000000
20
849.000000
30
0.0
11
854.000000
21
849.000000
31
0.0
0
LINE
8
LINES
10
852.000000
20
788.000000
30
0.0
11
921.000000
21
788.000000
31
0.0
0
LINE
8
LINES
10
923.000000
20
830.000000
30
0.0
11
854.000000
21
830.000000
31
0.0
0
LINE
8
LINES
10
852.000000
20
809.000000
30
0.0
11
921.000000
21
809.000000
31
0.0
0
LINE
8
LINES
10
854.000000
20
828.000000
30
0.0
11
923.000000
21
828.000000
31
0.0
0
LINE
8
LINES
10
984.000000
20
361.000000
30
0.0
11
915.000000
21
361.000000
31
0.0
0
LINE
8
LINES
10
854.000000
20
873.000000
30
0.0
11
923.000000
21
873.000000
31
0.0
0
LINE
8
LINES
10
432.000000
20
260.000000
30
0.0
11
363.000000
21
260.000000
31
0.0
0
LINE
8
LINES
10
854.000000
20
867.000000
30
0.0
11
923.000000
21
867.000000
31
0.0
0
LINE
8
LINES
10
43.000000
20
353.000000
30
0.0
11
43.000000
21
284.000000
31
0.0
0
LINE
8
LINES
10
395.000000
20
190.000000
30
0.0
11
395.000000
21
123.000000
31
0.0
0
LINE
8
LINES
10
521.000000
20
462.000000
30
0.0
11
521.000000
21
529.000000
31
0.0
0
LINE
8
LINES
10
702.000000
20
121.000000
30
0.0
11
702.000000
21
188.000000
31
0.0
0
LINE
8
LINES
10
368.000000
20
358.000000
30
0.0
11
435.000000
21
358.000000
31
0.0
0
LINE
8
LINES
10
705.000000
20
462.000000
30
0.0
11
705.000000
21
529.000000
31
0.0
0
LINE
8
LINES
10
388.000000
20
755.000000
30
0.0
11
321.000000
21
755.000000
31
0.0
0
LINE
8
LINES
10
393.000000
20
774.000000
30
0.0
11
326.000000
21
774.000000
31
0.0
0
LINE
8
LINES
10
899.000000
20
105.000000
30
0.0
11
899.000000
21
172.000000
31
0.0
0
LINE
8
LINES
10
659.000000
20
812.000000
30
0.0
11
592.000000
21
812.000000
31
0.0
0
LINE
8
LINES
10
643.000000
20
262.000000
30
0.0
11
712.000000
21
262.000000
31
0.0
0
LINE
8
LINES
10
337.000000
20
260.000000
30
0.0
11
270.000000
21
260.000000
31
0.0
0
LINE
8
LINES
10
216.000000
20
260.000000
30
0.0
11
147.000000
21
260.000000
31
0.0
0
LINE
8
LINES
10
710.000000
20
260.000000
30
0.0
11
643.000000
21
260.000000
31
0.0
0
LINE
8
LINES
10
524.000000
20
260.000000
30
0.0
11
457.000000
21
260.000000
31
0.0
0
LINE
8
LINES
10
921.000000
20
868.000000
30
0.0
11
854.000000
21
868.000000
31
0.0
0
LINE
8
LINES
10
268.000000
20
257.000000
30
0.0
11
337.000000
21
257.000000
31
0.0
0
LINE
8
LINES
10
486.000000
20
188.000000
30
0.0
11
486.000000
21
123.000000
31
0.0
0
LINE
8
LINES
10
577.000000
20
188.000000
30
0.0
11
577.000000
21
123.000000
31
0.0
0
LINE
8
LINES
10
787.000000
20
188.000000
30
0.0
11
787.000000
21
121.000000
31
0.0
0
LINE
8
LINES
10
668.000000
20
188.000000
30
0.0
11
668.000000
21
123.000000
31
0.0
0
LINE
8
LINES
10
825.000000
20
121.000000
30
0.0
11
825.000000
21
188.000000
31
0.0
0
LINE
8
LINES
10
275.000000
20
358.000000
30
0.0
11
342.000000
21
358.000000
31
0.0
0
LINE
8
LINES
10
336.000000
20
464.000000
30
0.0
11
336.000000
21
531.000000
31
0.0
0
LINE
8
LINES
10
417.000000
20
771.000000
30
0.0
11
483.000000
21
771.000000
31
0.0
0
LINE
8
LINES
10
531.000000
20
361.000000
30
0.0
11
464.000000
21
361.000000
31
0.0
0
LINE
8
LINES
10
716.000000
20
361.000000
30
0.0
11
651.000000
21
361.000000
31
0.0
0
LINE
8
LINES
10
836.000000
20
361.000000
30
0.0
11
771.000000
21
361.000000
31
0.0
0
LINE
8
LINES
10
326.000000
20
771.000000
30
0.0
11
392.000000
21
771.000000
31
0.0
0
LINE
8
LINES
10
592.000000
20
809.000000
30
0.0
11
657.000000
21
809.000000
31
0.0
0
LINE
8
LINES
10
377.000000
20
462.000000
30
0.0
11
377.000000
21
529.000000
31
0.0
0
LINE
8
LINES
10
284.000000
20
462.000000
30
0.0
11
284.000000
21
529.000000
31
0.0
0
LINE
8
LINES
10
956.000000
20
611.000000
30
0.0
11
1022.000000
21
611.000000
31
0.0
0
LINE
8
LINES
10
659.000000
20
793.000000
30
0.0
11
593.000000
21
793.000000
31
0.0
0
LINE
8
LINES
10
550.000000
20
264.000000
30
0.0
11
617.000000
21
264.000000
31
0.0
0
LINE
8
LINES
10
915.000000
20
358.000000
30
0.0
11
982.000000
21
358.000000
31
0.0
0
LINE
8
LINES
10
361.000000
20
257.000000
30
0.0
11
428.000000
21
257.000000
31
0.0
0
LINE
8
LINES
10
710.000000
20
536.000000
30
0.0
11
646.000000
21
536.000000
31
0.0
0
LINE
8
LINES
10
553.000000
20
361.000000
30
0.0
11
619.000000
21
361.000000
31
0.0
0
LINE
8
LINES
10
929.000000
20
176.000000
30
0.0
11
929.000000
21
110.000000
31
0.0
0
LINE
8
LINES
10
531.000000
20
366.000000
30
0.0
11
465.000000
21
366.000000
31
0.0
0
LINE
8
LINES
10
593.000000
20
790.000000
30
0.0
11
657.000000
21
790.000000
31
0.0
0
LINE
8
LINES
10
1022.000000
20
606.000000
30
0.0
11
956.000000
21
606.000000
31
0.0
0
LINE
8
LINES
10
576.000000
20
768.000000
30
0.0
11
510.000000
21
768.000000
31
0.0
0
LINE
8
LINES
10
764.000000
20
403.000000
30
0.0
11
699.000000
21
403.000000
31
0.0
0
LINE
8
LINES
10
217.000000
20
537.000000
30
0.0
11
153.000000
21
537.000000
31
0.0
0
LINE
8
LINES
10
233.000000
20
934.000000
30
0.0
11
171.000000
21
934.000000
31
0.0
0
LINE
8
LINES
10
420.000000
20
921.000000
30
0.0
11
483.000000
21
921.000000
31
0.0
0
LINE
8
LINES
10
470.000000
20
462.000000
30
0.0
11
470.000000
21
526.000000
31
0.0
0
LINE
8
LINES
10
494.000000
20
795.000000
30
0.0
11
430.000000
21
795.000000
31
0.0
0
LINE
8
LINES
10
329.000000
20
694.000000
30
0.0
11
393.000000
21
694.000000
31
0.0
0
LINE
8
LINES
10
1.000000
20
67.000000
30
0.0
11
64.000000
21
67.000000
31
0.0
0
LINE
8
LINES
10
662.000000
20
619.000000
30
0.0
11
598.000000
21
619.000000
31
0.0
0
LINE
8
LINES
10
926.000000
20
456.000000
30
0.0
11
926.000000
21
518.000000
31
0.0
0
LINE
8
LINES
10
432.000000
20
539.000000
30
0.0
11
369.000000
21
532.000000
31
0.0
0
LINE
8
LINES
10
723.000000
20
894.000000
30
0.0
11
662.000000
21
894.000000
31
0.0
0
LINE
8
LINES
10
214.000000
20
468.000000
30
0.0
11
214.000000
21
531.000000
31
0.0
0
LINE
8
LINES
10
881.000000
20
52.000000
30
0.0
11
819.000000
21
52.000000
31
0.0
0
LINE
8
LINES
10
342.000000
20
361.000000
30
0.0
11
278.000000
21
361.000000
31
0.0
0
LINE
8
LINES
10
432.000000
20
790.000000
30
0.0
11
494.000000
21
790.000000
31
0.0
0
LINE
8
LINES
10
846.000000
20
870.000000
30
0.0
11
785.000000
21
870.000000
31
0.0
0
LINE
8
LINES
10
771.000000
20
364.000000
30
0.0
11
833.000000
21
364.000000
31
0.0
0
LINE
8
LINES
10
62.000000
20
62.000000
30
0.0
11
1.000000
21
62.000000
31
0.0
0
LINE
8
LINES
10
833.000000
20
532.000000
30
0.0
11
771.000000
21
532.000000
31
0.0
0
LINE
8
LINES
10
48.000000
20
22.000000
30
0.0
11
110.000000
21
22.000000
31
0.0
0
LINE
8
LINES
10
78.000000
20
200.000000
30
0.0
11
132.000000
21
230.000000
31
0.0
0
LINE
8
LINES
10
54.000000
20
707.000000
30
0.0
11
115.000000
21
707.000000
31
0.0
0
LINE
8
LINES
10
433.000000
20
361.000000
30
0.0
11
371.000000
21
361.000000
31
0.0
0
LINE
8
LINES
10
219.000000
20
361.000000
30
0.0
11
158.000000
21
361.000000
31
0.0
0
LINE
8
LINES
10
1022.000000
20
257.000000
30
0.0
11
961.000000
21
257.000000
31
0.0
0
LINE
8
LINES
10
817.000000
20
51.000000
30
0.0
11
878.000000
21
51.000000
31
0.0
0
LINE
8
LINES
10
1.000000
20
56.000000
30
0.0
11
62.000000
21
56.000000
31
0.0
0
LINE
8
LINES
10
579.000000
20
390.000000
30
0.0
11
632.000000
21
420.000000
31
0.0
0
LINE
8
LINES
10
283.000000
20
529.000000
30
0.0
11
283.000000
21
468.000000
31
0.0
0
LINE
8
LINES
10
24.000000
20
396.000000
30
0.0
11
83.000000
21
396.000000
31
0.0
0
LINE
8
LINES
10
620.000000
20
377.000000
30
0.0
11
561.000000
21
377.000000
31
0.0
0
LINE
8
LINES
10
718.000000
20
849.000000
30
0.0
11
779.000000
21
849.000000
31
0.0
0
LINE
8
LINES
10
433.000000
20
368.000000
30
0.0
11
374.000000
21
368.000000
31
0.0
0
LINE
8
LINES
10
780.000000
20
851.000000
30
0.0
11
721.000000
21
851.000000
31
0.0
0
LINE
8
LINES
10
915.000000
20
267.000000
30
0.0
11
856.000000
21
267.000000
31
0.0
0
LINE
8
LINES
10
467.000000
20
363.000000
30
0.0
11
526.000000
21
363.000000
31
0.0
0
LINE
8
LINES
10
814.000000
20
44.000000
30
0.0
11
873.000000
21
44.000000
31
0.0
0
LINE
8
LINES
10
856.000000
20
304.000000
30
0.0
11
915.000000
21
304.000000
31
0.0
0
LINE
8
LINES
10
915.000000
20
305.000000
30
0.0
11
856.000000
21
305.000000
31
0.0
0
LINE
8
LINES
10
856.000000
20
297.000000
30
0.0
11
915.000000
21
297.000000
31
0.0
0
LINE
8
LINES
10
508.000000
20
771.000000
30
0.0
11
569.000000
21
771.000000
31
0.0
0
LINE
8
LINES
10
915.000000
20
286.000000
30
0.0
11
856.000000
21
286.000000
31
0.0
0
LINE
8
LINES
10
833.000000
20
188.000000
30
0.0
11
833.000000
21
128.000000
31
0.0
0
LINE
8
LINES
10
947.000000
20
566.000000
30
0.0
11
886.000000
21
566.000000
31
0.0
0
LINE
8
LINES
10
510.000000
20
876.000000
30
0.0
11
510.000000
21
817.000000
31
0.0
0
LINE
8
LINES
10
643.000000
20
875.000000
30
0.0
11
702.000000
21
875.000000
31
0.0
0
LINE
8
LINES
10
427.000000
20
694.000000
30
0.0
11
486.000000
21
694.000000
31
0.0
0
LINE
8
LINES
10
305.000000
20
190.000000
30
0.0
11
305.000000
21
131.000000
31
0.0
0
LINE
8
LINES
10
220.000000
20
467.000000
30
0.0
11
220.000000
21
526.000000
31
0.0
0
LINE
8
LINES
10
185.000000
20
190.000000
30
0.0
11
185.000000
21
131.000000
31
0.0
0
LINE
8
LINES
10
113.000000
20
708.000000
30
0.0
11
56.000000
21
708.000000
31
0.0
0
LINE
8
LINES
10
219.000000
20
368.000000
30
0.0
11
161.000000
21
368.000000
31
0.0
0
LINE
8
LINES
10
777.000000
20
571.000000
30
0.0
11
836.000000
21
571.000000
31
0.0
0
LINE
8
LINES
10
721.000000
20
867.000000
30
0.0
11
780.000000
21
867.000000
31
0.0
0
LINE
8
LINES
10
780.000000
20
870.000000
30
0.0
11
721.000000
21
870.000000
31
0.0
0
LINE
8
LINES
10
913.000000
20
280.000000
30
0.0
11
856.000000
21
280.000000
31
0.0
0
LINE
8
LINES
10
856.000000
20
264.000000
30
0.0
11
913.000000
21
264.000000
31
0.0
0
LINE
8
LINES
10
856.000000
20
278.000000
30
0.0
11
913.000000
21
278.000000
31
0.0
0
LINE
8
LINES
10
913.000000
20
326.000000
30
0.0
11
856.000000
21
326.000000
31
0.0
0
LINE
8
LINES
10
878.000000
20
48.000000
30
0.0
11
819.000000
21
48.000000
31
0.0
0
LINE
8
LINES
10
856.000000
20
284.000000
30
0.0
11
913.000000
21
284.000000
31
0.0
0
LINE
8
LINES
10
856.000000
20
316.000000
30
0.0
11
913.000000
21
316.000000
31
0.0
0
LINE
8
LINES
10
913.000000
20
318.000000
30
0.0
11
856.000000
21
318.000000
31
0.0
0
LINE
8
LINES
10
913.000000
20
345.000000
30
0.0
11
856.000000
21
345.000000
31
0.0
0
LINE
8
LINES
10
302.000000
20
531.000000
30
0.0
11
302.000000
21
473.000000
31
0.0
0
LINE
8
LINES
10
272.000000
20
910.000000
30
0.0
11
329.000000
21
910.000000
31
0.0
0
LINE
8
LINES
10
337.000000
20
120.000000
30
0.0
11
278.000000
21
120.000000
31
0.0
0
LINE
8
LINES
10
654.000000
20
889.000000
30
0.0
11
712.000000
21
889.000000
31
0.0
0
LINE
8
LINES
10
780.000000
20
793.000000
30
0.0
11
723.000000
21
793.000000
31
0.0
0
LINE
8
LINES
10
131.000000
20
772.000000
30
0.0
11
131.000000
21
716.000000
31
0.0
0
LINE
8
LINES
10
856.000000
20
323.000000
30
0.0
11
913.000000
21
323.000000
31
0.0
0
LINE
8
LINES
10
856.000000
20
342.000000
30
0.0
11
913.000000
21
342.000000
31
0.0
0
LINE
8
LINES
10
161.000000
20
529.000000
30
0.0
11
161.000000
21
472.000000
31
0.0
0
LINE
8
LINES
10
115.000000
20
601.000000
30
0.0
11
115.000000
21
657.000000
31
0.0
0
LINE
8
LINES
10
856.000000
20
374.000000
30
0.0
11
913.000000
21
374.000000
31
0.0
0
LINE
8
LINES
10
913.000000
20
339.000000
30
0.0
11
856.000000
21
339.000000
31
0.0
0
LINE
8
LINES
10
856.000000
20
336.000000
30
0.0
11
913.000000
21
336.000000
31
0.0
0
LINE
8
LINES
10
936.000000
20
523.000000
30
0.0
11
992.000000
21
523.000000
31
0.0
0
LINE
8
LINES
10
915.000000
20
177.000000
30
0.0
11
972.000000
21
177.000000
31
0.0
0
LINE
8
LINES
10
768.000000
20
358.000000
30
0.0
11
824.000000
21
358.000000
31
0.0
0
LINE
8
LINES
10
468.000000
20
702.000000
30
0.0
11
526.000000
21
702.000000
31
0.0
0
LINE
8
LINES
10
974.000000
20
400.000000
30
0.0
11
918.000000
21
400.000000
31
0.0
0
LINE
8
LINES
10
979.000000
20
246.000000
30
0.0
11
923.000000
21
246.000000
31
0.0
0
LINE
8
LINES
10
264.000000
20
403.000000
30
0.0
11
208.000000
21
403.000000
31
0.0
0
LINE
8
LINES
10
294.000000
20
188.000000
30
0.0
11
294.000000
21
132.000000
31
0.0
0
LINE
8
LINES
10
923.000000
20
243.000000
30
0.0
11
979.000000
21
243.000000
31
0.0
0
LINE
8
LINES
10
256.000000
20
569.000000
30
0.0
11
312.000000
21
569.000000
31
0.0
0
LINE
8
LINES
10
928.000000
20
774.000000
30
0.0
11
982.000000
21
774.000000
31
0.0
0
LINE
8
LINES
10
563.000000
20
702.000000
30
0.0
11
617.000000
21
702.000000
31
0.0
0
LINE
8
LINES
10
377.000000
20
702.000000
30
0.0
11
432.000000
21
702.000000
31
0.0
0
LINE
8
LINES
10
776.000000
20
702.000000
30
0.0
11
830.000000
21
702.000000
31
0.0
0
LINE
8
LINES
10
713.000000
20
115.000000
30
0.0
11
769.000000
21
115.000000
31
0.0
0
LINE
8
LINES
10
616.000000
20
707.000000
30
0.0
11
561.000000
21
707.000000
31
0.0
0
LINE
8
LINES
10
769.000000
20
124.000000
30
0.0
11
713.000000
21
124.000000
31
0.0
0
LINE
8
LINES
10
513.000000
20
776.000000
30
0.0
11
569.000000
21
776.000000
31
0.0
0
LINE
8
LINES
10
716.000000
20
502.000000
30
0.0
11
771.000000
21
502.000000
31
0.0
0
LINE
8
LINES
10
281.000000
20
305.000000
30
0.0
11
225.000000
21
305.000000
31
0.0
0
LINE
8
LINES
10
707.000000
20
406.000000
30
0.0
11
763.000000
21
406.000000
31
0.0
0
LINE
8
LINES
10
716.000000
20
476.000000
30
0.0
11
771.000000
21
476.000000
31
0.0
0
LINE
8
LINES
10
910.000000
20
364.000000
30
0.0
11
856.000000
21
364.000000
31
0.0
0
LINE
8
LINES
10
771.000000
20
312.000000
30
0.0
11
716.000000
21
312.000000
31
0.0
0
LINE
8
LINES
10
771.000000
20
350.000000
30
0.0
11
716.000000
21
350.000000
31
0.0
0
LINE
8
LINES
10
769.000000
20
180.000000
30
0.0
11
713.000000
21
180.000000
31
0.0
0
LINE
8
LINES
10
977.000000
20
240.000000
30
0.0
11
923.000000
21
240.000000
31
0.0
0
LINE
8
LINES
10
716.000000
20
321.000000
30
0.0
11
771.000000
21
321.000000
31
0.0
0
LINE
8
LINES
10
641.000000
20
257.000000
30
0.0
11
697.000000
21
257.000000
31
0.0
0
LINE
8
LINES
10
771.000000
20
292.000000
30
0.0
11
716.000000
21
292.000000
31
0.0
0
LINE
8
LINES
10
713.000000
20
177.000000
30
0.0
11
769.000000
21
177.000000
31
0.0
0
LINE
8
LINES
10
521.000000
20
619.000000
30
0.0
11
521.000000
21
673.000000
31
0.0
0
LINE
8
LINES
10
60.000000
20
723.000000
30
0.0
11
113.000000
21
723.000000
31
0.0
0
LINE
8
LINES
10
656.000000
20
702.000000
30
0.0
11
708.000000
21
702.000000
31
0.0
0
LINE
8
LINES
10
977.000000
20
696.000000
30
0.0
11
923.000000
21
696.000000
31
0.0
0
LINE
8
LINES
10
768.000000
20
107.000000
30
0.0
11
713.000000
21
107.000000
31
0.0
0
LINE
8
LINES
10
726.000000
20
830.000000
30
0.0
11
780.000000
21
830.000000
31
0.0
0
LINE
8
LINES
10
780.000000
20
832.000000
30
0.0
11
726.000000
21
832.000000
31
0.0
0
LINE
8
LINES
10
768.000000
20
120.000000
30
0.0
11
713.000000
21
120.000000
31
0.0
0
LINE
8
LINES
10
278.000000
20
286.000000
30
0.0
11
225.000000
21
286.000000
31
0.0
0
LINE
8
LINES
10
278.000000
20
323.000000
30
0.0
11
225.000000
21
323.000000
31
0.0
0
LINE
8
LINES
10
716.000000
20
513.000000
30
0.0
11
769.000000
21
513.000000
31
0.0
0
LINE
8
LINES
10
771.000000
20
286.000000
30
0.0
11
716.000000
21
286.000000
31
0.0
0
LINE
8
LINES
10
716.000000
20
340.000000
30
0.0
11
771.000000
21
340.000000
31
0.0
0
LINE
8
LINES
10
278.000000
20
312.000000
30
0.0
11
225.000000
21
312.000000
31
0.0
0
LINE
8
LINES
10
278.000000
20
350.000000
30
0.0
11
225.000000
21
350.000000
31
0.0
0
LINE
8
LINES
10
225.000000
20
380.000000
30
0.0
11
278.000000
21
380.000000
31
0.0
0
LINE
8
LINES
10
716.000000
20
520.000000
30
0.0
11
769.000000
21
520.000000
31
0.0
0
LINE
8
LINES
10
278.000000
20
331.000000
30
0.0
11
225.000000
21
331.000000
31
0.0
0
LINE
8
LINES
10
771.000000
20
486.000000
30
0.0
11
716.000000
21
486.000000
31
0.0
0
LINE
8
LINES
10
225.000000
20
348.000000
30
0.0
11
278.000000
21
348.000000
31
0.0
0
LINE
8
LINES
10
769.000000
20
497.000000
30
0.0
11
716.000000
21
497.000000
31
0.0
0
LINE
8
LINES
10
225.000000
20
308.000000
30
0.0
11
278.000000
21
308.000000
31
0.0
0
LINE
8
LINES
10
225.000000
20
340.000000
30
0.0
11
278.000000
21
340.000000
31
0.0
0
LINE
8
LINES
10
131.000000
20
121.000000
30
0.0
11
131.000000
21
176.000000
31
0.0
0
LINE
8
LINES
10
716.000000
20
289.000000
30
0.0
11
771.000000
21
289.000000
31
0.0
0
LINE
8
LINES
10
374.000000
20
529.000000
30
0.0
11
374.000000
21
476.000000
31
0.0
0
LINE
8
LINES
10
716.000000
20
329.000000
30
0.0
11
771.000000
21
329.000000
31
0.0
0
LINE
8
LINES
10
718.000000
20
284.000000
30
0.0
11
771.000000
21
284.000000
31
0.0
0
LINE
8
LINES
10
771.000000
20
323.000000
30
0.0
11
716.000000
21
323.000000
31
0.0
0
LINE
8
LINES
10
856.000000
20
361.000000
30
0.0
11
908.000000
21
361.000000
31
0.0
0
LINE
8
LINES
10
771.000000
20
331.000000
30
0.0
11
716.000000
21
331.000000
31
0.0
0
LINE
8
LINES
10
716.000000
20
308.000000
30
0.0
11
771.000000
21
308.000000
31
0.0
0
LINE
8
LINES
10
225.000000
20
321.000000
30
0.0
11
278.000000
21
321.000000
31
0.0
0
LINE
8
LINES
10
225.000000
20
329.000000
30
0.0
11
278.000000
21
329.000000
31
0.0
0
LINE
8
LINES
10
278.000000
20
344.000000
30
0.0
11
225.000000
21
344.000000
31
0.0
0
LINE
8
LINES
10
716.000000
20
160.000000
30
0.0
11
769.000000
21
160.000000
31
0.0
0
LINE
8
LINES
10
867.000000
20
913.000000
30
0.0
11
918.000000
21
905.000000
31
0.0
0
LINE
8
LINES
10
702.000000
20
896.000000
30
0.0
11
755.000000
21
896.000000
31
0.0
0
LINE
8
LINES
10
68.000000
20
499.000000
30
0.0
11
121.000000
21
499.000000
31
0.0
0
LINE
8
LINES
10
89.000000
20
136.000000
30
0.0
11
89.000000
21
188.000000
31
0.0
0
LINE
8
LINES
10
526.000000
20
694.000000
30
0.0
11
577.000000
21
694.000000
31
0.0
0
LINE
8
LINES
10
182.000000
20
859.000000
30
0.0
11
182.000000
21
806.000000
31
0.0
0
LINE
8
LINES
10
926.000000
20
700.000000
30
0.0
11
979.000000
21
700.000000
31
0.0
0
LINE
8
LINES
10
278.000000
20
124.000000
30
0.0
11
227.000000
21
124.000000
31
0.0
0
LINE
8
LINES
10
113.000000
20
726.000000
30
0.0
11
62.000000
21
726.000000
31
0.0
0
LINE
8
LINES
10
276.000000
20
486.000000
30
0.0
11
224.000000
21
486.000000
31
0.0
0
LINE
8
LINES
10
908.000000
20
462.000000
30
0.0
11
856.000000
21
462.000000
31
0.0
0
LINE
8
LINES
10
766.000000
20
540.000000
30
0.0
11
713.000000
21
540.000000
31
0.0
0
LINE
8
LINES
10
278.000000
20
144.000000
30
0.0
11
225.000000
21
144.000000
31
0.0
0
LINE
8
LINES
10
908.000000
20
475.000000
30
0.0
11
856.000000
21
475.000000
31
0.0
0
LINE
8
LINES
10
769.000000
20
523.000000
30
0.0
11
716.000000
21
523.000000
31
0.0
0
LINE
8
LINES
10
718.000000
20
302.000000
30
0.0
11
771.000000
21
302.000000
31
0.0
0
LINE
8
LINES
10
716.000000
20
483.000000
30
0.0
11
769.000000
21
483.000000
31
0.0
0
LINE
8
LINES
10
278.000000
20
291.000000
30
0.0
11
225.000000
21
291.000000
31
0.0
0
LINE
8
LINES
10
227.000000
20
302.000000
30
0.0
11
278.000000
21
302.000000
31
0.0
0
LINE
8
LINES
10
716.000000
20
123.000000
30
0.0
11
768.000000
21
123.000000
31
0.0
0
LINE
8
LINES
10
212.000000
20
401.000000
30
0.0
11
265.000000
21
401.000000
31
0.0
0
LINE
8
LINES
10
163.000000
20
476.000000
30
0.0
11
163.000000
21
529.000000
31
0.0
0
LINE
8
LINES
10
856.000000
20
382.000000
30
0.0
11
908.000000
21
382.000000
31
0.0
0
LINE
8
LINES
10
716.000000
20
496.000000
30
0.0
11
769.000000
21
496.000000
31
0.0
0
LINE
8
LINES
10
769.000000
20
478.000000
30
0.0
11
716.000000
21
478.000000
31
0.0
0
LINE
8
LINES
10
769.000000
20
504.000000
30
0.0
11
716.000000
21
504.000000
31
0.0
0
LINE
8
LINES
10
769.000000
20
516.000000
30
0.0
11
716.000000
21
516.000000
31
0.0
0
LINE
8
LINES
10
718.000000
20
348.000000
30
0.0
11
771.000000
21
348.000000
31
0.0
0
LINE
8
LINES
10
225.000000
20
496.000000
30
0.0
11
278.000000
21
496.000000
31
0.0
0
LINE
8
LINES
10
225.000000
20
502.000000
30
0.0
11
278.000000
21
502.000000
31
0.0
0
LINE
8
LINES
10
856.000000
20
355.000000
30
0.0
11
908.000000
21
355.000000
31
0.0
0
LINE
8
LINES
10
908.000000
20
358.000000
30
0.0
11
856.000000
21
358.000000
31
0.0
0
LINE
8
LINES
10
771.000000
20
305.000000
30
0.0
11
718.000000
21
305.000000
31
0.0
0
LINE
8
LINES
10
227.000000
20
179.000000
30
0.0
11
278.000000
21
179.000000
31
0.0
0
LINE
8
LINES
10
768.000000
20
161.000000
30
0.0
11
716.000000
21
161.000000
31
0.0
0
LINE
8
LINES
10
856.000000
20
478.000000
30
0.0
11
908.000000
21
478.000000
31
0.0
0
LINE
8
LINES
10
766.000000
20
102.000000
30
0.0
11
713.000000
21
102.000000
31
0.0
0
LINE
8
LINES
10
769.000000
20
142.000000
30
0.0
11
716.000000
21
142.000000
31
0.0
0
LINE
8
LINES
10
168.000000
20
905.000000
30
0.0
11
116.000000
21
905.000000
31
0.0
0
LINE
8
LINES
10
395.000000
20
531.000000
30
0.0
11
395.000000
21
478.000000
31
0.0
0
LINE
8
LINES
10
108.000000
20
33.000000
30
0.0
11
57.000000
21
33.000000
31
0.0
0
LINE
8
LINES
10
518.000000
20
124.000000
30
0.0
11
518.000000
21
176.000000
31
0.0
0
LINE
8
LINES
10
336.000000
20
275.000000
30
0.0
11
336.000000
21
326.000000
31
0.0
0
LINE
8
LINES
10
617.000000
20
694.000000
30
0.0
11
668.000000
21
694.000000
31
0.0
0
LINE
8
LINES
10
780.000000
20
812.000000
30
0.0
11
729.000000
21
812.000000
31
0.0
0
LINE
8
LINES
10
81.000000
20
401.000000
30
0.0
11
30.000000
21
401.000000
31
0.0
0
LINE
8
LINES
10
281.000000
20
120.000000
30
0.0
11
228.000000
21
120.000000
31
0.0
0
LINE
8
LINES
10
428.000000
20
707.000000
30
0.0
11
377.000000
21
707.000000
31
0.0
0
LINE
8
LINES
10
768.000000
20
460.000000
30
0.0
11
716.000000
21
460.000000
31
0.0
0
LINE
8
LINES
10
83.000000
20
364.000000
30
0.0
11
32.000000
21
364.000000
31
0.0
0
LINE
8
LINES
10
278.000000
20
134.000000
30
0.0
11
227.000000
21
134.000000
31
0.0
0
LINE
8
LINES
10
227.000000
20
123.000000
30
0.0
11
278.000000
21
123.000000
31
0.0
0
LINE
8
LINES
10
526.000000
20
572.000000
30
0.0
11
577.000000
21
572.000000
31
0.0
0
LINE
8
LINES
10
278.000000
20
505.000000
30
0.0
11
227.000000
21
505.000000
31
0.0
0
LINE
8
LINES
10
278.000000
20
153.000000
30
0.0
11
227.000000
21
153.000000
31
0.0
0
LINE
8
LINES
10
972.000000
20
524.000000
30
0.0
11
921.000000
21
524.000000
31
0.0
0
LINE
8
LINES
10
278.000000
20
499.000000
30
0.0
11
227.000000
21
499.000000
31
0.0
0
LINE
8
LINES
10
227.000000
20
140.000000
30
0.0
11
278.000000
21
140.000000
31
0.0
0
LINE
8
LINES
10
716.000000
20
457.000000
30
0.0
11
766.000000
21
457.000000
31
0.0
0
LINE
8
LINES
10
768.000000
20
467.000000
30
0.0
11
716.000000
21
467.000000
31
0.0
0
LINE
8
LINES
10
278.000000
20
523.000000
30
0.0
11
227.000000
21
523.000000
31
0.0
0
LINE
8
LINES
10
227.000000
20
150.000000
30
0.0
11
278.000000
21
150.000000
31
0.0
0
LINE
8
LINES
10
227.000000
20
515.000000
30
0.0
11
278.000000
21
515.000000
31
0.0
0
LINE
8
LINES
10
278.000000
20
172.000000
30
0.0
11
227.000000
21
172.000000
31
0.0
0
LINE
8
LINES
10
227.000000
20
521.000000
30
0.0
11
278.000000
21
521.000000
31
0.0
0
LINE
8
LINES
10
227.000000
20
160.000000
30
0.0
11
278.000000
21
160.000000
31
0.0
0
LINE
8
LINES
10
278.000000
20
516.000000
30
0.0
11
227.000000
21
516.000000
31
0.0
0
LINE
8
LINES
10
716.000000
20
131.000000
30
0.0
11
768.000000
21
131.000000
31
0.0
0
LINE
8
LINES
10
278.000000
20
163.000000
30
0.0
11
227.000000
21
163.000000
31
0.0
0
LINE
8
LINES
10
768.000000
20
344.000000
30
0.0
11
716.000000
21
344.000000
31
0.0
0
LINE
8
LINES
10
278.000000
20
180.000000
30
0.0
11
227.000000
21
180.000000
31
0.0
0
LINE
8
LINES
10
563.000000
20
182.000000
30
0.0
11
563.000000
21
131.000000
31
0.0
0
LINE
8
LINES
10
129.000000
20
638.000000
30
0.0
11
129.000000
21
689.000000
31
0.0
0
LINE
8
LINES
10
649.000000
20
924.000000
30
0.0
11
699.000000
21
924.000000
31
0.0
0
LINE
8
LINES
10
83.000000
20
392.000000
30
0.0
11
33.000000
21
392.000000
31
0.0
0
LINE
8
LINES
10
486.000000
20
531.000000
30
0.0
11
486.000000
21
481.000000
31
0.0
0
LINE
8
LINES
10
185.000000
20
617.000000
30
0.0
11
136.000000
21
617.000000
31
0.0
0
LINE
8
LINES
10
435.000000
20
118.000000
30
0.0
11
385.000000
21
118.000000
31
0.0
0
LINE
8
LINES
10
910.000000
20
436.000000
30
0.0
11
910.000000
21
486.000000
31
0.0
0
LINE
8
LINES
10
214.000000
20
620.000000
30
0.0
11
214.000000
21
670.000000
31
0.0
0
LINE
8
LINES
10
731.000000
20
809.000000
30
0.0
11
780.000000
21
809.000000
31
0.0
0
LINE
8
LINES
10
481.000000
20
497.000000
30
0.0
11
481.000000
21
448.000000
31
0.0
0
LINE
8
LINES
10
854.000000
20
534.000000
30
0.0
11
904.000000
21
534.000000
31
0.0
0
LINE
8
LINES
10
276.000000
20
480.000000
30
0.0
11
227.000000
21
480.000000
31
0.0
0
LINE
8
LINES
10
707.000000
20
705.000000
30
0.0
11
657.000000
21
705.000000
31
0.0
0
LINE
8
LINES
10
828.000000
20
707.000000
30
0.0
11
777.000000
21
707.000000
31
0.0
0
LINE
8
LINES
10
225.000000
20
465.000000
30
0.0
11
275.000000
21
465.000000
31
0.0
0
LINE
8
LINES
10
110.000000
20
593.000000
30
0.0
11
60.000000
21
593.000000
31
0.0
0
LINE
8
LINES
10
718.000000
20
464.000000
30
0.0
11
768.000000
21
464.000000
31
0.0
0
LINE
8
LINES
10
905.000000
20
384.000000
30
0.0
11
856.000000
21
384.000000
31
0.0
0
LINE
8
LINES
10
529.000000
20
819.000000
30
0.0
11
579.000000
21
819.000000
31
0.0
0
LINE
8
LINES
10
768.000000
20
171.000000
30
0.0
11
718.000000
21
171.000000
31
0.0
0
LINE
8
LINES
10
83.000000
20
217.000000
30
0.0
11
126.000000
21
241.000000
31
0.0
0
LINE
8
LINES
10
284.000000
20
390.000000
30
0.0
11
332.000000
21
404.000000
31
0.0
0
LINE
8
LINES
10
707.000000
20
926.000000
30
0.0
11
659.000000
21
926.000000
31
0.0
0
LINE
8
LINES
10
488.000000
20
692.000000
30
0.0
11
488.000000
21
643.000000
31
0.0
0
LINE
8
LINES
10
56.000000
20
361.000000
30
0.0
11
56.000000
21
313.000000
31
0.0
0
LINE
8
LINES
10
974.000000
20
548.000000
30
0.0
11
926.000000
21
548.000000
31
0.0
0
LINE
8
LINES
10
65.000000
20
740.000000
30
0.0
11
113.000000
21
740.000000
31
0.0
0
LINE
8
LINES
10
136.000000
20
694.000000
30
0.0
11
184.000000
21
694.000000
31
0.0
0
LINE
8
LINES
10
137.000000
20
614.000000
30
0.0
11
185.000000
21
614.000000
31
0.0
0
LINE
8
LINES
10
507.000000
20
814.000000
30
0.0
11
457.000000
21
814.000000
31
0.0
0
LINE
8
LINES
10
214.000000
20
406.000000
30
0.0
11
262.000000
21
406.000000
31
0.0
0
LINE
8
LINES
10
278.000000
20
107.000000
30
0.0
11
228.000000
21
107.000000
31
0.0
0
LINE
8
LINES
10
273.000000
20
448.000000
30
0.0
11
225.000000
21
448.000000
31
0.0
0
LINE
8
LINES
10
273.000000
20
460.000000
30
0.0
11
225.000000
21
460.000000
31
0.0
0
LINE
8
LINES
10
326.000000
20
571.000000
30
0.0
11
376.000000
21
571.000000
31
0.0
0
LINE
8
LINES
10
273.000000
20
369.000000
30
0.0
11
225.000000
21
369.000000
31
0.0
0
LINE
8
LINES
10
227.000000
20
169.000000
30
0.0
11
275.000000
21
169.000000
31
0.0
0
LINE
8
LINES
10
856.000000
20
473.000000
30
0.0
11
904.000000
21
473.000000
31
0.0
0
LINE
8
LINES
10
761.000000
20
408.000000
30
0.0
11
713.000000
21
408.000000
31
0.0
0
LINE
8
LINES
10
598.000000
20
260.000000
30
0.0
11
548.000000
21
260.000000
31
0.0
0
LINE
8
LINES
10
563.000000
20
476.000000
30
0.0
11
563.000000
21
524.000000
31
0.0
0
LINE
8
LINES
10
582.000000
20
803.000000
30
0.0
11
582.000000
21
851.000000
31
0.0
0
LINE
8
LINES
10
180.000000
20
774.000000
30
0.0
11
132.000000
21
774.000000
31
0.0
0
LINE
8
LINES
10
982.000000
20
104.000000
30
0.0
11
982.000000
21
152.000000
31
0.0
0
LINE
8
LINES
10
1022.000000
20
614.000000
30
0.0
11
974.000000
21
614.000000
31
0.0
0
LINE
8
LINES
10
64.000000
20
604.000000
30
0.0
11
112.000000
21
604.000000
31
0.0
0
LINE
8
LINES
10
113.000000
20
744.000000
30
0.0
11
67.000000
21
744.000000
31
0.0
0
LINE
8
LINES
10
902.000000
20
537.000000
30
0.0
11
856.000000
21
537.000000
31
0.0
0
LINE
8
LINES
10
132.000000
20
702.000000
30
0.0
11
132.000000
21
656.000000
31
0.0
0
LINE
8
LINES
10
976.000000
20
705.000000
30
0.0
11
928.000000
21
705.000000
31
0.0
0
LINE
8
LINES
10
227.000000
20
115.000000
30
0.0
11
275.000000
21
115.000000
31
0.0
0
LINE
8
LINES
10
900.000000
20
899.000000
30
0.0
11
852.000000
21
899.000000
31
0.0
0
LINE
8
LINES
10
230.000000
20
131.000000
30
0.0
11
278.000000
21
131.000000
31
0.0
0
LINE
8
LINES
10
225.000000
20
483.000000
30
0.0
11
273.000000
21
483.000000
31
0.0
0
LINE
8
LINES
10
273.000000
20
467.000000
30
0.0
11
227.000000
21
467.000000
31
0.0
0
LINE
8
LINES
10
217.000000
20
524.000000
30
0.0
11
217.000000
21
476.000000
31
0.0
0
LINE
8
LINES
10
124.000000
20
784.000000
30
0.0
11
124.000000
21
832.000000
31
0.0
0
LINE
8
LINES
10
395.000000
20
691.000000
30
0.0
11
395.000000
21
644.000000
31
0.0
0
LINE
8
LINES
10
182.000000
20
716.000000
30
0.0
11
136.000000
21
716.000000
31
0.0
0
LINE
8
LINES
10
60.000000
20
692.000000
30
0.0
11
60.000000
21
646.000000
31
0.0
0
LINE
8
LINES
10
81.000000
20
692.000000
30
0.0
11
81.000000
21
646.000000
31
0.0
0
LINE
8
LINES
10
302.000000
20
692.000000
30
0.0
11
302.000000
21
646.000000
31
0.0
0
LINE
8
LINES
10
641.000000
20
273.000000
30
0.0
11
595.000000
21
273.000000
31
0.0
0
LINE
8
LINES
10
675.000000
20
814.000000
30
0.0
11
675.000000
21
860.000000
31
0.0
0
LINE
8
LINES
10
612.000000
20
107.000000
30
0.0
11
566.000000
21
107.000000
31
0.0
0
LINE
8
LINES
10
182.000000
20
611.000000
30
0.0
11
137.000000
21
611.000000
31
0.0
0
LINE
8
LINES
10
227.000000
20
537.000000
30
0.0
11
273.000000
21
537.000000
31
0.0
0
LINE
8
LINES
10
227.000000
20
368.000000
30
0.0
11
273.000000
21
368.000000
31
0.0
0
LINE
8
LINES
10
275.000000
20
364.000000
30
0.0
11
228.000000
21
364.000000
31
0.0
0
LINE
8
LINES
10
321.000000
20
59.000000
30
0.0
11
368.000000
21
59.000000
31
0.0
0
LINE
8
LINES
10
976.000000
20
379.000000
30
0.0
11
1022.000000
21
379.000000
31
0.0
0
LINE
8
LINES
10
225.000000
20
446.000000
30
0.0
11
272.000000
21
446.000000
31
0.0
0
LINE
8
LINES
10
761.000000
20
448.000000
30
0.0
11
716.000000
21
448.000000
31
0.0
0
LINE
8
LINES
10
718.000000
20
366.000000
30
0.0
11
766.000000
21
366.000000
31
0.0
0
LINE
8
LINES
10
225.000000
20
476.000000
30
0.0
11
272.000000
21
476.000000
31
0.0
0
LINE
8
LINES
10
81.000000
20
409.000000
30
0.0
11
35.000000
21
409.000000
31
0.0
0
LINE
8
LINES
10
723.000000
20
169.000000
30
0.0
11
769.000000
21
169.000000
31
0.0
0
LINE
8
LINES
10
902.000000
20
435.000000
30
0.0
11
856.000000
21
435.000000
31
0.0
0
LINE
8
LINES
10
910.000000
20
377.000000
30
0.0
11
864.000000
21
377.000000
31
0.0
0
LINE
8
LINES
10
777.000000
20
168.000000
30
0.0
11
777.000000
21
121.000000
31
0.0
0
LINE
8
LINES
10
169.000000
20
108.000000
30
0.0
11
142.000000
21
70.000000
31
0.0
0
LINE
8
LINES
10
702.000000
20
120.000000
30
0.0
11
657.000000
21
120.000000
31
0.0
0
LINE
8
LINES
10
83.000000
20
438.000000
30
0.0
11
83.000000
21
483.000000
31
0.0
0
LINE
8
LINES
10
824.000000
20
107.000000
30
0.0
11
779.000000
21
107.000000
31
0.0
0
LINE
8
LINES
10
136.000000
20
713.000000
30
0.0
11
180.000000
21
713.000000
31
0.0
0
LINE
8
LINES
10
382.000000
20
678.000000
30
0.0
11
337.000000
21
678.000000
31
0.0
0
LINE
8
LINES
10
385.000000
20
444.000000
30
0.0
11
430.000000
21
444.000000
31
0.0
0
LINE
8
LINES
10
697.000000
20
859.000000
30
0.0
11
697.000000
21
814.000000
31
0.0
0
LINE
8
LINES
10
260.000000
20
409.000000
30
0.0
11
216.000000
21
409.000000
31
0.0
0
LINE
8
LINES
10
225.000000
20
459.000000
30
0.0
11
270.000000
21
459.000000
31
0.0
0
LINE
8
LINES
10
81.000000
20
369.000000
30
0.0
11
36.000000
21
369.000000
31
0.0
0
LINE
8
LINES
10
36.000000
20
454.000000
30
0.0
11
36.000000
21
499.000000
31
0.0
0
LINE
8
LINES
10
65.000000
20
588.000000
30
0.0
11
110.000000
21
588.000000
31
0.0
0
LINE
8
LINES
10
976.000000
20
436.000000
30
0.0
11
931.000000
21
436.000000
31
0.0
0
LINE
8
LINES
10
385.000000
20
529.000000
30
0.0
11
385.000000
21
483.000000
31
0.0
0
LINE
8
LINES
10
926.000000
20
908.000000
30
0.0
11
969.000000
21
908.000000
31
0.0
0
LINE
8
LINES
10
428.000000
20
486.000000
30
0.0
11
428.000000
21
529.000000
31
0.0
0
LINE
8
LINES
10
136.000000
20
753.000000
30
0.0
11
179.000000
21
753.000000
31
0.0
0
LINE
8
LINES
10
435.000000
20
379.000000
30
0.0
11
392.000000
21
379.000000
31
0.0
0
LINE
8
LINES
10
206.000000
20
377.000000
30
0.0
11
163.000000
21
377.000000
31
0.0
0
LINE
8
LINES
10
672.000000
20
358.000000
30
0.0
11
716.000000
21
358.000000
31
0.0
0
LINE
8
LINES
10
848.000000
20
188.000000
30
0.0
11
848.000000
21
144.000000
31
0.0
0
LINE
8
LINES
10
523.000000
20
673.000000
30
0.0
11
566.000000
21
673.000000
31
0.0
0
LINE
8
LINES
10
617.000000
20
635.000000
30
0.0
11
660.000000
21
635.000000
31
0.0
0
LINE
8
LINES
10
1022.000000
20
635.000000
30
0.0
11
977.000000
21
635.000000
31
0.0
0
LINE
8
LINES
10
337.000000
20
675.000000
30
0.0
11
382.000000
21
675.000000
31
0.0
0
LINE
8
LINES
10
523.000000
20
635.000000
30
0.0
11
566.000000
21
635.000000
31
0.0
0
LINE
8
LINES
10
977.000000
20
632.000000
30
0.0
11
1022.000000
21
632.000000
31
0.0
0
LINE
8
LINES
10
430.000000
20
673.000000
30
0.0
11
473.000000
21
673.000000
31
0.0
0
LINE
8
LINES
10
337.000000
20
654.000000
30
0.0
11
382.000000
21
654.000000
31
0.0
0
LINE
8
LINES
10
566.000000
20
678.000000
30
0.0
11
523.000000
21
678.000000
31
0.0
0
LINE
8
LINES
10
851.000000
20
852.000000
30
0.0
11
851.000000
21
809.000000
31
0.0
0
LINE
8
LINES
10
660.000000
20
657.000000
30
0.0
11
617.000000
21
657.000000
31
0.0
0
LINE
8
LINES
10
566.000000
20
115.000000
30
0.0
11
611.000000
21
115.000000
31
0.0
0
LINE
8
LINES
10
702.000000
20
108.000000
30
0.0
11
659.000000
21
108.000000
31
0.0
0
LINE
8
LINES
10
660.000000
20
638.000000
30
0.0
11
617.000000
21
638.000000
31
0.0
0
LINE
8
LINES
10
476.000000
20
678.000000
30
0.0
11
432.000000
21
678.000000
31
0.0
0
LINE
8
LINES
10
270.000000
20
441.000000
30
0.0
11
227.000000
21
441.000000
31
0.0
0
LINE
8
LINES
10
761.000000
20
441.000000
30
0.0
11
718.000000
21
441.000000
31
0.0
0
LINE
8
LINES
10
721.000000
20
361.000000
30
0.0
11
764.000000
21
361.000000
31
0.0
0
LINE
8
LINES
10
718.000000
20
444.000000
30
0.0
11
761.000000
21
444.000000
31
0.0
0
LINE
8
LINES
10
1022.000000
20
380.000000
30
0.0
11
977.000000
21
380.000000
31
0.0
0
LINE
8
LINES
10
225.000000
20
284.000000
30
0.0
11
268.000000
21
284.000000
31
0.0
0
LINE
8
LINES
10
721.000000
20
536.000000
30
0.0
11
764.000000
21
536.000000
31
0.0
0
LINE
8
LINES
10
766.000000
20
363.000000
30
0.0
11
721.000000
21
363.000000
31
0.0
0
LINE
8
LINES
10
12.000000
20
576.000000
30
0.0
11
57.000000
21
576.000000
31
0.0
0
LINE
8
LINES
10
795.000000
20
817.000000
30
0.0
11
795.000000
21
860.000000
31
0.0
0
LINE
8
LINES
10
929.000000
20
273.000000
30
0.0
11
972.000000
21
280.000000
31
0.0
0
LINE
8
LINES
10
184.000000
20
531.000000
30
0.0
11
184.000000
21
488.000000
31
0.0
0
LINE
8
LINES
10
432.000000
20
635.000000
30
0.0
11
473.000000
21
635.000000
31
0.0
0
LINE
8
LINES
10
617.000000
20
675.000000
30
0.0
11
659.000000
21
675.000000
31
0.0
0
LINE
8
LINES
10
659.000000
20
678.000000
30
0.0
11
617.000000
21
678.000000
31
0.0
0
LINE
8
LINES
10
579.000000
20
358.000000
30
0.0
11
579.000000
21
316.000000
31
0.0
0
LINE
8
LINES
10
380.000000
20
795.000000
30
0.0
11
337.000000
21
795.000000
31
0.0
0
LINE
8
LINES
10
617.000000
20
654.000000
30
0.0
11
659.000000
21
654.000000
31
0.0
0
LINE
8
LINES
10
432.000000
20
654.000000
30
0.0
11
473.000000
21
654.000000
31
0.0
0
LINE
8
LINES
10
337.000000
20
790.000000
30
0.0
11
380.000000
21
790.000000
31
0.0
0
LINE
8
LINES
10
524.000000
20
654.000000
30
0.0
11
566.000000
21
654.000000
31
0.0
0
LINE
8
LINES
10
380.000000
20
833.000000
30
0.0
11
337.000000
21
833.000000
31
0.0
0
LINE
8
LINES
10
473.000000
20
657.000000
30
0.0
11
432.000000
21
657.000000
31
0.0
0
LINE
8
LINES
10
72.000000
20
758.000000
30
0.0
11
113.000000
21
758.000000
31
0.0
0
LINE
8
LINES
10
337.000000
20
830.000000
30
0.0
11
380.000000
21
830.000000
31
0.0
0
LINE
8
LINES
10
566.000000
20
638.000000
30
0.0
11
524.000000
21
638.000000
31
0.0
0
LINE
8
LINES
10
382.000000
20
115.000000
30
0.0
11
424.000000
21
115.000000
31
0.0
0
LINE
8
LINES
10
473.000000
20
638.000000
30
0.0
11
432.000000
21
638.000000
31
0.0
0
LINE
8
LINES
10
382.000000
20
657.000000
30
0.0
11
339.000000
21
657.000000
31
0.0
0
LINE
8
LINES
10
566.000000
20
657.000000
30
0.0
11
524.000000
21
657.000000
31
0.0
0
LINE
8
LINES
10
337.000000
20
849.000000
30
0.0
11
380.000000
21
849.000000
31
0.0
0
LINE
8
LINES
10
380.000000
20
638.000000
30
0.0
11
337.000000
21
638.000000
31
0.0
0
LINE
8
LINES
10
380.000000
20
814.000000
30
0.0
11
337.000000
21
814.000000
31
0.0
0
LINE
8
LINES
10
172.000000
20
444.000000
30
0.0
11
214.000000
21
444.000000
31
0.0
0
LINE
8
LINES
10
518.000000
20
107.000000
30
0.0
11
476.000000
21
107.000000
31
0.0
0
LINE
8
LINES
10
897.000000
20
246.000000
30
0.0
11
856.000000
21
246.000000
31
0.0
0
LINE
8
LINES
10
332.000000
20
108.000000
30
0.0
11
291.000000
21
108.000000
31
0.0
0
LINE
8
LINES
10
425.000000
20
107.000000
30
0.0
11
382.000000
21
107.000000
31
0.0
0
LINE
8
LINES
10
846.000000
20
390.000000
30
0.0
11
803.000000
21
390.000000
31
0.0
0
LINE
8
LINES
10
291.000000
20
444.000000
30
0.0
11
332.000000
21
444.000000
31
0.0
0
LINE
8
LINES
10
398.000000
20
936.000000
30
0.0
11
441.000000
21
936.000000
31
0.0
0
LINE
8
LINES
10
718.000000
20
438.000000
30
0.0
11
761.000000
21
438.000000
31
0.0
0
LINE
8
LINES
10
225.000000
20
289.000000
30
0.0
11
268.000000
21
289.000000
31
0.0
0
LINE
8
LINES
10
172.000000
20
355.000000
30
0.0
11
172.000000
21
313.000000
31
0.0
0
LINE
8
LINES
10
931.000000
20
441.000000
30
0.0
11
974.000000
21
441.000000
31
0.0
0
LINE
8
LINES
10
425.000000
20
315.000000
30
0.0
11
419.000000
21
356.000000
31
0.0
0
LINE
8
LINES
10
4.000000
20
488.000000
30
0.0
11
4.000000
21
529.000000
31
0.0
0
LINE
8
LINES
10
849.000000
20
262.000000
30
0.0
11
849.000000
21
222.000000
31
0.0
0
LINE
8
LINES
10
60.000000
20
531.000000
30
0.0
11
60.000000
21
489.000000
31
0.0
0
LINE
8
LINES
10
851.000000
20
185.000000
30
0.0
11
892.000000
21
185.000000
31
0.0
0
LINE
8
LINES
10
339.000000
20
635.000000
30
0.0
11
380.000000
21
635.000000
31
0.0
0
LINE
8
LINES
10
1019.000000
20
654.000000
30
0.0
11
977.000000
21
654.000000
31
0.0
0
LINE
8
LINES
10
473.000000
20
115.000000
30
0.0
11
515.000000
21
115.000000
31
0.0
0
LINE
8
LINES
10
41.000000
20
446.000000
30
0.0
11
81.000000
21
446.000000
31
0.0
0
LINE
8
LINES
10
113.000000
20
608.000000
30
0.0
11
72.000000
21
608.000000
31
0.0
0
LINE
8
LINES
10
339.000000
20
811.000000
30
0.0
11
380.000000
21
811.000000
31
0.0
0
LINE
8
LINES
10
113.000000
20
761.000000
30
0.0
11
73.000000
21
761.000000
31
0.0
0
LINE
8
LINES
10
380.000000
20
852.000000
30
0.0
11
339.000000
21
852.000000
31
0.0
0
LINE
8
LINES
10
211.000000
20
107.000000
30
0.0
11
171.000000
21
107.000000
31
0.0
0
LINE
8
LINES
10
483.000000
20
382.000000
30
0.0
11
441.000000
21
382.000000
31
0.0
0
LINE
8
LINES
10
780.000000
20
115.000000
30
0.0
11
822.000000
21
115.000000
31
0.0
0
LINE
8
LINES
10
854.000000
20
892.000000
30
0.0
11
896.000000
21
892.000000
31
0.0
0
LINE
8
LINES
10
934.000000
20
446.000000
30
0.0
11
976.000000
21
446.000000
31
0.0
0
LINE
8
LINES
10
382.000000
20
873.000000
30
0.0
11
340.000000
21
873.000000
31
0.0
0
LINE
8
LINES
10
41.000000
20
104.000000
30
0.0
11
1.000000
21
104.000000
31
0.0
0
LINE
8
LINES
10
896.000000
20
876.000000
30
0.0
11
854.000000
21
876.000000
31
0.0
0
LINE
8
LINES
10
603.000000
20
401.000000
30
0.0
11
643.000000
21
401.000000
31
0.0
0
LINE
8
LINES
10
441.000000
20
387.000000
30
0.0
11
481.000000
21
387.000000
31
0.0
0
LINE
8
LINES
10
425.000000
20
446.000000
30
0.0
11
384.000000
21
446.000000
31
0.0
0
LINE
8
LINES
10
76.000000
20
536.000000
30
0.0
11
33.000000
21
536.000000
31
0.0
0
LINE
8
LINES
10
806.000000
20
260.000000
30
0.0
11
764.000000
21
260.000000
31
0.0
0
LINE
8
LINES
10
756.000000
20
134.000000
30
0.0
11
716.000000
21
134.000000
31
0.0
0
LINE
8
LINES
10
43.000000
20
281.000000
30
0.0
11
83.000000
21
286.000000
31
0.0
0
LINE
8
LINES
10
696.000000
20
489.000000
30
0.0
11
696.000000
21
529.000000
31
0.0
0
LINE
8
LINES
10
892.000000
20
187.000000
30
0.0
11
851.000000
21
190.000000
31
0.0
0
LINE
8
LINES
10
784.000000
20
449.000000
30
0.0
11
824.000000
21
449.000000
31
0.0
0
LINE
8
LINES
10
932.000000
20
617.000000
30
0.0
11
972.000000
21
617.000000
31
0.0
0
LINE
8
LINES
10
611.000000
20
121.000000
30
0.0
11
611.000000
21
161.000000
31
0.0
0
LINE
8
LINES
10
936.000000
20
473.000000
30
0.0
11
976.000000
21
473.000000
31
0.0
0
LINE
8
LINES
10
188.000000
20
491.000000
30
0.0
11
188.000000
21
531.000000
31
0.0
0
LINE
8
LINES
10
979.000000
20
652.000000
30
0.0
11
1019.000000
21
652.000000
31
0.0
0
LINE
8
LINES
10
851.000000
20
195.000000
30
0.0
11
892.000000
21
195.000000
31
0.0
0
LINE
8
LINES
10
340.000000
20
366.000000
30
0.0
11
300.000000
21
366.000000
31
0.0
0
LINE
8
LINES
10
700.000000
20
529.000000
30
0.0
11
700.000000
21
489.000000
31
0.0
0
LINE
8
LINES
10
172.000000
20
620.000000
30
0.0
11
212.000000
21
620.000000
31
0.0
0
LINE
8
LINES
10
785.000000
20
620.000000
30
0.0
11
825.000000
21
620.000000
31
0.0
0
LINE
8
LINES
10
387.000000
20
620.000000
30
0.0
11
427.000000
21
620.000000
31
0.0
0
LINE
8
LINES
10
665.000000
20
620.000000
30
0.0
11
705.000000
21
620.000000
31
0.0
0
LINE
8
LINES
10
481.000000
20
620.000000
30
0.0
11
521.000000
21
620.000000
31
0.0
0
LINE
8
LINES
10
510.000000
20
491.000000
30
0.0
11
510.000000
21
531.000000
31
0.0
0
LINE
8
LINES
10
572.000000
20
620.000000
30
0.0
11
612.000000
21
620.000000
31
0.0
0
LINE
8
LINES
10
294.000000
20
620.000000
30
0.0
11
334.000000
21
620.000000
31
0.0
0
LINE
8
LINES
10
518.000000
20
120.000000
30
0.0
11
478.000000
21
120.000000
31
0.0
0
LINE
8
LINES
10
419.000000
20
491.000000
30
0.0
11
419.000000
21
531.000000
31
0.0
0
LINE
8
LINES
10
387.000000
20
449.000000
30
0.0
11
427.000000
21
449.000000
31
0.0
0
LINE
8
LINES
10
660.000000
20
444.000000
30
0.0
11
700.000000
21
444.000000
31
0.0
0
LINE
8
LINES
10
489.000000
20
491.000000
30
0.0
11
489.000000
21
531.000000
31
0.0
0
LINE
8
LINES
10
508.000000
20
748.000000
30
0.0
11
548.000000
21
748.000000
31
0.0
0
LINE
8
LINES
10
478.000000
20
449.000000
30
0.0
11
518.000000
21
449.000000
31
0.0
0
LINE
8
LINES
10
329.000000
20
491.000000
30
0.0
11
329.000000
21
531.000000
31
0.0
0
LINE
8
LINES
10
569.000000
20
537.000000
30
0.0
11
609.000000
21
537.000000
31
0.0
0
LINE
8
LINES
10
76.000000
20
276.000000
30
0.0
11
35.000000
21
276.000000
31
0.0
0
LINE
8
LINES
10
700.000000
20
539.000000
30
0.0
11
660.000000
21
539.000000
31
0.0
0
LINE
8
LINES
10
136.000000
20
771.000000
30
0.0
11
176.000000
21
771.000000
31
0.0
0
LINE
8
LINES
10
972.000000
20
137.000000
30
0.0
11
932.000000
21
137.000000
31
0.0
0
LINE
8
LINES
10
609.000000
20
446.000000
30
0.0
11
569.000000
21
446.000000
31
0.0
0
LINE
8
LINES
10
822.000000
20
446.000000
30
0.0
11
782.000000
21
446.000000
31
0.0
0
LINE
8
LINES
10
166.000000
20
257.000000
30
0.0
11
206.000000
21
257.000000
31
0.0
0
LINE
8
LINES
10
174.000000
20
179.000000
30
0.0
11
174.000000
21
139.000000
31
0.0
0
LINE
8
LINES
10
291.000000
20
652.000000
30
0.0
11
291.000000
21
691.000000
31
0.0
0
LINE
8
LINES
10
107.000000
20
580.000000
30
0.0
11
67.000000
21
580.000000
31
0.0
0
LINE
8
LINES
10
342.000000
20
588.000000
30
0.0
11
302.000000
21
588.000000
31
0.0
0
LINE
8
LINES
10
294.000000
20
449.000000
30
0.0
11
332.000000
21
449.000000
31
0.0
0
LINE
8
LINES
10
755.000000
20
899.000000
30
0.0
11
787.000000
21
921.000000
31
0.0
0
LINE
8
LINES
10
876.000000
20
915.000000
30
0.0
11
915.000000
21
915.000000
31
0.0
0
LINE
8
LINES
10
814.000000
20
489.000000
30
0.0
11
814.000000
21
528.000000
31
0.0
0
LINE
8
LINES
10
129.000000
20
233.000000
30
0.0
11
97.000000
21
212.000000
31
0.0
0
LINE
8
LINES
10
664.000000
20
449.000000
30
0.0
11
702.000000
21
449.000000
31
0.0
0
LINE
8
LINES
10
329.000000
20
540.000000
30
0.0
11
291.000000
21
540.000000
31
0.0
0
LINE
8
LINES
10
169.000000
20
652.000000
30
0.0
11
169.000000
21
691.000000
31
0.0
0
LINE
8
LINES
10
977.000000
20
691.000000
30
0.0
11
1016.000000
21
691.000000
31
0.0
0
LINE
8
LINES
10
296.000000
20
123.000000
30
0.0
11
334.000000
21
123.000000
31
0.0
0
LINE
8
LINES
10
979.000000
20
672.000000
30
0.0
11
1017.000000
21
672.000000
31
0.0
0
LINE
8
LINES
10
787.000000
20
777.000000
30
0.0
11
825.000000
21
777.000000
31
0.0
0
LINE
8
LINES
10
291.000000
20
115.000000
30
0.0
11
331.000000
21
115.000000
31
0.0
0
LINE
8
LINES
10
174.000000
20
777.000000
30
0.0
11
212.000000
21
777.000000
31
0.0
0
LINE
8
LINES
10
513.000000
20
401.000000
30
0.0
11
553.000000
21
401.000000
31
0.0
0
LINE
8
LINES
10
662.000000
20
115.000000
30
0.0
11
700.000000
21
115.000000
31
0.0
0
LINE
8
LINES
10
1017.000000
20
675.000000
30
0.0
11
979.000000
21
675.000000
31
0.0
0
LINE
8
LINES
10
387.000000
20
777.000000
30
0.0
11
427.000000
21
777.000000
31
0.0
0
LINE
8
LINES
10
212.000000
20
120.000000
30
0.0
11
174.000000
21
120.000000
31
0.0
0
LINE
8
LINES
10
603.000000
20
491.000000
30
0.0
11
603.000000
21
529.000000
31
0.0
0
LINE
8
LINES
10
670.000000
20
491.000000
30
0.0
11
670.000000
21
529.000000
31
0.0
0
LINE
8
LINES
10
398.000000
20
814.000000
30
0.0
11
398.000000
21
852.000000
31
0.0
0
LINE
8
LINES
10
172.000000
20
115.000000
30
0.0
11
211.000000
21
115.000000
31
0.0
0
LINE
8
LINES
10
665.000000
20
777.000000
30
0.0
11
704.000000
21
777.000000
31
0.0
0
LINE
8
LINES
10
572.000000
20
449.000000
30
0.0
11
611.000000
21
449.000000
31
0.0
0
LINE
8
LINES
10
307.000000
20
492.000000
30
0.0
11
307.000000
21
531.000000
31
0.0
0
LINE
8
LINES
10
179.000000
20
910.000000
30
0.0
11
140.000000
21
910.000000
31
0.0
0
LINE
8
LINES
10
515.000000
20
446.000000
30
0.0
11
476.000000
21
446.000000
31
0.0
0
LINE
8
LINES
10
332.000000
20
446.000000
30
0.0
11
292.000000
21
446.000000
31
0.0
0
LINE
8
LINES
10
329.000000
20
817.000000
30
0.0
11
329.000000
21
856.000000
31
0.0
0
LINE
8
LINES
10
184.000000
20
225.000000
30
0.0
11
222.000000
21
225.000000
31
0.0
0
LINE
8
LINES
10
572.000000
20
286.000000
30
0.0
11
609.000000
21
296.000000
31
0.0
0
LINE
8
LINES
10
664.000000
20
286.000000
30
0.0
11
702.000000
21
294.000000
31
0.0
0
LINE
8
LINES
10
387.000000
20
286.000000
30
0.0
11
424.000000
21
294.000000
31
0.0
0
LINE
8
LINES
10
174.000000
20
286.000000
30
0.0
11
211.000000
21
294.000000
31
0.0
0
LINE
8
LINES
10
174.000000
20
449.000000
30
0.0
11
211.000000
21
449.000000
31
0.0
0
LINE
8
LINES
10
460.000000
20
358.000000
30
0.0
11
497.000000
21
358.000000
31
0.0
0
LINE
8
LINES
10
915.000000
20
910.000000
30
0.0
11
878.000000
21
910.000000
31
0.0
0
LINE
8
LINES
10
411.000000
20
539.000000
30
0.0
11
372.000000
21
539.000000
31
0.0
0
LINE
8
LINES
10
54.000000
20
489.000000
30
0.0
11
54.000000
21
526.000000
31
0.0
0
LINE
8
LINES
10
936.000000
20
304.000000
30
0.0
11
972.000000
21
304.000000
31
0.0
0
LINE
8
LINES
10
78.000000
20
361.000000
30
0.0
11
78.000000
21
323.000000
31
0.0
0
LINE
8
LINES
10
51.000000
20
694.000000
30
0.0
11
88.000000
21
694.000000
31
0.0
0
LINE
8
LINES
10
785.000000
20
121.000000
30
0.0
11
822.000000
21
121.000000
31
0.0
0
LINE
8
LINES
10
664.000000
20
123.000000
30
0.0
11
702.000000
21
123.000000
31
0.0
0
LINE
8
LINES
10
102.000000
20
856.000000
30
0.0
11
137.000000
21
862.000000
31
0.0
0
LINE
8
LINES
10
176.000000
20
123.000000
30
0.0
11
212.000000
21
123.000000
31
0.0
0
LINE
8
LINES
10
481.000000
20
123.000000
30
0.0
11
518.000000
21
123.000000
31
0.0
0
LINE
8
LINES
10
331.000000
20
556.000000
30
0.0
11
292.000000
21
556.000000
31
0.0
0
LINE
8
LINES
10
572.000000
20
123.000000
30
0.0
11
609.000000
21
123.000000
31
0.0
0
LINE
8
LINES
10
387.000000
20
123.000000
30
0.0
11
425.000000
21
123.000000
31
0.0
0
LINE
8
LINES
10
608.000000
20
654.000000
30
0.0
11
608.000000
21
691.000000
31
0.0
0
LINE
8
LINES
10
185.000000
20
358.000000
30
0.0
11
185.000000
21
321.000000
31
0.0
0
LINE
8
LINES
10
808.000000
20
614.000000
30
0.0
11
846.000000
21
614.000000
31
0.0
0
LINE
8
LINES
10
609.000000
20
120.000000
30
0.0
11
572.000000
21
120.000000
31
0.0
0
LINE
8
LINES
10
398.000000
20
492.000000
30
0.0
11
398.000000
21
531.000000
31
0.0
0
LINE
8
LINES
10
561.000000
20
366.000000
30
0.0
11
598.000000
21
366.000000
31
0.0
0
LINE
8
LINES
10
9.000000
20
529.000000
30
0.0
11
9.000000
21
492.000000
31
0.0
0
LINE
8
LINES
10
54.000000
20
648.000000
30
0.0
11
54.000000
21
686.000000
31
0.0
0
LINE
8
LINES
10
308.000000
20
816.000000
30
0.0
11
308.000000
21
852.000000
31
0.0
0
LINE
8
LINES
10
227.000000
20
438.000000
30
0.0
11
264.000000
21
438.000000
31
0.0
0
LINE
8
LINES
10
892.000000
20
896.000000
30
0.0
11
856.000000
21
896.000000
31
0.0
0
LINE
8
LINES
10
81.000000
20
443.000000
30
0.0
11
44.000000
21
443.000000
31
0.0
0
LINE
8
LINES
10
385.000000
20
652.000000
30
0.0
11
385.000000
21
689.000000
31
0.0
0
LINE
8
LINES
10
496.000000
20
593.000000
30
0.0
11
457.000000
21
593.000000
31
0.0
0
LINE
8
LINES
10
118.000000
20
908.000000
30
0.0
11
155.000000
21
916.000000
31
0.0
0
LINE
8
LINES
10
632.000000
20
918.000000
30
0.0
11
652.000000
21
889.000000
31
0.0
0
LINE
8
LINES
10
83.000000
20
326.000000
30
0.0
11
83.000000
21
361.000000
31
0.0
0
LINE
8
LINES
10
1016.000000
20
694.000000
30
0.0
11
979.000000
21
694.000000
31
0.0
0
LINE
8
LINES
10
936.000000
20
316.000000
30
0.0
11
936.000000
21
352.000000
31
0.0
0
LINE
8
LINES
10
73.000000
20
323.000000
30
0.0
11
73.000000
21
361.000000
31
0.0
0
LINE
8
LINES
10
611.000000
20
691.000000
30
0.0
11
611.000000
21
654.000000
31
0.0
0
LINE
8
LINES
10
582.000000
20
492.000000
30
0.0
11
582.000000
21
529.000000
31
0.0
0
LINE
8
LINES
10
940.000000
20
688.000000
30
0.0
11
940.000000
21
652.000000
31
0.0
0
LINE
8
LINES
10
182.000000
20
692.000000
30
0.0
11
182.000000
21
657.000000
31
0.0
0
LINE
8
LINES
10
816.000000
20
654.000000
30
0.0
11
816.000000
21
691.000000
31
0.0
0
LINE
8
LINES
10
60.000000
20
326.000000
30
0.0
11
60.000000
21
361.000000
31
0.0
0
LINE
8
LINES
10
972.000000
20
305.000000
30
0.0
11
936.000000
21
305.000000
31
0.0
0
LINE
8
LINES
10
468.000000
20
508.000000
30
0.0
11
468.000000
21
473.000000
31
0.0
0
LINE
8
LINES
10
35.000000
20
488.000000
30
0.0
11
35.000000
21
451.000000
31
0.0
0
LINE
8
LINES
10
822.000000
20
555.000000
30
0.0
11
785.000000
21
555.000000
31
0.0
0
LINE
8
LINES
10
811.000000
20
752.000000
30
0.0
11
846.000000
21
752.000000
31
0.0
0
LINE
8
LINES
10
958.000000
20
316.000000
30
0.0
11
958.000000
21
352.000000
31
0.0
0
LINE
8
LINES
10
953.000000
20
352.000000
30
0.0
11
953.000000
21
316.000000
31
0.0
0
LINE
8
LINES
10
486.000000
20
356.000000
30
0.0
11
486.000000
21
321.000000
31
0.0
0
LINE
8
LINES
10
819.000000
20
691.000000
30
0.0
11
819.000000
21
654.000000
31
0.0
0
LINE
8
LINES
10
963.000000
20
688.000000
30
0.0
11
963.000000
21
652.000000
31
0.0
0
LINE
8
LINES
10
846.000000
20
609.000000
30
0.0
11
809.000000
21
609.000000
31
0.0
0
LINE
8
LINES
10
188.000000
20
657.000000
30
0.0
11
188.000000
21
692.000000
31
0.0
0
LINE
8
LINES
10
209.000000
20
657.000000
30
0.0
11
209.000000
21
692.000000
31
0.0
0
LINE
8
LINES
10
324.000000
20
526.000000
30
0.0
11
324.000000
21
489.000000
31
0.0
0
LINE
8
LINES
10
403.000000
20
395.000000
30
0.0
11
368.000000
21
395.000000
31
0.0
0
LINE
8
LINES
10
516.000000
20
654.000000
30
0.0
11
516.000000
21
691.000000
31
0.0
0
LINE
8
LINES
10
307.000000
20
656.000000
30
0.0
11
307.000000
21
691.000000
31
0.0
0
LINE
8
LINES
10
206.000000
20
540.000000
30
0.0
11
171.000000
21
540.000000
31
0.0
0
LINE
8
LINES
10
721.000000
20
270.000000
30
0.0
11
758.000000
21
270.000000
31
0.0
0
LINE
8
LINES
10
188.000000
20
817.000000
30
0.0
11
188.000000
21
854.000000
31
0.0
0
LINE
8
LINES
10
1022.000000
20
265.000000
30
0.0
11
985.000000
21
265.000000
31
0.0
0
LINE
8
LINES
10
502.000000
20
59.000000
30
0.0
11
539.000000
21
59.000000
31
0.0
0
LINE
8
LINES
10
976.000000
20
454.000000
30
0.0
11
940.000000
21
457.000000
31
0.0
0
LINE
8
LINES
10
187.000000
20
320.000000
30
0.0
11
174.000000
21
286.000000
31
0.0
0
LINE
8
LINES
10
89.000000
20
187.000000
30
0.0
11
83.000000
21
152.000000
31
0.0
0
LINE
8
LINES
10
851.000000
20
696.000000
30
0.0
11
851.000000
21
731.000000
31
0.0
0
LINE
8
LINES
10
937.000000
20
136.000000
30
0.0
11
972.000000
21
136.000000
31
0.0
0
LINE
8
LINES
10
702.000000
20
555.000000
30
0.0
11
667.000000
21
555.000000
31
0.0
0
LINE
8
LINES
10
819.000000
20
529.000000
30
0.0
11
819.000000
21
494.000000
31
0.0
0
LINE
8
LINES
10
702.000000
20
824.000000
30
0.0
11
702.000000
21
859.000000
31
0.0
0
LINE
8
LINES
10
102.000000
20
515.000000
30
0.0
11
102.000000
21
550.000000
31
0.0
0
LINE
8
LINES
10
172.000000
20
756.000000
30
0.0
11
137.000000
21
756.000000
31
0.0
0
LINE
8
LINES
10
792.000000
20
656.000000
30
0.0
11
792.000000
21
691.000000
31
0.0
0
LINE
8
LINES
10
398.000000
20
657.000000
30
0.0
11
398.000000
21
691.000000
31
0.0
0
LINE
8
LINES
10
329.000000
20
657.000000
30
0.0
11
329.000000
21
692.000000
31
0.0
0
LINE
8
LINES
10
937.000000
20
643.000000
30
0.0
11
972.000000
21
643.000000
31
0.0
0
LINE
8
LINES
10
814.000000
20
102.000000
30
0.0
11
779.000000
21
102.000000
31
0.0
0
LINE
8
LINES
10
206.000000
20
524.000000
30
0.0
11
206.000000
21
489.000000
31
0.0
0
LINE
8
LINES
10
792.000000
20
494.000000
30
0.0
11
792.000000
21
529.000000
31
0.0
0
LINE
8
LINES
10
788.000000
20
478.000000
30
0.0
11
824.000000
21
478.000000
31
0.0
0
LINE
8
LINES
10
4.000000
20
358.000000
30
0.0
11
4.000000
21
323.000000
31
0.0
0
LINE
8
LINES
10
88.000000
20
697.000000
30
0.0
11
52.000000
21
697.000000
31
0.0
0
LINE
8
LINES
10
827.000000
20
862.000000
30
0.0
11
792.000000
21
862.000000
31
0.0
0
LINE
8
LINES
10
726.000000
20
264.000000
30
0.0
11
761.000000
21
264.000000
31
0.0
0
LINE
8
LINES
10
987.000000
20
264.000000
30
0.0
11
1022.000000
21
264.000000
31
0.0
0
LINE
8
LINES
10
1022.000000
20
305.000000
30
0.0
11
987.000000
21
305.000000
31
0.0
0
LINE
8
LINES
10
512.000000
20
657.000000
30
0.0
11
512.000000
21
691.000000
31
0.0
0
LINE
8
LINES
10
1022.000000
20
286.000000
30
0.0
11
987.000000
21
286.000000
31
0.0
0
LINE
8
LINES
10
753.000000
20
252.000000
30
0.0
11
718.000000
21
252.000000
31
0.0
0
LINE
8
LINES
10
548.000000
20
403.000000
30
0.0
11
513.000000
21
403.000000
31
0.0
0
LINE
8
LINES
10
409.000000
20
848.000000
30
0.0
11
409.000000
21
812.000000
31
0.0
0
LINE
8
LINES
10
987.000000
20
276.000000
30
0.0
11
1022.000000
21
276.000000
31
0.0
0
LINE
8
LINES
10
601.000000
20
657.000000
30
0.0
11
601.000000
21
691.000000
31
0.0
0
LINE
8
LINES
10
987.000000
20
296.000000
30
0.0
11
1022.000000
21
296.000000
31
0.0
0
LINE
8
LINES
10
1022.000000
20
320.000000
30
0.0
11
987.000000
21
320.000000
31
0.0
0
LINE
8
LINES
10
926.000000
20
531.000000
30
0.0
11
961.000000
21
531.000000
31
0.0
0
LINE
8
LINES
10
987.000000
20
284.000000
30
0.0
11
1022.000000
21
284.000000
31
0.0
0
LINE
8
LINES
10
974.000000
20
449.000000
30
0.0
11
939.000000
21
449.000000
31
0.0
0
LINE
8
LINES
10
886.000000
20
208.000000
30
0.0
11
921.000000
21
208.000000
31
0.0
0
LINE
8
LINES
10
1022.000000
20
299.000000
30
0.0
11
987.000000
21
299.000000
31
0.0
0
LINE
8
LINES
10
972.000000
20
646.000000
30
0.0
11
937.000000
21
646.000000
31
0.0
0
LINE
8
LINES
10
326.000000
20
102.000000
30
0.0
11
291.000000
21
102.000000
31
0.0
0
LINE
8
LINES
10
209.000000
20
819.000000
30
0.0
11
209.000000
21
854.000000
31
0.0
0
LINE
8
LINES
10
915.000000
20
371.000000
30
0.0
11
948.000000
21
363.000000
31
0.0
0
LINE
8
LINES
10
126.000000
20
238.000000
30
0.0
11
97.000000
21
220.000000
31
0.0
0
LINE
8
LINES
10
572.000000
20
734.000000
30
0.0
11
604.000000
21
739.000000
31
0.0
0
LINE
8
LINES
10
662.000000
20
892.000000
30
0.0
11
697.000000
21
894.000000
31
0.0
0
LINE
8
LINES
10
969.000000
20
913.000000
30
0.0
11
936.000000
21
910.000000
31
0.0
0
LINE
8
LINES
10
918.000000
20
470.000000
30
0.0
11
918.000000
21
436.000000
31
0.0
0
LINE
8
LINES
10
846.000000
20
755.000000
30
0.0
11
812.000000
21
755.000000
31
0.0
0
LINE
8
LINES
10
812.000000
20
692.000000
30
0.0
11
846.000000
21
692.000000
31
0.0
0
LINE
8
LINES
10
934.000000
20
916.000000
30
0.0
11
968.000000
21
916.000000
31
0.0
0
LINE
8
LINES
10
849.000000
20
771.000000
30
0.0
11
849.000000
21
737.000000
31
0.0
0
LINE
8
LINES
10
782.000000
20
444.000000
30
0.0
11
816.000000
21
444.000000
31
0.0
0
LINE
8
LINES
10
204.000000
20
691.000000
30
0.0
11
204.000000
21
657.000000
31
0.0
0
LINE
8
LINES
10
582.000000
20
657.000000
30
0.0
11
582.000000
21
691.000000
31
0.0
0
LINE
8
LINES
10
657.000000
20
540.000000
30
0.0
11
624.000000
21
540.000000
31
0.0
0
LINE
8
LINES
10
406.000000
20
529.000000
30
0.0
11
406.000000
21
496.000000
31
0.0
0
LINE
8
LINES
10
790.000000
20
646.000000
30
0.0
11
824.000000
21
646.000000
31
0.0
0
LINE
8
LINES
10
908.000000
20
481.000000
30
0.0
11
873.000000
21
481.000000
31
0.0
0
LINE
8
LINES
10
788.000000
20
291.000000
30
0.0
11
822.000000
21
291.000000
31
0.0
0
LINE
8
LINES
10
267.000000
20
267.000000
30
0.0
11
233.000000
21
267.000000
31
0.0
0
LINE
8
LINES
10
988.000000
20
337.000000
30
0.0
11
1022.000000
21
337.000000
31
0.0
0
LINE
8
LINES
10
1022.000000
20
339.000000
30
0.0
11
988.000000
21
339.000000
31
0.0
0
LINE
8
LINES
10
716.000000
20
926.000000
30
0.0
11
697.000000
21
897.000000
31
0.0
0
LINE
8
LINES
10
803.000000
20
262.000000
30
0.0
11
836.000000
21
262.000000
31
0.0
0
LINE
8
LINES
10
569.000000
20
444.000000
30
0.0
11
603.000000
21
444.000000
31
0.0
0
LINE
8
LINES
10
52.000000
20
700.000000
30
0.0
11
86.000000
21
700.000000
31
0.0
0
LINE
8
LINES
10
326.000000
20
400.000000
30
0.0
11
358.000000
21
400.000000
31
0.0
0
LINE
8
LINES
10
1022.000000
20
278.000000
30
0.0
11
988.000000
21
278.000000
31
0.0
0
LINE
8
LINES
10
856.000000
20
238.000000
30
0.0
11
889.000000
21
238.000000
31
0.0
0
LINE
8
LINES
10
419.000000
20
657.000000
30
0.0
11
419.000000
21
691.000000
31
0.0
0
LINE
8
LINES
10
988.000000
20
323.000000
30
0.0
11
1022.000000
21
323.000000
31
0.0
0
LINE
8
LINES
10
982.000000
20
819.000000
30
0.0
11
947.000000
21
819.000000
31
0.0
0
LINE
8
LINES
10
758.000000
20
265.000000
30
0.0
11
723.000000
21
265.000000
31
0.0
0
LINE
8
LINES
10
208.000000
20
446.000000
30
0.0
11
174.000000
21
446.000000
31
0.0
0
LINE
8
LINES
10
678.000000
20
572.000000
30
0.0
11
713.000000
21
572.000000
31
0.0
0
LINE
8
LINES
10
988.000000
20
318.000000
30
0.0
11
1022.000000
21
318.000000
31
0.0
0
LINE
8
LINES
10
824.000000
20
648.000000
30
0.0
11
790.000000
21
648.000000
31
0.0
0
LINE
8
LINES
10
1022.000000
20
326.000000
30
0.0
11
988.000000
21
326.000000
31
0.0
0
LINE
8
LINES
10
816.000000
20
852.000000
30
0.0
11
816.000000
21
819.000000
31
0.0
0
LINE
8
LINES
10
380.000000
20
545.000000
30
0.0
11
347.000000
21
540.000000
31
0.0
0
LINE
8
LINES
10
801.000000
20
388.000000
30
0.0
11
828.000000
21
409.000000
31
0.0
0
LINE
8
LINES
10
33.000000
20
446.000000
30
0.0
11
1.000000
21
441.000000
31
0.0
0
LINE
8
LINES
10
483.000000
20
129.000000
30
0.0
11
516.000000
21
129.000000
31
0.0
0
LINE
8
LINES
10
300.000000
20
129.000000
30
0.0
11
332.000000
21
129.000000
31
0.0
0
LINE
8
LINES
10
576.000000
20
129.000000
30
0.0
11
608.000000
21
129.000000
31
0.0
0
LINE
8
LINES
10
542.000000
20
745.000000
30
0.0
11
508.000000
21
740.000000
31
0.0
0
LINE
8
LINES
10
790.000000
20
153.000000
30
0.0
11
822.000000
21
153.000000
31
0.0
0
LINE
8
LINES
10
132.000000
20
811.000000
30
0.0
11
166.000000
21
811.000000
31
0.0
0
LINE
8
LINES
10
132.000000
20
792.000000
30
0.0
11
166.000000
21
792.000000
31
0.0
0
LINE
8
LINES
10
668.000000
20
478.000000
30
0.0
11
702.000000
21
478.000000
31
0.0
0
LINE
8
LINES
10
427.000000
20
857.000000
30
0.0
11
393.000000
21
857.000000
31
0.0
0
LINE
8
LINES
10
960.000000
20
488.000000
30
0.0
11
960.000000
21
521.000000
31
0.0
0
LINE
8
LINES
10
798.000000
20
529.000000
30
0.0
11
798.000000
21
497.000000
31
0.0
0
LINE
8
LINES
10
678.000000
20
529.000000
30
0.0
11
678.000000
21
497.000000
31
0.0
0
LINE
8
LINES
10
672.000000
20
646.000000
30
0.0
11
704.000000
21
646.000000
31
0.0
0
LINE
8
LINES
10
300.000000
20
291.000000
30
0.0
11
332.000000
21
291.000000
31
0.0
0
LINE
8
LINES
10
622.000000
20
380.000000
30
0.0
11
656.000000
21
380.000000
31
0.0
0
LINE
8
LINES
10
576.000000
20
380.000000
30
0.0
11
608.000000
21
380.000000
31
0.0
0
LINE
8
LINES
10
166.000000
20
833.000000
30
0.0
11
132.000000
21
833.000000
31
0.0
0
LINE
8
LINES
10
134.000000
20
830.000000
30
0.0
11
166.000000
21
830.000000
31
0.0
0
LINE
8
LINES
10
796.000000
20
390.000000
30
0.0
11
768.000000
21
404.000000
31
0.0
0
LINE
8
LINES
10
579.000000
20
646.000000
30
0.0
11
611.000000
21
646.000000
31
0.0
0
LINE
8
LINES
10
678.000000
20
686.000000
30
0.0
11
678.000000
21
654.000000
31
0.0
0
LINE
8
LINES
10
548.000000
20
748.000000
30
0.0
11
582.000000
21
748.000000
31
0.0
0
LINE
8
LINES
10
491.000000
20
657.000000
30
0.0
11
491.000000
21
691.000000
31
0.0
0
LINE
8
LINES
10
694.000000
20
446.000000
30
0.0
11
662.000000
21
446.000000
31
0.0
0
LINE
8
LINES
10
419.000000
20
817.000000
30
0.0
11
419.000000
21
849.000000
31
0.0
0
LINE
8
LINES
10
788.000000
20
129.000000
30
0.0
11
822.000000
21
129.000000
31
0.0
0
LINE
8
LINES
10
233.000000
20
270.000000
30
0.0
11
265.000000
21
270.000000
31
0.0
0
LINE
8
LINES
10
972.000000
20
281.000000
30
0.0
11
939.000000
21
281.000000
31
0.0
0
LINE
8
LINES
10
988.000000
20
344.000000
30
0.0
11
1022.000000
21
344.000000
31
0.0
0
LINE
8
LINES
10
641.000000
20
403.000000
30
0.0
11
608.000000
21
403.000000
31
0.0
0
LINE
8
LINES
10
1022.000000
20
347.000000
30
0.0
11
988.000000
21
347.000000
31
0.0
0
LINE
8
LINES
10
318.000000
20
852.000000
30
0.0
11
318.000000
21
820.000000
31
0.0
0
LINE
8
LINES
10
416.000000
20
225.000000
30
0.0
11
448.000000
21
225.000000
31
0.0
0
LINE
8
LINES
10
396.000000
20
478.000000
30
0.0
11
387.000000
21
446.000000
31
0.0
0
LINE
8
LINES
10
769.000000
20
915.000000
30
0.0
11
742.000000
21
899.000000
31
0.0
0
LINE
8
LINES
10
675.000000
20
390.000000
30
0.0
11
646.000000
21
404.000000
31
0.0
0
LINE
8
LINES
10
83.000000
20
294.000000
30
0.0
11
115.000000
21
297.000000
31
0.0
0
LINE
8
LINES
10
182.000000
20
393.000000
30
0.0
11
150.000000
21
401.000000
31
0.0
0
LINE
8
LINES
10
51.000000
20
484.000000
30
0.0
11
40.000000
21
456.000000
31
0.0
0
LINE
8
LINES
10
521.000000
20
281.000000
30
0.0
11
521.000000
21
313.000000
31
0.0
0
LINE
8
LINES
10
964.000000
20
377.000000
30
0.0
11
932.000000
21
374.000000
31
0.0
0
LINE
8
LINES
10
686.000000
20
896.000000
30
0.0
11
656.000000
21
896.000000
31
0.0
0
LINE
8
LINES
10
422.000000
20
556.000000
30
0.0
11
390.000000
21
556.000000
31
0.0
0
LINE
8
LINES
10
270.000000
20
531.000000
30
0.0
11
302.000000
21
531.000000
31
0.0
0
LINE
8
LINES
10
694.000000
20
326.000000
30
0.0
11
694.000000
21
356.000000
31
0.0
0
LINE
8
LINES
10
136.000000
20
635.000000
30
0.0
11
166.000000
21
635.000000
31
0.0
0
LINE
8
LINES
10
166.000000
20
814.000000
30
0.0
11
134.000000
21
814.000000
31
0.0
0
LINE
8
LINES
10
531.000000
20
457.000000
30
0.0
11
563.000000
21
457.000000
31
0.0
0
LINE
8
LINES
10
817.000000
20
771.000000
30
0.0
11
848.000000
21
771.000000
31
0.0
0
LINE
8
LINES
10
766.000000
20
264.000000
30
0.0
11
796.000000
21
264.000000
31
0.0
0
LINE
8
LINES
10
320.000000
20
326.000000
30
0.0
11
320.000000
21
356.000000
31
0.0
0
LINE
8
LINES
10
486.000000
20
480.000000
30
0.0
11
518.000000
21
480.000000
31
0.0
0
LINE
8
LINES
10
507.000000
20
356.000000
30
0.0
11
507.000000
21
326.000000
31
0.0
0
LINE
8
LINES
10
326.000000
20
356.000000
30
0.0
11
326.000000
21
326.000000
31
0.0
0
LINE
8
LINES
10
668.000000
20
374.000000
30
0.0
11
699.000000
21
374.000000
31
0.0
0
LINE
8
LINES
10
136.000000
20
654.000000
30
0.0
11
166.000000
21
654.000000
31
0.0
0
LINE
8
LINES
10
115.000000
20
675.000000
30
0.0
11
83.000000
21
675.000000
31
0.0
0
LINE
8
LINES
10
168.000000
20
678.000000
30
0.0
11
137.000000
21
678.000000
31
0.0
0
LINE
8
LINES
10
673.000000
20
659.000000
30
0.0
11
673.000000
21
691.000000
31
0.0
0
LINE
8
LINES
10
960.000000
20
657.000000
30
0.0
11
960.000000
21
688.000000
31
0.0
0
LINE
8
LINES
10
488.000000
20
646.000000
30
0.0
11
518.000000
21
646.000000
31
0.0
0
LINE
8
LINES
10
86.000000
20
704.000000
30
0.0
11
54.000000
21
704.000000
31
0.0
0
LINE
8
LINES
10
75.000000
20
648.000000
30
0.0
11
75.000000
21
678.000000
31
0.0
0
LINE
8
LINES
10
606.000000
20
497.000000
30
0.0
11
606.000000
21
529.000000
31
0.0
0
LINE
8
LINES
10
393.000000
20
129.000000
30
0.0
11
424.000000
21
129.000000
31
0.0
0
LINE
8
LINES
10
822.000000
20
156.000000
30
0.0
11
790.000000
21
156.000000
31
0.0
0
LINE
8
LINES
10
497.000000
20
529.000000
30
0.0
11
497.000000
21
497.000000
31
0.0
0
LINE
8
LINES
10
995.000000
20
209.000000
30
0.0
11
963.000000
21
209.000000
31
0.0
0
LINE
8
LINES
10
198.000000
20
852.000000
30
0.0
11
198.000000
21
822.000000
31
0.0
0
LINE
8
LINES
10
686.000000
20
531.000000
30
0.0
11
718.000000
21
531.000000
31
0.0
0
LINE
8
LINES
10
792.000000
20
315.000000
30
0.0
11
822.000000
21
315.000000
31
0.0
0
LINE
8
LINES
10
206.000000
20
358.000000
30
0.0
11
206.000000
21
326.000000
31
0.0
0
LINE
8
LINES
10
886.000000
20
220.000000
30
0.0
11
854.000000
21
220.000000
31
0.0
0
LINE
8
LINES
10
598.000000
20
358.000000
30
0.0
11
598.000000
21
326.000000
31
0.0
0
LINE
8
LINES
10
136.000000
20
675.000000
30
0.0
11
166.000000
21
675.000000
31
0.0
0
LINE
8
LINES
10
211.000000
20
326.000000
30
0.0
11
211.000000
21
358.000000
31
0.0
0
LINE
8
LINES
10
166.000000
20
795.000000
30
0.0
11
134.000000
21
795.000000
31
0.0
0
LINE
8
LINES
10
579.000000
20
478.000000
30
0.0
11
611.000000
21
478.000000
31
0.0
0
LINE
8
LINES
10
416.000000
20
356.000000
30
0.0
11
416.000000
21
326.000000
31
0.0
0
LINE
8
LINES
10
699.000000
20
377.000000
30
0.0
11
668.000000
21
377.000000
31
0.0
0
LINE
8
LINES
10
689.000000
20
356.000000
30
0.0
11
689.000000
21
326.000000
31
0.0
0
LINE
8
LINES
10
187.000000
20
475.000000
30
0.0
11
174.000000
21
446.000000
31
0.0
0
LINE
8
LINES
10
668.000000
20
129.000000
30
0.0
11
700.000000
21
129.000000
31
0.0
0
LINE
8
LINES
10
915.000000
20
300.000000
30
0.0
11
883.000000
21
300.000000
31
0.0
0
LINE
8
LINES
10
396.000000
20
646.000000
30
0.0
11
427.000000
21
646.000000
31
0.0
0
LINE
8
LINES
10
83.000000
20
25.000000
30
0.0
11
52.000000
21
25.000000
31
0.0
0
LINE
8
LINES
10
670.000000
20
483.000000
30
0.0
11
702.000000
21
483.000000
31
0.0
0
LINE
8
LINES
10
579.000000
20
483.000000
30
0.0
11
611.000000
21
483.000000
31
0.0
0
LINE
8
LINES
10
494.000000
20
395.000000
30
0.0
11
464.000000
21
398.000000
31
0.0
0
LINE
8
LINES
10
518.000000
20
648.000000
30
0.0
11
488.000000
21
648.000000
31
0.0
0
LINE
8
LINES
10
347.000000
20
275.000000
30
0.0
11
316.000000
21
272.000000
31
0.0
0
LINE
8
LINES
10
580.000000
20
393.000000
30
0.0
11
553.000000
21
403.000000
31
0.0
0
LINE
8
LINES
10
153.000000
20
886.000000
30
0.0
11
182.000000
21
891.000000
31
0.0
0
LINE
8
LINES
10
28.000000
20
0.000000
30
0.0
11
51.000000
21
19.000000
31
0.0
0
LINE
8
LINES
10
590.000000
20
328.000000
30
0.0
11
590.000000
21
358.000000
31
0.0
0
LINE
8
LINES
10
302.000000
20
395.000000
30
0.0
11
273.000000
21
400.000000
31
0.0
0
LINE
8
LINES
10
224.000000
20
940.000000
30
0.0
11
254.000000
21
940.000000
31
0.0
0
LINE
8
LINES
10
822.000000
20
456.000000
30
0.0
11
793.000000
21
456.000000
31
0.0
0
LINE
8
LINES
10
460.000000
20
432.000000
30
0.0
11
438.000000
21
412.000000
31
0.0
0
LINE
8
LINES
10
147.000000
20
862.000000
30
0.0
11
118.000000
21
854.000000
31
0.0
0
LINE
8
LINES
10
428.000000
20
281.000000
30
0.0
11
428.000000
21
312.000000
31
0.0
0
LINE
8
LINES
10
363.000000
20
531.000000
30
0.0
11
393.000000
21
531.000000
31
0.0
0
LINE
8
LINES
10
672.000000
20
313.000000
30
0.0
11
702.000000
21
313.000000
31
0.0
0
LINE
8
LINES
10
84.000000
20
363.000000
30
0.0
11
84.000000
21
393.000000
31
0.0
0
LINE
8
LINES
10
812.000000
20
326.000000
30
0.0
11
812.000000
21
356.000000
31
0.0
0
LINE
8
LINES
10
329.000000
20
326.000000
30
0.0
11
329.000000
21
356.000000
31
0.0
0
LINE
8
LINES
10
788.000000
20
926.000000
30
0.0
11
758.000000
21
926.000000
31
0.0
0
LINE
8
LINES
10
598.000000
20
188.000000
30
0.0
11
598.000000
21
158.000000
31
0.0
0
LINE
8
LINES
10
182.000000
20
705.000000
30
0.0
11
212.000000
21
705.000000
31
0.0
0
LINE
8
LINES
10
678.000000
20
326.000000
30
0.0
11
678.000000
21
355.000000
31
0.0
0
LINE
8
LINES
10
603.000000
20
328.000000
30
0.0
11
603.000000
21
358.000000
31
0.0
0
LINE
8
LINES
10
512.000000
20
326.000000
30
0.0
11
512.000000
21
356.000000
31
0.0
0
LINE
8
LINES
10
809.000000
20
356.000000
30
0.0
11
809.000000
21
326.000000
31
0.0
0
LINE
8
LINES
10
499.000000
20
326.000000
30
0.0
11
499.000000
21
355.000000
31
0.0
0
LINE
8
LINES
10
166.000000
20
638.000000
30
0.0
11
137.000000
21
638.000000
31
0.0
0
LINE
8
LINES
10
83.000000
20
672.000000
30
0.0
11
113.000000
21
672.000000
31
0.0
0
LINE
8
LINES
10
193.000000
20
280.000000
30
0.0
11
163.000000
21
280.000000
31
0.0
0
LINE
8
LINES
10
166.000000
20
657.000000
30
0.0
11
137.000000
21
657.000000
31
0.0
0
LINE
8
LINES
10
334.000000
20
859.000000
30
0.0
11
304.000000
21
859.000000
31
0.0
0
LINE
8
LINES
10
798.000000
20
326.000000
30
0.0
11
798.000000
21
356.000000
31
0.0
0
LINE
8
LINES
10
211.000000
20
859.000000
30
0.0
11
182.000000
21
859.000000
31
0.0
0
LINE
8
LINES
10
969.000000
20
836.000000
30
0.0
11
969.000000
21
867.000000
31
0.0
0
LINE
8
LINES
10
792.000000
20
321.000000
30
0.0
11
822.000000
21
321.000000
31
0.0
0
LINE
8
LINES
10
822.000000
20
316.000000
30
0.0
11
792.000000
21
316.000000
31
0.0
0
LINE
8
LINES
10
304.000000
20
777.000000
30
0.0
11
334.000000
21
777.000000
31
0.0
0
LINE
8
LINES
10
956.000000
20
521.000000
30
0.0
11
956.000000
21
491.000000
31
0.0
0
LINE
8
LINES
10
158.000000
20
499.000000
30
0.0
11
158.000000
21
529.000000
31
0.0
0
LINE
8
LINES
10
1022.000000
20
560.000000
30
0.0
11
992.000000
21
560.000000
31
0.0
0
LINE
8
LINES
10
35.000000
20
1.000000
30
0.0
11
4.000000
21
6.000000
31
0.0
0
LINE
8
LINES
10
699.000000
20
200.000000
30
0.0
11
668.000000
21
200.000000
31
0.0
0
LINE
8
LINES
10
798.000000
20
691.000000
30
0.0
11
798.000000
21
660.000000
31
0.0
0
LINE
8
LINES
10
611.000000
20
529.000000
30
0.0
11
611.000000
21
499.000000
31
0.0
0
LINE
8
LINES
10
486.000000
20
291.000000
30
0.0
11
516.000000
21
291.000000
31
0.0
0
LINE
8
LINES
10
377.000000
20
371.000000
30
0.0
11
347.000000
21
371.000000
31
0.0
0
LINE
8
LINES
10
952.000000
20
867.000000
30
0.0
11
952.000000
21
836.000000
31
0.0
0
LINE
8
LINES
10
992.000000
20
358.000000
30
0.0
11
1022.000000
21
358.000000
31
0.0
0
LINE
8
LINES
10
113.000000
20
844.000000
30
0.0
11
113.000000
21
814.000000
31
0.0
0
LINE
8
LINES
10
987.000000
20
302.000000
30
0.0
11
1017.000000
21
302.000000
31
0.0
0
LINE
8
LINES
10
508.000000
20
689.000000
30
0.0
11
508.000000
21
659.000000
31
0.0
0
LINE
8
LINES
10
824.000000
20
625.000000
30
0.0
11
793.000000
21
625.000000
31
0.0
0
LINE
8
LINES
10
992.000000
20
366.000000
30
0.0
11
1022.000000
21
366.000000
31
0.0
0
LINE
8
LINES
10
611.000000
20
481.000000
30
0.0
11
580.000000
21
481.000000
31
0.0
0
LINE
8
LINES
10
822.000000
20
296.000000
30
0.0
11
792.000000
21
296.000000
31
0.0
0
ENDSEC
0
EOF
