0
SECTION
2
ENTITIES
0
LWPOLYLINE
8
FACADE_OUTLINE
90
4
70
1
10
0.000000
20
0.000000
10
507.000000
20
0.000000
10
507.000000
20
474.000000
10
0.000000
20
474.000000
0
LWPOLYLINE
8
WINDOWS
90
4
70
1
10
0.000000
20
0.000000
10
507.000000
20
0.000000
10
507.000000
20
460.000000
10
0.000000
20
460.000000
0
LWPOLYLINE
8
WINDOWS
90
4
70
1
10
225.000000
20
57.000000
10
270.000000
20
57.000000
10
270.000000
20
91.000000
10
225.000000
20
91.000000
0
LWPOLYLINE
8
WINDOWS
90
4
70
1
10
59.000000
20
60.000000
10
83.000000
20
60.000000
10
83.000000
20
89.000000
10
59.000000
20
89.000000
0
LWPOLYLINE
8
WINDOWS
90
4
70
1
10
100.000000
20
60.000000
10
134.000000
20
60.000000
10
134.000000
20
89.000000
10
100.000000
20
89.000000
0
LWPOLYLINE
8
WINDOWS
90
4
70
1
10
145.000000
20
60.000000
10
172.000000
20
60.000000
10
172.000000
20
89.000000
10
145.000000
20
89.000000
0
LWPOLYLINE
8
WINDOWS
90
4
70
1
10
180.000000
20
62.000000
10
217.000000
20
62.000000
10
217.000000
20
91.000000
10
180.000000
20
91.000000
0
LWPOLYLINE
8
WINDOWS
90
4
70
1
10
270.000000
20
62.000000
10
315.000000
20
62.000000
10
315.000000
20
92.000000
10
270.000000
20
92.000000
0
LWPOLYLINE
8
WINDOWS
90
4
70
1
10
72.000000
20
123.000000
10
150.000000
20
123.000000
10
150.000000
20
179.000000
10
72.000000
20
179.000000
0
LWPOLYLINE
8
WINDOWS
90
4
70
1
10
174.000000
20
124.000000
10
260.000000
20
124.000000
10
260.000000
20
180.000000
10
174.000000
20
180.000000
0
LWPOLYLINE
8
WINDOWS
90
4
70
1
10
356.000000
20
144.000000
10
467.000000
20
144.000000
10
467.000000
20
184.000000
10
356.000000
20
184.000000
0
LWPOLYLINE
8
WINDOWS
90
4
70
1
10
99.000000
20
209.000000
10
153.000000
20
209.000000
10
153.000000
20
265.000000
10
99.000000
20
265.000000
0
LWPOLYLINE
8
WINDOWS
90
4
70
1
10
187.000000
20
211.000000
10
220.000000
20
211.000000
10
220.000000
20
244.000000
10
187.000000
20
244.000000
0
LWPOLYLINE
8
WINDOWS
90
4
70
1
10
393.000000
20
214.000000
10
425.000000
20
214.000000
10
425.000000
20
233.000000
10
393.000000
20
233.000000
0
LWPOLYLINE
8
WINDOWS
90
4
70
1
10
99.000000
20
233.000000
10
131.000000
20
233.000000
10
131.000000
20
278.000000
10
99.000000
20
278.000000
0
LWPOLYLINE
8
WINDOWS
90
4
70
1
10
187.000000
20
233.000000
10
220.000000
20
233.000000
10
220.000000
20
280.000000
10
187.000000
20
280.000000
0
LWPOLYLINE
8
WINDOWS
90
4
70
1
10
278.000000
20
236.000000
10
312.000000
20
236.000000
10
312.000000
20
281.000000
10
278.000000
20
281.000000
0
LWPOLYLINE
8
WINDOWS
90
4
70
1
10
393.000000
20
238.000000
10
446.000000
20
238.000000
10
446.000000
20
281.000000
10
393.000000
20
281.000000
0
LWPOLYLINE
8
WINDOWS
90
4
70
1
10
0.000000
20
393.000000
10
153.000000
20
393.000000
10
153.000000
20
465.000000
10
0.000000
20
465.000000
0
LWPOLYLINE
8
WINDOWS
90
4
70
1
10
148.000000
20
395.000000
10
235.000000
20
395.000000
10
235.000000
20
467.000000
10
148.000000
20
467.000000
0
LWPOLYLINE
8
WINDOWS
90
4
70
1
10
380.000000
20
422.000000
10
427.000000
20
422.000000
10
427.000000
20
470.000000
10
380.000000
20
470.000000
0
LWPOLYLINE
8
DOORS
90
4
70
1
10
0.000000
20
97.000000
10
44.000000
20
97.000000
10
44.000000
20
449.000000
10
0.000000
20
449.000000
0
LWPOLYLINE
8
DOORS
90
4
70
1
10
80.000000
20
212.000000
10
96.000000
20
212.000000
10
96.000000
20
273.000000
10
80.000000
20
273.000000
0
LWPOLYLINE
8
DOORS
90
4
70
1
10
166.000000
20
214.000000
10
184.000000
20
214.000000
10
184.000000
20
275.000000
10
166.000000
20
275.000000
0
LWPOLYLINE
8
DOORS
90
4
70
1
10
257.000000
20
214.000000
10
275.000000
20
214.000000
10
275.000000
20
276.000000
10
257.000000
20
276.000000
0
LWPOLYLINE
8
DOORS
90
4
70
1
10
371.000000
20
217.000000
10
390.000000
20
217.000000
10
390.000000
20
278.000000
10
371.000000
20
278.000000
0
LWPOLYLINE
8
DOORS
90
4
70
1
10
262.000000
20
313.000000
10
273.000000
20
313.000000
10
273.000000
20
358.000000
10
262.000000
20
358.000000
0
LINE
8
LINES
10
60.000000
20
361.000000
30
0.0
11
494.000000
21
361.000000
31
0.0
0
LINE
8
LINES
10
323.000000
20
116.000000
30
0.0
11
56.000000
21
116.000000
31
0.0
0
LINE
8
LINES
10
60.000000
20
296.000000
30
0.0
11
326.000000
21
296.000000
31
0.0
0
LINE
8
LINES
10
326.000000
20
305.000000
30
0.0
11
60.000000
21
305.000000
31
0.0
0
LINE
8
LINES
10
328.000000
20
371.000000
30
0.0
11
86.000000
21
371.000000
31
0.0
0
LINE
8
LINES
10
286.000000
20
192.000000
30
0.0
11
57.000000
21
192.000000
31
0.0
0
LINE
8
LINES
10
92.000000
20
102.000000
30
0.0
11
318.000000
21
102.000000
31
0.0
0
LINE
8
LINES
10
316.000000
20
99.000000
30
0.0
11
92.000000
21
99.000000
31
0.0
0
LINE
8
LINES
10
316.000000
20
80.000000
30
0.0
11
120.000000
21
0.000000
31
0.0
0
LINE
8
LINES
10
507.000000
20
156.000000
30
0.0
11
313.000000
21
86.000000
31
0.0
0
LINE
8
LINES
10
329.000000
20
300.000000
30
0.0
11
488.000000
21
300.000000
31
0.0
0
LINE
8
LINES
10
57.000000
20
35.000000
30
0.0
11
211.000000
21
35.000000
31
0.0
0
LINE
8
LINES
10
465.000000
20
305.000000
30
0.0
11
332.000000
21
305.000000
31
0.0
0
LINE
8
LINES
10
366.000000
20
398.000000
30
0.0
11
483.000000
21
398.000000
31
0.0
0
LINE
8
LINES
10
465.000000
20
184.000000
30
0.0
11
352.000000
21
184.000000
31
0.0
0
LINE
8
LINES
10
332.000000
20
118.000000
30
0.0
11
332.000000
21
232.000000
31
0.0
0
LINE
8
LINES
10
60.000000
20
86.000000
30
0.0
11
169.000000
21
86.000000
31
0.0
0
LINE
8
LINES
10
462.000000
20
188.000000
30
0.0
11
353.000000
21
188.000000
31
0.0
0
LINE
8
LINES
10
326.000000
20
180.000000
30
0.0
11
217.000000
21
180.000000
31
0.0
0
LINE
8
LINES
10
1.000000
20
456.000000
30
0.0
11
100.000000
21
456.000000
31
0.0
0
LINE
8
LINES
10
230.000000
20
188.000000
30
0.0
11
323.000000
21
220.000000
31
0.0
0
LINE
8
LINES
10
464.000000
20
371.000000
30
0.0
11
366.000000
21
371.000000
31
0.0
0
LINE
8
LINES
10
14.000000
20
353.000000
30
0.0
11
14.000000
21
262.000000
31
0.0
0
LINE
8
LINES
10
323.000000
20
185.000000
30
0.0
11
233.000000
21
185.000000
31
0.0
0
LINE
8
LINES
10
9.000000
20
264.000000
30
0.0
11
9.000000
21
353.000000
31
0.0
0
LINE
8
LINES
10
329.000000
20
270.000000
30
0.0
11
329.000000
21
182.000000
31
0.0
0
LINE
8
LINES
10
217.000000
20
89.000000
30
0.0
11
304.000000
21
89.000000
31
0.0
0
LINE
8
LINES
10
17.000000
20
454.000000
30
0.0
11
17.000000
21
369.000000
31
0.0
0
LINE
8
LINES
10
366.000000
20
387.000000
30
0.0
11
451.000000
21
387.000000
31
0.0
0
LINE
8
LINES
10
14.000000
20
259.000000
30
0.0
11
14.000000
21
174.000000
31
0.0
0
LINE
8
LINES
10
449.000000
20
392.000000
30
0.0
11
366.000000
21
392.000000
31
0.0
0
LINE
8
LINES
10
56.000000
20
179.000000
30
0.0
11
56.000000
21
262.000000
31
0.0
0
LINE
8
LINES
10
318.000000
20
465.000000
30
0.0
11
401.000000
21
465.000000
31
0.0
0
LINE
8
LINES
10
182.000000
20
91.000000
30
0.0
11
102.000000
21
91.000000
31
0.0
0
LINE
8
LINES
10
177.000000
20
385.000000
30
0.0
11
256.000000
21
385.000000
31
0.0
0
LINE
8
LINES
10
11.000000
20
371.000000
30
0.0
11
11.000000
21
449.000000
31
0.0
0
LINE
8
LINES
10
180.000000
20
395.000000
30
0.0
11
254.000000
21
395.000000
31
0.0
0
LINE
8
LINES
10
467.000000
20
262.000000
30
0.0
11
467.000000
21
190.000000
31
0.0
0
LINE
8
LINES
10
310.000000
20
94.000000
30
0.0
11
238.000000
21
94.000000
31
0.0
0
LINE
8
LINES
10
33.000000
20
172.000000
30
0.0
11
33.000000
21
243.000000
31
0.0
0
LINE
8
LINES
10
257.000000
20
396.000000
30
0.0
11
323.000000
21
396.000000
31
0.0
0
LINE
8
LINES
10
257.000000
20
387.000000
30
0.0
11
323.000000
21
387.000000
31
0.0
0
LINE
8
LINES
10
142.000000
20
110.000000
30
0.0
11
78.000000
21
110.000000
31
0.0
0
LINE
8
LINES
10
257.000000
20
273.000000
30
0.0
11
257.000000
21
211.000000
31
0.0
0
LINE
8
LINES
10
80.000000
20
270.000000
30
0.0
11
80.000000
21
211.000000
31
0.0
0
LINE
8
LINES
10
153.000000
20
212.000000
30
0.0
11
153.000000
21
273.000000
31
0.0
0
LINE
8
LINES
10
318.000000
20
102.000000
30
0.0
11
377.000000
21
102.000000
31
0.0
0
LINE
8
LINES
10
14.000000
20
168.000000
30
0.0
11
14.000000
21
108.000000
31
0.0
0
LINE
8
LINES
10
241.000000
20
216.000000
30
0.0
11
241.000000
21
273.000000
31
0.0
0
LINE
8
LINES
10
332.000000
20
241.000000
30
0.0
11
332.000000
21
297.000000
31
0.0
0
LINE
8
LINES
10
323.000000
20
177.000000
30
0.0
11
265.000000
21
177.000000
31
0.0
0
LINE
8
LINES
10
62.000000
20
214.000000
30
0.0
11
62.000000
21
272.000000
31
0.0
0
LINE
8
LINES
10
352.000000
20
230.000000
30
0.0
11
352.000000
21
288.000000
31
0.0
0
LINE
8
LINES
10
451.000000
20
411.000000
30
0.0
11
451.000000
21
467.000000
31
0.0
0
LINE
8
LINES
10
435.000000
20
179.000000
30
0.0
11
379.000000
21
179.000000
31
0.0
0
LINE
8
LINES
10
56.000000
20
92.000000
30
0.0
11
56.000000
21
35.000000
31
0.0
0
LINE
8
LINES
10
316.000000
20
390.000000
30
0.0
11
259.000000
21
390.000000
31
0.0
0
LINE
8
LINES
10
409.000000
20
180.000000
30
0.0
11
465.000000
21
180.000000
31
0.0
0
LINE
8
LINES
10
326.000000
20
361.000000
30
0.0
11
326.000000
21
305.000000
31
0.0
0
LINE
8
LINES
10
232.000000
20
390.000000
30
0.0
11
177.000000
21
390.000000
31
0.0
0
LINE
8
LINES
10
6.000000
20
267.000000
30
0.0
11
6.000000
21
214.000000
31
0.0
0
LINE
8
LINES
10
185.000000
20
220.000000
30
0.0
11
185.000000
21
272.000000
31
0.0
0
LINE
8
LINES
10
94.000000
20
267.000000
30
0.0
11
94.000000
21
216.000000
31
0.0
0
LINE
8
LINES
10
380.000000
20
419.000000
30
0.0
11
430.000000
21
419.000000
31
0.0
0
LINE
8
LINES
10
236.000000
20
126.000000
30
0.0
11
236.000000
21
176.000000
31
0.0
0
LINE
8
LINES
10
59.000000
20
264.000000
30
0.0
11
59.000000
21
214.000000
31
0.0
0
LINE
8
LINES
10
137.000000
20
307.000000
30
0.0
11
185.000000
21
307.000000
31
0.0
0
LINE
8
LINES
10
496.000000
20
227.000000
30
0.0
11
496.000000
21
276.000000
31
0.0
0
LINE
8
LINES
10
494.000000
20
281.000000
30
0.0
11
494.000000
21
233.000000
31
0.0
0
LINE
8
LINES
10
328.000000
20
179.000000
30
0.0
11
328.000000
21
131.000000
31
0.0
0
LINE
8
LINES
10
153.000000
20
409.000000
30
0.0
11
153.000000
21
457.000000
31
0.0
0
LINE
8
LINES
10
60.000000
20
302.000000
30
0.0
11
60.000000
21
350.000000
31
0.0
0
LINE
8
LINES
10
260.000000
20
361.000000
30
0.0
11
260.000000
21
313.000000
31
0.0
0
LINE
8
LINES
10
211.000000
20
462.000000
30
0.0
11
259.000000
21
462.000000
31
0.0
0
LINE
8
LINES
10
86.000000
20
171.000000
30
0.0
11
134.000000
21
171.000000
31
0.0
0
LINE
8
LINES
10
233.000000
20
169.000000
30
0.0
11
233.000000
21
121.000000
31
0.0
0
LINE
8
LINES
10
104.000000
20
208.000000
30
0.0
11
150.000000
21
208.000000
31
0.0
0
LINE
8
LINES
10
187.000000
20
171.000000
30
0.0
11
187.000000
21
124.000000
31
0.0
0
LINE
8
LINES
10
137.000000
20
176.000000
30
0.0
11
184.000000
21
176.000000
31
0.0
0
LINE
8
LINES
10
323.000000
20
171.000000
30
0.0
11
323.000000
21
126.000000
31
0.0
0
LINE
8
LINES
10
9.000000
20
209.000000
30
0.0
11
9.000000
21
254.000000
31
0.0
0
LINE
8
LINES
10
59.000000
20
128.000000
30
0.0
11
59.000000
21
172.000000
31
0.0
0
LINE
8
LINES
10
86.000000
20
380.000000
30
0.0
11
129.000000
21
380.000000
31
0.0
0
LINE
8
LINES
10
494.000000
20
452.000000
30
0.0
11
494.000000
21
411.000000
31
0.0
0
LINE
8
LINES
10
166.000000
20
273.000000
30
0.0
11
166.000000
21
230.000000
31
0.0
0
LINE
8
LINES
10
227.000000
20
288.000000
30
0.0
11
270.000000
21
288.000000
31
0.0
0
LINE
8
LINES
10
172.000000
20
88.000000
30
0.0
11
212.000000
21
88.000000
31
0.0
0
LINE
8
LINES
10
329.000000
20
321.000000
30
0.0
11
329.000000
21
361.000000
31
0.0
0
LINE
8
LINES
10
384.000000
20
424.000000
30
0.0
11
384.000000
21
465.000000
31
0.0
0
LINE
8
LINES
10
352.000000
20
177.000000
30
0.0
11
393.000000
21
177.000000
31
0.0
0
LINE
8
LINES
10
275.000000
20
222.000000
30
0.0
11
275.000000
21
262.000000
31
0.0
0
LINE
8
LINES
10
425.000000
20
467.000000
30
0.0
11
425.000000
21
427.000000
31
0.0
0
LINE
8
LINES
10
220.000000
20
166.000000
30
0.0
11
220.000000
21
126.000000
31
0.0
0
LINE
8
LINES
10
278.000000
20
321.000000
30
0.0
11
278.000000
21
361.000000
31
0.0
0
LINE
8
LINES
10
182.000000
20
262.000000
30
0.0
11
182.000000
21
222.000000
31
0.0
0
LINE
8
LINES
10
188.000000
20
318.000000
30
0.0
11
188.000000
21
358.000000
31
0.0
0
LINE
8
LINES
10
446.000000
20
217.000000
30
0.0
11
446.000000
21
257.000000
31
0.0
0
LINE
8
LINES
10
371.000000
20
273.000000
30
0.0
11
371.000000
21
236.000000
31
0.0
0
LINE
8
LINES
10
425.000000
20
233.000000
30
0.0
11
425.000000
21
273.000000
31
0.0
0
LINE
8
LINES
10
496.000000
20
156.000000
30
0.0
11
496.000000
21
193.000000
31
0.0
0
LINE
8
LINES
10
297.000000
20
233.000000
30
0.0
11
297.000000
21
273.000000
31
0.0
0
LINE
8
LINES
10
206.000000
20
233.000000
30
0.0
11
206.000000
21
272.000000
31
0.0
0
LINE
8
LINES
10
390.000000
20
176.000000
30
0.0
11
428.000000
21
176.000000
31
0.0
0
LINE
8
LINES
10
99.000000
20
91.000000
30
0.0
11
60.000000
21
91.000000
31
0.0
0
LINE
8
LINES
10
352.000000
20
187.000000
30
0.0
11
352.000000
21
225.000000
31
0.0
0
LINE
8
LINES
10
392.000000
20
172.000000
30
0.0
11
392.000000
21
134.000000
31
0.0
0
LINE
8
LINES
10
268.000000
20
289.000000
30
0.0
11
228.000000
21
289.000000
31
0.0
0
LINE
8
LINES
10
142.000000
20
94.000000
30
0.0
11
180.000000
21
94.000000
31
0.0
0
LINE
8
LINES
10
236.000000
20
182.000000
30
0.0
11
275.000000
21
182.000000
31
0.0
0
LINE
8
LINES
10
102.000000
20
430.000000
30
0.0
11
102.000000
21
393.000000
31
0.0
0
LINE
8
LINES
10
452.000000
20
468.000000
30
0.0
11
491.000000
21
468.000000
31
0.0
0
LINE
8
LINES
10
259.000000
20
433.000000
30
0.0
11
259.000000
21
396.000000
31
0.0
0
LINE
8
LINES
10
99.000000
20
321.000000
30
0.0
11
99.000000
21
358.000000
31
0.0
0
LINE
8
LINES
10
140.000000
20
284.000000
30
0.0
11
177.000000
21
284.000000
31
0.0
0
LINE
8
LINES
10
120.000000
20
233.000000
30
0.0
11
120.000000
21
270.000000
31
0.0
0
LINE
8
LINES
10
179.000000
20
433.000000
30
0.0
11
179.000000
21
396.000000
31
0.0
0
LINE
8
LINES
10
284.000000
20
272.000000
30
0.0
11
284.000000
21
233.000000
31
0.0
0
LINE
8
LINES
10
108.000000
20
270.000000
30
0.0
11
108.000000
21
233.000000
31
0.0
0
LINE
8
LINES
10
211.000000
20
270.000000
30
0.0
11
211.000000
21
233.000000
31
0.0
0
LINE
8
LINES
10
364.000000
20
184.000000
30
0.0
11
401.000000
21
184.000000
31
0.0
0
LINE
8
LINES
10
300.000000
20
272.000000
30
0.0
11
300.000000
21
236.000000
31
0.0
0
LINE
8
LINES
10
142.000000
20
460.000000
30
0.0
11
179.000000
21
460.000000
31
0.0
0
LINE
8
LINES
10
312.000000
20
233.000000
30
0.0
11
312.000000
21
270.000000
31
0.0
0
LINE
8
LINES
10
440.000000
20
142.000000
30
0.0
11
440.000000
21
179.000000
31
0.0
0
LINE
8
LINES
10
414.000000
20
273.000000
30
0.0
11
414.000000
21
236.000000
31
0.0
0
LINE
8
LINES
10
409.000000
20
238.000000
30
0.0
11
409.000000
21
273.000000
31
0.0
0
LINE
8
LINES
10
124.000000
20
268.000000
30
0.0
11
124.000000
21
233.000000
31
0.0
0
LINE
8
LINES
10
276.000000
20
171.000000
30
0.0
11
276.000000
21
134.000000
31
0.0
0
LINE
8
LINES
10
422.000000
20
425.000000
30
0.0
11
387.000000
21
422.000000
31
0.0
0
LINE
8
LINES
10
131.000000
20
233.000000
30
0.0
11
131.000000
21
268.000000
31
0.0
0
LINE
8
LINES
10
24.000000
20
35.000000
30
0.0
11
24.000000
21
1.000000
31
0.0
0
LINE
8
LINES
10
400.000000
20
273.000000
30
0.0
11
400.000000
21
238.000000
31
0.0
0
LINE
8
LINES
10
195.000000
20
270.000000
30
0.0
11
195.000000
21
236.000000
31
0.0
0
LINE
8
LINES
10
235.000000
20
232.000000
30
0.0
11
235.000000
21
267.000000
31
0.0
0
LINE
8
LINES
10
352.000000
20
131.000000
30
0.0
11
352.000000
21
166.000000
31
0.0
0
LINE
8
LINES
10
270.000000
20
233.000000
30
0.0
11
270.000000
21
268.000000
31
0.0
0
LINE
8
LINES
10
494.000000
20
188.000000
30
0.0
11
494.000000
21
153.000000
31
0.0
0
LINE
8
LINES
10
22.000000
20
169.000000
30
0.0
11
22.000000
21
203.000000
31
0.0
0
LINE
8
LINES
10
92.000000
20
232.000000
30
0.0
11
92.000000
21
265.000000
31
0.0
0
LINE
8
LINES
10
147.000000
20
232.000000
30
0.0
11
147.000000
21
265.000000
31
0.0
0
LINE
8
LINES
10
179.000000
20
232.000000
30
0.0
11
179.000000
21
265.000000
31
0.0
0
LINE
8
LINES
10
436.000000
20
331.000000
30
0.0
11
440.000000
21
363.000000
31
0.0
0
LINE
8
LINES
10
57.000000
20
1.000000
30
0.0
11
57.000000
21
33.000000
31
0.0
0
LINE
8
LINES
10
332.000000
20
425.000000
30
0.0
11
364.000000
21
425.000000
31
0.0
0
LINE
8
LINES
10
187.000000
20
275.000000
30
0.0
11
219.000000
21
275.000000
31
0.0
0
LINE
8
LINES
10
278.000000
20
275.000000
30
0.0
11
310.000000
21
275.000000
31
0.0
0
LINE
8
LINES
10
288.000000
20
238.000000
30
0.0
11
288.000000
21
270.000000
31
0.0
0
LINE
8
LINES
10
332.000000
20
414.000000
30
0.0
11
364.000000
21
414.000000
31
0.0
0
LINE
8
LINES
10
134.000000
20
264.000000
30
0.0
11
134.000000
21
232.000000
31
0.0
0
LINE
8
LINES
10
291.000000
20
270.000000
30
0.0
11
291.000000
21
238.000000
31
0.0
0
LINE
8
LINES
10
3.000000
20
230.000000
30
0.0
11
3.000000
21
262.000000
31
0.0
0
LINE
8
LINES
10
222.000000
20
265.000000
30
0.0
11
222.000000
21
233.000000
31
0.0
0
LINE
8
LINES
10
313.000000
20
267.000000
30
0.0
11
313.000000
21
233.000000
31
0.0
0
LINE
8
LINES
10
430.000000
20
312.000000
30
0.0
11
462.000000
21
312.000000
31
0.0
0
LINE
8
LINES
10
97.000000
20
347.000000
30
0.0
11
97.000000
21
313.000000
31
0.0
0
LINE
8
LINES
10
19.000000
20
32.000000
30
0.0
11
12.000000
21
0.000000
31
0.0
0
LINE
8
LINES
10
16.000000
20
1.000000
30
0.0
11
22.000000
21
32.000000
31
0.0
0
LINE
8
LINES
10
398.000000
20
211.000000
30
0.0
11
430.000000
21
217.000000
31
0.0
0
LINE
8
LINES
10
281.000000
20
310.000000
30
0.0
11
312.000000
21
310.000000
31
0.0
0
LINE
8
LINES
10
169.000000
20
358.000000
30
0.0
11
169.000000
21
328.000000
31
0.0
0
LINE
8
LINES
10
396.000000
20
313.000000
30
0.0
11
428.000000
21
313.000000
31
0.0
0
LINE
8
LINES
10
219.000000
20
278.000000
30
0.0
11
188.000000
21
278.000000
31
0.0
0
LINE
8
LINES
10
363.000000
20
427.000000
30
0.0
11
332.000000
21
427.000000
31
0.0
0
LINE
8
LINES
10
363.000000
20
456.000000
30
0.0
11
332.000000
21
456.000000
31
0.0
0
LINE
8
LINES
10
30.000000
20
416.000000
30
0.0
11
30.000000
21
446.000000
31
0.0
0
LINE
8
LINES
10
393.000000
20
278.000000
30
0.0
11
424.000000
21
278.000000
31
0.0
0
LINE
8
LINES
10
232.000000
20
176.000000
30
0.0
11
262.000000
21
176.000000
31
0.0
0
LINE
8
LINES
10
332.000000
20
454.000000
30
0.0
11
363.000000
21
454.000000
31
0.0
0
LINE
8
LINES
10
432.000000
20
289.000000
30
0.0
11
462.000000
21
289.000000
31
0.0
0
LINE
8
LINES
10
92.000000
20
137.000000
30
0.0
11
64.000000
21
128.000000
31
0.0
0
LINE
8
LINES
10
502.000000
20
187.000000
30
0.0
11
499.000000
21
156.000000
31
0.0
0
LINE
8
LINES
10
193.000000
20
208.000000
30
0.0
11
222.000000
21
211.000000
31
0.0
0
LINE
8
LINES
10
308.000000
20
280.000000
30
0.0
11
278.000000
21
280.000000
31
0.0
0
LINE
8
LINES
10
281.000000
20
233.000000
30
0.0
11
310.000000
21
233.000000
31
0.0
0
LINE
8
LINES
10
332.000000
20
433.000000
30
0.0
11
361.000000
21
433.000000
31
0.0
0
LINE
8
LINES
10
491.000000
20
198.000000
30
0.0
11
491.000000
21
227.000000
31
0.0
0
LINE
8
LINES
10
462.000000
20
292.000000
30
0.0
11
433.000000
21
292.000000
31
0.0
0
LINE
8
LINES
10
424.000000
20
281.000000
30
0.0
11
393.000000
21
281.000000
31
0.0
0
LINE
8
LINES
10
99.000000
20
273.000000
30
0.0
11
129.000000
21
273.000000
31
0.0
0
LINE
8
LINES
10
332.000000
20
406.000000
30
0.0
11
361.000000
21
406.000000
31
0.0
0
LINE
8
LINES
10
145.000000
20
152.000000
30
0.0
11
145.000000
21
121.000000
31
0.0
0
LINE
8
LINES
10
60.000000
20
94.000000
30
0.0
11
91.000000
21
94.000000
31
0.0
0
LINE
8
LINES
10
182.000000
20
328.000000
30
0.0
11
182.000000
21
358.000000
31
0.0
0
LINE
8
LINES
10
384.000000
20
291.000000
30
0.0
11
353.000000
21
291.000000
31
0.0
0
LINE
8
LINES
10
353.000000
20
289.000000
30
0.0
11
384.000000
21
289.000000
31
0.0
0
LINE
8
LINES
10
238.000000
20
249.000000
30
0.0
11
238.000000
21
219.000000
31
0.0
0
ENDSEC
0
EOF
