0
SECTION
2
ENTITIES
0
LWPOLYLINE
8
FACADE_OUTLINE
90
4
70
1
10
0.000000
20
0.000000
10
529.000000
20
0.000000
10
529.000000
20
365.000000
10
0.000000
20
365.000000
0
LINE
8
LINES
10
32.000000
20
20.000000
30
0.0
11
504.000000
21
20.000000
31
0.0
0
LINE
8
LINES
10
28.000000
20
272.000000
30
0.0
11
496.000000
21
272.000000
31
0.0
0
LINE
8
LINES
10
504.000000
20
28.000000
30
0.0
11
40.000000
21
28.000000
31
0.0
0
LINE
8
LINES
10
504.000000
20
20.000000
30
0.0
11
92.000000
21
20.000000
31
0.0
0
LINE
8
LINES
10
40.000000
20
92.000000
30
0.0
11
40.000000
21
260.000000
31
0.0
0
LINE
8
LINES
10
24.000000
20
8.000000
30
0.0
11
164.000000
21
8.000000
31
0.0
0
LINE
8
LINES
10
504.000000
20
152.000000
30
0.0
11
504.000000
21
272.000000
31
0.0
0
LINE
8
LINES
10
56.000000
20
16.000000
30
0.0
11
168.000000
21
16.000000
31
0.0
0
LINE
8
LINES
10
392.000000
20
16.000000
30
0.0
11
504.000000
21
16.000000
31
0.0
0
LINE
8
LINES
10
168.000000
20
156.000000
30
0.0
11
64.000000
21
156.000000
31
0.0
0
LINE
8
LINES
10
208.000000
20
80.000000
30
0.0
11
104.000000
21
80.000000
31
0.0
0
LINE
8
LINES
10
336.000000
20
200.000000
30
0.0
11
240.000000
21
200.000000
31
0.0
0
LINE
8
LINES
10
376.000000
20
292.000000
30
0.0
11
284.000000
21
292.000000
31
0.0
0
LINE
8
LINES
10
472.000000
20
296.000000
30
0.0
11
392.000000
21
296.000000
31
0.0
0
LINE
8
LINES
10
476.000000
20
284.000000
30
0.0
11
400.000000
21
284.000000
31
0.0
0
LINE
8
LINES
10
488.000000
20
200.000000
30
0.0
11
416.000000
21
200.000000
31
0.0
0
LINE
8
LINES
10
248.000000
20
340.000000
30
0.0
11
320.000000
21
340.000000
31
0.0
0
LINE
8
LINES
10
424.000000
20
164.000000
30
0.0
11
488.000000
21
164.000000
31
0.0
0
LINE
8
LINES
10
280.000000
20
264.000000
30
0.0
11
212.000000
21
264.000000
31
0.0
0
LINE
8
LINES
10
516.000000
20
152.000000
30
0.0
11
516.000000
21
220.000000
31
0.0
0
LINE
8
LINES
10
336.000000
20
136.000000
30
0.0
11
272.000000
21
136.000000
31
0.0
0
LINE
8
LINES
10
348.000000
20
80.000000
30
0.0
11
284.000000
21
80.000000
31
0.0
0
LINE
8
LINES
10
344.000000
20
216.000000
30
0.0
11
408.000000
21
216.000000
31
0.0
0
LINE
8
LINES
10
204.000000
20
16.000000
30
0.0
11
268.000000
21
16.000000
31
0.0
0
LINE
8
LINES
10
524.000000
20
160.000000
30
0.0
11
524.000000
21
220.000000
31
0.0
0
LINE
8
LINES
10
332.000000
20
16.000000
30
0.0
11
392.000000
21
16.000000
31
0.0
0
LINE
8
LINES
10
188.000000
20
224.000000
30
0.0
11
248.000000
21
224.000000
31
0.0
0
LINE
8
LINES
10
188.000000
20
44.000000
30
0.0
11
248.000000
21
44.000000
31
0.0
0
LINE
8
LINES
10
188.000000
20
164.000000
30
0.0
11
248.000000
21
164.000000
31
0.0
0
LINE
8
LINES
10
240.000000
20
132.000000
30
0.0
11
180.000000
21
132.000000
31
0.0
0
LINE
8
LINES
10
472.000000
20
132.000000
30
0.0
11
416.000000
21
132.000000
31
0.0
0
LINE
8
LINES
10
424.000000
20
364.000000
30
0.0
11
480.000000
21
364.000000
31
0.0
0
LINE
8
LINES
10
308.000000
20
96.000000
30
0.0
11
368.000000
21
96.000000
31
0.0
0
LINE
8
LINES
10
308.000000
20
44.000000
30
0.0
11
368.000000
21
44.000000
31
0.0
0
LINE
8
LINES
10
72.000000
20
44.000000
30
0.0
11
132.000000
21
44.000000
31
0.0
0
LINE
8
LINES
10
72.000000
20
96.000000
30
0.0
11
132.000000
21
96.000000
31
0.0
0
LINE
8
LINES
10
72.000000
20
164.000000
30
0.0
11
132.000000
21
164.000000
31
0.0
0
LINE
8
LINES
10
408.000000
20
160.000000
30
0.0
11
352.000000
21
160.000000
31
0.0
0
LINE
8
LINES
10
444.000000
20
264.000000
30
0.0
11
500.000000
21
264.000000
31
0.0
0
LINE
8
LINES
10
272.000000
20
16.000000
30
0.0
11
328.000000
21
16.000000
31
0.0
0
LINE
8
LINES
10
344.000000
20
144.000000
30
0.0
11
400.000000
21
144.000000
31
0.0
0
LINE
8
LINES
10
528.000000
20
280.000000
30
0.0
11
528.000000
21
224.000000
31
0.0
0
LINE
8
LINES
10
112.000000
20
264.000000
30
0.0
11
56.000000
21
264.000000
31
0.0
0
LINE
8
LINES
10
80.000000
20
16.000000
30
0.0
11
28.000000
21
16.000000
31
0.0
0
LINE
8
LINES
10
508.000000
20
124.000000
30
0.0
11
508.000000
21
68.000000
31
0.0
0
LINE
8
LINES
10
416.000000
20
92.000000
30
0.0
11
468.000000
21
92.000000
31
0.0
0
LINE
8
LINES
10
180.000000
20
220.000000
30
0.0
11
232.000000
21
220.000000
31
0.0
0
LINE
8
LINES
10
416.000000
20
220.000000
30
0.0
11
468.000000
21
220.000000
31
0.0
0
LINE
8
LINES
10
424.000000
20
48.000000
30
0.0
11
480.000000
21
48.000000
31
0.0
0
LINE
8
LINES
10
188.000000
20
96.000000
30
0.0
11
240.000000
21
96.000000
31
0.0
0
LINE
8
LINES
10
180.000000
20
92.000000
30
0.0
11
232.000000
21
92.000000
31
0.0
0
LINE
8
LINES
10
180.000000
20
156.000000
30
0.0
11
232.000000
21
156.000000
31
0.0
0
LINE
8
LINES
10
56.000000
20
264.000000
30
0.0
11
112.000000
21
264.000000
31
0.0
0
LINE
8
LINES
10
172.000000
20
296.000000
30
0.0
11
120.000000
21
296.000000
31
0.0
0
LINE
8
LINES
10
300.000000
20
40.000000
30
0.0
11
352.000000
21
40.000000
31
0.0
0
LINE
8
LINES
10
232.000000
20
160.000000
30
0.0
11
180.000000
21
160.000000
31
0.0
0
LINE
8
LINES
10
472.000000
20
336.000000
30
0.0
11
420.000000
21
336.000000
31
0.0
0
LINE
8
LINES
10
500.000000
20
196.000000
30
0.0
11
500.000000
21
144.000000
31
0.0
0
LINE
8
LINES
10
424.000000
20
100.000000
30
0.0
11
476.000000
21
100.000000
31
0.0
0
LINE
8
LINES
10
348.000000
20
160.000000
30
0.0
11
296.000000
21
160.000000
31
0.0
0
LINE
8
LINES
10
180.000000
20
40.000000
30
0.0
11
232.000000
21
40.000000
31
0.0
0
LINE
8
LINES
10
504.000000
20
72.000000
30
0.0
11
504.000000
21
124.000000
31
0.0
0
LINE
8
LINES
10
112.000000
20
144.000000
30
0.0
11
160.000000
21
144.000000
31
0.0
0
LINE
8
LINES
10
116.000000
20
40.000000
30
0.0
11
64.000000
21
40.000000
31
0.0
0
LINE
8
LINES
10
96.000000
20
204.000000
30
0.0
11
48.000000
21
204.000000
31
0.0
0
LINE
8
LINES
10
12.000000
20
76.000000
30
0.0
11
64.000000
21
76.000000
31
0.0
0
LINE
8
LINES
10
416.000000
20
40.000000
30
0.0
11
464.000000
21
40.000000
31
0.0
0
LINE
8
LINES
10
464.000000
20
44.000000
30
0.0
11
416.000000
21
44.000000
31
0.0
0
LINE
8
LINES
10
64.000000
20
40.000000
30
0.0
11
112.000000
21
40.000000
31
0.0
0
LINE
8
LINES
10
308.000000
20
164.000000
30
0.0
11
356.000000
21
164.000000
31
0.0
0
LINE
8
LINES
10
228.000000
20
40.000000
30
0.0
11
180.000000
21
40.000000
31
0.0
0
LINE
8
LINES
10
464.000000
20
160.000000
30
0.0
11
416.000000
21
160.000000
31
0.0
0
LINE
8
LINES
10
228.000000
20
224.000000
30
0.0
11
180.000000
21
224.000000
31
0.0
0
LINE
8
LINES
10
520.000000
20
208.000000
30
0.0
11
520.000000
21
156.000000
31
0.0
0
LINE
8
LINES
10
464.000000
20
96.000000
30
0.0
11
416.000000
21
96.000000
31
0.0
0
LINE
8
LINES
10
300.000000
20
92.000000
30
0.0
11
348.000000
21
92.000000
31
0.0
0
LINE
8
LINES
10
64.000000
20
216.000000
30
0.0
11
112.000000
21
216.000000
31
0.0
0
LINE
8
LINES
10
132.000000
20
160.000000
30
0.0
11
132.000000
21
208.000000
31
0.0
0
LINE
8
LINES
10
280.000000
20
80.000000
30
0.0
11
232.000000
21
80.000000
31
0.0
0
LINE
8
LINES
10
416.000000
20
160.000000
30
0.0
11
464.000000
21
160.000000
31
0.0
0
LINE
8
LINES
10
296.000000
20
160.000000
30
0.0
11
344.000000
21
160.000000
31
0.0
0
LINE
8
LINES
10
348.000000
20
40.000000
30
0.0
11
300.000000
21
40.000000
31
0.0
0
LINE
8
LINES
10
228.000000
20
96.000000
30
0.0
11
180.000000
21
96.000000
31
0.0
0
LINE
8
LINES
10
348.000000
20
96.000000
30
0.0
11
300.000000
21
96.000000
31
0.0
0
LINE
8
LINES
10
112.000000
20
224.000000
30
0.0
11
64.000000
21
224.000000
31
0.0
0
LINE
8
LINES
10
256.000000
20
96.000000
30
0.0
11
300.000000
21
96.000000
31
0.0
0
LINE
8
LINES
10
372.000000
20
44.000000
30
0.0
11
420.000000
21
44.000000
31
0.0
0
LINE
8
LINES
10
64.000000
20
92.000000
30
0.0
11
112.000000
21
92.000000
31
0.0
0
LINE
8
LINES
10
352.000000
20
264.000000
30
0.0
11
304.000000
21
264.000000
31
0.0
0
LINE
8
LINES
10
392.000000
20
220.000000
30
0.0
11
348.000000
21
220.000000
31
0.0
0
LINE
8
LINES
10
396.000000
20
352.000000
30
0.0
11
440.000000
21
352.000000
31
0.0
0
LINE
8
LINES
10
64.000000
20
156.000000
30
0.0
11
108.000000
21
156.000000
31
0.0
0
LINE
8
LINES
10
296.000000
20
216.000000
30
0.0
11
344.000000
21
216.000000
31
0.0
0
LINE
8
LINES
10
368.000000
20
164.000000
30
0.0
11
368.000000
21
208.000000
31
0.0
0
LINE
8
LINES
10
264.000000
20
296.000000
30
0.0
11
248.000000
21
336.000000
31
0.0
0
LINE
8
LINES
10
136.000000
20
44.000000
30
0.0
11
184.000000
21
44.000000
31
0.0
0
LINE
8
LINES
10
372.000000
20
164.000000
30
0.0
11
416.000000
21
164.000000
31
0.0
0
LINE
8
LINES
10
112.000000
20
96.000000
30
0.0
11
64.000000
21
96.000000
31
0.0
0
LINE
8
LINES
10
96.000000
20
136.000000
30
0.0
11
52.000000
21
136.000000
31
0.0
0
LINE
8
LINES
10
236.000000
20
200.000000
30
0.0
11
192.000000
21
200.000000
31
0.0
0
LINE
8
LINES
10
376.000000
20
96.000000
30
0.0
11
416.000000
21
96.000000
31
0.0
0
LINE
8
LINES
10
368.000000
20
100.000000
30
0.0
11
368.000000
21
144.000000
31
0.0
0
LINE
8
LINES
10
140.000000
20
96.000000
30
0.0
11
184.000000
21
96.000000
31
0.0
0
LINE
8
LINES
10
256.000000
20
44.000000
30
0.0
11
300.000000
21
44.000000
31
0.0
0
LINE
8
LINES
10
368.000000
20
328.000000
30
0.0
11
324.000000
21
328.000000
31
0.0
0
LINE
8
LINES
10
404.000000
20
340.000000
30
0.0
11
360.000000
21
340.000000
31
0.0
0
LINE
8
LINES
10
484.000000
20
360.000000
30
0.0
11
528.000000
21
360.000000
31
0.0
0
LINE
8
LINES
10
140.000000
20
160.000000
30
0.0
11
184.000000
21
160.000000
31
0.0
0
LINE
8
LINES
10
304.000000
20
264.000000
30
0.0
11
348.000000
21
264.000000
31
0.0
0
LINE
8
LINES
10
524.000000
20
220.000000
30
0.0
11
524.000000
21
264.000000
31
0.0
0
LINE
8
LINES
10
340.000000
20
224.000000
30
0.0
11
296.000000
21
224.000000
31
0.0
0
LINE
8
LINES
10
144.000000
20
336.000000
30
0.0
11
184.000000
21
336.000000
31
0.0
0
LINE
8
LINES
10
0.000000
20
344.000000
30
0.0
11
40.000000
21
344.000000
31
0.0
0
LINE
8
LINES
10
320.000000
20
332.000000
30
0.0
11
360.000000
21
332.000000
31
0.0
0
LINE
8
LINES
10
268.000000
20
12.000000
30
0.0
11
228.000000
21
12.000000
31
0.0
0
LINE
8
LINES
10
248.000000
20
220.000000
30
0.0
11
288.000000
21
220.000000
31
0.0
0
LINE
8
LINES
10
48.000000
20
200.000000
30
0.0
11
48.000000
21
160.000000
31
0.0
0
LINE
8
LINES
10
508.000000
20
192.000000
30
0.0
11
508.000000
21
152.000000
31
0.0
0
LINE
8
LINES
10
0.000000
20
96.000000
30
0.0
11
40.000000
21
96.000000
31
0.0
0
LINE
8
LINES
10
32.000000
20
304.000000
30
0.0
11
16.000000
21
340.000000
31
0.0
0
LINE
8
LINES
10
132.000000
20
232.000000
30
0.0
11
132.000000
21
272.000000
31
0.0
0
LINE
8
LINES
10
184.000000
20
132.000000
30
0.0
11
224.000000
21
132.000000
31
0.0
0
LINE
8
LINES
10
72.000000
20
76.000000
30
0.0
11
108.000000
21
76.000000
31
0.0
0
LINE
8
LINES
10
208.000000
20
340.000000
30
0.0
11
244.000000
21
340.000000
31
0.0
0
LINE
8
LINES
10
416.000000
20
80.000000
30
0.0
11
380.000000
21
80.000000
31
0.0
0
LINE
8
LINES
10
284.000000
20
224.000000
30
0.0
11
248.000000
21
224.000000
31
0.0
0
LINE
8
LINES
10
264.000000
20
160.000000
30
0.0
11
264.000000
21
200.000000
31
0.0
0
LINE
8
LINES
10
344.000000
20
300.000000
30
0.0
11
376.000000
21
316.000000
31
0.0
0
LINE
8
LINES
10
12.000000
20
216.000000
30
0.0
11
12.000000
21
180.000000
31
0.0
0
LINE
8
LINES
10
272.000000
20
200.000000
30
0.0
11
272.000000
21
164.000000
31
0.0
0
LINE
8
LINES
10
480.000000
20
228.000000
30
0.0
11
480.000000
21
264.000000
31
0.0
0
LINE
8
LINES
10
68.000000
20
164.000000
30
0.0
11
68.000000
21
200.000000
31
0.0
0
LINE
8
LINES
10
128.000000
20
92.000000
30
0.0
11
168.000000
21
92.000000
31
0.0
0
LINE
8
LINES
10
520.000000
20
32.000000
30
0.0
11
520.000000
21
68.000000
31
0.0
0
LINE
8
LINES
10
32.000000
20
216.000000
30
0.0
11
32.000000
21
184.000000
31
0.0
0
LINE
8
LINES
10
512.000000
20
32.000000
30
0.0
11
512.000000
21
68.000000
31
0.0
0
LINE
8
LINES
10
360.000000
20
340.000000
30
0.0
11
328.000000
21
340.000000
31
0.0
0
LINE
8
LINES
10
152.000000
20
12.000000
30
0.0
11
120.000000
21
12.000000
31
0.0
0
LINE
8
LINES
10
36.000000
20
176.000000
30
0.0
11
0.000000
21
176.000000
31
0.0
0
LINE
8
LINES
10
252.000000
20
164.000000
30
0.0
11
252.000000
21
200.000000
31
0.0
0
LINE
8
LINES
10
132.000000
20
40.000000
30
0.0
11
168.000000
21
40.000000
31
0.0
0
LINE
8
LINES
10
280.000000
20
96.000000
30
0.0
11
248.000000
21
96.000000
31
0.0
0
LINE
8
LINES
10
164.000000
20
96.000000
30
0.0
11
128.000000
21
96.000000
31
0.0
0
LINE
8
LINES
10
304.000000
20
164.000000
30
0.0
11
304.000000
21
200.000000
31
0.0
0
LINE
8
LINES
10
400.000000
20
40.000000
30
0.0
11
364.000000
21
40.000000
31
0.0
0
LINE
8
LINES
10
248.000000
20
92.000000
30
0.0
11
284.000000
21
92.000000
31
0.0
0
LINE
8
LINES
10
284.000000
20
160.000000
30
0.0
11
248.000000
21
160.000000
31
0.0
0
LINE
8
LINES
10
444.000000
20
300.000000
30
0.0
11
476.000000
21
308.000000
31
0.0
0
LINE
8
LINES
10
500.000000
20
276.000000
30
0.0
11
500.000000
21
312.000000
31
0.0
0
LINE
8
LINES
10
280.000000
20
288.000000
30
0.0
11
248.000000
21
288.000000
31
0.0
0
LINE
8
LINES
10
248.000000
20
156.000000
30
0.0
11
280.000000
21
156.000000
31
0.0
0
LINE
8
LINES
10
72.000000
20
48.000000
30
0.0
11
72.000000
21
80.000000
31
0.0
0
LINE
8
LINES
10
452.000000
20
228.000000
30
0.0
11
452.000000
21
264.000000
31
0.0
0
LINE
8
LINES
10
488.000000
20
168.000000
30
0.0
11
488.000000
21
200.000000
31
0.0
0
LINE
8
LINES
10
368.000000
20
40.000000
30
0.0
11
400.000000
21
40.000000
31
0.0
0
LINE
8
LINES
10
528.000000
20
200.000000
30
0.0
11
528.000000
21
168.000000
31
0.0
0
LINE
8
LINES
10
248.000000
20
40.000000
30
0.0
11
280.000000
21
40.000000
31
0.0
0
LINE
8
LINES
10
184.000000
20
164.000000
30
0.0
11
184.000000
21
200.000000
31
0.0
0
LINE
8
LINES
10
400.000000
20
96.000000
30
0.0
11
364.000000
21
96.000000
31
0.0
0
LINE
8
LINES
10
364.000000
20
92.000000
30
0.0
11
400.000000
21
92.000000
31
0.0
0
LINE
8
LINES
10
280.000000
20
136.000000
30
0.0
11
248.000000
21
136.000000
31
0.0
0
LINE
8
LINES
10
416.000000
20
312.000000
30
0.0
11
448.000000
21
300.000000
31
0.0
0
LINE
8
LINES
10
504.000000
20
88.000000
30
0.0
11
468.000000
21
88.000000
31
0.0
0
LINE
8
LINES
10
52.000000
20
128.000000
30
0.0
11
52.000000
21
96.000000
31
0.0
0
LINE
8
LINES
10
200.000000
20
228.000000
30
0.0
11
200.000000
21
260.000000
31
0.0
0
LINE
8
LINES
10
100.000000
20
228.000000
30
0.0
11
100.000000
21
260.000000
31
0.0
0
LINE
8
LINES
10
104.000000
20
196.000000
30
0.0
11
104.000000
21
164.000000
31
0.0
0
LINE
8
LINES
10
88.000000
20
164.000000
30
0.0
11
88.000000
21
196.000000
31
0.0
0
LINE
8
LINES
10
420.000000
20
336.000000
30
0.0
11
432.000000
21
304.000000
31
0.0
0
LINE
8
LINES
10
220.000000
20
200.000000
30
0.0
11
220.000000
21
168.000000
31
0.0
0
LINE
8
LINES
10
420.000000
20
168.000000
30
0.0
11
420.000000
21
200.000000
31
0.0
0
LINE
8
LINES
10
420.000000
20
228.000000
30
0.0
11
420.000000
21
260.000000
31
0.0
0
LINE
8
LINES
10
304.000000
20
48.000000
30
0.0
11
304.000000
21
80.000000
31
0.0
0
LINE
8
LINES
10
164.000000
20
40.000000
30
0.0
11
132.000000
21
40.000000
31
0.0
0
LINE
8
LINES
10
280.000000
20
40.000000
30
0.0
11
248.000000
21
40.000000
31
0.0
0
LINE
8
LINES
10
252.000000
20
132.000000
30
0.0
11
252.000000
21
96.000000
31
0.0
0
LINE
8
LINES
10
308.000000
20
224.000000
30
0.0
11
340.000000
21
224.000000
31
0.0
0
LINE
8
LINES
10
240.000000
20
96.000000
30
0.0
11
240.000000
21
132.000000
31
0.0
0
LINE
8
LINES
10
520.000000
20
260.000000
30
0.0
11
520.000000
21
228.000000
31
0.0
0
LINE
8
LINES
10
184.000000
20
96.000000
30
0.0
11
184.000000
21
132.000000
31
0.0
0
LINE
8
LINES
10
480.000000
20
308.000000
30
0.0
11
472.000000
21
336.000000
31
0.0
0
LINE
8
LINES
10
176.000000
20
324.000000
30
0.0
11
200.000000
21
304.000000
31
0.0
0
LINE
8
LINES
10
84.000000
20
228.000000
30
0.0
11
84.000000
21
256.000000
31
0.0
0
LINE
8
LINES
10
504.000000
20
0.000000
30
0.0
11
504.000000
21
32.000000
31
0.0
0
LINE
8
LINES
10
480.000000
20
48.000000
30
0.0
11
480.000000
21
80.000000
31
0.0
0
LINE
8
LINES
10
240.000000
20
196.000000
30
0.0
11
240.000000
21
168.000000
31
0.0
0
LINE
8
LINES
10
456.000000
20
328.000000
30
0.0
11
424.000000
21
328.000000
31
0.0
0
LINE
8
LINES
10
388.000000
20
168.000000
30
0.0
11
388.000000
21
200.000000
31
0.0
0
LINE
8
LINES
10
216.000000
20
228.000000
30
0.0
11
216.000000
21
260.000000
31
0.0
0
LINE
8
LINES
10
156.000000
20
196.000000
30
0.0
11
156.000000
21
164.000000
31
0.0
0
LINE
8
LINES
10
136.000000
20
48.000000
30
0.0
11
136.000000
21
76.000000
31
0.0
0
LINE
8
LINES
10
244.000000
20
340.000000
30
0.0
11
256.000000
21
308.000000
31
0.0
0
LINE
8
LINES
10
476.000000
20
100.000000
30
0.0
11
476.000000
21
132.000000
31
0.0
0
LINE
8
LINES
10
404.000000
20
228.000000
30
0.0
11
404.000000
21
256.000000
31
0.0
0
LINE
8
LINES
10
68.000000
20
100.000000
30
0.0
11
68.000000
21
132.000000
31
0.0
0
LINE
8
LINES
10
0.000000
20
156.000000
30
0.0
11
32.000000
21
156.000000
31
0.0
0
LINE
8
LINES
10
32.000000
20
164.000000
30
0.0
11
0.000000
21
164.000000
31
0.0
0
LINE
8
LINES
10
0.000000
20
168.000000
30
0.0
11
32.000000
21
168.000000
31
0.0
0
LINE
8
LINES
10
208.000000
20
256.000000
30
0.0
11
208.000000
21
228.000000
31
0.0
0
LINE
8
LINES
10
92.000000
20
196.000000
30
0.0
11
92.000000
21
168.000000
31
0.0
0
LINE
8
LINES
10
248.000000
20
228.000000
30
0.0
11
248.000000
21
256.000000
31
0.0
0
LINE
8
LINES
10
368.000000
20
48.000000
30
0.0
11
368.000000
21
80.000000
31
0.0
0
LINE
8
LINES
10
252.000000
20
48.000000
30
0.0
11
252.000000
21
76.000000
31
0.0
0
LINE
8
LINES
10
128.000000
20
216.000000
30
0.0
11
156.000000
21
216.000000
31
0.0
0
LINE
8
LINES
10
100.000000
20
168.000000
30
0.0
11
100.000000
21
196.000000
31
0.0
0
LINE
8
LINES
10
436.000000
20
168.000000
30
0.0
11
436.000000
21
200.000000
31
0.0
0
LINE
8
LINES
10
220.000000
20
260.000000
30
0.0
11
220.000000
21
228.000000
31
0.0
0
LINE
8
LINES
10
320.000000
20
232.000000
30
0.0
11
320.000000
21
260.000000
31
0.0
0
LINE
8
LINES
10
420.000000
20
100.000000
30
0.0
11
420.000000
21
132.000000
31
0.0
0
LINE
8
LINES
10
108.000000
20
76.000000
30
0.0
11
108.000000
21
48.000000
31
0.0
0
LINE
8
LINES
10
184.000000
20
48.000000
30
0.0
11
184.000000
21
76.000000
31
0.0
0
LINE
8
LINES
10
304.000000
20
104.000000
30
0.0
11
304.000000
21
132.000000
31
0.0
0
LINE
8
LINES
10
404.000000
20
168.000000
30
0.0
11
404.000000
21
196.000000
31
0.0
0
ENDSEC
0
EOF
