0
SECTION
2
ENTITIES
0
LWPOLYLINE
8
FACADE_OUTLINE
90
4
70
1
10
0.000000
20
0.000000
10
573.000000
20
0.000000
10
573.000000
20
362.000000
10
0.000000
20
362.000000
0
LWPOLYLINE
8
WINDOWS
90
4
70
1
10
9.000000
20
0.000000
10
549.000000
20
0.000000
10
549.000000
20
261.000000
10
9.000000
20
261.000000
0
LWPOLYLINE
8
WINDOWS
90
4
70
1
10
54.000000
20
27.000000
10
207.000000
20
27.000000
10
207.000000
20
207.000000
10
54.000000
20
207.000000
0
LWPOLYLINE
8
WINDOWS
90
4
70
1
10
315.000000
20
27.000000
10
360.000000
20
27.000000
10
360.000000
20
54.000000
10
315.000000
20
54.000000
0
LWPOLYLINE
8
WINDOWS
90
4
70
1
10
288.000000
20
27.000000
10
306.000000
20
27.000000
10
306.000000
20
54.000000
10
288.000000
20
54.000000
0
LWPOLYLINE
8
WINDOWS
90
4
70
1
10
216.000000
20
27.000000
10
252.000000
20
27.000000
10
252.000000
20
63.000000
10
216.000000
20
63.000000
0
LWPOLYLINE
8
WINDOWS
90
4
70
1
10
153.000000
20
36.000000
10
171.000000
20
36.000000
10
171.000000
20
72.000000
10
153.000000
20
72.000000
0
LWPOLYLINE
8
WINDOWS
90
4
70
1
10
117.000000
20
54.000000
10
144.000000
20
54.000000
10
144.000000
20
72.000000
10
117.000000
20
72.000000
0
LWPOLYLINE
8
WINDOWS
90
4
70
1
10
0.000000
20
63.000000
10
45.000000
20
63.000000
10
45.000000
20
117.000000
10
0.000000
20
117.000000
0
LWPOLYLINE
8
WINDOWS
90
4
70
1
10
63.000000
20
90.000000
10
189.000000
20
90.000000
10
189.000000
20
135.000000
10
63.000000
20
135.000000
0
LWPOLYLINE
8
WINDOWS
90
4
70
1
10
288.000000
20
90.000000
10
360.000000
20
90.000000
10
360.000000
20
117.000000
10
288.000000
20
117.000000
0
LWPOLYLINE
8
WINDOWS
90
4
70
1
10
387.000000
20
153.000000
10
441.000000
20
153.000000
10
441.000000
20
189.000000
10
387.000000
20
189.000000
0
LWPOLYLINE
8
WINDOWS
90
4
70
1
10
225.000000
20
153.000000
10
252.000000
20
153.000000
10
252.000000
20
189.000000
10
225.000000
20
189.000000
0
LWPOLYLINE
8
WINDOWS
90
4
70
1
10
288.000000
20
153.000000
10
306.000000
20
153.000000
10
306.000000
20
180.000000
10
288.000000
20
180.000000
0
LWPOLYLINE
8
WINDOWS
90
4
70
1
10
315.000000
20
153.000000
10
333.000000
20
153.000000
10
333.000000
20
180.000000
10
315.000000
20
180.000000
0
LWPOLYLINE
8
WINDOWS
90
4
70
1
10
63.000000
20
180.000000
10
207.000000
20
180.000000
10
207.000000
20
261.000000
10
63.000000
20
261.000000
0
LWPOLYLINE
8
WINDOWS
90
4
70
1
10
9.000000
20
198.000000
10
54.000000
20
198.000000
10
54.000000
20
261.000000
10
9.000000
20
261.000000
0
LWPOLYLINE
8
WINDOWS
90
4
70
1
10
342.000000
20
216.000000
10
351.000000
20
216.000000
10
351.000000
20
243.000000
10
342.000000
20
243.000000
0
LWPOLYLINE
8
WINDOWS
90
4
70
1
10
387.000000
20
216.000000
10
423.000000
20
216.000000
10
423.000000
20
261.000000
10
387.000000
20
261.000000
0
LWPOLYLINE
8
WINDOWS
90
4
70
1
10
459.000000
20
279.000000
10
549.000000
20
279.000000
10
549.000000
20
342.000000
10
459.000000
20
342.000000
0
LWPOLYLINE
8
WINDOWS
90
4
70
1
10
90.000000
20
279.000000
10
144.000000
20
279.000000
10
144.000000
20
315.000000
10
90.000000
20
315.000000
0
LWPOLYLINE
8
WINDOWS
90
4
70
1
10
144.000000
20
279.000000
10
198.000000
20
279.000000
10
198.000000
20
306.000000
10
144.000000
20
306.000000
0
LWPOLYLINE
8
DOORS
90
4
70
1
10
531.000000
20
18.000000
10
573.000000
20
18.000000
10
573.000000
20
261.000000
10
531.000000
20
261.000000
0
LINE
8
LINES
10
0.000000
20
261.000000
30
0.0
11
540.000000
21
261.000000
31
0.0
0
LINE
8
LINES
10
522.000000
20
9.000000
30
0.0
11
261.000000
21
9.000000
31
0.0
0
LINE
8
LINES
10
450.000000
20
18.000000
30
0.0
11
198.000000
21
18.000000
31
0.0
0
LINE
8
LINES
10
522.000000
20
18.000000
30
0.0
11
522.000000
21
261.000000
31
0.0
0
LINE
8
LINES
10
441.000000
20
81.000000
30
0.0
11
207.000000
21
81.000000
31
0.0
0
LINE
8
LINES
10
513.000000
20
261.000000
30
0.0
11
513.000000
21
18.000000
31
0.0
0
LINE
8
LINES
10
36.000000
20
0.000000
30
0.0
11
243.000000
21
0.000000
31
0.0
0
LINE
8
LINES
10
9.000000
20
324.000000
30
0.0
11
216.000000
21
324.000000
31
0.0
0
LINE
8
LINES
10
549.000000
20
207.000000
30
0.0
11
549.000000
21
9.000000
31
0.0
0
LINE
8
LINES
10
207.000000
20
81.000000
30
0.0
11
396.000000
21
81.000000
31
0.0
0
LINE
8
LINES
10
216.000000
20
333.000000
30
0.0
11
387.000000
21
333.000000
31
0.0
0
LINE
8
LINES
10
189.000000
20
324.000000
30
0.0
11
333.000000
21
324.000000
31
0.0
0
LINE
8
LINES
10
261.000000
20
0.000000
30
0.0
11
126.000000
21
0.000000
31
0.0
0
LINE
8
LINES
10
54.000000
20
135.000000
30
0.0
11
189.000000
21
135.000000
31
0.0
0
LINE
8
LINES
10
63.000000
20
72.000000
30
0.0
11
189.000000
21
72.000000
31
0.0
0
LINE
8
LINES
10
270.000000
20
342.000000
30
0.0
11
387.000000
21
342.000000
31
0.0
0
LINE
8
LINES
10
531.000000
20
252.000000
30
0.0
11
531.000000
21
144.000000
31
0.0
0
LINE
8
LINES
10
36.000000
20
153.000000
30
0.0
11
36.000000
21
252.000000
31
0.0
0
LINE
8
LINES
10
207.000000
20
324.000000
30
0.0
11
117.000000
21
324.000000
31
0.0
0
LINE
8
LINES
10
63.000000
20
207.000000
30
0.0
11
144.000000
21
207.000000
31
0.0
0
LINE
8
LINES
10
126.000000
20
81.000000
30
0.0
11
198.000000
21
81.000000
31
0.0
0
LINE
8
LINES
10
351.000000
20
54.000000
30
0.0
11
288.000000
21
54.000000
31
0.0
0
LINE
8
LINES
10
351.000000
20
117.000000
30
0.0
11
288.000000
21
117.000000
31
0.0
0
LINE
8
LINES
10
351.000000
20
180.000000
30
0.0
11
288.000000
21
180.000000
31
0.0
0
LINE
8
LINES
10
378.000000
20
333.000000
30
0.0
11
306.000000
21
333.000000
31
0.0
0
LINE
8
LINES
10
126.000000
20
9.000000
30
0.0
11
54.000000
21
9.000000
31
0.0
0
LINE
8
LINES
10
144.000000
20
207.000000
30
0.0
11
81.000000
21
207.000000
31
0.0
0
LINE
8
LINES
10
450.000000
20
315.000000
30
0.0
11
522.000000
21
315.000000
31
0.0
0
LINE
8
LINES
10
72.000000
20
315.000000
30
0.0
11
9.000000
21
315.000000
31
0.0
0
LINE
8
LINES
10
135.000000
20
198.000000
30
0.0
11
198.000000
21
198.000000
31
0.0
0
LINE
8
LINES
10
126.000000
20
18.000000
30
0.0
11
189.000000
21
18.000000
31
0.0
0
LINE
8
LINES
10
342.000000
20
279.000000
30
0.0
11
279.000000
21
279.000000
31
0.0
0
LINE
8
LINES
10
450.000000
20
72.000000
30
0.0
11
513.000000
21
72.000000
31
0.0
0
LINE
8
LINES
10
450.000000
20
135.000000
30
0.0
11
513.000000
21
135.000000
31
0.0
0
LINE
8
LINES
10
189.000000
20
27.000000
30
0.0
11
135.000000
21
27.000000
31
0.0
0
LINE
8
LINES
10
450.000000
20
9.000000
30
0.0
11
513.000000
21
9.000000
31
0.0
0
LINE
8
LINES
10
504.000000
20
27.000000
30
0.0
11
450.000000
21
27.000000
31
0.0
0
LINE
8
LINES
10
0.000000
20
306.000000
30
0.0
11
63.000000
21
306.000000
31
0.0
0
LINE
8
LINES
10
63.000000
20
81.000000
30
0.0
11
126.000000
21
81.000000
31
0.0
0
LINE
8
LINES
10
63.000000
20
18.000000
30
0.0
11
126.000000
21
18.000000
31
0.0
0
LINE
8
LINES
10
306.000000
20
216.000000
30
0.0
11
369.000000
21
216.000000
31
0.0
0
LINE
8
LINES
10
459.000000
20
288.000000
30
0.0
11
513.000000
21
288.000000
31
0.0
0
LINE
8
LINES
10
450.000000
20
81.000000
30
0.0
11
513.000000
21
81.000000
31
0.0
0
LINE
8
LINES
10
126.000000
20
27.000000
30
0.0
11
63.000000
21
27.000000
31
0.0
0
LINE
8
LINES
10
180.000000
20
72.000000
30
0.0
11
126.000000
21
72.000000
31
0.0
0
LINE
8
LINES
10
432.000000
20
126.000000
30
0.0
11
369.000000
21
126.000000
31
0.0
0
LINE
8
LINES
10
126.000000
20
144.000000
30
0.0
11
180.000000
21
144.000000
31
0.0
0
LINE
8
LINES
10
513.000000
20
270.000000
30
0.0
11
459.000000
21
270.000000
31
0.0
0
LINE
8
LINES
10
63.000000
20
144.000000
30
0.0
11
117.000000
21
144.000000
31
0.0
0
LINE
8
LINES
10
459.000000
20
198.000000
30
0.0
11
513.000000
21
198.000000
31
0.0
0
LINE
8
LINES
10
540.000000
20
324.000000
30
0.0
11
540.000000
21
270.000000
31
0.0
0
LINE
8
LINES
10
117.000000
20
81.000000
30
0.0
11
63.000000
21
81.000000
31
0.0
0
LINE
8
LINES
10
180.000000
20
144.000000
30
0.0
11
126.000000
21
144.000000
31
0.0
0
LINE
8
LINES
10
369.000000
20
117.000000
30
0.0
11
423.000000
21
117.000000
31
0.0
0
LINE
8
LINES
10
117.000000
20
144.000000
30
0.0
11
63.000000
21
144.000000
31
0.0
0
LINE
8
LINES
10
441.000000
20
180.000000
30
0.0
11
387.000000
21
180.000000
31
0.0
0
LINE
8
LINES
10
180.000000
20
351.000000
30
0.0
11
234.000000
21
351.000000
31
0.0
0
LINE
8
LINES
10
423.000000
20
324.000000
30
0.0
11
459.000000
21
288.000000
31
0.0
0
LINE
8
LINES
10
369.000000
20
180.000000
30
0.0
11
423.000000
21
180.000000
31
0.0
0
LINE
8
LINES
10
252.000000
20
216.000000
30
0.0
11
306.000000
21
216.000000
31
0.0
0
LINE
8
LINES
10
504.000000
20
153.000000
30
0.0
11
450.000000
21
153.000000
31
0.0
0
LINE
8
LINES
10
513.000000
20
72.000000
30
0.0
11
459.000000
21
72.000000
31
0.0
0
LINE
8
LINES
10
270.000000
20
279.000000
30
0.0
11
216.000000
21
279.000000
31
0.0
0
LINE
8
LINES
10
396.000000
20
279.000000
30
0.0
11
342.000000
21
279.000000
31
0.0
0
LINE
8
LINES
10
342.000000
20
324.000000
30
0.0
11
396.000000
21
324.000000
31
0.0
0
LINE
8
LINES
10
144.000000
20
270.000000
30
0.0
11
99.000000
21
270.000000
31
0.0
0
LINE
8
LINES
10
90.000000
20
270.000000
30
0.0
11
45.000000
21
270.000000
31
0.0
0
LINE
8
LINES
10
459.000000
20
144.000000
30
0.0
11
513.000000
21
144.000000
31
0.0
0
LINE
8
LINES
10
513.000000
20
135.000000
30
0.0
11
459.000000
21
135.000000
31
0.0
0
LINE
8
LINES
10
513.000000
20
207.000000
30
0.0
11
459.000000
21
207.000000
31
0.0
0
LINE
8
LINES
10
225.000000
20
342.000000
30
0.0
11
270.000000
21
342.000000
31
0.0
0
LINE
8
LINES
10
63.000000
20
252.000000
30
0.0
11
63.000000
21
207.000000
31
0.0
0
LINE
8
LINES
10
459.000000
20
279.000000
30
0.0
11
405.000000
21
279.000000
31
0.0
0
LINE
8
LINES
10
207.000000
20
279.000000
30
0.0
11
153.000000
21
279.000000
31
0.0
0
LINE
8
LINES
10
72.000000
20
36.000000
30
0.0
11
126.000000
21
36.000000
31
0.0
0
LINE
8
LINES
10
63.000000
20
153.000000
30
0.0
11
63.000000
21
198.000000
31
0.0
0
LINE
8
LINES
10
144.000000
20
36.000000
30
0.0
11
189.000000
21
36.000000
31
0.0
0
LINE
8
LINES
10
513.000000
20
27.000000
30
0.0
11
459.000000
21
27.000000
31
0.0
0
LINE
8
LINES
10
459.000000
20
207.000000
30
0.0
11
504.000000
21
207.000000
31
0.0
0
LINE
8
LINES
10
459.000000
20
27.000000
30
0.0
11
504.000000
21
27.000000
31
0.0
0
LINE
8
LINES
10
45.000000
20
54.000000
30
0.0
11
0.000000
21
54.000000
31
0.0
0
LINE
8
LINES
10
63.000000
20
198.000000
30
0.0
11
63.000000
21
144.000000
31
0.0
0
LINE
8
LINES
10
171.000000
20
333.000000
30
0.0
11
126.000000
21
333.000000
31
0.0
0
LINE
8
LINES
10
81.000000
20
198.000000
30
0.0
11
81.000000
21
153.000000
31
0.0
0
LINE
8
LINES
10
108.000000
20
315.000000
30
0.0
11
153.000000
21
315.000000
31
0.0
0
LINE
8
LINES
10
423.000000
20
216.000000
30
0.0
11
423.000000
21
261.000000
31
0.0
0
LINE
8
LINES
10
540.000000
20
153.000000
30
0.0
11
540.000000
21
198.000000
31
0.0
0
LINE
8
LINES
10
432.000000
20
63.000000
30
0.0
11
387.000000
21
63.000000
31
0.0
0
LINE
8
LINES
10
387.000000
20
54.000000
30
0.0
11
432.000000
21
54.000000
31
0.0
0
LINE
8
LINES
10
189.000000
20
153.000000
30
0.0
11
144.000000
21
153.000000
31
0.0
0
LINE
8
LINES
10
378.000000
20
342.000000
30
0.0
11
423.000000
21
342.000000
31
0.0
0
LINE
8
LINES
10
396.000000
20
216.000000
30
0.0
11
396.000000
21
261.000000
31
0.0
0
LINE
8
LINES
10
387.000000
20
261.000000
30
0.0
11
387.000000
21
216.000000
31
0.0
0
LINE
8
LINES
10
198.000000
20
27.000000
30
0.0
11
198.000000
21
72.000000
31
0.0
0
LINE
8
LINES
10
396.000000
20
279.000000
30
0.0
11
396.000000
21
315.000000
31
0.0
0
LINE
8
LINES
10
270.000000
20
189.000000
30
0.0
11
225.000000
21
189.000000
31
0.0
0
LINE
8
LINES
10
36.000000
20
117.000000
30
0.0
11
0.000000
21
99.000000
31
0.0
0
LINE
8
LINES
10
342.000000
20
279.000000
30
0.0
11
342.000000
21
315.000000
31
0.0
0
LINE
8
LINES
10
117.000000
20
36.000000
30
0.0
11
81.000000
21
36.000000
31
0.0
0
LINE
8
LINES
10
252.000000
20
63.000000
30
0.0
11
216.000000
21
63.000000
31
0.0
0
LINE
8
LINES
10
90.000000
20
153.000000
30
0.0
11
90.000000
21
198.000000
31
0.0
0
LINE
8
LINES
10
396.000000
20
315.000000
30
0.0
11
396.000000
21
279.000000
31
0.0
0
LINE
8
LINES
10
477.000000
20
288.000000
30
0.0
11
522.000000
21
288.000000
31
0.0
0
LINE
8
LINES
10
198.000000
20
243.000000
30
0.0
11
153.000000
21
243.000000
31
0.0
0
LINE
8
LINES
10
126.000000
20
216.000000
30
0.0
11
126.000000
21
252.000000
31
0.0
0
LINE
8
LINES
10
387.000000
20
153.000000
30
0.0
11
423.000000
21
153.000000
31
0.0
0
LINE
8
LINES
10
333.000000
20
315.000000
30
0.0
11
333.000000
21
279.000000
31
0.0
0
LINE
8
LINES
10
0.000000
20
54.000000
30
0.0
11
36.000000
21
54.000000
31
0.0
0
LINE
8
LINES
10
216.000000
20
279.000000
30
0.0
11
216.000000
21
315.000000
31
0.0
0
LINE
8
LINES
10
405.000000
20
279.000000
30
0.0
11
405.000000
21
315.000000
31
0.0
0
LINE
8
LINES
10
414.000000
20
252.000000
30
0.0
11
414.000000
21
216.000000
31
0.0
0
LINE
8
LINES
10
414.000000
20
216.000000
30
0.0
11
414.000000
21
252.000000
31
0.0
0
LINE
8
LINES
10
396.000000
20
252.000000
30
0.0
11
396.000000
21
216.000000
31
0.0
0
LINE
8
LINES
10
387.000000
20
216.000000
30
0.0
11
423.000000
21
216.000000
31
0.0
0
LINE
8
LINES
10
108.000000
20
153.000000
30
0.0
11
108.000000
21
198.000000
31
0.0
0
LINE
8
LINES
10
81.000000
20
108.000000
30
0.0
11
117.000000
21
108.000000
31
0.0
0
LINE
8
LINES
10
99.000000
20
153.000000
30
0.0
11
99.000000
21
198.000000
31
0.0
0
LINE
8
LINES
10
90.000000
20
198.000000
30
0.0
11
90.000000
21
153.000000
31
0.0
0
LINE
8
LINES
10
63.000000
20
216.000000
30
0.0
11
63.000000
21
252.000000
31
0.0
0
LINE
8
LINES
10
333.000000
20
315.000000
30
0.0
11
333.000000
21
279.000000
31
0.0
0
LINE
8
LINES
10
279.000000
20
279.000000
30
0.0
11
279.000000
21
315.000000
31
0.0
0
LINE
8
LINES
10
342.000000
20
279.000000
30
0.0
11
342.000000
21
315.000000
31
0.0
0
LINE
8
LINES
10
270.000000
20
315.000000
30
0.0
11
270.000000
21
279.000000
31
0.0
0
LINE
8
LINES
10
441.000000
20
144.000000
30
0.0
11
441.000000
21
108.000000
31
0.0
0
LINE
8
LINES
10
504.000000
20
117.000000
30
0.0
11
468.000000
21
117.000000
31
0.0
0
LINE
8
LINES
10
99.000000
20
216.000000
30
0.0
11
99.000000
21
252.000000
31
0.0
0
LINE
8
LINES
10
117.000000
20
198.000000
30
0.0
11
117.000000
21
153.000000
31
0.0
0
LINE
8
LINES
10
108.000000
20
252.000000
30
0.0
11
108.000000
21
216.000000
31
0.0
0
LINE
8
LINES
10
90.000000
20
252.000000
30
0.0
11
90.000000
21
216.000000
31
0.0
0
LINE
8
LINES
10
108.000000
20
198.000000
30
0.0
11
108.000000
21
153.000000
31
0.0
0
LINE
8
LINES
10
117.000000
20
252.000000
30
0.0
11
117.000000
21
216.000000
31
0.0
0
LINE
8
LINES
10
135.000000
20
72.000000
30
0.0
11
99.000000
21
72.000000
31
0.0
0
LINE
8
LINES
10
450.000000
20
81.000000
30
0.0
11
450.000000
21
45.000000
31
0.0
0
LINE
8
LINES
10
36.000000
20
18.000000
30
0.0
11
0.000000
21
18.000000
31
0.0
0
LINE
8
LINES
10
99.000000
20
306.000000
30
0.0
11
135.000000
21
306.000000
31
0.0
0
LINE
8
LINES
10
207.000000
20
180.000000
30
0.0
11
243.000000
21
180.000000
31
0.0
0
LINE
8
LINES
10
90.000000
20
216.000000
30
0.0
11
90.000000
21
252.000000
31
0.0
0
LINE
8
LINES
10
468.000000
20
108.000000
30
0.0
11
504.000000
21
108.000000
31
0.0
0
LINE
8
LINES
10
117.000000
20
216.000000
30
0.0
11
117.000000
21
252.000000
31
0.0
0
LINE
8
LINES
10
81.000000
20
252.000000
30
0.0
11
81.000000
21
216.000000
31
0.0
0
LINE
8
LINES
10
531.000000
20
18.000000
30
0.0
11
567.000000
21
18.000000
31
0.0
0
LINE
8
LINES
10
495.000000
20
342.000000
30
0.0
11
522.000000
21
342.000000
31
0.0
0
LINE
8
LINES
10
36.000000
20
90.000000
30
0.0
11
36.000000
21
126.000000
31
0.0
0
LINE
8
LINES
10
189.000000
20
216.000000
30
0.0
11
153.000000
21
216.000000
31
0.0
0
LINE
8
LINES
10
567.000000
20
27.000000
30
0.0
11
531.000000
21
27.000000
31
0.0
0
LINE
8
LINES
10
207.000000
20
315.000000
30
0.0
11
207.000000
21
279.000000
31
0.0
0
LINE
8
LINES
10
396.000000
20
261.000000
30
0.0
11
396.000000
21
225.000000
31
0.0
0
LINE
8
LINES
10
99.000000
20
72.000000
30
0.0
11
63.000000
21
72.000000
31
0.0
0
LINE
8
LINES
10
387.000000
20
225.000000
30
0.0
11
387.000000
21
252.000000
31
0.0
0
LINE
8
LINES
10
252.000000
20
234.000000
30
0.0
11
288.000000
21
234.000000
31
0.0
0
LINE
8
LINES
10
531.000000
20
144.000000
30
0.0
11
531.000000
21
108.000000
31
0.0
0
LINE
8
LINES
10
324.000000
20
243.000000
30
0.0
11
288.000000
21
243.000000
31
0.0
0
LINE
8
LINES
10
567.000000
20
45.000000
30
0.0
11
531.000000
21
45.000000
31
0.0
0
LINE
8
LINES
10
531.000000
20
45.000000
30
0.0
11
567.000000
21
45.000000
31
0.0
0
LINE
8
LINES
10
486.000000
20
288.000000
30
0.0
11
459.000000
21
315.000000
31
0.0
0
LINE
8
LINES
10
441.000000
20
207.000000
30
0.0
11
441.000000
21
180.000000
31
0.0
0
LINE
8
LINES
10
90.000000
20
198.000000
30
0.0
11
117.000000
21
198.000000
31
0.0
0
LINE
8
LINES
10
63.000000
20
117.000000
30
0.0
11
63.000000
21
90.000000
31
0.0
0
LINE
8
LINES
10
45.000000
20
252.000000
30
0.0
11
9.000000
21
252.000000
31
0.0
0
LINE
8
LINES
10
387.000000
20
45.000000
30
0.0
11
351.000000
21
45.000000
31
0.0
0
LINE
8
LINES
10
252.000000
20
261.000000
30
0.0
11
279.000000
21
261.000000
31
0.0
0
LINE
8
LINES
10
459.000000
20
243.000000
30
0.0
11
459.000000
21
207.000000
31
0.0
0
LINE
8
LINES
10
252.000000
20
27.000000
30
0.0
11
252.000000
21
54.000000
31
0.0
0
LINE
8
LINES
10
288.000000
20
45.000000
30
0.0
11
252.000000
21
45.000000
31
0.0
0
ENDSEC
0
EOF
