0
SECTION
2
ENTITIES
0
LWPOLYLINE
8
FACADE_OUTLINE
90
4
70
1
10
0.000000
20
0.000000
10
844.000000
20
0.000000
10
844.000000
20
1024.000000
10
0.000000
20
1024.000000
0
LWPOLYLINE
8
WINDOWS
90
4
70
1
10
0.000000
20
0.000000
10
200.000000
20
0.000000
10
200.000000
20
140.000000
10
0.000000
20
140.000000
0
LWPOLYLINE
8
WINDOWS
90
4
70
1
10
528.000000
20
0.000000
10
812.000000
20
0.000000
10
812.000000
20
236.000000
10
528.000000
20
236.000000
0
LWPOLYLINE
8
WINDOWS
90
4
70
1
10
32.000000
20
216.000000
10
280.000000
20
216.000000
10
280.000000
20
452.000000
10
32.000000
20
452.000000
0
LWPOLYLINE
8
WINDOWS
90
4
70
1
10
12.000000
20
248.000000
10
512.000000
20
248.000000
10
512.000000
20
1020.000000
10
12.000000
20
1020.000000
0
LWPOLYLINE
8
WINDOWS
90
4
70
1
10
512.000000
20
268.000000
10
608.000000
20
268.000000
10
608.000000
20
384.000000
10
512.000000
20
384.000000
0
LWPOLYLINE
8
WINDOWS
90
4
70
1
10
128.000000
20
272.000000
10
224.000000
20
272.000000
10
224.000000
20
388.000000
10
128.000000
20
388.000000
0
LWPOLYLINE
8
WINDOWS
90
4
70
1
10
632.000000
20
272.000000
10
712.000000
20
272.000000
10
712.000000
20
384.000000
10
632.000000
20
384.000000
0
LWPOLYLINE
8
WINDOWS
90
4
70
1
10
276.000000
20
272.000000
10
368.000000
20
272.000000
10
368.000000
20
384.000000
10
276.000000
20
384.000000
0
LWPOLYLINE
8
WINDOWS
90
4
70
1
10
392.000000
20
272.000000
10
488.000000
20
272.000000
10
488.000000
20
388.000000
10
392.000000
20
388.000000
0
LWPOLYLINE
8
WINDOWS
90
4
70
1
10
760.000000
20
272.000000
10
812.000000
20
272.000000
10
812.000000
20
384.000000
10
760.000000
20
384.000000
0
LWPOLYLINE
8
WINDOWS
90
4
70
1
10
536.000000
20
316.000000
10
568.000000
20
316.000000
10
568.000000
20
376.000000
10
536.000000
20
376.000000
0
LWPOLYLINE
8
WINDOWS
90
4
70
1
10
300.000000
20
316.000000
10
348.000000
20
316.000000
10
348.000000
20
376.000000
10
300.000000
20
376.000000
0
LWPOLYLINE
8
WINDOWS
90
4
70
1
10
780.000000
20
316.000000
10
808.000000
20
316.000000
10
808.000000
20
372.000000
10
780.000000
20
372.000000
0
LWPOLYLINE
8
WINDOWS
90
4
70
1
10
128.000000
20
472.000000
10
220.000000
20
472.000000
10
220.000000
20
584.000000
10
128.000000
20
584.000000
0
LWPOLYLINE
8
WINDOWS
90
4
70
1
10
516.000000
20
472.000000
10
604.000000
20
472.000000
10
604.000000
20
584.000000
10
516.000000
20
584.000000
0
LWPOLYLINE
8
WINDOWS
90
4
70
1
10
632.000000
20
472.000000
10
728.000000
20
472.000000
10
728.000000
20
588.000000
10
632.000000
20
588.000000
0
LWPOLYLINE
8
WINDOWS
90
4
70
1
10
272.000000
20
472.000000
10
368.000000
20
472.000000
10
368.000000
20
588.000000
10
272.000000
20
588.000000
0
LWPOLYLINE
8
WINDOWS
90
4
70
1
10
392.000000
20
472.000000
10
488.000000
20
472.000000
10
488.000000
20
588.000000
10
392.000000
20
588.000000
0
LWPOLYLINE
8
WINDOWS
90
4
70
1
10
656.000000
20
516.000000
10
708.000000
20
516.000000
10
708.000000
20
576.000000
10
656.000000
20
576.000000
0
LWPOLYLINE
8
WINDOWS
90
4
70
1
10
272.000000
20
672.000000
10
368.000000
20
672.000000
10
368.000000
20
788.000000
10
272.000000
20
788.000000
0
LWPOLYLINE
8
WINDOWS
90
4
70
1
10
124.000000
20
676.000000
10
220.000000
20
676.000000
10
220.000000
20
788.000000
10
124.000000
20
788.000000
0
LWPOLYLINE
8
WINDOWS
90
4
70
1
10
392.000000
20
676.000000
10
488.000000
20
676.000000
10
488.000000
20
788.000000
10
392.000000
20
788.000000
0
LWPOLYLINE
8
WINDOWS
90
4
70
1
10
512.000000
20
676.000000
10
608.000000
20
676.000000
10
608.000000
20
788.000000
10
512.000000
20
788.000000
0
LWPOLYLINE
8
WINDOWS
90
4
70
1
10
636.000000
20
676.000000
10
732.000000
20
676.000000
10
732.000000
20
788.000000
10
636.000000
20
788.000000
0
LWPOLYLINE
8
WINDOWS
90
4
70
1
10
528.000000
20
872.000000
10
596.000000
20
872.000000
10
596.000000
20
1000.000000
10
528.000000
20
1000.000000
0
LWPOLYLINE
8
WINDOWS
90
4
70
1
10
640.000000
20
876.000000
10
728.000000
20
876.000000
10
728.000000
20
960.000000
10
640.000000
20
960.000000
0
LWPOLYLINE
8
WINDOWS
90
4
70
1
10
132.000000
20
876.000000
10
216.000000
20
876.000000
10
216.000000
20
964.000000
10
132.000000
20
964.000000
0
LWPOLYLINE
8
WINDOWS
90
4
70
1
10
272.000000
20
876.000000
10
368.000000
20
876.000000
10
368.000000
20
964.000000
10
272.000000
20
964.000000
0
LWPOLYLINE
8
WINDOWS
90
4
70
1
10
392.000000
20
876.000000
10
488.000000
20
876.000000
10
488.000000
20
964.000000
10
392.000000
20
964.000000
0
LWPOLYLINE
8
WINDOWS
90
4
70
1
10
656.000000
20
880.000000
10
712.000000
20
880.000000
10
712.000000
20
952.000000
10
656.000000
20
952.000000
0
LWPOLYLINE
8
WINDOWS
90
4
70
1
10
300.000000
20
880.000000
10
348.000000
20
880.000000
10
348.000000
20
956.000000
10
300.000000
20
956.000000
0
LWPOLYLINE
8
WINDOWS
90
4
70
1
10
416.000000
20
880.000000
10
468.000000
20
880.000000
10
468.000000
20
956.000000
10
416.000000
20
956.000000
0
LWPOLYLINE
8
DOORS
90
4
70
1
10
760.000000
20
472.000000
10
816.000000
20
472.000000
10
816.000000
20
588.000000
10
760.000000
20
588.000000
0
LWPOLYLINE
8
DOORS
90
4
70
1
10
760.000000
20
500.000000
10
844.000000
20
500.000000
10
844.000000
20
1024.000000
10
760.000000
20
1024.000000
0
LWPOLYLINE
8
DOORS
90
4
70
1
10
416.000000
20
680.000000
10
468.000000
20
680.000000
10
468.000000
20
780.000000
10
416.000000
20
780.000000
0
LWPOLYLINE
8
DOORS
90
4
70
1
10
300.000000
20
680.000000
10
352.000000
20
680.000000
10
352.000000
20
780.000000
10
300.000000
20
780.000000
0
LWPOLYLINE
8
DOORS
90
4
70
1
10
768.000000
20
872.000000
10
816.000000
20
872.000000
10
816.000000
20
960.000000
10
768.000000
20
960.000000
0
LWPOLYLINE
8
DOORS
90
4
70
1
10
784.000000
20
880.000000
10
808.000000
20
880.000000
10
808.000000
20
952.000000
10
784.000000
20
952.000000
0
LINE
8
LINES
10
64.000000
20
492.000000
30
0.0
11
64.000000
21
1024.000000
31
0.0
0
LINE
8
LINES
10
840.000000
20
780.000000
30
0.0
11
840.000000
21
300.000000
31
0.0
0
LINE
8
LINES
10
508.000000
20
228.000000
30
0.0
11
120.000000
21
228.000000
31
0.0
0
LINE
8
LINES
10
128.000000
20
976.000000
30
0.0
11
512.000000
21
976.000000
31
0.0
0
LINE
8
LINES
10
440.000000
20
192.000000
30
0.0
11
808.000000
21
192.000000
31
0.0
0
LINE
8
LINES
10
464.000000
20
1024.000000
30
0.0
11
136.000000
21
1024.000000
31
0.0
0
LINE
8
LINES
10
764.000000
20
52.000000
30
0.0
11
520.000000
21
0.000000
31
0.0
0
LINE
8
LINES
10
116.000000
20
220.000000
30
0.0
11
360.000000
21
220.000000
31
0.0
0
LINE
8
LINES
10
840.000000
20
1024.000000
30
0.0
11
840.000000
21
792.000000
31
0.0
0
LINE
8
LINES
10
720.000000
20
208.000000
30
0.0
11
528.000000
21
208.000000
31
0.0
0
LINE
8
LINES
10
16.000000
20
248.000000
30
0.0
11
16.000000
21
444.000000
31
0.0
0
LINE
8
LINES
10
808.000000
20
76.000000
30
0.0
11
808.000000
21
264.000000
31
0.0
0
LINE
8
LINES
10
576.000000
20
160.000000
30
0.0
11
388.000000
21
160.000000
31
0.0
0
LINE
8
LINES
10
216.000000
20
248.000000
30
0.0
11
48.000000
21
248.000000
31
0.0
0
LINE
8
LINES
10
116.000000
20
240.000000
30
0.0
11
268.000000
21
240.000000
31
0.0
0
LINE
8
LINES
10
84.000000
20
316.000000
30
0.0
11
84.000000
21
456.000000
31
0.0
0
LINE
8
LINES
10
280.000000
20
200.000000
30
0.0
11
148.000000
21
200.000000
31
0.0
0
LINE
8
LINES
10
128.000000
20
116.000000
30
0.0
11
188.000000
21
0.000000
31
0.0
0
LINE
8
LINES
10
72.000000
20
452.000000
30
0.0
11
72.000000
21
328.000000
31
0.0
0
LINE
8
LINES
10
608.000000
20
976.000000
30
0.0
11
732.000000
21
976.000000
31
0.0
0
LINE
8
LINES
10
596.000000
20
872.000000
30
0.0
11
596.000000
21
1000.000000
31
0.0
0
LINE
8
LINES
10
528.000000
20
1000.000000
30
0.0
11
528.000000
21
876.000000
31
0.0
0
LINE
8
LINES
10
500.000000
20
848.000000
30
0.0
11
616.000000
21
848.000000
31
0.0
0
LINE
8
LINES
10
508.000000
20
240.000000
30
0.0
11
624.000000
21
240.000000
31
0.0
0
LINE
8
LINES
10
72.000000
20
608.000000
30
0.0
11
72.000000
21
492.000000
31
0.0
0
LINE
8
LINES
10
420.000000
20
216.000000
30
0.0
11
308.000000
21
216.000000
31
0.0
0
LINE
8
LINES
10
776.000000
20
576.000000
30
0.0
11
776.000000
21
468.000000
31
0.0
0
LINE
8
LINES
10
300.000000
20
236.000000
30
0.0
11
192.000000
21
236.000000
31
0.0
0
LINE
8
LINES
10
356.000000
20
672.000000
30
0.0
11
356.000000
21
776.000000
31
0.0
0
LINE
8
LINES
10
136.000000
20
1020.000000
30
0.0
11
244.000000
21
1020.000000
31
0.0
0
LINE
8
LINES
10
356.000000
20
472.000000
30
0.0
11
356.000000
21
576.000000
31
0.0
0
LINE
8
LINES
10
204.000000
20
672.000000
30
0.0
11
204.000000
21
776.000000
31
0.0
0
LINE
8
LINES
10
412.000000
20
780.000000
30
0.0
11
412.000000
21
672.000000
31
0.0
0
LINE
8
LINES
10
608.000000
20
864.000000
30
0.0
11
504.000000
21
864.000000
31
0.0
0
LINE
8
LINES
10
612.000000
20
856.000000
30
0.0
11
504.000000
21
856.000000
31
0.0
0
LINE
8
LINES
10
0.000000
20
136.000000
30
0.0
11
0.000000
21
240.000000
31
0.0
0
LINE
8
LINES
10
472.000000
20
672.000000
30
0.0
11
472.000000
21
776.000000
31
0.0
0
LINE
8
LINES
10
120.000000
20
648.000000
30
0.0
11
224.000000
21
648.000000
31
0.0
0
LINE
8
LINES
10
120.000000
20
848.000000
30
0.0
11
224.000000
21
848.000000
31
0.0
0
LINE
8
LINES
10
144.000000
20
776.000000
30
0.0
11
144.000000
21
672.000000
31
0.0
0
LINE
8
LINES
10
816.000000
20
668.000000
30
0.0
11
816.000000
21
772.000000
31
0.0
0
LINE
8
LINES
10
528.000000
20
776.000000
30
0.0
11
528.000000
21
672.000000
31
0.0
0
LINE
8
LINES
10
412.000000
20
576.000000
30
0.0
11
412.000000
21
472.000000
31
0.0
0
LINE
8
LINES
10
296.000000
20
776.000000
30
0.0
11
296.000000
21
676.000000
31
0.0
0
LINE
8
LINES
10
472.000000
20
472.000000
30
0.0
11
472.000000
21
576.000000
31
0.0
0
LINE
8
LINES
10
592.000000
20
672.000000
30
0.0
11
592.000000
21
776.000000
31
0.0
0
LINE
8
LINES
10
716.000000
20
672.000000
30
0.0
11
716.000000
21
776.000000
31
0.0
0
LINE
8
LINES
10
388.000000
20
648.000000
30
0.0
11
488.000000
21
648.000000
31
0.0
0
LINE
8
LINES
10
528.000000
20
576.000000
30
0.0
11
528.000000
21
472.000000
31
0.0
0
LINE
8
LINES
10
772.000000
20
372.000000
30
0.0
11
772.000000
21
272.000000
31
0.0
0
LINE
8
LINES
10
592.000000
20
472.000000
30
0.0
11
592.000000
21
576.000000
31
0.0
0
LINE
8
LINES
10
208.000000
20
472.000000
30
0.0
11
208.000000
21
576.000000
31
0.0
0
LINE
8
LINES
10
268.000000
20
848.000000
30
0.0
11
372.000000
21
848.000000
31
0.0
0
LINE
8
LINES
10
388.000000
20
444.000000
30
0.0
11
492.000000
21
444.000000
31
0.0
0
LINE
8
LINES
10
296.000000
20
376.000000
30
0.0
11
296.000000
21
272.000000
31
0.0
0
LINE
8
LINES
10
652.000000
20
776.000000
30
0.0
11
652.000000
21
676.000000
31
0.0
0
LINE
8
LINES
10
412.000000
20
376.000000
30
0.0
11
412.000000
21
272.000000
31
0.0
0
LINE
8
LINES
10
296.000000
20
576.000000
30
0.0
11
296.000000
21
472.000000
31
0.0
0
LINE
8
LINES
10
648.000000
20
372.000000
30
0.0
11
648.000000
21
272.000000
31
0.0
0
LINE
8
LINES
10
648.000000
20
576.000000
30
0.0
11
648.000000
21
472.000000
31
0.0
0
LINE
8
LINES
10
152.000000
20
376.000000
30
0.0
11
152.000000
21
272.000000
31
0.0
0
LINE
8
LINES
10
776.000000
20
776.000000
30
0.0
11
776.000000
21
676.000000
31
0.0
0
LINE
8
LINES
10
804.000000
20
144.000000
30
0.0
11
768.000000
21
52.000000
31
0.0
0
LINE
8
LINES
10
356.000000
20
272.000000
30
0.0
11
356.000000
21
372.000000
31
0.0
0
LINE
8
LINES
10
592.000000
20
272.000000
30
0.0
11
592.000000
21
372.000000
31
0.0
0
LINE
8
LINES
10
272.000000
20
648.000000
30
0.0
11
372.000000
21
648.000000
31
0.0
0
LINE
8
LINES
10
388.000000
20
848.000000
30
0.0
11
488.000000
21
848.000000
31
0.0
0
LINE
8
LINES
10
152.000000
20
572.000000
30
0.0
11
152.000000
21
472.000000
31
0.0
0
LINE
8
LINES
10
472.000000
20
272.000000
30
0.0
11
472.000000
21
372.000000
31
0.0
0
LINE
8
LINES
10
712.000000
20
272.000000
30
0.0
11
712.000000
21
372.000000
31
0.0
0
LINE
8
LINES
10
508.000000
20
648.000000
30
0.0
11
608.000000
21
648.000000
31
0.0
0
LINE
8
LINES
10
632.000000
20
648.000000
30
0.0
11
732.000000
21
648.000000
31
0.0
0
LINE
8
LINES
10
632.000000
20
848.000000
30
0.0
11
732.000000
21
848.000000
31
0.0
0
LINE
8
LINES
10
528.000000
20
372.000000
30
0.0
11
528.000000
21
272.000000
31
0.0
0
LINE
8
LINES
10
648.000000
20
776.000000
30
0.0
11
648.000000
21
676.000000
31
0.0
0
LINE
8
LINES
10
512.000000
20
856.000000
30
0.0
11
608.000000
21
856.000000
31
0.0
0
LINE
8
LINES
10
208.000000
20
272.000000
30
0.0
11
208.000000
21
372.000000
31
0.0
0
LINE
8
LINES
10
508.000000
20
444.000000
30
0.0
11
608.000000
21
444.000000
31
0.0
0
LINE
8
LINES
10
268.000000
20
444.000000
30
0.0
11
368.000000
21
444.000000
31
0.0
0
LINE
8
LINES
10
536.000000
20
184.000000
30
0.0
11
440.000000
21
184.000000
31
0.0
0
LINE
8
LINES
10
120.000000
20
444.000000
30
0.0
11
216.000000
21
444.000000
31
0.0
0
LINE
8
LINES
10
628.000000
20
444.000000
30
0.0
11
728.000000
21
444.000000
31
0.0
0
LINE
8
LINES
10
488.000000
20
256.000000
30
0.0
11
392.000000
21
256.000000
31
0.0
0
LINE
8
LINES
10
632.000000
20
240.000000
30
0.0
11
728.000000
21
240.000000
31
0.0
0
LINE
8
LINES
10
388.000000
20
240.000000
30
0.0
11
484.000000
21
240.000000
31
0.0
0
LINE
8
LINES
10
728.000000
20
860.000000
30
0.0
11
636.000000
21
860.000000
31
0.0
0
LINE
8
LINES
10
604.000000
20
244.000000
30
0.0
11
508.000000
21
244.000000
31
0.0
0
LINE
8
LINES
10
488.000000
20
652.000000
30
0.0
11
392.000000
21
652.000000
31
0.0
0
LINE
8
LINES
10
372.000000
20
256.000000
30
0.0
11
280.000000
21
256.000000
31
0.0
0
LINE
8
LINES
10
484.000000
20
860.000000
30
0.0
11
392.000000
21
860.000000
31
0.0
0
LINE
8
LINES
10
648.000000
20
576.000000
30
0.0
11
648.000000
21
480.000000
31
0.0
0
LINE
8
LINES
10
484.000000
20
856.000000
30
0.0
11
392.000000
21
856.000000
31
0.0
0
LINE
8
LINES
10
724.000000
20
256.000000
30
0.0
11
632.000000
21
256.000000
31
0.0
0
LINE
8
LINES
10
368.000000
20
460.000000
30
0.0
11
276.000000
21
460.000000
31
0.0
0
LINE
8
LINES
10
728.000000
20
660.000000
30
0.0
11
640.000000
21
660.000000
31
0.0
0
LINE
8
LINES
10
368.000000
20
248.000000
30
0.0
11
272.000000
21
248.000000
31
0.0
0
LINE
8
LINES
10
368.000000
20
652.000000
30
0.0
11
272.000000
21
652.000000
31
0.0
0
LINE
8
LINES
10
724.000000
20
448.000000
30
0.0
11
632.000000
21
448.000000
31
0.0
0
LINE
8
LINES
10
0.000000
20
128.000000
30
0.0
11
92.000000
21
128.000000
31
0.0
0
LINE
8
LINES
10
392.000000
20
252.000000
30
0.0
11
480.000000
21
252.000000
31
0.0
0
LINE
8
LINES
10
128.000000
20
452.000000
30
0.0
11
216.000000
21
452.000000
31
0.0
0
LINE
8
LINES
10
512.000000
20
452.000000
30
0.0
11
604.000000
21
452.000000
31
0.0
0
LINE
8
LINES
10
220.000000
20
460.000000
30
0.0
11
128.000000
21
460.000000
31
0.0
0
LINE
8
LINES
10
484.000000
20
660.000000
30
0.0
11
392.000000
21
660.000000
31
0.0
0
LINE
8
LINES
10
364.000000
20
448.000000
30
0.0
11
272.000000
21
448.000000
31
0.0
0
LINE
8
LINES
10
484.000000
20
448.000000
30
0.0
11
392.000000
21
448.000000
31
0.0
0
LINE
8
LINES
10
368.000000
20
856.000000
30
0.0
11
276.000000
21
856.000000
31
0.0
0
LINE
8
LINES
10
276.000000
20
252.000000
30
0.0
11
364.000000
21
252.000000
31
0.0
0
LINE
8
LINES
10
276.000000
20
452.000000
30
0.0
11
368.000000
21
452.000000
31
0.0
0
LINE
8
LINES
10
368.000000
20
960.000000
30
0.0
11
276.000000
21
960.000000
31
0.0
0
LINE
8
LINES
10
132.000000
20
252.000000
30
0.0
11
220.000000
21
252.000000
31
0.0
0
LINE
8
LINES
10
396.000000
20
452.000000
30
0.0
11
484.000000
21
452.000000
31
0.0
0
LINE
8
LINES
10
512.000000
20
248.000000
30
0.0
11
600.000000
21
248.000000
31
0.0
0
LINE
8
LINES
10
216.000000
20
784.000000
30
0.0
11
128.000000
21
784.000000
31
0.0
0
LINE
8
LINES
10
724.000000
20
456.000000
30
0.0
11
636.000000
21
456.000000
31
0.0
0
LINE
8
LINES
10
640.000000
20
656.000000
30
0.0
11
728.000000
21
656.000000
31
0.0
0
LINE
8
LINES
10
368.000000
20
860.000000
30
0.0
11
276.000000
21
860.000000
31
0.0
0
LINE
8
LINES
10
636.000000
20
452.000000
30
0.0
11
724.000000
21
452.000000
31
0.0
0
LINE
8
LINES
10
480.000000
20
248.000000
30
0.0
11
392.000000
21
248.000000
31
0.0
0
LINE
8
LINES
10
280.000000
20
656.000000
30
0.0
11
368.000000
21
656.000000
31
0.0
0
LINE
8
LINES
10
720.000000
20
244.000000
30
0.0
11
632.000000
21
244.000000
31
0.0
0
LINE
8
LINES
10
216.000000
20
448.000000
30
0.0
11
128.000000
21
448.000000
31
0.0
0
LINE
8
LINES
10
600.000000
20
448.000000
30
0.0
11
512.000000
21
448.000000
31
0.0
0
LINE
8
LINES
10
728.000000
20
784.000000
30
0.0
11
640.000000
21
784.000000
31
0.0
0
LINE
8
LINES
10
368.000000
20
660.000000
30
0.0
11
280.000000
21
660.000000
31
0.0
0
LINE
8
LINES
10
364.000000
20
784.000000
30
0.0
11
276.000000
21
784.000000
31
0.0
0
LINE
8
LINES
10
364.000000
20
964.000000
30
0.0
11
276.000000
21
964.000000
31
0.0
0
LINE
8
LINES
10
604.000000
20
656.000000
30
0.0
11
516.000000
21
656.000000
31
0.0
0
LINE
8
LINES
10
368.000000
20
384.000000
30
0.0
11
280.000000
21
384.000000
31
0.0
0
LINE
8
LINES
10
396.000000
20
656.000000
30
0.0
11
484.000000
21
656.000000
31
0.0
0
LINE
8
LINES
10
516.000000
20
656.000000
30
0.0
11
604.000000
21
656.000000
31
0.0
0
LINE
8
LINES
10
604.000000
20
784.000000
30
0.0
11
516.000000
21
784.000000
31
0.0
0
LINE
8
LINES
10
200.000000
20
216.000000
30
0.0
11
112.000000
21
216.000000
31
0.0
0
LINE
8
LINES
10
212.000000
20
660.000000
30
0.0
11
128.000000
21
660.000000
31
0.0
0
LINE
8
LINES
10
480.000000
20
384.000000
30
0.0
11
396.000000
21
384.000000
31
0.0
0
LINE
8
LINES
10
632.000000
20
248.000000
30
0.0
11
720.000000
21
248.000000
31
0.0
0
LINE
8
LINES
10
480.000000
20
960.000000
30
0.0
11
396.000000
21
960.000000
31
0.0
0
LINE
8
LINES
10
216.000000
20
256.000000
30
0.0
11
132.000000
21
256.000000
31
0.0
0
LINE
8
LINES
10
212.000000
20
860.000000
30
0.0
11
128.000000
21
860.000000
31
0.0
0
LINE
8
LINES
10
596.000000
20
256.000000
30
0.0
11
508.000000
21
256.000000
31
0.0
0
LINE
8
LINES
10
216.000000
20
580.000000
30
0.0
11
132.000000
21
580.000000
31
0.0
0
LINE
8
LINES
10
720.000000
20
652.000000
30
0.0
11
632.000000
21
652.000000
31
0.0
0
LINE
8
LINES
10
212.000000
20
652.000000
30
0.0
11
128.000000
21
652.000000
31
0.0
0
LINE
8
LINES
10
480.000000
20
584.000000
30
0.0
11
396.000000
21
584.000000
31
0.0
0
LINE
8
LINES
10
216.000000
20
376.000000
30
0.0
11
132.000000
21
376.000000
31
0.0
0
LINE
8
LINES
10
364.000000
20
584.000000
30
0.0
11
280.000000
21
584.000000
31
0.0
0
LINE
8
LINES
10
364.000000
20
580.000000
30
0.0
11
280.000000
21
580.000000
31
0.0
0
LINE
8
LINES
10
440.000000
20
188.000000
30
0.0
11
356.000000
21
188.000000
31
0.0
0
LINE
8
LINES
10
128.000000
20
656.000000
30
0.0
11
216.000000
21
656.000000
31
0.0
0
LINE
8
LINES
10
624.000000
20
184.000000
30
0.0
11
540.000000
21
184.000000
31
0.0
0
LINE
8
LINES
10
480.000000
20
784.000000
30
0.0
11
396.000000
21
784.000000
31
0.0
0
LINE
8
LINES
10
600.000000
20
652.000000
30
0.0
11
512.000000
21
652.000000
31
0.0
0
LINE
8
LINES
10
768.000000
20
576.000000
30
0.0
11
768.000000
21
488.000000
31
0.0
0
LINE
8
LINES
10
280.000000
20
856.000000
30
0.0
11
364.000000
21
856.000000
31
0.0
0
LINE
8
LINES
10
600.000000
20
376.000000
30
0.0
11
512.000000
21
376.000000
31
0.0
0
LINE
8
LINES
10
816.000000
20
872.000000
30
0.0
11
816.000000
21
960.000000
31
0.0
0
LINE
8
LINES
10
728.000000
20
960.000000
30
0.0
11
640.000000
21
960.000000
31
0.0
0
LINE
8
LINES
10
720.000000
20
580.000000
30
0.0
11
640.000000
21
580.000000
31
0.0
0
LINE
8
LINES
10
364.000000
20
376.000000
30
0.0
11
280.000000
21
376.000000
31
0.0
0
LINE
8
LINES
10
480.000000
20
376.000000
30
0.0
11
396.000000
21
376.000000
31
0.0
0
LINE
8
LINES
10
720.000000
20
376.000000
30
0.0
11
636.000000
21
376.000000
31
0.0
0
LINE
8
LINES
10
480.000000
20
788.000000
30
0.0
11
396.000000
21
788.000000
31
0.0
0
LINE
8
LINES
10
808.000000
20
208.000000
30
0.0
11
724.000000
21
208.000000
31
0.0
0
LINE
8
LINES
10
644.000000
20
372.000000
30
0.0
11
644.000000
21
288.000000
31
0.0
0
LINE
8
LINES
10
76.000000
20
324.000000
30
0.0
11
36.000000
21
252.000000
31
0.0
0
LINE
8
LINES
10
480.000000
20
456.000000
30
0.0
11
396.000000
21
456.000000
31
0.0
0
LINE
8
LINES
10
600.000000
20
384.000000
30
0.0
11
516.000000
21
384.000000
31
0.0
0
LINE
8
LINES
10
216.000000
20
384.000000
30
0.0
11
136.000000
21
384.000000
31
0.0
0
LINE
8
LINES
10
636.000000
20
380.000000
30
0.0
11
720.000000
21
380.000000
31
0.0
0
LINE
8
LINES
10
400.000000
20
380.000000
30
0.0
11
480.000000
21
380.000000
31
0.0
0
LINE
8
LINES
10
280.000000
20
960.000000
30
0.0
11
360.000000
21
960.000000
31
0.0
0
LINE
8
LINES
10
768.000000
20
948.000000
30
0.0
11
768.000000
21
868.000000
31
0.0
0
LINE
8
LINES
10
136.000000
20
384.000000
30
0.0
11
216.000000
21
384.000000
31
0.0
0
LINE
8
LINES
10
212.000000
20
584.000000
30
0.0
11
132.000000
21
584.000000
31
0.0
0
LINE
8
LINES
10
600.000000
20
780.000000
30
0.0
11
520.000000
21
780.000000
31
0.0
0
LINE
8
LINES
10
600.000000
20
580.000000
30
0.0
11
520.000000
21
580.000000
31
0.0
0
LINE
8
LINES
10
600.000000
20
460.000000
30
0.0
11
520.000000
21
460.000000
31
0.0
0
LINE
8
LINES
10
644.000000
20
584.000000
30
0.0
11
720.000000
21
584.000000
31
0.0
0
LINE
8
LINES
10
472.000000
20
876.000000
30
0.0
11
472.000000
21
952.000000
31
0.0
0
LINE
8
LINES
10
600.000000
20
584.000000
30
0.0
11
520.000000
21
584.000000
31
0.0
0
LINE
8
LINES
10
776.000000
20
948.000000
30
0.0
11
776.000000
21
872.000000
31
0.0
0
LINE
8
LINES
10
644.000000
20
864.000000
30
0.0
11
720.000000
21
864.000000
31
0.0
0
LINE
8
LINES
10
352.000000
20
876.000000
30
0.0
11
352.000000
21
952.000000
31
0.0
0
LINE
8
LINES
10
712.000000
20
876.000000
30
0.0
11
712.000000
21
952.000000
31
0.0
0
LINE
8
LINES
10
204.000000
20
876.000000
30
0.0
11
204.000000
21
952.000000
31
0.0
0
LINE
8
LINES
10
408.000000
20
952.000000
30
0.0
11
408.000000
21
876.000000
31
0.0
0
LINE
8
LINES
10
652.000000
20
952.000000
30
0.0
11
652.000000
21
876.000000
31
0.0
0
LINE
8
LINES
10
780.000000
20
952.000000
30
0.0
11
780.000000
21
876.000000
31
0.0
0
LINE
8
LINES
10
292.000000
20
952.000000
30
0.0
11
292.000000
21
876.000000
31
0.0
0
LINE
8
LINES
10
144.000000
20
952.000000
30
0.0
11
144.000000
21
876.000000
31
0.0
0
LINE
8
LINES
10
284.000000
20
868.000000
30
0.0
11
360.000000
21
868.000000
31
0.0
0
LINE
8
LINES
10
400.000000
20
868.000000
30
0.0
11
480.000000
21
868.000000
31
0.0
0
LINE
8
LINES
10
208.000000
20
964.000000
30
0.0
11
136.000000
21
964.000000
31
0.0
0
LINE
8
LINES
10
208.000000
20
956.000000
30
0.0
11
132.000000
21
956.000000
31
0.0
0
LINE
8
LINES
10
520.000000
20
1016.000000
30
0.0
11
592.000000
21
1016.000000
31
0.0
0
LINE
8
LINES
10
524.000000
20
352.000000
30
0.0
11
524.000000
21
280.000000
31
0.0
0
LINE
8
LINES
10
472.000000
20
956.000000
30
0.0
11
400.000000
21
956.000000
31
0.0
0
LINE
8
LINES
10
812.000000
20
308.000000
30
0.0
11
812.000000
21
384.000000
31
0.0
0
LINE
8
LINES
10
404.000000
20
344.000000
30
0.0
11
404.000000
21
272.000000
31
0.0
0
LINE
8
LINES
10
288.000000
20
344.000000
30
0.0
11
288.000000
21
272.000000
31
0.0
0
LINE
8
LINES
10
524.000000
20
544.000000
30
0.0
11
524.000000
21
472.000000
31
0.0
0
LINE
8
LINES
10
368.000000
20
192.000000
30
0.0
11
440.000000
21
192.000000
31
0.0
0
LINE
8
LINES
10
368.000000
20
104.000000
30
0.0
11
440.000000
21
104.000000
31
0.0
0
LINE
8
LINES
10
216.000000
20
336.000000
30
0.0
11
216.000000
21
264.000000
31
0.0
0
LINE
8
LINES
10
712.000000
20
504.000000
30
0.0
11
712.000000
21
576.000000
31
0.0
0
LINE
8
LINES
10
808.000000
20
188.000000
30
0.0
11
736.000000
21
188.000000
31
0.0
0
LINE
8
LINES
10
720.000000
20
368.000000
30
0.0
11
720.000000
21
296.000000
31
0.0
0
LINE
8
LINES
10
528.000000
20
872.000000
30
0.0
11
592.000000
21
872.000000
31
0.0
0
LINE
8
LINES
10
528.000000
20
472.000000
30
0.0
11
592.000000
21
472.000000
31
0.0
0
LINE
8
LINES
10
528.000000
20
672.000000
30
0.0
11
592.000000
21
672.000000
31
0.0
0
LINE
8
LINES
10
492.000000
20
984.000000
30
0.0
11
424.000000
21
984.000000
31
0.0
0
LINE
8
LINES
10
528.000000
20
268.000000
30
0.0
11
592.000000
21
268.000000
31
0.0
0
LINE
8
LINES
10
320.000000
20
84.000000
30
0.0
11
388.000000
21
84.000000
31
0.0
0
LINE
8
LINES
10
840.000000
20
68.000000
30
0.0
11
776.000000
21
56.000000
31
0.0
0
LINE
8
LINES
10
288.000000
20
876.000000
30
0.0
11
356.000000
21
876.000000
31
0.0
0
LINE
8
LINES
10
592.000000
20
1000.000000
30
0.0
11
528.000000
21
1000.000000
31
0.0
0
LINE
8
LINES
10
408.000000
20
672.000000
30
0.0
11
472.000000
21
672.000000
31
0.0
0
LINE
8
LINES
10
408.000000
20
472.000000
30
0.0
11
472.000000
21
472.000000
31
0.0
0
LINE
8
LINES
10
144.000000
20
272.000000
30
0.0
11
208.000000
21
272.000000
31
0.0
0
LINE
8
LINES
10
648.000000
20
472.000000
30
0.0
11
712.000000
21
472.000000
31
0.0
0
LINE
8
LINES
10
140.000000
20
672.000000
30
0.0
11
208.000000
21
672.000000
31
0.0
0
LINE
8
LINES
10
648.000000
20
672.000000
30
0.0
11
716.000000
21
672.000000
31
0.0
0
LINE
8
LINES
10
288.000000
20
672.000000
30
0.0
11
356.000000
21
672.000000
31
0.0
0
LINE
8
LINES
10
220.000000
20
264.000000
30
0.0
11
220.000000
21
328.000000
31
0.0
0
LINE
8
LINES
10
648.000000
20
872.000000
30
0.0
11
716.000000
21
872.000000
31
0.0
0
LINE
8
LINES
10
140.000000
20
876.000000
30
0.0
11
204.000000
21
876.000000
31
0.0
0
LINE
8
LINES
10
408.000000
20
268.000000
30
0.0
11
472.000000
21
268.000000
31
0.0
0
LINE
8
LINES
10
144.000000
20
472.000000
30
0.0
11
208.000000
21
472.000000
31
0.0
0
LINE
8
LINES
10
292.000000
20
272.000000
30
0.0
11
356.000000
21
272.000000
31
0.0
0
LINE
8
LINES
10
288.000000
20
472.000000
30
0.0
11
352.000000
21
472.000000
31
0.0
0
LINE
8
LINES
10
648.000000
20
268.000000
30
0.0
11
712.000000
21
268.000000
31
0.0
0
LINE
8
LINES
10
524.000000
20
744.000000
30
0.0
11
524.000000
21
680.000000
31
0.0
0
LINE
8
LINES
10
424.000000
20
136.000000
30
0.0
11
360.000000
21
136.000000
31
0.0
0
LINE
8
LINES
10
408.000000
20
876.000000
30
0.0
11
472.000000
21
876.000000
31
0.0
0
LINE
8
LINES
10
652.000000
20
876.000000
30
0.0
11
712.000000
21
876.000000
31
0.0
0
LINE
8
LINES
10
664.000000
20
140.000000
30
0.0
11
604.000000
21
140.000000
31
0.0
0
LINE
8
LINES
10
668.000000
20
148.000000
30
0.0
11
608.000000
21
148.000000
31
0.0
0
LINE
8
LINES
10
652.000000
20
676.000000
30
0.0
11
712.000000
21
676.000000
31
0.0
0
LINE
8
LINES
10
292.000000
20
676.000000
30
0.0
11
352.000000
21
676.000000
31
0.0
0
LINE
8
LINES
10
532.000000
20
676.000000
30
0.0
11
592.000000
21
676.000000
31
0.0
0
LINE
8
LINES
10
412.000000
20
676.000000
30
0.0
11
472.000000
21
676.000000
31
0.0
0
LINE
8
LINES
10
600.000000
20
144.000000
30
0.0
11
660.000000
21
144.000000
31
0.0
0
LINE
8
LINES
10
360.000000
20
56.000000
30
0.0
11
424.000000
21
56.000000
31
0.0
0
LINE
8
LINES
10
624.000000
20
192.000000
30
0.0
11
564.000000
21
192.000000
31
0.0
0
LINE
8
LINES
10
48.000000
20
264.000000
30
0.0
11
80.000000
21
312.000000
31
0.0
0
LINE
8
LINES
10
776.000000
20
60.000000
30
0.0
11
800.000000
21
112.000000
31
0.0
0
LINE
8
LINES
10
144.000000
20
676.000000
30
0.0
11
200.000000
21
676.000000
31
0.0
0
LINE
8
LINES
10
296.000000
20
276.000000
30
0.0
11
352.000000
21
276.000000
31
0.0
0
LINE
8
LINES
10
532.000000
20
476.000000
30
0.0
11
588.000000
21
476.000000
31
0.0
0
LINE
8
LINES
10
756.000000
20
648.000000
30
0.0
11
816.000000
21
648.000000
31
0.0
0
LINE
8
LINES
10
296.000000
20
476.000000
30
0.0
11
352.000000
21
476.000000
31
0.0
0
LINE
8
LINES
10
412.000000
20
476.000000
30
0.0
11
468.000000
21
476.000000
31
0.0
0
LINE
8
LINES
10
412.000000
20
276.000000
30
0.0
11
468.000000
21
276.000000
31
0.0
0
LINE
8
LINES
10
652.000000
20
476.000000
30
0.0
11
708.000000
21
476.000000
31
0.0
0
LINE
8
LINES
10
528.000000
20
272.000000
30
0.0
11
588.000000
21
272.000000
31
0.0
0
LINE
8
LINES
10
648.000000
20
272.000000
30
0.0
11
708.000000
21
272.000000
31
0.0
0
LINE
8
LINES
10
184.000000
20
92.000000
30
0.0
11
244.000000
21
92.000000
31
0.0
0
LINE
8
LINES
10
720.000000
20
980.000000
30
0.0
11
664.000000
21
980.000000
31
0.0
0
LINE
8
LINES
10
148.000000
20
476.000000
30
0.0
11
204.000000
21
476.000000
31
0.0
0
LINE
8
LINES
10
756.000000
20
444.000000
30
0.0
11
812.000000
21
444.000000
31
0.0
0
LINE
8
LINES
10
148.000000
20
276.000000
30
0.0
11
208.000000
21
276.000000
31
0.0
0
LINE
8
LINES
10
408.000000
20
528.000000
30
0.0
11
408.000000
21
472.000000
31
0.0
0
LINE
8
LINES
10
676.000000
20
316.000000
30
0.0
11
676.000000
21
372.000000
31
0.0
0
LINE
8
LINES
10
140.000000
20
528.000000
30
0.0
11
140.000000
21
472.000000
31
0.0
0
LINE
8
LINES
10
728.000000
20
184.000000
30
0.0
11
672.000000
21
184.000000
31
0.0
0
LINE
8
LINES
10
752.000000
20
240.000000
30
0.0
11
808.000000
21
240.000000
31
0.0
0
LINE
8
LINES
10
732.000000
20
368.000000
30
0.0
11
732.000000
21
312.000000
31
0.0
0
LINE
8
LINES
10
652.000000
20
312.000000
30
0.0
11
708.000000
21
312.000000
31
0.0
0
LINE
8
LINES
10
156.000000
20
320.000000
30
0.0
11
156.000000
21
376.000000
31
0.0
0
LINE
8
LINES
10
416.000000
20
320.000000
30
0.0
11
416.000000
21
372.000000
31
0.0
0
LINE
8
LINES
10
808.000000
20
260.000000
30
0.0
11
752.000000
21
260.000000
31
0.0
0
LINE
8
LINES
10
60.000000
20
248.000000
30
0.0
11
112.000000
21
248.000000
31
0.0
0
LINE
8
LINES
10
760.000000
20
976.000000
30
0.0
11
812.000000
21
976.000000
31
0.0
0
LINE
8
LINES
10
724.000000
20
384.000000
30
0.0
11
672.000000
21
384.000000
31
0.0
0
LINE
8
LINES
10
812.000000
20
448.000000
30
0.0
11
756.000000
21
448.000000
31
0.0
0
LINE
8
LINES
10
768.000000
20
772.000000
30
0.0
11
768.000000
21
720.000000
31
0.0
0
LINE
8
LINES
10
812.000000
20
448.000000
30
0.0
11
760.000000
21
448.000000
31
0.0
0
LINE
8
LINES
10
724.000000
20
872.000000
30
0.0
11
724.000000
21
924.000000
31
0.0
0
LINE
8
LINES
10
760.000000
20
848.000000
30
0.0
11
812.000000
21
848.000000
31
0.0
0
LINE
8
LINES
10
812.000000
20
456.000000
30
0.0
11
760.000000
21
456.000000
31
0.0
0
LINE
8
LINES
10
724.000000
20
664.000000
30
0.0
11
724.000000
21
720.000000
31
0.0
0
LINE
8
LINES
10
600.000000
20
720.000000
30
0.0
11
600.000000
21
668.000000
31
0.0
0
LINE
8
LINES
10
336.000000
20
200.000000
30
0.0
11
288.000000
21
200.000000
31
0.0
0
LINE
8
LINES
10
520.000000
20
136.000000
30
0.0
11
568.000000
21
156.000000
31
0.0
0
LINE
8
LINES
10
48.000000
20
256.000000
30
0.0
11
100.000000
21
256.000000
31
0.0
0
LINE
8
LINES
10
808.000000
20
248.000000
30
0.0
11
756.000000
21
248.000000
31
0.0
0
LINE
8
LINES
10
456.000000
20
76.000000
30
0.0
11
504.000000
21
76.000000
31
0.0
0
LINE
8
LINES
10
760.000000
20
452.000000
30
0.0
11
812.000000
21
452.000000
31
0.0
0
LINE
8
LINES
10
252.000000
20
68.000000
30
0.0
11
304.000000
21
68.000000
31
0.0
0
LINE
8
LINES
10
548.000000
20
380.000000
30
0.0
11
600.000000
21
380.000000
31
0.0
0
LINE
8
LINES
10
336.000000
20
240.000000
30
0.0
11
384.000000
21
240.000000
31
0.0
0
LINE
8
LINES
10
760.000000
20
248.000000
30
0.0
11
808.000000
21
248.000000
31
0.0
0
LINE
8
LINES
10
812.000000
20
580.000000
30
0.0
11
764.000000
21
580.000000
31
0.0
0
LINE
8
LINES
10
204.000000
20
64.000000
30
0.0
11
256.000000
21
64.000000
31
0.0
0
LINE
8
LINES
10
764.000000
20
656.000000
30
0.0
11
812.000000
21
656.000000
31
0.0
0
LINE
8
LINES
10
144.000000
20
200.000000
30
0.0
11
96.000000
21
200.000000
31
0.0
0
LINE
8
LINES
10
812.000000
20
588.000000
30
0.0
11
764.000000
21
588.000000
31
0.0
0
LINE
8
LINES
10
812.000000
20
384.000000
30
0.0
11
764.000000
21
384.000000
31
0.0
0
LINE
8
LINES
10
48.000000
20
440.000000
30
0.0
11
88.000000
21
464.000000
31
0.0
0
LINE
8
LINES
10
100.000000
20
256.000000
30
0.0
11
52.000000
21
256.000000
31
0.0
0
LINE
8
LINES
10
200.000000
20
572.000000
30
0.0
11
152.000000
21
572.000000
31
0.0
0
LINE
8
LINES
10
812.000000
20
376.000000
30
0.0
11
764.000000
21
376.000000
31
0.0
0
LINE
8
LINES
10
812.000000
20
784.000000
30
0.0
11
764.000000
21
784.000000
31
0.0
0
LINE
8
LINES
10
196.000000
20
672.000000
30
0.0
11
148.000000
21
672.000000
31
0.0
0
LINE
8
LINES
10
812.000000
20
660.000000
30
0.0
11
768.000000
21
660.000000
31
0.0
0
LINE
8
LINES
10
108.000000
20
172.000000
30
0.0
11
156.000000
21
172.000000
31
0.0
0
LINE
8
LINES
10
148.000000
20
576.000000
30
0.0
11
192.000000
21
576.000000
31
0.0
0
LINE
8
LINES
10
664.000000
20
720.000000
30
0.0
11
712.000000
21
720.000000
31
0.0
0
LINE
8
LINES
10
640.000000
20
952.000000
30
0.0
11
640.000000
21
904.000000
31
0.0
0
LINE
8
LINES
10
160.000000
20
180.000000
30
0.0
11
208.000000
21
180.000000
31
0.0
0
LINE
8
LINES
10
272.000000
20
248.000000
30
0.0
11
228.000000
21
248.000000
31
0.0
0
LINE
8
LINES
10
724.000000
20
588.000000
30
0.0
11
680.000000
21
588.000000
31
0.0
0
LINE
8
LINES
10
160.000000
20
176.000000
30
0.0
11
204.000000
21
176.000000
31
0.0
0
LINE
8
LINES
10
812.000000
20
860.000000
30
0.0
11
768.000000
21
860.000000
31
0.0
0
LINE
8
LINES
10
276.000000
20
56.000000
30
0.0
11
320.000000
21
56.000000
31
0.0
0
LINE
8
LINES
10
332.000000
20
372.000000
30
0.0
11
332.000000
21
328.000000
31
0.0
0
LINE
8
LINES
10
304.000000
20
512.000000
30
0.0
11
352.000000
21
512.000000
31
0.0
0
LINE
8
LINES
10
56.000000
20
264.000000
30
0.0
11
100.000000
21
264.000000
31
0.0
0
LINE
8
LINES
10
388.000000
20
92.000000
30
0.0
11
344.000000
21
92.000000
31
0.0
0
LINE
8
LINES
10
120.000000
20
140.000000
30
0.0
11
164.000000
21
140.000000
31
0.0
0
LINE
8
LINES
10
256.000000
20
180.000000
30
0.0
11
300.000000
21
180.000000
31
0.0
0
LINE
8
LINES
10
544.000000
20
312.000000
30
0.0
11
588.000000
21
312.000000
31
0.0
0
LINE
8
LINES
10
288.000000
20
48.000000
30
0.0
11
332.000000
21
48.000000
31
0.0
0
LINE
8
LINES
10
208.000000
20
180.000000
30
0.0
11
252.000000
21
180.000000
31
0.0
0
LINE
8
LINES
10
564.000000
20
368.000000
30
0.0
11
564.000000
21
328.000000
31
0.0
0
LINE
8
LINES
10
320.000000
20
380.000000
30
0.0
11
364.000000
21
380.000000
31
0.0
0
LINE
8
LINES
10
120.000000
20
480.000000
30
0.0
11
80.000000
21
488.000000
31
0.0
0
LINE
8
LINES
10
544.000000
20
720.000000
30
0.0
11
588.000000
21
720.000000
31
0.0
0
LINE
8
LINES
10
396.000000
20
856.000000
30
0.0
11
440.000000
21
856.000000
31
0.0
0
LINE
8
LINES
10
772.000000
20
672.000000
30
0.0
11
816.000000
21
672.000000
31
0.0
0
LINE
8
LINES
10
768.000000
20
856.000000
30
0.0
11
812.000000
21
856.000000
31
0.0
0
LINE
8
LINES
10
720.000000
20
88.000000
30
0.0
11
744.000000
21
120.000000
31
0.0
0
LINE
8
LINES
10
688.000000
20
120.000000
30
0.0
11
716.000000
21
88.000000
31
0.0
0
LINE
8
LINES
10
772.000000
20
472.000000
30
0.0
11
812.000000
21
472.000000
31
0.0
0
LINE
8
LINES
10
212.000000
20
176.000000
30
0.0
11
252.000000
21
176.000000
31
0.0
0
LINE
8
LINES
10
320.000000
20
164.000000
30
0.0
11
280.000000
21
164.000000
31
0.0
0
LINE
8
LINES
10
256.000000
20
172.000000
30
0.0
11
296.000000
21
172.000000
31
0.0
0
LINE
8
LINES
10
552.000000
20
448.000000
30
0.0
11
512.000000
21
448.000000
31
0.0
0
LINE
8
LINES
10
336.000000
20
92.000000
30
0.0
11
376.000000
21
92.000000
31
0.0
0
LINE
8
LINES
10
340.000000
20
116.000000
30
0.0
11
384.000000
21
116.000000
31
0.0
0
LINE
8
LINES
10
808.000000
20
780.000000
30
0.0
11
768.000000
21
780.000000
31
0.0
0
LINE
8
LINES
10
712.000000
20
776.000000
30
0.0
11
672.000000
21
776.000000
31
0.0
0
LINE
8
LINES
10
428.000000
20
512.000000
30
0.0
11
468.000000
21
512.000000
31
0.0
0
LINE
8
LINES
10
464.000000
20
872.000000
30
0.0
11
424.000000
21
872.000000
31
0.0
0
LINE
8
LINES
10
68.000000
20
316.000000
30
0.0
11
28.000000
21
316.000000
31
0.0
0
LINE
8
LINES
10
812.000000
20
960.000000
30
0.0
11
772.000000
21
960.000000
31
0.0
0
LINE
8
LINES
10
448.000000
20
672.000000
30
0.0
11
408.000000
21
672.000000
31
0.0
0
LINE
8
LINES
10
404.000000
20
720.000000
30
0.0
11
404.000000
21
680.000000
31
0.0
0
LINE
8
LINES
10
680.000000
20
852.000000
30
0.0
11
640.000000
21
852.000000
31
0.0
0
LINE
8
LINES
10
440.000000
20
856.000000
30
0.0
11
480.000000
21
856.000000
31
0.0
0
LINE
8
LINES
10
400.000000
20
156.000000
30
0.0
11
436.000000
21
148.000000
31
0.0
0
LINE
8
LINES
10
792.000000
20
1000.000000
30
0.0
11
752.000000
21
1000.000000
31
0.0
0
LINE
8
LINES
10
772.000000
20
268.000000
30
0.0
11
808.000000
21
268.000000
31
0.0
0
LINE
8
LINES
10
392.000000
20
108.000000
30
0.0
11
432.000000
21
108.000000
31
0.0
0
LINE
8
LINES
10
812.000000
20
956.000000
30
0.0
11
772.000000
21
956.000000
31
0.0
0
LINE
8
LINES
10
132.000000
20
120.000000
30
0.0
11
168.000000
21
120.000000
31
0.0
0
LINE
8
LINES
10
376.000000
20
236.000000
30
0.0
11
336.000000
21
236.000000
31
0.0
0
LINE
8
LINES
10
336.000000
20
272.000000
30
0.0
11
296.000000
21
272.000000
31
0.0
0
LINE
8
LINES
10
176.000000
20
256.000000
30
0.0
11
140.000000
21
256.000000
31
0.0
0
LINE
8
LINES
10
184.000000
20
236.000000
30
0.0
11
144.000000
21
236.000000
31
0.0
0
LINE
8
LINES
10
776.000000
20
672.000000
30
0.0
11
816.000000
21
672.000000
31
0.0
0
LINE
8
LINES
10
676.000000
20
588.000000
30
0.0
11
640.000000
21
588.000000
31
0.0
0
LINE
8
LINES
10
312.000000
20
172.000000
30
0.0
11
348.000000
21
172.000000
31
0.0
0
LINE
8
LINES
10
456.000000
20
112.000000
30
0.0
11
420.000000
21
112.000000
31
0.0
0
LINE
8
LINES
10
592.000000
20
148.000000
30
0.0
11
632.000000
21
148.000000
31
0.0
0
LINE
8
LINES
10
140.000000
20
100.000000
30
0.0
11
176.000000
21
100.000000
31
0.0
0
LINE
8
LINES
10
336.000000
20
108.000000
30
0.0
11
376.000000
21
108.000000
31
0.0
0
LINE
8
LINES
10
588.000000
20
776.000000
30
0.0
11
552.000000
21
776.000000
31
0.0
0
LINE
8
LINES
10
160.000000
20
128.000000
30
0.0
11
196.000000
21
128.000000
31
0.0
0
LINE
8
LINES
10
280.000000
20
216.000000
30
0.0
11
240.000000
21
216.000000
31
0.0
0
LINE
8
LINES
10
376.000000
20
200.000000
30
0.0
11
340.000000
21
200.000000
31
0.0
0
LINE
8
LINES
10
772.000000
20
272.000000
30
0.0
11
808.000000
21
272.000000
31
0.0
0
LINE
8
LINES
10
776.000000
20
472.000000
30
0.0
11
812.000000
21
472.000000
31
0.0
0
LINE
8
LINES
10
28.000000
20
316.000000
30
0.0
11
64.000000
21
316.000000
31
0.0
0
LINE
8
LINES
10
240.000000
20
216.000000
30
0.0
11
200.000000
21
216.000000
31
0.0
0
LINE
8
LINES
10
816.000000
20
508.000000
30
0.0
11
816.000000
21
544.000000
31
0.0
0
LINE
8
LINES
10
288.000000
20
128.000000
30
0.0
11
324.000000
21
128.000000
31
0.0
0
LINE
8
LINES
10
360.000000
20
88.000000
30
0.0
11
400.000000
21
88.000000
31
0.0
0
LINE
8
LINES
10
340.000000
20
64.000000
30
0.0
11
376.000000
21
64.000000
31
0.0
0
LINE
8
LINES
10
304.000000
20
56.000000
30
0.0
11
268.000000
21
56.000000
31
0.0
0
LINE
8
LINES
10
328.000000
20
104.000000
30
0.0
11
364.000000
21
104.000000
31
0.0
0
LINE
8
LINES
10
184.000000
20
56.000000
30
0.0
11
220.000000
21
56.000000
31
0.0
0
LINE
8
LINES
10
552.000000
20
176.000000
30
0.0
11
588.000000
21
176.000000
31
0.0
0
LINE
8
LINES
10
212.000000
20
920.000000
30
0.0
11
212.000000
21
952.000000
31
0.0
0
LINE
8
LINES
10
168.000000
20
72.000000
30
0.0
11
204.000000
21
72.000000
31
0.0
0
LINE
8
LINES
10
440.000000
20
104.000000
30
0.0
11
472.000000
21
104.000000
31
0.0
0
LINE
8
LINES
10
232.000000
20
80.000000
30
0.0
11
268.000000
21
80.000000
31
0.0
0
LINE
8
LINES
10
144.000000
20
112.000000
30
0.0
11
180.000000
21
112.000000
31
0.0
0
LINE
8
LINES
10
236.000000
20
52.000000
30
0.0
11
272.000000
21
52.000000
31
0.0
0
LINE
8
LINES
10
264.000000
20
72.000000
30
0.0
11
296.000000
21
72.000000
31
0.0
0
LINE
8
LINES
10
256.000000
20
164.000000
30
0.0
11
220.000000
21
164.000000
31
0.0
0
LINE
8
LINES
10
384.000000
20
20.000000
30
0.0
11
348.000000
21
20.000000
31
0.0
0
LINE
8
LINES
10
352.000000
20
576.000000
30
0.0
11
316.000000
21
576.000000
31
0.0
0
LINE
8
LINES
10
424.000000
20
60.000000
30
0.0
11
388.000000
21
60.000000
31
0.0
0
LINE
8
LINES
10
312.000000
20
180.000000
30
0.0
11
348.000000
21
180.000000
31
0.0
0
LINE
8
LINES
10
112.000000
20
180.000000
30
0.0
11
148.000000
21
180.000000
31
0.0
0
LINE
8
LINES
10
200.000000
20
776.000000
30
0.0
11
168.000000
21
776.000000
31
0.0
0
LINE
8
LINES
10
280.000000
20
380.000000
30
0.0
11
316.000000
21
380.000000
31
0.0
0
LINE
8
LINES
10
352.000000
20
180.000000
30
0.0
11
388.000000
21
180.000000
31
0.0
0
LINE
8
LINES
10
108.000000
20
300.000000
30
0.0
11
72.000000
21
300.000000
31
0.0
0
LINE
8
LINES
10
60.000000
20
212.000000
30
0.0
11
60.000000
21
248.000000
31
0.0
0
LINE
8
LINES
10
632.000000
20
128.000000
30
0.0
11
600.000000
21
128.000000
31
0.0
0
LINE
8
LINES
10
680.000000
20
372.000000
30
0.0
11
680.000000
21
336.000000
31
0.0
0
LINE
8
LINES
10
296.000000
20
76.000000
30
0.0
11
332.000000
21
76.000000
31
0.0
0
LINE
8
LINES
10
276.000000
20
136.000000
30
0.0
11
240.000000
21
136.000000
31
0.0
0
LINE
8
LINES
10
404.000000
20
124.000000
30
0.0
11
372.000000
21
124.000000
31
0.0
0
LINE
8
LINES
10
704.000000
20
128.000000
30
0.0
11
736.000000
21
128.000000
31
0.0
0
LINE
8
LINES
10
60.000000
20
300.000000
30
0.0
11
28.000000
21
300.000000
31
0.0
0
LINE
8
LINES
10
480.000000
20
120.000000
30
0.0
11
516.000000
21
128.000000
31
0.0
0
LINE
8
LINES
10
64.000000
20
284.000000
30
0.0
11
96.000000
21
284.000000
31
0.0
0
LINE
8
LINES
10
96.000000
20
276.000000
30
0.0
11
64.000000
21
276.000000
31
0.0
0
LINE
8
LINES
10
840.000000
20
72.000000
30
0.0
11
808.000000
21
72.000000
31
0.0
0
LINE
8
LINES
10
96.000000
20
272.000000
30
0.0
11
64.000000
21
272.000000
31
0.0
0
LINE
8
LINES
10
228.000000
20
60.000000
30
0.0
11
264.000000
21
60.000000
31
0.0
0
LINE
8
LINES
10
336.000000
20
40.000000
30
0.0
11
368.000000
21
40.000000
31
0.0
0
LINE
8
LINES
10
268.000000
20
32.000000
30
0.0
11
304.000000
21
32.000000
31
0.0
0
LINE
8
LINES
10
776.000000
20
312.000000
30
0.0
11
808.000000
21
312.000000
31
0.0
0
LINE
8
LINES
10
780.000000
20
864.000000
30
0.0
11
812.000000
21
864.000000
31
0.0
0
LINE
8
LINES
10
604.000000
20
176.000000
30
0.0
11
636.000000
21
176.000000
31
0.0
0
LINE
8
LINES
10
144.000000
20
336.000000
30
0.0
11
144.000000
21
304.000000
31
0.0
0
LINE
8
LINES
10
780.000000
20
872.000000
30
0.0
11
812.000000
21
872.000000
31
0.0
0
LINE
8
LINES
10
672.000000
20
384.000000
30
0.0
11
640.000000
21
384.000000
31
0.0
0
LINE
8
LINES
10
272.000000
20
244.000000
30
0.0
11
304.000000
21
244.000000
31
0.0
0
LINE
8
LINES
10
152.000000
20
960.000000
30
0.0
11
184.000000
21
960.000000
31
0.0
0
LINE
8
LINES
10
396.000000
20
56.000000
30
0.0
11
364.000000
21
56.000000
31
0.0
0
LINE
8
LINES
10
204.000000
20
856.000000
30
0.0
11
172.000000
21
856.000000
31
0.0
0
LINE
8
LINES
10
736.000000
20
196.000000
30
0.0
11
704.000000
21
196.000000
31
0.0
0
LINE
8
LINES
10
672.000000
20
552.000000
30
0.0
11
704.000000
21
552.000000
31
0.0
0
LINE
8
LINES
10
732.000000
20
972.000000
30
0.0
11
732.000000
21
1000.000000
31
0.0
0
LINE
8
LINES
10
384.000000
20
120.000000
30
0.0
11
352.000000
21
120.000000
31
0.0
0
LINE
8
LINES
10
176.000000
20
164.000000
30
0.0
11
144.000000
21
164.000000
31
0.0
0
LINE
8
LINES
10
560.000000
20
272.000000
30
0.0
11
528.000000
21
272.000000
31
0.0
0
LINE
8
LINES
10
416.000000
20
180.000000
30
0.0
11
448.000000
21
180.000000
31
0.0
0
LINE
8
LINES
10
488.000000
20
216.000000
30
0.0
11
456.000000
21
216.000000
31
0.0
0
LINE
8
LINES
10
328.000000
20
984.000000
30
0.0
11
300.000000
21
984.000000
31
0.0
0
ENDSEC
0
EOF
