0
SECTION
2
ENTITIES
0
LWPOLYLINE
8
FACADE_OUTLINE
90
4
70
1
10
0.000000
20
0.000000
10
1024.000000
20
0.000000
10
1024.000000
20
558.000000
10
0.000000
20
558.000000
0
LWPOLYLINE
8
WINDOWS
90
4
70
1
10
0.000000
20
0.000000
10
1024.000000
20
0.000000
10
1024.000000
20
558.000000
10
0.000000
20
558.000000
0
LWPOLYLINE
8
WINDOWS
90
4
70
1
10
105.000000
20
120.000000
10
409.000000
20
120.000000
10
409.000000
20
256.000000
10
105.000000
20
256.000000
0
LWPOLYLINE
8
WINDOWS
90
4
70
1
10
553.000000
20
128.000000
10
684.000000
20
128.000000
10
684.000000
20
256.000000
10
553.000000
20
256.000000
0
LWPOLYLINE
8
WINDOWS
90
4
70
1
10
188.000000
20
134.000000
10
244.000000
20
134.000000
10
244.000000
20
251.000000
10
188.000000
20
251.000000
0
LWPOLYLINE
8
WINDOWS
90
4
70
1
10
760.000000
20
144.000000
10
828.000000
20
144.000000
10
828.000000
20
256.000000
10
760.000000
20
256.000000
0
LWPOLYLINE
8
WINDOWS
90
4
70
1
10
897.000000
20
144.000000
10
961.000000
20
144.000000
10
961.000000
20
256.000000
10
897.000000
20
256.000000
0
LWPOLYLINE
8
WINDOWS
90
4
70
1
10
904.000000
20
150.000000
10
945.000000
20
150.000000
10
945.000000
20
188.000000
10
904.000000
20
188.000000
0
LWPOLYLINE
8
WINDOWS
90
4
70
1
10
510.000000
20
152.000000
10
536.000000
20
152.000000
10
536.000000
20
193.000000
10
510.000000
20
193.000000
0
LWPOLYLINE
8
WINDOWS
90
4
70
1
10
0.000000
20
307.000000
10
238.000000
20
307.000000
10
238.000000
20
558.000000
10
0.000000
20
558.000000
0
LWPOLYLINE
8
WINDOWS
90
4
70
1
10
30.000000
20
364.000000
10
248.000000
20
364.000000
10
248.000000
20
545.000000
10
30.000000
20
545.000000
0
LWPOLYLINE
8
WINDOWS
90
4
70
1
10
246.000000
20
374.000000
10
336.000000
20
374.000000
10
336.000000
20
502.000000
10
246.000000
20
502.000000
0
LWPOLYLINE
8
WINDOWS
90
4
70
1
10
344.000000
20
374.000000
10
684.000000
20
374.000000
10
684.000000
20
550.000000
10
344.000000
20
550.000000
0
LWPOLYLINE
8
WINDOWS
90
4
70
1
10
489.000000
20
376.000000
10
550.000000
20
376.000000
10
550.000000
20
483.000000
10
489.000000
20
483.000000
0
LWPOLYLINE
8
WINDOWS
90
4
70
1
10
625.000000
20
376.000000
10
705.000000
20
376.000000
10
705.000000
20
486.000000
10
625.000000
20
486.000000
0
LWPOLYLINE
8
WINDOWS
90
4
70
1
10
899.000000
20
376.000000
10
963.000000
20
376.000000
10
963.000000
20
483.000000
10
899.000000
20
483.000000
0
LWPOLYLINE
8
WINDOWS
90
4
70
1
10
769.000000
20
382.000000
10
811.000000
20
382.000000
10
811.000000
20
417.000000
10
769.000000
20
417.000000
0
LWPOLYLINE
8
WINDOWS
90
4
70
1
10
633.000000
20
382.000000
10
676.000000
20
382.000000
10
676.000000
20
414.000000
10
633.000000
20
414.000000
0
LWPOLYLINE
8
WINDOWS
90
4
70
1
10
497.000000
20
384.000000
10
540.000000
20
384.000000
10
540.000000
20
416.000000
10
497.000000
20
416.000000
0
LWPOLYLINE
8
WINDOWS
90
4
70
1
10
217.000000
20
467.000000
10
344.000000
20
467.000000
10
344.000000
20
545.000000
10
217.000000
20
545.000000
0
LWPOLYLINE
8
DOORS
90
4
70
1
10
766.000000
20
376.000000
10
825.000000
20
376.000000
10
825.000000
20
488.000000
10
766.000000
20
488.000000
0
LWPOLYLINE
8
DOORS
90
4
70
1
10
377.000000
20
380.000000
10
409.000000
20
380.000000
10
409.000000
20
476.000000
10
377.000000
20
476.000000
0
LWPOLYLINE
8
DOORS
90
4
70
1
10
128.000000
20
382.000000
10
169.000000
20
382.000000
10
169.000000
20
537.000000
10
128.000000
20
537.000000
0
LINE
8
LINES
10
1022.000000
20
22.000000
30
0.0
11
326.000000
21
22.000000
31
0.0
0
LINE
8
LINES
10
328.000000
20
41.000000
30
0.0
11
1022.000000
21
41.000000
31
0.0
0
LINE
8
LINES
10
1022.000000
20
38.000000
30
0.0
11
328.000000
21
38.000000
31
0.0
0
LINE
8
LINES
10
398.000000
20
17.000000
30
0.0
11
824.000000
21
17.000000
31
0.0
0
LINE
8
LINES
10
313.000000
20
307.000000
30
0.0
11
723.000000
21
307.000000
31
0.0
0
LINE
8
LINES
10
318.000000
20
259.000000
30
0.0
11
723.000000
21
259.000000
31
0.0
0
LINE
8
LINES
10
334.000000
20
25.000000
30
0.0
11
739.000000
21
25.000000
31
0.0
0
LINE
8
LINES
10
332.000000
20
33.000000
30
0.0
11
713.000000
21
33.000000
31
0.0
0
LINE
8
LINES
10
700.000000
20
30.000000
30
0.0
11
334.000000
21
30.000000
31
0.0
0
LINE
8
LINES
10
716.000000
20
35.000000
30
0.0
11
1022.000000
21
35.000000
31
0.0
0
LINE
8
LINES
10
30.000000
20
27.000000
30
0.0
11
332.000000
21
27.000000
31
0.0
0
LINE
8
LINES
10
728.000000
20
259.000000
30
0.0
11
1022.000000
21
259.000000
31
0.0
0
LINE
8
LINES
10
732.000000
20
307.000000
30
0.0
11
1022.000000
21
307.000000
31
0.0
0
LINE
8
LINES
10
433.000000
20
491.000000
30
0.0
11
723.000000
21
491.000000
31
0.0
0
LINE
8
LINES
10
43.000000
20
302.000000
30
0.0
11
323.000000
21
302.000000
31
0.0
0
LINE
8
LINES
10
1022.000000
20
312.000000
30
0.0
11
748.000000
21
312.000000
31
0.0
0
LINE
8
LINES
10
1022.000000
20
28.000000
30
0.0
11
753.000000
21
28.000000
31
0.0
0
LINE
8
LINES
10
0.000000
20
284.000000
30
0.0
11
0.000000
21
537.000000
31
0.0
0
LINE
8
LINES
10
721.000000
20
51.000000
30
0.0
11
721.000000
21
305.000000
31
0.0
0
LINE
8
LINES
10
793.000000
20
19.000000
30
0.0
11
1022.000000
21
19.000000
31
0.0
0
LINE
8
LINES
10
793.000000
20
27.000000
30
0.0
11
1022.000000
21
27.000000
31
0.0
0
LINE
8
LINES
10
323.000000
20
38.000000
30
0.0
11
99.000000
21
38.000000
31
0.0
0
LINE
8
LINES
10
17.000000
20
540.000000
30
0.0
11
238.000000
21
540.000000
31
0.0
0
LINE
8
LINES
10
3.000000
20
222.000000
30
0.0
11
3.000000
21
1.000000
31
0.0
0
LINE
8
LINES
10
952.000000
20
265.000000
30
0.0
11
731.000000
21
265.000000
31
0.0
0
LINE
8
LINES
10
726.000000
20
310.000000
30
0.0
11
726.000000
21
510.000000
31
0.0
0
LINE
8
LINES
10
124.000000
20
254.000000
30
0.0
11
321.000000
21
254.000000
31
0.0
0
LINE
8
LINES
10
776.000000
20
491.000000
30
0.0
11
956.000000
21
491.000000
31
0.0
0
LINE
8
LINES
10
49.000000
20
312.000000
30
0.0
11
49.000000
21
492.000000
31
0.0
0
LINE
8
LINES
10
326.000000
20
16.000000
30
0.0
11
499.000000
21
16.000000
31
0.0
0
LINE
8
LINES
10
172.000000
20
374.000000
30
0.0
11
172.000000
21
542.000000
31
0.0
0
LINE
8
LINES
10
937.000000
20
499.000000
30
0.0
11
771.000000
21
499.000000
31
0.0
0
LINE
8
LINES
10
363.000000
20
548.000000
30
0.0
11
198.000000
21
548.000000
31
0.0
0
LINE
8
LINES
10
196.000000
20
531.000000
30
0.0
11
196.000000
21
376.000000
31
0.0
0
LINE
8
LINES
10
102.000000
20
118.000000
30
0.0
11
257.000000
21
118.000000
31
0.0
0
LINE
8
LINES
10
340.000000
20
372.000000
30
0.0
11
340.000000
21
521.000000
31
0.0
0
LINE
8
LINES
10
420.000000
20
372.000000
30
0.0
11
420.000000
21
516.000000
31
0.0
0
LINE
8
LINES
10
582.000000
20
312.000000
30
0.0
11
438.000000
21
312.000000
31
0.0
0
LINE
8
LINES
10
252.000000
20
126.000000
30
0.0
11
112.000000
21
126.000000
31
0.0
0
LINE
8
LINES
10
228.000000
20
384.000000
30
0.0
11
228.000000
21
524.000000
31
0.0
0
LINE
8
LINES
10
195.000000
20
33.000000
30
0.0
11
57.000000
21
33.000000
31
0.0
0
LINE
8
LINES
10
265.000000
20
308.000000
30
0.0
11
126.000000
21
308.000000
31
0.0
0
LINE
8
LINES
10
454.000000
20
316.000000
30
0.0
11
318.000000
21
316.000000
31
0.0
0
LINE
8
LINES
10
332.000000
20
364.000000
30
0.0
11
332.000000
21
497.000000
31
0.0
0
LINE
8
LINES
10
435.000000
20
361.000000
30
0.0
11
435.000000
21
491.000000
31
0.0
0
LINE
8
LINES
10
246.000000
20
372.000000
30
0.0
11
246.000000
21
497.000000
31
0.0
0
LINE
8
LINES
10
505.000000
20
547.000000
30
0.0
11
382.000000
21
547.000000
31
0.0
0
LINE
8
LINES
10
124.000000
20
494.000000
30
0.0
11
124.000000
21
376.000000
31
0.0
0
LINE
8
LINES
10
169.000000
20
134.000000
30
0.0
11
169.000000
21
252.000000
31
0.0
0
LINE
8
LINES
10
243.000000
20
132.000000
30
0.0
11
243.000000
21
249.000000
31
0.0
0
LINE
8
LINES
10
339.000000
20
488.000000
30
0.0
11
339.000000
21
372.000000
31
0.0
0
LINE
8
LINES
10
121.000000
20
249.000000
30
0.0
11
121.000000
21
136.000000
31
0.0
0
LINE
8
LINES
10
542.000000
20
142.000000
30
0.0
11
542.000000
21
256.000000
31
0.0
0
LINE
8
LINES
10
716.000000
20
486.000000
30
0.0
11
716.000000
21
371.000000
31
0.0
0
LINE
8
LINES
10
820.000000
20
142.000000
30
0.0
11
820.000000
21
254.000000
31
0.0
0
LINE
8
LINES
10
828.000000
20
371.000000
30
0.0
11
828.000000
21
483.000000
31
0.0
0
LINE
8
LINES
10
921.000000
20
553.000000
30
0.0
11
812.000000
21
553.000000
31
0.0
0
LINE
8
LINES
10
486.000000
20
483.000000
30
0.0
11
486.000000
21
374.000000
31
0.0
0
LINE
8
LINES
10
252.000000
20
371.000000
30
0.0
11
252.000000
21
478.000000
31
0.0
0
LINE
8
LINES
10
713.000000
20
313.000000
30
0.0
11
606.000000
21
313.000000
31
0.0
0
LINE
8
LINES
10
542.000000
20
379.000000
30
0.0
11
542.000000
21
486.000000
31
0.0
0
LINE
8
LINES
10
401.000000
20
148.000000
30
0.0
11
401.000000
21
256.000000
31
0.0
0
LINE
8
LINES
10
483.000000
20
249.000000
30
0.0
11
483.000000
21
142.000000
31
0.0
0
LINE
8
LINES
10
622.000000
20
248.000000
30
0.0
11
622.000000
21
142.000000
31
0.0
0
LINE
8
LINES
10
899.000000
20
481.000000
30
0.0
11
899.000000
21
374.000000
31
0.0
0
LINE
8
LINES
10
550.000000
20
142.000000
30
0.0
11
550.000000
21
248.000000
31
0.0
0
LINE
8
LINES
10
689.000000
20
499.000000
30
0.0
11
582.000000
21
499.000000
31
0.0
0
LINE
8
LINES
10
118.000000
20
481.000000
30
0.0
11
118.000000
21
376.000000
31
0.0
0
LINE
8
LINES
10
193.000000
20
241.000000
30
0.0
11
193.000000
21
136.000000
31
0.0
0
LINE
8
LINES
10
950.000000
20
147.000000
30
0.0
11
950.000000
21
252.000000
31
0.0
0
LINE
8
LINES
10
688.000000
20
142.000000
30
0.0
11
688.000000
21
246.000000
31
0.0
0
LINE
8
LINES
10
625.000000
20
478.000000
30
0.0
11
625.000000
21
372.000000
31
0.0
0
LINE
8
LINES
10
329.000000
20
361.000000
30
0.0
11
433.000000
21
361.000000
31
0.0
0
LINE
8
LINES
10
812.000000
20
147.000000
30
0.0
11
812.000000
21
252.000000
31
0.0
0
LINE
8
LINES
10
192.000000
20
376.000000
30
0.0
11
192.000000
21
481.000000
31
0.0
0
LINE
8
LINES
10
118.000000
20
376.000000
30
0.0
11
118.000000
21
481.000000
31
0.0
0
LINE
8
LINES
10
678.000000
20
19.000000
30
0.0
11
784.000000
21
19.000000
31
0.0
0
LINE
8
LINES
10
683.000000
20
142.000000
30
0.0
11
683.000000
21
246.000000
31
0.0
0
LINE
8
LINES
10
758.000000
20
248.000000
30
0.0
11
758.000000
21
144.000000
31
0.0
0
LINE
8
LINES
10
686.000000
20
377.000000
30
0.0
11
686.000000
21
481.000000
31
0.0
0
LINE
8
LINES
10
176.000000
20
137.000000
30
0.0
11
176.000000
21
241.000000
31
0.0
0
LINE
8
LINES
10
824.000000
20
246.000000
30
0.0
11
824.000000
21
142.000000
31
0.0
0
LINE
8
LINES
10
188.000000
20
241.000000
30
0.0
11
188.000000
21
137.000000
31
0.0
0
LINE
8
LINES
10
643.000000
20
550.000000
30
0.0
11
542.000000
21
550.000000
31
0.0
0
LINE
8
LINES
10
691.000000
20
376.000000
30
0.0
11
691.000000
21
478.000000
31
0.0
0
LINE
8
LINES
10
190.000000
20
137.000000
30
0.0
11
190.000000
21
241.000000
31
0.0
0
LINE
8
LINES
10
408.000000
20
144.000000
30
0.0
11
408.000000
21
246.000000
31
0.0
0
LINE
8
LINES
10
116.000000
20
139.000000
30
0.0
11
116.000000
21
241.000000
31
0.0
0
LINE
8
LINES
10
412.000000
20
246.000000
30
0.0
11
412.000000
21
144.000000
31
0.0
0
LINE
8
LINES
10
547.000000
20
377.000000
30
0.0
11
547.000000
21
476.000000
31
0.0
0
LINE
8
LINES
10
552.000000
20
476.000000
30
0.0
11
552.000000
21
377.000000
31
0.0
0
LINE
8
LINES
10
345.000000
20
246.000000
30
0.0
11
345.000000
21
147.000000
31
0.0
0
LINE
8
LINES
10
553.000000
20
379.000000
30
0.0
11
553.000000
21
478.000000
31
0.0
0
LINE
8
LINES
10
348.000000
20
147.000000
30
0.0
11
348.000000
21
246.000000
31
0.0
0
LINE
8
LINES
10
905.000000
20
476.000000
30
0.0
11
905.000000
21
379.000000
31
0.0
0
LINE
8
LINES
10
220.000000
20
548.000000
30
0.0
11
124.000000
21
548.000000
31
0.0
0
LINE
8
LINES
10
953.000000
20
379.000000
30
0.0
11
953.000000
21
476.000000
31
0.0
0
LINE
8
LINES
10
689.000000
20
476.000000
30
0.0
11
689.000000
21
380.000000
31
0.0
0
LINE
8
LINES
10
825.000000
20
153.000000
30
0.0
11
825.000000
21
249.000000
31
0.0
0
LINE
8
LINES
10
816.000000
20
379.000000
30
0.0
11
816.000000
21
473.000000
31
0.0
0
LINE
8
LINES
10
678.000000
20
379.000000
30
0.0
11
678.000000
21
473.000000
31
0.0
0
LINE
8
LINES
10
958.000000
20
142.000000
30
0.0
11
958.000000
21
236.000000
31
0.0
0
LINE
8
LINES
10
739.000000
20
550.000000
30
0.0
11
646.000000
21
550.000000
31
0.0
0
LINE
8
LINES
10
425.000000
20
465.000000
30
0.0
11
425.000000
21
372.000000
31
0.0
0
LINE
8
LINES
10
115.000000
20
228.000000
30
0.0
11
115.000000
21
137.000000
31
0.0
0
LINE
8
LINES
10
675.000000
20
147.000000
30
0.0
11
675.000000
21
238.000000
31
0.0
0
LINE
8
LINES
10
412.000000
20
379.000000
30
0.0
11
412.000000
21
467.000000
31
0.0
0
LINE
8
LINES
10
425.000000
20
366.000000
30
0.0
11
337.000000
21
366.000000
31
0.0
0
LINE
8
LINES
10
249.000000
20
156.000000
30
0.0
11
249.000000
21
243.000000
31
0.0
0
LINE
8
LINES
10
48.000000
20
163.000000
30
0.0
11
48.000000
21
252.000000
31
0.0
0
LINE
8
LINES
10
174.000000
20
227.000000
30
0.0
11
174.000000
21
139.000000
31
0.0
0
LINE
8
LINES
10
252.000000
20
536.000000
30
0.0
11
337.000000
21
536.000000
31
0.0
0
LINE
8
LINES
10
473.000000
20
129.000000
30
0.0
11
561.000000
21
129.000000
31
0.0
0
LINE
8
LINES
10
750.000000
20
129.000000
30
0.0
11
836.000000
21
129.000000
31
0.0
0
LINE
8
LINES
10
422.000000
20
124.000000
30
0.0
11
336.000000
21
124.000000
31
0.0
0
LINE
8
LINES
10
326.000000
20
465.000000
30
0.0
11
326.000000
21
379.000000
31
0.0
0
LINE
8
LINES
10
548.000000
20
233.000000
30
0.0
11
548.000000
21
147.000000
31
0.0
0
LINE
8
LINES
10
430.000000
20
483.000000
30
0.0
11
430.000000
21
398.000000
31
0.0
0
LINE
8
LINES
10
612.000000
20
129.000000
30
0.0
11
697.000000
21
129.000000
31
0.0
0
LINE
8
LINES
10
337.000000
20
129.000000
30
0.0
11
420.000000
21
129.000000
31
0.0
0
LINE
8
LINES
10
419.000000
20
465.000000
30
0.0
11
419.000000
21
382.000000
31
0.0
0
LINE
8
LINES
10
892.000000
20
129.000000
30
0.0
11
974.000000
21
129.000000
31
0.0
0
LINE
8
LINES
10
910.000000
20
532.000000
30
0.0
11
828.000000
21
532.000000
31
0.0
0
LINE
8
LINES
10
16.000000
20
441.000000
30
0.0
11
16.000000
21
361.000000
31
0.0
0
LINE
8
LINES
10
966.000000
20
398.000000
30
0.0
11
966.000000
21
481.000000
31
0.0
0
LINE
8
LINES
10
345.000000
20
452.000000
30
0.0
11
345.000000
21
372.000000
31
0.0
0
LINE
8
LINES
10
835.000000
20
361.000000
30
0.0
11
755.000000
21
361.000000
31
0.0
0
LINE
8
LINES
10
961.000000
20
398.000000
30
0.0
11
961.000000
21
476.000000
31
0.0
0
LINE
8
LINES
10
46.000000
20
497.000000
30
0.0
11
121.000000
21
497.000000
31
0.0
0
LINE
8
LINES
10
716.000000
20
161.000000
30
0.0
11
716.000000
21
83.000000
31
0.0
0
LINE
8
LINES
10
420.000000
20
371.000000
30
0.0
11
344.000000
21
371.000000
31
0.0
0
LINE
8
LINES
10
344.000000
20
374.000000
30
0.0
11
419.000000
21
374.000000
31
0.0
0
LINE
8
LINES
10
971.000000
20
361.000000
30
0.0
11
896.000000
21
361.000000
31
0.0
0
LINE
8
LINES
10
44.000000
20
256.000000
30
0.0
11
118.000000
21
256.000000
31
0.0
0
LINE
8
LINES
10
249.000000
20
468.000000
30
0.0
11
249.000000
21
393.000000
31
0.0
0
LINE
8
LINES
10
246.000000
20
496.000000
30
0.0
11
321.000000
21
496.000000
31
0.0
0
LINE
8
LINES
10
556.000000
20
531.000000
30
0.0
11
630.000000
21
531.000000
31
0.0
0
LINE
8
LINES
10
630.000000
20
528.000000
30
0.0
11
556.000000
21
528.000000
31
0.0
0
LINE
8
LINES
10
897.000000
20
246.000000
30
0.0
11
897.000000
21
172.000000
31
0.0
0
LINE
8
LINES
10
414.000000
20
174.000000
30
0.0
11
414.000000
21
248.000000
31
0.0
0
LINE
8
LINES
10
174.000000
20
361.000000
30
0.0
11
100.000000
21
361.000000
31
0.0
0
LINE
8
LINES
10
824.000000
20
398.000000
30
0.0
11
824.000000
21
470.000000
31
0.0
0
LINE
8
LINES
10
833.000000
20
531.000000
30
0.0
11
905.000000
21
531.000000
31
0.0
0
LINE
8
LINES
10
694.000000
20
134.000000
30
0.0
11
622.000000
21
134.000000
31
0.0
0
LINE
8
LINES
10
123.000000
20
544.000000
30
0.0
11
51.000000
21
544.000000
31
0.0
0
LINE
8
LINES
10
894.000000
20
396.000000
30
0.0
11
894.000000
21
467.000000
31
0.0
0
LINE
8
LINES
10
257.000000
20
468.000000
30
0.0
11
257.000000
21
398.000000
31
0.0
0
LINE
8
LINES
10
630.000000
20
446.000000
30
0.0
11
630.000000
21
377.000000
31
0.0
0
LINE
8
LINES
10
900.000000
20
214.000000
30
0.0
11
900.000000
21
144.000000
31
0.0
0
LINE
8
LINES
10
342.000000
20
488.000000
30
0.0
11
412.000000
21
488.000000
31
0.0
0
LINE
8
LINES
10
833.000000
20
467.000000
30
0.0
11
833.000000
21
396.000000
31
0.0
0
LINE
8
LINES
10
972.000000
20
467.000000
30
0.0
11
972.000000
21
396.000000
31
0.0
0
LINE
8
LINES
10
553.000000
20
136.000000
30
0.0
11
483.000000
21
136.000000
31
0.0
0
LINE
8
LINES
10
828.000000
20
136.000000
30
0.0
11
758.000000
21
136.000000
31
0.0
0
LINE
8
LINES
10
968.000000
20
134.000000
30
0.0
11
897.000000
21
134.000000
31
0.0
0
LINE
8
LINES
10
827.000000
20
468.000000
30
0.0
11
827.000000
21
398.000000
31
0.0
0
LINE
8
LINES
10
416.000000
20
136.000000
30
0.0
11
345.000000
21
136.000000
31
0.0
0
LINE
8
LINES
10
897.000000
20
73.000000
30
0.0
11
828.000000
21
73.000000
31
0.0
0
LINE
8
LINES
10
321.000000
20
537.000000
30
0.0
11
252.000000
21
537.000000
31
0.0
0
LINE
8
LINES
10
254.000000
20
360.000000
30
0.0
11
185.000000
21
360.000000
31
0.0
0
LINE
8
LINES
10
481.000000
20
398.000000
30
0.0
11
481.000000
21
467.000000
31
0.0
0
LINE
8
LINES
10
761.000000
20
467.000000
30
0.0
11
761.000000
21
398.000000
31
0.0
0
LINE
8
LINES
10
619.000000
20
398.000000
30
0.0
11
619.000000
21
467.000000
31
0.0
0
LINE
8
LINES
10
902.000000
20
528.000000
30
0.0
11
833.000000
21
528.000000
31
0.0
0
LINE
8
LINES
10
46.000000
20
59.000000
30
0.0
11
46.000000
21
126.000000
31
0.0
0
LINE
8
LINES
10
896.000000
20
172.000000
30
0.0
11
828.000000
21
172.000000
31
0.0
0
LINE
8
LINES
10
764.000000
20
516.000000
30
0.0
11
832.000000
21
516.000000
31
0.0
0
LINE
8
LINES
10
318.000000
20
531.000000
30
0.0
11
251.000000
21
531.000000
31
0.0
0
LINE
8
LINES
10
217.000000
20
185.000000
30
0.0
11
217.000000
21
252.000000
31
0.0
0
LINE
8
LINES
10
256.000000
20
158.000000
30
0.0
11
321.000000
21
158.000000
31
0.0
0
LINE
8
LINES
10
966.000000
20
520.000000
30
0.0
11
900.000000
21
520.000000
31
0.0
0
LINE
8
LINES
10
963.000000
20
465.000000
30
0.0
11
963.000000
21
398.000000
31
0.0
0
LINE
8
LINES
10
214.000000
20
252.000000
30
0.0
11
214.000000
21
187.000000
31
0.0
0
LINE
8
LINES
10
412.000000
20
478.000000
30
0.0
11
347.000000
21
478.000000
31
0.0
0
LINE
8
LINES
10
761.000000
20
371.000000
30
0.0
11
827.000000
21
371.000000
31
0.0
0
LINE
8
LINES
10
964.000000
20
182.000000
30
0.0
11
964.000000
21
248.000000
31
0.0
0
LINE
8
LINES
10
116.000000
20
312.000000
30
0.0
11
51.000000
21
312.000000
31
0.0
0
LINE
8
LINES
10
377.000000
20
412.000000
30
0.0
11
377.000000
21
476.000000
31
0.0
0
LINE
8
LINES
10
486.000000
20
371.000000
30
0.0
11
552.000000
21
371.000000
31
0.0
0
LINE
8
LINES
10
624.000000
20
371.000000
30
0.0
11
689.000000
21
371.000000
31
0.0
0
LINE
8
LINES
10
347.000000
20
379.000000
30
0.0
11
412.000000
21
379.000000
31
0.0
0
LINE
8
LINES
10
248.000000
20
238.000000
30
0.0
11
248.000000
21
174.000000
31
0.0
0
LINE
8
LINES
10
238.000000
20
251.000000
30
0.0
11
238.000000
21
187.000000
31
0.0
0
LINE
8
LINES
10
145.000000
20
187.000000
30
0.0
11
145.000000
21
251.000000
31
0.0
0
LINE
8
LINES
10
958.000000
20
492.000000
30
0.0
11
1022.000000
21
492.000000
31
0.0
0
LINE
8
LINES
10
428.000000
20
531.000000
30
0.0
11
492.000000
21
531.000000
31
0.0
0
LINE
8
LINES
10
764.000000
20
521.000000
30
0.0
11
828.000000
21
521.000000
31
0.0
0
LINE
8
LINES
10
558.000000
20
462.000000
30
0.0
11
558.000000
21
398.000000
31
0.0
0
LINE
8
LINES
10
310.000000
20
259.000000
30
0.0
11
246.000000
21
259.000000
31
0.0
0
LINE
8
LINES
10
41.000000
20
160.000000
30
0.0
11
105.000000
21
160.000000
31
0.0
0
LINE
8
LINES
10
945.000000
20
256.000000
30
0.0
11
945.000000
21
193.000000
31
0.0
0
LINE
8
LINES
10
492.000000
20
73.000000
30
0.0
11
430.000000
21
73.000000
31
0.0
0
LINE
8
LINES
10
686.000000
20
243.000000
30
0.0
11
686.000000
21
182.000000
31
0.0
0
LINE
8
LINES
10
828.000000
20
520.000000
30
0.0
11
766.000000
21
520.000000
31
0.0
0
LINE
8
LINES
10
814.000000
20
548.000000
30
0.0
11
753.000000
21
548.000000
31
0.0
0
LINE
8
LINES
10
691.000000
20
520.000000
30
0.0
11
628.000000
21
520.000000
31
0.0
0
LINE
8
LINES
10
54.000000
20
534.000000
30
0.0
11
115.000000
21
534.000000
31
0.0
0
LINE
8
LINES
10
553.000000
20
520.000000
30
0.0
11
492.000000
21
520.000000
31
0.0
0
LINE
8
LINES
10
899.000000
20
371.000000
30
0.0
11
961.000000
21
371.000000
31
0.0
0
LINE
8
LINES
10
768.000000
20
436.000000
30
0.0
11
768.000000
21
377.000000
31
0.0
0
LINE
8
LINES
10
644.000000
20
252.000000
30
0.0
11
644.000000
21
193.000000
31
0.0
0
LINE
8
LINES
10
648.000000
20
193.000000
30
0.0
11
648.000000
21
252.000000
31
0.0
0
LINE
8
LINES
10
777.000000
20
254.000000
30
0.0
11
777.000000
21
193.000000
31
0.0
0
LINE
8
LINES
10
921.000000
20
417.000000
30
0.0
11
921.000000
21
476.000000
31
0.0
0
LINE
8
LINES
10
782.000000
20
192.000000
30
0.0
11
782.000000
21
252.000000
31
0.0
0
LINE
8
LINES
10
908.000000
20
523.000000
30
0.0
11
969.000000
21
523.000000
31
0.0
0
LINE
8
LINES
10
406.000000
20
476.000000
30
0.0
11
406.000000
21
417.000000
31
0.0
0
LINE
8
LINES
10
561.000000
20
526.000000
30
0.0
11
620.000000
21
526.000000
31
0.0
0
LINE
8
LINES
10
563.000000
20
536.000000
30
0.0
11
624.000000
21
536.000000
31
0.0
0
LINE
8
LINES
10
108.000000
20
166.000000
30
0.0
11
49.000000
21
166.000000
31
0.0
0
LINE
8
LINES
10
534.000000
20
124.000000
30
0.0
11
473.000000
21
124.000000
31
0.0
0
LINE
8
LINES
10
25.000000
20
371.000000
30
0.0
11
25.000000
21
430.000000
31
0.0
0
LINE
8
LINES
10
844.000000
20
537.000000
30
0.0
11
785.000000
21
542.000000
31
0.0
0
LINE
8
LINES
10
372.000000
20
476.000000
30
0.0
11
372.000000
21
417.000000
31
0.0
0
LINE
8
LINES
10
419.000000
20
168.000000
30
0.0
11
478.000000
21
168.000000
31
0.0
0
LINE
8
LINES
10
515.000000
20
419.000000
30
0.0
11
515.000000
21
478.000000
31
0.0
0
LINE
8
LINES
10
326.000000
20
32.000000
30
0.0
11
268.000000
21
32.000000
31
0.0
0
LINE
8
LINES
10
56.000000
20
529.000000
30
0.0
11
113.000000
21
529.000000
31
0.0
0
LINE
8
LINES
10
110.000000
20
409.000000
30
0.0
11
110.000000
21
467.000000
31
0.0
0
LINE
8
LINES
10
606.000000
20
486.000000
30
0.0
11
664.000000
21
486.000000
31
0.0
0
LINE
8
LINES
10
406.000000
20
492.000000
30
0.0
11
348.000000
21
492.000000
31
0.0
0
LINE
8
LINES
10
558.000000
20
168.000000
30
0.0
11
616.000000
21
168.000000
31
0.0
0
LINE
8
LINES
10
761.000000
20
144.000000
30
0.0
11
761.000000
21
201.000000
31
0.0
0
LINE
8
LINES
10
723.000000
20
528.000000
30
0.0
11
667.000000
21
528.000000
31
0.0
0
LINE
8
LINES
10
432.000000
20
436.000000
30
0.0
11
432.000000
21
379.000000
31
0.0
0
LINE
8
LINES
10
625.000000
20
190.000000
30
0.0
11
625.000000
21
246.000000
31
0.0
0
LINE
8
LINES
10
916.000000
20
476.000000
30
0.0
11
916.000000
21
420.000000
31
0.0
0
LINE
8
LINES
10
902.000000
20
142.000000
30
0.0
11
958.000000
21
142.000000
31
0.0
0
LINE
8
LINES
10
350.000000
20
142.000000
30
0.0
11
406.000000
21
142.000000
31
0.0
0
LINE
8
LINES
10
406.000000
20
140.000000
30
0.0
11
350.000000
21
140.000000
31
0.0
0
LINE
8
LINES
10
958.000000
20
140.000000
30
0.0
11
902.000000
21
140.000000
31
0.0
0
LINE
8
LINES
10
817.000000
20
233.000000
30
0.0
11
817.000000
21
177.000000
31
0.0
0
LINE
8
LINES
10
904.000000
20
377.000000
30
0.0
11
958.000000
21
377.000000
31
0.0
0
LINE
8
LINES
10
766.000000
20
376.000000
30
0.0
11
822.000000
21
376.000000
31
0.0
0
LINE
8
LINES
10
628.000000
20
377.000000
30
0.0
11
684.000000
21
377.000000
31
0.0
0
LINE
8
LINES
10
764.000000
20
142.000000
30
0.0
11
819.000000
21
142.000000
31
0.0
0
LINE
8
LINES
10
492.000000
20
377.000000
30
0.0
11
547.000000
21
377.000000
31
0.0
0
LINE
8
LINES
10
627.000000
20
142.000000
30
0.0
11
681.000000
21
142.000000
31
0.0
0
LINE
8
LINES
10
753.000000
20
180.000000
30
0.0
11
753.000000
21
236.000000
31
0.0
0
LINE
8
LINES
10
489.000000
20
142.000000
30
0.0
11
544.000000
21
142.000000
31
0.0
0
LINE
8
LINES
10
838.000000
20
168.000000
30
0.0
11
892.000000
21
168.000000
31
0.0
0
LINE
8
LINES
10
819.000000
20
140.000000
30
0.0
11
764.000000
21
140.000000
31
0.0
0
LINE
8
LINES
10
684.000000
20
372.000000
30
0.0
11
628.000000
21
372.000000
31
0.0
0
LINE
8
LINES
10
681.000000
20
140.000000
30
0.0
11
627.000000
21
140.000000
31
0.0
0
LINE
8
LINES
10
822.000000
20
372.000000
30
0.0
11
766.000000
21
372.000000
31
0.0
0
LINE
8
LINES
10
544.000000
20
140.000000
30
0.0
11
489.000000
21
140.000000
31
0.0
0
LINE
8
LINES
10
547.000000
20
372.000000
30
0.0
11
492.000000
21
372.000000
31
0.0
0
LINE
8
LINES
10
958.000000
20
372.000000
30
0.0
11
904.000000
21
372.000000
31
0.0
0
LINE
8
LINES
10
764.000000
20
137.000000
30
0.0
11
819.000000
21
137.000000
31
0.0
0
LINE
8
LINES
10
372.000000
20
254.000000
30
0.0
11
372.000000
21
201.000000
31
0.0
0
LINE
8
LINES
10
905.000000
20
486.000000
30
0.0
11
958.000000
21
486.000000
31
0.0
0
LINE
8
LINES
10
380.000000
20
198.000000
30
0.0
11
380.000000
21
252.000000
31
0.0
0
LINE
8
LINES
10
491.000000
20
473.000000
30
0.0
11
491.000000
21
420.000000
31
0.0
0
LINE
8
LINES
10
206.000000
20
57.000000
30
0.0
11
153.000000
21
57.000000
31
0.0
0
LINE
8
LINES
10
832.000000
20
236.000000
30
0.0
11
832.000000
21
182.000000
31
0.0
0
LINE
8
LINES
10
556.000000
20
236.000000
30
0.0
11
556.000000
21
182.000000
31
0.0
0
LINE
8
LINES
10
190.000000
20
481.000000
30
0.0
11
190.000000
21
427.000000
31
0.0
0
LINE
8
LINES
10
179.000000
20
427.000000
30
0.0
11
179.000000
21
481.000000
31
0.0
0
LINE
8
LINES
10
867.000000
20
313.000000
30
0.0
11
921.000000
21
313.000000
31
0.0
0
LINE
8
LINES
10
892.000000
20
182.000000
30
0.0
11
892.000000
21
233.000000
31
0.0
0
LINE
8
LINES
10
516.000000
20
252.000000
30
0.0
11
516.000000
21
201.000000
31
0.0
0
LINE
8
LINES
10
488.000000
20
528.000000
30
0.0
11
435.000000
21
528.000000
31
0.0
0
LINE
8
LINES
10
694.000000
20
236.000000
30
0.0
11
694.000000
21
182.000000
31
0.0
0
LINE
8
LINES
10
969.000000
20
233.000000
30
0.0
11
969.000000
21
182.000000
31
0.0
0
LINE
8
LINES
10
681.000000
20
478.000000
30
0.0
11
628.000000
21
478.000000
31
0.0
0
LINE
8
LINES
10
478.000000
20
182.000000
30
0.0
11
478.000000
21
236.000000
31
0.0
0
LINE
8
LINES
10
817.000000
20
478.000000
30
0.0
11
764.000000
21
478.000000
31
0.0
0
LINE
8
LINES
10
339.000000
20
182.000000
30
0.0
11
339.000000
21
233.000000
31
0.0
0
LINE
8
LINES
10
348.000000
20
184.000000
30
0.0
11
401.000000
21
188.000000
31
0.0
0
LINE
8
LINES
10
1022.000000
20
553.000000
30
0.0
11
971.000000
21
553.000000
31
0.0
0
LINE
8
LINES
10
812.000000
20
316.000000
30
0.0
11
761.000000
21
316.000000
31
0.0
0
LINE
8
LINES
10
54.000000
20
492.000000
30
0.0
11
105.000000
21
492.000000
31
0.0
0
LINE
8
LINES
10
956.000000
20
478.000000
30
0.0
11
905.000000
21
478.000000
31
0.0
0
LINE
8
LINES
10
483.000000
20
532.000000
30
0.0
11
433.000000
21
532.000000
31
0.0
0
LINE
8
LINES
10
323.000000
20
11.000000
30
0.0
11
372.000000
21
11.000000
31
0.0
0
LINE
8
LINES
10
195.000000
20
374.000000
30
0.0
11
246.000000
21
374.000000
31
0.0
0
LINE
8
LINES
10
121.000000
20
376.000000
30
0.0
11
172.000000
21
376.000000
31
0.0
0
LINE
8
LINES
10
193.000000
20
134.000000
30
0.0
11
243.000000
21
134.000000
31
0.0
0
LINE
8
LINES
10
544.000000
20
480.000000
30
0.0
11
494.000000
21
480.000000
31
0.0
0
LINE
8
LINES
10
489.000000
20
147.000000
30
0.0
11
539.000000
21
147.000000
31
0.0
0
LINE
8
LINES
10
238.000000
20
294.000000
30
0.0
11
188.000000
21
294.000000
31
0.0
0
LINE
8
LINES
10
352.000000
20
147.000000
30
0.0
11
401.000000
21
147.000000
31
0.0
0
LINE
8
LINES
10
243.000000
20
131.000000
30
0.0
11
193.000000
21
131.000000
31
0.0
0
LINE
8
LINES
10
515.000000
20
265.000000
30
0.0
11
467.000000
21
265.000000
31
0.0
0
LINE
8
LINES
10
121.000000
20
134.000000
30
0.0
11
169.000000
21
134.000000
31
0.0
0
LINE
8
LINES
10
972.000000
20
168.000000
30
0.0
11
1022.000000
21
168.000000
31
0.0
0
LINE
8
LINES
10
100.000000
20
59.000000
30
0.0
11
148.000000
21
59.000000
31
0.0
0
LINE
8
LINES
10
627.000000
20
147.000000
30
0.0
11
675.000000
21
147.000000
31
0.0
0
LINE
8
LINES
10
433.000000
20
536.000000
30
0.0
11
483.000000
21
536.000000
31
0.0
0
LINE
8
LINES
10
172.000000
20
371.000000
30
0.0
11
123.000000
21
371.000000
31
0.0
0
LINE
8
LINES
10
169.000000
20
131.000000
30
0.0
11
121.000000
21
131.000000
31
0.0
0
LINE
8
LINES
10
363.000000
20
265.000000
30
0.0
11
315.000000
21
265.000000
31
0.0
0
LINE
8
LINES
10
491.000000
20
188.000000
30
0.0
11
537.000000
21
188.000000
31
0.0
0
LINE
8
LINES
10
966.000000
20
552.000000
30
0.0
11
918.000000
21
552.000000
31
0.0
0
LINE
8
LINES
10
764.000000
20
147.000000
30
0.0
11
812.000000
21
147.000000
31
0.0
0
LINE
8
LINES
10
537.000000
20
185.000000
30
0.0
11
491.000000
21
185.000000
31
0.0
0
LINE
8
LINES
10
299.000000
20
315.000000
30
0.0
11
252.000000
21
315.000000
31
0.0
0
LINE
8
LINES
10
630.000000
20
300.000000
30
0.0
11
678.000000
21
300.000000
31
0.0
0
LINE
8
LINES
10
355.000000
20
300.000000
30
0.0
11
403.000000
21
300.000000
31
0.0
0
LINE
8
LINES
10
297.000000
20
161.000000
30
0.0
11
251.000000
21
166.000000
31
0.0
0
LINE
8
LINES
10
465.000000
20
262.000000
30
0.0
11
419.000000
21
262.000000
31
0.0
0
LINE
8
LINES
10
352.000000
20
192.000000
30
0.0
11
398.000000
21
192.000000
31
0.0
0
LINE
8
LINES
10
16.000000
20
313.000000
30
0.0
11
16.000000
21
267.000000
31
0.0
0
LINE
8
LINES
10
435.000000
20
526.000000
30
0.0
11
481.000000
21
526.000000
31
0.0
0
LINE
8
LINES
10
190.000000
20
420.000000
30
0.0
11
190.000000
21
374.000000
31
0.0
0
LINE
8
LINES
10
902.000000
20
147.000000
30
0.0
11
948.000000
21
147.000000
31
0.0
0
LINE
8
LINES
10
97.000000
20
35.000000
30
0.0
11
144.000000
21
35.000000
31
0.0
0
LINE
8
LINES
10
648.000000
20
313.000000
30
0.0
11
601.000000
21
313.000000
31
0.0
0
LINE
8
LINES
10
819.000000
20
451.000000
30
0.0
11
819.000000
21
403.000000
31
0.0
0
LINE
8
LINES
10
956.000000
20
464.000000
30
0.0
11
956.000000
21
417.000000
31
0.0
0
LINE
8
LINES
10
316.000000
20
308.000000
30
0.0
11
268.000000
21
308.000000
31
0.0
0
LINE
8
LINES
10
107.000000
20
321.000000
30
0.0
11
62.000000
21
321.000000
31
0.0
0
LINE
8
LINES
10
486.000000
20
142.000000
30
0.0
11
486.000000
21
187.000000
31
0.0
0
LINE
8
LINES
10
4.000000
20
321.000000
30
0.0
11
4.000000
21
276.000000
31
0.0
0
LINE
8
LINES
10
627.000000
20
188.000000
30
0.0
11
673.000000
21
188.000000
31
0.0
0
LINE
8
LINES
10
697.000000
20
124.000000
30
0.0
11
652.000000
21
124.000000
31
0.0
0
LINE
8
LINES
10
220.000000
20
60.000000
30
0.0
11
265.000000
21
60.000000
31
0.0
0
LINE
8
LINES
10
121.000000
20
140.000000
30
0.0
11
166.000000
21
140.000000
31
0.0
0
LINE
8
LINES
10
241.000000
20
497.000000
30
0.0
11
246.000000
21
542.000000
31
0.0
0
LINE
8
LINES
10
481.000000
20
174.000000
30
0.0
11
436.000000
21
169.000000
31
0.0
0
LINE
8
LINES
10
118.000000
20
268.000000
30
0.0
11
75.000000
21
268.000000
31
0.0
0
LINE
8
LINES
10
905.000000
20
412.000000
30
0.0
11
948.000000
21
412.000000
31
0.0
0
LINE
8
LINES
10
492.000000
20
523.000000
30
0.0
11
537.000000
21
523.000000
31
0.0
0
LINE
8
LINES
10
121.000000
20
180.000000
30
0.0
11
166.000000
21
180.000000
31
0.0
0
LINE
8
LINES
10
419.000000
20
236.000000
30
0.0
11
419.000000
21
192.000000
31
0.0
0
LINE
8
LINES
10
718.000000
20
216.000000
30
0.0
11
718.000000
21
172.000000
31
0.0
0
LINE
8
LINES
10
588.000000
20
316.000000
30
0.0
11
544.000000
21
316.000000
31
0.0
0
LINE
8
LINES
10
766.000000
20
188.000000
30
0.0
11
809.000000
21
188.000000
31
0.0
0
LINE
8
LINES
10
902.000000
20
187.000000
30
0.0
11
947.000000
21
187.000000
31
0.0
0
LINE
8
LINES
10
617.000000
20
192.000000
30
0.0
11
617.000000
21
236.000000
31
0.0
0
LINE
8
LINES
10
193.000000
20
140.000000
30
0.0
11
238.000000
21
140.000000
31
0.0
0
LINE
8
LINES
10
177.000000
20
467.000000
30
0.0
11
177.000000
21
424.000000
31
0.0
0
LINE
8
LINES
10
177.000000
20
422.000000
30
0.0
11
177.000000
21
379.000000
31
0.0
0
LINE
8
LINES
10
809.000000
20
185.000000
30
0.0
11
766.000000
21
185.000000
31
0.0
0
LINE
8
LINES
10
113.000000
20
297.000000
30
0.0
11
68.000000
21
297.000000
31
0.0
0
LINE
8
LINES
10
195.000000
20
180.000000
30
0.0
11
238.000000
21
180.000000
31
0.0
0
LINE
8
LINES
10
124.000000
20
540.000000
30
0.0
11
124.000000
21
497.000000
31
0.0
0
LINE
8
LINES
10
393.000000
20
190.000000
30
0.0
11
352.000000
21
190.000000
31
0.0
0
LINE
8
LINES
10
763.000000
20
377.000000
30
0.0
11
763.000000
21
419.000000
31
0.0
0
LINE
8
LINES
10
828.000000
20
526.000000
30
0.0
11
785.000000
21
526.000000
31
0.0
0
LINE
8
LINES
10
681.000000
20
233.000000
30
0.0
11
681.000000
21
192.000000
31
0.0
0
LINE
8
LINES
10
1022.000000
20
171.000000
30
0.0
11
979.000000
21
171.000000
31
0.0
0
LINE
8
LINES
10
531.000000
20
152.000000
30
0.0
11
489.000000
21
152.000000
31
0.0
0
LINE
8
LINES
10
633.000000
20
524.000000
30
0.0
11
673.000000
21
524.000000
31
0.0
0
LINE
8
LINES
10
1022.000000
20
73.000000
30
0.0
11
980.000000
21
73.000000
31
0.0
0
LINE
8
LINES
10
16.000000
20
358.000000
30
0.0
11
16.000000
21
316.000000
31
0.0
0
LINE
8
LINES
10
627.000000
20
262.000000
30
0.0
11
587.000000
21
262.000000
31
0.0
0
LINE
8
LINES
10
776.000000
20
300.000000
30
0.0
11
817.000000
21
300.000000
31
0.0
0
LINE
8
LINES
10
622.000000
20
142.000000
30
0.0
11
622.000000
21
182.000000
31
0.0
0
LINE
8
LINES
10
491.000000
20
417.000000
30
0.0
11
491.000000
21
377.000000
31
0.0
0
LINE
8
LINES
10
718.000000
20
355.000000
30
0.0
11
718.000000
21
316.000000
31
0.0
0
LINE
8
LINES
10
740.000000
20
25.000000
30
0.0
11
780.000000
21
25.000000
31
0.0
0
LINE
8
LINES
10
827.000000
20
12.000000
30
0.0
11
867.000000
21
12.000000
31
0.0
0
LINE
8
LINES
10
236.000000
20
177.000000
30
0.0
11
195.000000
21
177.000000
31
0.0
0
LINE
8
LINES
10
963.000000
20
526.000000
30
0.0
11
924.000000
21
526.000000
31
0.0
0
LINE
8
LINES
10
467.000000
20
176.000000
30
0.0
11
428.000000
21
176.000000
31
0.0
0
LINE
8
LINES
10
625.000000
20
532.000000
30
0.0
11
585.000000
21
532.000000
31
0.0
0
LINE
8
LINES
10
798.000000
20
294.000000
30
0.0
11
758.000000
21
294.000000
31
0.0
0
LINE
8
LINES
10
619.000000
20
174.000000
30
0.0
11
580.000000
21
169.000000
31
0.0
0
LINE
8
LINES
10
996.000000
20
497.000000
30
0.0
11
958.000000
21
497.000000
31
0.0
0
LINE
8
LINES
10
921.000000
20
534.000000
30
0.0
11
961.000000
21
534.000000
31
0.0
0
LINE
8
LINES
10
369.000000
20
217.000000
30
0.0
11
369.000000
21
257.000000
31
0.0
0
LINE
8
LINES
10
489.000000
20
238.000000
30
0.0
11
489.000000
21
201.000000
31
0.0
0
LINE
8
LINES
10
257.000000
20
118.000000
30
0.0
11
257.000000
21
158.000000
31
0.0
0
LINE
8
LINES
10
264.000000
20
32.000000
30
0.0
11
225.000000
21
32.000000
31
0.0
0
LINE
8
LINES
10
913.000000
20
1.000000
30
0.0
11
876.000000
21
1.000000
31
0.0
0
LINE
8
LINES
10
355.000000
20
73.000000
30
0.0
11
316.000000
21
73.000000
31
0.0
0
LINE
8
LINES
10
513.000000
20
1.000000
30
0.0
11
476.000000
21
1.000000
31
0.0
0
LINE
8
LINES
10
782.000000
20
534.000000
30
0.0
11
820.000000
21
534.000000
31
0.0
0
LINE
8
LINES
10
740.000000
20
313.000000
30
0.0
11
779.000000
21
313.000000
31
0.0
0
LINE
8
LINES
10
787.000000
20
124.000000
30
0.0
11
748.000000
21
124.000000
31
0.0
0
LINE
8
LINES
10
956.000000
20
236.000000
30
0.0
11
956.000000
21
196.000000
31
0.0
0
LINE
8
LINES
10
118.000000
20
259.000000
30
0.0
11
81.000000
21
259.000000
31
0.0
0
LINE
8
LINES
10
643.000000
20
534.000000
30
0.0
11
681.000000
21
534.000000
31
0.0
0
LINE
8
LINES
10
49.000000
20
260.000000
30
0.0
11
49.000000
21
297.000000
31
0.0
0
LINE
8
LINES
10
963.000000
20
142.000000
30
0.0
11
963.000000
21
179.000000
31
0.0
0
LINE
8
LINES
10
537.000000
20
252.000000
30
0.0
11
537.000000
21
216.000000
31
0.0
0
LINE
8
LINES
10
686.000000
20
179.000000
30
0.0
11
686.000000
21
142.000000
31
0.0
0
LINE
8
LINES
10
166.000000
20
294.000000
30
0.0
11
129.000000
21
294.000000
31
0.0
0
LINE
8
LINES
10
844.000000
20
172.000000
30
0.0
11
881.000000
21
172.000000
31
0.0
0
LINE
8
LINES
10
316.000000
20
502.000000
30
0.0
11
278.000000
21
502.000000
31
0.0
0
LINE
8
LINES
10
19.000000
20
388.000000
30
0.0
11
19.000000
21
427.000000
31
0.0
0
LINE
8
LINES
10
835.000000
20
131.000000
30
0.0
11
835.000000
21
166.000000
31
0.0
0
LINE
8
LINES
10
480.000000
20
137.000000
30
0.0
11
480.000000
21
172.000000
31
0.0
0
LINE
8
LINES
10
766.000000
20
268.000000
30
0.0
11
729.000000
21
268.000000
31
0.0
0
LINE
8
LINES
10
664.000000
20
294.000000
30
0.0
11
628.000000
21
294.000000
31
0.0
0
LINE
8
LINES
10
419.000000
20
131.000000
30
0.0
11
419.000000
21
166.000000
31
0.0
0
LINE
8
LINES
10
59.000000
20
35.000000
30
0.0
11
94.000000
21
35.000000
31
0.0
0
LINE
8
LINES
10
817.000000
20
542.000000
30
0.0
11
851.000000
21
542.000000
31
0.0
0
LINE
8
LINES
10
227.000000
20
371.000000
30
0.0
11
193.000000
21
371.000000
31
0.0
0
LINE
8
LINES
10
488.000000
20
433.000000
30
0.0
11
488.000000
21
468.000000
31
0.0
0
LINE
8
LINES
10
286.000000
20
539.000000
30
0.0
11
321.000000
21
539.000000
31
0.0
0
LINE
8
LINES
10
113.000000
20
504.000000
30
0.0
11
78.000000
21
499.000000
31
0.0
0
LINE
8
LINES
10
856.000000
20
267.000000
30
0.0
11
822.000000
21
267.000000
31
0.0
0
LINE
8
LINES
10
764.000000
20
217.000000
30
0.0
11
764.000000
21
184.000000
31
0.0
0
LINE
8
LINES
10
70.000000
20
38.000000
30
0.0
11
36.000000
21
38.000000
31
0.0
0
LINE
8
LINES
10
51.000000
20
499.000000
30
0.0
11
51.000000
21
532.000000
31
0.0
0
LINE
8
LINES
10
252.000000
20
166.000000
30
0.0
11
252.000000
21
131.000000
31
0.0
0
LINE
8
LINES
10
246.000000
20
169.000000
30
0.0
11
246.000000
21
136.000000
31
0.0
0
LINE
8
LINES
10
696.000000
20
432.000000
30
0.0
11
696.000000
21
398.000000
31
0.0
0
LINE
8
LINES
10
1016.000000
20
401.000000
30
0.0
11
1016.000000
21
433.000000
31
0.0
0
LINE
8
LINES
10
830.000000
20
524.000000
30
0.0
11
864.000000
21
524.000000
31
0.0
0
LINE
8
LINES
10
260.000000
20
153.000000
30
0.0
11
260.000000
21
121.000000
31
0.0
0
LINE
8
LINES
10
553.000000
20
172.000000
30
0.0
11
553.000000
21
140.000000
31
0.0
0
LINE
8
LINES
10
971.000000
20
172.000000
30
0.0
11
971.000000
21
139.000000
31
0.0
0
LINE
8
LINES
10
755.000000
20
433.000000
30
0.0
11
755.000000
21
465.000000
31
0.0
0
LINE
8
LINES
10
196.000000
20
380.000000
30
0.0
11
228.000000
21
380.000000
31
0.0
0
LINE
8
LINES
10
473.000000
20
129.000000
30
0.0
11
473.000000
21
161.000000
31
0.0
0
LINE
8
LINES
10
211.000000
20
129.000000
30
0.0
11
243.000000
21
129.000000
31
0.0
0
LINE
8
LINES
10
432.000000
20
489.000000
30
0.0
11
432.000000
21
457.000000
31
0.0
0
LINE
8
LINES
10
235.000000
20
177.000000
30
0.0
11
235.000000
21
144.000000
31
0.0
0
LINE
8
LINES
10
670.000000
20
257.000000
30
0.0
11
670.000000
21
224.000000
31
0.0
0
LINE
8
LINES
10
488.000000
20
318.000000
30
0.0
11
456.000000
21
318.000000
31
0.0
0
LINE
8
LINES
10
878.000000
20
176.000000
30
0.0
11
848.000000
21
176.000000
31
0.0
0
LINE
8
LINES
10
140.000000
20
177.000000
30
0.0
11
140.000000
21
145.000000
31
0.0
0
LINE
8
LINES
10
371.000000
20
184.000000
30
0.0
11
371.000000
21
153.000000
31
0.0
0
LINE
8
LINES
10
163.000000
20
177.000000
30
0.0
11
163.000000
21
145.000000
31
0.0
0
LINE
8
LINES
10
217.000000
20
145.000000
30
0.0
11
217.000000
21
177.000000
31
0.0
0
LINE
8
LINES
10
398.000000
20
184.000000
30
0.0
11
398.000000
21
153.000000
31
0.0
0
LINE
8
LINES
10
140.000000
20
217.000000
30
0.0
11
140.000000
21
187.000000
31
0.0
0
LINE
8
LINES
10
212.000000
20
177.000000
30
0.0
11
212.000000
21
145.000000
31
0.0
0
LINE
8
LINES
10
163.000000
20
217.000000
30
0.0
11
163.000000
21
185.000000
31
0.0
0
LINE
8
LINES
10
372.000000
20
414.000000
30
0.0
11
372.000000
21
382.000000
31
0.0
0
LINE
8
LINES
10
505.000000
20
534.000000
30
0.0
11
537.000000
21
534.000000
31
0.0
0
LINE
8
LINES
10
142.000000
20
252.000000
30
0.0
11
142.000000
21
220.000000
31
0.0
0
LINE
8
LINES
10
651.000000
20
414.000000
30
0.0
11
651.000000
21
446.000000
31
0.0
0
LINE
8
LINES
10
689.000000
20
172.000000
30
0.0
11
689.000000
21
142.000000
31
0.0
0
LINE
8
LINES
10
289.000000
20
22.000000
30
0.0
11
321.000000
21
22.000000
31
0.0
0
LINE
8
LINES
10
694.000000
20
172.000000
30
0.0
11
694.000000
21
140.000000
31
0.0
0
LINE
8
LINES
10
414.000000
20
172.000000
30
0.0
11
414.000000
21
142.000000
31
0.0
0
LINE
8
LINES
10
20.000000
20
76.000000
30
0.0
11
20.000000
21
107.000000
31
0.0
0
LINE
8
LINES
10
81.000000
20
308.000000
30
0.0
11
51.000000
21
308.000000
31
0.0
0
LINE
8
LINES
10
488.000000
20
384.000000
30
0.0
11
488.000000
21
416.000000
31
0.0
0
LINE
8
LINES
10
278.000000
20
489.000000
30
0.0
11
308.000000
21
489.000000
31
0.0
0
LINE
8
LINES
10
419.000000
20
508.000000
30
0.0
11
419.000000
21
476.000000
31
0.0
0
LINE
8
LINES
10
806.000000
20
256.000000
30
0.0
11
806.000000
21
225.000000
31
0.0
0
LINE
8
LINES
10
643.000000
20
184.000000
30
0.0
11
643.000000
21
153.000000
31
0.0
0
LINE
8
LINES
10
532.000000
20
184.000000
30
0.0
11
532.000000
21
153.000000
31
0.0
0
LINE
8
LINES
10
108.000000
20
136.000000
30
0.0
11
108.000000
21
166.000000
31
0.0
0
LINE
8
LINES
10
414.000000
20
470.000000
30
0.0
11
414.000000
21
500.000000
31
0.0
0
LINE
8
LINES
10
771.000000
20
484.000000
30
0.0
11
801.000000
21
484.000000
31
0.0
0
LINE
8
LINES
10
510.000000
20
478.000000
30
0.0
11
510.000000
21
448.000000
31
0.0
0
LINE
8
LINES
10
779.000000
20
182.000000
30
0.0
11
779.000000
21
153.000000
31
0.0
0
LINE
8
LINES
10
507.000000
20
184.000000
30
0.0
11
507.000000
21
153.000000
31
0.0
0
LINE
8
LINES
10
195.000000
20
187.000000
30
0.0
11
195.000000
21
217.000000
31
0.0
0
LINE
8
LINES
10
966.000000
20
172.000000
30
0.0
11
966.000000
21
142.000000
31
0.0
0
LINE
8
LINES
10
808.000000
20
476.000000
30
0.0
11
808.000000
21
446.000000
31
0.0
0
LINE
8
LINES
10
268.000000
20
35.000000
30
0.0
11
297.000000
21
35.000000
31
0.0
0
LINE
8
LINES
10
670.000000
20
182.000000
30
0.0
11
670.000000
21
153.000000
31
0.0
0
LINE
8
LINES
10
454.000000
20
313.000000
30
0.0
11
483.000000
21
313.000000
31
0.0
0
LINE
8
LINES
10
417.000000
20
172.000000
30
0.0
11
417.000000
21
142.000000
31
0.0
0
LINE
8
LINES
10
286.000000
20
529.000000
30
0.0
11
316.000000
21
529.000000
31
0.0
0
LINE
8
LINES
10
505.000000
20
518.000000
30
0.0
11
536.000000
21
518.000000
31
0.0
0
LINE
8
LINES
10
755.000000
20
398.000000
30
0.0
11
755.000000
21
428.000000
31
0.0
0
LINE
8
LINES
10
596.000000
20
174.000000
30
0.0
11
566.000000
21
174.000000
31
0.0
0
LINE
8
LINES
10
489.000000
20
139.000000
30
0.0
11
518.000000
21
139.000000
31
0.0
0
ENDSEC
0
EOF
