0
SECTION
2
ENTITIES
0
LWPOLYLINE
8
FACADE_OUTLINE
90
4
70
1
10
0.000000
20
0.000000
10
687.000000
20
0.000000
10
687.000000
20
1024.000000
10
0.000000
20
1024.000000
0
LWPOLYLINE
8
WINDOWS
90
4
70
1
10
0.000000
20
0.000000
10
686.000000
20
0.000000
10
686.000000
20
963.000000
10
0.000000
20
963.000000
0
LWPOLYLINE
8
WINDOWS
90
4
70
1
10
459.000000
20
88.000000
10
553.000000
20
88.000000
10
553.000000
20
129.000000
10
459.000000
20
129.000000
0
LWPOLYLINE
8
WINDOWS
90
4
70
1
10
120.000000
20
104.000000
10
252.000000
20
104.000000
10
252.000000
20
249.000000
10
120.000000
20
249.000000
0
LWPOLYLINE
8
WINDOWS
90
4
70
1
10
49.000000
20
105.000000
10
131.000000
20
105.000000
10
131.000000
20
243.000000
10
49.000000
20
243.000000
0
LWPOLYLINE
8
WINDOWS
90
4
70
1
10
368.000000
20
126.000000
10
403.000000
20
126.000000
10
403.000000
20
190.000000
10
368.000000
20
190.000000
0
LWPOLYLINE
8
WINDOWS
90
4
70
1
10
251.000000
20
128.000000
10
286.000000
20
128.000000
10
286.000000
20
185.000000
10
251.000000
20
185.000000
0
LWPOLYLINE
8
WINDOWS
90
4
70
1
10
134.000000
20
131.000000
10
169.000000
20
131.000000
10
169.000000
20
172.000000
10
134.000000
20
172.000000
0
LWPOLYLINE
8
WINDOWS
90
4
70
1
10
137.000000
20
411.000000
10
169.000000
20
411.000000
10
169.000000
20
473.000000
10
137.000000
20
473.000000
0
LWPOLYLINE
8
WINDOWS
90
4
70
1
10
0.000000
20
492.000000
10
273.000000
20
492.000000
10
273.000000
20
758.000000
10
0.000000
20
758.000000
0
LWPOLYLINE
8
WINDOWS
90
4
70
1
10
590.000000
20
574.000000
10
652.000000
20
574.000000
10
652.000000
20
633.000000
10
590.000000
20
633.000000
0
LWPOLYLINE
8
WINDOWS
90
4
70
1
10
137.000000
20
588.000000
10
177.000000
20
588.000000
10
177.000000
20
643.000000
10
137.000000
20
643.000000
0
LWPOLYLINE
8
WINDOWS
90
4
70
1
10
332.000000
20
603.000000
10
524.000000
20
603.000000
10
524.000000
20
753.000000
10
332.000000
20
753.000000
0
LWPOLYLINE
8
WINDOWS
90
4
70
1
10
22.000000
20
646.000000
10
67.000000
20
646.000000
10
67.000000
20
712.000000
10
22.000000
20
712.000000
0
LWPOLYLINE
8
WINDOWS
90
4
70
1
10
417.000000
20
806.000000
10
686.000000
20
806.000000
10
686.000000
20
1024.000000
10
417.000000
20
1024.000000
0
LWPOLYLINE
8
WINDOWS
90
4
70
1
10
462.000000
20
825.000000
10
550.000000
20
825.000000
10
550.000000
20
980.000000
10
462.000000
20
980.000000
0
LWPOLYLINE
8
WINDOWS
90
4
70
1
10
129.000000
20
830.000000
10
238.000000
20
830.000000
10
238.000000
20
1024.000000
10
129.000000
20
1024.000000
0
LWPOLYLINE
8
WINDOWS
90
4
70
1
10
131.000000
20
835.000000
10
192.000000
20
835.000000
10
192.000000
20
880.000000
10
131.000000
20
880.000000
0
LWPOLYLINE
8
WINDOWS
90
4
70
1
10
236.000000
20
865.000000
10
348.000000
20
865.000000
10
348.000000
20
1006.000000
10
236.000000
20
1006.000000
0
LWPOLYLINE
8
WINDOWS
90
4
70
1
10
348.000000
20
865.000000
10
451.000000
20
865.000000
10
451.000000
20
1004.000000
10
348.000000
20
1004.000000
0
LWPOLYLINE
8
WINDOWS
90
4
70
1
10
246.000000
20
912.000000
10
302.000000
20
912.000000
10
302.000000
20
1004.000000
10
246.000000
20
1004.000000
0
LWPOLYLINE
8
WINDOWS
90
4
70
1
10
577.000000
20
940.000000
10
633.000000
20
940.000000
10
633.000000
20
980.000000
10
577.000000
20
980.000000
0
LWPOLYLINE
8
DOORS
90
4
70
1
10
4.000000
20
534.000000
10
89.000000
20
534.000000
10
89.000000
20
726.000000
10
4.000000
20
726.000000
0
LWPOLYLINE
8
DOORS
90
4
70
1
10
89.000000
20
544.000000
10
116.000000
20
544.000000
10
116.000000
20
724.000000
10
89.000000
20
724.000000
0
LWPOLYLINE
8
DOORS
90
4
70
1
10
248.000000
20
572.000000
10
310.000000
20
572.000000
10
310.000000
20
688.000000
10
248.000000
20
688.000000
0
LWPOLYLINE
8
DOORS
90
4
70
1
10
478.000000
20
572.000000
10
540.000000
20
572.000000
10
540.000000
20
712.000000
10
478.000000
20
712.000000
0
LWPOLYLINE
8
DOORS
90
4
70
1
10
131.000000
20
580.000000
10
193.000000
20
580.000000
10
193.000000
20
715.000000
10
131.000000
20
715.000000
0
LWPOLYLINE
8
DOORS
90
4
70
1
10
35.000000
20
649.000000
10
60.000000
20
649.000000
10
60.000000
20
708.000000
10
35.000000
20
708.000000
0
LWPOLYLINE
8
DOORS
90
4
70
1
10
0.000000
20
828.000000
10
89.000000
20
828.000000
10
89.000000
20
1024.000000
10
0.000000
20
1024.000000
0
LWPOLYLINE
8
DOORS
90
4
70
1
10
137.000000
20
886.000000
10
195.000000
20
886.000000
10
195.000000
20
1009.000000
10
137.000000
20
1009.000000
0
LWPOLYLINE
8
DOORS
90
4
70
1
10
358.000000
20
905.000000
10
411.000000
20
905.000000
10
411.000000
20
1001.000000
10
358.000000
20
1001.000000
0
LINE
8
LINES
10
686.000000
20
241.000000
30
0.0
11
48.000000
21
241.000000
31
0.0
0
LINE
8
LINES
10
48.000000
20
246.000000
30
0.0
11
684.000000
21
246.000000
31
0.0
0
LINE
8
LINES
10
46.000000
20
270.000000
30
0.0
11
678.000000
21
270.000000
31
0.0
0
LINE
8
LINES
10
678.000000
20
251.000000
30
0.0
11
46.000000
21
251.000000
31
0.0
0
LINE
8
LINES
10
686.000000
20
27.000000
30
0.0
11
248.000000
21
27.000000
31
0.0
0
LINE
8
LINES
10
206.000000
20
763.000000
30
0.0
11
523.000000
21
763.000000
31
0.0
0
LINE
8
LINES
10
681.000000
20
276.000000
30
0.0
11
398.000000
21
276.000000
31
0.0
0
LINE
8
LINES
10
236.000000
20
865.000000
30
0.0
11
456.000000
21
865.000000
31
0.0
0
LINE
8
LINES
10
396.000000
20
236.000000
30
0.0
11
608.000000
21
236.000000
31
0.0
0
LINE
8
LINES
10
3.000000
20
764.000000
30
0.0
11
214.000000
21
764.000000
31
0.0
0
LINE
8
LINES
10
3.000000
20
731.000000
30
0.0
11
212.000000
21
731.000000
31
0.0
0
LINE
8
LINES
10
211.000000
20
734.000000
30
0.0
11
3.000000
21
734.000000
31
0.0
0
LINE
8
LINES
10
1.000000
20
486.000000
30
0.0
11
208.000000
21
486.000000
31
0.0
0
LINE
8
LINES
10
1.000000
20
532.000000
30
0.0
11
206.000000
21
532.000000
31
0.0
0
LINE
8
LINES
10
211.000000
20
728.000000
30
0.0
11
6.000000
21
728.000000
31
0.0
0
LINE
8
LINES
10
208.000000
20
780.000000
30
0.0
11
3.000000
21
780.000000
31
0.0
0
LINE
8
LINES
10
491.000000
20
521.000000
30
0.0
11
686.000000
21
521.000000
31
0.0
0
LINE
8
LINES
10
25.000000
20
521.000000
30
0.0
11
208.000000
21
521.000000
31
0.0
0
LINE
8
LINES
10
500.000000
20
531.000000
30
0.0
11
681.000000
21
531.000000
31
0.0
0
LINE
8
LINES
10
33.000000
20
796.000000
30
0.0
11
214.000000
21
796.000000
31
0.0
0
LINE
8
LINES
10
236.000000
20
1020.000000
30
0.0
11
416.000000
21
1020.000000
31
0.0
0
LINE
8
LINES
10
209.000000
20
480.000000
30
0.0
11
28.000000
21
480.000000
31
0.0
0
LINE
8
LINES
10
203.000000
20
524.000000
30
0.0
11
25.000000
21
524.000000
31
0.0
0
LINE
8
LINES
10
241.000000
20
30.000000
30
0.0
11
64.000000
21
30.000000
31
0.0
0
LINE
8
LINES
10
492.000000
20
796.000000
30
0.0
11
668.000000
21
796.000000
31
0.0
0
LINE
8
LINES
10
208.000000
20
772.000000
30
0.0
11
32.000000
21
772.000000
31
0.0
0
LINE
8
LINES
10
507.000000
20
484.000000
30
0.0
11
678.000000
21
484.000000
31
0.0
0
LINE
8
LINES
10
265.000000
20
764.000000
30
0.0
11
438.000000
21
764.000000
31
0.0
0
LINE
8
LINES
10
36.000000
20
753.000000
30
0.0
11
209.000000
21
753.000000
31
0.0
0
LINE
8
LINES
10
11.000000
20
723.000000
30
0.0
11
182.000000
21
723.000000
31
0.0
0
LINE
8
LINES
10
678.000000
20
769.000000
30
0.0
11
507.000000
21
769.000000
31
0.0
0
LINE
8
LINES
10
664.000000
20
947.000000
30
0.0
11
664.000000
21
777.000000
31
0.0
0
LINE
8
LINES
10
190.000000
20
532.000000
30
0.0
11
25.000000
21
532.000000
31
0.0
0
LINE
8
LINES
10
668.000000
20
779.000000
30
0.0
11
502.000000
21
779.000000
31
0.0
0
LINE
8
LINES
10
684.000000
20
312.000000
30
0.0
11
684.000000
21
476.000000
31
0.0
0
LINE
8
LINES
10
508.000000
20
766.000000
30
0.0
11
673.000000
21
766.000000
31
0.0
0
LINE
8
LINES
10
211.000000
20
820.000000
30
0.0
11
211.000000
21
982.000000
31
0.0
0
LINE
8
LINES
10
398.000000
20
270.000000
30
0.0
11
236.000000
21
270.000000
31
0.0
0
LINE
8
LINES
10
510.000000
20
731.000000
30
0.0
11
673.000000
21
731.000000
31
0.0
0
LINE
8
LINES
10
673.000000
20
726.000000
30
0.0
11
510.000000
21
726.000000
31
0.0
0
LINE
8
LINES
10
65.000000
20
3.000000
30
0.0
11
227.000000
21
3.000000
31
0.0
0
LINE
8
LINES
10
81.000000
20
838.000000
30
0.0
11
96.000000
21
998.000000
31
0.0
0
LINE
8
LINES
10
99.000000
20
822.000000
30
0.0
11
99.000000
21
979.000000
31
0.0
0
LINE
8
LINES
10
124.000000
20
974.000000
30
0.0
11
124.000000
21
822.000000
31
0.0
0
LINE
8
LINES
10
86.000000
20
721.000000
30
0.0
11
86.000000
21
569.000000
31
0.0
0
LINE
8
LINES
10
6.000000
20
571.000000
30
0.0
11
6.000000
21
721.000000
31
0.0
0
LINE
8
LINES
10
201.000000
20
723.000000
30
0.0
11
201.000000
21
572.000000
31
0.0
0
LINE
8
LINES
10
118.000000
20
572.000000
30
0.0
11
118.000000
21
721.000000
31
0.0
0
LINE
8
LINES
10
380.000000
20
491.000000
30
0.0
11
521.000000
21
491.000000
31
0.0
0
LINE
8
LINES
10
646.000000
20
982.000000
30
0.0
11
507.000000
21
982.000000
31
0.0
0
LINE
8
LINES
10
99.000000
20
993.000000
30
0.0
11
99.000000
21
857.000000
31
0.0
0
LINE
8
LINES
10
316.000000
20
704.000000
30
0.0
11
316.000000
21
566.000000
31
0.0
0
LINE
8
LINES
10
236.000000
20
572.000000
30
0.0
11
236.000000
21
708.000000
31
0.0
0
LINE
8
LINES
10
200.000000
20
852.000000
30
0.0
11
200.000000
21
987.000000
31
0.0
0
LINE
8
LINES
10
513.000000
20
763.000000
30
0.0
11
380.000000
21
763.000000
31
0.0
0
LINE
8
LINES
10
377.000000
20
763.000000
30
0.0
11
246.000000
21
763.000000
31
0.0
0
LINE
8
LINES
10
233.000000
20
502.000000
30
0.0
11
366.000000
21
502.000000
31
0.0
0
LINE
8
LINES
10
657.000000
20
755.000000
30
0.0
11
528.000000
21
755.000000
31
0.0
0
LINE
8
LINES
10
236.000000
20
995.000000
30
0.0
11
236.000000
21
867.000000
31
0.0
0
LINE
8
LINES
10
131.000000
20
712.000000
30
0.0
11
131.000000
21
582.000000
31
0.0
0
LINE
8
LINES
10
350.000000
20
993.000000
30
0.0
11
350.000000
21
865.000000
31
0.0
0
LINE
8
LINES
10
507.000000
20
478.000000
30
0.0
11
636.000000
21
478.000000
31
0.0
0
LINE
8
LINES
10
328.000000
20
865.000000
30
0.0
11
328.000000
21
993.000000
31
0.0
0
LINE
8
LINES
10
352.000000
20
572.000000
30
0.0
11
352.000000
21
702.000000
31
0.0
0
LINE
8
LINES
10
91.000000
20
840.000000
30
0.0
11
91.000000
21
966.000000
31
0.0
0
LINE
8
LINES
10
22.000000
20
1006.000000
30
0.0
11
22.000000
21
881.000000
31
0.0
0
LINE
8
LINES
10
241.000000
20
712.000000
30
0.0
11
368.000000
21
712.000000
31
0.0
0
LINE
8
LINES
10
582.000000
20
574.000000
30
0.0
11
582.000000
21
700.000000
31
0.0
0
LINE
8
LINES
10
324.000000
20
996.000000
30
0.0
11
324.000000
21
870.000000
31
0.0
0
LINE
8
LINES
10
76.000000
20
582.000000
30
0.0
11
76.000000
21
708.000000
31
0.0
0
LINE
8
LINES
10
686.000000
20
974.000000
30
0.0
11
561.000000
21
974.000000
31
0.0
0
LINE
8
LINES
10
540.000000
20
582.000000
30
0.0
11
540.000000
21
707.000000
31
0.0
0
LINE
8
LINES
10
652.000000
20
585.000000
30
0.0
11
652.000000
21
708.000000
31
0.0
0
LINE
8
LINES
10
312.000000
20
867.000000
30
0.0
11
312.000000
21
990.000000
31
0.0
0
LINE
8
LINES
10
523.000000
20
596.000000
30
0.0
11
523.000000
21
721.000000
31
0.0
0
LINE
8
LINES
10
585.000000
20
707.000000
30
0.0
11
585.000000
21
584.000000
31
0.0
0
LINE
8
LINES
10
192.000000
20
584.000000
30
0.0
11
192.000000
21
707.000000
31
0.0
0
LINE
8
LINES
10
363.000000
20
451.000000
30
0.0
11
486.000000
21
451.000000
31
0.0
0
LINE
8
LINES
10
556.000000
20
977.000000
30
0.0
11
678.000000
21
977.000000
31
0.0
0
LINE
8
LINES
10
363.000000
20
705.000000
30
0.0
11
363.000000
21
582.000000
31
0.0
0
LINE
8
LINES
10
571.000000
20
942.000000
30
0.0
11
571.000000
21
820.000000
31
0.0
0
LINE
8
LINES
10
14.000000
20
241.000000
30
0.0
11
14.000000
21
118.000000
31
0.0
0
LINE
8
LINES
10
57.000000
20
118.000000
30
0.0
11
57.000000
21
240.000000
31
0.0
0
LINE
8
LINES
10
310.000000
20
582.000000
30
0.0
11
310.000000
21
704.000000
31
0.0
0
LINE
8
LINES
10
321.000000
20
867.000000
30
0.0
11
321.000000
21
988.000000
31
0.0
0
LINE
8
LINES
10
553.000000
20
822.000000
30
0.0
11
553.000000
21
942.000000
31
0.0
0
LINE
8
LINES
10
633.000000
20
598.000000
30
0.0
11
633.000000
21
718.000000
31
0.0
0
LINE
8
LINES
10
177.000000
20
118.000000
30
0.0
11
177.000000
21
236.000000
31
0.0
0
LINE
8
LINES
10
198.000000
20
758.000000
30
0.0
11
81.000000
21
758.000000
31
0.0
0
LINE
8
LINES
10
302.000000
20
1003.000000
30
0.0
11
302.000000
21
886.000000
31
0.0
0
LINE
8
LINES
10
476.000000
20
588.000000
30
0.0
11
476.000000
21
705.000000
31
0.0
0
LINE
8
LINES
10
243.000000
20
704.000000
30
0.0
11
243.000000
21
588.000000
31
0.0
0
LINE
8
LINES
10
318.000000
20
985.000000
30
0.0
11
318.000000
21
868.000000
31
0.0
0
LINE
8
LINES
10
624.000000
20
734.000000
30
0.0
11
508.000000
21
734.000000
31
0.0
0
LINE
8
LINES
10
654.000000
20
721.000000
30
0.0
11
654.000000
21
606.000000
31
0.0
0
LINE
8
LINES
10
208.000000
20
982.000000
30
0.0
11
208.000000
21
867.000000
31
0.0
0
LINE
8
LINES
10
409.000000
20
1001.000000
30
0.0
11
409.000000
21
888.000000
31
0.0
0
LINE
8
LINES
10
348.000000
20
497.000000
30
0.0
11
236.000000
21
497.000000
31
0.0
0
LINE
8
LINES
10
294.000000
20
593.000000
30
0.0
11
294.000000
21
704.000000
31
0.0
0
LINE
8
LINES
10
425.000000
20
867.000000
30
0.0
11
425.000000
21
977.000000
31
0.0
0
LINE
8
LINES
10
305.000000
20
894.000000
30
0.0
11
305.000000
21
1006.000000
31
0.0
0
LINE
8
LINES
10
440.000000
20
864.000000
30
0.0
11
440.000000
21
974.000000
31
0.0
0
LINE
8
LINES
10
547.000000
20
476.000000
30
0.0
11
547.000000
21
366.000000
31
0.0
0
LINE
8
LINES
10
401.000000
20
444.000000
30
0.0
11
508.000000
21
444.000000
31
0.0
0
LINE
8
LINES
10
433.000000
20
865.000000
30
0.0
11
433.000000
21
974.000000
31
0.0
0
LINE
8
LINES
10
414.000000
20
892.000000
30
0.0
11
414.000000
21
1001.000000
31
0.0
0
LINE
8
LINES
10
414.000000
20
126.000000
30
0.0
11
414.000000
21
233.000000
31
0.0
0
LINE
8
LINES
10
558.000000
20
955.000000
30
0.0
11
665.000000
21
944.000000
31
0.0
0
LINE
8
LINES
10
153.000000
20
273.000000
30
0.0
11
44.000000
21
273.000000
31
0.0
0
LINE
8
LINES
10
288.000000
20
128.000000
30
0.0
11
288.000000
21
233.000000
31
0.0
0
LINE
8
LINES
10
248.000000
20
694.000000
30
0.0
11
248.000000
21
588.000000
31
0.0
0
LINE
8
LINES
10
529.000000
20
129.000000
30
0.0
11
529.000000
21
236.000000
31
0.0
0
LINE
8
LINES
10
428.000000
20
976.000000
30
0.0
11
428.000000
21
868.000000
31
0.0
0
LINE
8
LINES
10
435.000000
20
974.000000
30
0.0
11
435.000000
21
867.000000
31
0.0
0
LINE
8
LINES
10
206.000000
20
851.000000
30
0.0
11
206.000000
21
956.000000
31
0.0
0
LINE
8
LINES
10
561.000000
20
724.000000
30
0.0
11
665.000000
21
724.000000
31
0.0
0
LINE
8
LINES
10
403.000000
20
129.000000
30
0.0
11
403.000000
21
233.000000
31
0.0
0
LINE
8
LINES
10
302.000000
20
588.000000
30
0.0
11
302.000000
21
692.000000
31
0.0
0
LINE
8
LINES
10
131.000000
20
588.000000
30
0.0
11
131.000000
21
692.000000
31
0.0
0
LINE
8
LINES
10
339.000000
20
819.000000
30
0.0
11
236.000000
21
819.000000
31
0.0
0
LINE
8
LINES
10
643.000000
20
134.000000
30
0.0
11
643.000000
21
238.000000
31
0.0
0
LINE
8
LINES
10
193.000000
20
988.000000
30
0.0
11
193.000000
21
886.000000
31
0.0
0
LINE
8
LINES
10
462.000000
20
968.000000
30
0.0
11
462.000000
21
865.000000
31
0.0
0
LINE
8
LINES
10
257.000000
20
457.000000
30
0.0
11
358.000000
21
457.000000
31
0.0
0
LINE
8
LINES
10
116.000000
20
376.000000
30
0.0
11
116.000000
21
476.000000
31
0.0
0
LINE
8
LINES
10
257.000000
20
451.000000
30
0.0
11
358.000000
21
451.000000
31
0.0
0
LINE
8
LINES
10
683.000000
20
140.000000
30
0.0
11
683.000000
21
241.000000
31
0.0
0
LINE
8
LINES
10
12.000000
20
681.000000
30
0.0
11
12.000000
21
580.000000
31
0.0
0
LINE
8
LINES
10
51.000000
20
280.000000
30
0.0
11
152.000000
21
280.000000
31
0.0
0
LINE
8
LINES
10
3.000000
20
376.000000
30
0.0
11
3.000000
21
476.000000
31
0.0
0
LINE
8
LINES
10
403.000000
20
275.000000
30
0.0
11
502.000000
21
275.000000
31
0.0
0
LINE
8
LINES
10
587.000000
20
993.000000
30
0.0
11
686.000000
21
993.000000
31
0.0
0
LINE
8
LINES
10
198.000000
20
473.000000
30
0.0
11
198.000000
21
374.000000
31
0.0
0
LINE
8
LINES
10
534.000000
20
846.000000
30
0.0
11
534.000000
21
942.000000
31
0.0
0
LINE
8
LINES
10
532.000000
20
590.000000
30
0.0
11
532.000000
21
688.000000
31
0.0
0
LINE
8
LINES
10
356.000000
20
448.000000
30
0.0
11
259.000000
21
448.000000
31
0.0
0
LINE
8
LINES
10
67.000000
20
588.000000
30
0.0
11
67.000000
21
684.000000
31
0.0
0
LINE
8
LINES
10
297.000000
20
139.000000
30
0.0
11
297.000000
21
233.000000
31
0.0
0
LINE
8
LINES
10
184.000000
20
588.000000
30
0.0
11
184.000000
21
681.000000
31
0.0
0
LINE
8
LINES
10
364.000000
20
236.000000
30
0.0
11
364.000000
21
142.000000
31
0.0
0
LINE
8
LINES
10
76.000000
20
372.000000
30
0.0
11
76.000000
21
467.000000
31
0.0
0
LINE
8
LINES
10
540.000000
20
379.000000
30
0.0
11
540.000000
21
473.000000
31
0.0
0
LINE
8
LINES
10
547.000000
20
942.000000
30
0.0
11
547.000000
21
849.000000
31
0.0
0
LINE
8
LINES
10
683.000000
20
536.000000
30
0.0
11
683.000000
21
627.000000
31
0.0
0
LINE
8
LINES
10
681.000000
20
630.000000
30
0.0
11
681.000000
21
723.000000
31
0.0
0
LINE
8
LINES
10
643.000000
20
588.000000
30
0.0
11
643.000000
21
681.000000
31
0.0
0
LINE
8
LINES
10
246.000000
20
233.000000
30
0.0
11
246.000000
21
142.000000
31
0.0
0
LINE
8
LINES
10
678.000000
20
784.000000
30
0.0
11
678.000000
21
876.000000
31
0.0
0
LINE
8
LINES
10
675.000000
20
876.000000
30
0.0
11
684.000000
21
784.000000
31
0.0
0
LINE
8
LINES
10
73.000000
20
238.000000
30
0.0
11
73.000000
21
147.000000
31
0.0
0
LINE
8
LINES
10
652.000000
20
238.000000
30
0.0
11
652.000000
21
147.000000
31
0.0
0
LINE
8
LINES
10
593.000000
20
1009.000000
30
0.0
11
686.000000
21
1009.000000
31
0.0
0
LINE
8
LINES
10
176.000000
20
382.000000
30
0.0
11
176.000000
21
473.000000
31
0.0
0
LINE
8
LINES
10
17.000000
20
472.000000
30
0.0
11
17.000000
21
382.000000
31
0.0
0
LINE
8
LINES
10
681.000000
20
483.000000
30
0.0
11
592.000000
21
483.000000
31
0.0
0
LINE
8
LINES
10
686.000000
20
1006.000000
30
0.0
11
595.000000
21
1006.000000
31
0.0
0
LINE
8
LINES
10
190.000000
20
681.000000
30
0.0
11
190.000000
21
592.000000
31
0.0
0
LINE
8
LINES
10
188.000000
20
238.000000
30
0.0
11
188.000000
21
148.000000
31
0.0
0
LINE
8
LINES
10
593.000000
20
96.000000
30
0.0
11
683.000000
21
96.000000
31
0.0
0
LINE
8
LINES
10
675.000000
20
526.000000
30
0.0
11
587.000000
21
526.000000
31
0.0
0
LINE
8
LINES
10
192.000000
20
379.000000
30
0.0
11
192.000000
21
467.000000
31
0.0
0
LINE
8
LINES
10
632.000000
20
388.000000
30
0.0
11
632.000000
21
478.000000
31
0.0
0
LINE
8
LINES
10
238.000000
20
147.000000
30
0.0
11
238.000000
21
236.000000
31
0.0
0
LINE
8
LINES
10
121.000000
20
150.000000
30
0.0
11
121.000000
21
238.000000
31
0.0
0
LINE
8
LINES
10
17.000000
20
595.000000
30
0.0
11
17.000000
21
683.000000
31
0.0
0
LINE
8
LINES
10
307.000000
20
233.000000
30
0.0
11
307.000000
21
147.000000
31
0.0
0
LINE
8
LINES
10
518.000000
20
390.000000
30
0.0
11
518.000000
21
476.000000
31
0.0
0
LINE
8
LINES
10
539.000000
20
233.000000
30
0.0
11
539.000000
21
147.000000
31
0.0
0
LINE
8
LINES
10
672.000000
20
531.000000
30
0.0
11
587.000000
21
531.000000
31
0.0
0
LINE
8
LINES
10
57.000000
20
241.000000
30
0.0
11
140.000000
21
241.000000
31
0.0
0
LINE
8
LINES
10
350.000000
20
358.000000
30
0.0
11
350.000000
21
443.000000
31
0.0
0
LINE
8
LINES
10
528.000000
20
753.000000
30
0.0
11
611.000000
21
753.000000
31
0.0
0
LINE
8
LINES
10
238.000000
20
84.000000
30
0.0
11
321.000000
21
84.000000
31
0.0
0
LINE
8
LINES
10
281.000000
20
236.000000
30
0.0
11
364.000000
21
236.000000
31
0.0
0
LINE
8
LINES
10
478.000000
20
78.000000
30
0.0
11
561.000000
21
78.000000
31
0.0
0
LINE
8
LINES
10
64.000000
20
6.000000
30
0.0
11
64.000000
21
86.000000
31
0.0
0
LINE
8
LINES
10
81.000000
20
913.000000
30
0.0
11
81.000000
21
995.000000
31
0.0
0
LINE
8
LINES
10
321.000000
20
86.000000
30
0.0
11
238.000000
21
86.000000
31
0.0
0
LINE
8
LINES
10
588.000000
20
483.000000
30
0.0
11
507.000000
21
483.000000
31
0.0
0
LINE
8
LINES
10
132.000000
20
476.000000
30
0.0
11
212.000000
21
476.000000
31
0.0
0
LINE
8
LINES
10
238.000000
20
97.000000
30
0.0
11
318.000000
21
97.000000
31
0.0
0
LINE
8
LINES
10
465.000000
20
449.000000
30
0.0
11
385.000000
21
449.000000
31
0.0
0
LINE
8
LINES
10
473.000000
20
153.000000
30
0.0
11
473.000000
21
233.000000
31
0.0
0
LINE
8
LINES
10
558.000000
20
83.000000
30
0.0
11
478.000000
21
83.000000
31
0.0
0
LINE
8
LINES
10
6.000000
20
161.000000
30
0.0
11
6.000000
21
241.000000
31
0.0
0
LINE
8
LINES
10
625.000000
20
723.000000
30
0.0
11
625.000000
21
643.000000
31
0.0
0
LINE
8
LINES
10
128.000000
20
459.000000
30
0.0
11
128.000000
21
380.000000
31
0.0
0
LINE
8
LINES
10
241.000000
20
990.000000
30
0.0
11
241.000000
21
912.000000
31
0.0
0
LINE
8
LINES
10
201.000000
20
89.000000
30
0.0
11
121.000000
21
89.000000
31
0.0
0
LINE
8
LINES
10
424.000000
20
233.000000
30
0.0
11
424.000000
21
156.000000
31
0.0
0
LINE
8
LINES
10
75.000000
20
918.000000
30
0.0
11
75.000000
21
998.000000
31
0.0
0
LINE
8
LINES
10
588.000000
20
158.000000
30
0.0
11
588.000000
21
236.000000
31
0.0
0
LINE
8
LINES
10
516.000000
20
723.000000
30
0.0
11
516.000000
21
643.000000
31
0.0
0
LINE
8
LINES
10
198.000000
20
539.000000
30
0.0
11
121.000000
21
539.000000
31
0.0
0
LINE
8
LINES
10
438.000000
20
83.000000
30
0.0
11
361.000000
21
83.000000
31
0.0
0
LINE
8
LINES
10
545.000000
20
864.000000
30
0.0
11
545.000000
21
942.000000
31
0.0
0
LINE
8
LINES
10
121.000000
20
102.000000
30
0.0
11
196.000000
21
102.000000
31
0.0
0
LINE
8
LINES
10
488.000000
20
526.000000
30
0.0
11
563.000000
21
526.000000
31
0.0
0
LINE
8
LINES
10
121.000000
20
94.000000
30
0.0
11
198.000000
21
94.000000
31
0.0
0
LINE
8
LINES
10
355.000000
20
158.000000
30
0.0
11
355.000000
21
233.000000
31
0.0
0
LINE
8
LINES
10
478.000000
20
86.000000
30
0.0
11
556.000000
21
86.000000
31
0.0
0
LINE
8
LINES
10
134.000000
20
998.000000
30
0.0
11
134.000000
21
923.000000
31
0.0
0
LINE
8
LINES
10
603.000000
20
646.000000
30
0.0
11
603.000000
21
721.000000
31
0.0
0
LINE
8
LINES
10
358.000000
20
97.000000
30
0.0
11
433.000000
21
97.000000
31
0.0
0
LINE
8
LINES
10
476.000000
20
92.000000
30
0.0
11
552.000000
21
92.000000
31
0.0
0
LINE
8
LINES
10
561.000000
20
524.000000
30
0.0
11
486.000000
21
524.000000
31
0.0
0
LINE
8
LINES
10
620.000000
20
643.000000
30
0.0
11
620.000000
21
718.000000
31
0.0
0
LINE
8
LINES
10
672.000000
20
88.000000
30
0.0
11
598.000000
21
88.000000
31
0.0
0
LINE
8
LINES
10
238.000000
20
491.000000
30
0.0
11
312.000000
21
491.000000
31
0.0
0
LINE
8
LINES
10
598.000000
20
643.000000
30
0.0
11
598.000000
21
718.000000
31
0.0
0
LINE
8
LINES
10
358.000000
20
81.000000
30
0.0
11
432.000000
21
81.000000
31
0.0
0
LINE
8
LINES
10
553.000000
20
91.000000
30
0.0
11
478.000000
21
91.000000
31
0.0
0
LINE
8
LINES
10
196.000000
20
96.000000
30
0.0
11
123.000000
21
96.000000
31
0.0
0
LINE
8
LINES
10
609.000000
20
718.000000
30
0.0
11
609.000000
21
646.000000
31
0.0
0
LINE
8
LINES
10
137.000000
20
694.000000
30
0.0
11
137.000000
21
622.000000
31
0.0
0
LINE
8
LINES
10
428.000000
20
977.000000
30
0.0
11
500.000000
21
977.000000
31
0.0
0
LINE
8
LINES
10
558.000000
20
529.000000
30
0.0
11
486.000000
21
529.000000
31
0.0
0
LINE
8
LINES
10
310.000000
20
371.000000
30
0.0
11
310.000000
21
443.000000
31
0.0
0
LINE
8
LINES
10
184.000000
20
387.000000
30
0.0
11
184.000000
21
459.000000
31
0.0
0
LINE
8
LINES
10
432.000000
20
92.000000
30
0.0
11
358.000000
21
92.000000
31
0.0
0
LINE
8
LINES
10
524.000000
20
721.000000
30
0.0
11
524.000000
21
649.000000
31
0.0
0
LINE
8
LINES
10
648.000000
20
161.000000
30
0.0
11
648.000000
21
233.000000
31
0.0
0
LINE
8
LINES
10
593.000000
20
718.000000
30
0.0
11
593.000000
21
646.000000
31
0.0
0
LINE
8
LINES
10
467.000000
20
371.000000
30
0.0
11
467.000000
21
443.000000
31
0.0
0
LINE
8
LINES
10
539.000000
20
942.000000
30
0.0
11
539.000000
21
870.000000
31
0.0
0
LINE
8
LINES
10
668.000000
20
94.000000
30
0.0
11
596.000000
21
94.000000
31
0.0
0
LINE
8
LINES
10
673.000000
20
952.000000
30
0.0
11
673.000000
21
881.000000
31
0.0
0
LINE
8
LINES
10
233.000000
20
374.000000
30
0.0
11
233.000000
21
444.000000
31
0.0
0
LINE
8
LINES
10
315.000000
20
441.000000
30
0.0
11
315.000000
21
371.000000
31
0.0
0
LINE
8
LINES
10
236.000000
20
496.000000
30
0.0
11
305.000000
21
496.000000
31
0.0
0
LINE
8
LINES
10
652.000000
20
462.000000
30
0.0
11
652.000000
21
393.000000
31
0.0
0
LINE
8
LINES
10
604.000000
20
718.000000
30
0.0
11
604.000000
21
649.000000
31
0.0
0
LINE
8
LINES
10
444.000000
20
500.000000
30
0.0
11
513.000000
21
500.000000
31
0.0
0
LINE
8
LINES
10
654.000000
20
387.000000
30
0.0
11
654.000000
21
456.000000
31
0.0
0
LINE
8
LINES
10
539.000000
20
459.000000
30
0.0
11
539.000000
21
390.000000
31
0.0
0
LINE
8
LINES
10
318.000000
20
1011.000000
30
0.0
11
251.000000
21
1011.000000
31
0.0
0
LINE
8
LINES
10
678.000000
20
867.000000
30
0.0
11
678.000000
21
937.000000
31
0.0
0
LINE
8
LINES
10
68.000000
20
393.000000
30
0.0
11
68.000000
21
462.000000
31
0.0
0
LINE
8
LINES
10
190.000000
20
457.000000
30
0.0
11
190.000000
21
388.000000
31
0.0
0
LINE
8
LINES
10
52.000000
20
1.000000
30
0.0
11
1.000000
21
43.000000
31
0.0
0
LINE
8
LINES
10
73.000000
20
772.000000
30
0.0
11
6.000000
21
772.000000
31
0.0
0
LINE
8
LINES
10
611.000000
20
81.000000
30
0.0
11
678.000000
21
81.000000
31
0.0
0
LINE
8
LINES
10
193.000000
20
486.000000
30
0.0
11
126.000000
21
486.000000
31
0.0
0
LINE
8
LINES
10
473.000000
20
705.000000
30
0.0
11
473.000000
21
638.000000
31
0.0
0
LINE
8
LINES
10
625.000000
20
411.000000
30
0.0
11
625.000000
21
478.000000
31
0.0
0
LINE
8
LINES
10
641.000000
20
873.000000
30
0.0
11
641.000000
21
940.000000
31
0.0
0
LINE
8
LINES
10
662.000000
20
945.000000
30
0.0
11
595.000000
21
945.000000
31
0.0
0
LINE
8
LINES
10
672.000000
20
883.000000
30
0.0
11
672.000000
21
948.000000
31
0.0
0
LINE
8
LINES
10
17.000000
20
712.000000
30
0.0
11
17.000000
21
646.000000
31
0.0
0
LINE
8
LINES
10
131.000000
20
876.000000
30
0.0
11
196.000000
21
876.000000
31
0.0
0
LINE
8
LINES
10
520.000000
20
476.000000
30
0.0
11
520.000000
21
409.000000
31
0.0
0
LINE
8
LINES
10
59.000000
20
176.000000
30
0.0
11
59.000000
21
241.000000
31
0.0
0
LINE
8
LINES
10
435.000000
20
710.000000
30
0.0
11
371.000000
21
710.000000
31
0.0
0
LINE
8
LINES
10
590.000000
20
646.000000
30
0.0
11
590.000000
21
712.000000
31
0.0
0
LINE
8
LINES
10
513.000000
20
411.000000
30
0.0
11
513.000000
21
476.000000
31
0.0
0
LINE
8
LINES
10
619.000000
20
478.000000
30
0.0
11
619.000000
21
412.000000
31
0.0
0
LINE
8
LINES
10
232.000000
20
270.000000
30
0.0
11
166.000000
21
270.000000
31
0.0
0
LINE
8
LINES
10
284.000000
20
275.000000
30
0.0
11
348.000000
21
275.000000
31
0.0
0
LINE
8
LINES
10
41.000000
20
1017.000000
30
0.0
11
105.000000
21
1017.000000
31
0.0
0
LINE
8
LINES
10
443.000000
20
766.000000
30
0.0
11
508.000000
21
766.000000
31
0.0
0
LINE
8
LINES
10
371.000000
20
712.000000
30
0.0
11
433.000000
21
712.000000
31
0.0
0
LINE
8
LINES
10
528.000000
20
945.000000
30
0.0
11
592.000000
21
945.000000
31
0.0
0
LINE
8
LINES
10
606.000000
20
476.000000
30
0.0
11
606.000000
21
412.000000
31
0.0
0
LINE
8
LINES
10
521.000000
20
275.000000
30
0.0
11
585.000000
21
275.000000
31
0.0
0
LINE
8
LINES
10
73.000000
20
454.000000
30
0.0
11
73.000000
21
390.000000
31
0.0
0
LINE
8
LINES
10
33.000000
20
412.000000
30
0.0
11
33.000000
21
473.000000
31
0.0
0
LINE
8
LINES
10
169.000000
20
176.000000
30
0.0
11
169.000000
21
238.000000
31
0.0
0
LINE
8
LINES
10
313.000000
20
1006.000000
30
0.0
11
252.000000
21
1006.000000
31
0.0
0
LINE
8
LINES
10
576.000000
20
870.000000
30
0.0
11
638.000000
21
870.000000
31
0.0
0
LINE
8
LINES
10
489.000000
20
643.000000
30
0.0
11
489.000000
21
705.000000
31
0.0
0
LINE
8
LINES
10
379.000000
20
500.000000
30
0.0
11
441.000000
21
500.000000
31
0.0
0
LINE
8
LINES
10
313.000000
20
492.000000
30
0.0
11
377.000000
21
492.000000
31
0.0
0
LINE
8
LINES
10
187.000000
20
491.000000
30
0.0
11
124.000000
21
491.000000
31
0.0
0
LINE
8
LINES
10
582.000000
20
416.000000
30
0.0
11
582.000000
21
478.000000
31
0.0
0
LINE
8
LINES
10
289.000000
20
382.000000
30
0.0
11
297.000000
21
443.000000
31
0.0
0
LINE
8
LINES
10
180.000000
20
657.000000
30
0.0
11
188.000000
21
718.000000
31
0.0
0
LINE
8
LINES
10
502.000000
20
705.000000
30
0.0
11
502.000000
21
643.000000
31
0.0
0
LINE
8
LINES
10
512.000000
20
643.000000
30
0.0
11
512.000000
21
705.000000
31
0.0
0
LINE
8
LINES
10
494.000000
20
704.000000
30
0.0
11
494.000000
21
643.000000
31
0.0
0
LINE
8
LINES
10
425.000000
20
582.000000
30
0.0
11
425.000000
21
643.000000
31
0.0
0
LINE
8
LINES
10
595.000000
20
476.000000
30
0.0
11
595.000000
21
416.000000
31
0.0
0
LINE
8
LINES
10
686.000000
20
963.000000
30
0.0
11
628.000000
21
945.000000
31
0.0
0
LINE
8
LINES
10
611.000000
20
238.000000
30
0.0
11
611.000000
21
177.000000
31
0.0
0
LINE
8
LINES
10
467.000000
20
574.000000
30
0.0
11
467.000000
21
633.000000
31
0.0
0
LINE
8
LINES
10
492.000000
20
643.000000
30
0.0
11
492.000000
21
704.000000
31
0.0
0
LINE
8
LINES
10
649.000000
20
843.000000
30
0.0
11
649.000000
21
902.000000
31
0.0
0
LINE
8
LINES
10
62.000000
20
526.000000
30
0.0
11
121.000000
21
526.000000
31
0.0
0
LINE
8
LINES
10
70.000000
20
478.000000
30
0.0
11
131.000000
21
478.000000
31
0.0
0
LINE
8
LINES
10
625.000000
20
177.000000
30
0.0
11
625.000000
21
238.000000
31
0.0
0
LINE
8
LINES
10
246.000000
20
443.000000
30
0.0
11
246.000000
21
384.000000
31
0.0
0
LINE
8
LINES
10
40.000000
20
470.000000
30
0.0
11
40.000000
21
412.000000
31
0.0
0
LINE
8
LINES
10
145.000000
20
411.000000
30
0.0
11
145.000000
21
468.000000
31
0.0
0
LINE
8
LINES
10
172.000000
20
411.000000
30
0.0
11
172.000000
21
468.000000
31
0.0
0
LINE
8
LINES
10
145.000000
20
179.000000
30
0.0
11
145.000000
21
238.000000
31
0.0
0
LINE
8
LINES
10
604.000000
20
177.000000
30
0.0
11
604.000000
21
236.000000
31
0.0
0
LINE
8
LINES
10
491.000000
20
177.000000
30
0.0
11
491.000000
21
236.000000
31
0.0
0
LINE
8
LINES
10
484.000000
20
705.000000
30
0.0
11
484.000000
21
646.000000
31
0.0
0
LINE
8
LINES
10
153.000000
20
468.000000
30
0.0
11
153.000000
21
411.000000
31
0.0
0
LINE
8
LINES
10
513.000000
20
177.000000
30
0.0
11
513.000000
21
236.000000
31
0.0
0
LINE
8
LINES
10
25.000000
20
476.000000
30
0.0
11
25.000000
21
417.000000
31
0.0
0
LINE
8
LINES
10
54.000000
20
86.000000
30
0.0
11
54.000000
21
28.000000
31
0.0
0
LINE
8
LINES
10
496.000000
20
233.000000
30
0.0
11
496.000000
21
177.000000
31
0.0
0
LINE
8
LINES
10
649.000000
20
492.000000
30
0.0
11
592.000000
21
492.000000
31
0.0
0
LINE
8
LINES
10
468.000000
20
638.000000
30
0.0
11
468.000000
21
697.000000
31
0.0
0
LINE
8
LINES
10
425.000000
20
385.000000
30
0.0
11
425.000000
21
443.000000
31
0.0
0
LINE
8
LINES
10
428.000000
20
820.000000
30
0.0
11
371.000000
21
820.000000
31
0.0
0
LINE
8
LINES
10
188.000000
20
867.000000
30
0.0
11
131.000000
21
867.000000
31
0.0
0
LINE
8
LINES
10
636.000000
20
238.000000
30
0.0
11
630.000000
21
182.000000
31
0.0
0
LINE
8
LINES
10
131.000000
20
236.000000
30
0.0
11
131.000000
21
180.000000
31
0.0
0
LINE
8
LINES
10
64.000000
20
649.000000
30
0.0
11
64.000000
21
705.000000
31
0.0
0
LINE
8
LINES
10
427.000000
20
649.000000
30
0.0
11
427.000000
21
705.000000
31
0.0
0
LINE
8
LINES
10
212.000000
20
953.000000
30
0.0
11
212.000000
21
897.000000
31
0.0
0
LINE
8
LINES
10
152.000000
20
236.000000
30
0.0
11
152.000000
21
180.000000
31
0.0
0
LINE
8
LINES
10
22.000000
20
646.000000
30
0.0
11
22.000000
21
588.000000
31
0.0
0
LINE
8
LINES
10
129.000000
20
174.000000
30
0.0
11
129.000000
21
118.000000
31
0.0
0
LINE
8
LINES
10
417.000000
20
158.000000
30
0.0
11
417.000000
21
214.000000
31
0.0
0
LINE
8
LINES
10
478.000000
20
230.000000
30
0.0
11
478.000000
21
174.000000
31
0.0
0
LINE
8
LINES
10
60.000000
20
1020.000000
30
0.0
11
6.000000
21
1009.000000
31
0.0
0
LINE
8
LINES
10
54.000000
20
473.000000
30
0.0
11
54.000000
21
417.000000
31
0.0
0
LINE
8
LINES
10
294.000000
20
868.000000
30
0.0
11
238.000000
21
868.000000
31
0.0
0
LINE
8
LINES
10
630.000000
20
131.000000
30
0.0
11
630.000000
21
185.000000
31
0.0
0
LINE
8
LINES
10
504.000000
20
236.000000
30
0.0
11
504.000000
21
180.000000
31
0.0
0
LINE
8
LINES
10
307.000000
20
443.000000
30
0.0
11
307.000000
21
387.000000
31
0.0
0
LINE
8
LINES
10
534.000000
20
646.000000
30
0.0
11
534.000000
21
590.000000
31
0.0
0
LINE
8
LINES
10
632.000000
20
464.000000
30
0.0
11
632.000000
21
409.000000
31
0.0
0
LINE
8
LINES
10
134.000000
20
468.000000
30
0.0
11
134.000000
21
416.000000
31
0.0
0
LINE
8
LINES
10
241.000000
20
873.000000
30
0.0
11
294.000000
21
873.000000
31
0.0
0
LINE
8
LINES
10
59.000000
20
417.000000
30
0.0
11
59.000000
21
472.000000
31
0.0
0
LINE
8
LINES
10
233.000000
20
278.000000
30
0.0
11
180.000000
21
278.000000
31
0.0
0
LINE
8
LINES
10
38.000000
20
652.000000
30
0.0
11
38.000000
21
707.000000
31
0.0
0
LINE
8
LINES
10
241.000000
20
25.000000
30
0.0
11
188.000000
21
25.000000
31
0.0
0
LINE
8
LINES
10
424.000000
20
443.000000
30
0.0
11
424.000000
21
388.000000
31
0.0
0
LINE
8
LINES
10
307.000000
20
681.000000
30
0.0
11
307.000000
21
627.000000
31
0.0
0
LINE
8
LINES
10
313.000000
20
788.000000
30
0.0
11
259.000000
21
788.000000
31
0.0
0
LINE
8
LINES
10
633.000000
20
692.000000
30
0.0
11
633.000000
21
638.000000
31
0.0
0
LINE
8
LINES
10
409.000000
20
227.000000
30
0.0
11
409.000000
21
172.000000
31
0.0
0
LINE
8
LINES
10
651.000000
20
888.000000
30
0.0
11
641.000000
21
835.000000
31
0.0
0
LINE
8
LINES
10
129.000000
20
422.000000
30
0.0
11
129.000000
21
473.000000
31
0.0
0
LINE
8
LINES
10
177.000000
20
468.000000
30
0.0
11
177.000000
21
417.000000
31
0.0
0
LINE
8
LINES
10
644.000000
20
942.000000
30
0.0
11
644.000000
21
889.000000
31
0.0
0
LINE
8
LINES
10
409.000000
20
652.000000
30
0.0
11
409.000000
21
704.000000
31
0.0
0
LINE
8
LINES
10
46.000000
20
705.000000
30
0.0
11
46.000000
21
652.000000
31
0.0
0
LINE
8
LINES
10
417.000000
20
588.000000
30
0.0
11
417.000000
21
641.000000
31
0.0
0
LINE
8
LINES
10
628.000000
20
889.000000
30
0.0
11
628.000000
21
942.000000
31
0.0
0
LINE
8
LINES
10
300.000000
20
388.000000
30
0.0
11
300.000000
21
441.000000
31
0.0
0
LINE
8
LINES
10
523.000000
20
182.000000
30
0.0
11
523.000000
21
129.000000
31
0.0
0
LINE
8
LINES
10
300.000000
20
171.000000
30
0.0
11
300.000000
21
222.000000
31
0.0
0
LINE
8
LINES
10
598.000000
20
286.000000
30
0.0
11
579.000000
21
334.000000
31
0.0
0
LINE
8
LINES
10
166.000000
20
468.000000
30
0.0
11
166.000000
21
417.000000
31
0.0
0
LINE
8
LINES
10
684.000000
20
721.000000
30
0.0
11
684.000000
21
668.000000
31
0.0
0
LINE
8
LINES
10
123.000000
20
489.000000
30
0.0
11
72.000000
21
489.000000
31
0.0
0
LINE
8
LINES
10
473.000000
20
633.000000
30
0.0
11
473.000000
21
582.000000
31
0.0
0
LINE
8
LINES
10
166.000000
20
238.000000
30
0.0
11
166.000000
21
187.000000
31
0.0
0
LINE
8
LINES
10
414.000000
20
1008.000000
30
0.0
11
363.000000
21
1008.000000
31
0.0
0
LINE
8
LINES
10
465.000000
20
870.000000
30
0.0
11
516.000000
21
870.000000
31
0.0
0
LINE
8
LINES
10
353.000000
20
873.000000
30
0.0
11
406.000000
21
873.000000
31
0.0
0
LINE
8
LINES
10
470.000000
20
972.000000
30
0.0
11
516.000000
21
952.000000
31
0.0
0
LINE
8
LINES
10
267.000000
20
236.000000
30
0.0
11
267.000000
21
185.000000
31
0.0
0
LINE
8
LINES
10
403.000000
20
868.000000
30
0.0
11
353.000000
21
868.000000
31
0.0
0
LINE
8
LINES
10
414.000000
20
1004.000000
30
0.0
11
364.000000
21
1004.000000
31
0.0
0
LINE
8
LINES
10
48.000000
20
961.000000
30
0.0
11
48.000000
21
910.000000
31
0.0
0
LINE
8
LINES
10
659.000000
20
422.000000
30
0.0
11
659.000000
21
372.000000
31
0.0
0
LINE
8
LINES
10
523.000000
20
896.000000
30
0.0
11
523.000000
21
945.000000
31
0.0
0
LINE
8
LINES
10
441.000000
20
713.000000
30
0.0
11
492.000000
21
713.000000
31
0.0
0
LINE
8
LINES
10
238.000000
20
504.000000
30
0.0
11
206.000000
21
542.000000
31
0.0
0
LINE
8
LINES
10
491.000000
20
696.000000
30
0.0
11
491.000000
21
646.000000
31
0.0
0
LINE
8
LINES
10
598.000000
20
718.000000
30
0.0
11
598.000000
21
668.000000
31
0.0
0
LINE
8
LINES
10
473.000000
20
332.000000
30
0.0
11
521.000000
21
324.000000
31
0.0
0
LINE
8
LINES
10
233.000000
20
334.000000
30
0.0
11
283.000000
21
323.000000
31
0.0
0
LINE
8
LINES
10
182.000000
20
113.000000
30
0.0
11
132.000000
21
113.000000
31
0.0
0
LINE
8
LINES
10
288.000000
20
889.000000
30
0.0
11
238.000000
21
889.000000
31
0.0
0
LINE
8
LINES
10
587.000000
20
491.000000
30
0.0
11
537.000000
21
491.000000
31
0.0
0
LINE
8
LINES
10
492.000000
20
499.000000
30
0.0
11
444.000000
21
499.000000
31
0.0
0
LINE
8
LINES
10
299.000000
20
110.000000
30
0.0
11
251.000000
21
110.000000
31
0.0
0
LINE
8
LINES
10
534.000000
20
169.000000
30
0.0
11
534.000000
21
217.000000
31
0.0
0
LINE
8
LINES
10
593.000000
20
944.000000
30
0.0
11
550.000000
21
964.000000
31
0.0
0
LINE
8
LINES
10
260.000000
20
187.000000
30
0.0
11
260.000000
21
233.000000
31
0.0
0
LINE
8
LINES
10
52.000000
20
92.000000
30
0.0
11
6.000000
21
92.000000
31
0.0
0
LINE
8
LINES
10
62.000000
20
425.000000
30
0.0
11
62.000000
21
473.000000
31
0.0
0
LINE
8
LINES
10
57.000000
20
707.000000
30
0.0
11
57.000000
21
660.000000
31
0.0
0
LINE
8
LINES
10
22.000000
20
697.000000
30
0.0
11
22.000000
21
649.000000
31
0.0
0
LINE
8
LINES
10
118.000000
20
86.000000
30
0.0
11
166.000000
21
86.000000
31
0.0
0
LINE
8
LINES
10
505.000000
20
188.000000
30
0.0
11
505.000000
21
236.000000
31
0.0
0
LINE
8
LINES
10
417.000000
20
108.000000
30
0.0
11
369.000000
21
108.000000
31
0.0
0
LINE
8
LINES
10
441.000000
20
497.000000
30
0.0
11
393.000000
21
497.000000
31
0.0
0
LINE
8
LINES
10
6.000000
20
105.000000
30
0.0
11
51.000000
21
105.000000
31
0.0
0
LINE
8
LINES
10
526.000000
20
233.000000
30
0.0
11
523.000000
21
188.000000
31
0.0
0
LINE
8
LINES
10
600.000000
20
236.000000
30
0.0
11
600.000000
21
190.000000
31
0.0
0
LINE
8
LINES
10
131.000000
20
118.000000
30
0.0
11
177.000000
21
118.000000
31
0.0
0
LINE
8
LINES
10
78.000000
20
798.000000
30
0.0
11
33.000000
21
798.000000
31
0.0
0
LINE
8
LINES
10
420.000000
20
636.000000
30
0.0
11
420.000000
21
588.000000
31
0.0
0
LINE
8
LINES
10
612.000000
20
430.000000
30
0.0
11
612.000000
21
476.000000
31
0.0
0
LINE
8
LINES
10
480.000000
20
289.000000
30
0.0
11
464.000000
21
332.000000
31
0.0
0
LINE
8
LINES
10
246.000000
20
401.000000
30
0.0
11
291.000000
21
401.000000
31
0.0
0
LINE
8
LINES
10
251.000000
20
696.000000
30
0.0
11
296.000000
21
696.000000
31
0.0
0
LINE
8
LINES
10
177.000000
20
593.000000
30
0.0
11
177.000000
21
638.000000
31
0.0
0
LINE
8
LINES
10
249.000000
20
115.000000
30
0.0
11
294.000000
21
115.000000
31
0.0
0
LINE
8
LINES
10
489.000000
20
1009.000000
30
0.0
11
534.000000
21
1009.000000
31
0.0
0
LINE
8
LINES
10
617.000000
20
193.000000
30
0.0
11
617.000000
21
238.000000
31
0.0
0
LINE
8
LINES
10
296.000000
20
683.000000
30
0.0
11
251.000000
21
683.000000
31
0.0
0
LINE
8
LINES
10
35.000000
20
705.000000
30
0.0
11
35.000000
21
660.000000
31
0.0
0
LINE
8
LINES
10
409.000000
20
396.000000
30
0.0
11
409.000000
21
441.000000
31
0.0
0
LINE
8
LINES
10
598.000000
20
414.000000
30
0.0
11
598.000000
21
459.000000
31
0.0
0
LINE
8
LINES
10
291.000000
20
406.000000
30
0.0
11
246.000000
21
406.000000
31
0.0
0
LINE
8
LINES
10
49.000000
20
163.000000
30
0.0
11
49.000000
21
121.000000
31
0.0
0
LINE
8
LINES
10
396.000000
20
889.000000
30
0.0
11
353.000000
21
889.000000
31
0.0
0
LINE
8
LINES
10
382.000000
20
233.000000
30
0.0
11
382.000000
21
190.000000
31
0.0
0
LINE
8
LINES
10
32.000000
20
196.000000
30
0.0
11
32.000000
21
241.000000
31
0.0
0
LINE
8
LINES
10
179.000000
20
475.000000
30
0.0
11
136.000000
21
475.000000
31
0.0
0
LINE
8
LINES
10
670.000000
20
732.000000
30
0.0
11
627.000000
21
732.000000
31
0.0
0
LINE
8
LINES
10
368.000000
20
113.000000
30
0.0
11
412.000000
21
113.000000
31
0.0
0
LINE
8
LINES
10
364.000000
20
636.000000
30
0.0
11
408.000000
21
636.000000
31
0.0
0
LINE
8
LINES
10
646.000000
20
113.000000
30
0.0
11
603.000000
21
113.000000
31
0.0
0
LINE
8
LINES
10
488.000000
20
233.000000
30
0.0
11
488.000000
21
190.000000
31
0.0
0
LINE
8
LINES
10
275.000000
20
91.000000
30
0.0
11
318.000000
21
91.000000
31
0.0
0
LINE
8
LINES
10
646.000000
20
633.000000
30
0.0
11
646.000000
21
590.000000
31
0.0
0
LINE
8
LINES
10
57.000000
20
30.000000
30
0.0
11
14.000000
21
30.000000
31
0.0
0
LINE
8
LINES
10
376.000000
20
192.000000
30
0.0
11
376.000000
21
233.000000
31
0.0
0
LINE
8
LINES
10
497.000000
20
948.000000
30
0.0
11
462.000000
21
972.000000
31
0.0
0
LINE
8
LINES
10
169.000000
20
707.000000
30
0.0
11
169.000000
21
664.000000
31
0.0
0
LINE
8
LINES
10
38.000000
20
238.000000
30
0.0
11
38.000000
21
196.000000
31
0.0
0
LINE
8
LINES
10
172.000000
20
172.000000
30
0.0
11
129.000000
21
172.000000
31
0.0
0
LINE
8
LINES
10
131.000000
20
406.000000
30
0.0
11
174.000000
21
406.000000
31
0.0
0
LINE
8
LINES
10
17.000000
20
409.000000
30
0.0
11
59.000000
21
409.000000
31
0.0
0
LINE
8
LINES
10
400.000000
20
192.000000
30
0.0
11
400.000000
21
233.000000
31
0.0
0
LINE
8
LINES
10
68.000000
20
489.000000
30
0.0
11
27.000000
21
489.000000
31
0.0
0
LINE
8
LINES
10
81.000000
20
419.000000
30
0.0
11
81.000000
21
377.000000
31
0.0
0
LINE
8
LINES
10
446.000000
20
716.000000
30
0.0
11
488.000000
21
716.000000
31
0.0
0
LINE
8
LINES
10
366.000000
20
657.000000
30
0.0
11
408.000000
21
657.000000
31
0.0
0
LINE
8
LINES
10
153.000000
20
664.000000
30
0.0
11
153.000000
21
707.000000
31
0.0
0
LINE
8
LINES
10
366.000000
20
670.000000
30
0.0
11
408.000000
21
670.000000
31
0.0
0
LINE
8
LINES
10
366.000000
20
684.000000
30
0.0
11
408.000000
21
684.000000
31
0.0
0
LINE
8
LINES
10
486.000000
20
112.000000
30
0.0
11
528.000000
21
112.000000
31
0.0
0
LINE
8
LINES
10
252.000000
20
1009.000000
30
0.0
11
294.000000
21
1009.000000
31
0.0
0
LINE
8
LINES
10
531.000000
20
105.000000
30
0.0
11
488.000000
21
105.000000
31
0.0
0
LINE
8
LINES
10
684.000000
20
81.000000
30
0.0
11
684.000000
21
38.000000
31
0.0
0
LINE
8
LINES
10
209.000000
20
561.000000
30
0.0
11
241.000000
21
531.000000
31
0.0
0
LINE
8
LINES
10
241.000000
20
294.000000
30
0.0
11
228.000000
21
334.000000
31
0.0
0
LINE
8
LINES
10
126.000000
20
888.000000
30
0.0
11
131.000000
21
846.000000
31
0.0
0
LINE
8
LINES
10
137.000000
20
657.000000
30
0.0
11
179.000000
21
657.000000
31
0.0
0
LINE
8
LINES
10
1.000000
20
243.000000
30
0.0
11
41.000000
21
243.000000
31
0.0
0
LINE
8
LINES
10
478.000000
20
638.000000
30
0.0
11
518.000000
21
638.000000
31
0.0
0
LINE
8
LINES
10
1.000000
20
251.000000
30
0.0
11
41.000000
21
251.000000
31
0.0
0
LINE
8
LINES
10
65.000000
20
710.000000
30
0.0
11
24.000000
21
710.000000
31
0.0
0
LINE
8
LINES
10
136.000000
20
620.000000
30
0.0
11
177.000000
21
620.000000
31
0.0
0
LINE
8
LINES
10
179.000000
20
644.000000
30
0.0
11
137.000000
21
644.000000
31
0.0
0
LINE
8
LINES
10
41.000000
20
246.000000
30
0.0
11
1.000000
21
246.000000
31
0.0
0
LINE
8
LINES
10
179.000000
20
654.000000
30
0.0
11
137.000000
21
654.000000
31
0.0
0
LINE
8
LINES
10
158.000000
20
707.000000
30
0.0
11
158.000000
21
665.000000
31
0.0
0
LINE
8
LINES
10
70.000000
20
492.000000
30
0.0
11
28.000000
21
492.000000
31
0.0
0
LINE
8
LINES
10
3.000000
20
926.000000
30
0.0
11
3.000000
21
968.000000
31
0.0
0
LINE
8
LINES
10
177.000000
20
601.000000
30
0.0
11
136.000000
21
601.000000
31
0.0
0
LINE
8
LINES
10
177.000000
20
596.000000
30
0.0
11
136.000000
21
596.000000
31
0.0
0
LINE
8
LINES
10
636.000000
20
528.000000
30
0.0
11
678.000000
21
528.000000
31
0.0
0
LINE
8
LINES
10
291.000000
20
646.000000
30
0.0
11
251.000000
21
646.000000
31
0.0
0
LINE
8
LINES
10
291.000000
20
664.000000
30
0.0
11
251.000000
21
664.000000
31
0.0
0
LINE
8
LINES
10
596.000000
20
88.000000
30
0.0
11
638.000000
21
88.000000
31
0.0
0
LINE
8
LINES
10
291.000000
20
641.000000
30
0.0
11
251.000000
21
641.000000
31
0.0
0
LINE
8
LINES
10
251.000000
20
633.000000
30
0.0
11
291.000000
21
633.000000
31
0.0
0
LINE
8
LINES
10
137.000000
20
627.000000
30
0.0
11
177.000000
21
627.000000
31
0.0
0
LINE
8
LINES
10
408.000000
20
590.000000
30
0.0
11
366.000000
21
585.000000
31
0.0
0
LINE
8
LINES
10
622.000000
20
328.000000
30
0.0
11
662.000000
21
340.000000
31
0.0
0
LINE
8
LINES
10
216.000000
20
804.000000
30
0.0
11
254.000000
21
790.000000
31
0.0
0
LINE
8
LINES
10
574.000000
20
864.000000
30
0.0
11
606.000000
21
840.000000
31
0.0
0
LINE
8
LINES
10
462.000000
20
862.000000
30
0.0
11
462.000000
21
822.000000
31
0.0
0
LINE
8
LINES
10
462.000000
20
707.000000
30
0.0
11
502.000000
21
707.000000
31
0.0
0
LINE
8
LINES
10
129.000000
20
179.000000
30
0.0
11
169.000000
21
179.000000
31
0.0
0
LINE
8
LINES
10
616.000000
20
865.000000
30
0.0
11
576.000000
21
865.000000
31
0.0
0
LINE
8
LINES
10
62.000000
20
633.000000
30
0.0
11
22.000000
21
633.000000
31
0.0
0
LINE
8
LINES
10
41.000000
20
257.000000
30
0.0
11
1.000000
21
257.000000
31
0.0
0
LINE
8
LINES
10
62.000000
20
625.000000
30
0.0
11
22.000000
21
625.000000
31
0.0
0
LINE
8
LINES
10
22.000000
20
619.000000
30
0.0
11
62.000000
21
619.000000
31
0.0
0
LINE
8
LINES
10
254.000000
20
195.000000
30
0.0
11
254.000000
21
236.000000
31
0.0
0
LINE
8
LINES
10
147.000000
20
667.000000
30
0.0
11
147.000000
21
707.000000
31
0.0
0
LINE
8
LINES
10
1.000000
20
273.000000
30
0.0
11
41.000000
21
273.000000
31
0.0
0
LINE
8
LINES
10
363.000000
20
403.000000
30
0.0
11
403.000000
21
403.000000
31
0.0
0
LINE
8
LINES
10
22.000000
20
609.000000
30
0.0
11
62.000000
21
609.000000
31
0.0
0
LINE
8
LINES
10
177.000000
20
625.000000
30
0.0
11
137.000000
21
625.000000
31
0.0
0
LINE
8
LINES
10
179.000000
20
710.000000
30
0.0
11
139.000000
21
710.000000
31
0.0
0
LINE
8
LINES
10
307.000000
20
454.000000
30
0.0
11
268.000000
21
454.000000
31
0.0
0
LINE
8
LINES
10
62.000000
20
617.000000
30
0.0
11
22.000000
21
617.000000
31
0.0
0
LINE
8
LINES
10
137.000000
20
641.000000
30
0.0
11
177.000000
21
641.000000
31
0.0
0
LINE
8
LINES
10
41.000000
20
254.000000
30
0.0
11
1.000000
21
254.000000
31
0.0
0
LINE
8
LINES
10
177.000000
20
616.000000
30
0.0
11
137.000000
21
616.000000
31
0.0
0
LINE
8
LINES
10
456.000000
20
492.000000
30
0.0
11
416.000000
21
492.000000
31
0.0
0
LINE
8
LINES
10
406.000000
20
638.000000
30
0.0
11
366.000000
21
638.000000
31
0.0
0
LINE
8
LINES
10
251.000000
20
660.000000
30
0.0
11
291.000000
21
660.000000
31
0.0
0
LINE
8
LINES
10
27.000000
20
884.000000
30
0.0
11
67.000000
21
884.000000
31
0.0
0
LINE
8
LINES
10
515.000000
20
857.000000
30
0.0
11
486.000000
21
828.000000
31
0.0
0
LINE
8
LINES
10
656.000000
20
347.000000
30
0.0
11
620.000000
21
332.000000
31
0.0
0
LINE
8
LINES
10
419.000000
20
292.000000
30
0.0
11
433.000000
21
329.000000
31
0.0
0
LINE
8
LINES
10
502.000000
20
886.000000
30
0.0
11
462.000000
21
886.000000
31
0.0
0
LINE
8
LINES
10
176.000000
20
659.000000
30
0.0
11
176.000000
21
697.000000
31
0.0
0
LINE
8
LINES
10
172.000000
20
131.000000
30
0.0
11
172.000000
21
171.000000
31
0.0
0
LINE
8
LINES
10
630.000000
20
638.000000
30
0.0
11
630.000000
21
601.000000
31
0.0
0
LINE
8
LINES
10
601.000000
20
115.000000
30
0.0
11
641.000000
21
115.000000
31
0.0
0
LINE
8
LINES
10
288.000000
20
360.000000
30
0.0
11
249.000000
21
360.000000
31
0.0
0
LINE
8
LINES
10
49.000000
20
1004.000000
30
0.0
11
49.000000
21
966.000000
31
0.0
0
LINE
8
LINES
10
678.000000
20
726.000000
30
0.0
11
678.000000
21
764.000000
31
0.0
0
LINE
8
LINES
10
38.000000
20
276.000000
30
0.0
11
1.000000
21
276.000000
31
0.0
0
LINE
8
LINES
10
62.000000
20
644.000000
30
0.0
11
24.000000
21
644.000000
31
0.0
0
LINE
8
LINES
10
62.000000
20
641.000000
30
0.0
11
24.000000
21
641.000000
31
0.0
0
LINE
8
LINES
10
638.000000
20
280.000000
30
0.0
11
678.000000
21
280.000000
31
0.0
0
LINE
8
LINES
10
174.000000
20
609.000000
30
0.0
11
136.000000
21
609.000000
31
0.0
0
LINE
8
LINES
10
24.000000
20
643.000000
30
0.0
11
62.000000
21
643.000000
31
0.0
0
LINE
8
LINES
10
403.000000
20
649.000000
30
0.0
11
366.000000
21
649.000000
31
0.0
0
LINE
8
LINES
10
62.000000
20
601.000000
30
0.0
11
22.000000
21
601.000000
31
0.0
0
LINE
8
LINES
10
363.000000
20
380.000000
30
0.0
11
401.000000
21
380.000000
31
0.0
0
LINE
8
LINES
10
176.000000
20
236.000000
30
0.0
11
176.000000
21
198.000000
31
0.0
0
LINE
8
LINES
10
300.000000
20
633.000000
30
0.0
11
300.000000
21
595.000000
31
0.0
0
LINE
8
LINES
10
49.000000
20
966.000000
30
0.0
11
49.000000
21
1004.000000
31
0.0
0
LINE
8
LINES
10
291.000000
20
601.000000
30
0.0
11
252.000000
21
601.000000
31
0.0
0
LINE
8
LINES
10
208.000000
20
865.000000
30
0.0
11
190.000000
21
832.000000
31
0.0
0
LINE
8
LINES
10
307.000000
20
545.000000
30
0.0
11
268.000000
21
552.000000
31
0.0
0
LINE
8
LINES
10
193.000000
20
988.000000
30
0.0
11
232.000000
21
984.000000
31
0.0
0
LINE
8
LINES
10
670.000000
20
331.000000
30
0.0
11
657.000000
21
294.000000
31
0.0
0
LINE
8
LINES
10
329.000000
20
561.000000
30
0.0
11
358.000000
21
537.000000
31
0.0
0
LINE
8
LINES
10
641.000000
20
833.000000
30
0.0
11
606.000000
21
816.000000
31
0.0
0
LINE
8
LINES
10
496.000000
20
796.000000
30
0.0
11
459.000000
21
803.000000
31
0.0
0
LINE
8
LINES
10
521.000000
20
590.000000
30
0.0
11
483.000000
21
590.000000
31
0.0
0
LINE
8
LINES
10
396.000000
20
380.000000
30
0.0
11
358.000000
21
380.000000
31
0.0
0
LINE
8
LINES
10
630.000000
20
592.000000
30
0.0
11
593.000000
21
588.000000
31
0.0
0
LINE
8
LINES
10
606.000000
20
897.000000
30
0.0
11
606.000000
21
934.000000
31
0.0
0
LINE
8
LINES
10
356.000000
20
334.000000
30
0.0
11
393.000000
21
323.000000
31
0.0
0
LINE
8
LINES
10
172.000000
20
361.000000
30
0.0
11
136.000000
21
361.000000
31
0.0
0
LINE
8
LINES
10
156.000000
20
467.000000
30
0.0
11
156.000000
21
430.000000
31
0.0
0
LINE
8
LINES
10
286.000000
20
408.000000
30
0.0
11
286.000000
21
446.000000
31
0.0
0
LINE
8
LINES
10
190.000000
20
830.000000
30
0.0
11
153.000000
21
822.000000
31
0.0
0
LINE
8
LINES
10
531.000000
20
828.000000
30
0.0
11
547.000000
21
862.000000
31
0.0
0
LINE
8
LINES
10
1.000000
20
883.000000
30
0.0
11
1.000000
21
921.000000
31
0.0
0
LINE
8
LINES
10
62.000000
20
472.000000
30
0.0
11
62.000000
21
433.000000
31
0.0
0
LINE
8
LINES
10
132.000000
20
129.000000
30
0.0
11
171.000000
21
129.000000
31
0.0
0
LINE
8
LINES
10
28.000000
20
476.000000
30
0.0
11
67.000000
21
476.000000
31
0.0
0
LINE
8
LINES
10
516.000000
20
172.000000
30
0.0
11
478.000000
21
172.000000
31
0.0
0
LINE
8
LINES
10
1.000000
20
728.000000
30
0.0
11
1.000000
21
691.000000
31
0.0
0
LINE
8
LINES
10
404.000000
20
406.000000
30
0.0
11
404.000000
21
443.000000
31
0.0
0
LINE
8
LINES
10
248.000000
20
184.000000
30
0.0
11
286.000000
21
184.000000
31
0.0
0
LINE
8
LINES
10
299.000000
20
707.000000
30
0.0
11
337.000000
21
707.000000
31
0.0
0
LINE
8
LINES
10
590.000000
20
640.000000
30
0.0
11
627.000000
21
640.000000
31
0.0
0
LINE
8
LINES
10
22.000000
20
627.000000
30
0.0
11
60.000000
21
627.000000
31
0.0
0
LINE
8
LINES
10
659.000000
20
462.000000
30
0.0
11
659.000000
21
424.000000
31
0.0
0
LINE
8
LINES
10
366.000000
20
182.000000
30
0.0
11
403.000000
21
182.000000
31
0.0
0
LINE
8
LINES
10
393.000000
20
236.000000
30
0.0
11
393.000000
21
198.000000
31
0.0
0
LINE
8
LINES
10
432.000000
20
611.000000
30
0.0
11
432.000000
21
574.000000
31
0.0
0
LINE
8
LINES
10
137.000000
20
608.000000
30
0.0
11
174.000000
21
608.000000
31
0.0
0
LINE
8
LINES
10
137.000000
20
598.000000
30
0.0
11
176.000000
21
598.000000
31
0.0
0
LINE
8
LINES
10
582.000000
20
374.000000
30
0.0
11
582.000000
21
412.000000
31
0.0
0
LINE
8
LINES
10
542.000000
20
870.000000
30
0.0
11
531.000000
21
833.000000
31
0.0
0
LINE
8
LINES
10
24.000000
20
616.000000
30
0.0
11
62.000000
21
616.000000
31
0.0
0
LINE
8
LINES
10
620.000000
20
753.000000
30
0.0
11
657.000000
21
753.000000
31
0.0
0
LINE
8
LINES
10
361.000000
20
588.000000
30
0.0
11
361.000000
21
625.000000
31
0.0
0
LINE
8
LINES
10
366.000000
20
121.000000
30
0.0
11
403.000000
21
121.000000
31
0.0
0
LINE
8
LINES
10
171.000000
20
152.000000
30
0.0
11
132.000000
21
152.000000
31
0.0
0
LINE
8
LINES
10
137.000000
20
468.000000
30
0.0
11
137.000000
21
432.000000
31
0.0
0
LINE
8
LINES
10
62.000000
20
254.000000
30
0.0
11
100.000000
21
254.000000
31
0.0
0
LINE
8
LINES
10
1.000000
20
332.000000
30
0.0
11
14.000000
21
297.000000
31
0.0
0
LINE
8
LINES
10
361.000000
20
291.000000
30
0.0
11
348.000000
21
326.000000
31
0.0
0
LINE
8
LINES
10
403.000000
20
361.000000
30
0.0
11
366.000000
21
361.000000
31
0.0
0
LINE
8
LINES
10
35.000000
20
867.000000
30
0.0
11
35.000000
21
832.000000
31
0.0
0
LINE
8
LINES
10
48.000000
20
913.000000
30
0.0
11
48.000000
21
948.000000
31
0.0
0
LINE
8
LINES
10
182.000000
20
889.000000
30
0.0
11
147.000000
21
889.000000
31
0.0
0
LINE
8
LINES
10
592.000000
20
409.000000
30
0.0
11
627.000000
21
409.000000
31
0.0
0
LINE
8
LINES
10
513.000000
20
400.000000
30
0.0
11
478.000000
21
400.000000
31
0.0
0
LINE
8
LINES
10
638.000000
20
480.000000
30
0.0
11
675.000000
21
480.000000
31
0.0
0
LINE
8
LINES
10
684.000000
20
763.000000
30
0.0
11
684.000000
21
726.000000
31
0.0
0
LINE
8
LINES
10
566.000000
20
280.000000
30
0.0
11
529.000000
21
280.000000
31
0.0
0
LINE
8
LINES
10
476.000000
20
443.000000
30
0.0
11
476.000000
21
406.000000
31
0.0
0
LINE
8
LINES
10
62.000000
20
595.000000
30
0.0
11
25.000000
21
595.000000
31
0.0
0
LINE
8
LINES
10
62.000000
20
612.000000
30
0.0
11
27.000000
21
612.000000
31
0.0
0
LINE
8
LINES
10
507.000000
20
974.000000
30
0.0
11
470.000000
21
974.000000
31
0.0
0
LINE
8
LINES
10
350.000000
20
275.000000
30
0.0
11
387.000000
21
275.000000
31
0.0
0
LINE
8
LINES
10
590.000000
20
598.000000
30
0.0
11
590.000000
21
633.000000
31
0.0
0
LINE
8
LINES
10
417.000000
20
646.000000
30
0.0
11
417.000000
21
683.000000
31
0.0
0
LINE
8
LINES
10
177.000000
20
636.000000
30
0.0
11
142.000000
21
636.000000
31
0.0
0
LINE
8
LINES
10
169.000000
20
131.000000
30
0.0
11
132.000000
21
131.000000
31
0.0
0
LINE
8
LINES
10
636.000000
20
172.000000
30
0.0
11
636.000000
21
137.000000
31
0.0
0
LINE
8
LINES
10
515.000000
20
633.000000
30
0.0
11
478.000000
21
633.000000
31
0.0
0
LINE
8
LINES
10
652.000000
20
300.000000
30
0.0
11
662.000000
21
334.000000
31
0.0
0
LINE
8
LINES
10
438.000000
20
320.000000
30
0.0
11
422.000000
21
288.000000
31
0.0
0
LINE
8
LINES
10
129.000000
20
332.000000
30
0.0
11
164.000000
21
326.000000
31
0.0
0
LINE
8
LINES
10
236.000000
20
497.000000
30
0.0
11
211.000000
21
523.000000
31
0.0
0
LINE
8
LINES
10
268.000000
20
443.000000
30
0.0
11
268.000000
21
408.000000
31
0.0
0
LINE
8
LINES
10
60.000000
20
384.000000
30
0.0
11
60.000000
21
419.000000
31
0.0
0
LINE
8
LINES
10
44.000000
20
241.000000
30
0.0
11
44.000000
21
206.000000
31
0.0
0
LINE
8
LINES
10
260.000000
20
408.000000
30
0.0
11
264.000000
21
443.000000
31
0.0
0
LINE
8
LINES
10
169.000000
20
86.000000
30
0.0
11
204.000000
21
86.000000
31
0.0
0
LINE
8
LINES
10
646.000000
20
89.000000
30
0.0
11
681.000000
21
89.000000
31
0.0
0
LINE
8
LINES
10
73.000000
20
923.000000
30
0.0
11
73.000000
21
888.000000
31
0.0
0
LINE
8
LINES
10
252.000000
20
491.000000
30
0.0
11
252.000000
21
456.000000
31
0.0
0
LINE
8
LINES
10
627.000000
20
401.000000
30
0.0
11
592.000000
21
401.000000
31
0.0
0
LINE
8
LINES
10
683.000000
20
486.000000
30
0.0
11
683.000000
21
521.000000
31
0.0
0
LINE
8
LINES
10
684.000000
20
273.000000
30
0.0
11
684.000000
21
308.000000
31
0.0
0
LINE
8
LINES
10
515.000000
20
595.000000
30
0.0
11
515.000000
21
630.000000
31
0.0
0
LINE
8
LINES
10
481.000000
20
168.000000
30
0.0
11
516.000000
21
168.000000
31
0.0
0
LINE
8
LINES
10
625.000000
20
596.000000
30
0.0
11
625.000000
21
632.000000
31
0.0
0
LINE
8
LINES
10
142.000000
20
718.000000
30
0.0
11
177.000000
21
718.000000
31
0.0
0
LINE
8
LINES
10
537.000000
20
537.000000
30
0.0
11
502.000000
21
537.000000
31
0.0
0
LINE
8
LINES
10
168.000000
20
368.000000
30
0.0
11
132.000000
21
368.000000
31
0.0
0
LINE
8
LINES
10
395.000000
20
201.000000
30
0.0
11
395.000000
21
236.000000
31
0.0
0
LINE
8
LINES
10
81.000000
20
539.000000
30
0.0
11
116.000000
21
539.000000
31
0.0
0
LINE
8
LINES
10
27.000000
20
603.000000
30
0.0
11
62.000000
21
603.000000
31
0.0
0
LINE
8
LINES
10
51.000000
20
115.000000
30
0.0
11
16.000000
21
115.000000
31
0.0
0
LINE
8
LINES
10
628.000000
20
403.000000
30
0.0
11
628.000000
21
369.000000
31
0.0
0
LINE
8
LINES
10
65.000000
20
473.000000
30
0.0
11
30.000000
21
473.000000
31
0.0
0
LINE
8
LINES
10
297.000000
20
708.000000
30
0.0
11
262.000000
21
708.000000
31
0.0
0
LINE
8
LINES
10
139.000000
20
604.000000
30
0.0
11
174.000000
21
604.000000
31
0.0
0
LINE
8
LINES
10
137.000000
20
646.000000
30
0.0
11
172.000000
21
646.000000
31
0.0
0
LINE
8
LINES
10
196.000000
20
275.000000
30
0.0
11
232.000000
21
275.000000
31
0.0
0
LINE
8
LINES
10
366.000000
20
392.000000
30
0.0
11
401.000000
21
392.000000
31
0.0
0
LINE
8
LINES
10
363.000000
20
382.000000
30
0.0
11
398.000000
21
382.000000
31
0.0
0
LINE
8
LINES
10
158.000000
20
236.000000
30
0.0
11
158.000000
21
201.000000
31
0.0
0
LINE
8
LINES
10
73.000000
20
865.000000
30
0.0
11
38.000000
21
865.000000
31
0.0
0
LINE
8
LINES
10
60.000000
20
238.000000
30
0.0
11
60.000000
21
204.000000
31
0.0
0
LINE
8
LINES
10
76.000000
20
830.000000
30
0.0
11
44.000000
21
820.000000
31
0.0
0
LINE
8
LINES
10
304.000000
20
294.000000
30
0.0
11
316.000000
21
328.000000
31
0.0
0
LINE
8
LINES
10
188.000000
20
297.000000
30
0.0
11
198.000000
21
329.000000
31
0.0
0
LINE
8
LINES
10
353.000000
20
318.000000
30
0.0
11
369.000000
21
289.000000
31
0.0
0
LINE
8
LINES
10
531.000000
20
833.000000
30
0.0
11
502.000000
21
817.000000
31
0.0
0
LINE
8
LINES
10
630.000000
20
176.000000
30
0.0
11
596.000000
21
176.000000
31
0.0
0
LINE
8
LINES
10
49.000000
20
206.000000
30
0.0
11
46.000000
21
241.000000
31
0.0
0
LINE
8
LINES
10
36.000000
20
819.000000
30
0.0
11
70.000000
21
822.000000
31
0.0
0
LINE
8
LINES
10
1.000000
20
870.000000
30
0.0
11
33.000000
21
870.000000
31
0.0
0
LINE
8
LINES
10
596.000000
20
171.000000
30
0.0
11
630.000000
21
171.000000
31
0.0
0
LINE
8
LINES
10
617.000000
20
240.000000
30
0.0
11
652.000000
21
240.000000
31
0.0
0
LINE
8
LINES
10
494.000000
20
443.000000
30
0.0
11
494.000000
21
409.000000
31
0.0
0
LINE
8
LINES
10
123.000000
20
107.000000
30
0.0
11
123.000000
21
140.000000
31
0.0
0
LINE
8
LINES
10
652.000000
20
537.000000
30
0.0
11
617.000000
21
537.000000
31
0.0
0
LINE
8
LINES
10
515.000000
20
128.000000
30
0.0
11
481.000000
21
128.000000
31
0.0
0
LINE
8
LINES
10
369.000000
20
201.000000
30
0.0
11
369.000000
21
233.000000
31
0.0
0
LINE
8
LINES
10
44.000000
20
913.000000
30
0.0
11
44.000000
21
947.000000
31
0.0
0
LINE
8
LINES
10
374.000000
20
233.000000
30
0.0
11
374.000000
21
201.000000
31
0.0
0
LINE
8
LINES
10
44.000000
20
963.000000
30
0.0
11
44.000000
21
996.000000
31
0.0
0
LINE
8
LINES
10
521.000000
20
110.000000
30
0.0
11
486.000000
21
110.000000
31
0.0
0
LINE
8
LINES
10
492.000000
20
409.000000
30
0.0
11
492.000000
21
443.000000
31
0.0
0
LINE
8
LINES
10
1.000000
20
281.000000
30
0.0
11
33.000000
21
281.000000
31
0.0
0
LINE
8
LINES
10
17.000000
20
120.000000
30
0.0
11
51.000000
21
120.000000
31
0.0
0
LINE
8
LINES
10
401.000000
20
126.000000
30
0.0
11
366.000000
21
126.000000
31
0.0
0
LINE
8
LINES
10
136.000000
20
601.000000
30
0.0
11
169.000000
21
601.000000
31
0.0
0
LINE
8
LINES
10
6.000000
20
776.000000
30
0.0
11
41.000000
21
776.000000
31
0.0
0
LINE
8
LINES
10
603.000000
20
414.000000
30
0.0
11
603.000000
21
448.000000
31
0.0
0
LINE
8
LINES
10
193.000000
20
190.000000
30
0.0
11
227.000000
21
190.000000
31
0.0
0
LINE
8
LINES
10
286.000000
20
673.000000
30
0.0
11
252.000000
21
673.000000
31
0.0
0
LINE
8
LINES
10
363.000000
20
1006.000000
30
0.0
11
396.000000
21
1006.000000
31
0.0
0
LINE
8
LINES
10
144.000000
20
707.000000
30
0.0
11
144.000000
21
673.000000
31
0.0
0
LINE
8
LINES
10
161.000000
20
707.000000
30
0.0
11
161.000000
21
673.000000
31
0.0
0
LINE
8
LINES
10
257.000000
20
646.000000
30
0.0
11
291.000000
21
646.000000
31
0.0
0
LINE
8
LINES
10
139.000000
20
236.000000
30
0.0
11
139.000000
21
201.000000
31
0.0
0
LINE
8
LINES
10
132.000000
20
388.000000
30
0.0
11
166.000000
21
388.000000
31
0.0
0
LINE
8
LINES
10
305.000000
20
622.000000
30
0.0
11
305.000000
21
588.000000
31
0.0
0
LINE
8
LINES
10
235.000000
20
721.000000
30
0.0
11
232.000000
21
755.000000
31
0.0
0
LINE
8
LINES
10
587.000000
20
278.000000
30
0.0
11
620.000000
21
278.000000
31
0.0
0
LINE
8
LINES
10
246.000000
20
584.000000
30
0.0
11
280.000000
21
577.000000
31
0.0
0
LINE
8
LINES
10
625.000000
20
945.000000
30
0.0
11
644.000000
21
974.000000
31
0.0
0
LINE
8
LINES
10
72.000000
20
300.000000
30
0.0
11
83.000000
21
332.000000
31
0.0
0
LINE
8
LINES
10
308.000000
20
342.000000
30
0.0
11
278.000000
21
328.000000
31
0.0
0
LINE
8
LINES
10
142.000000
20
824.000000
30
0.0
11
174.000000
21
816.000000
31
0.0
0
LINE
8
LINES
10
204.000000
20
323.000000
30
0.0
11
190.000000
21
294.000000
31
0.0
0
LINE
8
LINES
10
174.000000
20
830.000000
30
0.0
11
198.000000
21
851.000000
31
0.0
0
LINE
8
LINES
10
49.000000
20
241.000000
30
0.0
11
52.000000
21
208.000000
31
0.0
0
LINE
8
LINES
10
483.000000
20
366.000000
30
0.0
11
515.000000
21
366.000000
31
0.0
0
LINE
8
LINES
10
673.000000
20
764.000000
30
0.0
11
673.000000
21
732.000000
31
0.0
0
LINE
8
LINES
10
622.000000
20
633.000000
30
0.0
11
590.000000
21
636.000000
31
0.0
0
LINE
8
LINES
10
593.000000
20
198.000000
30
0.0
11
593.000000
21
166.000000
31
0.0
0
LINE
8
LINES
10
227.000000
20
464.000000
30
0.0
11
227.000000
21
497.000000
31
0.0
0
LINE
8
LINES
10
377.000000
20
408.000000
30
0.0
11
377.000000
21
441.000000
31
0.0
0
LINE
8
LINES
10
177.000000
20
630.000000
30
0.0
11
145.000000
21
630.000000
31
0.0
0
LINE
8
LINES
10
280.000000
20
446.000000
30
0.0
11
283.000000
21
412.000000
31
0.0
0
LINE
8
LINES
10
457.000000
20
278.000000
30
0.0
11
424.000000
21
278.000000
31
0.0
0
LINE
8
LINES
10
403.000000
20
443.000000
30
0.0
11
403.000000
21
411.000000
31
0.0
0
LINE
8
LINES
10
518.000000
20
632.000000
30
0.0
11
518.000000
21
598.000000
31
0.0
0
LINE
8
LINES
10
54.000000
20
996.000000
30
0.0
11
54.000000
21
963.000000
31
0.0
0
LINE
8
LINES
10
172.000000
20
800.000000
30
0.0
11
140.000000
21
800.000000
31
0.0
0
LINE
8
LINES
10
488.000000
20
411.000000
30
0.0
11
488.000000
21
443.000000
31
0.0
0
LINE
8
LINES
10
28.000000
20
596.000000
30
0.0
11
60.000000
21
596.000000
31
0.0
0
LINE
8
LINES
10
56.000000
20
590.000000
30
0.0
11
22.000000
21
590.000000
31
0.0
0
LINE
8
LINES
10
515.000000
20
406.000000
30
0.0
11
515.000000
21
372.000000
31
0.0
0
LINE
8
LINES
10
398.000000
20
550.000000
30
0.0
11
366.000000
21
550.000000
31
0.0
0
LINE
8
LINES
10
401.000000
20
134.000000
30
0.0
11
368.000000
21
134.000000
31
0.0
0
LINE
8
LINES
10
398.000000
20
177.000000
30
0.0
11
366.000000
21
177.000000
31
0.0
0
LINE
8
LINES
10
99.000000
20
923.000000
30
0.0
11
99.000000
21
891.000000
31
0.0
0
LINE
8
LINES
10
291.000000
20
627.000000
30
0.0
11
259.000000
21
627.000000
31
0.0
0
LINE
8
LINES
10
51.000000
20
99.000000
30
0.0
11
19.000000
21
99.000000
31
0.0
0
LINE
8
LINES
10
249.000000
20
377.000000
30
0.0
11
281.000000
21
377.000000
31
0.0
0
LINE
8
LINES
10
72.000000
20
758.000000
30
0.0
11
38.000000
21
758.000000
31
0.0
0
LINE
8
LINES
10
67.000000
20
467.000000
30
0.0
11
65.000000
21
433.000000
31
0.0
0
LINE
8
LINES
10
630.000000
20
366.000000
30
0.0
11
598.000000
21
358.000000
31
0.0
0
LINE
8
LINES
10
123.000000
20
300.000000
30
0.0
11
113.000000
21
331.000000
31
0.0
0
LINE
8
LINES
10
385.000000
20
577.000000
30
0.0
11
417.000000
21
585.000000
31
0.0
0
LINE
8
LINES
10
540.000000
20
300.000000
30
0.0
11
550.000000
21
332.000000
31
0.0
0
LINE
8
LINES
10
588.000000
20
830.000000
30
0.0
11
572.000000
21
857.000000
31
0.0
0
LINE
8
LINES
10
419.000000
20
792.000000
30
0.0
11
387.000000
21
785.000000
31
0.0
0
LINE
8
LINES
10
161.000000
20
819.000000
30
0.0
11
192.000000
21
828.000000
31
0.0
0
LINE
8
LINES
10
163.000000
20
326.000000
30
0.0
11
193.000000
21
337.000000
31
0.0
0
LINE
8
LINES
10
198.000000
20
102.000000
30
0.0
11
230.000000
21
102.000000
31
0.0
0
LINE
8
LINES
10
131.000000
20
171.000000
30
0.0
11
163.000000
21
171.000000
31
0.0
0
LINE
8
LINES
10
6.000000
20
971.000000
30
0.0
11
6.000000
21
1001.000000
31
0.0
0
LINE
8
LINES
10
628.000000
20
129.000000
30
0.0
11
598.000000
21
129.000000
31
0.0
0
LINE
8
LINES
10
158.000000
20
990.000000
30
0.0
11
188.000000
21
990.000000
31
0.0
0
LINE
8
LINES
10
518.000000
20
132.000000
30
0.0
11
518.000000
21
163.000000
31
0.0
0
LINE
8
LINES
10
377.000000
20
441.000000
30
0.0
11
377.000000
21
411.000000
31
0.0
0
LINE
8
LINES
10
49.000000
20
140.000000
30
0.0
11
17.000000
21
140.000000
31
0.0
0
LINE
8
LINES
10
168.000000
20
139.000000
30
0.0
11
137.000000
21
139.000000
31
0.0
0
LINE
8
LINES
10
398.000000
20
412.000000
30
0.0
11
398.000000
21
443.000000
31
0.0
0
LINE
8
LINES
10
25.000000
20
585.000000
30
0.0
11
56.000000
21
577.000000
31
0.0
0
LINE
8
LINES
10
307.000000
20
716.000000
30
0.0
11
337.000000
21
716.000000
31
0.0
0
LINE
8
LINES
10
116.000000
20
329.000000
30
0.0
11
126.000000
21
300.000000
31
0.0
0
LINE
8
LINES
10
579.000000
20
625.000000
30
0.0
11
547.000000
21
625.000000
31
0.0
0
LINE
8
LINES
10
366.000000
20
401.000000
30
0.0
11
398.000000
21
401.000000
31
0.0
0
LINE
8
LINES
10
526.000000
20
628.000000
30
0.0
11
526.000000
21
598.000000
31
0.0
0
LINE
8
LINES
10
246.000000
20
619.000000
30
0.0
11
246.000000
21
651.000000
31
0.0
0
LINE
8
LINES
10
136.000000
20
588.000000
30
0.0
11
164.000000
21
577.000000
31
0.0
0
LINE
8
LINES
10
393.000000
20
324.000000
30
0.0
11
422.000000
21
334.000000
31
0.0
0
LINE
8
LINES
10
612.000000
20
579.000000
30
0.0
11
641.000000
21
587.000000
31
0.0
0
LINE
8
LINES
10
308.000000
20
291.000000
30
0.0
11
284.000000
21
275.000000
31
0.0
0
LINE
8
LINES
10
91.000000
20
854.000000
30
0.0
11
73.000000
21
830.000000
31
0.0
0
LINE
8
LINES
10
144.000000
20
832.000000
30
0.0
11
174.000000
21
828.000000
31
0.0
0
LINE
8
LINES
10
217.000000
20
729.000000
30
0.0
11
241.000000
21
712.000000
31
0.0
0
LINE
8
LINES
10
8.000000
20
302.000000
30
0.0
11
0.000000
21
332.000000
31
0.0
0
LINE
8
LINES
10
510.000000
20
825.000000
30
0.0
11
532.000000
21
844.000000
31
0.0
0
LINE
8
LINES
10
502.000000
20
577.000000
30
0.0
11
531.000000
21
587.000000
31
0.0
0
LINE
8
LINES
10
384.000000
20
441.000000
30
0.0
11
384.000000
21
412.000000
31
0.0
0
LINE
8
LINES
10
489.000000
20
721.000000
30
0.0
11
489.000000
21
752.000000
31
0.0
0
LINE
8
LINES
10
481.000000
20
592.000000
30
0.0
11
510.000000
21
592.000000
31
0.0
0
LINE
8
LINES
10
136.000000
20
470.000000
30
0.0
11
166.000000
21
470.000000
31
0.0
0
LINE
8
LINES
10
361.000000
20
443.000000
30
0.0
11
361.000000
21
412.000000
31
0.0
0
LINE
8
LINES
10
513.000000
20
361.000000
30
0.0
11
483.000000
21
361.000000
31
0.0
0
LINE
8
LINES
10
614.000000
20
537.000000
30
0.0
11
584.000000
21
537.000000
31
0.0
0
LINE
8
LINES
10
62.000000
20
628.000000
30
0.0
11
33.000000
21
628.000000
31
0.0
0
LINE
8
LINES
10
678.000000
20
521.000000
30
0.0
11
678.000000
21
492.000000
31
0.0
0
LINE
8
LINES
10
176.000000
20
166.000000
30
0.0
11
176.000000
21
137.000000
31
0.0
0
LINE
8
LINES
10
281.000000
20
643.000000
30
0.0
11
251.000000
21
643.000000
31
0.0
0
ENDSEC
0
EOF
