0
SECTION
2
ENTITIES
0
LWPOLYLINE
8
FACADE_OUTLINE
90
4
70
1
10
0.000000
20
0.000000
10
1024.000000
20
0.000000
10
1024.000000
20
704.000000
10
0.000000
20
704.000000
0
LWPOLYLINE
8
WINDOWS
90
4
70
1
10
0.000000
20
0.000000
10
1024.000000
20
0.000000
10
1024.000000
20
608.000000
10
0.000000
20
608.000000
0
LWPOLYLINE
8
WINDOWS
90
4
70
1
10
499.000000
20
100.000000
10
686.000000
20
100.000000
10
686.000000
20
337.000000
10
499.000000
20
337.000000
0
LWPOLYLINE
8
WINDOWS
90
4
70
1
10
289.000000
20
113.000000
10
401.000000
20
113.000000
10
401.000000
20
209.000000
10
289.000000
20
209.000000
0
LWPOLYLINE
8
WINDOWS
90
4
70
1
10
792.000000
20
115.000000
10
960.000000
20
115.000000
10
960.000000
20
208.000000
10
792.000000
20
208.000000
0
LWPOLYLINE
8
WINDOWS
90
4
70
1
10
180.000000
20
118.000000
10
265.000000
20
118.000000
10
265.000000
20
201.000000
10
180.000000
20
201.000000
0
LWPOLYLINE
8
WINDOWS
90
4
70
1
10
97.000000
20
126.000000
10
142.000000
20
126.000000
10
142.000000
20
195.000000
10
97.000000
20
195.000000
0
LWPOLYLINE
8
WINDOWS
90
4
70
1
10
107.000000
20
153.000000
10
142.000000
20
153.000000
10
142.000000
20
198.000000
10
107.000000
20
198.000000
0
LWPOLYLINE
8
WINDOWS
90
4
70
1
10
0.000000
20
168.000000
10
515.000000
20
168.000000
10
515.000000
20
691.000000
10
0.000000
20
691.000000
0
LWPOLYLINE
8
WINDOWS
90
4
70
1
10
404.000000
20
185.000000
10
497.000000
20
185.000000
10
497.000000
20
241.000000
10
404.000000
20
241.000000
0
LWPOLYLINE
8
WINDOWS
90
4
70
1
10
185.000000
20
206.000000
10
264.000000
20
206.000000
10
264.000000
20
262.000000
10
185.000000
20
262.000000
0
LWPOLYLINE
8
WINDOWS
90
4
70
1
10
70.000000
20
208.000000
10
160.000000
20
208.000000
10
160.000000
20
339.000000
10
70.000000
20
339.000000
0
LWPOLYLINE
8
WINDOWS
90
4
70
1
10
609.000000
20
240.000000
10
662.000000
20
240.000000
10
662.000000
20
332.000000
10
609.000000
20
332.000000
0
LWPOLYLINE
8
WINDOWS
90
4
70
1
10
409.000000
20
380.000000
10
598.000000
20
380.000000
10
598.000000
20
513.000000
10
409.000000
20
513.000000
0
LWPOLYLINE
8
WINDOWS
90
4
70
1
10
675.000000
20
380.000000
10
878.000000
20
380.000000
10
878.000000
20
502.000000
10
675.000000
20
502.000000
0
LWPOLYLINE
8
WINDOWS
90
4
70
1
10
68.000000
20
387.000000
10
283.000000
20
387.000000
10
283.000000
20
595.000000
10
68.000000
20
595.000000
0
LWPOLYLINE
8
WINDOWS
90
4
70
1
10
291.000000
20
390.000000
10
409.000000
20
390.000000
10
409.000000
20
457.000000
10
291.000000
20
457.000000
0
LWPOLYLINE
8
WINDOWS
90
4
70
1
10
81.000000
20
393.000000
10
163.000000
20
393.000000
10
163.000000
20
454.000000
10
81.000000
20
454.000000
0
LWPOLYLINE
8
WINDOWS
90
4
70
1
10
184.000000
20
393.000000
10
268.000000
20
393.000000
10
268.000000
20
459.000000
10
184.000000
20
459.000000
0
LWPOLYLINE
8
WINDOWS
90
4
70
1
10
886.000000
20
393.000000
10
937.000000
20
393.000000
10
937.000000
20
459.000000
10
886.000000
20
459.000000
0
LWPOLYLINE
8
WINDOWS
90
4
70
1
10
553.000000
20
401.000000
10
718.000000
20
401.000000
10
718.000000
20
510.000000
10
553.000000
20
510.000000
0
LWPOLYLINE
8
WINDOWS
90
4
70
1
10
305.000000
20
500.000000
10
369.000000
20
500.000000
10
369.000000
20
598.000000
10
305.000000
20
598.000000
0
LWPOLYLINE
8
WINDOWS
90
4
70
1
10
761.000000
20
505.000000
10
857.000000
20
505.000000
10
857.000000
20
547.000000
10
761.000000
20
547.000000
0
LWPOLYLINE
8
WINDOWS
90
4
70
1
10
428.000000
20
508.000000
10
476.000000
20
508.000000
10
476.000000
20
571.000000
10
428.000000
20
571.000000
0
LWPOLYLINE
8
WINDOWS
90
4
70
1
10
876.000000
20
518.000000
10
921.000000
20
518.000000
10
921.000000
20
572.000000
10
876.000000
20
572.000000
0
LWPOLYLINE
8
WINDOWS
90
4
70
1
10
761.000000
20
531.000000
10
854.000000
20
531.000000
10
854.000000
20
609.000000
10
761.000000
20
609.000000
0
LWPOLYLINE
8
WINDOWS
90
4
70
1
10
374.000000
20
588.000000
10
473.000000
20
588.000000
10
473.000000
20
625.000000
10
374.000000
20
625.000000
0
LWPOLYLINE
8
DOORS
90
4
70
1
10
548.000000
20
475.000000
10
577.000000
20
475.000000
10
577.000000
20
611.000000
10
548.000000
20
611.000000
0
LINE
8
LINES
10
46.000000
20
59.000000
30
0.0
11
635.000000
21
0.000000
31
0.0
0
LINE
8
LINES
10
0.000000
20
161.000000
30
0.0
11
44.000000
21
659.000000
31
0.0
0
LINE
8
LINES
10
939.000000
20
504.000000
30
0.0
11
1022.000000
21
12.000000
31
0.0
0
LINE
8
LINES
10
46.000000
20
660.000000
30
0.0
11
542.000000
21
660.000000
31
0.0
0
LINE
8
LINES
10
662.000000
20
9.000000
30
0.0
11
1019.000000
21
9.000000
31
0.0
0
LINE
8
LINES
10
22.000000
20
73.000000
30
0.0
11
348.000000
21
73.000000
31
0.0
0
LINE
8
LINES
10
38.000000
20
86.000000
30
0.0
11
358.000000
21
86.000000
31
0.0
0
LINE
8
LINES
10
48.000000
20
355.000000
30
0.0
11
366.000000
21
355.000000
31
0.0
0
LINE
8
LINES
10
363.000000
20
350.000000
30
0.0
11
46.000000
21
350.000000
31
0.0
0
LINE
8
LINES
10
358.000000
20
76.000000
30
0.0
11
46.000000
21
76.000000
31
0.0
0
LINE
8
LINES
10
76.000000
20
376.000000
30
0.0
11
379.000000
21
376.000000
31
0.0
0
LINE
8
LINES
10
374.000000
20
105.000000
30
0.0
11
73.000000
21
105.000000
31
0.0
0
LINE
8
LINES
10
377.000000
20
465.000000
30
0.0
11
78.000000
21
465.000000
31
0.0
0
LINE
8
LINES
10
377.000000
20
382.000000
30
0.0
11
76.000000
21
382.000000
31
0.0
0
LINE
8
LINES
10
372.000000
20
369.000000
30
0.0
11
76.000000
21
369.000000
31
0.0
0
LINE
8
LINES
10
78.000000
20
470.000000
30
0.0
11
374.000000
21
470.000000
31
0.0
0
LINE
8
LINES
10
371.000000
20
97.000000
30
0.0
11
76.000000
21
97.000000
31
0.0
0
LINE
8
LINES
10
348.000000
20
62.000000
30
0.0
11
59.000000
21
62.000000
31
0.0
0
LINE
8
LINES
10
366.000000
20
361.000000
30
0.0
11
76.000000
21
361.000000
31
0.0
0
LINE
8
LINES
10
504.000000
20
342.000000
30
0.0
11
776.000000
21
342.000000
31
0.0
0
LINE
8
LINES
10
374.000000
20
92.000000
30
0.0
11
104.000000
21
92.000000
31
0.0
0
LINE
8
LINES
10
504.000000
20
352.000000
30
0.0
11
771.000000
21
352.000000
31
0.0
0
LINE
8
LINES
10
43.000000
20
345.000000
30
0.0
11
302.000000
21
345.000000
31
0.0
0
LINE
8
LINES
10
758.000000
20
67.000000
30
0.0
11
516.000000
21
67.000000
31
0.0
0
LINE
8
LINES
10
750.000000
20
92.000000
30
0.0
11
513.000000
21
92.000000
31
0.0
0
LINE
8
LINES
10
1004.000000
20
104.000000
30
0.0
11
771.000000
21
104.000000
31
0.0
0
LINE
8
LINES
10
737.000000
20
345.000000
30
0.0
11
505.000000
21
345.000000
31
0.0
0
LINE
8
LINES
10
742.000000
20
84.000000
30
0.0
11
510.000000
21
84.000000
31
0.0
0
LINE
8
LINES
10
76.000000
20
505.000000
30
0.0
11
302.000000
21
505.000000
31
0.0
0
LINE
8
LINES
10
297.000000
20
476.000000
30
0.0
11
81.000000
21
476.000000
31
0.0
0
LINE
8
LINES
10
163.000000
20
105.000000
30
0.0
11
374.000000
21
105.000000
31
0.0
0
LINE
8
LINES
10
788.000000
20
68.000000
30
0.0
11
976.000000
21
68.000000
31
0.0
0
LINE
8
LINES
10
961.000000
20
355.000000
30
0.0
11
776.000000
21
355.000000
31
0.0
0
LINE
8
LINES
10
697.000000
20
644.000000
30
0.0
11
512.000000
21
644.000000
31
0.0
0
LINE
8
LINES
10
81.000000
20
392.000000
30
0.0
11
265.000000
21
392.000000
31
0.0
0
LINE
8
LINES
10
201.000000
20
497.000000
30
0.0
11
379.000000
21
497.000000
31
0.0
0
LINE
8
LINES
10
499.000000
20
332.000000
30
0.0
11
499.000000
21
156.000000
31
0.0
0
LINE
8
LINES
10
563.000000
20
649.000000
30
0.0
11
739.000000
21
649.000000
31
0.0
0
LINE
8
LINES
10
379.000000
20
489.000000
30
0.0
11
211.000000
21
489.000000
31
0.0
0
LINE
8
LINES
10
640.000000
20
0.000000
30
0.0
11
788.000000
21
57.000000
31
0.0
0
LINE
8
LINES
10
497.000000
20
67.000000
30
0.0
11
652.000000
21
67.000000
31
0.0
0
LINE
8
LINES
10
638.000000
20
12.000000
30
0.0
11
497.000000
21
62.000000
31
0.0
0
LINE
8
LINES
10
776.000000
20
67.000000
30
0.0
11
638.000000
21
12.000000
31
0.0
0
LINE
8
LINES
10
588.000000
20
678.000000
30
0.0
11
732.000000
21
678.000000
31
0.0
0
LINE
8
LINES
10
732.000000
20
670.000000
30
0.0
11
588.000000
21
670.000000
31
0.0
0
LINE
8
LINES
10
614.000000
20
380.000000
30
0.0
11
755.000000
21
380.000000
31
0.0
0
LINE
8
LINES
10
568.000000
20
62.000000
30
0.0
11
702.000000
21
62.000000
31
0.0
0
LINE
8
LINES
10
366.000000
20
344.000000
30
0.0
11
497.000000
21
344.000000
31
0.0
0
LINE
8
LINES
10
371.000000
20
353.000000
30
0.0
11
502.000000
21
353.000000
31
0.0
0
LINE
8
LINES
10
355.000000
20
56.000000
30
0.0
11
486.000000
21
56.000000
31
0.0
0
LINE
8
LINES
10
496.000000
20
348.000000
30
0.0
11
366.000000
21
348.000000
31
0.0
0
LINE
8
LINES
10
638.000000
20
17.000000
30
0.0
11
758.000000
21
65.000000
31
0.0
0
LINE
8
LINES
10
516.000000
20
60.000000
30
0.0
11
636.000000
21
17.000000
31
0.0
0
LINE
8
LINES
10
662.000000
20
609.000000
30
0.0
11
537.000000
21
609.000000
31
0.0
0
LINE
8
LINES
10
876.000000
20
110.000000
30
0.0
11
1003.000000
21
110.000000
31
0.0
0
LINE
8
LINES
10
777.000000
20
347.000000
30
0.0
11
902.000000
21
347.000000
31
0.0
0
LINE
8
LINES
10
771.000000
20
355.000000
30
0.0
11
896.000000
21
355.000000
31
0.0
0
LINE
8
LINES
10
510.000000
20
387.000000
30
0.0
11
633.000000
21
387.000000
31
0.0
0
LINE
8
LINES
10
1004.000000
20
110.000000
30
0.0
11
881.000000
21
110.000000
31
0.0
0
LINE
8
LINES
10
361.000000
20
75.000000
30
0.0
11
483.000000
21
75.000000
31
0.0
0
LINE
8
LINES
10
1003.000000
20
116.000000
30
0.0
11
881.000000
21
116.000000
31
0.0
0
LINE
8
LINES
10
513.000000
20
92.000000
30
0.0
11
636.000000
21
92.000000
31
0.0
0
LINE
8
LINES
10
553.000000
20
588.000000
30
0.0
11
553.000000
21
467.000000
31
0.0
0
LINE
8
LINES
10
606.000000
20
16.000000
30
0.0
11
492.000000
21
54.000000
31
0.0
0
LINE
8
LINES
10
193.000000
20
640.000000
30
0.0
11
313.000000
21
640.000000
31
0.0
0
LINE
8
LINES
10
785.000000
20
80.000000
30
0.0
11
902.000000
21
80.000000
31
0.0
0
LINE
8
LINES
10
627.000000
20
390.000000
30
0.0
11
513.000000
21
390.000000
31
0.0
0
LINE
8
LINES
10
900.000000
20
80.000000
30
0.0
11
787.000000
21
80.000000
31
0.0
0
LINE
8
LINES
10
377.000000
20
390.000000
30
0.0
11
491.000000
21
390.000000
31
0.0
0
LINE
8
LINES
10
716.000000
20
465.000000
30
0.0
11
716.000000
21
577.000000
31
0.0
0
LINE
8
LINES
10
918.000000
20
617.000000
30
0.0
11
937.000000
21
508.000000
31
0.0
0
LINE
8
LINES
10
668.000000
20
70.000000
30
0.0
11
777.000000
21
70.000000
31
0.0
0
LINE
8
LINES
10
878.000000
20
108.000000
30
0.0
11
771.000000
21
108.000000
31
0.0
0
LINE
8
LINES
10
643.000000
20
94.000000
30
0.0
11
750.000000
21
94.000000
31
0.0
0
LINE
8
LINES
10
465.000000
20
640.000000
30
0.0
11
361.000000
21
654.000000
31
0.0
0
LINE
8
LINES
10
729.000000
20
340.000000
30
0.0
11
729.000000
21
236.000000
31
0.0
0
LINE
8
LINES
10
70.000000
20
257.000000
30
0.0
11
70.000000
21
156.000000
31
0.0
0
LINE
8
LINES
10
515.000000
20
411.000000
30
0.0
11
515.000000
21
513.000000
31
0.0
0
LINE
8
LINES
10
764.000000
20
150.000000
30
0.0
11
764.000000
21
251.000000
31
0.0
0
LINE
8
LINES
10
771.000000
20
390.000000
30
0.0
11
870.000000
21
390.000000
31
0.0
0
LINE
8
LINES
10
289.000000
20
627.000000
30
0.0
11
192.000000
21
627.000000
31
0.0
0
LINE
8
LINES
10
856.000000
20
332.000000
30
0.0
11
856.000000
21
236.000000
31
0.0
0
LINE
8
LINES
10
883.000000
20
94.000000
30
0.0
11
787.000000
21
94.000000
31
0.0
0
LINE
8
LINES
10
587.000000
20
337.000000
30
0.0
11
587.000000
21
241.000000
31
0.0
0
LINE
8
LINES
10
761.000000
20
505.000000
30
0.0
11
856.000000
21
505.000000
31
0.0
0
LINE
8
LINES
10
761.000000
20
328.000000
30
0.0
11
761.000000
21
233.000000
31
0.0
0
LINE
8
LINES
10
515.000000
20
380.000000
30
0.0
11
611.000000
21
380.000000
31
0.0
0
LINE
8
LINES
10
681.000000
20
99.000000
30
0.0
11
585.000000
21
99.000000
31
0.0
0
LINE
8
LINES
10
513.000000
20
100.000000
30
0.0
11
608.000000
21
100.000000
31
0.0
0
LINE
8
LINES
10
684.000000
20
243.000000
30
0.0
11
684.000000
21
337.000000
31
0.0
0
LINE
8
LINES
10
158.000000
20
249.000000
30
0.0
11
158.000000
21
342.000000
31
0.0
0
LINE
8
LINES
10
859.000000
20
236.000000
30
0.0
11
859.000000
21
331.000000
31
0.0
0
LINE
8
LINES
10
483.000000
20
99.000000
30
0.0
11
388.000000
21
99.000000
31
0.0
0
LINE
8
LINES
10
473.000000
20
92.000000
30
0.0
11
380.000000
21
92.000000
31
0.0
0
LINE
8
LINES
10
291.000000
20
342.000000
30
0.0
11
291.000000
21
249.000000
31
0.0
0
LINE
8
LINES
10
64.000000
20
481.000000
30
0.0
11
64.000000
21
574.000000
31
0.0
0
LINE
8
LINES
10
379.000000
20
156.000000
30
0.0
11
379.000000
21
249.000000
31
0.0
0
LINE
8
LINES
10
492.000000
20
115.000000
30
0.0
11
492.000000
21
206.000000
31
0.0
0
LINE
8
LINES
10
627.000000
20
606.000000
30
0.0
11
713.000000
21
635.000000
31
0.0
0
LINE
8
LINES
10
355.000000
20
337.000000
30
0.0
11
355.000000
21
248.000000
31
0.0
0
LINE
8
LINES
10
401.000000
20
380.000000
30
0.0
11
491.000000
21
380.000000
31
0.0
0
LINE
8
LINES
10
428.000000
20
246.000000
30
0.0
11
428.000000
21
336.000000
31
0.0
0
LINE
8
LINES
10
473.000000
20
336.000000
30
0.0
11
473.000000
21
246.000000
31
0.0
0
LINE
8
LINES
10
611.000000
20
243.000000
30
0.0
11
611.000000
21
332.000000
31
0.0
0
LINE
8
LINES
10
768.000000
20
363.000000
30
0.0
11
768.000000
21
451.000000
31
0.0
0
LINE
8
LINES
10
316.000000
20
596.000000
30
0.0
11
316.000000
21
508.000000
31
0.0
0
LINE
8
LINES
10
494.000000
20
246.000000
30
0.0
11
494.000000
21
334.000000
31
0.0
0
LINE
8
LINES
10
830.000000
20
339.000000
30
0.0
11
830.000000
21
252.000000
31
0.0
0
LINE
8
LINES
10
182.000000
20
337.000000
30
0.0
11
182.000000
21
249.000000
31
0.0
0
LINE
8
LINES
10
97.000000
20
249.000000
30
0.0
11
97.000000
21
337.000000
31
0.0
0
LINE
8
LINES
10
659.000000
20
332.000000
30
0.0
11
659.000000
21
243.000000
31
0.0
0
LINE
8
LINES
10
513.000000
20
156.000000
30
0.0
11
513.000000
21
243.000000
31
0.0
0
LINE
8
LINES
10
851.000000
20
508.000000
30
0.0
11
763.000000
21
508.000000
31
0.0
0
LINE
8
LINES
10
209.000000
20
483.000000
30
0.0
11
297.000000
21
483.000000
31
0.0
0
LINE
8
LINES
10
665.000000
20
105.000000
30
0.0
11
753.000000
21
105.000000
31
0.0
0
LINE
8
LINES
10
788.000000
20
252.000000
30
0.0
11
788.000000
21
337.000000
31
0.0
0
LINE
8
LINES
10
140.000000
20
337.000000
30
0.0
11
140.000000
21
251.000000
31
0.0
0
LINE
8
LINES
10
246.000000
20
337.000000
30
0.0
11
246.000000
21
251.000000
31
0.0
0
LINE
8
LINES
10
310.000000
20
251.000000
30
0.0
11
310.000000
21
337.000000
31
0.0
0
LINE
8
LINES
10
203.000000
20
251.000000
30
0.0
11
203.000000
21
337.000000
31
0.0
0
LINE
8
LINES
10
937.000000
20
342.000000
30
0.0
11
937.000000
21
257.000000
31
0.0
0
LINE
8
LINES
10
499.000000
20
156.000000
30
0.0
11
499.000000
21
243.000000
31
0.0
0
LINE
8
LINES
10
643.000000
20
387.000000
30
0.0
11
731.000000
21
387.000000
31
0.0
0
LINE
8
LINES
10
881.000000
20
336.000000
30
0.0
11
881.000000
21
249.000000
31
0.0
0
LINE
8
LINES
10
536.000000
20
156.000000
30
0.0
11
536.000000
21
241.000000
31
0.0
0
LINE
8
LINES
10
408.000000
20
216.000000
30
0.0
11
492.000000
21
216.000000
31
0.0
0
LINE
8
LINES
10
769.000000
20
220.000000
30
0.0
11
854.000000
21
220.000000
31
0.0
0
LINE
8
LINES
10
851.000000
20
251.000000
30
0.0
11
851.000000
21
336.000000
31
0.0
0
LINE
8
LINES
10
76.000000
20
108.000000
30
0.0
11
161.000000
21
108.000000
31
0.0
0
LINE
8
LINES
10
78.000000
20
334.000000
30
0.0
11
78.000000
21
251.000000
31
0.0
0
LINE
8
LINES
10
958.000000
20
254.000000
30
0.0
11
958.000000
21
337.000000
31
0.0
0
LINE
8
LINES
10
958.000000
20
371.000000
30
0.0
11
876.000000
21
371.000000
31
0.0
0
LINE
8
LINES
10
905.000000
20
702.000000
30
0.0
11
918.000000
21
620.000000
31
0.0
0
LINE
8
LINES
10
684.000000
20
334.000000
30
0.0
11
601.000000
21
334.000000
31
0.0
0
LINE
8
LINES
10
857.000000
20
219.000000
30
0.0
11
774.000000
21
219.000000
31
0.0
0
LINE
8
LINES
10
382.000000
20
657.000000
30
0.0
11
464.000000
21
646.000000
31
0.0
0
LINE
8
LINES
10
254.000000
20
462.000000
30
0.0
11
172.000000
21
451.000000
31
0.0
0
LINE
8
LINES
10
700.000000
20
628.000000
30
0.0
11
780.000000
21
643.000000
31
0.0
0
LINE
8
LINES
10
595.000000
20
211.000000
30
0.0
11
676.000000
21
211.000000
31
0.0
0
LINE
8
LINES
10
406.000000
20
332.000000
30
0.0
11
406.000000
21
252.000000
31
0.0
0
LINE
8
LINES
10
859.000000
20
150.000000
30
0.0
11
859.000000
21
232.000000
31
0.0
0
LINE
8
LINES
10
726.000000
20
390.000000
30
0.0
11
643.000000
21
390.000000
31
0.0
0
LINE
8
LINES
10
643.000000
20
606.000000
30
0.0
11
563.000000
21
606.000000
31
0.0
0
LINE
8
LINES
10
406.000000
20
497.000000
30
0.0
11
488.000000
21
497.000000
31
0.0
0
LINE
8
LINES
10
73.000000
20
572.000000
30
0.0
11
73.000000
21
492.000000
31
0.0
0
LINE
8
LINES
10
878.000000
20
380.000000
30
0.0
11
958.000000
21
380.000000
31
0.0
0
LINE
8
LINES
10
486.000000
20
499.000000
30
0.0
11
406.000000
21
499.000000
31
0.0
0
LINE
8
LINES
10
532.000000
20
46.000000
30
0.0
11
608.000000
21
19.000000
31
0.0
0
LINE
8
LINES
10
588.000000
20
185.000000
30
0.0
11
588.000000
21
107.000000
31
0.0
0
LINE
8
LINES
10
377.000000
20
251.000000
30
0.0
11
377.000000
21
329.000000
31
0.0
0
LINE
8
LINES
10
264.000000
20
259.000000
30
0.0
11
264.000000
21
337.000000
31
0.0
0
LINE
8
LINES
10
262.000000
20
339.000000
30
0.0
11
184.000000
21
339.000000
31
0.0
0
LINE
8
LINES
10
961.000000
20
366.000000
30
0.0
11
881.000000
21
366.000000
31
0.0
0
LINE
8
LINES
10
489.000000
20
209.000000
30
0.0
11
412.000000
21
209.000000
31
0.0
0
LINE
8
LINES
10
769.000000
20
336.000000
30
0.0
11
769.000000
21
257.000000
31
0.0
0
LINE
8
LINES
10
433.000000
20
329.000000
30
0.0
11
433.000000
21
252.000000
31
0.0
0
LINE
8
LINES
10
513.000000
20
249.000000
30
0.0
11
513.000000
21
326.000000
31
0.0
0
LINE
8
LINES
10
729.000000
20
228.000000
30
0.0
11
729.000000
21
152.000000
31
0.0
0
LINE
8
LINES
10
761.000000
20
228.000000
30
0.0
11
761.000000
21
152.000000
31
0.0
0
LINE
8
LINES
10
713.000000
20
62.000000
30
0.0
11
641.000000
21
35.000000
31
0.0
0
LINE
8
LINES
10
956.000000
20
384.000000
30
0.0
11
881.000000
21
384.000000
31
0.0
0
LINE
8
LINES
10
712.000000
20
33.000000
30
0.0
11
641.000000
21
6.000000
31
0.0
0
LINE
8
LINES
10
264.000000
20
118.000000
30
0.0
11
264.000000
21
193.000000
31
0.0
0
LINE
8
LINES
10
276.000000
20
518.000000
30
0.0
11
276.000000
21
593.000000
31
0.0
0
LINE
8
LINES
10
70.000000
20
342.000000
30
0.0
11
70.000000
21
268.000000
31
0.0
0
LINE
8
LINES
10
676.000000
20
481.000000
30
0.0
11
676.000000
21
556.000000
31
0.0
0
LINE
8
LINES
10
713.000000
20
641.000000
30
0.0
11
787.000000
21
649.000000
31
0.0
0
LINE
8
LINES
10
782.000000
20
60.000000
30
0.0
11
715.000000
21
32.000000
31
0.0
0
LINE
8
LINES
10
78.000000
20
494.000000
30
0.0
11
153.000000
21
494.000000
31
0.0
0
LINE
8
LINES
10
764.000000
20
257.000000
30
0.0
11
764.000000
21
331.000000
31
0.0
0
LINE
8
LINES
10
673.000000
20
206.000000
30
0.0
11
601.000000
21
206.000000
31
0.0
0
LINE
8
LINES
10
588.000000
20
153.000000
30
0.0
11
513.000000
21
153.000000
31
0.0
0
LINE
8
LINES
10
513.000000
20
152.000000
30
0.0
11
588.000000
21
152.000000
31
0.0
0
LINE
8
LINES
10
700.000000
20
65.000000
30
0.0
11
633.000000
21
38.000000
31
0.0
0
LINE
8
LINES
10
185.000000
20
220.000000
30
0.0
11
257.000000
21
220.000000
31
0.0
0
LINE
8
LINES
10
297.000000
20
219.000000
30
0.0
11
369.000000
21
219.000000
31
0.0
0
LINE
8
LINES
10
779.000000
20
214.000000
30
0.0
11
851.000000
21
214.000000
31
0.0
0
LINE
8
LINES
10
659.000000
20
184.000000
30
0.0
11
659.000000
21
113.000000
31
0.0
0
LINE
8
LINES
10
360.000000
20
508.000000
30
0.0
11
360.000000
21
579.000000
31
0.0
0
LINE
8
LINES
10
633.000000
20
38.000000
30
0.0
11
568.000000
21
60.000000
31
0.0
0
LINE
8
LINES
10
667.000000
20
387.000000
30
0.0
11
726.000000
21
425.000000
31
0.0
0
LINE
8
LINES
10
609.000000
20
113.000000
30
0.0
11
609.000000
21
182.000000
31
0.0
0
LINE
8
LINES
10
851.000000
20
579.000000
30
0.0
11
851.000000
21
508.000000
31
0.0
0
LINE
8
LINES
10
368.000000
20
214.000000
30
0.0
11
297.000000
21
214.000000
31
0.0
0
LINE
8
LINES
10
81.000000
20
220.000000
30
0.0
11
152.000000
21
220.000000
31
0.0
0
LINE
8
LINES
10
787.000000
20
121.000000
30
0.0
11
787.000000
21
192.000000
31
0.0
0
LINE
8
LINES
10
830.000000
20
193.000000
30
0.0
11
830.000000
21
123.000000
31
0.0
0
LINE
8
LINES
10
937.000000
20
198.000000
30
0.0
11
937.000000
21
129.000000
31
0.0
0
LINE
8
LINES
10
368.000000
20
510.000000
30
0.0
11
368.000000
21
580.000000
31
0.0
0
LINE
8
LINES
10
208.000000
20
332.000000
30
0.0
11
208.000000
21
262.000000
31
0.0
0
LINE
8
LINES
10
97.000000
20
124.000000
30
0.0
11
97.000000
21
193.000000
31
0.0
0
LINE
8
LINES
10
622.000000
20
390.000000
30
0.0
11
558.000000
21
416.000000
31
0.0
0
LINE
8
LINES
10
897.000000
20
265.000000
30
0.0
11
897.000000
21
334.000000
31
0.0
0
LINE
8
LINES
10
244.000000
20
190.000000
30
0.0
11
244.000000
21
121.000000
31
0.0
0
LINE
8
LINES
10
851.000000
20
121.000000
30
0.0
11
851.000000
21
188.000000
31
0.0
0
LINE
8
LINES
10
369.000000
20
113.000000
30
0.0
11
369.000000
21
182.000000
31
0.0
0
LINE
8
LINES
10
846.000000
20
340.000000
30
0.0
11
777.000000
21
340.000000
31
0.0
0
LINE
8
LINES
10
65.000000
20
340.000000
30
0.0
11
65.000000
21
272.000000
31
0.0
0
LINE
8
LINES
10
416.000000
20
64.000000
30
0.0
11
483.000000
21
64.000000
31
0.0
0
LINE
8
LINES
10
945.000000
20
462.000000
30
0.0
11
878.000000
21
462.000000
31
0.0
0
LINE
8
LINES
10
726.000000
20
110.000000
30
0.0
11
657.000000
21
110.000000
31
0.0
0
LINE
8
LINES
10
88.000000
20
660.000000
30
0.0
11
88.000000
21
593.000000
31
0.0
0
LINE
8
LINES
10
150.000000
20
217.000000
30
0.0
11
83.000000
21
217.000000
31
0.0
0
LINE
8
LINES
10
257.000000
20
214.000000
30
0.0
11
188.000000
21
214.000000
31
0.0
0
LINE
8
LINES
10
328.000000
20
528.000000
30
0.0
11
328.000000
21
595.000000
31
0.0
0
LINE
8
LINES
10
780.000000
20
644.000000
30
0.0
11
713.000000
21
638.000000
31
0.0
0
LINE
8
LINES
10
88.000000
20
593.000000
30
0.0
11
88.000000
21
660.000000
31
0.0
0
LINE
8
LINES
10
704.000000
20
518.000000
30
0.0
11
704.000000
21
585.000000
31
0.0
0
LINE
8
LINES
10
59.000000
20
220.000000
30
0.0
11
14.000000
21
268.000000
31
0.0
0
LINE
8
LINES
10
896.000000
20
361.000000
30
0.0
11
961.000000
21
361.000000
31
0.0
0
LINE
8
LINES
10
859.000000
20
412.000000
30
0.0
11
859.000000
21
478.000000
31
0.0
0
LINE
8
LINES
10
486.000000
20
60.000000
30
0.0
11
419.000000
21
60.000000
31
0.0
0
LINE
8
LINES
10
78.000000
20
481.000000
30
0.0
11
145.000000
21
481.000000
31
0.0
0
LINE
8
LINES
10
750.000000
20
99.000000
30
0.0
11
684.000000
21
99.000000
31
0.0
0
LINE
8
LINES
10
686.000000
20
148.000000
30
0.0
11
752.000000
21
148.000000
31
0.0
0
LINE
8
LINES
10
886.000000
20
225.000000
30
0.0
11
952.000000
21
225.000000
31
0.0
0
LINE
8
LINES
10
851.000000
20
393.000000
30
0.0
11
785.000000
21
393.000000
31
0.0
0
LINE
8
LINES
10
640.000000
20
30.000000
30
0.0
11
577.000000
21
49.000000
31
0.0
0
LINE
8
LINES
10
507.000000
20
636.000000
30
0.0
11
569.000000
21
614.000000
31
0.0
0
LINE
8
LINES
10
566.000000
20
419.000000
30
0.0
11
627.000000
21
398.000000
31
0.0
0
LINE
8
LINES
10
766.000000
20
211.000000
30
0.0
11
766.000000
21
147.000000
31
0.0
0
LINE
8
LINES
10
428.000000
20
571.000000
30
0.0
11
428.000000
21
507.000000
31
0.0
0
LINE
8
LINES
10
475.000000
20
508.000000
30
0.0
11
475.000000
21
572.000000
31
0.0
0
LINE
8
LINES
10
539.000000
20
435.000000
30
0.0
11
588.000000
21
393.000000
31
0.0
0
LINE
8
LINES
10
577.000000
20
609.000000
30
0.0
11
641.000000
21
609.000000
31
0.0
0
LINE
8
LINES
10
144.000000
20
484.000000
30
0.0
11
81.000000
21
484.000000
31
0.0
0
LINE
8
LINES
10
60.000000
20
123.000000
30
0.0
11
22.000000
21
73.000000
31
0.0
0
LINE
8
LINES
10
81.000000
20
576.000000
30
0.0
11
81.000000
21
513.000000
31
0.0
0
LINE
8
LINES
10
856.000000
20
502.000000
30
0.0
11
856.000000
21
566.000000
31
0.0
0
LINE
8
LINES
10
310.000000
20
388.000000
30
0.0
11
372.000000
21
388.000000
31
0.0
0
LINE
8
LINES
10
902.000000
20
350.000000
30
0.0
11
963.000000
21
350.000000
31
0.0
0
LINE
8
LINES
10
950.000000
20
222.000000
30
0.0
11
889.000000
21
222.000000
31
0.0
0
LINE
8
LINES
10
643.000000
20
398.000000
30
0.0
11
700.000000
21
417.000000
31
0.0
0
LINE
8
LINES
10
139.000000
20
627.000000
30
0.0
11
139.000000
21
568.000000
31
0.0
0
LINE
8
LINES
10
153.000000
20
452.000000
30
0.0
11
92.000000
21
452.000000
31
0.0
0
LINE
8
LINES
10
856.000000
20
211.000000
30
0.0
11
856.000000
21
150.000000
31
0.0
0
LINE
8
LINES
10
352.000000
20
62.000000
30
0.0
11
412.000000
21
62.000000
31
0.0
0
LINE
8
LINES
10
307.000000
20
500.000000
30
0.0
11
366.000000
21
500.000000
31
0.0
0
LINE
8
LINES
10
334.000000
20
652.000000
30
0.0
11
275.000000
21
636.000000
31
0.0
0
LINE
8
LINES
10
729.000000
20
233.000000
30
0.0
11
670.000000
21
233.000000
31
0.0
0
LINE
8
LINES
10
670.000000
20
235.000000
30
0.0
11
729.000000
21
235.000000
31
0.0
0
LINE
8
LINES
10
355.000000
20
456.000000
30
0.0
11
355.000000
21
396.000000
31
0.0
0
LINE
8
LINES
10
430.000000
20
396.000000
30
0.0
11
430.000000
21
456.000000
31
0.0
0
LINE
8
LINES
10
473.000000
20
456.000000
30
0.0
11
473.000000
21
396.000000
31
0.0
0
LINE
8
LINES
10
769.000000
20
452.000000
30
0.0
11
769.000000
21
393.000000
31
0.0
0
LINE
8
LINES
10
62.000000
20
214.000000
30
0.0
11
62.000000
21
156.000000
31
0.0
0
LINE
8
LINES
10
92.000000
20
454.000000
30
0.0
11
152.000000
21
454.000000
31
0.0
0
LINE
8
LINES
10
366.000000
20
460.000000
30
0.0
11
307.000000
21
460.000000
31
0.0
0
LINE
8
LINES
10
976.000000
20
86.000000
30
0.0
11
916.000000
21
86.000000
31
0.0
0
LINE
8
LINES
10
305.000000
20
457.000000
30
0.0
11
364.000000
21
457.000000
31
0.0
0
LINE
8
LINES
10
643.000000
20
393.000000
30
0.0
11
699.000000
21
411.000000
31
0.0
0
LINE
8
LINES
10
267.000000
20
393.000000
30
0.0
11
267.000000
21
451.000000
31
0.0
0
LINE
8
LINES
10
312.000000
20
396.000000
30
0.0
11
312.000000
21
454.000000
31
0.0
0
LINE
8
LINES
10
204.000000
20
396.000000
30
0.0
11
204.000000
21
452.000000
31
0.0
0
LINE
8
LINES
10
828.000000
20
456.000000
30
0.0
11
828.000000
21
398.000000
31
0.0
0
LINE
8
LINES
10
142.000000
20
451.000000
30
0.0
11
142.000000
21
393.000000
31
0.0
0
LINE
8
LINES
10
248.000000
20
452.000000
30
0.0
11
248.000000
21
396.000000
31
0.0
0
LINE
8
LINES
10
1.000000
20
150.000000
30
0.0
11
57.000000
21
150.000000
31
0.0
0
LINE
8
LINES
10
57.000000
20
153.000000
30
0.0
11
1.000000
21
153.000000
31
0.0
0
LINE
8
LINES
10
788.000000
20
398.000000
30
0.0
11
788.000000
21
456.000000
31
0.0
0
LINE
8
LINES
10
947.000000
20
345.000000
30
0.0
11
889.000000
21
345.000000
31
0.0
0
LINE
8
LINES
10
201.000000
20
505.000000
30
0.0
11
257.000000
21
505.000000
31
0.0
0
LINE
8
LINES
10
537.000000
20
515.000000
30
0.0
11
537.000000
21
572.000000
31
0.0
0
LINE
8
LINES
10
20.000000
20
265.000000
30
0.0
11
59.000000
21
224.000000
31
0.0
0
LINE
8
LINES
10
148.000000
20
478.000000
30
0.0
11
206.000000
21
478.000000
31
0.0
0
LINE
8
LINES
10
62.000000
20
401.000000
30
0.0
11
62.000000
21
457.000000
31
0.0
0
LINE
8
LINES
10
161.000000
20
393.000000
30
0.0
11
161.000000
21
449.000000
31
0.0
0
LINE
8
LINES
10
185.000000
20
449.000000
30
0.0
11
185.000000
21
393.000000
31
0.0
0
LINE
8
LINES
10
936.000000
20
456.000000
30
0.0
11
936.000000
21
398.000000
31
0.0
0
LINE
8
LINES
10
249.000000
20
518.000000
30
0.0
11
249.000000
21
576.000000
31
0.0
0
LINE
8
LINES
10
100.000000
20
393.000000
30
0.0
11
100.000000
21
451.000000
31
0.0
0
LINE
8
LINES
10
252.000000
20
390.000000
30
0.0
11
308.000000
21
390.000000
31
0.0
0
LINE
8
LINES
10
691.000000
20
630.000000
30
0.0
11
638.000000
21
614.000000
31
0.0
0
LINE
8
LINES
10
211.000000
20
574.000000
30
0.0
11
211.000000
21
518.000000
31
0.0
0
LINE
8
LINES
10
81.000000
20
448.000000
30
0.0
11
81.000000
21
393.000000
31
0.0
0
LINE
8
LINES
10
291.000000
20
451.000000
30
0.0
11
291.000000
21
396.000000
31
0.0
0
LINE
8
LINES
10
894.000000
20
142.000000
30
0.0
11
894.000000
21
198.000000
31
0.0
0
LINE
8
LINES
10
83.000000
20
516.000000
30
0.0
11
83.000000
21
572.000000
31
0.0
0
LINE
8
LINES
10
206.000000
20
494.000000
30
0.0
11
150.000000
21
494.000000
31
0.0
0
LINE
8
LINES
10
147.000000
20
518.000000
30
0.0
11
147.000000
21
572.000000
31
0.0
0
LINE
8
LINES
10
108.000000
20
572.000000
30
0.0
11
108.000000
21
516.000000
31
0.0
0
LINE
8
LINES
10
494.000000
20
396.000000
30
0.0
11
494.000000
21
451.000000
31
0.0
0
LINE
8
LINES
10
377.000000
20
396.000000
30
0.0
11
377.000000
21
451.000000
31
0.0
0
LINE
8
LINES
10
377.000000
20
456.000000
30
0.0
11
323.000000
21
456.000000
31
0.0
0
LINE
8
LINES
10
880.000000
20
198.000000
30
0.0
11
880.000000
21
144.000000
31
0.0
0
LINE
8
LINES
10
907.000000
20
89.000000
30
0.0
11
961.000000
21
89.000000
31
0.0
0
LINE
8
LINES
10
547.000000
20
678.000000
30
0.0
11
492.000000
21
678.000000
31
0.0
0
LINE
8
LINES
10
492.000000
20
680.000000
30
0.0
11
547.000000
21
680.000000
31
0.0
0
LINE
8
LINES
10
851.000000
20
398.000000
30
0.0
11
851.000000
21
451.000000
31
0.0
0
LINE
8
LINES
10
539.000000
20
243.000000
30
0.0
11
593.000000
21
243.000000
31
0.0
0
LINE
8
LINES
10
307.000000
20
345.000000
30
0.0
11
361.000000
21
345.000000
31
0.0
0
LINE
8
LINES
10
219.000000
20
576.000000
30
0.0
11
219.000000
21
521.000000
31
0.0
0
LINE
8
LINES
10
822.000000
20
105.000000
30
0.0
11
876.000000
21
105.000000
31
0.0
0
LINE
8
LINES
10
24.000000
20
174.000000
30
0.0
11
44.000000
21
224.000000
31
0.0
0
LINE
8
LINES
10
313.000000
20
638.000000
30
0.0
11
355.000000
21
670.000000
31
0.0
0
LINE
8
LINES
10
571.000000
20
617.000000
30
0.0
11
622.000000
21
617.000000
31
0.0
0
LINE
8
LINES
10
17.000000
20
268.000000
30
0.0
11
68.000000
21
268.000000
31
0.0
0
LINE
8
LINES
10
587.000000
20
107.000000
30
0.0
11
534.000000
21
107.000000
31
0.0
0
LINE
8
LINES
10
582.000000
20
97.000000
30
0.0
11
529.000000
21
97.000000
31
0.0
0
LINE
8
LINES
10
425.000000
20
502.000000
30
0.0
11
478.000000
21
502.000000
31
0.0
0
LINE
8
LINES
10
478.000000
20
505.000000
30
0.0
11
425.000000
21
505.000000
31
0.0
0
LINE
8
LINES
10
958.000000
20
147.000000
30
0.0
11
958.000000
21
198.000000
31
0.0
0
LINE
8
LINES
10
59.000000
20
312.000000
30
0.0
11
24.000000
21
275.000000
31
0.0
0
LINE
8
LINES
10
660.000000
20
108.000000
30
0.0
11
609.000000
21
108.000000
31
0.0
0
LINE
8
LINES
10
307.000000
20
113.000000
30
0.0
11
358.000000
21
113.000000
31
0.0
0
LINE
8
LINES
10
249.000000
20
456.000000
30
0.0
11
198.000000
21
456.000000
31
0.0
0
LINE
8
LINES
10
118.000000
20
283.000000
30
0.0
11
118.000000
21
334.000000
31
0.0
0
LINE
8
LINES
10
878.000000
20
462.000000
30
0.0
11
878.000000
21
411.000000
31
0.0
0
LINE
8
LINES
10
979.000000
20
201.000000
30
0.0
11
979.000000
21
148.000000
31
0.0
0
LINE
8
LINES
10
512.000000
20
652.000000
30
0.0
11
561.000000
21
652.000000
31
0.0
0
LINE
8
LINES
10
227.000000
20
332.000000
30
0.0
11
227.000000
21
283.000000
31
0.0
0
LINE
8
LINES
10
886.000000
20
121.000000
30
0.0
11
937.000000
21
121.000000
31
0.0
0
LINE
8
LINES
10
915.000000
20
339.000000
30
0.0
11
915.000000
21
289.000000
31
0.0
0
LINE
8
LINES
10
222.000000
20
281.000000
30
0.0
11
222.000000
21
332.000000
31
0.0
0
LINE
8
LINES
10
467.000000
20
278.000000
30
0.0
11
467.000000
21
329.000000
31
0.0
0
LINE
8
LINES
10
385.000000
20
609.000000
30
0.0
11
435.000000
21
609.000000
31
0.0
0
LINE
8
LINES
10
350.000000
20
281.000000
30
0.0
11
350.000000
21
331.000000
31
0.0
0
LINE
8
LINES
10
198.000000
20
115.000000
30
0.0
11
249.000000
21
115.000000
31
0.0
0
LINE
8
LINES
10
771.000000
20
104.000000
30
0.0
11
820.000000
21
104.000000
31
0.0
0
LINE
8
LINES
10
579.000000
20
406.000000
30
0.0
11
627.000000
21
395.000000
31
0.0
0
LINE
8
LINES
10
105.000000
20
332.000000
30
0.0
11
105.000000
21
284.000000
31
0.0
0
LINE
8
LINES
10
561.000000
20
476.000000
30
0.0
11
561.000000
21
524.000000
31
0.0
0
LINE
8
LINES
10
910.000000
20
289.000000
30
0.0
11
910.000000
21
337.000000
31
0.0
0
LINE
8
LINES
10
804.000000
20
286.000000
30
0.0
11
804.000000
21
334.000000
31
0.0
0
LINE
8
LINES
10
377.000000
20
569.000000
30
0.0
11
427.000000
21
569.000000
31
0.0
0
LINE
8
LINES
10
790.000000
20
60.000000
30
0.0
11
838.000000
21
60.000000
31
0.0
0
LINE
8
LINES
10
96.000000
20
118.000000
30
0.0
11
144.000000
21
118.000000
31
0.0
0
LINE
8
LINES
10
622.000000
20
561.000000
30
0.0
11
670.000000
21
561.000000
31
0.0
0
LINE
8
LINES
10
124.000000
20
332.000000
30
0.0
11
124.000000
21
284.000000
31
0.0
0
LINE
8
LINES
10
336.000000
20
332.000000
30
0.0
11
336.000000
21
283.000000
31
0.0
0
LINE
8
LINES
10
452.000000
20
329.000000
30
0.0
11
452.000000
21
281.000000
31
0.0
0
LINE
8
LINES
10
824.000000
20
286.000000
30
0.0
11
824.000000
21
336.000000
31
0.0
0
LINE
8
LINES
10
332.000000
20
283.000000
30
0.0
11
332.000000
21
332.000000
31
0.0
0
LINE
8
LINES
10
646.000000
20
641.000000
30
0.0
11
694.000000
21
641.000000
31
0.0
0
LINE
8
LINES
10
201.000000
20
387.000000
30
0.0
11
249.000000
21
387.000000
31
0.0
0
LINE
8
LINES
10
889.000000
20
390.000000
30
0.0
11
937.000000
21
390.000000
31
0.0
0
LINE
8
LINES
10
352.000000
20
339.000000
30
0.0
11
304.000000
21
339.000000
31
0.0
0
LINE
8
LINES
10
838.000000
20
65.000000
30
0.0
11
792.000000
21
65.000000
31
0.0
0
LINE
8
LINES
10
633.000000
20
281.000000
30
0.0
11
633.000000
21
328.000000
31
0.0
0
LINE
8
LINES
10
496.000000
20
150.000000
30
0.0
11
496.000000
21
102.000000
31
0.0
0
LINE
8
LINES
10
355.000000
20
395.000000
30
0.0
11
403.000000
21
395.000000
31
0.0
0
LINE
8
LINES
10
929.000000
20
291.000000
30
0.0
11
929.000000
21
337.000000
31
0.0
0
LINE
8
LINES
10
241.000000
20
284.000000
30
0.0
11
241.000000
21
332.000000
31
0.0
0
LINE
8
LINES
10
609.000000
20
236.000000
30
0.0
11
657.000000
21
236.000000
31
0.0
0
LINE
8
LINES
10
70.000000
20
150.000000
30
0.0
11
70.000000
21
102.000000
31
0.0
0
LINE
8
LINES
10
73.000000
20
267.000000
30
0.0
11
73.000000
21
313.000000
31
0.0
0
LINE
8
LINES
10
427.000000
20
240.000000
30
0.0
11
473.000000
21
240.000000
31
0.0
0
LINE
8
LINES
10
211.000000
20
521.000000
30
0.0
11
211.000000
21
569.000000
31
0.0
0
LINE
8
LINES
10
321.000000
20
592.000000
30
0.0
11
321.000000
21
544.000000
31
0.0
0
LINE
8
LINES
10
720.000000
20
428.000000
30
0.0
11
683.000000
21
400.000000
31
0.0
0
LINE
8
LINES
10
787.000000
20
243.000000
30
0.0
11
833.000000
21
243.000000
31
0.0
0
LINE
8
LINES
10
612.000000
20
331.000000
30
0.0
11
659.000000
21
331.000000
31
0.0
0
LINE
8
LINES
10
313.000000
20
507.000000
30
0.0
11
361.000000
21
507.000000
31
0.0
0
LINE
8
LINES
10
448.000000
20
283.000000
30
0.0
11
448.000000
21
329.000000
31
0.0
0
LINE
8
LINES
10
924.000000
20
558.000000
30
0.0
11
924.000000
21
512.000000
31
0.0
0
LINE
8
LINES
10
97.000000
20
385.000000
30
0.0
11
144.000000
21
385.000000
31
0.0
0
LINE
8
LINES
10
273.000000
20
566.000000
30
0.0
11
273.000000
21
521.000000
31
0.0
0
LINE
8
LINES
10
732.000000
20
452.000000
30
0.0
11
732.000000
21
406.000000
31
0.0
0
LINE
8
LINES
10
257.000000
20
633.000000
30
0.0
11
304.000000
21
633.000000
31
0.0
0
LINE
8
LINES
10
257.000000
20
462.000000
30
0.0
11
304.000000
21
462.000000
31
0.0
0
LINE
8
LINES
10
25.000000
20
273.000000
30
0.0
11
59.000000
21
302.000000
31
0.0
0
LINE
8
LINES
10
745.000000
20
537.000000
30
0.0
11
745.000000
21
582.000000
31
0.0
0
LINE
8
LINES
10
478.000000
20
468.000000
30
0.0
11
433.000000
21
468.000000
31
0.0
0
LINE
8
LINES
10
641.000000
20
6.000000
30
0.0
11
598.000000
21
19.000000
31
0.0
0
LINE
8
LINES
10
92.000000
20
633.000000
30
0.0
11
92.000000
21
588.000000
31
0.0
0
LINE
8
LINES
10
833.000000
20
248.000000
30
0.0
11
787.000000
21
248.000000
31
0.0
0
LINE
8
LINES
10
473.000000
20
243.000000
30
0.0
11
428.000000
21
243.000000
31
0.0
0
LINE
8
LINES
10
355.000000
20
246.000000
30
0.0
11
310.000000
21
246.000000
31
0.0
0
LINE
8
LINES
10
428.000000
20
508.000000
30
0.0
11
473.000000
21
508.000000
31
0.0
0
LINE
8
LINES
10
473.000000
20
393.000000
30
0.0
11
428.000000
21
393.000000
31
0.0
0
LINE
8
LINES
10
611.000000
20
112.000000
30
0.0
11
656.000000
21
112.000000
31
0.0
0
LINE
8
LINES
10
310.000000
20
243.000000
30
0.0
11
355.000000
21
243.000000
31
0.0
0
LINE
8
LINES
10
201.000000
20
243.000000
30
0.0
11
246.000000
21
243.000000
31
0.0
0
LINE
8
LINES
10
833.000000
20
115.000000
30
0.0
11
878.000000
21
115.000000
31
0.0
0
LINE
8
LINES
10
353.000000
20
115.000000
30
0.0
11
308.000000
21
115.000000
31
0.0
0
LINE
8
LINES
10
208.000000
20
195.000000
30
0.0
11
252.000000
21
195.000000
31
0.0
0
LINE
8
LINES
10
147.000000
20
457.000000
30
0.0
11
102.000000
21
457.000000
31
0.0
0
LINE
8
LINES
10
473.000000
20
222.000000
30
0.0
11
428.000000
21
222.000000
31
0.0
0
LINE
8
LINES
10
420.000000
20
670.000000
30
0.0
11
376.000000
21
670.000000
31
0.0
0
LINE
8
LINES
10
582.000000
20
243.000000
30
0.0
11
539.000000
21
243.000000
31
0.0
0
LINE
8
LINES
10
97.000000
20
649.000000
30
0.0
11
97.000000
21
606.000000
31
0.0
0
LINE
8
LINES
10
262.000000
20
566.000000
30
0.0
11
262.000000
21
521.000000
31
0.0
0
LINE
8
LINES
10
937.000000
20
252.000000
30
0.0
11
894.000000
21
252.000000
31
0.0
0
LINE
8
LINES
10
473.000000
20
569.000000
30
0.0
11
430.000000
21
569.000000
31
0.0
0
LINE
8
LINES
10
246.000000
20
246.000000
30
0.0
11
201.000000
21
246.000000
31
0.0
0
LINE
8
LINES
10
140.000000
20
246.000000
30
0.0
11
97.000000
21
246.000000
31
0.0
0
LINE
8
LINES
10
472.000000
20
113.000000
30
0.0
11
428.000000
21
113.000000
31
0.0
0
LINE
8
LINES
10
657.000000
20
246.000000
30
0.0
11
614.000000
21
246.000000
31
0.0
0
LINE
8
LINES
10
246.000000
20
118.000000
30
0.0
11
201.000000
21
118.000000
31
0.0
0
LINE
8
LINES
10
248.000000
20
390.000000
30
0.0
11
204.000000
21
390.000000
31
0.0
0
LINE
8
LINES
10
537.000000
20
256.000000
30
0.0
11
537.000000
21
299.000000
31
0.0
0
LINE
8
LINES
10
318.000000
20
548.000000
30
0.0
11
318.000000
21
593.000000
31
0.0
0
LINE
8
LINES
10
812.000000
20
200.000000
30
0.0
11
772.000000
21
216.000000
31
0.0
0
LINE
8
LINES
10
766.000000
20
145.000000
30
0.0
11
766.000000
21
102.000000
31
0.0
0
LINE
8
LINES
10
193.000000
20
627.000000
30
0.0
11
193.000000
21
584.000000
31
0.0
0
LINE
8
LINES
10
561.000000
20
606.000000
30
0.0
11
603.000000
21
603.000000
31
0.0
0
LINE
8
LINES
10
830.000000
20
227.000000
30
0.0
11
787.000000
21
227.000000
31
0.0
0
LINE
8
LINES
10
763.000000
20
102.000000
30
0.0
11
763.000000
21
145.000000
31
0.0
0
LINE
8
LINES
10
473.000000
20
523.000000
30
0.0
11
430.000000
21
523.000000
31
0.0
0
LINE
8
LINES
10
937.000000
20
395.000000
30
0.0
11
894.000000
21
395.000000
31
0.0
0
LINE
8
LINES
10
657.000000
20
185.000000
30
0.0
11
614.000000
21
185.000000
31
0.0
0
LINE
8
LINES
10
936.000000
20
126.000000
30
0.0
11
892.000000
21
126.000000
31
0.0
0
LINE
8
LINES
10
140.000000
20
120.000000
30
0.0
11
97.000000
21
120.000000
31
0.0
0
LINE
8
LINES
10
828.000000
20
118.000000
30
0.0
11
787.000000
21
118.000000
31
0.0
0
LINE
8
LINES
10
142.000000
20
388.000000
30
0.0
11
100.000000
21
388.000000
31
0.0
0
LINE
8
LINES
10
316.000000
20
612.000000
30
0.0
11
358.000000
21
612.000000
31
0.0
0
LINE
8
LINES
10
851.000000
20
216.000000
30
0.0
11
812.000000
21
200.000000
31
0.0
0
LINE
8
LINES
10
121.000000
20
340.000000
30
0.0
11
80.000000
21
340.000000
31
0.0
0
LINE
8
LINES
10
729.000000
20
561.000000
30
0.0
11
729.000000
21
518.000000
31
0.0
0
LINE
8
LINES
10
788.000000
20
339.000000
30
0.0
11
830.000000
21
339.000000
31
0.0
0
LINE
8
LINES
10
728.000000
20
150.000000
30
0.0
11
686.000000
21
150.000000
31
0.0
0
LINE
8
LINES
10
96.000000
20
518.000000
30
0.0
11
96.000000
21
561.000000
31
0.0
0
LINE
8
LINES
10
833.000000
20
214.000000
30
0.0
11
793.000000
21
214.000000
31
0.0
0
LINE
8
LINES
10
492.000000
20
456.000000
30
0.0
11
492.000000
21
497.000000
31
0.0
0
LINE
8
LINES
10
97.000000
20
244.000000
30
0.0
11
137.000000
21
244.000000
31
0.0
0
LINE
8
LINES
10
105.000000
20
196.000000
30
0.0
11
147.000000
21
196.000000
31
0.0
0
LINE
8
LINES
10
304.000000
20
499.000000
30
0.0
11
262.000000
21
499.000000
31
0.0
0
LINE
8
LINES
10
654.000000
20
281.000000
30
0.0
11
654.000000
21
323.000000
31
0.0
0
LINE
8
LINES
10
657.000000
20
220.000000
30
0.0
11
616.000000
21
220.000000
31
0.0
0
LINE
8
LINES
10
353.000000
20
393.000000
30
0.0
11
312.000000
21
393.000000
31
0.0
0
LINE
8
LINES
10
65.000000
20
257.000000
30
0.0
11
65.000000
21
216.000000
31
0.0
0
LINE
8
LINES
10
188.000000
20
326.000000
30
0.0
11
188.000000
21
286.000000
31
0.0
0
LINE
8
LINES
10
22.000000
20
392.000000
30
0.0
11
60.000000
21
406.000000
31
0.0
0
LINE
8
LINES
10
832.000000
20
467.000000
30
0.0
11
792.000000
21
467.000000
31
0.0
0
LINE
8
LINES
10
158.000000
20
153.000000
30
0.0
11
158.000000
21
193.000000
31
0.0
0
LINE
8
LINES
10
406.000000
20
152.000000
30
0.0
11
406.000000
21
112.000000
31
0.0
0
LINE
8
LINES
10
313.000000
20
190.000000
30
0.0
11
353.000000
21
190.000000
31
0.0
0
LINE
8
LINES
10
787.000000
20
531.000000
30
0.0
11
827.000000
21
531.000000
31
0.0
0
LINE
8
LINES
10
59.000000
20
268.000000
30
0.0
11
19.000000
21
268.000000
31
0.0
0
LINE
8
LINES
10
163.000000
20
566.000000
30
0.0
11
163.000000
21
526.000000
31
0.0
0
LINE
8
LINES
10
451.000000
20
193.000000
30
0.0
11
414.000000
21
209.000000
31
0.0
0
LINE
8
LINES
10
428.000000
20
617.000000
30
0.0
11
388.000000
21
620.000000
31
0.0
0
LINE
8
LINES
10
456.000000
20
60.000000
30
0.0
11
494.000000
21
60.000000
31
0.0
0
LINE
8
LINES
10
684.000000
20
108.000000
30
0.0
11
684.000000
21
147.000000
31
0.0
0
LINE
8
LINES
10
139.000000
20
193.000000
30
0.0
11
139.000000
21
153.000000
31
0.0
0
LINE
8
LINES
10
313.000000
20
249.000000
30
0.0
11
352.000000
21
249.000000
31
0.0
0
LINE
8
LINES
10
788.000000
20
454.000000
30
0.0
11
828.000000
21
454.000000
31
0.0
0
LINE
8
LINES
10
313.000000
20
396.000000
30
0.0
11
353.000000
21
396.000000
31
0.0
0
LINE
8
LINES
10
828.000000
20
147.000000
30
0.0
11
788.000000
21
147.000000
31
0.0
0
LINE
8
LINES
10
432.000000
20
246.000000
30
0.0
11
470.000000
21
246.000000
31
0.0
0
LINE
8
LINES
10
897.000000
20
342.000000
30
0.0
11
936.000000
21
342.000000
31
0.0
0
LINE
8
LINES
10
206.000000
20
337.000000
30
0.0
11
243.000000
21
337.000000
31
0.0
0
LINE
8
LINES
10
428.000000
20
115.000000
30
0.0
11
467.000000
21
115.000000
31
0.0
0
LINE
8
LINES
10
313.000000
20
120.000000
30
0.0
11
352.000000
21
120.000000
31
0.0
0
LINE
8
LINES
10
483.000000
20
337.000000
30
0.0
11
444.000000
21
337.000000
31
0.0
0
LINE
8
LINES
10
614.000000
20
139.000000
30
0.0
11
652.000000
21
139.000000
31
0.0
0
LINE
8
LINES
10
73.000000
20
227.000000
30
0.0
11
73.000000
21
265.000000
31
0.0
0
LINE
8
LINES
10
302.000000
20
603.000000
30
0.0
11
342.000000
21
603.000000
31
0.0
0
LINE
8
LINES
10
337.000000
20
672.000000
30
0.0
11
299.000000
21
672.000000
31
0.0
0
LINE
8
LINES
10
44.000000
20
526.000000
30
0.0
11
44.000000
21
563.000000
31
0.0
0
LINE
8
LINES
10
486.000000
20
209.000000
30
0.0
11
451.000000
21
193.000000
31
0.0
0
LINE
8
LINES
10
499.000000
20
332.000000
30
0.0
11
537.000000
21
332.000000
31
0.0
0
LINE
8
LINES
10
387.000000
20
640.000000
30
0.0
11
424.000000
21
636.000000
31
0.0
0
LINE
8
LINES
10
899.000000
20
504.000000
30
0.0
11
937.000000
21
504.000000
31
0.0
0
LINE
8
LINES
10
472.000000
20
152.000000
30
0.0
11
472.000000
21
113.000000
31
0.0
0
LINE
8
LINES
10
179.000000
20
193.000000
30
0.0
11
179.000000
21
156.000000
31
0.0
0
LINE
8
LINES
10
195.000000
20
529.000000
30
0.0
11
195.000000
21
566.000000
31
0.0
0
LINE
8
LINES
10
809.000000
20
188.000000
30
0.0
11
809.000000
21
150.000000
31
0.0
0
LINE
8
LINES
10
790.000000
20
252.000000
30
0.0
11
828.000000
21
252.000000
31
0.0
0
LINE
8
LINES
10
318.000000
20
526.000000
30
0.0
11
356.000000
21
526.000000
31
0.0
0
LINE
8
LINES
10
262.000000
20
641.000000
30
0.0
11
224.000000
21
641.000000
31
0.0
0
LINE
8
LINES
10
204.000000
20
121.000000
30
0.0
11
241.000000
21
121.000000
31
0.0
0
LINE
8
LINES
10
897.000000
20
198.000000
30
0.0
11
934.000000
21
198.000000
31
0.0
0
LINE
8
LINES
10
132.000000
20
572.000000
30
0.0
11
132.000000
21
611.000000
31
0.0
0
LINE
8
LINES
10
81.000000
20
601.000000
30
0.0
11
81.000000
21
638.000000
31
0.0
0
LINE
8
LINES
10
347.000000
20
193.000000
30
0.0
11
308.000000
21
193.000000
31
0.0
0
LINE
8
LINES
10
761.000000
20
467.000000
30
0.0
11
761.000000
21
504.000000
31
0.0
0
LINE
8
LINES
10
312.000000
20
195.000000
30
0.0
11
348.000000
21
195.000000
31
0.0
0
LINE
8
LINES
10
305.000000
20
392.000000
30
0.0
11
268.000000
21
392.000000
31
0.0
0
LINE
8
LINES
10
161.000000
20
460.000000
30
0.0
11
198.000000
21
460.000000
31
0.0
0
LINE
8
LINES
10
672.000000
20
206.000000
30
0.0
11
638.000000
21
190.000000
31
0.0
0
LINE
8
LINES
10
865.000000
20
604.000000
30
0.0
11
851.000000
21
638.000000
31
0.0
0
LINE
8
LINES
10
118.000000
20
200.000000
30
0.0
11
84.000000
21
216.000000
31
0.0
0
LINE
8
LINES
10
334.000000
20
198.000000
30
0.0
11
300.000000
21
212.000000
31
0.0
0
LINE
8
LINES
10
572.000000
20
472.000000
30
0.0
11
576.000000
21
508.000000
31
0.0
0
LINE
8
LINES
10
222.000000
20
198.000000
30
0.0
11
190.000000
21
214.000000
31
0.0
0
LINE
8
LINES
10
913.000000
20
580.000000
30
0.0
11
876.000000
21
585.000000
31
0.0
0
LINE
8
LINES
10
428.000000
20
115.000000
30
0.0
11
428.000000
21
152.000000
31
0.0
0
LINE
8
LINES
10
353.000000
20
190.000000
30
0.0
11
353.000000
21
153.000000
31
0.0
0
LINE
8
LINES
10
201.000000
20
153.000000
30
0.0
11
201.000000
21
190.000000
31
0.0
0
LINE
8
LINES
10
206.000000
20
249.000000
30
0.0
11
241.000000
21
249.000000
31
0.0
0
LINE
8
LINES
10
102.000000
20
124.000000
30
0.0
11
137.000000
21
124.000000
31
0.0
0
LINE
8
LINES
10
102.000000
20
249.000000
30
0.0
11
137.000000
21
249.000000
31
0.0
0
LINE
8
LINES
10
897.000000
20
256.000000
30
0.0
11
934.000000
21
256.000000
31
0.0
0
LINE
8
LINES
10
952.000000
20
220.000000
30
0.0
11
918.000000
21
204.000000
31
0.0
0
LINE
8
LINES
10
788.000000
20
121.000000
30
0.0
11
825.000000
21
121.000000
31
0.0
0
LINE
8
LINES
10
822.000000
20
152.000000
30
0.0
11
822.000000
21
188.000000
31
0.0
0
LINE
8
LINES
10
790.000000
20
398.000000
30
0.0
11
827.000000
21
398.000000
31
0.0
0
LINE
8
LINES
10
433.000000
20
395.000000
30
0.0
11
468.000000
21
395.000000
31
0.0
0
LINE
8
LINES
10
241.000000
20
252.000000
30
0.0
11
204.000000
21
252.000000
31
0.0
0
LINE
8
LINES
10
396.000000
20
57.000000
30
0.0
11
358.000000
21
57.000000
31
0.0
0
LINE
8
LINES
10
332.000000
20
595.000000
30
0.0
11
332.000000
21
558.000000
31
0.0
0
LINE
8
LINES
10
827.000000
20
124.000000
30
0.0
11
790.000000
21
124.000000
31
0.0
0
LINE
8
LINES
10
470.000000
20
462.000000
30
0.0
11
433.000000
21
462.000000
31
0.0
0
LINE
8
LINES
10
219.000000
20
462.000000
30
0.0
11
256.000000
21
462.000000
31
0.0
0
LINE
8
LINES
10
654.000000
20
216.000000
30
0.0
11
617.000000
21
216.000000
31
0.0
0
LINE
8
LINES
10
636.000000
20
190.000000
30
0.0
11
604.000000
21
204.000000
31
0.0
0
LINE
8
LINES
10
366.000000
20
212.000000
30
0.0
11
334.000000
21
198.000000
31
0.0
0
LINE
8
LINES
10
899.000000
20
400.000000
30
0.0
11
934.000000
21
400.000000
31
0.0
0
LINE
8
LINES
10
902.000000
20
246.000000
30
0.0
11
937.000000
21
246.000000
31
0.0
0
LINE
8
LINES
10
932.000000
20
480.000000
30
0.0
11
897.000000
21
480.000000
31
0.0
0
LINE
8
LINES
10
310.000000
20
156.000000
30
0.0
11
310.000000
21
192.000000
31
0.0
0
LINE
8
LINES
10
134.000000
20
214.000000
30
0.0
11
99.000000
21
214.000000
31
0.0
0
LINE
8
LINES
10
566.000000
20
505.000000
30
0.0
11
566.000000
21
470.000000
31
0.0
0
LINE
8
LINES
10
897.000000
20
128.000000
30
0.0
11
931.000000
21
128.000000
31
0.0
0
LINE
8
LINES
10
622.000000
20
182.000000
30
0.0
11
657.000000
21
182.000000
31
0.0
0
LINE
8
LINES
10
468.000000
20
484.000000
30
0.0
11
433.000000
21
484.000000
31
0.0
0
LINE
8
LINES
10
977.000000
20
75.000000
30
0.0
11
942.000000
21
75.000000
31
0.0
0
LINE
8
LINES
10
73.000000
20
113.000000
30
0.0
11
73.000000
21
148.000000
31
0.0
0
LINE
8
LINES
10
83.000000
20
323.000000
30
0.0
11
83.000000
21
288.000000
31
0.0
0
LINE
8
LINES
10
566.000000
20
99.000000
30
0.0
11
601.000000
21
99.000000
31
0.0
0
LINE
8
LINES
10
468.000000
20
416.000000
30
0.0
11
433.000000
21
416.000000
31
0.0
0
LINE
8
LINES
10
576.000000
20
470.000000
30
0.0
11
542.000000
21
464.000000
31
0.0
0
LINE
8
LINES
10
881.000000
20
220.000000
30
0.0
11
910.000000
21
206.000000
31
0.0
0
LINE
8
LINES
10
550.000000
20
451.000000
30
0.0
11
566.000000
21
420.000000
31
0.0
0
LINE
8
LINES
10
148.000000
20
214.000000
30
0.0
11
118.000000
21
201.000000
31
0.0
0
LINE
8
LINES
10
859.000000
20
121.000000
30
0.0
11
892.000000
21
126.000000
31
0.0
0
LINE
8
LINES
10
81.000000
20
652.000000
30
0.0
11
48.000000
21
657.000000
31
0.0
0
LINE
8
LINES
10
601.000000
20
600.000000
30
0.0
11
568.000000
21
603.000000
31
0.0
0
LINE
8
LINES
10
192.000000
20
516.000000
30
0.0
11
192.000000
21
550.000000
31
0.0
0
LINE
8
LINES
10
494.000000
20
211.000000
30
0.0
11
494.000000
21
243.000000
31
0.0
0
LINE
8
LINES
10
428.000000
20
153.000000
30
0.0
11
428.000000
21
188.000000
31
0.0
0
LINE
8
LINES
10
60.000000
20
302.000000
30
0.0
11
60.000000
21
337.000000
31
0.0
0
LINE
8
LINES
10
824.000000
20
416.000000
30
0.0
11
790.000000
21
416.000000
31
0.0
0
LINE
8
LINES
10
353.000000
20
153.000000
30
0.0
11
353.000000
21
118.000000
31
0.0
0
LINE
8
LINES
10
166.000000
20
489.000000
30
0.0
11
198.000000
21
489.000000
31
0.0
0
LINE
8
LINES
10
859.000000
20
619.000000
30
0.0
11
859.000000
21
585.000000
31
0.0
0
LINE
8
LINES
10
622.000000
20
617.000000
30
0.0
11
588.000000
21
617.000000
31
0.0
0
LINE
8
LINES
10
500.000000
20
563.000000
30
0.0
11
534.000000
21
563.000000
31
0.0
0
LINE
8
LINES
10
841.000000
20
62.000000
30
0.0
11
876.000000
21
62.000000
31
0.0
0
LINE
8
LINES
10
947.000000
20
238.000000
30
0.0
11
980.000000
21
238.000000
31
0.0
0
LINE
8
LINES
10
590.000000
20
508.000000
30
0.0
11
590.000000
21
542.000000
31
0.0
0
LINE
8
LINES
10
432.000000
20
454.000000
30
0.0
11
465.000000
21
454.000000
31
0.0
0
LINE
8
LINES
10
598.000000
20
502.000000
30
0.0
11
598.000000
21
536.000000
31
0.0
0
LINE
8
LINES
10
648.000000
20
115.000000
30
0.0
11
614.000000
21
115.000000
31
0.0
0
LINE
8
LINES
10
649.000000
20
252.000000
30
0.0
11
616.000000
21
252.000000
31
0.0
0
LINE
8
LINES
10
232.000000
20
200.000000
30
0.0
11
262.000000
21
212.000000
31
0.0
0
LINE
8
LINES
10
790.000000
20
148.000000
30
0.0
11
824.000000
21
148.000000
31
0.0
0
LINE
8
LINES
10
158.000000
20
649.000000
30
0.0
11
188.000000
21
640.000000
31
0.0
0
LINE
8
LINES
10
340.000000
20
627.000000
30
0.0
11
307.000000
21
630.000000
31
0.0
0
LINE
8
LINES
10
132.000000
20
654.000000
30
0.0
11
100.000000
21
657.000000
31
0.0
0
LINE
8
LINES
10
472.000000
20
188.000000
30
0.0
11
472.000000
21
156.000000
31
0.0
0
LINE
8
LINES
10
158.000000
20
121.000000
30
0.0
11
158.000000
21
153.000000
31
0.0
0
LINE
8
LINES
10
931.000000
20
417.000000
30
0.0
11
897.000000
21
417.000000
31
0.0
0
LINE
8
LINES
10
289.000000
20
152.000000
30
0.0
11
289.000000
21
118.000000
31
0.0
0
LINE
8
LINES
10
899.000000
20
467.000000
30
0.0
11
931.000000
21
467.000000
31
0.0
0
LINE
8
LINES
10
108.000000
20
448.000000
30
0.0
11
108.000000
21
416.000000
31
0.0
0
LINE
8
LINES
10
896.000000
20
417.000000
30
0.0
11
896.000000
21
449.000000
31
0.0
0
LINE
8
LINES
10
406.000000
20
187.000000
30
0.0
11
406.000000
21
153.000000
31
0.0
0
LINE
8
LINES
10
857.000000
20
548.000000
30
0.0
11
857.000000
21
516.000000
31
0.0
0
LINE
8
LINES
10
352.000000
20
417.000000
30
0.0
11
352.000000
21
449.000000
31
0.0
0
LINE
8
LINES
10
348.000000
20
211.000000
30
0.0
11
316.000000
21
211.000000
31
0.0
0
LINE
8
LINES
10
318.000000
20
334.000000
30
0.0
11
350.000000
21
334.000000
31
0.0
0
LINE
8
LINES
10
824.000000
20
281.000000
30
0.0
11
792.000000
21
281.000000
31
0.0
0
LINE
8
LINES
10
352.000000
20
417.000000
30
0.0
11
318.000000
21
417.000000
31
0.0
0
LINE
8
LINES
10
731.000000
20
500.000000
30
0.0
11
731.000000
21
467.000000
31
0.0
0
LINE
8
LINES
10
561.000000
20
558.000000
30
0.0
11
561.000000
21
526.000000
31
0.0
0
LINE
8
LINES
10
41.000000
20
606.000000
30
0.0
11
73.000000
21
606.000000
31
0.0
0
LINE
8
LINES
10
492.000000
20
604.000000
30
0.0
11
492.000000
21
572.000000
31
0.0
0
LINE
8
LINES
10
132.000000
20
646.000000
30
0.0
11
100.000000
21
651.000000
31
0.0
0
LINE
8
LINES
10
348.000000
20
145.000000
30
0.0
11
316.000000
21
145.000000
31
0.0
0
LINE
8
LINES
10
241.000000
20
124.000000
30
0.0
11
208.000000
21
124.000000
31
0.0
0
LINE
8
LINES
10
772.000000
20
348.000000
30
0.0
11
740.000000
21
348.000000
31
0.0
0
LINE
8
LINES
10
537.000000
20
412.000000
30
0.0
11
537.000000
21
446.000000
31
0.0
0
LINE
8
LINES
10
350.000000
20
225.000000
30
0.0
11
318.000000
21
225.000000
31
0.0
0
LINE
8
LINES
10
348.000000
20
121.000000
30
0.0
11
316.000000
21
121.000000
31
0.0
0
LINE
8
LINES
10
464.000000
20
118.000000
30
0.0
11
432.000000
21
118.000000
31
0.0
0
LINE
8
LINES
10
464.000000
20
57.000000
30
0.0
11
432.000000
21
57.000000
31
0.0
0
LINE
8
LINES
10
414.000000
20
368.000000
30
0.0
11
382.000000
21
368.000000
31
0.0
0
LINE
8
LINES
10
792.000000
20
284.000000
30
0.0
11
824.000000
21
284.000000
31
0.0
0
LINE
8
LINES
10
140.000000
20
448.000000
30
0.0
11
108.000000
21
448.000000
31
0.0
0
LINE
8
LINES
10
929.000000
20
232.000000
30
0.0
11
897.000000
21
232.000000
31
0.0
0
LINE
8
LINES
10
76.000000
20
216.000000
30
0.0
11
105.000000
21
203.000000
31
0.0
0
LINE
8
LINES
10
542.000000
20
616.000000
30
0.0
11
574.000000
21
611.000000
31
0.0
0
LINE
8
LINES
10
187.000000
20
547.000000
30
0.0
11
182.000000
21
516.000000
31
0.0
0
LINE
8
LINES
10
684.000000
20
150.000000
30
0.0
11
684.000000
21
182.000000
31
0.0
0
LINE
8
LINES
10
211.000000
20
449.000000
30
0.0
11
211.000000
21
417.000000
31
0.0
0
LINE
8
LINES
10
929.000000
20
206.000000
30
0.0
11
958.000000
21
220.000000
31
0.0
0
LINE
8
LINES
10
289.000000
20
188.000000
30
0.0
11
289.000000
21
156.000000
31
0.0
0
LINE
8
LINES
10
243.000000
20
416.000000
30
0.0
11
211.000000
21
416.000000
31
0.0
0
LINE
8
LINES
10
76.000000
20
187.000000
30
0.0
11
76.000000
21
156.000000
31
0.0
0
LINE
8
LINES
10
211.000000
20
188.000000
30
0.0
11
241.000000
21
188.000000
31
0.0
0
LINE
8
LINES
10
497.000000
20
572.000000
30
0.0
11
497.000000
21
603.000000
31
0.0
0
LINE
8
LINES
10
926.000000
20
238.000000
30
0.0
11
896.000000
21
238.000000
31
0.0
0
LINE
8
LINES
10
593.000000
20
539.000000
30
0.0
11
593.000000
21
508.000000
31
0.0
0
LINE
8
LINES
10
403.000000
20
561.000000
30
0.0
11
371.000000
21
558.000000
31
0.0
0
LINE
8
LINES
10
139.000000
20
59.000000
30
0.0
11
171.000000
21
59.000000
31
0.0
0
LINE
8
LINES
10
222.000000
20
633.000000
30
0.0
11
254.000000
21
633.000000
31
0.0
0
LINE
8
LINES
10
180.000000
20
152.000000
30
0.0
11
180.000000
21
121.000000
31
0.0
0
LINE
8
LINES
10
310.000000
20
121.000000
30
0.0
11
310.000000
21
152.000000
31
0.0
0
LINE
8
LINES
10
188.000000
20
584.000000
30
0.0
11
188.000000
21
616.000000
31
0.0
0
LINE
8
LINES
10
899.000000
20
289.000000
30
0.0
11
931.000000
21
289.000000
31
0.0
0
LINE
8
LINES
10
104.000000
20
188.000000
30
0.0
11
104.000000
21
156.000000
31
0.0
0
LINE
8
LINES
10
28.000000
20
369.000000
30
0.0
11
59.000000
21
369.000000
31
0.0
0
LINE
8
LINES
10
278.000000
20
614.000000
30
0.0
11
248.000000
21
614.000000
31
0.0
0
LINE
8
LINES
10
134.000000
20
252.000000
30
0.0
11
102.000000
21
252.000000
31
0.0
0
LINE
8
LINES
10
481.000000
20
369.000000
30
0.0
11
451.000000
21
369.000000
31
0.0
0
LINE
8
LINES
10
182.000000
20
214.000000
30
0.0
11
211.000000
21
201.000000
31
0.0
0
LINE
8
LINES
10
126.000000
20
201.000000
30
0.0
11
155.000000
21
212.000000
31
0.0
0
LINE
8
LINES
10
25.000000
20
430.000000
30
0.0
11
48.000000
21
451.000000
31
0.0
0
LINE
8
LINES
10
273.000000
20
643.000000
30
0.0
11
286.000000
21
670.000000
31
0.0
0
LINE
8
LINES
10
556.000000
20
425.000000
30
0.0
11
582.000000
21
408.000000
31
0.0
0
LINE
8
LINES
10
187.000000
20
630.000000
30
0.0
11
156.000000
21
636.000000
31
0.0
0
LINE
8
LINES
10
803.000000
20
419.000000
30
0.0
11
803.000000
21
451.000000
31
0.0
0
LINE
8
LINES
10
243.000000
20
617.000000
30
0.0
11
273.000000
21
617.000000
31
0.0
0
LINE
8
LINES
10
648.000000
20
57.000000
30
0.0
11
617.000000
21
57.000000
31
0.0
0
LINE
8
LINES
10
337.000000
20
451.000000
30
0.0
11
337.000000
21
420.000000
31
0.0
0
LINE
8
LINES
10
492.000000
20
361.000000
30
0.0
11
492.000000
21
392.000000
31
0.0
0
LINE
8
LINES
10
897.000000
20
456.000000
30
0.0
11
926.000000
21
456.000000
31
0.0
0
LINE
8
LINES
10
316.000000
20
451.000000
30
0.0
11
316.000000
21
420.000000
31
0.0
0
LINE
8
LINES
10
137.000000
20
414.000000
30
0.0
11
108.000000
21
414.000000
31
0.0
0
LINE
8
LINES
10
929.000000
20
284.000000
30
0.0
11
899.000000
21
284.000000
31
0.0
0
LINE
8
LINES
10
316.000000
20
310.000000
30
0.0
11
316.000000
21
281.000000
31
0.0
0
LINE
8
LINES
10
273.000000
20
622.000000
30
0.0
11
243.000000
21
622.000000
31
0.0
0
LINE
8
LINES
10
318.000000
20
254.000000
30
0.0
11
348.000000
21
254.000000
31
0.0
0
LINE
8
LINES
10
136.000000
20
126.000000
30
0.0
11
105.000000
21
126.000000
31
0.0
0
LINE
8
LINES
10
129.000000
20
622.000000
30
0.0
11
99.000000
21
622.000000
31
0.0
0
LINE
8
LINES
10
926.000000
20
131.000000
30
0.0
11
897.000000
21
131.000000
31
0.0
0
LINE
8
LINES
10
662.000000
20
240.000000
30
0.0
11
632.000000
21
240.000000
31
0.0
0
LINE
8
LINES
10
350.000000
20
156.000000
30
0.0
11
350.000000
21
187.000000
31
0.0
0
LINE
8
LINES
10
238.000000
20
227.000000
30
0.0
11
209.000000
21
227.000000
31
0.0
0
LINE
8
LINES
10
102.000000
20
97.000000
30
0.0
11
73.000000
21
97.000000
31
0.0
0
ENDSEC
0
EOF
