0
SECTION
2
ENTITIES
0
LWPOLYLINE
8
FACADE_OUTLINE
90
4
70
1
10
0.000000
20
0.000000
10
487.000000
20
0.000000
10
487.000000
20
321.000000
10
0.000000
20
321.000000
0
LWPOLYLINE
8
WINDOWS
90
4
70
1
10
420.000000
20
28.000000
10
468.000000
20
28.000000
10
468.000000
20
48.000000
10
420.000000
20
48.000000
0
LINE
8
LINES
10
64.000000
20
72.000000
30
0.0
11
348.000000
21
72.000000
31
0.0
0
LINE
8
LINES
10
112.000000
20
96.000000
30
0.0
11
112.000000
21
320.000000
31
0.0
0
LINE
8
LINES
10
148.000000
20
64.000000
30
0.0
11
356.000000
21
64.000000
31
0.0
0
LINE
8
LINES
10
164.000000
20
224.000000
30
0.0
11
364.000000
21
224.000000
31
0.0
0
LINE
8
LINES
10
164.000000
20
148.000000
30
0.0
11
352.000000
21
148.000000
31
0.0
0
LINE
8
LINES
10
448.000000
20
296.000000
30
0.0
11
448.000000
21
104.000000
31
0.0
0
LINE
8
LINES
10
356.000000
20
64.000000
30
0.0
11
168.000000
21
64.000000
31
0.0
0
LINE
8
LINES
10
348.000000
20
52.000000
30
0.0
11
164.000000
21
52.000000
31
0.0
0
LINE
8
LINES
10
300.000000
20
236.000000
30
0.0
11
448.000000
21
236.000000
31
0.0
0
LINE
8
LINES
10
220.000000
20
152.000000
30
0.0
11
352.000000
21
152.000000
31
0.0
0
LINE
8
LINES
10
356.000000
20
76.000000
30
0.0
11
464.000000
21
76.000000
31
0.0
0
LINE
8
LINES
10
16.000000
20
160.000000
30
0.0
11
40.000000
21
256.000000
31
0.0
0
LINE
8
LINES
10
0.000000
20
68.000000
30
0.0
11
16.000000
21
160.000000
31
0.0
0
LINE
8
LINES
10
452.000000
20
140.000000
30
0.0
11
452.000000
21
232.000000
31
0.0
0
LINE
8
LINES
10
360.000000
20
88.000000
30
0.0
11
448.000000
21
88.000000
31
0.0
0
LINE
8
LINES
10
4.000000
20
88.000000
30
0.0
11
88.000000
21
88.000000
31
0.0
0
LINE
8
LINES
10
108.000000
20
216.000000
30
0.0
11
108.000000
21
132.000000
31
0.0
0
LINE
8
LINES
10
8.000000
20
96.000000
30
0.0
11
88.000000
21
96.000000
31
0.0
0
LINE
8
LINES
10
440.000000
20
84.000000
30
0.0
11
360.000000
21
84.000000
31
0.0
0
LINE
8
LINES
10
448.000000
20
96.000000
30
0.0
11
368.000000
21
96.000000
31
0.0
0
LINE
8
LINES
10
452.000000
20
232.000000
30
0.0
11
452.000000
21
312.000000
31
0.0
0
LINE
8
LINES
10
368.000000
20
8.000000
30
0.0
11
444.000000
21
8.000000
31
0.0
0
LINE
8
LINES
10
220.000000
20
232.000000
30
0.0
11
296.000000
21
232.000000
31
0.0
0
LINE
8
LINES
10
296.000000
20
84.000000
30
0.0
11
224.000000
21
84.000000
31
0.0
0
LINE
8
LINES
10
460.000000
20
72.000000
30
0.0
11
388.000000
21
72.000000
31
0.0
0
LINE
8
LINES
10
152.000000
20
72.000000
30
0.0
11
80.000000
21
72.000000
31
0.0
0
LINE
8
LINES
10
160.000000
20
80.000000
30
0.0
11
92.000000
21
80.000000
31
0.0
0
LINE
8
LINES
10
224.000000
20
164.000000
30
0.0
11
296.000000
21
164.000000
31
0.0
0
LINE
8
LINES
10
224.000000
20
92.000000
30
0.0
11
296.000000
21
92.000000
31
0.0
0
LINE
8
LINES
10
0.000000
20
56.000000
30
0.0
11
68.000000
21
56.000000
31
0.0
0
LINE
8
LINES
10
248.000000
20
284.000000
30
0.0
11
320.000000
21
284.000000
31
0.0
0
LINE
8
LINES
10
68.000000
20
60.000000
30
0.0
11
0.000000
21
60.000000
31
0.0
0
LINE
8
LINES
10
316.000000
20
280.000000
30
0.0
11
248.000000
21
280.000000
31
0.0
0
LINE
8
LINES
10
100.000000
20
24.000000
30
0.0
11
168.000000
21
24.000000
31
0.0
0
LINE
8
LINES
10
96.000000
20
88.000000
30
0.0
11
160.000000
21
88.000000
31
0.0
0
LINE
8
LINES
10
32.000000
20
212.000000
30
0.0
11
92.000000
21
212.000000
31
0.0
0
LINE
8
LINES
10
160.000000
20
96.000000
30
0.0
11
104.000000
21
96.000000
31
0.0
0
LINE
8
LINES
10
228.000000
20
48.000000
30
0.0
11
288.000000
21
48.000000
31
0.0
0
LINE
8
LINES
10
296.000000
20
88.000000
30
0.0
11
296.000000
21
148.000000
31
0.0
0
LINE
8
LINES
10
292.000000
20
152.000000
30
0.0
11
232.000000
21
152.000000
31
0.0
0
LINE
8
LINES
10
156.000000
20
320.000000
30
0.0
11
212.000000
21
320.000000
31
0.0
0
LINE
8
LINES
10
372.000000
20
280.000000
30
0.0
11
432.000000
21
280.000000
31
0.0
0
LINE
8
LINES
10
92.000000
20
104.000000
30
0.0
11
92.000000
21
160.000000
31
0.0
0
LINE
8
LINES
10
284.000000
20
80.000000
30
0.0
11
228.000000
21
80.000000
31
0.0
0
LINE
8
LINES
10
56.000000
20
264.000000
30
0.0
11
108.000000
21
264.000000
31
0.0
0
LINE
8
LINES
10
352.000000
20
156.000000
30
0.0
11
300.000000
21
156.000000
31
0.0
0
LINE
8
LINES
10
40.000000
20
260.000000
30
0.0
11
92.000000
21
260.000000
31
0.0
0
LINE
8
LINES
10
468.000000
20
24.000000
30
0.0
11
416.000000
21
24.000000
31
0.0
0
LINE
8
LINES
10
116.000000
20
232.000000
30
0.0
11
168.000000
21
232.000000
31
0.0
0
LINE
8
LINES
10
96.000000
20
160.000000
30
0.0
11
96.000000
21
112.000000
31
0.0
0
LINE
8
LINES
10
216.000000
20
152.000000
30
0.0
11
164.000000
21
152.000000
31
0.0
0
LINE
8
LINES
10
108.000000
20
268.000000
30
0.0
11
60.000000
21
268.000000
31
0.0
0
LINE
8
LINES
10
348.000000
20
80.000000
30
0.0
11
300.000000
21
80.000000
31
0.0
0
LINE
8
LINES
10
252.000000
20
12.000000
30
0.0
11
300.000000
21
12.000000
31
0.0
0
LINE
8
LINES
10
344.000000
20
0.000000
30
0.0
11
380.000000
21
32.000000
31
0.0
0
LINE
8
LINES
10
28.000000
20
192.000000
30
0.0
11
72.000000
21
192.000000
31
0.0
0
LINE
8
LINES
10
212.000000
20
80.000000
30
0.0
11
168.000000
21
80.000000
31
0.0
0
LINE
8
LINES
10
216.000000
20
152.000000
30
0.0
11
168.000000
21
152.000000
31
0.0
0
LINE
8
LINES
10
40.000000
20
272.000000
30
0.0
11
52.000000
21
320.000000
31
0.0
0
LINE
8
LINES
10
100.000000
20
64.000000
30
0.0
11
144.000000
21
64.000000
31
0.0
0
LINE
8
LINES
10
120.000000
20
172.000000
30
0.0
11
164.000000
21
172.000000
31
0.0
0
LINE
8
LINES
10
364.000000
20
164.000000
30
0.0
11
364.000000
21
208.000000
31
0.0
0
LINE
8
LINES
10
112.000000
20
260.000000
30
0.0
11
112.000000
21
216.000000
31
0.0
0
LINE
8
LINES
10
152.000000
20
276.000000
30
0.0
11
196.000000
21
276.000000
31
0.0
0
LINE
8
LINES
10
348.000000
20
8.000000
30
0.0
11
304.000000
21
8.000000
31
0.0
0
LINE
8
LINES
10
20.000000
20
160.000000
30
0.0
11
64.000000
21
160.000000
31
0.0
0
LINE
8
LINES
10
400.000000
20
172.000000
30
0.0
11
440.000000
21
172.000000
31
0.0
0
LINE
8
LINES
10
16.000000
20
136.000000
30
0.0
11
56.000000
21
136.000000
31
0.0
0
LINE
8
LINES
10
384.000000
20
272.000000
30
0.0
11
428.000000
21
272.000000
31
0.0
0
LINE
8
LINES
10
176.000000
20
232.000000
30
0.0
11
216.000000
21
232.000000
31
0.0
0
LINE
8
LINES
10
432.000000
20
272.000000
30
0.0
11
432.000000
21
316.000000
31
0.0
0
LINE
8
LINES
10
268.000000
20
160.000000
30
0.0
11
228.000000
21
160.000000
31
0.0
0
LINE
8
LINES
10
380.000000
20
140.000000
30
0.0
11
380.000000
21
96.000000
31
0.0
0
LINE
8
LINES
10
487.000000
20
136.000000
30
0.0
11
464.000000
21
104.000000
31
0.0
0
LINE
8
LINES
10
120.000000
20
136.000000
30
0.0
11
120.000000
21
96.000000
31
0.0
0
LINE
8
LINES
10
216.000000
20
136.000000
30
0.0
11
216.000000
21
96.000000
31
0.0
0
LINE
8
LINES
10
136.000000
20
96.000000
30
0.0
11
136.000000
21
136.000000
31
0.0
0
LINE
8
LINES
10
440.000000
20
172.000000
30
0.0
11
440.000000
21
212.000000
31
0.0
0
LINE
8
LINES
10
380.000000
20
212.000000
30
0.0
11
380.000000
21
172.000000
31
0.0
0
LINE
8
LINES
10
448.000000
20
316.000000
30
0.0
11
487.000000
21
316.000000
31
0.0
0
LINE
8
LINES
10
468.000000
20
312.000000
30
0.0
11
468.000000
21
272.000000
31
0.0
0
LINE
8
LINES
10
316.000000
20
248.000000
30
0.0
11
356.000000
21
248.000000
31
0.0
0
LINE
8
LINES
10
452.000000
20
100.000000
30
0.0
11
456.000000
21
136.000000
31
0.0
0
LINE
8
LINES
10
380.000000
20
28.000000
30
0.0
11
352.000000
21
0.000000
31
0.0
0
LINE
8
LINES
10
240.000000
20
24.000000
30
0.0
11
208.000000
21
4.000000
31
0.0
0
LINE
8
LINES
10
296.000000
20
32.000000
30
0.0
11
256.000000
21
32.000000
31
0.0
0
LINE
8
LINES
10
360.000000
20
0.000000
30
0.0
11
384.000000
21
28.000000
31
0.0
0
LINE
8
LINES
10
396.000000
20
100.000000
30
0.0
11
396.000000
21
140.000000
31
0.0
0
LINE
8
LINES
10
120.000000
20
212.000000
30
0.0
11
120.000000
21
172.000000
31
0.0
0
LINE
8
LINES
10
396.000000
20
172.000000
30
0.0
11
396.000000
21
212.000000
31
0.0
0
LINE
8
LINES
10
96.000000
20
280.000000
30
0.0
11
96.000000
21
320.000000
31
0.0
0
LINE
8
LINES
10
88.000000
20
64.000000
30
0.0
11
108.000000
21
28.000000
31
0.0
0
LINE
8
LINES
10
208.000000
20
316.000000
30
0.0
11
208.000000
21
280.000000
31
0.0
0
LINE
8
LINES
10
136.000000
20
140.000000
30
0.0
11
172.000000
21
140.000000
31
0.0
0
LINE
8
LINES
10
140.000000
20
264.000000
30
0.0
11
172.000000
21
240.000000
31
0.0
0
LINE
8
LINES
10
208.000000
20
4.000000
30
0.0
11
168.000000
21
4.000000
31
0.0
0
LINE
8
LINES
10
360.000000
20
280.000000
30
0.0
11
360.000000
21
316.000000
31
0.0
0
LINE
8
LINES
10
348.000000
20
152.000000
30
0.0
11
308.000000
21
152.000000
31
0.0
0
LINE
8
LINES
10
236.000000
20
280.000000
30
0.0
11
236.000000
21
320.000000
31
0.0
0
LINE
8
LINES
10
80.000000
20
284.000000
30
0.0
11
80.000000
21
320.000000
31
0.0
0
LINE
8
LINES
10
364.000000
20
96.000000
30
0.0
11
364.000000
21
136.000000
31
0.0
0
LINE
8
LINES
10
132.000000
20
172.000000
30
0.0
11
132.000000
21
208.000000
31
0.0
0
LINE
8
LINES
10
92.000000
20
320.000000
30
0.0
11
92.000000
21
284.000000
31
0.0
0
LINE
8
LINES
10
72.000000
20
320.000000
30
0.0
11
72.000000
21
284.000000
31
0.0
0
LINE
8
LINES
10
432.000000
20
28.000000
30
0.0
11
468.000000
21
28.000000
31
0.0
0
LINE
8
LINES
10
172.000000
20
204.000000
30
0.0
11
208.000000
21
204.000000
31
0.0
0
LINE
8
LINES
10
428.000000
20
212.000000
30
0.0
11
428.000000
21
176.000000
31
0.0
0
LINE
8
LINES
10
360.000000
20
316.000000
30
0.0
11
392.000000
21
316.000000
31
0.0
0
LINE
8
LINES
10
184.000000
20
248.000000
30
0.0
11
224.000000
21
248.000000
31
0.0
0
LINE
8
LINES
10
468.000000
20
160.000000
30
0.0
11
468.000000
21
120.000000
31
0.0
0
LINE
8
LINES
10
272.000000
20
224.000000
30
0.0
11
272.000000
21
188.000000
31
0.0
0
LINE
8
LINES
10
468.000000
20
224.000000
30
0.0
11
468.000000
21
184.000000
31
0.0
0
LINE
8
LINES
10
304.000000
20
204.000000
30
0.0
11
340.000000
21
204.000000
31
0.0
0
LINE
8
LINES
10
216.000000
20
0.000000
30
0.0
11
244.000000
21
20.000000
31
0.0
0
LINE
8
LINES
10
136.000000
20
316.000000
30
0.0
11
136.000000
21
280.000000
31
0.0
0
LINE
8
LINES
10
440.000000
20
104.000000
30
0.0
11
440.000000
21
140.000000
31
0.0
0
LINE
8
LINES
10
308.000000
20
196.000000
30
0.0
11
308.000000
21
160.000000
31
0.0
0
LINE
8
LINES
10
424.000000
20
136.000000
30
0.0
11
424.000000
21
104.000000
31
0.0
0
LINE
8
LINES
10
304.000000
20
128.000000
30
0.0
11
336.000000
21
128.000000
31
0.0
0
LINE
8
LINES
10
372.000000
20
312.000000
30
0.0
11
372.000000
21
280.000000
31
0.0
0
LINE
8
LINES
10
312.000000
20
48.000000
30
0.0
11
348.000000
21
48.000000
31
0.0
0
LINE
8
LINES
10
172.000000
20
128.000000
30
0.0
11
208.000000
21
128.000000
31
0.0
0
LINE
8
LINES
10
336.000000
20
132.000000
30
0.0
11
304.000000
21
132.000000
31
0.0
0
LINE
8
LINES
10
456.000000
20
232.000000
30
0.0
11
484.000000
21
248.000000
31
0.0
0
LINE
8
LINES
10
400.000000
20
100.000000
30
0.0
11
432.000000
21
100.000000
31
0.0
0
LINE
8
LINES
10
88.000000
20
100.000000
30
0.0
11
56.000000
21
100.000000
31
0.0
0
LINE
8
LINES
10
308.000000
20
320.000000
30
0.0
11
344.000000
21
320.000000
31
0.0
0
LINE
8
LINES
10
220.000000
20
140.000000
30
0.0
11
184.000000
21
140.000000
31
0.0
0
LINE
8
LINES
10
304.000000
20
0.000000
30
0.0
11
336.000000
21
0.000000
31
0.0
0
LINE
8
LINES
10
464.000000
20
64.000000
30
0.0
11
428.000000
21
64.000000
31
0.0
0
LINE
8
LINES
10
176.000000
20
8.000000
30
0.0
11
208.000000
21
8.000000
31
0.0
0
LINE
8
LINES
10
392.000000
20
32.000000
30
0.0
11
392.000000
21
64.000000
31
0.0
0
LINE
8
LINES
10
484.000000
20
120.000000
30
0.0
11
464.000000
21
92.000000
31
0.0
0
LINE
8
LINES
10
172.000000
20
160.000000
30
0.0
11
208.000000
21
160.000000
31
0.0
0
LINE
8
LINES
10
428.000000
20
144.000000
30
0.0
11
392.000000
21
144.000000
31
0.0
0
LINE
8
LINES
10
180.000000
20
168.000000
30
0.0
11
180.000000
21
200.000000
31
0.0
0
LINE
8
LINES
10
344.000000
20
48.000000
30
0.0
11
344.000000
21
16.000000
31
0.0
0
LINE
8
LINES
10
172.000000
20
12.000000
30
0.0
11
172.000000
21
44.000000
31
0.0
0
LINE
8
LINES
10
224.000000
20
140.000000
30
0.0
11
224.000000
21
108.000000
31
0.0
0
LINE
8
LINES
10
472.000000
20
24.000000
30
0.0
11
487.000000
21
52.000000
31
0.0
0
LINE
8
LINES
10
136.000000
20
212.000000
30
0.0
11
168.000000
21
212.000000
31
0.0
0
LINE
8
LINES
10
304.000000
20
16.000000
30
0.0
11
304.000000
21
48.000000
31
0.0
0
LINE
8
LINES
10
396.000000
20
212.000000
30
0.0
11
428.000000
21
212.000000
31
0.0
0
LINE
8
LINES
10
392.000000
20
140.000000
30
0.0
11
424.000000
21
140.000000
31
0.0
0
LINE
8
LINES
10
360.000000
20
208.000000
30
0.0
11
360.000000
21
176.000000
31
0.0
0
LINE
8
LINES
10
268.000000
20
224.000000
30
0.0
11
236.000000
21
224.000000
31
0.0
0
LINE
8
LINES
10
208.000000
20
44.000000
30
0.0
11
208.000000
21
12.000000
31
0.0
0
LINE
8
LINES
10
448.000000
20
8.000000
30
0.0
11
472.000000
21
24.000000
31
0.0
0
LINE
8
LINES
10
100.000000
20
60.000000
30
0.0
11
112.000000
21
32.000000
31
0.0
0
LINE
8
LINES
10
104.000000
20
92.000000
30
0.0
11
72.000000
21
80.000000
31
0.0
0
LINE
8
LINES
10
164.000000
20
24.000000
30
0.0
11
132.000000
21
24.000000
31
0.0
0
LINE
8
LINES
10
472.000000
20
132.000000
30
0.0
11
472.000000
21
160.000000
31
0.0
0
LINE
8
LINES
10
228.000000
20
112.000000
30
0.0
11
228.000000
21
140.000000
31
0.0
0
LINE
8
LINES
10
476.000000
20
192.000000
30
0.0
11
476.000000
21
224.000000
31
0.0
0
LINE
8
LINES
10
144.000000
20
176.000000
30
0.0
11
144.000000
21
208.000000
31
0.0
0
LINE
8
LINES
10
312.000000
20
168.000000
30
0.0
11
312.000000
21
200.000000
31
0.0
0
LINE
8
LINES
10
376.000000
20
260.000000
30
0.0
11
400.000000
21
248.000000
31
0.0
0
LINE
8
LINES
10
424.000000
20
32.000000
30
0.0
11
396.000000
21
32.000000
31
0.0
0
LINE
8
LINES
10
480.000000
20
228.000000
30
0.0
11
480.000000
21
200.000000
31
0.0
0
LINE
8
LINES
10
308.000000
20
8.000000
30
0.0
11
336.000000
21
8.000000
31
0.0
0
LINE
8
LINES
10
296.000000
20
228.000000
30
0.0
11
264.000000
21
228.000000
31
0.0
0
LINE
8
LINES
10
240.000000
20
280.000000
30
0.0
11
240.000000
21
252.000000
31
0.0
0
LINE
8
LINES
10
164.000000
20
144.000000
30
0.0
11
136.000000
21
144.000000
31
0.0
0
LINE
8
LINES
10
180.000000
20
96.000000
30
0.0
11
180.000000
21
124.000000
31
0.0
0
LINE
8
LINES
10
204.000000
20
132.000000
30
0.0
11
176.000000
21
132.000000
31
0.0
0
LINE
8
LINES
10
428.000000
20
216.000000
30
0.0
11
396.000000
21
216.000000
31
0.0
0
ENDSEC
0
EOF
