0
SECTION
2
ENTITIES
0
LWPOLYLINE
8
FACADE_OUTLINE
90
4
70
1
10
0.000000
20
0.000000
10
538.000000
20
0.000000
10
538.000000
20
408.000000
10
0.000000
20
408.000000
0
LWPOLYLINE
8
WINDOWS
90
4
70
1
10
406.000000
20
108.000000
10
420.000000
20
108.000000
10
420.000000
20
137.000000
10
406.000000
20
137.000000
0
LWPOLYLINE
8
WINDOWS
90
4
70
1
10
428.000000
20
108.000000
10
443.000000
20
108.000000
10
443.000000
20
137.000000
10
428.000000
20
137.000000
0
LWPOLYLINE
8
WINDOWS
90
4
70
1
10
156.000000
20
182.000000
10
537.000000
20
182.000000
10
537.000000
20
408.000000
10
156.000000
20
408.000000
0
LWPOLYLINE
8
WINDOWS
90
4
70
1
10
0.000000
20
252.000000
10
200.000000
20
252.000000
10
200.000000
20
403.000000
10
0.000000
20
403.000000
0
LWPOLYLINE
8
WINDOWS
90
4
70
1
10
316.000000
20
273.000000
10
334.000000
20
273.000000
10
334.000000
20
297.000000
10
316.000000
20
297.000000
0
LWPOLYLINE
8
WINDOWS
90
4
70
1
10
339.000000
20
275.000000
10
382.000000
20
275.000000
10
382.000000
20
297.000000
10
339.000000
20
297.000000
0
LWPOLYLINE
8
WINDOWS
90
4
70
1
10
257.000000
20
377.000000
10
286.000000
20
377.000000
10
286.000000
20
400.000000
10
257.000000
20
400.000000
0
LWPOLYLINE
8
DOORS
90
4
70
1
10
51.000000
20
248.000000
10
65.000000
20
248.000000
10
65.000000
20
294.000000
10
51.000000
20
294.000000
0
LWPOLYLINE
8
DOORS
90
4
70
1
10
73.000000
20
248.000000
10
88.000000
20
248.000000
10
88.000000
20
294.000000
10
73.000000
20
294.000000
0
LWPOLYLINE
8
DOORS
90
4
70
1
10
94.000000
20
248.000000
10
110.000000
20
248.000000
10
110.000000
20
294.000000
10
94.000000
20
294.000000
0
LWPOLYLINE
8
DOORS
90
4
70
1
10
137.000000
20
249.000000
10
153.000000
20
249.000000
10
153.000000
20
296.000000
10
137.000000
20
296.000000
0
LWPOLYLINE
8
DOORS
90
4
70
1
10
161.000000
20
249.000000
10
177.000000
20
249.000000
10
177.000000
20
296.000000
10
161.000000
20
296.000000
0
LWPOLYLINE
8
DOORS
90
4
70
1
10
182.000000
20
249.000000
10
201.000000
20
249.000000
10
201.000000
20
296.000000
10
182.000000
20
296.000000
0
LWPOLYLINE
8
DOORS
90
4
70
1
10
225.000000
20
254.000000
10
243.000000
20
254.000000
10
243.000000
20
297.000000
10
225.000000
20
297.000000
0
LWPOLYLINE
8
DOORS
90
4
70
1
10
249.000000
20
256.000000
10
267.000000
20
256.000000
10
267.000000
20
297.000000
10
249.000000
20
297.000000
0
LWPOLYLINE
8
DOORS
90
4
70
1
10
272.000000
20
256.000000
10
291.000000
20
256.000000
10
291.000000
20
297.000000
10
272.000000
20
297.000000
0
LWPOLYLINE
8
DOORS
90
4
70
1
10
113.000000
20
364.000000
10
129.000000
20
364.000000
10
129.000000
20
396.000000
10
113.000000
20
396.000000
0
LINE
8
LINES
10
6.000000
20
49.000000
30
0.0
11
512.000000
21
49.000000
31
0.0
0
LINE
8
LINES
10
33.000000
20
83.000000
30
0.0
11
473.000000
21
83.000000
31
0.0
0
LINE
8
LINES
10
35.000000
20
300.000000
30
0.0
11
476.000000
21
300.000000
31
0.0
0
LINE
8
LINES
10
35.000000
20
206.000000
30
0.0
11
473.000000
21
206.000000
31
0.0
0
LINE
8
LINES
10
35.000000
20
140.000000
30
0.0
11
473.000000
21
140.000000
31
0.0
0
LINE
8
LINES
10
473.000000
20
307.000000
30
0.0
11
36.000000
21
307.000000
31
0.0
0
LINE
8
LINES
10
473.000000
20
148.000000
30
0.0
11
36.000000
21
148.000000
31
0.0
0
LINE
8
LINES
10
342.000000
20
57.000000
30
0.0
11
1.000000
21
57.000000
31
0.0
0
LINE
8
LINES
10
515.000000
20
403.000000
30
0.0
11
515.000000
21
64.000000
31
0.0
0
LINE
8
LINES
10
435.000000
20
8.000000
30
0.0
11
110.000000
21
8.000000
31
0.0
0
LINE
8
LINES
10
147.000000
20
395.000000
30
0.0
11
358.000000
21
395.000000
31
0.0
0
LINE
8
LINES
10
241.000000
20
0.000000
30
0.0
11
443.000000
21
0.000000
31
0.0
0
LINE
8
LINES
10
17.000000
20
336.000000
30
0.0
11
201.000000
21
336.000000
31
0.0
0
LINE
8
LINES
10
196.000000
20
358.000000
30
0.0
11
17.000000
21
340.000000
31
0.0
0
LINE
8
LINES
10
17.000000
20
345.000000
30
0.0
11
195.000000
21
361.000000
31
0.0
0
LINE
8
LINES
10
19.000000
20
353.000000
30
0.0
11
185.000000
21
353.000000
31
0.0
0
LINE
8
LINES
10
505.000000
20
62.000000
30
0.0
11
340.000000
21
62.000000
31
0.0
0
LINE
8
LINES
10
361.000000
20
401.000000
30
0.0
11
513.000000
21
401.000000
31
0.0
0
LINE
8
LINES
10
142.000000
20
355.000000
30
0.0
11
19.000000
21
355.000000
31
0.0
0
LINE
8
LINES
10
0.000000
20
248.000000
30
0.0
11
17.000000
21
355.000000
31
0.0
0
LINE
8
LINES
10
468.000000
20
217.000000
30
0.0
11
384.000000
21
217.000000
31
0.0
0
LINE
8
LINES
10
536.000000
20
17.000000
30
0.0
11
454.000000
21
0.000000
31
0.0
0
LINE
8
LINES
10
400.000000
20
217.000000
30
0.0
11
400.000000
21
297.000000
31
0.0
0
LINE
8
LINES
10
220.000000
20
217.000000
30
0.0
11
220.000000
21
297.000000
31
0.0
0
LINE
8
LINES
10
310.000000
20
219.000000
30
0.0
11
310.000000
21
297.000000
31
0.0
0
LINE
8
LINES
10
131.000000
20
217.000000
30
0.0
11
131.000000
21
297.000000
31
0.0
0
LINE
8
LINES
10
396.000000
20
376.000000
30
0.0
11
473.000000
21
376.000000
31
0.0
0
LINE
8
LINES
10
44.000000
20
217.000000
30
0.0
11
44.000000
21
294.000000
31
0.0
0
LINE
8
LINES
10
12.000000
20
40.000000
30
0.0
11
88.000000
21
40.000000
31
0.0
0
LINE
8
LINES
10
254.000000
20
19.000000
30
0.0
11
179.000000
21
19.000000
31
0.0
0
LINE
8
LINES
10
171.000000
20
19.000000
30
0.0
11
96.000000
21
19.000000
31
0.0
0
LINE
8
LINES
10
336.000000
20
20.000000
30
0.0
11
262.000000
21
20.000000
31
0.0
0
LINE
8
LINES
10
92.000000
20
40.000000
30
0.0
11
166.000000
21
40.000000
31
0.0
0
LINE
8
LINES
10
382.000000
20
217.000000
30
0.0
11
308.000000
21
217.000000
31
0.0
0
LINE
8
LINES
10
88.000000
20
17.000000
30
0.0
11
16.000000
21
17.000000
31
0.0
0
LINE
8
LINES
10
347.000000
20
41.000000
30
0.0
11
417.000000
21
41.000000
31
0.0
0
LINE
8
LINES
10
220.000000
20
376.000000
30
0.0
11
291.000000
21
376.000000
31
0.0
0
LINE
8
LINES
10
289.000000
20
216.000000
30
0.0
11
219.000000
21
216.000000
31
0.0
0
LINE
8
LINES
10
497.000000
20
25.000000
30
0.0
11
428.000000
21
25.000000
31
0.0
0
LINE
8
LINES
10
288.000000
20
92.000000
30
0.0
11
220.000000
21
92.000000
31
0.0
0
LINE
8
LINES
10
377.000000
20
94.000000
30
0.0
11
310.000000
21
94.000000
31
0.0
0
LINE
8
LINES
10
196.000000
20
214.000000
30
0.0
11
129.000000
21
214.000000
31
0.0
0
LINE
8
LINES
10
428.000000
20
44.000000
30
0.0
11
496.000000
21
44.000000
31
0.0
0
LINE
8
LINES
10
316.000000
20
273.000000
30
0.0
11
382.000000
21
273.000000
31
0.0
0
LINE
8
LINES
10
198.000000
20
92.000000
30
0.0
11
131.000000
21
92.000000
31
0.0
0
LINE
8
LINES
10
108.000000
20
214.000000
30
0.0
11
41.000000
21
214.000000
31
0.0
0
LINE
8
LINES
10
41.000000
20
283.000000
30
0.0
11
41.000000
21
217.000000
31
0.0
0
LINE
8
LINES
10
520.000000
20
392.000000
30
0.0
11
531.000000
21
326.000000
31
0.0
0
LINE
8
LINES
10
108.000000
20
92.000000
30
0.0
11
44.000000
21
92.000000
31
0.0
0
LINE
8
LINES
10
225.000000
20
254.000000
30
0.0
11
289.000000
21
254.000000
31
0.0
0
LINE
8
LINES
10
406.000000
20
275.000000
30
0.0
11
467.000000
21
275.000000
31
0.0
0
LINE
8
LINES
10
128.000000
20
284.000000
30
0.0
11
128.000000
21
222.000000
31
0.0
0
LINE
8
LINES
10
464.000000
20
94.000000
30
0.0
11
403.000000
21
94.000000
31
0.0
0
LINE
8
LINES
10
385.000000
20
296.000000
30
0.0
11
385.000000
21
238.000000
31
0.0
0
LINE
8
LINES
10
467.000000
20
273.000000
30
0.0
11
467.000000
21
219.000000
31
0.0
0
LINE
8
LINES
10
315.000000
20
273.000000
30
0.0
11
315.000000
21
220.000000
31
0.0
0
LINE
8
LINES
10
464.000000
20
272.000000
30
0.0
11
411.000000
21
272.000000
31
0.0
0
LINE
8
LINES
10
201.000000
20
14.000000
30
0.0
11
254.000000
21
14.000000
31
0.0
0
LINE
8
LINES
10
292.000000
20
14.000000
30
0.0
11
345.000000
21
14.000000
31
0.0
0
LINE
8
LINES
10
467.000000
20
91.000000
30
0.0
11
467.000000
21
142.000000
31
0.0
0
LINE
8
LINES
10
380.000000
20
272.000000
30
0.0
11
380.000000
21
220.000000
31
0.0
0
LINE
8
LINES
10
403.000000
20
272.000000
30
0.0
11
403.000000
21
220.000000
31
0.0
0
LINE
8
LINES
10
291.000000
20
88.000000
30
0.0
11
291.000000
21
137.000000
31
0.0
0
LINE
8
LINES
10
380.000000
20
89.000000
30
0.0
11
380.000000
21
139.000000
31
0.0
0
LINE
8
LINES
10
65.000000
20
246.000000
30
0.0
11
65.000000
21
297.000000
31
0.0
0
LINE
8
LINES
10
160.000000
20
297.000000
30
0.0
11
160.000000
21
248.000000
31
0.0
0
LINE
8
LINES
10
92.000000
20
297.000000
30
0.0
11
92.000000
21
248.000000
31
0.0
0
LINE
8
LINES
10
137.000000
20
297.000000
30
0.0
11
137.000000
21
249.000000
31
0.0
0
LINE
8
LINES
10
72.000000
20
297.000000
30
0.0
11
72.000000
21
248.000000
31
0.0
0
LINE
8
LINES
10
177.000000
20
249.000000
30
0.0
11
177.000000
21
297.000000
31
0.0
0
LINE
8
LINES
10
182.000000
20
297.000000
30
0.0
11
182.000000
21
249.000000
31
0.0
0
LINE
8
LINES
10
153.000000
20
251.000000
30
0.0
11
153.000000
21
297.000000
31
0.0
0
LINE
8
LINES
10
49.000000
20
296.000000
30
0.0
11
49.000000
21
248.000000
31
0.0
0
LINE
8
LINES
10
88.000000
20
249.000000
30
0.0
11
88.000000
21
296.000000
31
0.0
0
LINE
8
LINES
10
243.000000
20
94.000000
30
0.0
11
243.000000
21
139.000000
31
0.0
0
LINE
8
LINES
10
198.000000
20
251.000000
30
0.0
11
198.000000
21
296.000000
31
0.0
0
LINE
8
LINES
10
272.000000
20
139.000000
30
0.0
11
272.000000
21
94.000000
31
0.0
0
LINE
8
LINES
10
265.000000
20
94.000000
30
0.0
11
265.000000
21
139.000000
31
0.0
0
LINE
8
LINES
10
249.000000
20
139.000000
30
0.0
11
249.000000
21
94.000000
31
0.0
0
LINE
8
LINES
10
427.000000
20
139.000000
30
0.0
11
427.000000
21
96.000000
31
0.0
0
LINE
8
LINES
10
449.000000
20
139.000000
30
0.0
11
449.000000
21
96.000000
31
0.0
0
LINE
8
LINES
10
441.000000
20
96.000000
30
0.0
11
441.000000
21
139.000000
31
0.0
0
LINE
8
LINES
10
420.000000
20
96.000000
30
0.0
11
420.000000
21
139.000000
31
0.0
0
LINE
8
LINES
10
355.000000
20
96.000000
30
0.0
11
355.000000
21
139.000000
31
0.0
0
LINE
8
LINES
10
227.000000
20
137.000000
30
0.0
11
227.000000
21
94.000000
31
0.0
0
LINE
8
LINES
10
67.000000
20
94.000000
30
0.0
11
67.000000
21
137.000000
31
0.0
0
LINE
8
LINES
10
339.000000
20
137.000000
30
0.0
11
339.000000
21
96.000000
31
0.0
0
LINE
8
LINES
10
89.000000
20
94.000000
30
0.0
11
89.000000
21
137.000000
31
0.0
0
LINE
8
LINES
10
139.000000
20
137.000000
30
0.0
11
139.000000
21
94.000000
31
0.0
0
LINE
8
LINES
10
156.000000
20
94.000000
30
0.0
11
156.000000
21
137.000000
31
0.0
0
LINE
8
LINES
10
332.000000
20
96.000000
30
0.0
11
332.000000
21
137.000000
31
0.0
0
LINE
8
LINES
10
51.000000
20
137.000000
30
0.0
11
51.000000
21
94.000000
31
0.0
0
LINE
8
LINES
10
249.000000
20
299.000000
30
0.0
11
249.000000
21
257.000000
31
0.0
0
LINE
8
LINES
10
161.000000
20
137.000000
30
0.0
11
161.000000
21
94.000000
31
0.0
0
LINE
8
LINES
10
94.000000
20
137.000000
30
0.0
11
94.000000
21
94.000000
31
0.0
0
LINE
8
LINES
10
73.000000
20
137.000000
30
0.0
11
73.000000
21
94.000000
31
0.0
0
LINE
8
LINES
10
243.000000
20
257.000000
30
0.0
11
243.000000
21
299.000000
31
0.0
0
LINE
8
LINES
10
182.000000
20
137.000000
30
0.0
11
182.000000
21
94.000000
31
0.0
0
LINE
8
LINES
10
227.000000
20
297.000000
30
0.0
11
227.000000
21
256.000000
31
0.0
0
LINE
8
LINES
10
361.000000
20
137.000000
30
0.0
11
361.000000
21
96.000000
31
0.0
0
LINE
8
LINES
10
177.000000
20
94.000000
30
0.0
11
177.000000
21
137.000000
31
0.0
0
LINE
8
LINES
10
265.000000
20
257.000000
30
0.0
11
265.000000
21
299.000000
31
0.0
0
LINE
8
LINES
10
316.000000
20
137.000000
30
0.0
11
316.000000
21
96.000000
31
0.0
0
LINE
8
LINES
10
289.000000
20
257.000000
30
0.0
11
289.000000
21
297.000000
31
0.0
0
LINE
8
LINES
10
46.000000
20
96.000000
30
0.0
11
46.000000
21
136.000000
31
0.0
0
LINE
8
LINES
10
400.000000
20
99.000000
30
0.0
11
400.000000
21
139.000000
31
0.0
0
LINE
8
LINES
10
222.000000
20
97.000000
30
0.0
11
222.000000
21
137.000000
31
0.0
0
LINE
8
LINES
10
192.000000
20
369.000000
30
0.0
11
161.000000
21
393.000000
31
0.0
0
LINE
8
LINES
10
134.000000
20
97.000000
30
0.0
11
134.000000
21
136.000000
31
0.0
0
LINE
8
LINES
10
272.000000
20
297.000000
30
0.0
11
272.000000
21
259.000000
31
0.0
0
LINE
8
LINES
10
312.000000
20
97.000000
30
0.0
11
312.000000
21
137.000000
31
0.0
0
LINE
8
LINES
10
312.000000
20
376.000000
30
0.0
11
348.000000
21
376.000000
31
0.0
0
LINE
8
LINES
10
404.000000
20
140.000000
30
0.0
11
404.000000
21
102.000000
31
0.0
0
LINE
8
LINES
10
368.000000
20
16.000000
30
0.0
11
406.000000
21
16.000000
31
0.0
0
LINE
8
LINES
10
464.000000
20
140.000000
30
0.0
11
464.000000
21
104.000000
31
0.0
0
LINE
8
LINES
10
1.000000
20
64.000000
30
0.0
11
1.000000
21
97.000000
31
0.0
0
LINE
8
LINES
10
1.000000
20
236.000000
30
0.0
11
1.000000
21
203.000000
31
0.0
0
LINE
8
LINES
10
289.000000
20
252.000000
30
0.0
11
289.000000
21
219.000000
31
0.0
0
LINE
8
LINES
10
353.000000
20
139.000000
30
0.0
11
353.000000
21
107.000000
31
0.0
0
LINE
8
LINES
10
352.000000
20
376.000000
30
0.0
11
382.000000
21
376.000000
31
0.0
0
LINE
8
LINES
10
41.000000
20
124.000000
30
0.0
11
41.000000
21
92.000000
31
0.0
0
LINE
8
LINES
10
457.000000
20
108.000000
30
0.0
11
457.000000
21
137.000000
31
0.0
0
ENDSEC
0
EOF
