0
SECTION
2
ENTITIES
0
LWPOLYLINE
8
FACADE_OUTLINE
90
4
70
1
10
0.000000
20
0.000000
10
543.000000
20
0.000000
10
543.000000
20
1024.000000
10
0.000000
20
1024.000000
0
LWPOLYLINE
8
WINDOWS
90
4
70
1
10
19.000000
20
0.000000
10
542.000000
20
0.000000
10
542.000000
20
254.000000
10
19.000000
20
254.000000
0
LWPOLYLINE
8
WINDOWS
90
4
70
1
10
140.000000
20
27.000000
10
220.000000
20
27.000000
10
220.000000
20
62.000000
10
140.000000
20
62.000000
0
LWPOLYLINE
8
WINDOWS
90
4
70
1
10
339.000000
20
110.000000
10
425.000000
20
110.000000
10
425.000000
20
156.000000
10
339.000000
20
156.000000
0
LWPOLYLINE
8
WINDOWS
90
4
70
1
10
228.000000
20
115.000000
10
313.000000
20
115.000000
10
313.000000
20
155.000000
10
228.000000
20
155.000000
0
LWPOLYLINE
8
WINDOWS
90
4
70
1
10
108.000000
20
163.000000
10
216.000000
20
163.000000
10
216.000000
20
238.000000
10
108.000000
20
238.000000
0
LWPOLYLINE
8
WINDOWS
90
4
70
1
10
220.000000
20
163.000000
10
316.000000
20
163.000000
10
316.000000
20
243.000000
10
220.000000
20
243.000000
0
LWPOLYLINE
8
WINDOWS
90
4
70
1
10
326.000000
20
166.000000
10
433.000000
20
166.000000
10
433.000000
20
232.000000
10
326.000000
20
232.000000
0
LWPOLYLINE
8
WINDOWS
90
4
70
1
10
0.000000
20
172.000000
10
102.000000
20
172.000000
10
102.000000
20
251.000000
10
0.000000
20
251.000000
0
LWPOLYLINE
8
WINDOWS
90
4
70
1
10
470.000000
20
180.000000
10
532.000000
20
180.000000
10
532.000000
20
227.000000
10
470.000000
20
227.000000
0
LWPOLYLINE
8
WINDOWS
90
4
70
1
10
227.000000
20
256.000000
10
316.000000
20
256.000000
10
316.000000
20
305.000000
10
227.000000
20
305.000000
0
LWPOLYLINE
8
WINDOWS
90
4
70
1
10
94.000000
20
257.000000
10
206.000000
20
257.000000
10
206.000000
20
305.000000
10
94.000000
20
305.000000
0
LWPOLYLINE
8
WINDOWS
90
4
70
1
10
337.000000
20
276.000000
10
452.000000
20
276.000000
10
452.000000
20
473.000000
10
337.000000
20
473.000000
0
LWPOLYLINE
8
WINDOWS
90
4
70
1
10
113.000000
20
313.000000
10
222.000000
20
313.000000
10
222.000000
20
382.000000
10
113.000000
20
382.000000
0
LWPOLYLINE
8
WINDOWS
90
4
70
1
10
228.000000
20
331.000000
10
318.000000
20
331.000000
10
318.000000
20
382.000000
10
228.000000
20
382.000000
0
LWPOLYLINE
8
WINDOWS
90
4
70
1
10
25.000000
20
332.000000
10
73.000000
20
332.000000
10
73.000000
20
380.000000
10
25.000000
20
380.000000
0
LWPOLYLINE
8
WINDOWS
90
4
70
1
10
118.000000
20
406.000000
10
208.000000
20
406.000000
10
208.000000
20
457.000000
10
118.000000
20
457.000000
0
LWPOLYLINE
8
WINDOWS
90
4
70
1
10
230.000000
20
406.000000
10
318.000000
20
406.000000
10
318.000000
20
457.000000
10
230.000000
20
457.000000
0
LWPOLYLINE
8
WINDOWS
90
4
70
1
10
27.000000
20
409.000000
10
76.000000
20
409.000000
10
76.000000
20
457.000000
10
27.000000
20
457.000000
0
LWPOLYLINE
8
WINDOWS
90
4
70
1
10
456.000000
20
411.000000
10
513.000000
20
411.000000
10
513.000000
20
457.000000
10
456.000000
20
457.000000
0
LWPOLYLINE
8
WINDOWS
90
4
70
1
10
340.000000
20
412.000000
10
420.000000
20
412.000000
10
420.000000
20
452.000000
10
340.000000
20
452.000000
0
LWPOLYLINE
8
WINDOWS
90
4
70
1
10
120.000000
20
467.000000
10
208.000000
20
467.000000
10
208.000000
20
532.000000
10
120.000000
20
532.000000
0
LWPOLYLINE
8
WINDOWS
90
4
70
1
10
120.000000
20
476.000000
10
318.000000
20
476.000000
10
318.000000
20
617.000000
10
120.000000
20
617.000000
0
LWPOLYLINE
8
WINDOWS
90
4
70
1
10
444.000000
20
486.000000
10
513.000000
20
486.000000
10
513.000000
20
532.000000
10
444.000000
20
532.000000
0
LWPOLYLINE
8
WINDOWS
90
4
70
1
10
28.000000
20
486.000000
10
84.000000
20
486.000000
10
84.000000
20
534.000000
10
28.000000
20
534.000000
0
LWPOLYLINE
8
WINDOWS
90
4
70
1
10
166.000000
20
489.000000
10
204.000000
20
489.000000
10
204.000000
20
526.000000
10
166.000000
20
526.000000
0
LWPOLYLINE
8
WINDOWS
90
4
70
1
10
233.000000
20
529.000000
10
313.000000
20
529.000000
10
313.000000
20
564.000000
10
233.000000
20
564.000000
0
LWPOLYLINE
8
WINDOWS
90
4
70
1
10
337.000000
20
558.000000
10
425.000000
20
558.000000
10
425.000000
20
611.000000
10
337.000000
20
611.000000
0
LWPOLYLINE
8
WINDOWS
90
4
70
1
10
361.000000
20
561.000000
10
401.000000
20
561.000000
10
401.000000
20
601.000000
10
361.000000
20
601.000000
0
LWPOLYLINE
8
WINDOWS
90
4
70
1
10
468.000000
20
572.000000
10
534.000000
20
572.000000
10
534.000000
20
611.000000
10
468.000000
20
611.000000
0
LWPOLYLINE
8
WINDOWS
90
4
70
1
10
324.000000
20
622.000000
10
425.000000
20
622.000000
10
425.000000
20
774.000000
10
324.000000
20
774.000000
0
LWPOLYLINE
8
WINDOWS
90
4
70
1
10
217.000000
20
622.000000
10
336.000000
20
622.000000
10
336.000000
20
804.000000
10
217.000000
20
804.000000
0
LWPOLYLINE
8
WINDOWS
90
4
70
1
10
100.000000
20
624.000000
10
211.000000
20
624.000000
10
211.000000
20
785.000000
10
100.000000
20
785.000000
0
LWPOLYLINE
8
WINDOWS
90
4
70
1
10
236.000000
20
627.000000
10
313.000000
20
627.000000
10
313.000000
20
694.000000
10
236.000000
20
694.000000
0
LWPOLYLINE
8
WINDOWS
90
4
70
1
10
340.000000
20
630.000000
10
420.000000
20
630.000000
10
420.000000
20
692.000000
10
340.000000
20
692.000000
0
LWPOLYLINE
8
WINDOWS
90
4
70
1
10
342.000000
20
696.000000
10
420.000000
20
696.000000
10
420.000000
20
766.000000
10
342.000000
20
766.000000
0
LWPOLYLINE
8
WINDOWS
90
4
70
1
10
236.000000
20
697.000000
10
315.000000
20
697.000000
10
315.000000
20
769.000000
10
236.000000
20
769.000000
0
LWPOLYLINE
8
WINDOWS
90
4
70
1
10
128.000000
20
699.000000
10
208.000000
20
699.000000
10
208.000000
20
771.000000
10
128.000000
20
771.000000
0
LWPOLYLINE
8
WINDOWS
90
4
70
1
10
35.000000
20
713.000000
10
83.000000
20
713.000000
10
83.000000
20
760.000000
10
35.000000
20
760.000000
0
LWPOLYLINE
8
WINDOWS
90
4
70
1
10
462.000000
20
787.000000
10
513.000000
20
787.000000
10
513.000000
20
841.000000
10
462.000000
20
841.000000
0
LWPOLYLINE
8
WINDOWS
90
4
70
1
10
0.000000
20
788.000000
10
542.000000
20
788.000000
10
542.000000
20
1001.000000
10
0.000000
20
1001.000000
0
LWPOLYLINE
8
WINDOWS
90
4
70
1
10
36.000000
20
793.000000
10
88.000000
20
793.000000
10
88.000000
20
849.000000
10
36.000000
20
849.000000
0
LWPOLYLINE
8
WINDOWS
90
4
70
1
10
92.000000
20
868.000000
10
316.000000
20
868.000000
10
316.000000
20
1019.000000
10
92.000000
20
1019.000000
0
LWPOLYLINE
8
WINDOWS
90
4
70
1
10
0.000000
20
953.000000
10
140.000000
20
953.000000
10
140.000000
20
1024.000000
10
0.000000
20
1024.000000
0
LINE
8
LINES
10
68.000000
20
62.000000
30
0.0
11
459.000000
21
62.000000
31
0.0
0
LINE
8
LINES
10
81.000000
20
75.000000
30
0.0
11
454.000000
21
75.000000
31
0.0
0
LINE
8
LINES
10
444.000000
20
96.000000
30
0.0
11
94.000000
21
96.000000
31
0.0
0
LINE
8
LINES
10
105.000000
20
1.000000
30
0.0
11
451.000000
21
1.000000
31
0.0
0
LINE
8
LINES
10
414.000000
20
78.000000
30
0.0
11
104.000000
21
78.000000
31
0.0
0
LINE
8
LINES
10
441.000000
20
25.000000
30
0.0
11
219.000000
21
25.000000
31
0.0
0
LINE
8
LINES
10
78.000000
20
846.000000
30
0.0
11
286.000000
21
846.000000
31
0.0
0
LINE
8
LINES
10
534.000000
20
664.000000
30
0.0
11
534.000000
21
836.000000
31
0.0
0
LINE
8
LINES
10
268.000000
20
868.000000
30
0.0
11
433.000000
21
868.000000
31
0.0
0
LINE
8
LINES
10
422.000000
20
617.000000
30
0.0
11
422.000000
21
780.000000
31
0.0
0
LINE
8
LINES
10
96.000000
20
828.000000
30
0.0
11
252.000000
21
828.000000
31
0.0
0
LINE
8
LINES
10
88.000000
20
873.000000
30
0.0
11
224.000000
21
873.000000
31
0.0
0
LINE
8
LINES
10
233.000000
20
752.000000
30
0.0
11
233.000000
21
619.000000
31
0.0
0
LINE
8
LINES
10
420.000000
20
872.000000
30
0.0
11
420.000000
21
1001.000000
31
0.0
0
LINE
8
LINES
10
124.000000
20
753.000000
30
0.0
11
124.000000
21
627.000000
31
0.0
0
LINE
8
LINES
10
336.000000
20
992.000000
30
0.0
11
336.000000
21
873.000000
31
0.0
0
LINE
8
LINES
10
315.000000
20
873.000000
30
0.0
11
315.000000
21
990.000000
31
0.0
0
LINE
8
LINES
10
208.000000
20
876.000000
30
0.0
11
208.000000
21
993.000000
31
0.0
0
LINE
8
LINES
10
230.000000
20
993.000000
30
0.0
11
230.000000
21
876.000000
31
0.0
0
LINE
8
LINES
10
440.000000
20
988.000000
30
0.0
11
440.000000
21
873.000000
31
0.0
0
LINE
8
LINES
10
86.000000
20
854.000000
30
0.0
11
198.000000
21
854.000000
31
0.0
0
LINE
8
LINES
10
483.000000
20
33.000000
30
0.0
11
483.000000
21
147.000000
31
0.0
0
LINE
8
LINES
10
1.000000
20
1019.000000
30
0.0
11
102.000000
21
1019.000000
31
0.0
0
LINE
8
LINES
10
438.000000
20
236.000000
30
0.0
11
540.000000
21
236.000000
31
0.0
0
LINE
8
LINES
10
339.000000
20
737.000000
30
0.0
11
339.000000
21
636.000000
31
0.0
0
LINE
8
LINES
10
1.000000
20
230.000000
30
0.0
11
99.000000
21
230.000000
31
0.0
0
LINE
8
LINES
10
315.000000
20
638.000000
30
0.0
11
315.000000
21
737.000000
31
0.0
0
LINE
8
LINES
10
97.000000
20
235.000000
30
0.0
11
1.000000
21
235.000000
31
0.0
0
LINE
8
LINES
10
214.000000
20
17.000000
30
0.0
11
118.000000
21
17.000000
31
0.0
0
LINE
8
LINES
10
1.000000
20
238.000000
30
0.0
11
92.000000
21
238.000000
31
0.0
0
LINE
8
LINES
10
91.000000
20
248.000000
30
0.0
11
1.000000
21
248.000000
31
0.0
0
LINE
8
LINES
10
363.000000
20
841.000000
30
0.0
11
452.000000
21
841.000000
31
0.0
0
LINE
8
LINES
10
536.000000
20
508.000000
30
0.0
11
536.000000
21
598.000000
31
0.0
0
LINE
8
LINES
10
537.000000
20
254.000000
30
0.0
11
448.000000
21
254.000000
31
0.0
0
LINE
8
LINES
10
536.000000
20
417.000000
30
0.0
11
536.000000
21
504.000000
31
0.0
0
LINE
8
LINES
10
206.000000
20
456.000000
30
0.0
11
121.000000
21
456.000000
31
0.0
0
LINE
8
LINES
10
425.000000
20
531.000000
30
0.0
11
342.000000
21
531.000000
31
0.0
0
LINE
8
LINES
10
118.000000
20
94.000000
30
0.0
11
203.000000
21
94.000000
31
0.0
0
LINE
8
LINES
10
121.000000
20
409.000000
30
0.0
11
204.000000
21
409.000000
31
0.0
0
LINE
8
LINES
10
457.000000
20
851.000000
30
0.0
11
540.000000
21
851.000000
31
0.0
0
LINE
8
LINES
10
364.000000
20
849.000000
30
0.0
11
448.000000
21
849.000000
31
0.0
0
LINE
8
LINES
10
228.000000
20
96.000000
30
0.0
11
312.000000
21
96.000000
31
0.0
0
LINE
8
LINES
10
204.000000
20
302.000000
30
0.0
11
121.000000
21
302.000000
31
0.0
0
LINE
8
LINES
10
208.000000
20
622.000000
30
0.0
11
208.000000
21
705.000000
31
0.0
0
LINE
8
LINES
10
201.000000
20
102.000000
30
0.0
11
118.000000
21
102.000000
31
0.0
0
LINE
8
LINES
10
17.000000
20
782.000000
30
0.0
11
99.000000
21
782.000000
31
0.0
0
LINE
8
LINES
10
451.000000
20
224.000000
30
0.0
11
532.000000
21
224.000000
31
0.0
0
LINE
8
LINES
10
339.000000
20
561.000000
30
0.0
11
420.000000
21
561.000000
31
0.0
0
LINE
8
LINES
10
420.000000
20
156.000000
30
0.0
11
339.000000
21
156.000000
31
0.0
0
LINE
8
LINES
10
123.000000
20
256.000000
30
0.0
11
204.000000
21
256.000000
31
0.0
0
LINE
8
LINES
10
420.000000
20
230.000000
30
0.0
11
339.000000
21
230.000000
31
0.0
0
LINE
8
LINES
10
118.000000
20
179.000000
30
0.0
11
200.000000
21
179.000000
31
0.0
0
LINE
8
LINES
10
340.000000
20
409.000000
30
0.0
11
422.000000
21
409.000000
31
0.0
0
LINE
8
LINES
10
540.000000
20
846.000000
30
0.0
11
459.000000
21
846.000000
31
0.0
0
LINE
8
LINES
10
310.000000
20
153.000000
30
0.0
11
230.000000
21
153.000000
31
0.0
0
LINE
8
LINES
10
339.000000
20
99.000000
30
0.0
11
419.000000
21
99.000000
31
0.0
0
LINE
8
LINES
10
310.000000
20
104.000000
30
0.0
11
230.000000
21
104.000000
31
0.0
0
LINE
8
LINES
10
419.000000
20
107.000000
30
0.0
11
339.000000
21
107.000000
31
0.0
0
LINE
8
LINES
10
203.000000
20
379.000000
30
0.0
11
123.000000
21
379.000000
31
0.0
0
LINE
8
LINES
10
204.000000
20
531.000000
30
0.0
11
124.000000
21
531.000000
31
0.0
0
LINE
8
LINES
10
312.000000
20
304.000000
30
0.0
11
232.000000
21
304.000000
31
0.0
0
LINE
8
LINES
10
420.000000
20
305.000000
30
0.0
11
340.000000
21
305.000000
31
0.0
0
LINE
8
LINES
10
310.000000
20
227.000000
30
0.0
11
230.000000
21
227.000000
31
0.0
0
LINE
8
LINES
10
232.000000
20
408.000000
30
0.0
11
312.000000
21
408.000000
31
0.0
0
LINE
8
LINES
10
312.000000
20
379.000000
30
0.0
11
232.000000
21
379.000000
31
0.0
0
LINE
8
LINES
10
206.000000
20
606.000000
30
0.0
11
126.000000
21
606.000000
31
0.0
0
LINE
8
LINES
10
340.000000
20
259.000000
30
0.0
11
420.000000
21
259.000000
31
0.0
0
LINE
8
LINES
10
232.000000
20
182.000000
30
0.0
11
312.000000
21
182.000000
31
0.0
0
LINE
8
LINES
10
123.000000
20
332.000000
30
0.0
11
203.000000
21
332.000000
31
0.0
0
LINE
8
LINES
10
126.000000
20
624.000000
30
0.0
11
206.000000
21
624.000000
31
0.0
0
LINE
8
LINES
10
387.000000
20
4.000000
30
0.0
11
308.000000
21
4.000000
31
0.0
0
LINE
8
LINES
10
342.000000
20
622.000000
30
0.0
11
420.000000
21
622.000000
31
0.0
0
LINE
8
LINES
10
531.000000
20
606.000000
30
0.0
11
452.000000
21
606.000000
31
0.0
0
LINE
8
LINES
10
419.000000
20
456.000000
30
0.0
11
340.000000
21
456.000000
31
0.0
0
LINE
8
LINES
10
342.000000
20
484.000000
30
0.0
11
420.000000
21
484.000000
31
0.0
0
LINE
8
LINES
10
419.000000
20
380.000000
30
0.0
11
340.000000
21
380.000000
31
0.0
0
LINE
8
LINES
10
312.000000
20
456.000000
30
0.0
11
233.000000
21
456.000000
31
0.0
0
LINE
8
LINES
10
419.000000
20
604.000000
30
0.0
11
342.000000
21
604.000000
31
0.0
0
LINE
8
LINES
10
140.000000
20
27.000000
30
0.0
11
217.000000
21
27.000000
31
0.0
0
LINE
8
LINES
10
128.000000
20
561.000000
30
0.0
11
206.000000
21
561.000000
31
0.0
0
LINE
8
LINES
10
233.000000
20
483.000000
30
0.0
11
310.000000
21
483.000000
31
0.0
0
LINE
8
LINES
10
310.000000
20
529.000000
30
0.0
11
233.000000
21
529.000000
31
0.0
0
LINE
8
LINES
10
243.000000
20
30.000000
30
0.0
11
318.000000
21
30.000000
31
0.0
0
LINE
8
LINES
10
217.000000
20
33.000000
30
0.0
11
142.000000
21
33.000000
31
0.0
0
LINE
8
LINES
10
344.000000
20
33.000000
30
0.0
11
420.000000
21
33.000000
31
0.0
0
LINE
8
LINES
10
129.000000
20
689.000000
30
0.0
11
204.000000
21
689.000000
31
0.0
0
LINE
8
LINES
10
417.000000
20
632.000000
30
0.0
11
342.000000
21
632.000000
31
0.0
0
LINE
8
LINES
10
92.000000
20
864.000000
30
0.0
11
17.000000
21
864.000000
31
0.0
0
LINE
8
LINES
10
206.000000
20
1004.000000
30
0.0
11
131.000000
21
1004.000000
31
0.0
0
LINE
8
LINES
10
419.000000
20
40.000000
30
0.0
11
345.000000
21
40.000000
31
0.0
0
LINE
8
LINES
10
318.000000
20
36.000000
30
0.0
11
246.000000
21
36.000000
31
0.0
0
LINE
8
LINES
10
313.000000
20
707.000000
30
0.0
11
238.000000
21
707.000000
31
0.0
0
LINE
8
LINES
10
238.000000
20
694.000000
30
0.0
11
312.000000
21
694.000000
31
0.0
0
LINE
8
LINES
10
536.000000
20
342.000000
30
0.0
11
536.000000
21
414.000000
31
0.0
0
LINE
8
LINES
10
134.000000
20
1011.000000
30
0.0
11
206.000000
21
1011.000000
31
0.0
0
LINE
8
LINES
10
449.000000
20
177.000000
30
0.0
11
449.000000
21
105.000000
31
0.0
0
LINE
8
LINES
10
92.000000
20
134.000000
30
0.0
11
67.000000
21
67.000000
31
0.0
0
LINE
8
LINES
10
289.000000
20
849.000000
30
0.0
11
361.000000
21
849.000000
31
0.0
0
LINE
8
LINES
10
129.000000
20
694.000000
30
0.0
11
201.000000
21
694.000000
31
0.0
0
LINE
8
LINES
10
446.000000
20
844.000000
30
0.0
11
376.000000
21
844.000000
31
0.0
0
LINE
8
LINES
10
198.000000
20
633.000000
30
0.0
11
129.000000
21
633.000000
31
0.0
0
LINE
8
LINES
10
344.000000
20
766.000000
30
0.0
11
414.000000
21
766.000000
31
0.0
0
LINE
8
LINES
10
131.000000
20
769.000000
30
0.0
11
201.000000
21
769.000000
31
0.0
0
LINE
8
LINES
10
340.000000
20
830.000000
30
0.0
11
408.000000
21
814.000000
31
0.0
0
LINE
8
LINES
10
308.000000
20
697.000000
30
0.0
11
241.000000
21
697.000000
31
0.0
0
LINE
8
LINES
10
348.000000
20
686.000000
30
0.0
11
417.000000
21
686.000000
31
0.0
0
LINE
8
LINES
10
411.000000
20
705.000000
30
0.0
11
342.000000
21
705.000000
31
0.0
0
LINE
8
LINES
10
412.000000
20
697.000000
30
0.0
11
345.000000
21
697.000000
31
0.0
0
LINE
8
LINES
10
528.000000
20
971.000000
30
0.0
11
528.000000
21
902.000000
31
0.0
0
LINE
8
LINES
10
198.000000
20
710.000000
30
0.0
11
131.000000
21
710.000000
31
0.0
0
LINE
8
LINES
10
347.000000
20
691.000000
30
0.0
11
414.000000
21
691.000000
31
0.0
0
LINE
8
LINES
10
121.000000
20
947.000000
30
0.0
11
115.000000
21
880.000000
31
0.0
0
LINE
8
LINES
10
22.000000
20
940.000000
30
0.0
11
89.000000
21
940.000000
31
0.0
0
LINE
8
LINES
10
452.000000
20
929.000000
30
0.0
11
518.000000
21
929.000000
31
0.0
0
LINE
8
LINES
10
409.000000
20
780.000000
30
0.0
11
342.000000
21
780.000000
31
0.0
0
LINE
8
LINES
10
529.000000
20
854.000000
30
0.0
11
462.000000
21
854.000000
31
0.0
0
LINE
8
LINES
10
198.000000
20
700.000000
30
0.0
11
131.000000
21
700.000000
31
0.0
0
LINE
8
LINES
10
451.000000
20
774.000000
30
0.0
11
516.000000
21
774.000000
31
0.0
0
LINE
8
LINES
10
9.000000
20
787.000000
30
0.0
11
9.000000
21
852.000000
31
0.0
0
LINE
8
LINES
10
8.000000
20
860.000000
30
0.0
11
73.000000
21
860.000000
31
0.0
0
LINE
8
LINES
10
198.000000
20
785.000000
30
0.0
11
132.000000
21
785.000000
31
0.0
0
LINE
8
LINES
10
65.000000
20
1011.000000
30
0.0
11
1.000000
21
1011.000000
31
0.0
0
LINE
8
LINES
10
412.000000
20
771.000000
30
0.0
11
348.000000
21
771.000000
31
0.0
0
LINE
8
LINES
10
478.000000
20
244.000000
30
0.0
11
540.000000
21
244.000000
31
0.0
0
LINE
8
LINES
10
201.000000
20
774.000000
30
0.0
11
137.000000
21
774.000000
31
0.0
0
LINE
8
LINES
10
412.000000
20
915.000000
30
0.0
11
412.000000
21
977.000000
31
0.0
0
LINE
8
LINES
10
315.000000
20
483.000000
30
0.0
11
315.000000
21
544.000000
31
0.0
0
LINE
8
LINES
10
246.000000
20
704.000000
30
0.0
11
307.000000
21
704.000000
31
0.0
0
LINE
8
LINES
10
132.000000
20
705.000000
30
0.0
11
193.000000
21
705.000000
31
0.0
0
LINE
8
LINES
10
20.000000
20
158.000000
30
0.0
11
78.000000
21
158.000000
31
0.0
0
LINE
8
LINES
10
302.000000
20
843.000000
30
0.0
11
361.000000
21
843.000000
31
0.0
0
LINE
8
LINES
10
43.000000
20
1011.000000
30
0.0
11
43.000000
21
953.000000
31
0.0
0
LINE
8
LINES
10
316.000000
20
403.000000
30
0.0
11
316.000000
21
460.000000
31
0.0
0
LINE
8
LINES
10
76.000000
20
873.000000
30
0.0
11
19.000000
21
873.000000
31
0.0
0
LINE
8
LINES
10
542.000000
20
179.000000
30
0.0
11
534.000000
21
236.000000
31
0.0
0
LINE
8
LINES
10
339.000000
20
467.000000
30
0.0
11
339.000000
21
412.000000
31
0.0
0
LINE
8
LINES
10
230.000000
20
465.000000
30
0.0
11
230.000000
21
409.000000
31
0.0
0
LINE
8
LINES
10
86.000000
20
164.000000
30
0.0
11
28.000000
21
164.000000
31
0.0
0
LINE
8
LINES
10
337.000000
20
385.000000
30
0.0
11
337.000000
21
329.000000
31
0.0
0
LINE
8
LINES
10
345.000000
20
628.000000
30
0.0
11
401.000000
21
628.000000
31
0.0
0
LINE
8
LINES
10
323.000000
20
177.000000
30
0.0
11
377.000000
21
185.000000
31
0.0
0
LINE
8
LINES
10
81.000000
20
787.000000
30
0.0
11
27.000000
21
787.000000
31
0.0
0
LINE
8
LINES
10
222.000000
20
851.000000
30
0.0
11
275.000000
21
851.000000
31
0.0
0
LINE
8
LINES
10
513.000000
20
932.000000
30
0.0
11
460.000000
21
932.000000
31
0.0
0
LINE
8
LINES
10
28.000000
20
168.000000
30
0.0
11
83.000000
21
168.000000
31
0.0
0
LINE
8
LINES
10
481.000000
20
177.000000
30
0.0
11
534.000000
21
177.000000
31
0.0
0
LINE
8
LINES
10
230.000000
20
547.000000
30
0.0
11
230.000000
21
494.000000
31
0.0
0
LINE
8
LINES
10
88.000000
20
944.000000
30
0.0
11
35.000000
21
944.000000
31
0.0
0
LINE
8
LINES
10
355.000000
20
702.000000
30
0.0
11
408.000000
21
702.000000
31
0.0
0
LINE
8
LINES
10
521.000000
20
190.000000
30
0.0
11
468.000000
21
190.000000
31
0.0
0
LINE
8
LINES
10
83.000000
20
609.000000
30
0.0
11
32.000000
21
609.000000
31
0.0
0
LINE
8
LINES
10
121.000000
20
532.000000
30
0.0
11
121.000000
21
481.000000
31
0.0
0
LINE
8
LINES
10
476.000000
20
862.000000
30
0.0
11
528.000000
21
862.000000
31
0.0
0
LINE
8
LINES
10
22.000000
20
409.000000
30
0.0
11
73.000000
21
409.000000
31
0.0
0
LINE
8
LINES
10
121.000000
20
606.000000
30
0.0
11
121.000000
21
556.000000
31
0.0
0
LINE
8
LINES
10
465.000000
20
220.000000
30
0.0
11
465.000000
21
171.000000
31
0.0
0
LINE
8
LINES
10
505.000000
20
942.000000
30
0.0
11
505.000000
21
992.000000
31
0.0
0
LINE
8
LINES
10
220.000000
20
856.000000
30
0.0
11
171.000000
21
856.000000
31
0.0
0
LINE
8
LINES
10
36.000000
20
948.000000
30
0.0
11
86.000000
21
948.000000
31
0.0
0
LINE
8
LINES
10
134.000000
20
782.000000
30
0.0
11
184.000000
21
782.000000
31
0.0
0
LINE
8
LINES
10
398.000000
20
1017.000000
30
0.0
11
348.000000
21
1017.000000
31
0.0
0
LINE
8
LINES
10
142.000000
20
713.000000
30
0.0
11
192.000000
21
713.000000
31
0.0
0
LINE
8
LINES
10
142.000000
20
640.000000
30
0.0
11
190.000000
21
640.000000
31
0.0
0
LINE
8
LINES
10
422.000000
20
344.000000
30
0.0
11
422.000000
21
393.000000
31
0.0
0
LINE
8
LINES
10
422.000000
20
561.000000
30
0.0
11
422.000000
21
609.000000
31
0.0
0
LINE
8
LINES
10
356.000000
20
712.000000
30
0.0
11
406.000000
21
712.000000
31
0.0
0
LINE
8
LINES
10
144.000000
20
790.000000
30
0.0
11
193.000000
21
790.000000
31
0.0
0
LINE
8
LINES
10
462.000000
20
873.000000
30
0.0
11
510.000000
21
873.000000
31
0.0
0
LINE
8
LINES
10
206.000000
20
406.000000
30
0.0
11
206.000000
21
456.000000
31
0.0
0
LINE
8
LINES
10
348.000000
20
761.000000
30
0.0
11
396.000000
21
761.000000
31
0.0
0
LINE
8
LINES
10
56.000000
20
857.000000
30
0.0
11
6.000000
21
857.000000
31
0.0
0
LINE
8
LINES
10
38.000000
20
206.000000
30
0.0
11
17.000000
21
163.000000
31
0.0
0
LINE
8
LINES
10
97.000000
20
939.000000
30
0.0
11
97.000000
21
987.000000
31
0.0
0
LINE
8
LINES
10
190.000000
20
643.000000
30
0.0
11
142.000000
21
643.000000
31
0.0
0
LINE
8
LINES
10
254.000000
20
950.000000
30
0.0
11
254.000000
21
998.000000
31
0.0
0
LINE
8
LINES
10
356.000000
20
643.000000
30
0.0
11
403.000000
21
643.000000
31
0.0
0
LINE
8
LINES
10
142.000000
20
652.000000
30
0.0
11
190.000000
21
652.000000
31
0.0
0
LINE
8
LINES
10
1.000000
20
307.000000
30
0.0
11
1.000000
21
259.000000
31
0.0
0
LINE
8
LINES
10
251.000000
20
713.000000
30
0.0
11
297.000000
21
713.000000
31
0.0
0
LINE
8
LINES
10
403.000000
20
640.000000
30
0.0
11
356.000000
21
640.000000
31
0.0
0
LINE
8
LINES
10
356.000000
20
638.000000
30
0.0
11
403.000000
21
638.000000
31
0.0
0
LINE
8
LINES
10
356.000000
20
788.000000
30
0.0
11
403.000000
21
788.000000
31
0.0
0
LINE
8
LINES
10
24.000000
20
257.000000
30
0.0
11
72.000000
21
257.000000
31
0.0
0
LINE
8
LINES
10
347.000000
20
972.000000
30
0.0
11
347.000000
21
926.000000
31
0.0
0
LINE
8
LINES
10
531.000000
20
172.000000
30
0.0
11
483.000000
21
172.000000
31
0.0
0
LINE
8
LINES
10
272.000000
20
857.000000
30
0.0
11
313.000000
21
835.000000
31
0.0
0
LINE
8
LINES
10
515.000000
20
532.000000
30
0.0
11
468.000000
21
532.000000
31
0.0
0
LINE
8
LINES
10
529.000000
20
899.000000
30
0.0
11
529.000000
21
852.000000
31
0.0
0
LINE
8
LINES
10
267.000000
20
622.000000
30
0.0
11
313.000000
21
622.000000
31
0.0
0
LINE
8
LINES
10
339.000000
20
608.000000
30
0.0
11
339.000000
21
561.000000
31
0.0
0
LINE
8
LINES
10
120.000000
20
454.000000
30
0.0
11
120.000000
21
408.000000
31
0.0
0
LINE
8
LINES
10
540.000000
20
243.000000
30
0.0
11
494.000000
21
243.000000
31
0.0
0
LINE
8
LINES
10
153.000000
20
921.000000
30
0.0
11
198.000000
21
921.000000
31
0.0
0
LINE
8
LINES
10
209.000000
20
572.000000
30
0.0
11
209.000000
21
617.000000
31
0.0
0
LINE
8
LINES
10
86.000000
20
179.000000
30
0.0
11
41.000000
21
179.000000
31
0.0
0
LINE
8
LINES
10
468.000000
20
561.000000
30
0.0
11
513.000000
21
561.000000
31
0.0
0
LINE
8
LINES
10
512.000000
20
412.000000
30
0.0
11
512.000000
21
457.000000
31
0.0
0
LINE
8
LINES
10
30.000000
20
563.000000
30
0.0
11
76.000000
21
563.000000
31
0.0
0
LINE
8
LINES
10
339.000000
20
528.000000
30
0.0
11
339.000000
21
483.000000
31
0.0
0
LINE
8
LINES
10
422.000000
20
483.000000
30
0.0
11
422.000000
21
529.000000
31
0.0
0
LINE
8
LINES
10
43.000000
20
886.000000
30
0.0
11
86.000000
21
880.000000
31
0.0
0
LINE
8
LINES
10
465.000000
20
81.000000
30
0.0
11
465.000000
21
126.000000
31
0.0
0
LINE
8
LINES
10
467.000000
20
411.000000
30
0.0
11
510.000000
21
411.000000
31
0.0
0
LINE
8
LINES
10
73.000000
20
456.000000
30
0.0
11
28.000000
21
456.000000
31
0.0
0
LINE
8
LINES
10
257.000000
20
558.000000
30
0.0
11
300.000000
21
558.000000
31
0.0
0
LINE
8
LINES
10
358.000000
20
916.000000
30
0.0
11
401.000000
21
916.000000
31
0.0
0
LINE
8
LINES
10
512.000000
20
457.000000
30
0.0
11
467.000000
21
457.000000
31
0.0
0
LINE
8
LINES
10
94.000000
20
62.000000
30
0.0
11
78.000000
21
22.000000
31
0.0
0
LINE
8
LINES
10
46.000000
20
835.000000
30
0.0
11
88.000000
21
835.000000
31
0.0
0
LINE
8
LINES
10
17.000000
20
174.000000
30
0.0
11
24.000000
21
217.000000
31
0.0
0
LINE
8
LINES
10
163.000000
20
148.000000
30
0.0
11
121.000000
21
148.000000
31
0.0
0
LINE
8
LINES
10
78.000000
20
758.000000
30
0.0
11
36.000000
21
758.000000
31
0.0
0
LINE
8
LINES
10
72.000000
20
380.000000
30
0.0
11
28.000000
21
380.000000
31
0.0
0
LINE
8
LINES
10
68.000000
20
304.000000
30
0.0
11
27.000000
21
304.000000
31
0.0
0
LINE
8
LINES
10
510.000000
20
382.000000
30
0.0
11
467.000000
21
382.000000
31
0.0
0
LINE
8
LINES
10
401.000000
20
912.000000
30
0.0
11
358.000000
21
912.000000
31
0.0
0
LINE
8
LINES
10
305.000000
20
3.000000
30
0.0
11
262.000000
21
3.000000
31
0.0
0
LINE
8
LINES
10
433.000000
20
6.000000
30
0.0
11
390.000000
21
6.000000
31
0.0
0
LINE
8
LINES
10
192.000000
20
793.000000
30
0.0
11
148.000000
21
793.000000
31
0.0
0
LINE
8
LINES
10
24.000000
20
217.000000
30
0.0
11
65.000000
21
217.000000
31
0.0
0
LINE
8
LINES
10
233.000000
20
332.000000
30
0.0
11
273.000000
21
332.000000
31
0.0
0
LINE
8
LINES
10
28.000000
20
296.000000
30
0.0
11
70.000000
21
296.000000
31
0.0
0
LINE
8
LINES
10
6.000000
20
728.000000
30
0.0
11
6.000000
21
769.000000
31
0.0
0
LINE
8
LINES
10
72.000000
20
532.000000
30
0.0
11
30.000000
21
532.000000
31
0.0
0
LINE
8
LINES
10
510.000000
20
780.000000
30
0.0
11
468.000000
21
780.000000
31
0.0
0
LINE
8
LINES
10
27.000000
20
332.000000
30
0.0
11
67.000000
21
332.000000
31
0.0
0
LINE
8
LINES
10
361.000000
20
716.000000
30
0.0
11
401.000000
21
716.000000
31
0.0
0
LINE
8
LINES
10
310.000000
20
633.000000
30
0.0
11
268.000000
21
633.000000
31
0.0
0
LINE
8
LINES
10
464.000000
20
982.000000
30
0.0
11
464.000000
21
942.000000
31
0.0
0
LINE
8
LINES
10
161.000000
20
630.000000
30
0.0
11
201.000000
21
630.000000
31
0.0
0
LINE
8
LINES
10
195.000000
20
918.000000
30
0.0
11
153.000000
21
918.000000
31
0.0
0
LINE
8
LINES
10
11.000000
20
963.000000
30
0.0
11
11.000000
21
1006.000000
31
0.0
0
LINE
8
LINES
10
470.000000
20
937.000000
30
0.0
11
512.000000
21
937.000000
31
0.0
0
LINE
8
LINES
10
473.000000
20
710.000000
30
0.0
11
515.000000
21
707.000000
31
0.0
0
LINE
8
LINES
10
540.000000
20
265.000000
30
0.0
11
537.000000
21
305.000000
31
0.0
0
LINE
8
LINES
10
508.000000
20
752.000000
30
0.0
11
467.000000
21
752.000000
31
0.0
0
LINE
8
LINES
10
30.000000
20
486.000000
30
0.0
11
70.000000
21
486.000000
31
0.0
0
LINE
8
LINES
10
510.000000
20
308.000000
30
0.0
11
470.000000
21
308.000000
31
0.0
0
LINE
8
LINES
10
204.000000
20
150.000000
30
0.0
11
163.000000
21
150.000000
31
0.0
0
LINE
8
LINES
10
273.000000
20
606.000000
30
0.0
11
233.000000
21
606.000000
31
0.0
0
LINE
8
LINES
10
379.000000
20
334.000000
30
0.0
11
419.000000
21
334.000000
31
0.0
0
LINE
8
LINES
10
472.000000
20
262.000000
30
0.0
11
512.000000
21
262.000000
31
0.0
0
LINE
8
LINES
10
43.000000
20
953.000000
30
0.0
11
83.000000
21
953.000000
31
0.0
0
LINE
8
LINES
10
260.000000
20
867.000000
30
0.0
11
249.000000
21
905.000000
31
0.0
0
LINE
8
LINES
10
470.000000
20
633.000000
30
0.0
11
508.000000
21
633.000000
31
0.0
0
LINE
8
LINES
10
44.000000
20
833.000000
30
0.0
11
44.000000
21
796.000000
31
0.0
0
LINE
8
LINES
10
236.000000
20
721.000000
30
0.0
11
236.000000
21
761.000000
31
0.0
0
LINE
8
LINES
10
472.000000
20
337.000000
30
0.0
11
510.000000
21
337.000000
31
0.0
0
LINE
8
LINES
10
233.000000
20
257.000000
30
0.0
11
272.000000
21
257.000000
31
0.0
0
LINE
8
LINES
10
123.000000
20
486.000000
30
0.0
11
161.000000
21
486.000000
31
0.0
0
LINE
8
LINES
10
345.000000
20
779.000000
30
0.0
11
384.000000
21
779.000000
31
0.0
0
LINE
8
LINES
10
313.000000
20
560.000000
30
0.0
11
275.000000
21
560.000000
31
0.0
0
LINE
8
LINES
10
321.000000
20
854.000000
30
0.0
11
281.000000
21
854.000000
31
0.0
0
LINE
8
LINES
10
425.000000
20
401.000000
30
0.0
11
425.000000
21
441.000000
31
0.0
0
LINE
8
LINES
10
33.000000
20
371.000000
30
0.0
11
27.000000
21
332.000000
31
0.0
0
LINE
8
LINES
10
516.000000
20
992.000000
30
0.0
11
478.000000
21
995.000000
31
0.0
0
LINE
8
LINES
10
168.000000
20
219.000000
30
0.0
11
168.000000
21
182.000000
31
0.0
0
LINE
8
LINES
10
124.000000
20
217.000000
30
0.0
11
124.000000
21
180.000000
31
0.0
0
LINE
8
LINES
10
203.000000
20
225.000000
30
0.0
11
166.000000
21
225.000000
31
0.0
0
LINE
8
LINES
10
380.000000
20
182.000000
30
0.0
11
417.000000
21
182.000000
31
0.0
0
LINE
8
LINES
10
340.000000
20
332.000000
30
0.0
11
377.000000
21
332.000000
31
0.0
0
LINE
8
LINES
10
40.000000
20
753.000000
30
0.0
11
40.000000
21
716.000000
31
0.0
0
LINE
8
LINES
10
273.000000
20
257.000000
30
0.0
11
310.000000
21
257.000000
31
0.0
0
LINE
8
LINES
10
467.000000
20
942.000000
30
0.0
11
504.000000
21
942.000000
31
0.0
0
LINE
8
LINES
10
382.000000
20
337.000000
30
0.0
11
382.000000
21
374.000000
31
0.0
0
LINE
8
LINES
10
121.000000
20
371.000000
30
0.0
11
158.000000
21
371.000000
31
0.0
0
LINE
8
LINES
10
134.000000
20
857.000000
30
0.0
11
97.000000
21
857.000000
31
0.0
0
LINE
8
LINES
10
33.000000
20
638.000000
30
0.0
11
70.000000
21
638.000000
31
0.0
0
LINE
8
LINES
10
35.000000
20
713.000000
30
0.0
11
72.000000
21
713.000000
31
0.0
0
LINE
8
LINES
10
534.000000
20
291.000000
30
0.0
11
534.000000
21
256.000000
31
0.0
0
LINE
8
LINES
10
340.000000
20
371.000000
30
0.0
11
377.000000
21
371.000000
31
0.0
0
LINE
8
LINES
10
233.000000
20
372.000000
30
0.0
11
268.000000
21
372.000000
31
0.0
0
LINE
8
LINES
10
68.000000
20
417.000000
30
0.0
11
33.000000
21
417.000000
31
0.0
0
LINE
8
LINES
10
278.000000
20
598.000000
30
0.0
11
278.000000
21
561.000000
31
0.0
0
LINE
8
LINES
10
254.000000
20
827.000000
30
0.0
11
291.000000
21
827.000000
31
0.0
0
LINE
8
LINES
10
142.000000
20
676.000000
30
0.0
11
142.000000
21
641.000000
31
0.0
0
LINE
8
LINES
10
315.000000
20
348.000000
30
0.0
11
315.000000
21
385.000000
31
0.0
0
LINE
8
LINES
10
36.000000
20
601.000000
30
0.0
11
36.000000
21
563.000000
31
0.0
0
LINE
8
LINES
10
126.000000
20
369.000000
30
0.0
11
126.000000
21
332.000000
31
0.0
0
LINE
8
LINES
10
267.000000
20
446.000000
30
0.0
11
267.000000
21
411.000000
31
0.0
0
LINE
8
LINES
10
206.000000
20
492.000000
30
0.0
11
206.000000
21
529.000000
31
0.0
0
LINE
8
LINES
10
228.000000
20
304.000000
30
0.0
11
228.000000
21
268.000000
31
0.0
0
LINE
8
LINES
10
3.000000
20
476.000000
30
0.0
11
3.000000
21
438.000000
31
0.0
0
LINE
8
LINES
10
472.000000
20
1008.000000
30
0.0
11
436.000000
21
1011.000000
31
0.0
0
LINE
8
LINES
10
158.000000
20
369.000000
30
0.0
11
161.000000
21
334.000000
31
0.0
0
LINE
8
LINES
10
308.000000
20
598.000000
30
0.0
11
313.000000
21
563.000000
31
0.0
0
LINE
8
LINES
10
163.000000
20
484.000000
30
0.0
11
198.000000
21
484.000000
31
0.0
0
LINE
8
LINES
10
508.000000
20
273.000000
30
0.0
11
508.000000
21
307.000000
31
0.0
0
LINE
8
LINES
10
113.000000
20
12.000000
30
0.0
11
113.000000
21
48.000000
31
0.0
0
LINE
8
LINES
10
505.000000
20
169.000000
30
0.0
11
540.000000
21
169.000000
31
0.0
0
LINE
8
LINES
10
33.000000
20
500.000000
30
0.0
11
68.000000
21
500.000000
31
0.0
0
LINE
8
LINES
10
68.000000
20
492.000000
30
0.0
11
33.000000
21
492.000000
31
0.0
0
LINE
8
LINES
10
504.000000
20
785.000000
30
0.0
11
504.000000
21
820.000000
31
0.0
0
LINE
8
LINES
10
340.000000
20
449.000000
30
0.0
11
376.000000
21
449.000000
31
0.0
0
LINE
8
LINES
10
236.000000
20
217.000000
30
0.0
11
236.000000
21
182.000000
31
0.0
0
LINE
8
LINES
10
67.000000
20
265.000000
30
0.0
11
32.000000
21
265.000000
31
0.0
0
LINE
8
LINES
10
416.000000
20
260.000000
30
0.0
11
416.000000
21
296.000000
31
0.0
0
LINE
8
LINES
10
508.000000
20
419.000000
30
0.0
11
473.000000
21
419.000000
31
0.0
0
LINE
8
LINES
10
342.000000
20
144.000000
30
0.0
11
342.000000
21
108.000000
31
0.0
0
LINE
8
LINES
10
385.000000
20
145.000000
30
0.0
11
385.000000
21
110.000000
31
0.0
0
LINE
8
LINES
10
385.000000
20
220.000000
30
0.0
11
385.000000
21
185.000000
31
0.0
0
LINE
8
LINES
10
166.000000
20
764.000000
30
0.0
11
201.000000
21
764.000000
31
0.0
0
LINE
8
LINES
10
385.000000
20
296.000000
30
0.0
11
385.000000
21
260.000000
31
0.0
0
LINE
8
LINES
10
472.000000
20
744.000000
30
0.0
11
472.000000
21
708.000000
31
0.0
0
LINE
8
LINES
10
62.000000
20
217.000000
30
0.0
11
62.000000
21
182.000000
31
0.0
0
LINE
8
LINES
10
270.000000
20
630.000000
30
0.0
11
305.000000
21
630.000000
31
0.0
0
LINE
8
LINES
10
121.000000
20
334.000000
30
0.0
11
121.000000
21
369.000000
31
0.0
0
LINE
8
LINES
10
339.000000
20
108.000000
30
0.0
11
339.000000
21
144.000000
31
0.0
0
LINE
8
LINES
10
299.000000
20
915.000000
30
0.0
11
264.000000
21
915.000000
31
0.0
0
LINE
8
LINES
10
233.000000
20
412.000000
30
0.0
11
233.000000
21
446.000000
31
0.0
0
LINE
8
LINES
10
382.000000
20
488.000000
30
0.0
11
382.000000
21
523.000000
31
0.0
0
LINE
8
LINES
10
164.000000
20
337.000000
30
0.0
11
164.000000
21
371.000000
31
0.0
0
LINE
8
LINES
10
164.000000
20
188.000000
30
0.0
11
161.000000
21
222.000000
31
0.0
0
LINE
8
LINES
10
472.000000
20
486.000000
30
0.0
11
505.000000
21
486.000000
31
0.0
0
LINE
8
LINES
10
310.000000
20
606.000000
30
0.0
11
276.000000
21
606.000000
31
0.0
0
LINE
8
LINES
10
385.000000
20
372.000000
30
0.0
11
419.000000
21
372.000000
31
0.0
0
LINE
8
LINES
10
473.000000
20
278.000000
30
0.0
11
508.000000
21
278.000000
31
0.0
0
LINE
8
LINES
10
145.000000
20
827.000000
30
0.0
11
145.000000
21
793.000000
31
0.0
0
LINE
8
LINES
10
160.000000
20
598.000000
30
0.0
11
163.000000
21
566.000000
31
0.0
0
LINE
8
LINES
10
347.000000
20
846.000000
30
0.0
11
313.000000
21
846.000000
31
0.0
0
LINE
8
LINES
10
473.000000
20
430.000000
30
0.0
11
507.000000
21
430.000000
31
0.0
0
LINE
8
LINES
10
33.000000
20
422.000000
30
0.0
11
67.000000
21
422.000000
31
0.0
0
LINE
8
LINES
10
36.000000
20
582.000000
30
0.0
11
70.000000
21
582.000000
31
0.0
0
LINE
8
LINES
10
195.000000
20
790.000000
30
0.0
11
195.000000
21
824.000000
31
0.0
0
LINE
8
LINES
10
355.000000
20
822.000000
30
0.0
11
355.000000
21
788.000000
31
0.0
0
LINE
8
LINES
10
508.000000
20
641.000000
30
0.0
11
473.000000
21
641.000000
31
0.0
0
LINE
8
LINES
10
259.000000
20
993.000000
30
0.0
11
259.000000
21
958.000000
31
0.0
0
LINE
8
LINES
10
124.000000
20
412.000000
30
0.0
11
124.000000
21
446.000000
31
0.0
0
LINE
8
LINES
10
313.000000
20
448.000000
30
0.0
11
313.000000
21
414.000000
31
0.0
0
LINE
8
LINES
10
232.000000
20
259.000000
30
0.0
11
232.000000
21
292.000000
31
0.0
0
LINE
8
LINES
10
339.000000
20
822.000000
30
0.0
11
339.000000
21
788.000000
31
0.0
0
LINE
8
LINES
10
337.000000
20
296.000000
30
0.0
11
337.000000
21
262.000000
31
0.0
0
LINE
8
LINES
10
350.000000
20
787.000000
30
0.0
11
350.000000
21
822.000000
31
0.0
0
LINE
8
LINES
10
340.000000
20
412.000000
30
0.0
11
340.000000
21
446.000000
31
0.0
0
LINE
8
LINES
10
176.000000
20
995.000000
30
0.0
11
142.000000
21
995.000000
31
0.0
0
LINE
8
LINES
10
233.000000
20
486.000000
30
0.0
11
233.000000
21
521.000000
31
0.0
0
LINE
8
LINES
10
140.000000
20
982.000000
30
0.0
11
140.000000
21
947.000000
31
0.0
0
LINE
8
LINES
10
121.000000
20
851.000000
30
0.0
11
88.000000
21
851.000000
31
0.0
0
LINE
8
LINES
10
380.000000
20
112.000000
30
0.0
11
380.000000
21
145.000000
31
0.0
0
LINE
8
LINES
10
91.000000
20
86.000000
30
0.0
11
88.000000
21
118.000000
31
0.0
0
LINE
8
LINES
10
456.000000
20
372.000000
30
0.0
11
488.000000
21
376.000000
31
0.0
0
LINE
8
LINES
10
473.000000
20
352.000000
30
0.0
11
507.000000
21
352.000000
31
0.0
0
LINE
8
LINES
10
507.000000
20
344.000000
30
0.0
11
473.000000
21
344.000000
31
0.0
0
LINE
8
LINES
10
507.000000
20
270.000000
30
0.0
11
473.000000
21
270.000000
31
0.0
0
LINE
8
LINES
10
470.000000
20
92.000000
30
0.0
11
470.000000
21
60.000000
31
0.0
0
LINE
8
LINES
10
89.000000
20
142.000000
30
0.0
11
89.000000
21
174.000000
31
0.0
0
LINE
8
LINES
10
278.000000
20
297.000000
30
0.0
11
310.000000
21
297.000000
31
0.0
0
LINE
8
LINES
10
448.000000
20
62.000000
30
0.0
11
451.000000
21
30.000000
31
0.0
0
LINE
8
LINES
10
121.000000
20
260.000000
30
0.0
11
121.000000
21
292.000000
31
0.0
0
LINE
8
LINES
10
232.000000
20
337.000000
30
0.0
11
232.000000
21
369.000000
31
0.0
0
LINE
8
LINES
10
473.000000
20
499.000000
30
0.0
11
507.000000
21
499.000000
31
0.0
0
LINE
8
LINES
10
33.000000
20
344.000000
30
0.0
11
65.000000
21
344.000000
31
0.0
0
LINE
8
LINES
10
505.000000
20
566.000000
30
0.0
11
473.000000
21
566.000000
31
0.0
0
LINE
8
LINES
10
65.000000
20
339.000000
30
0.0
11
33.000000
21
339.000000
31
0.0
0
LINE
8
LINES
10
96.000000
20
907.000000
30
0.0
11
96.000000
21
939.000000
31
0.0
0
LINE
8
LINES
10
419.000000
20
596.000000
30
0.0
11
419.000000
21
563.000000
31
0.0
0
LINE
8
LINES
10
139.000000
20
59.000000
30
0.0
11
139.000000
21
27.000000
31
0.0
0
LINE
8
LINES
10
456.000000
20
976.000000
30
0.0
11
456.000000
21
942.000000
31
0.0
0
LINE
8
LINES
10
161.000000
20
225.000000
30
0.0
11
129.000000
21
228.000000
31
0.0
0
LINE
8
LINES
10
472.000000
20
129.000000
30
0.0
11
468.000000
21
97.000000
31
0.0
0
LINE
8
LINES
10
275.000000
20
332.000000
30
0.0
11
307.000000
21
332.000000
31
0.0
0
LINE
8
LINES
10
345.000000
20
600.000000
30
0.0
11
377.000000
21
600.000000
31
0.0
0
LINE
8
LINES
10
344.000000
20
425.000000
30
0.0
11
376.000000
21
425.000000
31
0.0
0
LINE
8
LINES
10
473.000000
20
572.000000
30
0.0
11
505.000000
21
572.000000
31
0.0
0
LINE
8
LINES
10
128.000000
20
425.000000
30
0.0
11
158.000000
21
425.000000
31
0.0
0
LINE
8
LINES
10
236.000000
20
353.000000
30
0.0
11
268.000000
21
353.000000
31
0.0
0
LINE
8
LINES
10
129.000000
20
500.000000
30
0.0
11
161.000000
21
500.000000
31
0.0
0
LINE
8
LINES
10
43.000000
20
721.000000
30
0.0
11
43.000000
21
752.000000
31
0.0
0
LINE
8
LINES
10
278.000000
20
353.000000
30
0.0
11
308.000000
21
353.000000
31
0.0
0
LINE
8
LINES
10
355.000000
20
668.000000
30
0.0
11
355.000000
21
636.000000
31
0.0
0
LINE
8
LINES
10
342.000000
20
502.000000
30
0.0
11
374.000000
21
502.000000
31
0.0
0
LINE
8
LINES
10
228.000000
20
868.000000
30
0.0
11
260.000000
21
868.000000
31
0.0
0
LINE
8
LINES
10
355.000000
20
742.000000
30
0.0
11
355.000000
21
712.000000
31
0.0
0
LINE
8
LINES
10
472.000000
20
785.000000
30
0.0
11
502.000000
21
785.000000
31
0.0
0
LINE
8
LINES
10
505.000000
20
494.000000
30
0.0
11
473.000000
21
494.000000
31
0.0
0
LINE
8
LINES
10
67.000000
20
182.000000
30
0.0
11
67.000000
21
214.000000
31
0.0
0
LINE
8
LINES
10
161.000000
20
446.000000
30
0.0
11
158.000000
21
416.000000
31
0.0
0
LINE
8
LINES
10
243.000000
20
62.000000
30
0.0
11
243.000000
21
30.000000
31
0.0
0
LINE
8
LINES
10
259.000000
20
886.000000
30
0.0
11
273.000000
21
857.000000
31
0.0
0
LINE
8
LINES
10
457.000000
20
699.000000
30
0.0
11
488.000000
21
699.000000
31
0.0
0
LINE
8
LINES
10
268.000000
20
926.000000
30
0.0
11
300.000000
21
926.000000
31
0.0
0
LINE
8
LINES
10
68.000000
20
574.000000
30
0.0
11
38.000000
21
574.000000
31
0.0
0
LINE
8
LINES
10
91.000000
20
980.000000
30
0.0
11
91.000000
21
948.000000
31
0.0
0
LINE
8
LINES
10
201.000000
20
417.000000
30
0.0
11
171.000000
21
417.000000
31
0.0
0
LINE
8
LINES
10
516.000000
20
1006.000000
30
0.0
11
486.000000
21
1006.000000
31
0.0
0
LINE
8
LINES
10
238.000000
20
422.000000
30
0.0
11
268.000000
21
422.000000
31
0.0
0
LINE
8
LINES
10
268.000000
20
652.000000
30
0.0
11
299.000000
21
652.000000
31
0.0
0
LINE
8
LINES
10
387.000000
20
425.000000
30
0.0
11
417.000000
21
425.000000
31
0.0
0
LINE
8
LINES
10
278.000000
20
281.000000
30
0.0
11
308.000000
21
281.000000
31
0.0
0
LINE
8
LINES
10
171.000000
20
425.000000
30
0.0
11
201.000000
21
425.000000
31
0.0
0
LINE
8
LINES
10
345.000000
20
353.000000
30
0.0
11
376.000000
21
353.000000
31
0.0
0
LINE
8
LINES
10
4.000000
20
668.000000
30
0.0
11
4.000000
21
697.000000
31
0.0
0
LINE
8
LINES
10
57.000000
20
750.000000
30
0.0
11
57.000000
21
721.000000
31
0.0
0
LINE
8
LINES
10
265.000000
20
718.000000
30
0.0
11
265.000000
21
748.000000
31
0.0
0
LINE
8
LINES
10
201.000000
20
491.000000
30
0.0
11
172.000000
21
491.000000
31
0.0
0
LINE
8
LINES
10
291.000000
20
718.000000
30
0.0
11
291.000000
21
748.000000
31
0.0
0
LINE
8
LINES
10
142.000000
20
745.000000
30
0.0
11
142.000000
21
716.000000
31
0.0
0
LINE
8
LINES
10
158.000000
20
264.000000
30
0.0
11
128.000000
21
264.000000
31
0.0
0
LINE
8
LINES
10
396.000000
20
718.000000
30
0.0
11
396.000000
21
748.000000
31
0.0
0
LINE
8
LINES
10
504.000000
20
192.000000
30
0.0
11
504.000000
21
222.000000
31
0.0
0
LINE
8
LINES
10
68.000000
20
644.000000
30
0.0
11
38.000000
21
644.000000
31
0.0
0
LINE
8
LINES
10
276.000000
20
532.000000
30
0.0
11
307.000000
21
532.000000
31
0.0
0
LINE
8
LINES
10
67.000000
20
569.000000
30
0.0
11
38.000000
21
569.000000
31
0.0
0
LINE
8
LINES
10
4.000000
20
883.000000
30
0.0
11
4.000000
21
913.000000
31
0.0
0
LINE
8
LINES
10
419.000000
20
368.000000
30
0.0
11
419.000000
21
337.000000
31
0.0
0
LINE
8
LINES
10
312.000000
20
142.000000
30
0.0
11
312.000000
21
113.000000
31
0.0
0
LINE
8
LINES
10
243.000000
20
993.000000
30
0.0
11
243.000000
21
963.000000
31
0.0
0
LINE
8
LINES
10
380.000000
20
947.000000
30
0.0
11
380.000000
21
916.000000
31
0.0
0
LINE
8
LINES
10
406.000000
20
953.000000
30
0.0
11
406.000000
21
924.000000
31
0.0
0
LINE
8
LINES
10
203.000000
20
961.000000
30
0.0
11
203.000000
21
931.000000
31
0.0
0
ENDSEC
0
EOF
