0
SECTION
2
ENTITIES
0
LWPOLYLINE
8
FACADE_OUTLINE
90
4
70
1
10
0.000000
20
0.000000
10
858.000000
20
0.000000
10
858.000000
20
1024.000000
10
0.000000
20
1024.000000
0
LWPOLYLINE
8
WINDOWS
90
4
70
1
10
465.000000
20
0.000000
10
857.000000
20
0.000000
10
857.000000
20
193.000000
10
465.000000
20
193.000000
0
LWPOLYLINE
8
WINDOWS
90
4
70
1
10
0.000000
20
46.000000
10
857.000000
20
46.000000
10
857.000000
20
646.000000
10
0.000000
20
646.000000
0
LWPOLYLINE
8
WINDOWS
90
4
70
1
10
480.000000
20
46.000000
10
574.000000
20
46.000000
10
574.000000
20
94.000000
10
480.000000
20
94.000000
0
LWPOLYLINE
8
WINDOWS
90
4
70
1
10
526.000000
20
190.000000
10
619.000000
20
190.000000
10
619.000000
20
310.000000
10
526.000000
20
310.000000
0
LWPOLYLINE
8
WINDOWS
90
4
70
1
10
147.000000
20
190.000000
10
241.000000
20
190.000000
10
241.000000
20
310.000000
10
147.000000
20
310.000000
0
LWPOLYLINE
8
WINDOWS
90
4
70
1
10
337.000000
20
190.000000
10
430.000000
20
190.000000
10
430.000000
20
310.000000
10
337.000000
20
310.000000
0
LWPOLYLINE
8
WINDOWS
90
4
70
1
10
497.000000
20
374.000000
10
529.000000
20
374.000000
10
529.000000
20
430.000000
10
497.000000
20
430.000000
0
LWPOLYLINE
8
WINDOWS
90
4
70
1
10
155.000000
20
420.000000
10
857.000000
20
420.000000
10
857.000000
20
1024.000000
10
155.000000
20
1024.000000
0
LWPOLYLINE
8
WINDOWS
90
4
70
1
10
142.000000
20
539.000000
10
316.000000
20
539.000000
10
316.000000
20
646.000000
10
142.000000
20
646.000000
0
LWPOLYLINE
8
WINDOWS
90
4
70
1
10
320.000000
20
710.000000
10
387.000000
20
710.000000
10
387.000000
20
800.000000
10
320.000000
20
800.000000
0
LWPOLYLINE
8
WINDOWS
90
4
70
1
10
390.000000
20
710.000000
10
481.000000
20
710.000000
10
481.000000
20
800.000000
10
390.000000
20
800.000000
0
LWPOLYLINE
8
WINDOWS
90
4
70
1
10
484.000000
20
710.000000
10
550.000000
20
710.000000
10
550.000000
20
800.000000
10
484.000000
20
800.000000
0
LWPOLYLINE
8
WINDOWS
90
4
70
1
10
579.000000
20
710.000000
10
643.000000
20
710.000000
10
643.000000
20
800.000000
10
579.000000
20
800.000000
0
LWPOLYLINE
8
WINDOWS
90
4
70
1
10
675.000000
20
710.000000
10
736.000000
20
710.000000
10
736.000000
20
800.000000
10
675.000000
20
800.000000
0
LWPOLYLINE
8
DOORS
90
4
70
1
10
0.000000
20
184.000000
10
308.000000
20
184.000000
10
308.000000
20
1024.000000
10
0.000000
20
1024.000000
0
LINE
8
LINES
10
4.000000
20
182.000000
30
0.0
11
238.000000
21
1022.000000
31
0.0
0
LINE
8
LINES
10
147.000000
20
675.000000
30
0.0
11
787.000000
21
675.000000
31
0.0
0
LINE
8
LINES
10
782.000000
20
660.000000
30
0.0
11
144.000000
21
660.000000
31
0.0
0
LINE
8
LINES
10
790.000000
20
1009.000000
30
0.0
11
854.000000
21
419.000000
31
0.0
0
LINE
8
LINES
10
323.000000
20
627.000000
30
0.0
11
323.000000
21
102.000000
31
0.0
0
LINE
8
LINES
10
793.000000
20
820.000000
30
0.0
11
316.000000
21
820.000000
31
0.0
0
LINE
8
LINES
10
321.000000
20
177.000000
30
0.0
11
792.000000
21
177.000000
31
0.0
0
LINE
8
LINES
10
323.000000
20
817.000000
30
0.0
11
793.000000
21
817.000000
31
0.0
0
LINE
8
LINES
10
323.000000
20
804.000000
30
0.0
11
793.000000
21
804.000000
31
0.0
0
LINE
8
LINES
10
793.000000
20
808.000000
30
0.0
11
323.000000
21
808.000000
31
0.0
0
LINE
8
LINES
10
793.000000
20
635.000000
30
0.0
11
323.000000
21
635.000000
31
0.0
0
LINE
8
LINES
10
793.000000
20
644.000000
30
0.0
11
326.000000
21
644.000000
31
0.0
0
LINE
8
LINES
10
793.000000
20
344.000000
30
0.0
11
326.000000
21
344.000000
31
0.0
0
LINE
8
LINES
10
784.000000
20
672.000000
30
0.0
11
318.000000
21
672.000000
31
0.0
0
LINE
8
LINES
10
342.000000
20
828.000000
30
0.0
11
806.000000
21
828.000000
31
0.0
0
LINE
8
LINES
10
323.000000
20
336.000000
30
0.0
11
787.000000
21
336.000000
31
0.0
0
LINE
8
LINES
10
785.000000
20
332.000000
30
0.0
11
323.000000
21
332.000000
31
0.0
0
LINE
8
LINES
10
328.000000
20
168.000000
30
0.0
11
788.000000
21
168.000000
31
0.0
0
LINE
8
LINES
10
782.000000
20
324.000000
30
0.0
11
321.000000
21
324.000000
31
0.0
0
LINE
8
LINES
10
323.000000
20
659.000000
30
0.0
11
780.000000
21
659.000000
31
0.0
0
LINE
8
LINES
10
777.000000
20
169.000000
30
0.0
11
321.000000
21
169.000000
31
0.0
0
LINE
8
LINES
10
779.000000
20
656.000000
30
0.0
11
323.000000
21
656.000000
31
0.0
0
LINE
8
LINES
10
342.000000
20
979.000000
30
0.0
11
793.000000
21
979.000000
31
0.0
0
LINE
8
LINES
10
342.000000
20
1014.000000
30
0.0
11
792.000000
21
1014.000000
31
0.0
0
LINE
8
LINES
10
342.000000
20
840.000000
30
0.0
11
788.000000
21
840.000000
31
0.0
0
LINE
8
LINES
10
347.000000
20
636.000000
30
0.0
11
792.000000
21
636.000000
31
0.0
0
LINE
8
LINES
10
348.000000
20
849.000000
30
0.0
11
793.000000
21
849.000000
31
0.0
0
LINE
8
LINES
10
788.000000
20
835.000000
30
0.0
11
344.000000
21
835.000000
31
0.0
0
LINE
8
LINES
10
792.000000
20
844.000000
30
0.0
11
347.000000
21
844.000000
31
0.0
0
LINE
8
LINES
10
854.000000
20
193.000000
30
0.0
11
462.000000
21
1.000000
31
0.0
0
LINE
8
LINES
10
747.000000
20
142.000000
30
0.0
11
321.000000
21
142.000000
31
0.0
0
LINE
8
LINES
10
313.000000
20
129.000000
30
0.0
11
718.000000
21
129.000000
31
0.0
0
LINE
8
LINES
10
340.000000
20
995.000000
30
0.0
11
742.000000
21
995.000000
31
0.0
0
LINE
8
LINES
10
742.000000
20
1000.000000
30
0.0
11
340.000000
21
1000.000000
31
0.0
0
LINE
8
LINES
10
740.000000
20
984.000000
30
0.0
11
342.000000
21
984.000000
31
0.0
0
LINE
8
LINES
10
707.000000
20
124.000000
30
0.0
11
313.000000
21
124.000000
31
0.0
0
LINE
8
LINES
10
307.000000
20
99.000000
30
0.0
11
641.000000
21
99.000000
31
0.0
0
LINE
8
LINES
10
366.000000
20
652.000000
30
0.0
11
692.000000
21
652.000000
31
0.0
0
LINE
8
LINES
10
627.000000
20
108.000000
30
0.0
11
302.000000
21
108.000000
31
0.0
0
LINE
8
LINES
10
353.000000
20
1001.000000
30
0.0
11
673.000000
21
1001.000000
31
0.0
0
LINE
8
LINES
10
310.000000
20
172.000000
30
0.0
11
1.000000
21
172.000000
31
0.0
0
LINE
8
LINES
10
310.000000
20
145.000000
30
0.0
11
1.000000
21
145.000000
31
0.0
0
LINE
8
LINES
10
1.000000
20
150.000000
30
0.0
11
308.000000
21
150.000000
31
0.0
0
LINE
8
LINES
10
1.000000
20
131.000000
30
0.0
11
304.000000
21
131.000000
31
0.0
0
LINE
8
LINES
10
297.000000
20
107.000000
30
0.0
11
1.000000
21
107.000000
31
0.0
0
LINE
8
LINES
10
1.000000
20
112.000000
30
0.0
11
296.000000
21
112.000000
31
0.0
0
LINE
8
LINES
10
1.000000
20
105.000000
30
0.0
11
291.000000
21
105.000000
31
0.0
0
LINE
8
LINES
10
49.000000
20
337.000000
30
0.0
11
313.000000
21
337.000000
31
0.0
0
LINE
8
LINES
10
313.000000
20
334.000000
30
0.0
11
49.000000
21
334.000000
31
0.0
0
LINE
8
LINES
10
307.000000
20
326.000000
30
0.0
11
46.000000
21
326.000000
31
0.0
0
LINE
8
LINES
10
313.000000
20
345.000000
30
0.0
11
51.000000
21
345.000000
31
0.0
0
LINE
8
LINES
10
374.000000
20
985.000000
30
0.0
11
636.000000
21
985.000000
31
0.0
0
LINE
8
LINES
10
793.000000
20
851.000000
30
0.0
11
540.000000
21
851.000000
31
0.0
0
LINE
8
LINES
10
321.000000
20
148.000000
30
0.0
11
566.000000
21
148.000000
31
0.0
0
LINE
8
LINES
10
304.000000
20
126.000000
30
0.0
11
97.000000
21
126.000000
31
0.0
0
LINE
8
LINES
10
536.000000
20
851.000000
30
0.0
11
342.000000
21
851.000000
31
0.0
0
LINE
8
LINES
10
566.000000
20
707.000000
30
0.0
11
753.000000
21
707.000000
31
0.0
0
LINE
8
LINES
10
332.000000
20
182.000000
30
0.0
11
518.000000
21
182.000000
31
0.0
0
LINE
8
LINES
10
1.000000
20
177.000000
30
0.0
11
185.000000
21
177.000000
31
0.0
0
LINE
8
LINES
10
316.000000
20
636.000000
30
0.0
11
136.000000
21
636.000000
31
0.0
0
LINE
8
LINES
10
657.000000
20
1014.000000
30
0.0
11
478.000000
21
1014.000000
31
0.0
0
LINE
8
LINES
10
316.000000
20
644.000000
30
0.0
11
137.000000
21
644.000000
31
0.0
0
LINE
8
LINES
10
1.000000
20
169.000000
30
0.0
11
176.000000
21
169.000000
31
0.0
0
LINE
8
LINES
10
142.000000
20
659.000000
30
0.0
11
316.000000
21
659.000000
31
0.0
0
LINE
8
LINES
10
140.000000
20
654.000000
30
0.0
11
313.000000
21
654.000000
31
0.0
0
LINE
8
LINES
10
313.000000
20
656.000000
30
0.0
11
142.000000
21
656.000000
31
0.0
0
LINE
8
LINES
10
316.000000
20
673.000000
30
0.0
11
147.000000
21
673.000000
31
0.0
0
LINE
8
LINES
10
121.000000
20
323.000000
30
0.0
11
286.000000
21
323.000000
31
0.0
0
LINE
8
LINES
10
793.000000
20
969.000000
30
0.0
11
633.000000
21
969.000000
31
0.0
0
LINE
8
LINES
10
156.000000
20
707.000000
30
0.0
11
313.000000
21
707.000000
31
0.0
0
LINE
8
LINES
10
323.000000
20
707.000000
30
0.0
11
468.000000
21
707.000000
31
0.0
0
LINE
8
LINES
10
318.000000
20
180.000000
30
0.0
11
318.000000
21
321.000000
31
0.0
0
LINE
8
LINES
10
332.000000
20
830.000000
30
0.0
11
192.000000
21
830.000000
31
0.0
0
LINE
8
LINES
10
187.000000
20
827.000000
30
0.0
11
318.000000
21
827.000000
31
0.0
0
LINE
8
LINES
10
182.000000
20
806.000000
30
0.0
11
313.000000
21
806.000000
31
0.0
0
LINE
8
LINES
10
696.000000
20
651.000000
30
0.0
11
825.000000
21
651.000000
31
0.0
0
LINE
8
LINES
10
313.000000
20
808.000000
30
0.0
11
182.000000
21
808.000000
31
0.0
0
LINE
8
LINES
10
184.000000
20
817.000000
30
0.0
11
313.000000
21
817.000000
31
0.0
0
LINE
8
LINES
10
313.000000
20
819.000000
30
0.0
11
185.000000
21
819.000000
31
0.0
0
LINE
8
LINES
10
204.000000
20
838.000000
30
0.0
11
331.000000
21
838.000000
31
0.0
0
LINE
8
LINES
10
188.000000
20
177.000000
30
0.0
11
310.000000
21
177.000000
31
0.0
0
LINE
8
LINES
10
209.000000
20
868.000000
30
0.0
11
326.000000
21
868.000000
31
0.0
0
LINE
8
LINES
10
326.000000
20
862.000000
30
0.0
11
208.000000
21
862.000000
31
0.0
0
LINE
8
LINES
10
656.000000
20
118.000000
30
0.0
11
545.000000
21
118.000000
31
0.0
0
LINE
8
LINES
10
12.000000
20
49.000000
30
0.0
11
121.000000
21
49.000000
31
0.0
0
LINE
8
LINES
10
172.000000
20
49.000000
30
0.0
11
278.000000
21
49.000000
31
0.0
0
LINE
8
LINES
10
417.000000
20
121.000000
30
0.0
11
312.000000
21
121.000000
31
0.0
0
LINE
8
LINES
10
328.000000
20
49.000000
30
0.0
11
433.000000
21
49.000000
31
0.0
0
LINE
8
LINES
10
147.000000
20
302.000000
30
0.0
11
147.000000
21
196.000000
31
0.0
0
LINE
8
LINES
10
716.000000
20
297.000000
30
0.0
11
716.000000
21
193.000000
31
0.0
0
LINE
8
LINES
10
526.000000
20
299.000000
30
0.0
11
526.000000
21
195.000000
31
0.0
0
LINE
8
LINES
10
620.000000
20
299.000000
30
0.0
11
620.000000
21
195.000000
31
0.0
0
LINE
8
LINES
10
784.000000
20
193.000000
30
0.0
11
784.000000
21
297.000000
31
0.0
0
LINE
8
LINES
10
432.000000
20
300.000000
30
0.0
11
432.000000
21
196.000000
31
0.0
0
LINE
8
LINES
10
243.000000
20
300.000000
30
0.0
11
243.000000
21
196.000000
31
0.0
0
LINE
8
LINES
10
337.000000
20
299.000000
30
0.0
11
337.000000
21
195.000000
31
0.0
0
LINE
8
LINES
10
54.000000
20
300.000000
30
0.0
11
54.000000
21
196.000000
31
0.0
0
LINE
8
LINES
10
121.000000
20
195.000000
30
0.0
11
121.000000
21
297.000000
31
0.0
0
LINE
8
LINES
10
500.000000
20
195.000000
30
0.0
11
500.000000
21
296.000000
31
0.0
0
LINE
8
LINES
10
689.000000
20
195.000000
30
0.0
11
689.000000
21
296.000000
31
0.0
0
LINE
8
LINES
10
404.000000
20
196.000000
30
0.0
11
404.000000
21
297.000000
31
0.0
0
LINE
8
LINES
10
216.000000
20
196.000000
30
0.0
11
216.000000
21
297.000000
31
0.0
0
LINE
8
LINES
10
593.000000
20
196.000000
30
0.0
11
593.000000
21
297.000000
31
0.0
0
LINE
8
LINES
10
222.000000
20
121.000000
30
0.0
11
121.000000
21
121.000000
31
0.0
0
LINE
8
LINES
10
227.000000
20
982.000000
30
0.0
11
326.000000
21
982.000000
31
0.0
0
LINE
8
LINES
10
310.000000
20
198.000000
30
0.0
11
310.000000
21
297.000000
31
0.0
0
LINE
8
LINES
10
99.000000
20
126.000000
30
0.0
11
1.000000
21
126.000000
31
0.0
0
LINE
8
LINES
10
577.000000
20
147.000000
30
0.0
11
673.000000
21
147.000000
31
0.0
0
LINE
8
LINES
10
584.000000
20
462.000000
30
0.0
11
488.000000
21
462.000000
31
0.0
0
LINE
8
LINES
10
582.000000
20
969.000000
30
0.0
11
486.000000
21
969.000000
31
0.0
0
LINE
8
LINES
10
492.000000
20
633.000000
30
0.0
11
492.000000
21
539.000000
31
0.0
0
LINE
8
LINES
10
153.000000
20
204.000000
30
0.0
11
153.000000
21
297.000000
31
0.0
0
LINE
8
LINES
10
521.000000
20
180.000000
30
0.0
11
616.000000
21
180.000000
31
0.0
0
LINE
8
LINES
10
489.000000
20
467.000000
30
0.0
11
582.000000
21
467.000000
31
0.0
0
LINE
8
LINES
10
345.000000
20
371.000000
30
0.0
11
345.000000
21
464.000000
31
0.0
0
LINE
8
LINES
10
628.000000
20
372.000000
30
0.0
11
628.000000
21
465.000000
31
0.0
0
LINE
8
LINES
10
627.000000
20
801.000000
30
0.0
11
536.000000
21
801.000000
31
0.0
0
LINE
8
LINES
10
142.000000
20
182.000000
30
0.0
11
233.000000
21
182.000000
31
0.0
0
LINE
8
LINES
10
486.000000
20
321.000000
30
0.0
11
577.000000
21
321.000000
31
0.0
0
LINE
8
LINES
10
721.000000
20
542.000000
30
0.0
11
721.000000
21
633.000000
31
0.0
0
LINE
8
LINES
10
251.000000
20
372.000000
30
0.0
11
251.000000
21
464.000000
31
0.0
0
LINE
8
LINES
10
777.000000
20
632.000000
30
0.0
11
777.000000
21
540.000000
31
0.0
0
LINE
8
LINES
10
681.000000
20
630.000000
30
0.0
11
681.000000
21
539.000000
31
0.0
0
LINE
8
LINES
10
532.000000
20
800.000000
30
0.0
11
441.000000
21
800.000000
31
0.0
0
LINE
8
LINES
10
451.000000
20
798.000000
30
0.0
11
542.000000
21
798.000000
31
0.0
0
LINE
8
LINES
10
424.000000
20
185.000000
30
0.0
11
332.000000
21
185.000000
31
0.0
0
LINE
8
LINES
10
206.000000
20
464.000000
30
0.0
11
206.000000
21
372.000000
31
0.0
0
LINE
8
LINES
10
302.000000
20
632.000000
30
0.0
11
302.000000
21
540.000000
31
0.0
0
LINE
8
LINES
10
675.000000
20
321.000000
30
0.0
11
766.000000
21
321.000000
31
0.0
0
LINE
8
LINES
10
723.000000
20
372.000000
30
0.0
11
723.000000
21
462.000000
31
0.0
0
LINE
8
LINES
10
398.000000
20
299.000000
30
0.0
11
398.000000
21
209.000000
31
0.0
0
LINE
8
LINES
10
48.000000
20
182.000000
30
0.0
11
137.000000
21
182.000000
31
0.0
0
LINE
8
LINES
10
233.000000
20
185.000000
30
0.0
11
142.000000
21
185.000000
31
0.0
0
LINE
8
LINES
10
302.000000
20
464.000000
30
0.0
11
302.000000
21
374.000000
31
0.0
0
LINE
8
LINES
10
156.000000
20
374.000000
30
0.0
11
156.000000
21
464.000000
31
0.0
0
LINE
8
LINES
10
344.000000
20
208.000000
30
0.0
11
344.000000
21
297.000000
31
0.0
0
LINE
8
LINES
10
627.000000
20
544.000000
30
0.0
11
627.000000
21
633.000000
31
0.0
0
LINE
8
LINES
10
398.000000
20
632.000000
30
0.0
11
398.000000
21
542.000000
31
0.0
0
LINE
8
LINES
10
246.000000
20
544.000000
30
0.0
11
246.000000
21
633.000000
31
0.0
0
LINE
8
LINES
10
137.000000
20
185.000000
30
0.0
11
49.000000
21
185.000000
31
0.0
0
LINE
8
LINES
10
436.000000
20
544.000000
30
0.0
11
436.000000
21
632.000000
31
0.0
0
LINE
8
LINES
10
769.000000
20
878.000000
30
0.0
11
769.000000
21
966.000000
31
0.0
0
LINE
8
LINES
10
316.000000
20
988.000000
30
0.0
11
227.000000
21
988.000000
31
0.0
0
LINE
8
LINES
10
209.000000
20
633.000000
30
0.0
11
209.000000
21
545.000000
31
0.0
0
LINE
8
LINES
10
390.000000
20
878.000000
30
0.0
11
390.000000
21
966.000000
31
0.0
0
LINE
8
LINES
10
486.000000
20
881.000000
30
0.0
11
486.000000
21
966.000000
31
0.0
0
LINE
8
LINES
10
342.000000
20
545.000000
30
0.0
11
342.000000
21
632.000000
31
0.0
0
LINE
8
LINES
10
430.000000
20
70.000000
30
0.0
11
344.000000
21
70.000000
31
0.0
0
LINE
8
LINES
10
310.000000
20
979.000000
30
0.0
11
224.000000
21
971.000000
31
0.0
0
LINE
8
LINES
10
478.000000
20
46.000000
30
0.0
11
563.000000
21
46.000000
31
0.0
0
LINE
8
LINES
10
675.000000
20
881.000000
30
0.0
11
675.000000
21
966.000000
31
0.0
0
LINE
8
LINES
10
580.000000
20
881.000000
30
0.0
11
580.000000
21
966.000000
31
0.0
0
LINE
8
LINES
10
531.000000
20
547.000000
30
0.0
11
531.000000
21
633.000000
31
0.0
0
LINE
8
LINES
10
588.000000
20
632.000000
30
0.0
11
588.000000
21
547.000000
31
0.0
0
LINE
8
LINES
10
683.000000
20
796.000000
30
0.0
11
768.000000
21
796.000000
31
0.0
0
LINE
8
LINES
10
472.000000
20
707.000000
30
0.0
11
556.000000
21
707.000000
31
0.0
0
LINE
8
LINES
10
696.000000
20
329.000000
30
0.0
11
780.000000
21
329.000000
31
0.0
0
LINE
8
LINES
10
278.000000
20
70.000000
30
0.0
11
193.000000
21
70.000000
31
0.0
0
LINE
8
LINES
10
249.000000
20
214.000000
30
0.0
11
249.000000
21
297.000000
31
0.0
0
LINE
8
LINES
10
553.000000
20
699.000000
30
0.0
11
470.000000
21
699.000000
31
0.0
0
LINE
8
LINES
10
459.000000
20
699.000000
30
0.0
11
376.000000
21
699.000000
31
0.0
0
LINE
8
LINES
10
268.000000
20
699.000000
30
0.0
11
185.000000
21
699.000000
31
0.0
0
LINE
8
LINES
10
776.000000
20
297.000000
30
0.0
11
776.000000
21
216.000000
31
0.0
0
LINE
8
LINES
10
441.000000
20
382.000000
30
0.0
11
441.000000
21
464.000000
31
0.0
0
LINE
8
LINES
10
681.000000
20
297.000000
30
0.0
11
681.000000
21
216.000000
31
0.0
0
LINE
8
LINES
10
587.000000
20
299.000000
30
0.0
11
587.000000
21
217.000000
31
0.0
0
LINE
8
LINES
10
627.000000
20
216.000000
30
0.0
11
627.000000
21
297.000000
31
0.0
0
LINE
8
LINES
10
302.000000
20
299.000000
30
0.0
11
302.000000
21
217.000000
31
0.0
0
LINE
8
LINES
10
648.000000
20
699.000000
30
0.0
11
566.000000
21
699.000000
31
0.0
0
LINE
8
LINES
10
742.000000
20
699.000000
30
0.0
11
660.000000
21
699.000000
31
0.0
0
LINE
8
LINES
10
115.000000
20
299.000000
30
0.0
11
115.000000
21
217.000000
31
0.0
0
LINE
8
LINES
10
60.000000
20
216.000000
30
0.0
11
60.000000
21
297.000000
31
0.0
0
LINE
8
LINES
10
396.000000
20
796.000000
30
0.0
11
396.000000
21
713.000000
31
0.0
0
LINE
8
LINES
10
243.000000
20
859.000000
30
0.0
11
326.000000
21
859.000000
31
0.0
0
LINE
8
LINES
10
508.000000
20
120.000000
30
0.0
11
425.000000
21
120.000000
31
0.0
0
LINE
8
LINES
10
233.000000
20
276.000000
30
0.0
11
233.000000
21
193.000000
31
0.0
0
LINE
8
LINES
10
582.000000
20
68.000000
30
0.0
11
500.000000
21
68.000000
31
0.0
0
LINE
8
LINES
10
112.000000
20
456.000000
30
0.0
11
112.000000
21
374.000000
31
0.0
0
LINE
8
LINES
10
675.000000
20
716.000000
30
0.0
11
675.000000
21
796.000000
31
0.0
0
LINE
8
LINES
10
729.000000
20
796.000000
30
0.0
11
729.000000
21
716.000000
31
0.0
0
LINE
8
LINES
10
774.000000
20
464.000000
30
0.0
11
774.000000
21
382.000000
31
0.0
0
LINE
8
LINES
10
723.000000
20
217.000000
30
0.0
11
723.000000
21
297.000000
31
0.0
0
LINE
8
LINES
10
636.000000
20
796.000000
30
0.0
11
636.000000
21
716.000000
31
0.0
0
LINE
8
LINES
10
532.000000
20
217.000000
30
0.0
11
532.000000
21
297.000000
31
0.0
0
LINE
8
LINES
10
492.000000
20
299.000000
30
0.0
11
492.000000
21
217.000000
31
0.0
0
LINE
8
LINES
10
209.000000
20
299.000000
30
0.0
11
209.000000
21
217.000000
31
0.0
0
LINE
8
LINES
10
566.000000
20
694.000000
30
0.0
11
648.000000
21
694.000000
31
0.0
0
LINE
8
LINES
10
472.000000
20
694.000000
30
0.0
11
553.000000
21
694.000000
31
0.0
0
LINE
8
LINES
10
660.000000
20
694.000000
30
0.0
11
742.000000
21
694.000000
31
0.0
0
LINE
8
LINES
10
377.000000
20
694.000000
30
0.0
11
457.000000
21
694.000000
31
0.0
0
LINE
8
LINES
10
187.000000
20
694.000000
30
0.0
11
268.000000
21
694.000000
31
0.0
0
LINE
8
LINES
10
123.000000
20
73.000000
30
0.0
11
41.000000
21
73.000000
31
0.0
0
LINE
8
LINES
10
300.000000
20
796.000000
30
0.0
11
300.000000
21
716.000000
31
0.0
0
LINE
8
LINES
10
206.000000
20
796.000000
30
0.0
11
206.000000
21
716.000000
31
0.0
0
LINE
8
LINES
10
547.000000
20
633.000000
30
0.0
11
540.000000
21
553.000000
31
0.0
0
LINE
8
LINES
10
732.000000
20
633.000000
30
0.0
11
732.000000
21
553.000000
31
0.0
0
LINE
8
LINES
10
449.000000
20
796.000000
30
0.0
11
449.000000
21
716.000000
31
0.0
0
LINE
8
LINES
10
355.000000
20
796.000000
30
0.0
11
355.000000
21
716.000000
31
0.0
0
LINE
8
LINES
10
580.000000
20
716.000000
30
0.0
11
580.000000
21
796.000000
31
0.0
0
LINE
8
LINES
10
486.000000
20
716.000000
30
0.0
11
486.000000
21
796.000000
31
0.0
0
LINE
8
LINES
10
680.000000
20
464.000000
30
0.0
11
680.000000
21
384.000000
31
0.0
0
LINE
8
LINES
10
390.000000
20
718.000000
30
0.0
11
390.000000
21
798.000000
31
0.0
0
LINE
8
LINES
10
542.000000
20
796.000000
30
0.0
11
542.000000
21
716.000000
31
0.0
0
LINE
8
LINES
10
438.000000
20
217.000000
30
0.0
11
438.000000
21
297.000000
31
0.0
0
LINE
8
LINES
10
152.000000
20
545.000000
30
0.0
11
152.000000
21
625.000000
31
0.0
0
LINE
8
LINES
10
297.000000
20
716.000000
30
0.0
11
297.000000
21
796.000000
31
0.0
0
LINE
8
LINES
10
646.000000
20
686.000000
30
0.0
11
566.000000
21
686.000000
31
0.0
0
LINE
8
LINES
10
201.000000
20
716.000000
30
0.0
11
201.000000
21
796.000000
31
0.0
0
LINE
8
LINES
10
491.000000
20
793.000000
30
0.0
11
491.000000
21
713.000000
31
0.0
0
LINE
8
LINES
10
587.000000
20
796.000000
30
0.0
11
587.000000
21
716.000000
31
0.0
0
LINE
8
LINES
10
454.000000
20
633.000000
30
0.0
11
444.000000
21
553.000000
31
0.0
0
LINE
8
LINES
10
457.000000
20
961.000000
30
0.0
11
448.000000
21
883.000000
31
0.0
0
LINE
8
LINES
10
355.000000
20
462.000000
30
0.0
11
355.000000
21
384.000000
31
0.0
0
LINE
8
LINES
10
486.000000
20
553.000000
30
0.0
11
486.000000
21
632.000000
31
0.0
0
LINE
8
LINES
10
769.000000
20
718.000000
30
0.0
11
769.000000
21
796.000000
31
0.0
0
LINE
8
LINES
10
448.000000
20
462.000000
30
0.0
11
448.000000
21
384.000000
31
0.0
0
LINE
8
LINES
10
636.000000
20
464.000000
30
0.0
11
636.000000
21
385.000000
31
0.0
0
LINE
8
LINES
10
396.000000
20
462.000000
30
0.0
11
396.000000
21
384.000000
31
0.0
0
LINE
8
LINES
10
580.000000
20
553.000000
30
0.0
11
580.000000
21
632.000000
31
0.0
0
LINE
8
LINES
10
740.000000
20
686.000000
30
0.0
11
662.000000
21
686.000000
31
0.0
0
LINE
8
LINES
10
456.000000
20
686.000000
30
0.0
11
377.000000
21
686.000000
31
0.0
0
LINE
8
LINES
10
513.000000
20
664.000000
30
0.0
11
592.000000
21
664.000000
31
0.0
0
LINE
8
LINES
10
329.000000
20
331.000000
30
0.0
11
408.000000
21
331.000000
31
0.0
0
LINE
8
LINES
10
638.000000
20
632.000000
30
0.0
11
638.000000
21
553.000000
31
0.0
0
LINE
8
LINES
10
729.000000
20
462.000000
30
0.0
11
729.000000
21
385.000000
31
0.0
0
LINE
8
LINES
10
392.000000
20
553.000000
30
0.0
11
392.000000
21
632.000000
31
0.0
0
LINE
8
LINES
10
297.000000
20
553.000000
30
0.0
11
297.000000
21
632.000000
31
0.0
0
LINE
8
LINES
10
264.000000
20
686.000000
30
0.0
11
187.000000
21
686.000000
31
0.0
0
LINE
8
LINES
10
254.000000
20
632.000000
30
0.0
11
254.000000
21
553.000000
31
0.0
0
LINE
8
LINES
10
302.000000
20
121.000000
30
0.0
11
224.000000
21
121.000000
31
0.0
0
LINE
8
LINES
10
528.000000
20
142.000000
30
0.0
11
451.000000
21
142.000000
31
0.0
0
LINE
8
LINES
10
257.000000
20
462.000000
30
0.0
11
257.000000
21
385.000000
31
0.0
0
LINE
8
LINES
10
769.000000
20
553.000000
30
0.0
11
769.000000
21
630.000000
31
0.0
0
LINE
8
LINES
10
675.000000
20
553.000000
30
0.0
11
675.000000
21
630.000000
31
0.0
0
LINE
8
LINES
10
550.000000
20
686.000000
30
0.0
11
473.000000
21
686.000000
31
0.0
0
LINE
8
LINES
10
350.000000
20
630.000000
30
0.0
11
350.000000
21
553.000000
31
0.0
0
LINE
8
LINES
10
692.000000
20
184.000000
30
0.0
11
617.000000
21
184.000000
31
0.0
0
LINE
8
LINES
10
422.000000
20
537.000000
30
0.0
11
497.000000
21
537.000000
31
0.0
0
LINE
8
LINES
10
769.000000
20
222.000000
30
0.0
11
769.000000
21
297.000000
31
0.0
0
LINE
8
LINES
10
446.000000
20
297.000000
30
0.0
11
446.000000
21
222.000000
31
0.0
0
LINE
8
LINES
10
236.000000
20
182.000000
30
0.0
11
312.000000
21
182.000000
31
0.0
0
LINE
8
LINES
10
257.000000
20
297.000000
30
0.0
11
257.000000
21
222.000000
31
0.0
0
LINE
8
LINES
10
502.000000
20
185.000000
30
0.0
11
428.000000
21
185.000000
31
0.0
0
LINE
8
LINES
10
787.000000
20
184.000000
30
0.0
11
712.000000
21
184.000000
31
0.0
0
LINE
8
LINES
10
236.000000
20
168.000000
30
0.0
11
310.000000
21
168.000000
31
0.0
0
LINE
8
LINES
10
676.000000
20
147.000000
30
0.0
11
752.000000
21
147.000000
31
0.0
0
LINE
8
LINES
10
161.000000
20
297.000000
30
0.0
11
161.000000
21
222.000000
31
0.0
0
LINE
8
LINES
10
65.000000
20
297.000000
30
0.0
11
65.000000
21
222.000000
31
0.0
0
LINE
8
LINES
10
355.000000
20
297.000000
30
0.0
11
355.000000
21
222.000000
31
0.0
0
LINE
8
LINES
10
392.000000
20
222.000000
30
0.0
11
392.000000
21
297.000000
31
0.0
0
LINE
8
LINES
10
729.000000
20
297.000000
30
0.0
11
729.000000
21
222.000000
31
0.0
0
LINE
8
LINES
10
540.000000
20
297.000000
30
0.0
11
540.000000
21
222.000000
31
0.0
0
LINE
8
LINES
10
633.000000
20
297.000000
30
0.0
11
633.000000
21
222.000000
31
0.0
0
LINE
8
LINES
10
491.000000
20
456.000000
30
0.0
11
491.000000
21
382.000000
31
0.0
0
LINE
8
LINES
10
712.000000
20
180.000000
30
0.0
11
785.000000
21
180.000000
31
0.0
0
LINE
8
LINES
10
596.000000
20
185.000000
30
0.0
11
523.000000
21
185.000000
31
0.0
0
LINE
8
LINES
10
310.000000
20
185.000000
30
0.0
11
238.000000
21
185.000000
31
0.0
0
LINE
8
LINES
10
500.000000
20
308.000000
30
0.0
11
428.000000
21
308.000000
31
0.0
0
LINE
8
LINES
10
689.000000
20
308.000000
30
0.0
11
617.000000
21
308.000000
31
0.0
0
LINE
8
LINES
10
403.000000
20
308.000000
30
0.0
11
332.000000
21
308.000000
31
0.0
0
LINE
8
LINES
10
201.000000
20
553.000000
30
0.0
11
201.000000
21
625.000000
31
0.0
0
LINE
8
LINES
10
617.000000
20
180.000000
30
0.0
11
689.000000
21
180.000000
31
0.0
0
LINE
8
LINES
10
856.000000
20
304.000000
30
0.0
11
784.000000
21
304.000000
31
0.0
0
LINE
8
LINES
10
214.000000
20
310.000000
30
0.0
11
142.000000
21
310.000000
31
0.0
0
LINE
8
LINES
10
593.000000
20
308.000000
30
0.0
11
523.000000
21
308.000000
31
0.0
0
LINE
8
LINES
10
308.000000
20
310.000000
30
0.0
11
238.000000
21
310.000000
31
0.0
0
LINE
8
LINES
10
310.000000
20
934.000000
30
0.0
11
238.000000
21
934.000000
31
0.0
0
LINE
8
LINES
10
451.000000
20
1014.000000
30
0.0
11
382.000000
21
1014.000000
31
0.0
0
LINE
8
LINES
10
145.000000
20
307.000000
30
0.0
11
216.000000
21
307.000000
31
0.0
0
LINE
8
LINES
10
619.000000
20
307.000000
30
0.0
11
689.000000
21
307.000000
31
0.0
0
LINE
8
LINES
10
566.000000
20
432.000000
30
0.0
11
497.000000
21
432.000000
31
0.0
0
LINE
8
LINES
10
118.000000
20
310.000000
30
0.0
11
49.000000
21
310.000000
31
0.0
0
LINE
8
LINES
10
422.000000
20
262.000000
30
0.0
11
422.000000
21
193.000000
31
0.0
0
LINE
8
LINES
10
830.000000
20
273.000000
30
0.0
11
830.000000
21
206.000000
31
0.0
0
LINE
8
LINES
10
526.000000
20
307.000000
30
0.0
11
593.000000
21
307.000000
31
0.0
0
LINE
8
LINES
10
241.000000
20
307.000000
30
0.0
11
308.000000
21
307.000000
31
0.0
0
LINE
8
LINES
10
329.000000
20
537.000000
30
0.0
11
398.000000
21
537.000000
31
0.0
0
LINE
8
LINES
10
336.000000
20
307.000000
30
0.0
11
403.000000
21
307.000000
31
0.0
0
LINE
8
LINES
10
780.000000
20
307.000000
30
0.0
11
712.000000
21
307.000000
31
0.0
0
LINE
8
LINES
10
307.000000
20
108.000000
30
0.0
11
376.000000
21
108.000000
31
0.0
0
LINE
8
LINES
10
712.000000
20
664.000000
30
0.0
11
780.000000
21
664.000000
31
0.0
0
LINE
8
LINES
10
686.000000
20
176.000000
30
0.0
11
617.000000
21
176.000000
31
0.0
0
LINE
8
LINES
10
304.000000
20
532.000000
30
0.0
11
236.000000
21
532.000000
31
0.0
0
LINE
8
LINES
10
497.000000
20
177.000000
30
0.0
11
428.000000
21
177.000000
31
0.0
0
LINE
8
LINES
10
208.000000
20
534.000000
30
0.0
11
139.000000
21
534.000000
31
0.0
0
LINE
8
LINES
10
785.000000
20
300.000000
30
0.0
11
852.000000
21
300.000000
31
0.0
0
LINE
8
LINES
10
787.000000
20
316.000000
30
0.0
11
856.000000
21
316.000000
31
0.0
0
LINE
8
LINES
10
238.000000
20
537.000000
30
0.0
11
305.000000
21
537.000000
31
0.0
0
LINE
8
LINES
10
51.000000
20
308.000000
30
0.0
11
118.000000
21
308.000000
31
0.0
0
LINE
8
LINES
10
782.000000
20
176.000000
30
0.0
11
713.000000
21
176.000000
31
0.0
0
LINE
8
LINES
10
592.000000
20
177.000000
30
0.0
11
524.000000
21
177.000000
31
0.0
0
LINE
8
LINES
10
494.000000
20
531.000000
30
0.0
11
427.000000
21
531.000000
31
0.0
0
LINE
8
LINES
10
686.000000
20
532.000000
30
0.0
11
617.000000
21
532.000000
31
0.0
0
LINE
8
LINES
10
401.000000
20
177.000000
30
0.0
11
332.000000
21
177.000000
31
0.0
0
LINE
8
LINES
10
432.000000
20
331.000000
30
0.0
11
499.000000
21
331.000000
31
0.0
0
LINE
8
LINES
10
120.000000
20
48.000000
30
0.0
11
161.000000
21
100.000000
31
0.0
0
LINE
8
LINES
10
620.000000
20
537.000000
30
0.0
11
686.000000
21
537.000000
31
0.0
0
LINE
8
LINES
10
713.000000
20
307.000000
30
0.0
11
780.000000
21
307.000000
31
0.0
0
LINE
8
LINES
10
208.000000
20
798.000000
30
0.0
11
273.000000
21
798.000000
31
0.0
0
LINE
8
LINES
10
716.000000
20
537.000000
30
0.0
11
782.000000
21
537.000000
31
0.0
0
LINE
8
LINES
10
856.000000
20
313.000000
30
0.0
11
788.000000
21
313.000000
31
0.0
0
LINE
8
LINES
10
782.000000
20
531.000000
30
0.0
11
716.000000
21
531.000000
31
0.0
0
LINE
8
LINES
10
113.000000
20
177.000000
30
0.0
11
48.000000
21
177.000000
31
0.0
0
LINE
8
LINES
10
209.000000
20
177.000000
30
0.0
11
142.000000
21
177.000000
31
0.0
0
LINE
8
LINES
10
304.000000
20
177.000000
30
0.0
11
238.000000
21
177.000000
31
0.0
0
LINE
8
LINES
10
396.000000
20
531.000000
30
0.0
11
331.000000
21
531.000000
31
0.0
0
LINE
8
LINES
10
142.000000
20
539.000000
30
0.0
11
206.000000
21
539.000000
31
0.0
0
LINE
8
LINES
10
384.000000
20
1017.000000
30
0.0
11
449.000000
21
1017.000000
31
0.0
0
LINE
8
LINES
10
585.000000
20
436.000000
30
0.0
11
585.000000
21
372.000000
31
0.0
0
LINE
8
LINES
10
294.000000
20
995.000000
30
0.0
11
230.000000
21
995.000000
31
0.0
0
LINE
8
LINES
10
649.000000
20
710.000000
30
0.0
11
587.000000
21
710.000000
31
0.0
0
LINE
8
LINES
10
228.000000
20
990.000000
30
0.0
11
291.000000
21
990.000000
31
0.0
0
LINE
8
LINES
10
249.000000
20
712.000000
30
0.0
11
187.000000
21
712.000000
31
0.0
0
LINE
8
LINES
10
433.000000
20
44.000000
30
0.0
11
459.000000
21
100.000000
31
0.0
0
LINE
8
LINES
10
315.000000
20
748.000000
30
0.0
11
315.000000
21
686.000000
31
0.0
0
LINE
8
LINES
10
553.000000
20
710.000000
30
0.0
11
492.000000
21
710.000000
31
0.0
0
LINE
8
LINES
10
206.000000
20
78.000000
30
0.0
11
267.000000
21
78.000000
31
0.0
0
LINE
8
LINES
10
358.000000
20
78.000000
30
0.0
11
420.000000
21
78.000000
31
0.0
0
LINE
8
LINES
10
278.000000
20
46.000000
30
0.0
11
310.000000
21
97.000000
31
0.0
0
LINE
8
LINES
10
457.000000
20
710.000000
30
0.0
11
398.000000
21
710.000000
31
0.0
0
LINE
8
LINES
10
851.000000
20
278.000000
30
0.0
11
792.000000
21
278.000000
31
0.0
0
LINE
8
LINES
10
856.000000
20
398.000000
30
0.0
11
796.000000
21
398.000000
31
0.0
0
LINE
8
LINES
10
856.000000
20
385.000000
30
0.0
11
796.000000
21
385.000000
31
0.0
0
LINE
8
LINES
10
856.000000
20
411.000000
30
0.0
11
796.000000
21
411.000000
31
0.0
0
LINE
8
LINES
10
441.000000
20
307.000000
30
0.0
11
500.000000
21
307.000000
31
0.0
0
LINE
8
LINES
10
51.000000
20
78.000000
30
0.0
11
112.000000
21
78.000000
31
0.0
0
LINE
8
LINES
10
742.000000
20
710.000000
30
0.0
11
681.000000
21
710.000000
31
0.0
0
LINE
8
LINES
10
510.000000
20
78.000000
30
0.0
11
571.000000
21
78.000000
31
0.0
0
LINE
8
LINES
10
163.000000
20
462.000000
30
0.0
11
163.000000
21
403.000000
31
0.0
0
LINE
8
LINES
10
150.000000
20
633.000000
30
0.0
11
209.000000
21
633.000000
31
0.0
0
LINE
8
LINES
10
571.000000
20
86.000000
30
0.0
11
512.000000
21
86.000000
31
0.0
0
LINE
8
LINES
10
856.000000
20
324.000000
30
0.0
11
796.000000
21
324.000000
31
0.0
0
LINE
8
LINES
10
246.000000
20
939.000000
30
0.0
11
304.000000
21
939.000000
31
0.0
0
LINE
8
LINES
10
419.000000
20
88.000000
30
0.0
11
361.000000
21
88.000000
31
0.0
0
LINE
8
LINES
10
137.000000
20
252.000000
30
0.0
11
137.000000
21
193.000000
31
0.0
0
LINE
8
LINES
10
851.000000
20
435.000000
30
0.0
11
796.000000
21
435.000000
31
0.0
0
LINE
8
LINES
10
156.000000
20
465.000000
30
0.0
11
212.000000
21
465.000000
31
0.0
0
LINE
8
LINES
10
852.000000
20
424.000000
30
0.0
11
796.000000
21
424.000000
31
0.0
0
LINE
8
LINES
10
392.000000
20
963.000000
30
0.0
11
448.000000
21
963.000000
31
0.0
0
LINE
8
LINES
10
721.000000
20
188.000000
30
0.0
11
777.000000
21
188.000000
31
0.0
0
LINE
8
LINES
10
265.000000
20
88.000000
30
0.0
11
209.000000
21
88.000000
31
0.0
0
LINE
8
LINES
10
499.000000
20
99.000000
30
0.0
11
480.000000
21
46.000000
31
0.0
0
LINE
8
LINES
10
310.000000
20
897.000000
30
0.0
11
316.000000
21
952.000000
31
0.0
0
LINE
8
LINES
10
534.000000
20
371.000000
30
0.0
11
534.000000
21
427.000000
31
0.0
0
LINE
8
LINES
10
153.000000
20
190.000000
30
0.0
11
209.000000
21
190.000000
31
0.0
0
LINE
8
LINES
10
486.000000
20
964.000000
30
0.0
11
542.000000
21
964.000000
31
0.0
0
LINE
8
LINES
10
438.000000
20
190.000000
30
0.0
11
492.000000
21
190.000000
31
0.0
0
LINE
8
LINES
10
342.000000
20
190.000000
30
0.0
11
398.000000
21
190.000000
31
0.0
0
LINE
8
LINES
10
627.000000
20
190.000000
30
0.0
11
681.000000
21
190.000000
31
0.0
0
LINE
8
LINES
10
305.000000
20
918.000000
30
0.0
11
251.000000
21
918.000000
31
0.0
0
LINE
8
LINES
10
505.000000
20
110.000000
30
0.0
11
561.000000
21
110.000000
31
0.0
0
LINE
8
LINES
10
121.000000
20
467.000000
30
0.0
11
76.000000
21
435.000000
31
0.0
0
LINE
8
LINES
10
297.000000
20
302.000000
30
0.0
11
243.000000
21
302.000000
31
0.0
0
LINE
8
LINES
10
342.000000
20
299.000000
30
0.0
11
396.000000
21
299.000000
31
0.0
0
LINE
8
LINES
10
849.000000
20
448.000000
30
0.0
11
796.000000
21
448.000000
31
0.0
0
LINE
8
LINES
10
60.000000
20
190.000000
30
0.0
11
113.000000
21
190.000000
31
0.0
0
LINE
8
LINES
10
249.000000
20
190.000000
30
0.0
11
302.000000
21
190.000000
31
0.0
0
LINE
8
LINES
10
532.000000
20
190.000000
30
0.0
11
587.000000
21
190.000000
31
0.0
0
LINE
8
LINES
10
296.000000
20
102.000000
30
0.0
11
241.000000
21
102.000000
31
0.0
0
LINE
8
LINES
10
161.000000
20
609.000000
30
0.0
11
161.000000
21
556.000000
31
0.0
0
LINE
8
LINES
10
531.000000
20
456.000000
30
0.0
11
584.000000
21
456.000000
31
0.0
0
LINE
8
LINES
10
153.000000
20
300.000000
30
0.0
11
206.000000
21
300.000000
31
0.0
0
LINE
8
LINES
10
438.000000
20
300.000000
30
0.0
11
492.000000
21
300.000000
31
0.0
0
LINE
8
LINES
10
633.000000
20
969.000000
30
0.0
11
582.000000
21
969.000000
31
0.0
0
LINE
8
LINES
10
676.000000
20
966.000000
30
0.0
11
729.000000
21
966.000000
31
0.0
0
LINE
8
LINES
10
723.000000
20
476.000000
30
0.0
11
776.000000
21
476.000000
31
0.0
0
LINE
8
LINES
10
444.000000
20
929.000000
30
0.0
11
392.000000
21
929.000000
31
0.0
0
LINE
8
LINES
10
392.000000
20
924.000000
30
0.0
11
444.000000
21
924.000000
31
0.0
0
LINE
8
LINES
10
251.000000
20
300.000000
30
0.0
11
302.000000
21
300.000000
31
0.0
0
LINE
8
LINES
10
444.000000
20
915.000000
30
0.0
11
393.000000
21
915.000000
31
0.0
0
LINE
8
LINES
10
848.000000
20
460.000000
30
0.0
11
796.000000
21
460.000000
31
0.0
0
LINE
8
LINES
10
537.000000
20
942.000000
30
0.0
11
486.000000
21
942.000000
31
0.0
0
LINE
8
LINES
10
443.000000
20
955.000000
30
0.0
11
392.000000
21
955.000000
31
0.0
0
LINE
8
LINES
10
729.000000
20
915.000000
30
0.0
11
678.000000
21
915.000000
31
0.0
0
LINE
8
LINES
10
443.000000
20
942.000000
30
0.0
11
392.000000
21
942.000000
31
0.0
0
LINE
8
LINES
10
846.000000
20
473.000000
30
0.0
11
796.000000
21
473.000000
31
0.0
0
LINE
8
LINES
10
729.000000
20
942.000000
30
0.0
11
678.000000
21
942.000000
31
0.0
0
LINE
8
LINES
10
539.000000
20
889.000000
30
0.0
11
488.000000
21
889.000000
31
0.0
0
LINE
8
LINES
10
60.000000
20
300.000000
30
0.0
11
112.000000
21
300.000000
31
0.0
0
LINE
8
LINES
10
633.000000
20
942.000000
30
0.0
11
582.000000
21
942.000000
31
0.0
0
LINE
8
LINES
10
729.000000
20
929.000000
30
0.0
11
678.000000
21
929.000000
31
0.0
0
LINE
8
LINES
10
392.000000
20
952.000000
30
0.0
11
443.000000
21
952.000000
31
0.0
0
LINE
8
LINES
10
678.000000
20
899.000000
30
0.0
11
729.000000
21
899.000000
31
0.0
0
LINE
8
LINES
10
582.000000
20
912.000000
30
0.0
11
633.000000
21
912.000000
31
0.0
0
LINE
8
LINES
10
488.000000
20
899.000000
30
0.0
11
539.000000
21
899.000000
31
0.0
0
LINE
8
LINES
10
633.000000
20
902.000000
30
0.0
11
582.000000
21
902.000000
31
0.0
0
LINE
8
LINES
10
678.000000
20
937.000000
30
0.0
11
729.000000
21
937.000000
31
0.0
0
LINE
8
LINES
10
678.000000
20
924.000000
30
0.0
11
729.000000
21
924.000000
31
0.0
0
LINE
8
LINES
10
438.000000
20
476.000000
30
0.0
11
491.000000
21
476.000000
31
0.0
0
LINE
8
LINES
10
584.000000
20
534.000000
30
0.0
11
532.000000
21
534.000000
31
0.0
0
LINE
8
LINES
10
488.000000
20
924.000000
30
0.0
11
539.000000
21
924.000000
31
0.0
0
LINE
8
LINES
10
582.000000
20
886.000000
30
0.0
11
633.000000
21
886.000000
31
0.0
0
LINE
8
LINES
10
345.000000
20
476.000000
30
0.0
11
396.000000
21
476.000000
31
0.0
0
LINE
8
LINES
10
156.000000
20
214.000000
30
0.0
11
206.000000
21
214.000000
31
0.0
0
LINE
8
LINES
10
776.000000
20
550.000000
30
0.0
11
723.000000
21
550.000000
31
0.0
0
LINE
8
LINES
10
776.000000
20
467.000000
30
0.0
11
723.000000
21
467.000000
31
0.0
0
LINE
8
LINES
10
137.000000
20
638.000000
30
0.0
11
188.000000
21
638.000000
31
0.0
0
LINE
8
LINES
10
774.000000
20
302.000000
30
0.0
11
723.000000
21
302.000000
31
0.0
0
LINE
8
LINES
10
723.000000
20
214.000000
30
0.0
11
774.000000
21
214.000000
31
0.0
0
LINE
8
LINES
10
534.000000
20
299.000000
30
0.0
11
584.000000
21
299.000000
31
0.0
0
LINE
8
LINES
10
441.000000
20
969.000000
30
0.0
11
392.000000
21
969.000000
31
0.0
0
LINE
8
LINES
10
537.000000
20
915.000000
30
0.0
11
488.000000
21
915.000000
31
0.0
0
LINE
8
LINES
10
732.000000
20
963.000000
30
0.0
11
732.000000
21
913.000000
31
0.0
0
LINE
8
LINES
10
728.000000
20
955.000000
30
0.0
11
678.000000
21
955.000000
31
0.0
0
LINE
8
LINES
10
633.000000
20
929.000000
30
0.0
11
582.000000
21
929.000000
31
0.0
0
LINE
8
LINES
10
537.000000
20
955.000000
30
0.0
11
488.000000
21
955.000000
31
0.0
0
LINE
8
LINES
10
728.000000
20
902.000000
30
0.0
11
678.000000
21
902.000000
31
0.0
0
LINE
8
LINES
10
632.000000
20
915.000000
30
0.0
11
582.000000
21
915.000000
31
0.0
0
LINE
8
LINES
10
537.000000
20
929.000000
30
0.0
11
488.000000
21
929.000000
31
0.0
0
LINE
8
LINES
10
204.000000
20
302.000000
30
0.0
11
153.000000
21
302.000000
31
0.0
0
LINE
8
LINES
10
398.000000
20
798.000000
30
0.0
11
448.000000
21
798.000000
31
0.0
0
LINE
8
LINES
10
632.000000
20
889.000000
30
0.0
11
582.000000
21
889.000000
31
0.0
0
LINE
8
LINES
10
678.000000
20
912.000000
30
0.0
11
728.000000
21
912.000000
31
0.0
0
LINE
8
LINES
10
582.000000
20
937.000000
30
0.0
11
632.000000
21
937.000000
31
0.0
0
LINE
8
LINES
10
488.000000
20
912.000000
30
0.0
11
537.000000
21
912.000000
31
0.0
0
LINE
8
LINES
10
582.000000
20
899.000000
30
0.0
11
633.000000
21
899.000000
31
0.0
0
LINE
8
LINES
10
488.000000
20
937.000000
30
0.0
11
537.000000
21
937.000000
31
0.0
0
LINE
8
LINES
10
488.000000
20
886.000000
30
0.0
11
537.000000
21
886.000000
31
0.0
0
LINE
8
LINES
10
488.000000
20
950.000000
30
0.0
11
537.000000
21
950.000000
31
0.0
0
LINE
8
LINES
10
582.000000
20
924.000000
30
0.0
11
633.000000
21
924.000000
31
0.0
0
LINE
8
LINES
10
678.000000
20
950.000000
30
0.0
11
728.000000
21
950.000000
31
0.0
0
LINE
8
LINES
10
728.000000
20
891.000000
30
0.0
11
678.000000
21
891.000000
31
0.0
0
LINE
8
LINES
10
678.000000
20
886.000000
30
0.0
11
728.000000
21
886.000000
31
0.0
0
LINE
8
LINES
10
441.000000
20
216.000000
30
0.0
11
491.000000
21
216.000000
31
0.0
0
LINE
8
LINES
10
345.000000
20
214.000000
30
0.0
11
396.000000
21
214.000000
31
0.0
0
LINE
8
LINES
10
628.000000
20
214.000000
30
0.0
11
678.000000
21
214.000000
31
0.0
0
LINE
8
LINES
10
678.000000
20
468.000000
30
0.0
11
628.000000
21
468.000000
31
0.0
0
LINE
8
LINES
10
396.000000
20
467.000000
30
0.0
11
345.000000
21
467.000000
31
0.0
0
LINE
8
LINES
10
425.000000
20
110.000000
30
0.0
11
476.000000
21
110.000000
31
0.0
0
LINE
8
LINES
10
265.000000
20
638.000000
30
0.0
11
316.000000
21
638.000000
31
0.0
0
LINE
8
LINES
10
630.000000
20
465.000000
30
0.0
11
678.000000
21
465.000000
31
0.0
0
LINE
8
LINES
10
640.000000
20
961.000000
30
0.0
11
640.000000
21
912.000000
31
0.0
0
LINE
8
LINES
10
846.000000
20
483.000000
30
0.0
11
796.000000
21
483.000000
31
0.0
0
LINE
8
LINES
10
441.000000
20
902.000000
30
0.0
11
393.000000
21
902.000000
31
0.0
0
LINE
8
LINES
10
632.000000
20
955.000000
30
0.0
11
582.000000
21
955.000000
31
0.0
0
LINE
8
LINES
10
441.000000
20
889.000000
30
0.0
11
393.000000
21
889.000000
31
0.0
0
LINE
8
LINES
10
392.000000
20
937.000000
30
0.0
11
441.000000
21
937.000000
31
0.0
0
LINE
8
LINES
10
393.000000
20
304.000000
30
0.0
11
345.000000
21
304.000000
31
0.0
0
LINE
8
LINES
10
678.000000
20
302.000000
30
0.0
11
628.000000
21
302.000000
31
0.0
0
LINE
8
LINES
10
392.000000
20
899.000000
30
0.0
11
441.000000
21
899.000000
31
0.0
0
LINE
8
LINES
10
582.000000
20
964.000000
30
0.0
11
632.000000
21
964.000000
31
0.0
0
LINE
8
LINES
10
537.000000
20
902.000000
30
0.0
11
488.000000
21
902.000000
31
0.0
0
LINE
8
LINES
10
392.000000
20
912.000000
30
0.0
11
441.000000
21
912.000000
31
0.0
0
LINE
8
LINES
10
488.000000
20
302.000000
30
0.0
11
438.000000
21
302.000000
31
0.0
0
LINE
8
LINES
10
582.000000
20
952.000000
30
0.0
11
632.000000
21
952.000000
31
0.0
0
LINE
8
LINES
10
393.000000
20
886.000000
30
0.0
11
441.000000
21
886.000000
31
0.0
0
LINE
8
LINES
10
569.000000
20
961.000000
30
0.0
11
569.000000
21
913.000000
31
0.0
0
LINE
8
LINES
10
536.000000
20
214.000000
30
0.0
11
584.000000
21
214.000000
31
0.0
0
LINE
8
LINES
10
252.000000
20
214.000000
30
0.0
11
300.000000
21
214.000000
31
0.0
0
LINE
8
LINES
10
491.000000
20
713.000000
30
0.0
11
441.000000
21
713.000000
31
0.0
0
LINE
8
LINES
10
62.000000
20
214.000000
30
0.0
11
112.000000
21
214.000000
31
0.0
0
LINE
8
LINES
10
110.000000
20
91.000000
30
0.0
11
62.000000
21
91.000000
31
0.0
0
LINE
8
LINES
10
108.000000
20
302.000000
30
0.0
11
60.000000
21
302.000000
31
0.0
0
LINE
8
LINES
10
254.000000
20
476.000000
30
0.0
11
302.000000
21
476.000000
31
0.0
0
LINE
8
LINES
10
584.000000
20
217.000000
30
0.0
11
536.000000
21
217.000000
31
0.0
0
LINE
8
LINES
10
491.000000
20
550.000000
30
0.0
11
441.000000
21
550.000000
31
0.0
0
LINE
8
LINES
10
393.000000
20
550.000000
30
0.0
11
345.000000
21
550.000000
31
0.0
0
LINE
8
LINES
10
300.000000
20
550.000000
30
0.0
11
252.000000
21
550.000000
31
0.0
0
LINE
8
LINES
10
300.000000
20
468.000000
30
0.0
11
252.000000
21
468.000000
31
0.0
0
LINE
8
LINES
10
158.000000
20
476.000000
30
0.0
11
208.000000
21
476.000000
31
0.0
0
LINE
8
LINES
10
518.000000
20
331.000000
30
0.0
11
568.000000
21
331.000000
31
0.0
0
LINE
8
LINES
10
88.000000
20
468.000000
30
0.0
11
126.000000
21
496.000000
31
0.0
0
LINE
8
LINES
10
91.000000
20
481.000000
30
0.0
11
131.000000
21
508.000000
31
0.0
0
LINE
8
LINES
10
606.000000
20
505.000000
30
0.0
11
585.000000
21
460.000000
31
0.0
0
LINE
8
LINES
10
601.000000
20
544.000000
30
0.0
11
595.000000
21
497.000000
31
0.0
0
LINE
8
LINES
10
360.000000
20
961.000000
30
0.0
11
360.000000
21
913.000000
31
0.0
0
LINE
8
LINES
10
726.000000
20
465.000000
30
0.0
11
772.000000
21
465.000000
31
0.0
0
LINE
8
LINES
10
563.000000
20
748.000000
30
0.0
11
563.000000
21
796.000000
31
0.0
0
LINE
8
LINES
10
468.000000
20
748.000000
30
0.0
11
468.000000
21
796.000000
31
0.0
0
LINE
8
LINES
10
561.000000
20
913.000000
30
0.0
11
561.000000
21
961.000000
31
0.0
0
LINE
8
LINES
10
641.000000
20
798.000000
30
0.0
11
641.000000
21
750.000000
31
0.0
0
LINE
8
LINES
10
588.000000
20
796.000000
30
0.0
11
636.000000
21
796.000000
31
0.0
0
LINE
8
LINES
10
772.000000
20
801.000000
30
0.0
11
726.000000
21
801.000000
31
0.0
0
LINE
8
LINES
10
678.000000
20
801.000000
30
0.0
11
632.000000
21
801.000000
31
0.0
0
LINE
8
LINES
10
582.000000
20
302.000000
30
0.0
11
536.000000
21
302.000000
31
0.0
0
LINE
8
LINES
10
547.000000
20
961.000000
30
0.0
11
547.000000
21
913.000000
31
0.0
0
LINE
8
LINES
10
772.000000
20
713.000000
30
0.0
11
726.000000
21
713.000000
31
0.0
0
LINE
8
LINES
10
678.000000
20
713.000000
30
0.0
11
632.000000
21
713.000000
31
0.0
0
LINE
8
LINES
10
297.000000
20
801.000000
30
0.0
11
251.000000
21
801.000000
31
0.0
0
LINE
8
LINES
10
396.000000
20
713.000000
30
0.0
11
348.000000
21
713.000000
31
0.0
0
LINE
8
LINES
10
300.000000
20
713.000000
30
0.0
11
252.000000
21
713.000000
31
0.0
0
LINE
8
LINES
10
112.000000
20
217.000000
30
0.0
11
64.000000
21
217.000000
31
0.0
0
LINE
8
LINES
10
488.000000
20
467.000000
30
0.0
11
441.000000
21
467.000000
31
0.0
0
LINE
8
LINES
10
516.000000
20
435.000000
30
0.0
11
563.000000
21
435.000000
31
0.0
0
LINE
8
LINES
10
348.000000
20
470.000000
30
0.0
11
396.000000
21
470.000000
31
0.0
0
LINE
8
LINES
10
584.000000
20
544.000000
30
0.0
11
537.000000
21
544.000000
31
0.0
0
LINE
8
LINES
10
584.000000
20
550.000000
30
0.0
11
537.000000
21
550.000000
31
0.0
0
LINE
8
LINES
10
662.000000
20
961.000000
30
0.0
11
662.000000
21
913.000000
31
0.0
0
LINE
8
LINES
10
43.000000
20
84.000000
30
0.0
11
11.000000
21
49.000000
31
0.0
0
LINE
8
LINES
10
348.000000
20
91.000000
30
0.0
11
326.000000
21
49.000000
31
0.0
0
LINE
8
LINES
10
302.000000
20
105.000000
30
0.0
11
320.000000
21
148.000000
31
0.0
0
LINE
8
LINES
10
753.000000
20
796.000000
30
0.0
11
753.000000
21
750.000000
31
0.0
0
LINE
8
LINES
10
457.000000
20
796.000000
30
0.0
11
457.000000
21
750.000000
31
0.0
0
LINE
8
LINES
10
675.000000
20
220.000000
30
0.0
11
675.000000
21
267.000000
31
0.0
0
LINE
8
LINES
10
748.000000
20
750.000000
30
0.0
11
748.000000
21
796.000000
31
0.0
0
LINE
8
LINES
10
379.000000
20
796.000000
30
0.0
11
379.000000
21
750.000000
31
0.0
0
LINE
8
LINES
10
548.000000
20
796.000000
30
0.0
11
548.000000
21
750.000000
31
0.0
0
LINE
8
LINES
10
755.000000
20
961.000000
30
0.0
11
755.000000
21
915.000000
31
0.0
0
LINE
8
LINES
10
478.000000
20
796.000000
30
0.0
11
478.000000
21
750.000000
31
0.0
0
LINE
8
LINES
10
630.000000
20
876.000000
30
0.0
11
584.000000
21
876.000000
31
0.0
0
LINE
8
LINES
10
476.000000
20
961.000000
30
0.0
11
476.000000
21
915.000000
31
0.0
0
LINE
8
LINES
10
281.000000
20
750.000000
30
0.0
11
281.000000
21
796.000000
31
0.0
0
LINE
8
LINES
10
393.000000
20
801.000000
30
0.0
11
347.000000
21
801.000000
31
0.0
0
LINE
8
LINES
10
678.000000
20
473.000000
30
0.0
11
632.000000
21
473.000000
31
0.0
0
LINE
8
LINES
10
582.000000
20
713.000000
30
0.0
11
537.000000
21
713.000000
31
0.0
0
LINE
8
LINES
10
297.000000
20
217.000000
30
0.0
11
252.000000
21
217.000000
31
0.0
0
LINE
8
LINES
10
206.000000
20
217.000000
30
0.0
11
158.000000
21
217.000000
31
0.0
0
LINE
8
LINES
10
64.000000
20
88.000000
30
0.0
11
110.000000
21
88.000000
31
0.0
0
LINE
8
LINES
10
772.000000
20
473.000000
30
0.0
11
726.000000
21
473.000000
31
0.0
0
LINE
8
LINES
10
678.000000
20
550.000000
30
0.0
11
632.000000
21
550.000000
31
0.0
0
LINE
8
LINES
10
590.000000
20
110.000000
30
0.0
11
636.000000
21
110.000000
31
0.0
0
LINE
8
LINES
10
204.000000
20
550.000000
30
0.0
11
158.000000
21
550.000000
31
0.0
0
LINE
8
LINES
10
646.000000
20
155.000000
30
0.0
11
601.000000
21
155.000000
31
0.0
0
LINE
8
LINES
10
627.000000
20
321.000000
30
0.0
11
673.000000
21
321.000000
31
0.0
0
LINE
8
LINES
10
374.000000
20
588.000000
30
0.0
11
374.000000
21
633.000000
31
0.0
0
LINE
8
LINES
10
374.000000
20
748.000000
30
0.0
11
374.000000
21
793.000000
31
0.0
0
LINE
8
LINES
10
262.000000
20
464.000000
30
0.0
11
262.000000
21
419.000000
31
0.0
0
LINE
8
LINES
10
841.000000
20
510.000000
30
0.0
11
796.000000
21
510.000000
31
0.0
0
LINE
8
LINES
10
472.000000
20
796.000000
30
0.0
11
472.000000
21
750.000000
31
0.0
0
LINE
8
LINES
10
662.000000
20
798.000000
30
0.0
11
662.000000
21
753.000000
31
0.0
0
LINE
8
LINES
10
657.000000
20
753.000000
30
0.0
11
657.000000
21
798.000000
31
0.0
0
LINE
8
LINES
10
734.000000
20
796.000000
30
0.0
11
734.000000
21
752.000000
31
0.0
0
LINE
8
LINES
10
441.000000
20
876.000000
30
0.0
11
396.000000
21
876.000000
31
0.0
0
LINE
8
LINES
10
385.000000
20
796.000000
30
0.0
11
385.000000
21
752.000000
31
0.0
0
LINE
8
LINES
10
566.000000
20
796.000000
30
0.0
11
566.000000
21
750.000000
31
0.0
0
LINE
8
LINES
10
358.000000
20
752.000000
30
0.0
11
358.000000
21
796.000000
31
0.0
0
LINE
8
LINES
10
254.000000
20
385.000000
30
0.0
11
299.000000
21
385.000000
31
0.0
0
LINE
8
LINES
10
382.000000
20
752.000000
30
0.0
11
382.000000
21
796.000000
31
0.0
0
LINE
8
LINES
10
188.000000
20
748.000000
30
0.0
11
188.000000
21
793.000000
31
0.0
0
LINE
8
LINES
10
534.000000
20
876.000000
30
0.0
11
489.000000
21
876.000000
31
0.0
0
LINE
8
LINES
10
385.000000
20
961.000000
30
0.0
11
385.000000
21
915.000000
31
0.0
0
LINE
8
LINES
10
451.000000
20
752.000000
30
0.0
11
451.000000
21
796.000000
31
0.0
0
LINE
8
LINES
10
348.000000
20
385.000000
30
0.0
11
393.000000
21
385.000000
31
0.0
0
LINE
8
LINES
10
473.000000
20
750.000000
30
0.0
11
473.000000
21
796.000000
31
0.0
0
LINE
8
LINES
10
537.000000
20
382.000000
30
0.0
11
582.000000
21
382.000000
31
0.0
0
LINE
8
LINES
10
443.000000
20
385.000000
30
0.0
11
488.000000
21
385.000000
31
0.0
0
LINE
8
LINES
10
380.000000
20
915.000000
30
0.0
11
380.000000
21
961.000000
31
0.0
0
LINE
8
LINES
10
158.000000
20
385.000000
30
0.0
11
204.000000
21
385.000000
31
0.0
0
LINE
8
LINES
10
518.000000
20
158.000000
30
0.0
11
473.000000
21
158.000000
31
0.0
0
LINE
8
LINES
10
393.000000
20
473.000000
30
0.0
11
348.000000
21
473.000000
31
0.0
0
LINE
8
LINES
10
488.000000
20
473.000000
30
0.0
11
443.000000
21
473.000000
31
0.0
0
LINE
8
LINES
10
203.000000
20
715.000000
30
0.0
11
158.000000
21
715.000000
31
0.0
0
LINE
8
LINES
10
300.000000
20
473.000000
30
0.0
11
256.000000
21
473.000000
31
0.0
0
LINE
8
LINES
10
769.000000
20
217.000000
30
0.0
11
723.000000
21
217.000000
31
0.0
0
LINE
8
LINES
10
292.000000
20
796.000000
30
0.0
11
292.000000
21
752.000000
31
0.0
0
LINE
8
LINES
10
393.000000
20
219.000000
30
0.0
11
348.000000
21
219.000000
31
0.0
0
LINE
8
LINES
10
64.000000
20
382.000000
30
0.0
11
108.000000
21
382.000000
31
0.0
0
LINE
8
LINES
10
656.000000
20
916.000000
30
0.0
11
656.000000
21
961.000000
31
0.0
0
LINE
8
LINES
10
281.000000
20
588.000000
30
0.0
11
281.000000
21
633.000000
31
0.0
0
LINE
8
LINES
10
748.000000
20
916.000000
30
0.0
11
748.000000
21
961.000000
31
0.0
0
LINE
8
LINES
10
475.000000
20
916.000000
30
0.0
11
475.000000
21
961.000000
31
0.0
0
LINE
8
LINES
10
187.000000
20
168.000000
30
0.0
11
230.000000
21
168.000000
31
0.0
0
LINE
8
LINES
10
366.000000
20
796.000000
30
0.0
11
366.000000
21
752.000000
31
0.0
0
LINE
8
LINES
10
196.000000
20
753.000000
30
0.0
11
196.000000
21
796.000000
31
0.0
0
LINE
8
LINES
10
270.000000
20
796.000000
30
0.0
11
270.000000
21
753.000000
31
0.0
0
LINE
8
LINES
10
638.000000
20
753.000000
30
0.0
11
638.000000
21
796.000000
31
0.0
0
LINE
8
LINES
10
723.000000
20
876.000000
30
0.0
11
681.000000
21
876.000000
31
0.0
0
LINE
8
LINES
10
286.000000
20
796.000000
30
0.0
11
286.000000
21
753.000000
31
0.0
0
LINE
8
LINES
10
192.000000
20
796.000000
30
0.0
11
192.000000
21
753.000000
31
0.0
0
LINE
8
LINES
10
545.000000
20
753.000000
30
0.0
11
545.000000
21
796.000000
31
0.0
0
LINE
8
LINES
10
673.000000
20
217.000000
30
0.0
11
628.000000
21
217.000000
31
0.0
0
LINE
8
LINES
10
683.000000
20
112.000000
30
0.0
11
638.000000
21
112.000000
31
0.0
0
LINE
8
LINES
10
195.000000
20
84.000000
30
0.0
11
172.000000
21
49.000000
31
0.0
0
LINE
8
LINES
10
632.000000
20
385.000000
30
0.0
11
673.000000
21
385.000000
31
0.0
0
LINE
8
LINES
10
569.000000
20
632.000000
30
0.0
11
569.000000
21
588.000000
31
0.0
0
LINE
8
LINES
10
172.000000
20
462.000000
30
0.0
11
172.000000
21
420.000000
31
0.0
0
LINE
8
LINES
10
456.000000
20
156.000000
30
0.0
11
412.000000
21
156.000000
31
0.0
0
LINE
8
LINES
10
377.000000
20
632.000000
30
0.0
11
377.000000
21
588.000000
31
0.0
0
LINE
8
LINES
10
468.000000
20
588.000000
30
0.0
11
468.000000
21
632.000000
31
0.0
0
LINE
8
LINES
10
472.000000
20
632.000000
30
0.0
11
472.000000
21
588.000000
31
0.0
0
LINE
8
LINES
10
838.000000
20
534.000000
30
0.0
11
796.000000
21
534.000000
31
0.0
0
LINE
8
LINES
10
284.000000
20
632.000000
30
0.0
11
284.000000
21
588.000000
31
0.0
0
LINE
8
LINES
10
561.000000
20
588.000000
30
0.0
11
561.000000
21
632.000000
31
0.0
0
LINE
8
LINES
10
468.000000
20
916.000000
30
0.0
11
468.000000
21
958.000000
31
0.0
0
LINE
8
LINES
10
396.000000
20
873.000000
30
0.0
11
438.000000
21
873.000000
31
0.0
0
LINE
8
LINES
10
585.000000
20
873.000000
30
0.0
11
627.000000
21
873.000000
31
0.0
0
LINE
8
LINES
10
358.000000
20
632.000000
30
0.0
11
358.000000
21
588.000000
31
0.0
0
LINE
8
LINES
10
265.000000
20
632.000000
30
0.0
11
265.000000
21
588.000000
31
0.0
0
LINE
8
LINES
10
571.000000
20
796.000000
30
0.0
11
571.000000
21
753.000000
31
0.0
0
LINE
8
LINES
10
483.000000
20
971.000000
30
0.0
11
441.000000
21
971.000000
31
0.0
0
LINE
8
LINES
10
1.000000
20
182.000000
30
0.0
11
44.000000
21
182.000000
31
0.0
0
LINE
8
LINES
10
584.000000
20
467.000000
30
0.0
11
603.000000
21
505.000000
31
0.0
0
LINE
8
LINES
10
534.000000
20
510.000000
30
0.0
11
577.000000
21
510.000000
31
0.0
0
LINE
8
LINES
10
488.000000
20
217.000000
30
0.0
11
446.000000
21
217.000000
31
0.0
0
LINE
8
LINES
10
731.000000
20
390.000000
30
0.0
11
771.000000
21
385.000000
31
0.0
0
LINE
8
LINES
10
142.000000
20
99.000000
30
0.0
11
121.000000
21
65.000000
31
0.0
0
LINE
8
LINES
10
723.000000
20
801.000000
30
0.0
11
681.000000
21
801.000000
31
0.0
0
LINE
8
LINES
10
438.000000
20
801.000000
30
0.0
11
396.000000
21
801.000000
31
0.0
0
LINE
8
LINES
10
729.000000
20
880.000000
30
0.0
11
771.000000
21
880.000000
31
0.0
0
LINE
8
LINES
10
681.000000
20
873.000000
30
0.0
11
723.000000
21
873.000000
31
0.0
0
LINE
8
LINES
10
492.000000
20
873.000000
30
0.0
11
532.000000
21
873.000000
31
0.0
0
LINE
8
LINES
10
248.000000
20
801.000000
30
0.0
11
206.000000
21
801.000000
31
0.0
0
LINE
8
LINES
10
659.000000
20
630.000000
30
0.0
11
659.000000
21
588.000000
31
0.0
0
LINE
8
LINES
10
44.000000
20
187.000000
30
0.0
11
3.000000
21
187.000000
31
0.0
0
LINE
8
LINES
10
568.000000
20
755.000000
30
0.0
11
568.000000
21
796.000000
31
0.0
0
LINE
8
LINES
10
379.000000
20
958.000000
30
0.0
11
379.000000
21
916.000000
31
0.0
0
LINE
8
LINES
10
313.000000
20
361.000000
30
0.0
11
313.000000
21
401.000000
31
0.0
0
LINE
8
LINES
10
364.000000
20
633.000000
30
0.0
11
364.000000
21
592.000000
31
0.0
0
LINE
8
LINES
10
616.000000
20
328.000000
30
0.0
11
574.000000
21
328.000000
31
0.0
0
LINE
8
LINES
10
44.000000
20
241.000000
30
0.0
11
44.000000
21
198.000000
31
0.0
0
LINE
8
LINES
10
246.000000
20
998.000000
30
0.0
11
286.000000
21
998.000000
31
0.0
0
LINE
8
LINES
10
755.000000
20
707.000000
30
0.0
11
796.000000
21
707.000000
31
0.0
0
LINE
8
LINES
10
668.000000
20
105.000000
30
0.0
11
628.000000
21
105.000000
31
0.0
0
LINE
8
LINES
10
580.000000
20
220.000000
30
0.0
11
580.000000
21
260.000000
31
0.0
0
LINE
8
LINES
10
270.000000
20
424.000000
30
0.0
11
270.000000
21
464.000000
31
0.0
0
LINE
8
LINES
10
750.000000
20
592.000000
30
0.0
11
750.000000
21
632.000000
31
0.0
0
LINE
8
LINES
10
360.000000
20
464.000000
30
0.0
11
360.000000
21
424.000000
31
0.0
0
LINE
8
LINES
10
361.000000
20
424.000000
30
0.0
11
361.000000
21
464.000000
31
0.0
0
LINE
8
LINES
10
654.000000
20
588.000000
30
0.0
11
654.000000
21
628.000000
31
0.0
0
LINE
8
LINES
10
454.000000
20
424.000000
30
0.0
11
454.000000
21
464.000000
31
0.0
0
LINE
8
LINES
10
539.000000
20
880.000000
30
0.0
11
579.000000
21
880.000000
31
0.0
0
LINE
8
LINES
10
793.000000
20
699.000000
30
0.0
11
753.000000
21
699.000000
31
0.0
0
LINE
8
LINES
10
452.000000
20
464.000000
30
0.0
11
452.000000
21
424.000000
31
0.0
0
LINE
8
LINES
10
161.000000
20
313.000000
30
0.0
11
201.000000
21
313.000000
31
0.0
0
LINE
8
LINES
10
385.000000
20
632.000000
30
0.0
11
385.000000
21
592.000000
31
0.0
0
LINE
8
LINES
10
364.000000
20
699.000000
30
0.0
11
323.000000
21
699.000000
31
0.0
0
LINE
8
LINES
10
816.000000
20
396.000000
30
0.0
11
856.000000
21
396.000000
31
0.0
0
LINE
8
LINES
10
292.000000
20
632.000000
30
0.0
11
292.000000
21
592.000000
31
0.0
0
LINE
8
LINES
10
289.000000
20
592.000000
30
0.0
11
289.000000
21
632.000000
31
0.0
0
LINE
8
LINES
10
542.000000
20
424.000000
30
0.0
11
542.000000
21
385.000000
31
0.0
0
LINE
8
LINES
10
771.000000
20
798.000000
30
0.0
11
811.000000
21
795.000000
31
0.0
0
LINE
8
LINES
10
793.000000
20
713.000000
30
0.0
11
755.000000
21
708.000000
31
0.0
0
LINE
8
LINES
10
486.000000
20
222.000000
30
0.0
11
486.000000
21
260.000000
31
0.0
0
LINE
8
LINES
10
297.000000
20
222.000000
30
0.0
11
297.000000
21
260.000000
31
0.0
0
LINE
8
LINES
10
406.000000
20
321.000000
30
0.0
11
444.000000
21
321.000000
31
0.0
0
LINE
8
LINES
10
835.000000
20
560.000000
30
0.0
11
796.000000
21
560.000000
31
0.0
0
LINE
8
LINES
10
163.000000
20
222.000000
30
0.0
11
201.000000
21
222.000000
31
0.0
0
LINE
8
LINES
10
267.000000
20
464.000000
30
0.0
11
267.000000
21
425.000000
31
0.0
0
LINE
8
LINES
10
436.000000
20
790.000000
30
0.0
11
398.000000
21
790.000000
31
0.0
0
LINE
8
LINES
10
588.000000
20
732.000000
30
0.0
11
627.000000
21
732.000000
31
0.0
0
LINE
8
LINES
10
356.000000
20
798.000000
30
0.0
11
396.000000
21
798.000000
31
0.0
0
LINE
8
LINES
10
492.000000
20
745.000000
30
0.0
11
531.000000
21
745.000000
31
0.0
0
LINE
8
LINES
10
588.000000
20
771.000000
30
0.0
11
627.000000
21
771.000000
31
0.0
0
LINE
8
LINES
10
492.000000
20
785.000000
30
0.0
11
531.000000
21
785.000000
31
0.0
0
LINE
8
LINES
10
683.000000
20
758.000000
30
0.0
11
721.000000
21
758.000000
31
0.0
0
LINE
8
LINES
10
492.000000
20
771.000000
30
0.0
11
531.000000
21
771.000000
31
0.0
0
LINE
8
LINES
10
731.000000
20
553.000000
30
0.0
11
769.000000
21
553.000000
31
0.0
0
LINE
8
LINES
10
398.000000
20
745.000000
30
0.0
11
436.000000
21
745.000000
31
0.0
0
LINE
8
LINES
10
588.000000
20
745.000000
30
0.0
11
627.000000
21
745.000000
31
0.0
0
LINE
8
LINES
10
492.000000
20
758.000000
30
0.0
11
531.000000
21
758.000000
31
0.0
0
LINE
8
LINES
10
540.000000
20
313.000000
30
0.0
11
579.000000
21
313.000000
31
0.0
0
LINE
8
LINES
10
729.000000
20
312.000000
30
0.0
11
768.000000
21
312.000000
31
0.0
0
LINE
8
LINES
10
588.000000
20
785.000000
30
0.0
11
627.000000
21
785.000000
31
0.0
0
LINE
8
LINES
10
540.000000
20
387.000000
30
0.0
11
579.000000
21
387.000000
31
0.0
0
LINE
8
LINES
10
352.000000
20
553.000000
30
0.0
11
390.000000
21
553.000000
31
0.0
0
LINE
8
LINES
10
531.000000
20
723.000000
30
0.0
11
492.000000
21
723.000000
31
0.0
0
LINE
8
LINES
10
398.000000
20
732.000000
30
0.0
11
436.000000
21
732.000000
31
0.0
0
LINE
8
LINES
10
627.000000
20
723.000000
30
0.0
11
588.000000
21
723.000000
31
0.0
0
LINE
8
LINES
10
398.000000
20
720.000000
30
0.0
11
436.000000
21
720.000000
31
0.0
0
LINE
8
LINES
10
627.000000
20
737.000000
30
0.0
11
588.000000
21
737.000000
31
0.0
0
LINE
8
LINES
10
636.000000
20
312.000000
30
0.0
11
673.000000
21
312.000000
31
0.0
0
LINE
8
LINES
10
436.000000
20
737.000000
30
0.0
11
398.000000
21
737.000000
31
0.0
0
LINE
8
LINES
10
398.000000
20
771.000000
30
0.0
11
436.000000
21
771.000000
31
0.0
0
LINE
8
LINES
10
627.000000
20
776.000000
30
0.0
11
588.000000
21
776.000000
31
0.0
0
LINE
8
LINES
10
352.000000
20
313.000000
30
0.0
11
390.000000
21
313.000000
31
0.0
0
LINE
8
LINES
10
721.000000
20
724.000000
30
0.0
11
683.000000
21
724.000000
31
0.0
0
LINE
8
LINES
10
446.000000
20
313.000000
30
0.0
11
486.000000
21
313.000000
31
0.0
0
LINE
8
LINES
10
531.000000
20
737.000000
30
0.0
11
492.000000
21
737.000000
31
0.0
0
LINE
8
LINES
10
531.000000
20
763.000000
30
0.0
11
492.000000
21
763.000000
31
0.0
0
LINE
8
LINES
10
531.000000
20
776.000000
30
0.0
11
492.000000
21
776.000000
31
0.0
0
LINE
8
LINES
10
436.000000
20
777.000000
30
0.0
11
398.000000
21
777.000000
31
0.0
0
LINE
8
LINES
10
721.000000
20
777.000000
30
0.0
11
683.000000
21
777.000000
31
0.0
0
LINE
8
LINES
10
208.000000
20
747.000000
30
0.0
11
246.000000
21
747.000000
31
0.0
0
LINE
8
LINES
10
208.000000
20
772.000000
30
0.0
11
246.000000
21
772.000000
31
0.0
0
LINE
8
LINES
10
721.000000
20
764.000000
30
0.0
11
683.000000
21
764.000000
31
0.0
0
LINE
8
LINES
10
208.000000
20
732.000000
30
0.0
11
246.000000
21
732.000000
31
0.0
0
LINE
8
LINES
10
627.000000
20
750.000000
30
0.0
11
588.000000
21
750.000000
31
0.0
0
LINE
8
LINES
10
755.000000
20
694.000000
30
0.0
11
793.000000
21
694.000000
31
0.0
0
LINE
8
LINES
10
208.000000
20
760.000000
30
0.0
11
246.000000
21
760.000000
31
0.0
0
LINE
8
LINES
10
531.000000
20
790.000000
30
0.0
11
492.000000
21
790.000000
31
0.0
0
LINE
8
LINES
10
627.000000
20
764.000000
30
0.0
11
588.000000
21
764.000000
31
0.0
0
LINE
8
LINES
10
208.000000
20
721.000000
30
0.0
11
246.000000
21
721.000000
31
0.0
0
LINE
8
LINES
10
531.000000
20
750.000000
30
0.0
11
492.000000
21
750.000000
31
0.0
0
LINE
8
LINES
10
208.000000
20
785.000000
30
0.0
11
246.000000
21
785.000000
31
0.0
0
LINE
8
LINES
10
246.000000
20
790.000000
30
0.0
11
208.000000
21
790.000000
31
0.0
0
LINE
8
LINES
10
246.000000
20
750.000000
30
0.0
11
208.000000
21
750.000000
31
0.0
0
LINE
8
LINES
10
246.000000
20
724.000000
30
0.0
11
208.000000
21
724.000000
31
0.0
0
LINE
8
LINES
10
323.000000
20
652.000000
30
0.0
11
363.000000
21
652.000000
31
0.0
0
LINE
8
LINES
10
246.000000
20
764.000000
30
0.0
11
208.000000
21
764.000000
31
0.0
0
LINE
8
LINES
10
67.000000
20
313.000000
30
0.0
11
107.000000
21
313.000000
31
0.0
0
LINE
8
LINES
10
246.000000
20
737.000000
30
0.0
11
208.000000
21
737.000000
31
0.0
0
LINE
8
LINES
10
792.000000
20
278.000000
30
0.0
11
830.000000
21
278.000000
31
0.0
0
LINE
8
LINES
10
824.000000
20
659.000000
30
0.0
11
785.000000
21
659.000000
31
0.0
0
LINE
8
LINES
10
374.000000
20
918.000000
30
0.0
11
374.000000
21
958.000000
31
0.0
0
LINE
8
LINES
10
272.000000
20
633.000000
30
0.0
11
272.000000
21
593.000000
31
0.0
0
LINE
8
LINES
10
206.000000
20
473.000000
30
0.0
11
166.000000
21
473.000000
31
0.0
0
LINE
8
LINES
10
371.000000
20
142.000000
30
0.0
11
332.000000
21
142.000000
31
0.0
0
LINE
8
LINES
10
518.000000
20
243.000000
30
0.0
11
518.000000
21
204.000000
31
0.0
0
LINE
8
LINES
10
510.000000
20
683.000000
30
0.0
11
548.000000
21
683.000000
31
0.0
0
LINE
8
LINES
10
595.000000
20
67.000000
30
0.0
11
606.000000
21
102.000000
31
0.0
0
LINE
8
LINES
10
363.000000
20
465.000000
30
0.0
11
401.000000
21
465.000000
31
0.0
0
LINE
8
LINES
10
731.000000
20
417.000000
30
0.0
11
768.000000
21
417.000000
31
0.0
0
LINE
8
LINES
10
769.000000
20
384.000000
30
0.0
11
769.000000
21
422.000000
31
0.0
0
LINE
8
LINES
10
305.000000
20
939.000000
30
0.0
11
305.000000
21
977.000000
31
0.0
0
LINE
8
LINES
10
108.000000
20
222.000000
30
0.0
11
108.000000
21
260.000000
31
0.0
0
LINE
8
LINES
10
636.000000
20
222.000000
30
0.0
11
673.000000
21
222.000000
31
0.0
0
LINE
8
LINES
10
353.000000
20
222.000000
30
0.0
11
390.000000
21
222.000000
31
0.0
0
LINE
8
LINES
10
542.000000
20
222.000000
30
0.0
11
579.000000
21
222.000000
31
0.0
0
LINE
8
LINES
10
448.000000
20
222.000000
30
0.0
11
486.000000
21
222.000000
31
0.0
0
LINE
8
LINES
10
731.000000
20
222.000000
30
0.0
11
768.000000
21
222.000000
31
0.0
0
LINE
8
LINES
10
257.000000
20
222.000000
30
0.0
11
296.000000
21
222.000000
31
0.0
0
LINE
8
LINES
10
636.000000
20
718.000000
30
0.0
11
673.000000
21
718.000000
31
0.0
0
LINE
8
LINES
10
731.000000
20
718.000000
30
0.0
11
768.000000
21
718.000000
31
0.0
0
LINE
8
LINES
10
492.000000
20
732.000000
30
0.0
11
531.000000
21
732.000000
31
0.0
0
LINE
8
LINES
10
446.000000
20
716.000000
30
0.0
11
483.000000
21
716.000000
31
0.0
0
LINE
8
LINES
10
683.000000
20
720.000000
30
0.0
11
721.000000
21
720.000000
31
0.0
0
LINE
8
LINES
10
542.000000
20
718.000000
30
0.0
11
579.000000
21
718.000000
31
0.0
0
LINE
8
LINES
10
683.000000
20
732.000000
30
0.0
11
721.000000
21
732.000000
31
0.0
0
LINE
8
LINES
10
588.000000
20
758.000000
30
0.0
11
625.000000
21
758.000000
31
0.0
0
LINE
8
LINES
10
68.000000
20
222.000000
30
0.0
11
107.000000
21
222.000000
31
0.0
0
LINE
8
LINES
10
446.000000
20
553.000000
30
0.0
11
483.000000
21
553.000000
31
0.0
0
LINE
8
LINES
10
683.000000
20
771.000000
30
0.0
11
721.000000
21
771.000000
31
0.0
0
LINE
8
LINES
10
398.000000
20
758.000000
30
0.0
11
436.000000
21
758.000000
31
0.0
0
LINE
8
LINES
10
636.000000
20
553.000000
30
0.0
11
673.000000
21
553.000000
31
0.0
0
LINE
8
LINES
10
683.000000
20
745.000000
30
0.0
11
721.000000
21
745.000000
31
0.0
0
LINE
8
LINES
10
588.000000
20
720.000000
30
0.0
11
625.000000
21
720.000000
31
0.0
0
LINE
8
LINES
10
436.000000
20
763.000000
30
0.0
11
398.000000
21
763.000000
31
0.0
0
LINE
8
LINES
10
435.000000
20
723.000000
30
0.0
11
398.000000
21
723.000000
31
0.0
0
LINE
8
LINES
10
721.000000
20
750.000000
30
0.0
11
683.000000
21
750.000000
31
0.0
0
LINE
8
LINES
10
246.000000
20
777.000000
30
0.0
11
209.000000
21
777.000000
31
0.0
0
LINE
8
LINES
10
435.000000
20
750.000000
30
0.0
11
398.000000
21
750.000000
31
0.0
0
LINE
8
LINES
10
721.000000
20
788.000000
30
0.0
11
684.000000
21
788.000000
31
0.0
0
LINE
8
LINES
10
721.000000
20
737.000000
30
0.0
11
683.000000
21
737.000000
31
0.0
0
LINE
8
LINES
10
627.000000
20
788.000000
30
0.0
11
588.000000
21
788.000000
31
0.0
0
LINE
8
LINES
10
478.000000
20
632.000000
30
0.0
11
478.000000
21
593.000000
31
0.0
0
LINE
8
LINES
10
542.000000
20
553.000000
30
0.0
11
579.000000
21
553.000000
31
0.0
0
LINE
8
LINES
10
392.000000
20
425.000000
30
0.0
11
392.000000
21
462.000000
31
0.0
0
LINE
8
LINES
10
163.000000
20
555.000000
30
0.0
11
201.000000
21
555.000000
31
0.0
0
LINE
8
LINES
10
264.000000
20
425.000000
30
0.0
11
264.000000
21
462.000000
31
0.0
0
LINE
8
LINES
10
697.000000
20
118.000000
30
0.0
11
659.000000
21
118.000000
31
0.0
0
LINE
8
LINES
10
257.000000
20
972.000000
30
0.0
11
246.000000
21
937.000000
31
0.0
0
LINE
8
LINES
10
257.000000
20
718.000000
30
0.0
11
294.000000
21
718.000000
31
0.0
0
LINE
8
LINES
10
796.000000
20
579.000000
30
0.0
11
833.000000
21
579.000000
31
0.0
0
LINE
8
LINES
10
793.000000
20
686.000000
30
0.0
11
756.000000
21
686.000000
31
0.0
0
LINE
8
LINES
10
163.000000
20
718.000000
30
0.0
11
198.000000
21
718.000000
31
0.0
0
LINE
8
LINES
10
732.000000
20
884.000000
30
0.0
11
768.000000
21
884.000000
31
0.0
0
LINE
8
LINES
10
177.000000
20
427.000000
30
0.0
11
177.000000
21
462.000000
31
0.0
0
LINE
8
LINES
10
766.000000
20
401.000000
30
0.0
11
731.000000
21
401.000000
31
0.0
0
LINE
8
LINES
10
732.000000
20
252.000000
30
0.0
11
768.000000
21
252.000000
31
0.0
0
LINE
8
LINES
10
673.000000
20
259.000000
30
0.0
11
638.000000
21
259.000000
31
0.0
0
LINE
8
LINES
10
732.000000
20
745.000000
30
0.0
11
768.000000
21
745.000000
31
0.0
0
LINE
8
LINES
10
768.000000
20
238.000000
30
0.0
11
732.000000
21
238.000000
31
0.0
0
LINE
8
LINES
10
494.000000
20
720.000000
30
0.0
11
531.000000
21
720.000000
31
0.0
0
LINE
8
LINES
10
398.000000
20
785.000000
30
0.0
11
435.000000
21
785.000000
31
0.0
0
LINE
8
LINES
10
684.000000
20
785.000000
30
0.0
11
721.000000
21
785.000000
31
0.0
0
LINE
8
LINES
10
353.000000
20
718.000000
30
0.0
11
388.000000
21
718.000000
31
0.0
0
LINE
8
LINES
10
187.000000
20
590.000000
30
0.0
11
187.000000
21
627.000000
31
0.0
0
LINE
8
LINES
10
588.000000
20
860.000000
30
0.0
11
625.000000
21
860.000000
31
0.0
0
LINE
8
LINES
10
257.000000
20
553.000000
30
0.0
11
294.000000
21
553.000000
31
0.0
0
LINE
8
LINES
10
128.000000
20
545.000000
30
0.0
11
128.000000
21
508.000000
31
0.0
0
LINE
8
LINES
10
723.000000
20
729.000000
30
0.0
11
723.000000
21
766.000000
31
0.0
0
LINE
8
LINES
10
753.000000
20
630.000000
30
0.0
11
753.000000
21
593.000000
31
0.0
0
LINE
8
LINES
10
638.000000
20
884.000000
30
0.0
11
673.000000
21
884.000000
31
0.0
0
LINE
8
LINES
10
564.000000
20
953.000000
30
0.0
11
564.000000
21
916.000000
31
0.0
0
LINE
8
LINES
10
451.000000
20
297.000000
30
0.0
11
451.000000
21
262.000000
31
0.0
0
LINE
8
LINES
10
752.000000
20
462.000000
30
0.0
11
752.000000
21
427.000000
31
0.0
0
LINE
8
LINES
10
448.000000
20
884.000000
30
0.0
11
483.000000
21
884.000000
31
0.0
0
LINE
8
LINES
10
768.000000
20
395.000000
30
0.0
11
732.000000
21
395.000000
31
0.0
0
LINE
8
LINES
10
817.000000
20
420.000000
30
0.0
11
852.000000
21
420.000000
31
0.0
0
LINE
8
LINES
10
472.000000
20
462.000000
30
0.0
11
472.000000
21
427.000000
31
0.0
0
LINE
8
LINES
10
83.000000
20
158.000000
30
0.0
11
48.000000
21
158.000000
31
0.0
0
LINE
8
LINES
10
360.000000
20
787.000000
30
0.0
11
360.000000
21
752.000000
31
0.0
0
LINE
8
LINES
10
281.000000
20
427.000000
30
0.0
11
281.000000
21
462.000000
31
0.0
0
LINE
8
LINES
10
369.000000
20
155.000000
30
0.0
11
332.000000
21
155.000000
31
0.0
0
LINE
8
LINES
10
313.000000
20
425.000000
30
0.0
11
313.000000
21
462.000000
31
0.0
0
LINE
8
LINES
10
275.000000
20
796.000000
30
0.0
11
275.000000
21
758.000000
31
0.0
0
LINE
8
LINES
10
579.000000
20
401.000000
30
0.0
11
544.000000
21
401.000000
31
0.0
0
LINE
8
LINES
10
590.000000
20
102.000000
30
0.0
11
584.000000
21
67.000000
31
0.0
0
LINE
8
LINES
10
638.000000
20
419.000000
30
0.0
11
673.000000
21
419.000000
31
0.0
0
LINE
8
LINES
10
638.000000
20
252.000000
30
0.0
11
673.000000
21
252.000000
31
0.0
0
LINE
8
LINES
10
673.000000
20
403.000000
30
0.0
11
638.000000
21
403.000000
31
0.0
0
LINE
8
LINES
10
544.000000
20
417.000000
30
0.0
11
579.000000
21
417.000000
31
0.0
0
LINE
8
LINES
10
768.000000
20
259.000000
30
0.0
11
732.000000
21
259.000000
31
0.0
0
LINE
8
LINES
10
764.000000
20
521.000000
30
0.0
11
764.000000
21
486.000000
31
0.0
0
LINE
8
LINES
10
748.000000
20
297.000000
30
0.0
11
748.000000
21
262.000000
31
0.0
0
LINE
8
LINES
10
833.000000
20
584.000000
30
0.0
11
798.000000
21
584.000000
31
0.0
0
LINE
8
LINES
10
270.000000
20
262.000000
30
0.0
11
270.000000
21
297.000000
31
0.0
0
LINE
8
LINES
10
654.000000
20
297.000000
30
0.0
11
654.000000
21
262.000000
31
0.0
0
LINE
8
LINES
10
732.000000
20
582.000000
30
0.0
11
768.000000
21
582.000000
31
0.0
0
LINE
8
LINES
10
564.000000
20
262.000000
30
0.0
11
564.000000
21
297.000000
31
0.0
0
LINE
8
LINES
10
192.000000
20
625.000000
30
0.0
11
192.000000
21
590.000000
31
0.0
0
LINE
8
LINES
10
752.000000
20
262.000000
30
0.0
11
752.000000
21
297.000000
31
0.0
0
LINE
8
LINES
10
398.000000
20
860.000000
30
0.0
11
433.000000
21
860.000000
31
0.0
0
LINE
8
LINES
10
494.000000
20
860.000000
30
0.0
11
529.000000
21
860.000000
31
0.0
0
LINE
8
LINES
10
684.000000
20
860.000000
30
0.0
11
718.000000
21
860.000000
31
0.0
0
LINE
8
LINES
10
673.000000
20
396.000000
30
0.0
11
638.000000
21
396.000000
31
0.0
0
LINE
8
LINES
10
454.000000
20
262.000000
30
0.0
11
454.000000
21
297.000000
31
0.0
0
LINE
8
LINES
10
638.000000
20
395.000000
30
0.0
11
673.000000
21
395.000000
31
0.0
0
LINE
8
LINES
10
748.000000
20
427.000000
30
0.0
11
748.000000
21
462.000000
31
0.0
0
LINE
8
LINES
10
326.000000
20
694.000000
30
0.0
11
361.000000
21
694.000000
31
0.0
0
LINE
8
LINES
10
374.000000
20
427.000000
30
0.0
11
374.000000
21
462.000000
31
0.0
0
LINE
8
LINES
10
542.000000
20
883.000000
30
0.0
11
577.000000
21
883.000000
31
0.0
0
LINE
8
LINES
10
358.000000
20
686.000000
30
0.0
11
323.000000
21
686.000000
31
0.0
0
LINE
8
LINES
10
353.000000
20
884.000000
30
0.0
11
387.000000
21
884.000000
31
0.0
0
LINE
8
LINES
10
353.000000
20
323.000000
30
0.0
11
388.000000
21
323.000000
31
0.0
0
LINE
8
LINES
10
70.000000
20
387.000000
30
0.0
11
105.000000
21
387.000000
31
0.0
0
LINE
8
LINES
10
659.000000
20
464.000000
30
0.0
11
659.000000
21
428.000000
31
0.0
0
LINE
8
LINES
10
697.000000
20
155.000000
30
0.0
11
662.000000
21
155.000000
31
0.0
0
LINE
8
LINES
10
179.000000
20
158.000000
30
0.0
11
144.000000
21
158.000000
31
0.0
0
LINE
8
LINES
10
732.000000
20
230.000000
30
0.0
11
768.000000
21
230.000000
31
0.0
0
LINE
8
LINES
10
254.000000
20
105.000000
30
0.0
11
289.000000
21
105.000000
31
0.0
0
LINE
8
LINES
10
766.000000
20
721.000000
30
0.0
11
732.000000
21
721.000000
31
0.0
0
LINE
8
LINES
10
768.000000
20
964.000000
30
0.0
11
732.000000
21
964.000000
31
0.0
0
LINE
8
LINES
10
289.000000
20
761.000000
30
0.0
11
289.000000
21
796.000000
31
0.0
0
LINE
8
LINES
10
169.000000
20
297.000000
30
0.0
11
169.000000
21
262.000000
31
0.0
0
LINE
8
LINES
10
769.000000
20
427.000000
30
0.0
11
769.000000
21
462.000000
31
0.0
0
LINE
8
LINES
10
451.000000
20
425.000000
30
0.0
11
451.000000
21
460.000000
31
0.0
0
LINE
8
LINES
10
358.000000
20
427.000000
30
0.0
11
358.000000
21
462.000000
31
0.0
0
LINE
8
LINES
10
124.000000
20
513.000000
30
0.0
11
97.000000
21
492.000000
31
0.0
0
LINE
8
LINES
10
179.000000
20
796.000000
30
0.0
11
179.000000
21
761.000000
31
0.0
0
LINE
8
LINES
10
494.000000
20
430.000000
30
0.0
11
528.000000
21
424.000000
31
0.0
0
LINE
8
LINES
10
483.000000
20
393.000000
30
0.0
11
449.000000
21
393.000000
31
0.0
0
LINE
8
LINES
10
787.000000
20
369.000000
30
0.0
11
820.000000
21
369.000000
31
0.0
0
LINE
8
LINES
10
790.000000
20
273.000000
30
0.0
11
824.000000
21
273.000000
31
0.0
0
LINE
8
LINES
10
272.000000
20
465.000000
30
0.0
11
305.000000
21
465.000000
31
0.0
0
LINE
8
LINES
10
356.000000
20
417.000000
30
0.0
11
390.000000
21
417.000000
31
0.0
0
LINE
8
LINES
10
451.000000
20
417.000000
30
0.0
11
483.000000
21
417.000000
31
0.0
0
LINE
8
LINES
10
545.000000
20
252.000000
30
0.0
11
579.000000
21
252.000000
31
0.0
0
LINE
8
LINES
10
673.000000
20
240.000000
30
0.0
11
638.000000
21
240.000000
31
0.0
0
LINE
8
LINES
10
449.000000
20
582.000000
30
0.0
11
483.000000
21
582.000000
31
0.0
0
LINE
8
LINES
10
657.000000
20
262.000000
30
0.0
11
657.000000
21
297.000000
31
0.0
0
LINE
8
LINES
10
544.000000
20
582.000000
30
0.0
11
577.000000
21
582.000000
31
0.0
0
LINE
8
LINES
10
355.000000
20
582.000000
30
0.0
11
388.000000
21
582.000000
31
0.0
0
LINE
8
LINES
10
638.000000
20
744.000000
30
0.0
11
673.000000
21
744.000000
31
0.0
0
LINE
8
LINES
10
638.000000
20
582.000000
30
0.0
11
673.000000
21
582.000000
31
0.0
0
LINE
8
LINES
10
544.000000
20
744.000000
30
0.0
11
577.000000
21
744.000000
31
0.0
0
LINE
8
LINES
10
768.000000
20
587.000000
30
0.0
11
734.000000
21
587.000000
31
0.0
0
LINE
8
LINES
10
673.000000
20
748.000000
30
0.0
11
638.000000
21
748.000000
31
0.0
0
LINE
8
LINES
10
793.000000
20
984.000000
30
0.0
11
758.000000
21
984.000000
31
0.0
0
LINE
8
LINES
10
177.000000
20
262.000000
30
0.0
11
177.000000
21
297.000000
31
0.0
0
LINE
8
LINES
10
561.000000
20
297.000000
30
0.0
11
561.000000
21
262.000000
31
0.0
0
LINE
8
LINES
10
361.000000
20
262.000000
30
0.0
11
361.000000
21
297.000000
31
0.0
0
LINE
8
LINES
10
433.000000
20
865.000000
30
0.0
11
401.000000
21
865.000000
31
0.0
0
LINE
8
LINES
10
376.000000
20
297.000000
30
0.0
11
376.000000
21
264.000000
31
0.0
0
LINE
8
LINES
10
284.000000
20
264.000000
30
0.0
11
284.000000
21
297.000000
31
0.0
0
LINE
8
LINES
10
451.000000
20
393.000000
30
0.0
11
483.000000
21
393.000000
31
0.0
0
LINE
8
LINES
10
624.000000
20
864.000000
30
0.0
11
590.000000
21
864.000000
31
0.0
0
LINE
8
LINES
10
681.000000
20
748.000000
30
0.0
11
681.000000
21
713.000000
31
0.0
0
LINE
8
LINES
10
638.000000
20
230.000000
30
0.0
11
672.000000
21
230.000000
31
0.0
0
LINE
8
LINES
10
544.000000
20
393.000000
30
0.0
11
577.000000
21
393.000000
31
0.0
0
LINE
8
LINES
10
172.000000
20
624.000000
30
0.0
11
172.000000
21
590.000000
31
0.0
0
LINE
8
LINES
10
673.000000
20
964.000000
30
0.0
11
638.000000
21
964.000000
31
0.0
0
LINE
8
LINES
10
601.000000
20
156.000000
30
0.0
11
566.000000
21
156.000000
31
0.0
0
LINE
8
LINES
10
76.000000
20
297.000000
30
0.0
11
76.000000
21
264.000000
31
0.0
0
LINE
8
LINES
10
529.000000
20
113.000000
30
0.0
11
496.000000
21
113.000000
31
0.0
0
LINE
8
LINES
10
323.000000
20
1022.000000
30
0.0
11
316.000000
21
990.000000
31
0.0
0
LINE
8
LINES
10
451.000000
20
252.000000
30
0.0
11
483.000000
21
252.000000
31
0.0
0
LINE
8
LINES
10
579.000000
20
259.000000
30
0.0
11
547.000000
21
259.000000
31
0.0
0
LINE
8
LINES
10
486.000000
20
260.000000
30
0.0
11
452.000000
21
260.000000
31
0.0
0
LINE
8
LINES
10
264.000000
20
297.000000
30
0.0
11
264.000000
21
264.000000
31
0.0
0
LINE
8
LINES
10
470.000000
20
264.000000
30
0.0
11
470.000000
21
297.000000
31
0.0
0
LINE
8
LINES
10
795.000000
20
523.000000
30
0.0
11
795.000000
21
556.000000
31
0.0
0
LINE
8
LINES
10
828.000000
20
608.000000
30
0.0
11
796.000000
21
608.000000
31
0.0
0
LINE
8
LINES
10
451.000000
20
744.000000
30
0.0
11
483.000000
21
744.000000
31
0.0
0
LINE
8
LINES
10
387.000000
20
518.000000
30
0.0
11
387.000000
21
486.000000
31
0.0
0
LINE
8
LINES
10
796.000000
20
617.000000
30
0.0
11
828.000000
21
617.000000
31
0.0
0
LINE
8
LINES
10
356.000000
20
744.000000
30
0.0
11
388.000000
21
744.000000
31
0.0
0
LINE
8
LINES
10
358.000000
20
880.000000
30
0.0
11
390.000000
21
880.000000
31
0.0
0
LINE
8
LINES
10
734.000000
20
486.000000
30
0.0
11
734.000000
21
518.000000
31
0.0
0
LINE
8
LINES
10
828.000000
20
632.000000
30
0.0
11
796.000000
21
632.000000
31
0.0
0
LINE
8
LINES
10
355.000000
20
486.000000
30
0.0
11
355.000000
21
518.000000
31
0.0
0
LINE
8
LINES
10
793.000000
20
635.000000
30
0.0
11
827.000000
21
635.000000
31
0.0
0
LINE
8
LINES
10
388.000000
20
971.000000
30
0.0
11
356.000000
21
971.000000
31
0.0
0
LINE
8
LINES
10
281.000000
20
297.000000
30
0.0
11
281.000000
21
264.000000
31
0.0
0
LINE
8
LINES
10
734.000000
20
396.000000
30
0.0
11
766.000000
21
396.000000
31
0.0
0
LINE
8
LINES
10
641.000000
20
398.000000
30
0.0
11
673.000000
21
398.000000
31
0.0
0
LINE
8
LINES
10
718.000000
20
865.000000
30
0.0
11
686.000000
21
865.000000
31
0.0
0
LINE
8
LINES
10
528.000000
20
865.000000
30
0.0
11
496.000000
21
865.000000
31
0.0
0
LINE
8
LINES
10
790.000000
20
673.000000
30
0.0
11
822.000000
21
673.000000
31
0.0
0
LINE
8
LINES
10
356.000000
20
393.000000
30
0.0
11
388.000000
21
393.000000
31
0.0
0
LINE
8
LINES
10
172.000000
20
297.000000
30
0.0
11
172.000000
21
264.000000
31
0.0
0
LINE
8
LINES
10
313.000000
20
699.000000
30
0.0
11
281.000000
21
699.000000
31
0.0
0
LINE
8
LINES
10
262.000000
20
393.000000
30
0.0
11
296.000000
21
393.000000
31
0.0
0
LINE
8
LINES
10
379.000000
20
264.000000
30
0.0
11
379.000000
21
297.000000
31
0.0
0
LINE
8
LINES
10
776.000000
20
748.000000
30
0.0
11
776.000000
21
716.000000
31
0.0
0
LINE
8
LINES
10
817.000000
20
444.000000
30
0.0
11
851.000000
21
444.000000
31
0.0
0
LINE
8
LINES
10
313.000000
20
686.000000
30
0.0
11
281.000000
21
686.000000
31
0.0
0
LINE
8
LINES
10
281.000000
20
694.000000
30
0.0
11
313.000000
21
694.000000
31
0.0
0
LINE
8
LINES
10
734.000000
20
561.000000
30
0.0
11
766.000000
21
561.000000
31
0.0
0
LINE
8
LINES
10
822.000000
20
670.000000
30
0.0
11
790.000000
21
670.000000
31
0.0
0
LINE
8
LINES
10
411.000000
20
156.000000
30
0.0
11
377.000000
21
156.000000
31
0.0
0
LINE
8
LINES
10
673.000000
20
721.000000
30
0.0
11
641.000000
21
721.000000
31
0.0
0
LINE
8
LINES
10
577.000000
20
964.000000
30
0.0
11
545.000000
21
964.000000
31
0.0
0
LINE
8
LINES
10
734.000000
20
233.000000
30
0.0
11
766.000000
21
233.000000
31
0.0
0
LINE
8
LINES
10
316.000000
20
540.000000
30
0.0
11
316.000000
21
572.000000
31
0.0
0
LINE
8
LINES
10
545.000000
20
232.000000
30
0.0
11
577.000000
21
232.000000
31
0.0
0
LINE
8
LINES
10
734.000000
20
241.000000
30
0.0
11
766.000000
21
241.000000
31
0.0
0
LINE
8
LINES
10
97.000000
20
265.000000
30
0.0
11
97.000000
21
297.000000
31
0.0
0
LINE
8
LINES
10
456.000000
20
470.000000
30
0.0
11
488.000000
21
470.000000
31
0.0
0
LINE
8
LINES
10
256.000000
20
761.000000
30
0.0
11
256.000000
21
729.000000
31
0.0
0
LINE
8
LINES
10
174.000000
20
412.000000
30
0.0
11
158.000000
21
384.000000
31
0.0
0
LINE
8
LINES
10
443.000000
20
99.000000
30
0.0
11
433.000000
21
70.000000
31
0.0
0
LINE
8
LINES
10
312.000000
20
979.000000
30
0.0
11
312.000000
21
947.000000
31
0.0
0
LINE
8
LINES
10
392.000000
20
384.000000
30
0.0
11
392.000000
21
416.000000
31
0.0
0
LINE
8
LINES
10
456.000000
20
465.000000
30
0.0
11
486.000000
21
465.000000
31
0.0
0
LINE
8
LINES
10
796.000000
20
628.000000
30
0.0
11
828.000000
21
628.000000
31
0.0
0
LINE
8
LINES
10
264.000000
20
417.000000
30
0.0
11
296.000000
21
417.000000
31
0.0
0
LINE
8
LINES
10
358.000000
20
252.000000
30
0.0
11
390.000000
21
252.000000
31
0.0
0
LINE
8
LINES
10
577.000000
20
238.000000
30
0.0
11
547.000000
21
238.000000
31
0.0
0
LINE
8
LINES
10
545.000000
20
286.000000
30
0.0
11
545.000000
21
256.000000
31
0.0
0
LINE
8
LINES
10
291.000000
20
484.000000
30
0.0
11
260.000000
21
484.000000
31
0.0
0
LINE
8
LINES
10
824.000000
20
203.000000
30
0.0
11
856.000000
21
203.000000
31
0.0
0
LINE
8
LINES
10
824.000000
20
195.000000
30
0.0
11
856.000000
21
195.000000
31
0.0
0
LINE
8
LINES
10
793.000000
20
651.000000
30
0.0
11
825.000000
21
651.000000
31
0.0
0
LINE
8
LINES
10
168.000000
20
582.000000
30
0.0
11
198.000000
21
582.000000
31
0.0
0
LINE
8
LINES
10
262.000000
20
582.000000
30
0.0
11
294.000000
21
582.000000
31
0.0
0
LINE
8
LINES
10
291.000000
20
518.000000
30
0.0
11
291.000000
21
486.000000
31
0.0
0
LINE
8
LINES
10
758.000000
20
996.000000
30
0.0
11
790.000000
21
996.000000
31
0.0
0
LINE
8
LINES
10
358.000000
20
230.000000
30
0.0
11
388.000000
21
230.000000
31
0.0
0
LINE
8
LINES
10
451.000000
20
908.000000
30
0.0
11
483.000000
21
908.000000
31
0.0
0
LINE
8
LINES
10
268.000000
20
158.000000
30
0.0
11
238.000000
21
158.000000
31
0.0
0
LINE
8
LINES
10
84.000000
20
267.000000
30
0.0
11
84.000000
21
297.000000
31
0.0
0
LINE
8
LINES
10
547.000000
20
561.000000
30
0.0
11
577.000000
21
561.000000
31
0.0
0
LINE
8
LINES
10
577.000000
20
721.000000
30
0.0
11
547.000000
21
721.000000
31
0.0
0
LINE
8
LINES
10
641.000000
20
723.000000
30
0.0
11
673.000000
21
723.000000
31
0.0
0
LINE
8
LINES
10
552.000000
20
156.000000
30
0.0
11
521.000000
21
156.000000
31
0.0
0
LINE
8
LINES
10
641.000000
20
561.000000
30
0.0
11
672.000000
21
561.000000
31
0.0
0
LINE
8
LINES
10
483.000000
20
964.000000
30
0.0
11
451.000000
21
964.000000
31
0.0
0
LINE
8
LINES
10
451.000000
20
230.000000
30
0.0
11
483.000000
21
230.000000
31
0.0
0
LINE
8
LINES
10
707.000000
20
224.000000
30
0.0
11
707.000000
21
193.000000
31
0.0
0
LINE
8
LINES
10
736.000000
20
724.000000
30
0.0
11
766.000000
21
724.000000
31
0.0
0
LINE
8
LINES
10
542.000000
20
120.000000
30
0.0
11
510.000000
21
120.000000
31
0.0
0
LINE
8
LINES
10
451.000000
20
558.000000
30
0.0
11
483.000000
21
558.000000
31
0.0
0
LINE
8
LINES
10
590.000000
20
113.000000
30
0.0
11
558.000000
21
113.000000
31
0.0
0
LINE
8
LINES
10
292.000000
20
97.000000
30
0.0
11
278.000000
21
68.000000
31
0.0
0
LINE
8
LINES
10
201.000000
20
260.000000
30
0.0
11
172.000000
21
260.000000
31
0.0
0
LINE
8
LINES
10
771.000000
20
886.000000
30
0.0
11
801.000000
21
886.000000
31
0.0
0
LINE
8
LINES
10
265.000000
20
252.000000
30
0.0
11
296.000000
21
252.000000
31
0.0
0
LINE
8
LINES
10
171.000000
20
252.000000
30
0.0
11
201.000000
21
252.000000
31
0.0
0
LINE
8
LINES
10
483.000000
20
240.000000
30
0.0
11
454.000000
21
240.000000
31
0.0
0
LINE
8
LINES
10
172.000000
20
417.000000
30
0.0
11
201.000000
21
417.000000
31
0.0
0
LINE
8
LINES
10
547.000000
20
398.000000
30
0.0
11
577.000000
21
398.000000
31
0.0
0
LINE
8
LINES
10
732.000000
20
521.000000
30
0.0
11
763.000000
21
521.000000
31
0.0
0
LINE
8
LINES
10
388.000000
20
396.000000
30
0.0
11
358.000000
21
396.000000
31
0.0
0
LINE
8
LINES
10
817.000000
20
470.000000
30
0.0
11
846.000000
21
470.000000
31
0.0
0
LINE
8
LINES
10
195.000000
20
593.000000
30
0.0
11
195.000000
21
624.000000
31
0.0
0
LINE
8
LINES
10
377.000000
20
462.000000
30
0.0
11
377.000000
21
432.000000
31
0.0
0
LINE
8
LINES
10
264.000000
20
230.000000
30
0.0
11
294.000000
21
230.000000
31
0.0
0
LINE
8
LINES
10
68.000000
20
323.000000
30
0.0
11
99.000000
21
323.000000
31
0.0
0
LINE
8
LINES
10
358.000000
20
908.000000
30
0.0
11
387.000000
21
908.000000
31
0.0
0
LINE
8
LINES
10
483.000000
20
721.000000
30
0.0
11
452.000000
21
721.000000
31
0.0
0
LINE
8
LINES
10
388.000000
20
721.000000
30
0.0
11
358.000000
21
721.000000
31
0.0
0
LINE
8
LINES
10
641.000000
20
233.000000
30
0.0
11
672.000000
21
233.000000
31
0.0
0
LINE
8
LINES
10
856.000000
20
307.000000
30
0.0
11
825.000000
21
307.000000
31
0.0
0
LINE
8
LINES
10
582.000000
20
331.000000
30
0.0
11
612.000000
21
331.000000
31
0.0
0
ENDSEC
0
EOF
