0
SECTION
2
ENTITIES
0
LWPOLYLINE
8
FACADE_OUTLINE
90
4
70
1
10
0.000000
20
0.000000
10
768.000000
20
0.000000
10
768.000000
20
1024.000000
10
0.000000
20
1024.000000
0
LWPOLYLINE
8
WINDOWS
90
4
70
1
10
121.000000
20
0.000000
10
764.000000
20
0.000000
10
764.000000
20
428.000000
10
121.000000
20
428.000000
0
LWPOLYLINE
8
WINDOWS
90
4
70
1
10
115.000000
20
545.000000
10
563.000000
20
545.000000
10
563.000000
20
745.000000
10
115.000000
20
745.000000
0
LWPOLYLINE
8
WINDOWS
90
4
70
1
10
200.000000
20
577.000000
10
427.000000
20
577.000000
10
427.000000
20
665.000000
10
200.000000
20
665.000000
0
LWPOLYLINE
8
WINDOWS
90
4
70
1
10
561.000000
20
774.000000
10
609.000000
20
774.000000
10
609.000000
20
849.000000
10
561.000000
20
849.000000
0
LWPOLYLINE
8
WINDOWS
90
4
70
1
10
152.000000
20
900.000000
10
227.000000
20
900.000000
10
227.000000
20
964.000000
10
152.000000
20
964.000000
0
LWPOLYLINE
8
WINDOWS
90
4
70
1
10
441.000000
20
900.000000
10
547.000000
20
900.000000
10
547.000000
20
969.000000
10
441.000000
20
969.000000
0
LWPOLYLINE
8
WINDOWS
90
4
70
1
10
307.000000
20
902.000000
10
499.000000
20
902.000000
10
499.000000
20
979.000000
10
307.000000
20
979.000000
0
LWPOLYLINE
8
WINDOWS
90
4
70
1
10
262.000000
20
963.000000
10
302.000000
20
963.000000
10
302.000000
20
1016.000000
10
262.000000
20
1016.000000
0
LWPOLYLINE
8
DOORS
90
4
70
1
10
544.000000
20
430.000000
10
678.000000
20
430.000000
10
678.000000
20
745.000000
10
544.000000
20
745.000000
0
LWPOLYLINE
8
DOORS
90
4
70
1
10
25.000000
20
612.000000
10
113.000000
20
612.000000
10
113.000000
20
800.000000
10
25.000000
20
800.000000
0
LWPOLYLINE
8
DOORS
90
4
70
1
10
64.000000
20
801.000000
10
112.000000
20
801.000000
10
112.000000
20
910.000000
10
64.000000
20
910.000000
0
LWPOLYLINE
8
DOORS
90
4
70
1
10
558.000000
20
878.000000
10
592.000000
20
878.000000
10
592.000000
20
980.000000
10
558.000000
20
980.000000
0
LINE
8
LINES
10
732.000000
20
182.000000
30
0.0
11
568.000000
21
1020.000000
31
0.0
0
LINE
8
LINES
10
764.000000
20
0.000000
30
0.0
11
115.000000
21
433.000000
31
0.0
0
LINE
8
LINES
10
609.000000
20
755.000000
30
0.0
11
768.000000
21
3.000000
31
0.0
0
LINE
8
LINES
10
81.000000
20
451.000000
30
0.0
11
552.000000
21
140.000000
31
0.0
0
LINE
8
LINES
10
102.000000
20
1022.000000
30
0.0
11
6.000000
21
547.000000
31
0.0
0
LINE
8
LINES
10
566.000000
20
1022.000000
30
0.0
11
193.000000
21
1022.000000
31
0.0
0
LINE
8
LINES
10
24.000000
20
614.000000
30
0.0
11
92.000000
21
953.000000
31
0.0
0
LINE
8
LINES
10
241.000000
20
769.000000
30
0.0
11
547.000000
21
769.000000
31
0.0
0
LINE
8
LINES
10
208.000000
20
868.000000
30
0.0
11
462.000000
21
868.000000
31
0.0
0
LINE
8
LINES
10
238.000000
20
561.000000
30
0.0
11
472.000000
21
561.000000
31
0.0
0
LINE
8
LINES
10
211.000000
20
771.000000
30
0.0
11
433.000000
21
771.000000
31
0.0
0
LINE
8
LINES
10
248.000000
20
435.000000
30
0.0
11
467.000000
21
435.000000
31
0.0
0
LINE
8
LINES
10
433.000000
20
872.000000
30
0.0
11
219.000000
21
872.000000
31
0.0
0
LINE
8
LINES
10
433.000000
20
457.000000
30
0.0
11
227.000000
21
457.000000
31
0.0
0
LINE
8
LINES
10
232.000000
20
468.000000
30
0.0
11
433.000000
21
468.000000
31
0.0
0
LINE
8
LINES
10
238.000000
20
553.000000
30
0.0
11
436.000000
21
553.000000
31
0.0
0
LINE
8
LINES
10
435.000000
20
558.000000
30
0.0
11
238.000000
21
558.000000
31
0.0
0
LINE
8
LINES
10
433.000000
20
769.000000
30
0.0
11
238.000000
21
769.000000
31
0.0
0
LINE
8
LINES
10
251.000000
20
424.000000
30
0.0
11
436.000000
21
424.000000
31
0.0
0
LINE
8
LINES
10
433.000000
20
430.000000
30
0.0
11
248.000000
21
430.000000
31
0.0
0
LINE
8
LINES
10
158.000000
20
1014.000000
30
0.0
11
339.000000
21
1014.000000
31
0.0
0
LINE
8
LINES
10
115.000000
20
566.000000
30
0.0
11
115.000000
21
742.000000
31
0.0
0
LINE
8
LINES
10
582.000000
20
937.000000
30
0.0
11
609.000000
21
768.000000
31
0.0
0
LINE
8
LINES
10
115.000000
20
744.000000
30
0.0
11
115.000000
21
896.000000
31
0.0
0
LINE
8
LINES
10
553.000000
20
742.000000
30
0.0
11
553.000000
21
601.000000
31
0.0
0
LINE
8
LINES
10
110.000000
20
768.000000
30
0.0
11
110.000000
21
628.000000
31
0.0
0
LINE
8
LINES
10
560.000000
20
734.000000
30
0.0
11
560.000000
21
596.000000
31
0.0
0
LINE
8
LINES
10
254.000000
20
441.000000
30
0.0
11
392.000000
21
441.000000
31
0.0
0
LINE
8
LINES
10
547.000000
20
433.000000
30
0.0
11
673.000000
21
433.000000
31
0.0
0
LINE
8
LINES
10
390.000000
20
876.000000
30
0.0
11
513.000000
21
876.000000
31
0.0
0
LINE
8
LINES
10
553.000000
20
977.000000
30
0.0
11
436.000000
21
977.000000
31
0.0
0
LINE
8
LINES
10
321.000000
20
950.000000
30
0.0
11
436.000000
21
950.000000
31
0.0
0
LINE
8
LINES
10
563.000000
20
420.000000
30
0.0
11
676.000000
21
420.000000
31
0.0
0
LINE
8
LINES
10
161.000000
20
732.000000
30
0.0
11
161.000000
21
624.000000
31
0.0
0
LINE
8
LINES
10
115.000000
20
457.000000
30
0.0
11
115.000000
21
563.000000
31
0.0
0
LINE
8
LINES
10
107.000000
20
508.000000
30
0.0
11
1.000000
21
508.000000
31
0.0
0
LINE
8
LINES
10
377.000000
20
1020.000000
30
0.0
11
481.000000
21
1020.000000
31
0.0
0
LINE
8
LINES
10
260.000000
20
1009.000000
30
0.0
11
158.000000
21
1009.000000
31
0.0
0
LINE
8
LINES
10
288.000000
20
894.000000
30
0.0
11
390.000000
21
894.000000
31
0.0
0
LINE
8
LINES
10
6.000000
20
504.000000
30
0.0
11
107.000000
21
504.000000
31
0.0
0
LINE
8
LINES
10
673.000000
20
433.000000
30
0.0
11
572.000000
21
433.000000
31
0.0
0
LINE
8
LINES
10
561.000000
20
548.000000
30
0.0
11
561.000000
21
449.000000
31
0.0
0
LINE
8
LINES
10
396.000000
20
740.000000
30
0.0
11
396.000000
21
641.000000
31
0.0
0
LINE
8
LINES
10
284.000000
20
873.000000
30
0.0
11
382.000000
21
873.000000
31
0.0
0
LINE
8
LINES
10
110.000000
20
590.000000
30
0.0
11
110.000000
21
496.000000
31
0.0
0
LINE
8
LINES
10
556.000000
20
456.000000
30
0.0
11
556.000000
21
550.000000
31
0.0
0
LINE
8
LINES
10
408.000000
20
977.000000
30
0.0
11
318.000000
21
977.000000
31
0.0
0
LINE
8
LINES
10
148.000000
20
761.000000
30
0.0
11
238.000000
21
761.000000
31
0.0
0
LINE
8
LINES
10
292.000000
20
742.000000
30
0.0
11
292.000000
21
656.000000
31
0.0
0
LINE
8
LINES
10
552.000000
20
537.000000
30
0.0
11
552.000000
21
451.000000
31
0.0
0
LINE
8
LINES
10
313.000000
20
972.000000
30
0.0
11
401.000000
21
972.000000
31
0.0
0
LINE
8
LINES
10
24.000000
20
609.000000
30
0.0
11
108.000000
21
609.000000
31
0.0
0
LINE
8
LINES
10
108.000000
20
614.000000
30
0.0
11
24.000000
21
614.000000
31
0.0
0
LINE
8
LINES
10
563.000000
20
558.000000
30
0.0
11
648.000000
21
558.000000
31
0.0
0
LINE
8
LINES
10
547.000000
20
758.000000
30
0.0
11
464.000000
21
758.000000
31
0.0
0
LINE
8
LINES
10
412.000000
20
745.000000
30
0.0
11
492.000000
21
734.000000
31
0.0
0
LINE
8
LINES
10
566.000000
20
604.000000
30
0.0
11
566.000000
21
686.000000
31
0.0
0
LINE
8
LINES
10
144.000000
20
862.000000
30
0.0
11
224.000000
21
862.000000
31
0.0
0
LINE
8
LINES
10
648.000000
20
556.000000
30
0.0
11
568.000000
21
556.000000
31
0.0
0
LINE
8
LINES
10
232.000000
20
977.000000
30
0.0
11
152.000000
21
977.000000
31
0.0
0
LINE
8
LINES
10
206.000000
20
892.000000
30
0.0
11
286.000000
21
892.000000
31
0.0
0
LINE
8
LINES
10
369.000000
20
897.000000
30
0.0
11
292.000000
21
897.000000
31
0.0
0
LINE
8
LINES
10
657.000000
20
459.000000
30
0.0
11
580.000000
21
459.000000
31
0.0
0
LINE
8
LINES
10
139.000000
20
636.000000
30
0.0
11
139.000000
21
713.000000
31
0.0
0
LINE
8
LINES
10
438.000000
20
950.000000
30
0.0
11
513.000000
21
950.000000
31
0.0
0
LINE
8
LINES
10
366.000000
20
881.000000
30
0.0
11
291.000000
21
881.000000
31
0.0
0
LINE
8
LINES
10
342.000000
20
1017.000000
30
0.0
11
268.000000
21
1017.000000
31
0.0
0
LINE
8
LINES
10
481.000000
20
763.000000
30
0.0
11
553.000000
21
763.000000
31
0.0
0
LINE
8
LINES
10
406.000000
20
972.000000
30
0.0
11
478.000000
21
972.000000
31
0.0
0
LINE
8
LINES
10
216.000000
20
537.000000
30
0.0
11
144.000000
21
537.000000
31
0.0
0
LINE
8
LINES
10
537.000000
20
771.000000
30
0.0
11
608.000000
21
771.000000
31
0.0
0
LINE
8
LINES
10
478.000000
20
544.000000
30
0.0
11
548.000000
21
544.000000
31
0.0
0
LINE
8
LINES
10
652.000000
20
539.000000
30
0.0
11
582.000000
21
539.000000
31
0.0
0
LINE
8
LINES
10
145.000000
20
755.000000
30
0.0
11
214.000000
21
755.000000
31
0.0
0
LINE
8
LINES
10
494.000000
20
662.000000
30
0.0
11
494.000000
21
595.000000
31
0.0
0
LINE
8
LINES
10
544.000000
20
537.000000
30
0.0
11
478.000000
21
537.000000
31
0.0
0
LINE
8
LINES
10
212.000000
20
760.000000
30
0.0
11
147.000000
21
760.000000
31
0.0
0
LINE
8
LINES
10
561.000000
20
779.000000
30
0.0
11
561.000000
21
846.000000
31
0.0
0
LINE
8
LINES
10
241.000000
20
742.000000
30
0.0
11
241.000000
21
678.000000
31
0.0
0
LINE
8
LINES
10
494.000000
20
731.000000
30
0.0
11
494.000000
21
665.000000
31
0.0
0
LINE
8
LINES
10
92.000000
20
494.000000
30
0.0
11
27.000000
21
494.000000
31
0.0
0
LINE
8
LINES
10
3.000000
20
526.000000
30
0.0
11
17.000000
21
588.000000
31
0.0
0
LINE
8
LINES
10
553.000000
20
836.000000
30
0.0
11
553.000000
21
772.000000
31
0.0
0
LINE
8
LINES
10
148.000000
20
540.000000
30
0.0
11
212.000000
21
540.000000
31
0.0
0
LINE
8
LINES
10
409.000000
20
939.000000
30
0.0
11
473.000000
21
939.000000
31
0.0
0
LINE
8
LINES
10
464.000000
20
865.000000
30
0.0
11
526.000000
21
865.000000
31
0.0
0
LINE
8
LINES
10
409.000000
20
929.000000
30
0.0
11
472.000000
21
929.000000
31
0.0
0
LINE
8
LINES
10
358.000000
20
908.000000
30
0.0
11
297.000000
21
908.000000
31
0.0
0
LINE
8
LINES
10
51.000000
20
473.000000
30
0.0
11
110.000000
21
473.000000
31
0.0
0
LINE
8
LINES
10
264.000000
20
897.000000
30
0.0
11
206.000000
21
897.000000
31
0.0
0
LINE
8
LINES
10
302.000000
20
905.000000
30
0.0
11
361.000000
21
905.000000
31
0.0
0
LINE
8
LINES
10
219.000000
20
875.000000
30
0.0
11
276.000000
21
875.000000
31
0.0
0
LINE
8
LINES
10
206.000000
20
737.000000
30
0.0
11
150.000000
21
732.000000
31
0.0
0
LINE
8
LINES
10
361.000000
20
920.000000
30
0.0
11
302.000000
21
920.000000
31
0.0
0
LINE
8
LINES
10
198.000000
20
905.000000
30
0.0
11
256.000000
21
905.000000
31
0.0
0
LINE
8
LINES
10
254.000000
20
908.000000
30
0.0
11
196.000000
21
908.000000
31
0.0
0
LINE
8
LINES
10
369.000000
20
684.000000
30
0.0
11
360.000000
21
740.000000
31
0.0
0
LINE
8
LINES
10
110.000000
20
470.000000
30
0.0
11
54.000000
21
470.000000
31
0.0
0
LINE
8
LINES
10
198.000000
20
915.000000
30
0.0
11
254.000000
21
915.000000
31
0.0
0
LINE
8
LINES
10
192.000000
20
972.000000
30
0.0
11
248.000000
21
972.000000
31
0.0
0
LINE
8
LINES
10
302.000000
20
916.000000
30
0.0
11
358.000000
21
916.000000
31
0.0
0
LINE
8
LINES
10
254.000000
20
920.000000
30
0.0
11
198.000000
21
920.000000
31
0.0
0
LINE
8
LINES
10
566.000000
20
552.000000
30
0.0
11
620.000000
21
552.000000
31
0.0
0
LINE
8
LINES
10
593.000000
20
534.000000
30
0.0
11
646.000000
21
534.000000
31
0.0
0
LINE
8
LINES
10
361.000000
20
963.000000
30
0.0
11
307.000000
21
963.000000
31
0.0
0
LINE
8
LINES
10
267.000000
20
689.000000
30
0.0
11
259.000000
21
742.000000
31
0.0
0
LINE
8
LINES
10
72.000000
20
742.000000
30
0.0
11
72.000000
21
796.000000
31
0.0
0
LINE
8
LINES
10
550.000000
20
416.000000
30
0.0
11
502.000000
21
398.000000
31
0.0
0
LINE
8
LINES
10
33.000000
20
510.000000
30
0.0
11
86.000000
21
510.000000
31
0.0
0
LINE
8
LINES
10
556.000000
20
601.000000
30
0.0
11
556.000000
21
652.000000
31
0.0
0
LINE
8
LINES
10
420.000000
20
689.000000
30
0.0
11
411.000000
21
740.000000
31
0.0
0
LINE
8
LINES
10
369.000000
20
795.000000
30
0.0
11
363.000000
21
846.000000
31
0.0
0
LINE
8
LINES
10
419.000000
20
795.000000
30
0.0
11
412.000000
21
846.000000
31
0.0
0
LINE
8
LINES
10
297.000000
20
963.000000
30
0.0
11
297.000000
21
1016.000000
31
0.0
0
LINE
8
LINES
10
316.000000
20
689.000000
30
0.0
11
310.000000
21
740.000000
31
0.0
0
LINE
8
LINES
10
267.000000
20
478.000000
30
0.0
11
262.000000
21
529.000000
31
0.0
0
LINE
8
LINES
10
318.000000
20
478.000000
30
0.0
11
313.000000
21
529.000000
31
0.0
0
LINE
8
LINES
10
492.000000
20
398.000000
30
0.0
11
542.000000
21
398.000000
31
0.0
0
LINE
8
LINES
10
294.000000
20
529.000000
30
0.0
11
294.000000
21
478.000000
31
0.0
0
LINE
8
LINES
10
345.000000
20
846.000000
30
0.0
11
345.000000
21
796.000000
31
0.0
0
LINE
8
LINES
10
112.000000
20
464.000000
30
0.0
11
62.000000
21
464.000000
31
0.0
0
LINE
8
LINES
10
396.000000
20
844.000000
30
0.0
11
396.000000
21
796.000000
31
0.0
0
LINE
8
LINES
10
345.000000
20
704.000000
30
0.0
11
345.000000
21
656.000000
31
0.0
0
LINE
8
LINES
10
422.000000
20
750.000000
30
0.0
11
372.000000
21
750.000000
31
0.0
0
LINE
8
LINES
10
246.000000
20
931.000000
30
0.0
11
196.000000
21
931.000000
31
0.0
0
LINE
8
LINES
10
83.000000
20
515.000000
30
0.0
11
33.000000
21
515.000000
31
0.0
0
LINE
8
LINES
10
563.000000
20
686.000000
30
0.0
11
563.000000
21
736.000000
31
0.0
0
LINE
8
LINES
10
417.000000
20
588.000000
30
0.0
11
417.000000
21
636.000000
31
0.0
0
LINE
8
LINES
10
121.000000
20
1017.000000
30
0.0
11
169.000000
21
1011.000000
31
0.0
0
LINE
8
LINES
10
152.000000
20
945.000000
30
0.0
11
156.000000
21
897.000000
31
0.0
0
LINE
8
LINES
10
356.000000
20
742.000000
30
0.0
11
403.000000
21
742.000000
31
0.0
0
LINE
8
LINES
10
262.000000
20
1011.000000
30
0.0
11
262.000000
21
963.000000
31
0.0
0
LINE
8
LINES
10
185.000000
20
900.000000
30
0.0
11
185.000000
21
947.000000
31
0.0
0
LINE
8
LINES
10
366.000000
20
588.000000
30
0.0
11
366.000000
21
636.000000
31
0.0
0
LINE
8
LINES
10
312.000000
20
928.000000
30
0.0
11
358.000000
21
928.000000
31
0.0
0
LINE
8
LINES
10
318.000000
20
750.000000
30
0.0
11
270.000000
21
750.000000
31
0.0
0
LINE
8
LINES
10
246.000000
20
942.000000
30
0.0
11
198.000000
21
942.000000
31
0.0
0
LINE
8
LINES
10
198.000000
20
928.000000
30
0.0
11
246.000000
21
928.000000
31
0.0
0
LINE
8
LINES
10
646.000000
20
569.000000
30
0.0
11
598.000000
21
569.000000
31
0.0
0
LINE
8
LINES
10
598.000000
20
564.000000
30
0.0
11
646.000000
21
564.000000
31
0.0
0
LINE
8
LINES
10
646.000000
20
563.000000
30
0.0
11
598.000000
21
563.000000
31
0.0
0
LINE
8
LINES
10
524.000000
20
572.000000
30
0.0
11
524.000000
21
617.000000
31
0.0
0
LINE
8
LINES
10
348.000000
20
848.000000
30
0.0
11
396.000000
21
848.000000
31
0.0
0
LINE
8
LINES
10
368.000000
20
750.000000
30
0.0
11
321.000000
21
750.000000
31
0.0
0
LINE
8
LINES
10
566.000000
20
481.000000
30
0.0
11
566.000000
21
528.000000
31
0.0
0
LINE
8
LINES
10
561.000000
20
766.000000
30
0.0
11
608.000000
21
766.000000
31
0.0
0
LINE
8
LINES
10
358.000000
20
931.000000
30
0.0
11
313.000000
21
931.000000
31
0.0
0
LINE
8
LINES
10
35.000000
20
518.000000
30
0.0
11
81.000000
21
518.000000
31
0.0
0
LINE
8
LINES
10
608.000000
20
769.000000
30
0.0
11
561.000000
21
769.000000
31
0.0
0
LINE
8
LINES
10
78.000000
20
486.000000
30
0.0
11
33.000000
21
486.000000
31
0.0
0
LINE
8
LINES
10
64.000000
20
467.000000
30
0.0
11
110.000000
21
467.000000
31
0.0
0
LINE
8
LINES
10
222.000000
20
417.000000
30
0.0
11
179.000000
21
398.000000
31
0.0
0
LINE
8
LINES
10
198.000000
20
939.000000
30
0.0
11
243.000000
21
939.000000
31
0.0
0
LINE
8
LINES
10
112.000000
20
995.000000
30
0.0
11
112.000000
21
950.000000
31
0.0
0
LINE
8
LINES
10
547.000000
20
841.000000
30
0.0
11
502.000000
21
841.000000
31
0.0
0
LINE
8
LINES
10
582.000000
20
673.000000
30
0.0
11
627.000000
21
662.000000
31
0.0
0
LINE
8
LINES
10
473.000000
20
841.000000
30
0.0
11
473.000000
21
798.000000
31
0.0
0
LINE
8
LINES
10
185.000000
20
838.000000
30
0.0
11
228.000000
21
838.000000
31
0.0
0
LINE
8
LINES
10
115.000000
20
976.000000
30
0.0
11
115.000000
21
1019.000000
31
0.0
0
LINE
8
LINES
10
206.000000
20
841.000000
30
0.0
11
163.000000
21
841.000000
31
0.0
0
LINE
8
LINES
10
323.000000
20
838.000000
30
0.0
11
323.000000
21
793.000000
31
0.0
0
LINE
8
LINES
10
190.000000
20
947.000000
30
0.0
11
190.000000
21
904.000000
31
0.0
0
LINE
8
LINES
10
428.000000
20
838.000000
30
0.0
11
428.000000
21
793.000000
31
0.0
0
LINE
8
LINES
10
556.000000
20
1020.000000
30
0.0
11
556.000000
21
977.000000
31
0.0
0
LINE
8
LINES
10
316.000000
20
939.000000
30
0.0
11
358.000000
21
939.000000
31
0.0
0
LINE
8
LINES
10
358.000000
20
942.000000
30
0.0
11
316.000000
21
942.000000
31
0.0
0
LINE
8
LINES
10
198.000000
20
950.000000
30
0.0
11
241.000000
21
950.000000
31
0.0
0
LINE
8
LINES
10
321.000000
20
961.000000
30
0.0
11
363.000000
21
961.000000
31
0.0
0
LINE
8
LINES
10
355.000000
20
953.000000
30
0.0
11
313.000000
21
953.000000
31
0.0
0
LINE
8
LINES
10
356.000000
20
979.000000
30
0.0
11
313.000000
21
979.000000
31
0.0
0
LINE
8
LINES
10
376.000000
20
836.000000
30
0.0
11
376.000000
21
793.000000
31
0.0
0
LINE
8
LINES
10
14.000000
20
496.000000
30
0.0
11
49.000000
21
472.000000
31
0.0
0
LINE
8
LINES
10
67.000000
20
820.000000
30
0.0
11
108.000000
21
820.000000
31
0.0
0
LINE
8
LINES
10
262.000000
20
961.000000
30
0.0
11
302.000000
21
961.000000
31
0.0
0
LINE
8
LINES
10
598.000000
20
587.000000
30
0.0
11
638.000000
21
587.000000
31
0.0
0
LINE
8
LINES
10
76.000000
20
689.000000
30
0.0
11
76.000000
21
648.000000
31
0.0
0
LINE
8
LINES
10
436.000000
20
771.000000
30
0.0
11
476.000000
21
771.000000
31
0.0
0
LINE
8
LINES
10
272.000000
20
539.000000
30
0.0
11
232.000000
21
539.000000
31
0.0
0
LINE
8
LINES
10
300.000000
20
777.000000
30
0.0
11
260.000000
21
777.000000
31
0.0
0
LINE
8
LINES
10
393.000000
20
894.000000
30
0.0
11
433.000000
21
894.000000
31
0.0
0
LINE
8
LINES
10
353.000000
20
777.000000
30
0.0
11
313.000000
21
777.000000
31
0.0
0
LINE
8
LINES
10
550.000000
20
867.000000
30
0.0
11
590.000000
21
867.000000
31
0.0
0
LINE
8
LINES
10
608.000000
20
473.000000
30
0.0
11
568.000000
21
473.000000
31
0.0
0
LINE
8
LINES
10
70.000000
20
828.000000
30
0.0
11
110.000000
21
828.000000
31
0.0
0
LINE
8
LINES
10
403.000000
20
777.000000
30
0.0
11
364.000000
21
777.000000
31
0.0
0
LINE
8
LINES
10
433.000000
20
881.000000
30
0.0
11
393.000000
21
881.000000
31
0.0
0
LINE
8
LINES
10
70.000000
20
798.000000
30
0.0
11
108.000000
21
798.000000
31
0.0
0
LINE
8
LINES
10
230.000000
20
963.000000
30
0.0
11
192.000000
21
963.000000
31
0.0
0
LINE
8
LINES
10
553.000000
20
963.000000
30
0.0
11
513.000000
21
963.000000
31
0.0
0
LINE
8
LINES
10
558.000000
20
908.000000
30
0.0
11
558.000000
21
947.000000
31
0.0
0
LINE
8
LINES
10
513.000000
20
961.000000
30
0.0
11
553.000000
21
961.000000
31
0.0
0
LINE
8
LINES
10
513.000000
20
972.000000
30
0.0
11
553.000000
21
972.000000
31
0.0
0
LINE
8
LINES
10
328.000000
20
467.000000
30
0.0
11
289.000000
21
467.000000
31
0.0
0
LINE
8
LINES
10
568.000000
20
470.000000
30
0.0
11
606.000000
21
470.000000
31
0.0
0
LINE
8
LINES
10
108.000000
20
825.000000
30
0.0
11
70.000000
21
825.000000
31
0.0
0
LINE
8
LINES
10
492.000000
20
404.000000
30
0.0
11
462.000000
21
428.000000
31
0.0
0
LINE
8
LINES
10
76.000000
20
457.000000
30
0.0
11
113.000000
21
457.000000
31
0.0
0
LINE
8
LINES
10
593.000000
20
638.000000
30
0.0
11
632.000000
21
638.000000
31
0.0
0
LINE
8
LINES
10
502.000000
20
512.000000
30
0.0
11
540.000000
21
512.000000
31
0.0
0
LINE
8
LINES
10
41.000000
20
691.000000
30
0.0
11
78.000000
21
691.000000
31
0.0
0
LINE
8
LINES
10
236.000000
20
531.000000
30
0.0
11
273.000000
21
531.000000
31
0.0
0
LINE
8
LINES
10
561.000000
20
742.000000
30
0.0
11
598.000000
21
742.000000
31
0.0
0
LINE
8
LINES
10
441.000000
20
961.000000
30
0.0
11
478.000000
21
961.000000
31
0.0
0
LINE
8
LINES
10
196.000000
20
961.000000
30
0.0
11
233.000000
21
961.000000
31
0.0
0
LINE
8
LINES
10
294.000000
20
851.000000
30
0.0
11
294.000000
21
814.000000
31
0.0
0
LINE
8
LINES
10
243.000000
20
851.000000
30
0.0
11
243.000000
21
814.000000
31
0.0
0
LINE
8
LINES
10
377.000000
20
534.000000
30
0.0
11
340.000000
21
534.000000
31
0.0
0
LINE
8
LINES
10
529.000000
20
750.000000
30
0.0
11
492.000000
21
750.000000
31
0.0
0
LINE
8
LINES
10
273.000000
20
534.000000
30
0.0
11
236.000000
21
534.000000
31
0.0
0
LINE
8
LINES
10
472.000000
20
920.000000
30
0.0
11
435.000000
21
920.000000
31
0.0
0
LINE
8
LINES
10
473.000000
20
908.000000
30
0.0
11
436.000000
21
908.000000
31
0.0
0
LINE
8
LINES
10
515.000000
20
950.000000
30
0.0
11
552.000000
21
950.000000
31
0.0
0
LINE
8
LINES
10
108.000000
20
835.000000
30
0.0
11
72.000000
21
835.000000
31
0.0
0
LINE
8
LINES
10
195.000000
20
892.000000
30
0.0
11
158.000000
21
892.000000
31
0.0
0
LINE
8
LINES
10
182.000000
20
531.000000
30
0.0
11
217.000000
21
537.000000
31
0.0
0
LINE
8
LINES
10
134.000000
20
428.000000
30
0.0
11
163.000000
21
406.000000
31
0.0
0
LINE
8
LINES
10
198.000000
20
665.000000
30
0.0
11
193.000000
21
700.000000
31
0.0
0
LINE
8
LINES
10
464.000000
20
419.000000
30
0.0
11
492.000000
21
398.000000
31
0.0
0
LINE
8
LINES
10
56.000000
20
713.000000
30
0.0
11
91.000000
21
713.000000
31
0.0
0
LINE
8
LINES
10
401.000000
20
848.000000
30
0.0
11
435.000000
21
848.000000
31
0.0
0
LINE
8
LINES
10
531.000000
20
627.000000
30
0.0
11
496.000000
21
627.000000
31
0.0
0
LINE
8
LINES
10
558.000000
20
846.000000
30
0.0
11
593.000000
21
846.000000
31
0.0
0
LINE
8
LINES
10
323.000000
20
534.000000
30
0.0
11
289.000000
21
534.000000
31
0.0
0
LINE
8
LINES
10
112.000000
20
865.000000
30
0.0
11
112.000000
21
830.000000
31
0.0
0
LINE
8
LINES
10
198.000000
20
750.000000
30
0.0
11
163.000000
21
750.000000
31
0.0
0
LINE
8
LINES
10
473.000000
20
963.000000
30
0.0
11
438.000000
21
963.000000
31
0.0
0
LINE
8
LINES
10
632.000000
20
643.000000
30
0.0
11
596.000000
21
643.000000
31
0.0
0
LINE
8
LINES
10
241.000000
20
513.000000
30
0.0
11
241.000000
21
478.000000
31
0.0
0
LINE
8
LINES
10
480.000000
20
948.000000
30
0.0
11
480.000000
21
913.000000
31
0.0
0
LINE
8
LINES
10
486.000000
20
412.000000
30
0.0
11
520.000000
21
406.000000
31
0.0
0
LINE
8
LINES
10
243.000000
20
950.000000
30
0.0
11
276.000000
21
947.000000
31
0.0
0
LINE
8
LINES
10
313.000000
20
812.000000
30
0.0
11
313.000000
21
846.000000
31
0.0
0
LINE
8
LINES
10
158.000000
20
947.000000
30
0.0
11
158.000000
21
913.000000
31
0.0
0
LINE
8
LINES
10
496.000000
20
665.000000
30
0.0
11
529.000000
21
665.000000
31
0.0
0
LINE
8
LINES
10
497.000000
20
737.000000
30
0.0
11
464.000000
21
744.000000
31
0.0
0
LINE
8
LINES
10
428.000000
20
534.000000
30
0.0
11
393.000000
21
534.000000
31
0.0
0
LINE
8
LINES
10
118.000000
20
928.000000
30
0.0
11
152.000000
21
928.000000
31
0.0
0
LINE
8
LINES
10
553.000000
20
908.000000
30
0.0
11
518.000000
21
908.000000
31
0.0
0
LINE
8
LINES
10
518.000000
20
928.000000
30
0.0
11
553.000000
21
928.000000
31
0.0
0
LINE
8
LINES
10
112.000000
20
804.000000
30
0.0
11
78.000000
21
804.000000
31
0.0
0
LINE
8
LINES
10
116.000000
20
916.000000
30
0.0
11
150.000000
21
916.000000
31
0.0
0
LINE
8
LINES
10
195.000000
20
550.000000
30
0.0
11
161.000000
21
550.000000
31
0.0
0
LINE
8
LINES
10
518.000000
20
916.000000
30
0.0
11
553.000000
21
916.000000
31
0.0
0
LINE
8
LINES
10
433.000000
20
897.000000
30
0.0
11
398.000000
21
897.000000
31
0.0
0
LINE
8
LINES
10
73.000000
20
844.000000
30
0.0
11
108.000000
21
844.000000
31
0.0
0
LINE
8
LINES
10
105.000000
20
438.000000
30
0.0
11
76.000000
21
457.000000
31
0.0
0
LINE
8
LINES
10
174.000000
20
393.000000
30
0.0
11
208.000000
21
401.000000
31
0.0
0
LINE
8
LINES
10
398.000000
20
916.000000
30
0.0
11
398.000000
21
948.000000
31
0.0
0
LINE
8
LINES
10
262.000000
20
816.000000
30
0.0
11
262.000000
21
848.000000
31
0.0
0
LINE
8
LINES
10
156.000000
20
508.000000
30
0.0
11
156.000000
21
476.000000
31
0.0
0
LINE
8
LINES
10
172.000000
20
948.000000
30
0.0
11
172.000000
21
916.000000
31
0.0
0
LINE
8
LINES
10
196.000000
20
628.000000
30
0.0
11
163.000000
21
628.000000
31
0.0
0
LINE
8
LINES
10
118.000000
20
939.000000
30
0.0
11
150.000000
21
939.000000
31
0.0
0
LINE
8
LINES
10
196.000000
20
563.000000
30
0.0
11
163.000000
21
563.000000
31
0.0
0
LINE
8
LINES
10
150.000000
20
931.000000
30
0.0
11
118.000000
21
931.000000
31
0.0
0
LINE
8
LINES
10
73.000000
20
606.000000
30
0.0
11
41.000000
21
606.000000
31
0.0
0
LINE
8
LINES
10
150.000000
20
920.000000
30
0.0
11
118.000000
21
920.000000
31
0.0
0
LINE
8
LINES
10
169.000000
20
916.000000
30
0.0
11
169.000000
21
948.000000
31
0.0
0
LINE
8
LINES
10
472.000000
20
931.000000
30
0.0
11
438.000000
21
931.000000
31
0.0
0
LINE
8
LINES
10
438.000000
20
915.000000
30
0.0
11
472.000000
21
915.000000
31
0.0
0
LINE
8
LINES
10
118.000000
20
950.000000
30
0.0
11
150.000000
21
950.000000
31
0.0
0
LINE
8
LINES
10
438.000000
20
905.000000
30
0.0
11
472.000000
21
905.000000
31
0.0
0
LINE
8
LINES
10
150.000000
20
942.000000
30
0.0
11
118.000000
21
942.000000
31
0.0
0
LINE
8
LINES
10
163.000000
20
625.000000
30
0.0
11
195.000000
21
625.000000
31
0.0
0
LINE
8
LINES
10
150.000000
20
908.000000
30
0.0
11
118.000000
21
908.000000
31
0.0
0
LINE
8
LINES
10
472.000000
20
953.000000
30
0.0
11
438.000000
21
953.000000
31
0.0
0
LINE
8
LINES
10
472.000000
20
942.000000
30
0.0
11
438.000000
21
942.000000
31
0.0
0
LINE
8
LINES
10
552.000000
20
931.000000
30
0.0
11
518.000000
21
931.000000
31
0.0
0
LINE
8
LINES
10
428.000000
20
539.000000
30
0.0
11
396.000000
21
539.000000
31
0.0
0
LINE
8
LINES
10
124.000000
20
972.000000
30
0.0
11
156.000000
21
972.000000
31
0.0
0
LINE
8
LINES
10
76.000000
20
856.000000
30
0.0
11
108.000000
21
856.000000
31
0.0
0
LINE
8
LINES
10
265.000000
20
880.000000
30
0.0
11
233.000000
21
880.000000
31
0.0
0
LINE
8
LINES
10
76.000000
20
796.000000
30
0.0
11
76.000000
21
763.000000
31
0.0
0
LINE
8
LINES
10
316.000000
20
604.000000
30
0.0
11
312.000000
21
636.000000
31
0.0
0
LINE
8
LINES
10
484.000000
20
520.000000
30
0.0
11
457.000000
21
536.000000
31
0.0
0
LINE
8
LINES
10
483.000000
20
1020.000000
30
0.0
11
483.000000
21
988.000000
31
0.0
0
LINE
8
LINES
10
91.000000
20
705.000000
30
0.0
11
59.000000
21
705.000000
31
0.0
0
LINE
8
LINES
10
273.000000
20
945.000000
30
0.0
11
243.000000
21
945.000000
31
0.0
0
LINE
8
LINES
10
254.000000
20
848.000000
30
0.0
11
254.000000
21
817.000000
31
0.0
0
LINE
8
LINES
10
313.000000
20
742.000000
30
0.0
11
344.000000
21
742.000000
31
0.0
0
LINE
8
LINES
10
355.000000
20
848.000000
30
0.0
11
355.000000
21
817.000000
31
0.0
0
LINE
8
LINES
10
504.000000
20
916.000000
30
0.0
11
504.000000
21
947.000000
31
0.0
0
LINE
8
LINES
10
488.000000
20
918.000000
30
0.0
11
488.000000
21
948.000000
31
0.0
0
LINE
8
LINES
10
403.000000
20
816.000000
30
0.0
11
403.000000
21
846.000000
31
0.0
0
LINE
8
LINES
10
148.000000
20
953.000000
30
0.0
11
118.000000
21
953.000000
31
0.0
0
LINE
8
LINES
10
163.000000
20
569.000000
30
0.0
11
193.000000
21
569.000000
31
0.0
0
LINE
8
LINES
10
521.000000
20
939.000000
30
0.0
11
552.000000
21
939.000000
31
0.0
0
LINE
8
LINES
10
118.000000
20
905.000000
30
0.0
11
148.000000
21
905.000000
31
0.0
0
LINE
8
LINES
10
550.000000
20
920.000000
30
0.0
11
518.000000
21
920.000000
31
0.0
0
LINE
8
LINES
10
230.000000
20
953.000000
30
0.0
11
198.000000
21
953.000000
31
0.0
0
LINE
8
LINES
10
553.000000
20
953.000000
30
0.0
11
521.000000
21
953.000000
31
0.0
0
LINE
8
LINES
10
550.000000
20
942.000000
30
0.0
11
518.000000
21
942.000000
31
0.0
0
LINE
8
LINES
10
374.000000
20
539.000000
30
0.0
11
342.000000
21
539.000000
31
0.0
0
LINE
8
LINES
10
108.000000
20
859.000000
30
0.0
11
76.000000
21
859.000000
31
0.0
0
LINE
8
LINES
10
406.000000
20
947.000000
30
0.0
11
406.000000
21
916.000000
31
0.0
0
LINE
8
LINES
10
558.000000
20
875.000000
30
0.0
11
590.000000
21
875.000000
31
0.0
0
LINE
8
LINES
10
43.000000
20
617.000000
30
0.0
11
73.000000
21
617.000000
31
0.0
0
LINE
8
LINES
10
108.000000
20
851.000000
30
0.0
11
76.000000
21
851.000000
31
0.0
0
LINE
8
LINES
10
520.000000
20
408.000000
30
0.0
11
545.000000
21
425.000000
31
0.0
0
LINE
8
LINES
10
305.000000
20
742.000000
30
0.0
11
302.000000
21
713.000000
31
0.0
0
LINE
8
LINES
10
176.000000
20
508.000000
30
0.0
11
206.000000
21
508.000000
31
0.0
0
LINE
8
LINES
10
249.000000
20
713.000000
30
0.0
11
249.000000
21
742.000000
31
0.0
0
LINE
8
LINES
10
193.000000
20
702.000000
30
0.0
11
193.000000
21
732.000000
31
0.0
0
LINE
8
LINES
10
345.000000
20
740.000000
30
0.0
11
345.000000
21
710.000000
31
0.0
0
LINE
8
LINES
10
78.000000
20
686.000000
30
0.0
11
108.000000
21
686.000000
31
0.0
0
LINE
8
LINES
10
51.000000
20
729.000000
30
0.0
11
81.000000
21
729.000000
31
0.0
0
LINE
8
LINES
10
371.000000
20
987.000000
30
0.0
11
401.000000
21
987.000000
31
0.0
0
LINE
8
LINES
10
108.000000
20
867.000000
30
0.0
11
78.000000
21
867.000000
31
0.0
0
LINE
8
LINES
10
158.000000
20
976.000000
30
0.0
11
188.000000
21
976.000000
31
0.0
0
LINE
8
LINES
10
251.000000
20
817.000000
30
0.0
11
251.000000
21
846.000000
31
0.0
0
LINE
8
LINES
10
528.000000
20
862.000000
30
0.0
11
558.000000
21
862.000000
31
0.0
0
LINE
8
LINES
10
158.000000
20
478.000000
30
0.0
11
188.000000
21
478.000000
31
0.0
0
LINE
8
LINES
10
193.000000
20
512.000000
30
0.0
11
163.000000
21
512.000000
31
0.0
0
LINE
8
LINES
10
108.000000
20
670.000000
30
0.0
11
78.000000
21
670.000000
31
0.0
0
LINE
8
LINES
10
108.000000
20
688.000000
30
0.0
11
78.000000
21
688.000000
31
0.0
0
LINE
8
LINES
10
78.000000
20
864.000000
30
0.0
11
108.000000
21
864.000000
31
0.0
0
LINE
8
LINES
10
78.000000
20
873.000000
30
0.0
11
108.000000
21
873.000000
31
0.0
0
LINE
8
LINES
10
529.000000
20
564.000000
30
0.0
11
499.000000
21
564.000000
31
0.0
0
LINE
8
LINES
10
108.000000
20
876.000000
30
0.0
11
78.000000
21
876.000000
31
0.0
0
LINE
8
LINES
10
73.000000
20
849.000000
30
0.0
11
104.000000
21
849.000000
31
0.0
0
LINE
8
LINES
10
558.000000
20
811.000000
30
0.0
11
558.000000
21
780.000000
31
0.0
0
ENDSEC
0
EOF
