0
SECTION
2
ENTITIES
0
LWPOLYLINE
8
FACADE_OUTLINE
90
4
70
1
10
0.000000
20
0.000000
10
538.000000
20
0.000000
10
538.000000
20
408.000000
10
0.000000
20
408.000000
0
LWPOLYLINE
8
WINDOWS
90
4
70
1
10
136.000000
20
156.000000
10
188.000000
20
156.000000
10
188.000000
20
200.000000
10
136.000000
20
200.000000
0
LWPOLYLINE
8
WINDOWS
90
4
70
1
10
372.000000
20
156.000000
10
424.000000
20
156.000000
10
424.000000
20
200.000000
10
372.000000
20
200.000000
0
LWPOLYLINE
8
WINDOWS
90
4
70
1
10
392.000000
20
156.000000
10
440.000000
20
156.000000
10
440.000000
20
200.000000
10
392.000000
20
200.000000
0
LWPOLYLINE
8
WINDOWS
90
4
70
1
10
172.000000
20
156.000000
10
224.000000
20
156.000000
10
224.000000
20
200.000000
10
172.000000
20
200.000000
0
LWPOLYLINE
8
WINDOWS
90
4
70
1
10
204.000000
20
156.000000
10
256.000000
20
156.000000
10
256.000000
20
200.000000
10
204.000000
20
200.000000
0
LWPOLYLINE
8
WINDOWS
90
4
70
1
10
256.000000
20
156.000000
10
308.000000
20
156.000000
10
308.000000
20
200.000000
10
256.000000
20
200.000000
0
LWPOLYLINE
8
WINDOWS
90
4
70
1
10
288.000000
20
156.000000
10
340.000000
20
156.000000
10
340.000000
20
200.000000
10
288.000000
20
200.000000
0
LWPOLYLINE
8
WINDOWS
90
4
70
1
10
320.000000
20
156.000000
10
376.000000
20
156.000000
10
376.000000
20
200.000000
10
320.000000
20
200.000000
0
LWPOLYLINE
8
WINDOWS
90
4
70
1
10
356.000000
20
156.000000
10
408.000000
20
156.000000
10
408.000000
20
200.000000
10
356.000000
20
200.000000
0
LWPOLYLINE
8
WINDOWS
90
4
70
1
10
288.000000
20
224.000000
10
340.000000
20
224.000000
10
340.000000
20
268.000000
10
288.000000
20
268.000000
0
LWPOLYLINE
8
WINDOWS
90
4
70
1
10
304.000000
20
224.000000
10
356.000000
20
224.000000
10
356.000000
20
268.000000
10
304.000000
20
268.000000
0
LWPOLYLINE
8
WINDOWS
90
4
70
1
10
376.000000
20
224.000000
10
424.000000
20
224.000000
10
424.000000
20
268.000000
10
376.000000
20
268.000000
0
LWPOLYLINE
8
WINDOWS
90
4
70
1
10
392.000000
20
224.000000
10
440.000000
20
224.000000
10
440.000000
20
268.000000
10
392.000000
20
268.000000
0
LWPOLYLINE
8
WINDOWS
90
4
70
1
10
340.000000
20
224.000000
10
392.000000
20
224.000000
10
392.000000
20
264.000000
10
340.000000
20
264.000000
0
LWPOLYLINE
8
WINDOWS
90
4
70
1
10
172.000000
20
308.000000
10
220.000000
20
308.000000
10
220.000000
20
348.000000
10
172.000000
20
348.000000
0
LWPOLYLINE
8
WINDOWS
90
4
70
1
10
188.000000
20
308.000000
10
240.000000
20
308.000000
10
240.000000
20
348.000000
10
188.000000
20
348.000000
0
LWPOLYLINE
8
WINDOWS
90
4
70
1
10
204.000000
20
308.000000
10
256.000000
20
308.000000
10
256.000000
20
352.000000
10
204.000000
20
352.000000
0
LWPOLYLINE
8
WINDOWS
90
4
70
1
10
240.000000
20
308.000000
10
288.000000
20
308.000000
10
288.000000
20
352.000000
10
240.000000
20
352.000000
0
LWPOLYLINE
8
WINDOWS
90
4
70
1
10
256.000000
20
308.000000
10
304.000000
20
308.000000
10
304.000000
20
352.000000
10
256.000000
20
352.000000
0
LWPOLYLINE
8
WINDOWS
90
4
70
1
10
272.000000
20
308.000000
10
320.000000
20
308.000000
10
320.000000
20
352.000000
10
272.000000
20
352.000000
0
LWPOLYLINE
8
WINDOWS
90
4
70
1
10
288.000000
20
308.000000
10
340.000000
20
308.000000
10
340.000000
20
352.000000
10
288.000000
20
352.000000
0
LWPOLYLINE
8
WINDOWS
90
4
70
1
10
256.000000
20
324.000000
10
304.000000
20
324.000000
10
304.000000
20
368.000000
10
256.000000
20
368.000000
0
LWPOLYLINE
8
WINDOWS
90
4
70
1
10
272.000000
20
324.000000
10
320.000000
20
324.000000
10
320.000000
20
368.000000
10
272.000000
20
368.000000
0
LWPOLYLINE
8
WINDOWS
90
4
70
1
10
288.000000
20
324.000000
10
340.000000
20
324.000000
10
340.000000
20
368.000000
10
288.000000
20
368.000000
0
LINE
8
LINES
10
8.000000
20
48.000000
30
0.0
11
512.000000
21
48.000000
31
0.0
0
LINE
8
LINES
10
32.000000
20
84.000000
30
0.0
11
472.000000
21
84.000000
31
0.0
0
LINE
8
LINES
10
36.000000
20
300.000000
30
0.0
11
476.000000
21
300.000000
31
0.0
0
LINE
8
LINES
10
36.000000
20
208.000000
30
0.0
11
472.000000
21
208.000000
31
0.0
0
LINE
8
LINES
10
36.000000
20
140.000000
30
0.0
11
472.000000
21
140.000000
31
0.0
0
LINE
8
LINES
10
472.000000
20
308.000000
30
0.0
11
36.000000
21
308.000000
31
0.0
0
LINE
8
LINES
10
472.000000
20
148.000000
30
0.0
11
36.000000
21
148.000000
31
0.0
0
LINE
8
LINES
10
344.000000
20
56.000000
30
0.0
11
0.000000
21
56.000000
31
0.0
0
LINE
8
LINES
10
516.000000
20
404.000000
30
0.0
11
516.000000
21
64.000000
31
0.0
0
LINE
8
LINES
10
436.000000
20
8.000000
30
0.0
11
112.000000
21
8.000000
31
0.0
0
LINE
8
LINES
10
148.000000
20
396.000000
30
0.0
11
360.000000
21
396.000000
31
0.0
0
LINE
8
LINES
10
240.000000
20
0.000000
30
0.0
11
444.000000
21
0.000000
31
0.0
0
LINE
8
LINES
10
16.000000
20
336.000000
30
0.0
11
200.000000
21
336.000000
31
0.0
0
LINE
8
LINES
10
196.000000
20
360.000000
30
0.0
11
16.000000
21
360.000000
31
0.0
0
LINE
8
LINES
10
16.000000
20
344.000000
30
0.0
11
196.000000
21
344.000000
31
0.0
0
LINE
8
LINES
10
20.000000
20
352.000000
30
0.0
11
184.000000
21
352.000000
31
0.0
0
LINE
8
LINES
10
504.000000
20
64.000000
30
0.0
11
340.000000
21
64.000000
31
0.0
0
LINE
8
LINES
10
360.000000
20
400.000000
30
0.0
11
512.000000
21
400.000000
31
0.0
0
LINE
8
LINES
10
144.000000
20
356.000000
30
0.0
11
20.000000
21
356.000000
31
0.0
0
LINE
8
LINES
10
0.000000
20
248.000000
30
0.0
11
0.000000
21
356.000000
31
0.0
0
LINE
8
LINES
10
468.000000
20
216.000000
30
0.0
11
384.000000
21
216.000000
31
0.0
0
LINE
8
LINES
10
536.000000
20
16.000000
30
0.0
11
456.000000
21
0.000000
31
0.0
0
LINE
8
LINES
10
400.000000
20
216.000000
30
0.0
11
400.000000
21
296.000000
31
0.0
0
LINE
8
LINES
10
220.000000
20
216.000000
30
0.0
11
220.000000
21
296.000000
31
0.0
0
LINE
8
LINES
10
312.000000
20
220.000000
30
0.0
11
312.000000
21
296.000000
31
0.0
0
LINE
8
LINES
10
132.000000
20
216.000000
30
0.0
11
132.000000
21
296.000000
31
0.0
0
LINE
8
LINES
10
396.000000
20
376.000000
30
0.0
11
472.000000
21
376.000000
31
0.0
0
LINE
8
LINES
10
44.000000
20
216.000000
30
0.0
11
44.000000
21
296.000000
31
0.0
0
LINE
8
LINES
10
12.000000
20
40.000000
30
0.0
11
88.000000
21
40.000000
31
0.0
0
LINE
8
LINES
10
256.000000
20
20.000000
30
0.0
11
180.000000
21
20.000000
31
0.0
0
LINE
8
LINES
10
172.000000
20
20.000000
30
0.0
11
96.000000
21
20.000000
31
0.0
0
LINE
8
LINES
10
336.000000
20
20.000000
30
0.0
11
264.000000
21
20.000000
31
0.0
0
LINE
8
LINES
10
92.000000
20
40.000000
30
0.0
11
168.000000
21
40.000000
31
0.0
0
LINE
8
LINES
10
384.000000
20
216.000000
30
0.0
11
308.000000
21
216.000000
31
0.0
0
LINE
8
LINES
10
88.000000
20
16.000000
30
0.0
11
16.000000
21
16.000000
31
0.0
0
LINE
8
LINES
10
348.000000
20
40.000000
30
0.0
11
416.000000
21
40.000000
31
0.0
0
LINE
8
LINES
10
220.000000
20
376.000000
30
0.0
11
292.000000
21
376.000000
31
0.0
0
LINE
8
LINES
10
288.000000
20
216.000000
30
0.0
11
220.000000
21
216.000000
31
0.0
0
LINE
8
LINES
10
496.000000
20
24.000000
30
0.0
11
428.000000
21
24.000000
31
0.0
0
LINE
8
LINES
10
288.000000
20
92.000000
30
0.0
11
220.000000
21
92.000000
31
0.0
0
LINE
8
LINES
10
376.000000
20
96.000000
30
0.0
11
312.000000
21
96.000000
31
0.0
0
LINE
8
LINES
10
196.000000
20
216.000000
30
0.0
11
128.000000
21
216.000000
31
0.0
0
LINE
8
LINES
10
428.000000
20
44.000000
30
0.0
11
496.000000
21
44.000000
31
0.0
0
LINE
8
LINES
10
316.000000
20
272.000000
30
0.0
11
384.000000
21
272.000000
31
0.0
0
LINE
8
LINES
10
200.000000
20
92.000000
30
0.0
11
132.000000
21
92.000000
31
0.0
0
LINE
8
LINES
10
108.000000
20
216.000000
30
0.0
11
40.000000
21
216.000000
31
0.0
0
LINE
8
LINES
10
40.000000
20
284.000000
30
0.0
11
40.000000
21
216.000000
31
0.0
0
LINE
8
LINES
10
520.000000
20
392.000000
30
0.0
11
520.000000
21
328.000000
31
0.0
0
LINE
8
LINES
10
108.000000
20
92.000000
30
0.0
11
44.000000
21
92.000000
31
0.0
0
LINE
8
LINES
10
224.000000
20
256.000000
30
0.0
11
288.000000
21
256.000000
31
0.0
0
LINE
8
LINES
10
408.000000
20
276.000000
30
0.0
11
468.000000
21
276.000000
31
0.0
0
LINE
8
LINES
10
128.000000
20
284.000000
30
0.0
11
128.000000
21
224.000000
31
0.0
0
LINE
8
LINES
10
464.000000
20
96.000000
30
0.0
11
404.000000
21
96.000000
31
0.0
0
LINE
8
LINES
10
384.000000
20
296.000000
30
0.0
11
384.000000
21
240.000000
31
0.0
0
LINE
8
LINES
10
468.000000
20
272.000000
30
0.0
11
468.000000
21
220.000000
31
0.0
0
LINE
8
LINES
10
316.000000
20
272.000000
30
0.0
11
316.000000
21
220.000000
31
0.0
0
LINE
8
LINES
10
464.000000
20
272.000000
30
0.0
11
412.000000
21
272.000000
31
0.0
0
LINE
8
LINES
10
200.000000
20
16.000000
30
0.0
11
256.000000
21
16.000000
31
0.0
0
LINE
8
LINES
10
292.000000
20
16.000000
30
0.0
11
344.000000
21
16.000000
31
0.0
0
LINE
8
LINES
10
468.000000
20
92.000000
30
0.0
11
468.000000
21
144.000000
31
0.0
0
LINE
8
LINES
10
380.000000
20
272.000000
30
0.0
11
380.000000
21
220.000000
31
0.0
0
LINE
8
LINES
10
404.000000
20
272.000000
30
0.0
11
404.000000
21
220.000000
31
0.0
0
LINE
8
LINES
10
292.000000
20
88.000000
30
0.0
11
292.000000
21
136.000000
31
0.0
0
LINE
8
LINES
10
380.000000
20
88.000000
30
0.0
11
380.000000
21
140.000000
31
0.0
0
LINE
8
LINES
10
64.000000
20
248.000000
30
0.0
11
64.000000
21
296.000000
31
0.0
0
LINE
8
LINES
10
160.000000
20
296.000000
30
0.0
11
160.000000
21
248.000000
31
0.0
0
LINE
8
LINES
10
92.000000
20
296.000000
30
0.0
11
92.000000
21
248.000000
31
0.0
0
LINE
8
LINES
10
136.000000
20
296.000000
30
0.0
11
136.000000
21
248.000000
31
0.0
0
LINE
8
LINES
10
72.000000
20
296.000000
30
0.0
11
72.000000
21
248.000000
31
0.0
0
LINE
8
LINES
10
176.000000
20
248.000000
30
0.0
11
176.000000
21
296.000000
31
0.0
0
LINE
8
LINES
10
184.000000
20
296.000000
30
0.0
11
184.000000
21
248.000000
31
0.0
0
LINE
8
LINES
10
152.000000
20
252.000000
30
0.0
11
152.000000
21
296.000000
31
0.0
0
LINE
8
LINES
10
48.000000
20
296.000000
30
0.0
11
48.000000
21
248.000000
31
0.0
0
LINE
8
LINES
10
88.000000
20
248.000000
30
0.0
11
88.000000
21
296.000000
31
0.0
0
LINE
8
LINES
10
244.000000
20
96.000000
30
0.0
11
244.000000
21
140.000000
31
0.0
0
LINE
8
LINES
10
200.000000
20
252.000000
30
0.0
11
200.000000
21
296.000000
31
0.0
0
LINE
8
LINES
10
272.000000
20
140.000000
30
0.0
11
272.000000
21
96.000000
31
0.0
0
LINE
8
LINES
10
264.000000
20
96.000000
30
0.0
11
264.000000
21
140.000000
31
0.0
0
LINE
8
LINES
10
248.000000
20
140.000000
30
0.0
11
248.000000
21
96.000000
31
0.0
0
LINE
8
LINES
10
428.000000
20
140.000000
30
0.0
11
428.000000
21
96.000000
31
0.0
0
LINE
8
LINES
10
448.000000
20
140.000000
30
0.0
11
448.000000
21
96.000000
31
0.0
0
LINE
8
LINES
10
440.000000
20
96.000000
30
0.0
11
440.000000
21
140.000000
31
0.0
0
LINE
8
LINES
10
420.000000
20
96.000000
30
0.0
11
420.000000
21
140.000000
31
0.0
0
LINE
8
LINES
10
356.000000
20
96.000000
30
0.0
11
356.000000
21
140.000000
31
0.0
0
LINE
8
LINES
10
228.000000
20
136.000000
30
0.0
11
228.000000
21
96.000000
31
0.0
0
LINE
8
LINES
10
68.000000
20
96.000000
30
0.0
11
68.000000
21
136.000000
31
0.0
0
LINE
8
LINES
10
340.000000
20
136.000000
30
0.0
11
340.000000
21
96.000000
31
0.0
0
LINE
8
LINES
10
88.000000
20
96.000000
30
0.0
11
88.000000
21
136.000000
31
0.0
0
LINE
8
LINES
10
140.000000
20
136.000000
30
0.0
11
140.000000
21
96.000000
31
0.0
0
LINE
8
LINES
10
156.000000
20
96.000000
30
0.0
11
156.000000
21
136.000000
31
0.0
0
LINE
8
LINES
10
332.000000
20
96.000000
30
0.0
11
332.000000
21
136.000000
31
0.0
0
LINE
8
LINES
10
52.000000
20
136.000000
30
0.0
11
52.000000
21
96.000000
31
0.0
0
LINE
8
LINES
10
248.000000
20
300.000000
30
0.0
11
248.000000
21
256.000000
31
0.0
0
LINE
8
LINES
10
160.000000
20
136.000000
30
0.0
11
160.000000
21
96.000000
31
0.0
0
LINE
8
LINES
10
96.000000
20
136.000000
30
0.0
11
96.000000
21
96.000000
31
0.0
0
LINE
8
LINES
10
72.000000
20
136.000000
30
0.0
11
72.000000
21
96.000000
31
0.0
0
LINE
8
LINES
10
244.000000
20
256.000000
30
0.0
11
244.000000
21
300.000000
31
0.0
0
LINE
8
LINES
10
184.000000
20
136.000000
30
0.0
11
184.000000
21
96.000000
31
0.0
0
LINE
8
LINES
10
228.000000
20
296.000000
30
0.0
11
228.000000
21
256.000000
31
0.0
0
LINE
8
LINES
10
360.000000
20
136.000000
30
0.0
11
360.000000
21
96.000000
31
0.0
0
LINE
8
LINES
10
176.000000
20
96.000000
30
0.0
11
176.000000
21
136.000000
31
0.0
0
LINE
8
LINES
10
264.000000
20
256.000000
30
0.0
11
264.000000
21
300.000000
31
0.0
0
LINE
8
LINES
10
316.000000
20
136.000000
30
0.0
11
316.000000
21
96.000000
31
0.0
0
LINE
8
LINES
10
288.000000
20
256.000000
30
0.0
11
288.000000
21
296.000000
31
0.0
0
LINE
8
LINES
10
48.000000
20
96.000000
30
0.0
11
48.000000
21
136.000000
31
0.0
0
LINE
8
LINES
10
400.000000
20
100.000000
30
0.0
11
400.000000
21
140.000000
31
0.0
0
LINE
8
LINES
10
224.000000
20
96.000000
30
0.0
11
224.000000
21
136.000000
31
0.0
0
LINE
8
LINES
10
192.000000
20
368.000000
30
0.0
11
160.000000
21
392.000000
31
0.0
0
LINE
8
LINES
10
136.000000
20
96.000000
30
0.0
11
136.000000
21
136.000000
31
0.0
0
LINE
8
LINES
10
272.000000
20
296.000000
30
0.0
11
272.000000
21
260.000000
31
0.0
0
LINE
8
LINES
10
312.000000
20
96.000000
30
0.0
11
312.000000
21
136.000000
31
0.0
0
LINE
8
LINES
10
312.000000
20
376.000000
30
0.0
11
348.000000
21
376.000000
31
0.0
0
LINE
8
LINES
10
404.000000
20
140.000000
30
0.0
11
404.000000
21
104.000000
31
0.0
0
LINE
8
LINES
10
368.000000
20
16.000000
30
0.0
11
408.000000
21
16.000000
31
0.0
0
LINE
8
LINES
10
464.000000
20
140.000000
30
0.0
11
464.000000
21
104.000000
31
0.0
0
LINE
8
LINES
10
0.000000
20
64.000000
30
0.0
11
0.000000
21
96.000000
31
0.0
0
LINE
8
LINES
10
0.000000
20
236.000000
30
0.0
11
0.000000
21
204.000000
31
0.0
0
LINE
8
LINES
10
288.000000
20
252.000000
30
0.0
11
288.000000
21
220.000000
31
0.0
0
LINE
8
LINES
10
352.000000
20
140.000000
30
0.0
11
352.000000
21
108.000000
31
0.0
0
LINE
8
LINES
10
352.000000
20
376.000000
30
0.0
11
384.000000
21
376.000000
31
0.0
0
LINE
8
LINES
10
40.000000
20
124.000000
30
0.0
11
40.000000
21
92.000000
31
0.0
0
LINE
8
LINES
10
456.000000
20
108.000000
30
0.0
11
456.000000
21
136.000000
31
0.0
0
ENDSEC
0
EOF
