0
SECTION
2
ENTITIES
0
LWPOLYLINE
8
FACADE_OUTLINE
90
4
70
1
10
0.000000
20
0.000000
10
1024.000000
20
0.000000
10
1024.000000
20
1015.000000
10
0.000000
20
1015.000000
0
LWPOLYLINE
8
WINDOWS
90
4
70
1
10
0.000000
20
0.000000
10
1024.000000
20
0.000000
10
1024.000000
20
1014.000000
10
0.000000
20
1014.000000
0
LWPOLYLINE
8
WINDOWS
90
4
70
1
10
16.000000
20
161.000000
10
142.000000
20
161.000000
10
142.000000
20
377.000000
10
16.000000
20
377.000000
0
LWPOLYLINE
8
WINDOWS
90
4
70
1
10
131.000000
20
161.000000
10
307.000000
20
161.000000
10
307.000000
20
379.000000
10
131.000000
20
379.000000
0
LWPOLYLINE
8
WINDOWS
90
4
70
1
10
355.000000
20
161.000000
10
489.000000
20
161.000000
10
489.000000
20
337.000000
10
355.000000
20
337.000000
0
LWPOLYLINE
8
WINDOWS
90
4
70
1
10
521.000000
20
169.000000
10
649.000000
20
169.000000
10
649.000000
20
353.000000
10
521.000000
20
353.000000
0
LWPOLYLINE
8
WINDOWS
90
4
70
1
10
691.000000
20
169.000000
10
822.000000
20
169.000000
10
822.000000
20
355.000000
10
691.000000
20
355.000000
0
LWPOLYLINE
8
WINDOWS
90
4
70
1
10
868.000000
20
169.000000
10
1001.000000
20
169.000000
10
1001.000000
20
355.000000
10
868.000000
20
355.000000
0
LWPOLYLINE
8
WINDOWS
90
4
70
1
10
201.000000
20
198.000000
10
278.000000
20
198.000000
10
278.000000
20
332.000000
10
201.000000
20
332.000000
0
LWPOLYLINE
8
WINDOWS
90
4
70
1
10
379.000000
20
198.000000
10
459.000000
20
198.000000
10
459.000000
20
286.000000
10
379.000000
20
286.000000
0
LWPOLYLINE
8
WINDOWS
90
4
70
1
10
38.000000
20
203.000000
10
110.000000
20
203.000000
10
110.000000
20
243.000000
10
38.000000
20
243.000000
0
LWPOLYLINE
8
WINDOWS
90
4
70
1
10
889.000000
20
203.000000
10
972.000000
20
203.000000
10
972.000000
20
350.000000
10
889.000000
20
350.000000
0
LWPOLYLINE
8
WINDOWS
90
4
70
1
10
54.000000
20
291.000000
10
110.000000
20
291.000000
10
110.000000
20
332.000000
10
54.000000
20
332.000000
0
LWPOLYLINE
8
WINDOWS
90
4
70
1
10
14.000000
20
414.000000
10
142.000000
20
414.000000
10
142.000000
20
638.000000
10
14.000000
20
638.000000
0
LWPOLYLINE
8
WINDOWS
90
4
70
1
10
182.000000
20
417.000000
10
310.000000
20
417.000000
10
310.000000
20
643.000000
10
182.000000
20
643.000000
0
LWPOLYLINE
8
WINDOWS
90
4
70
1
10
353.000000
20
419.000000
10
486.000000
20
419.000000
10
486.000000
20
649.000000
10
353.000000
20
649.000000
0
LWPOLYLINE
8
WINDOWS
90
4
70
1
10
867.000000
20
425.000000
10
1006.000000
20
425.000000
10
1006.000000
20
627.000000
10
867.000000
20
627.000000
0
LWPOLYLINE
8
WINDOWS
90
4
70
1
10
523.000000
20
427.000000
10
651.000000
20
427.000000
10
651.000000
20
620.000000
10
523.000000
20
620.000000
0
LWPOLYLINE
8
WINDOWS
90
4
70
1
10
694.000000
20
427.000000
10
822.000000
20
427.000000
10
822.000000
20
622.000000
10
694.000000
20
622.000000
0
LWPOLYLINE
8
WINDOWS
90
4
70
1
10
36.000000
20
454.000000
10
115.000000
20
454.000000
10
115.000000
20
531.000000
10
36.000000
20
531.000000
0
LWPOLYLINE
8
WINDOWS
90
4
70
1
10
379.000000
20
456.000000
10
454.000000
20
456.000000
10
454.000000
20
540.000000
10
379.000000
20
540.000000
0
LWPOLYLINE
8
WINDOWS
90
4
70
1
10
206.000000
20
460.000000
10
283.000000
20
460.000000
10
283.000000
20
532.000000
10
206.000000
20
532.000000
0
LWPOLYLINE
8
WINDOWS
90
4
70
1
10
382.000000
20
534.000000
10
433.000000
20
534.000000
10
433.000000
20
601.000000
10
382.000000
20
601.000000
0
LWPOLYLINE
8
WINDOWS
90
4
70
1
10
209.000000
20
537.000000
10
280.000000
20
537.000000
10
280.000000
20
592.000000
10
209.000000
20
592.000000
0
LWPOLYLINE
8
WINDOWS
90
4
70
1
10
380.000000
20
540.000000
10
457.000000
20
540.000000
10
457.000000
20
622.000000
10
380.000000
20
622.000000
0
LWPOLYLINE
8
WINDOWS
90
4
70
1
10
884.000000
20
547.000000
10
953.000000
20
547.000000
10
953.000000
20
617.000000
10
884.000000
20
617.000000
0
LWPOLYLINE
8
WINDOWS
90
4
70
1
10
129.000000
20
764.000000
10
307.000000
20
764.000000
10
307.000000
20
992.000000
10
129.000000
20
992.000000
0
LWPOLYLINE
8
WINDOWS
90
4
70
1
10
32.000000
20
777.000000
10
105.000000
20
777.000000
10
105.000000
20
865.000000
10
32.000000
20
865.000000
0
LWPOLYLINE
8
WINDOWS
90
4
70
1
10
524.000000
20
798.000000
10
694.000000
20
798.000000
10
694.000000
20
926.000000
10
524.000000
20
926.000000
0
LWPOLYLINE
8
WINDOWS
90
4
70
1
10
684.000000
20
801.000000
10
824.000000
20
801.000000
10
824.000000
20
977.000000
10
684.000000
20
977.000000
0
LWPOLYLINE
8
WINDOWS
90
4
70
1
10
822.000000
20
814.000000
10
990.000000
20
814.000000
10
990.000000
20
979.000000
10
822.000000
20
979.000000
0
LWPOLYLINE
8
WINDOWS
90
4
70
1
10
540.000000
20
846.000000
10
598.000000
20
846.000000
10
598.000000
20
915.000000
10
540.000000
20
915.000000
0
LWPOLYLINE
8
DOORS
90
4
70
1
10
716.000000
20
465.000000
10
796.000000
20
465.000000
10
796.000000
20
619.000000
10
716.000000
20
619.000000
0
LINE
8
LINES
10
521.000000
20
73.000000
30
0.0
11
1.000000
21
73.000000
31
0.0
0
LINE
8
LINES
10
3.000000
20
83.000000
30
0.0
11
518.000000
21
83.000000
31
0.0
0
LINE
8
LINES
10
8.000000
20
67.000000
30
0.0
11
523.000000
21
67.000000
31
0.0
0
LINE
8
LINES
10
504.000000
20
121.000000
30
0.0
11
1.000000
21
121.000000
31
0.0
0
LINE
8
LINES
10
502.000000
20
129.000000
30
0.0
11
1.000000
21
129.000000
31
0.0
0
LINE
8
LINES
10
526.000000
20
6.000000
30
0.0
11
1022.000000
21
6.000000
31
0.0
0
LINE
8
LINES
10
528.000000
20
33.000000
30
0.0
11
1022.000000
21
33.000000
31
0.0
0
LINE
8
LINES
10
1022.000000
20
8.000000
30
0.0
11
532.000000
21
8.000000
31
0.0
0
LINE
8
LINES
10
534.000000
20
16.000000
30
0.0
11
1022.000000
21
16.000000
31
0.0
0
LINE
8
LINES
10
534.000000
20
22.000000
30
0.0
11
1022.000000
21
22.000000
31
0.0
0
LINE
8
LINES
10
1022.000000
20
25.000000
30
0.0
11
536.000000
21
25.000000
31
0.0
0
LINE
8
LINES
10
526.000000
20
110.000000
30
0.0
11
1008.000000
21
110.000000
31
0.0
0
LINE
8
LINES
10
534.000000
20
712.000000
30
0.0
11
1011.000000
21
712.000000
31
0.0
0
LINE
8
LINES
10
558.000000
20
737.000000
30
0.0
11
1022.000000
21
737.000000
31
0.0
0
LINE
8
LINES
10
1022.000000
20
744.000000
30
0.0
11
558.000000
21
744.000000
31
0.0
0
LINE
8
LINES
10
195.000000
20
769.000000
30
0.0
11
595.000000
21
769.000000
31
0.0
0
LINE
8
LINES
10
595.000000
20
772.000000
30
0.0
11
195.000000
21
772.000000
31
0.0
0
LINE
8
LINES
10
153.000000
20
712.000000
30
0.0
11
526.000000
21
712.000000
31
0.0
0
LINE
8
LINES
10
3.000000
20
124.000000
30
0.0
11
366.000000
21
124.000000
31
0.0
0
LINE
8
LINES
10
641.000000
20
918.000000
30
0.0
11
332.000000
21
918.000000
31
0.0
0
LINE
8
LINES
10
707.000000
20
1006.000000
30
0.0
11
406.000000
21
1006.000000
31
0.0
0
LINE
8
LINES
10
196.000000
20
56.000000
30
0.0
11
496.000000
21
56.000000
31
0.0
0
LINE
8
LINES
10
1022.000000
20
17.000000
30
0.0
11
742.000000
21
17.000000
31
0.0
0
LINE
8
LINES
10
908.000000
20
707.000000
30
0.0
11
654.000000
21
707.000000
31
0.0
0
LINE
8
LINES
10
1016.000000
20
556.000000
30
0.0
11
1016.000000
21
323.000000
31
0.0
0
LINE
8
LINES
10
1020.000000
20
132.000000
30
0.0
11
1020.000000
21
364.000000
31
0.0
0
LINE
8
LINES
10
739.000000
20
19.000000
30
0.0
11
534.000000
21
19.000000
31
0.0
0
LINE
8
LINES
10
19.000000
20
780.000000
30
0.0
11
19.000000
21
971.000000
31
0.0
0
LINE
8
LINES
10
100.000000
20
790.000000
30
0.0
11
100.000000
21
977.000000
31
0.0
0
LINE
8
LINES
10
102.000000
20
974.000000
30
0.0
11
102.000000
21
790.000000
31
0.0
0
LINE
8
LINES
10
358.000000
20
1003.000000
30
0.0
11
177.000000
21
1003.000000
31
0.0
0
LINE
8
LINES
10
99.000000
20
972.000000
30
0.0
11
99.000000
21
793.000000
31
0.0
0
LINE
8
LINES
10
822.000000
20
995.000000
30
0.0
11
993.000000
21
995.000000
31
0.0
0
LINE
8
LINES
10
972.000000
20
454.000000
30
0.0
11
972.000000
21
622.000000
31
0.0
0
LINE
8
LINES
10
286.000000
20
446.000000
30
0.0
11
286.000000
21
612.000000
31
0.0
0
LINE
8
LINES
10
548.000000
20
1011.000000
30
0.0
11
716.000000
21
1011.000000
31
0.0
0
LINE
8
LINES
10
985.000000
20
1004.000000
30
0.0
11
820.000000
21
1004.000000
31
0.0
0
LINE
8
LINES
10
459.000000
20
451.000000
30
0.0
11
459.000000
21
617.000000
31
0.0
0
LINE
8
LINES
10
129.000000
20
353.000000
30
0.0
11
292.000000
21
353.000000
31
0.0
0
LINE
8
LINES
10
713.000000
20
1012.000000
30
0.0
11
550.000000
21
1012.000000
31
0.0
0
LINE
8
LINES
10
995.000000
20
979.000000
30
0.0
11
995.000000
21
817.000000
31
0.0
0
LINE
8
LINES
10
937.000000
20
993.000000
30
0.0
11
777.000000
21
993.000000
31
0.0
0
LINE
8
LINES
10
976.000000
20
193.000000
30
0.0
11
976.000000
21
353.000000
31
0.0
0
LINE
8
LINES
10
812.000000
20
814.000000
30
0.0
11
812.000000
21
974.000000
31
0.0
0
LINE
8
LINES
10
798.000000
20
193.000000
30
0.0
11
798.000000
21
353.000000
31
0.0
0
LINE
8
LINES
10
625.000000
20
193.000000
30
0.0
11
625.000000
21
353.000000
31
0.0
0
LINE
8
LINES
10
993.000000
20
817.000000
30
0.0
11
993.000000
21
976.000000
31
0.0
0
LINE
8
LINES
10
627.000000
20
452.000000
30
0.0
11
627.000000
21
611.000000
31
0.0
0
LINE
8
LINES
10
883.000000
20
609.000000
30
0.0
11
883.000000
21
452.000000
31
0.0
0
LINE
8
LINES
10
886.000000
20
350.000000
30
0.0
11
886.000000
21
193.000000
31
0.0
0
LINE
8
LINES
10
540.000000
20
617.000000
30
0.0
11
540.000000
21
460.000000
31
0.0
0
LINE
8
LINES
10
963.000000
20
622.000000
30
0.0
11
963.000000
21
465.000000
31
0.0
0
LINE
8
LINES
10
534.000000
20
929.000000
30
0.0
11
688.000000
21
952.000000
31
0.0
0
LINE
8
LINES
10
204.000000
20
601.000000
30
0.0
11
204.000000
21
446.000000
31
0.0
0
LINE
8
LINES
10
118.000000
20
193.000000
30
0.0
11
118.000000
21
347.000000
31
0.0
0
LINE
8
LINES
10
283.000000
20
195.000000
30
0.0
11
283.000000
21
347.000000
31
0.0
0
LINE
8
LINES
10
787.000000
20
468.000000
30
0.0
11
787.000000
21
620.000000
31
0.0
0
LINE
8
LINES
10
374.000000
20
601.000000
30
0.0
11
374.000000
21
451.000000
31
0.0
0
LINE
8
LINES
10
977.000000
20
123.000000
30
0.0
11
827.000000
21
123.000000
31
0.0
0
LINE
8
LINES
10
800.000000
20
457.000000
30
0.0
11
800.000000
21
608.000000
31
0.0
0
LINE
8
LINES
10
961.000000
20
465.000000
30
0.0
11
961.000000
21
616.000000
31
0.0
0
LINE
8
LINES
10
801.000000
20
972.000000
30
0.0
11
801.000000
21
825.000000
31
0.0
0
LINE
8
LINES
10
787.000000
20
206.000000
30
0.0
11
787.000000
21
352.000000
31
0.0
0
LINE
8
LINES
10
982.000000
20
976.000000
30
0.0
11
982.000000
21
828.000000
31
0.0
0
LINE
8
LINES
10
793.000000
20
352.000000
30
0.0
11
793.000000
21
206.000000
31
0.0
0
LINE
8
LINES
10
867.000000
20
428.000000
30
0.0
11
1012.000000
21
428.000000
31
0.0
0
LINE
8
LINES
10
374.000000
20
337.000000
30
0.0
11
374.000000
21
193.000000
31
0.0
0
LINE
8
LINES
10
462.000000
20
193.000000
30
0.0
11
462.000000
21
337.000000
31
0.0
0
LINE
8
LINES
10
1011.000000
20
787.000000
30
0.0
11
1011.000000
21
931.000000
31
0.0
0
LINE
8
LINES
10
710.000000
20
612.000000
30
0.0
11
710.000000
21
470.000000
31
0.0
0
LINE
8
LINES
10
622.000000
20
350.000000
30
0.0
11
622.000000
21
208.000000
31
0.0
0
LINE
8
LINES
10
678.000000
20
169.000000
30
0.0
11
819.000000
21
169.000000
31
0.0
0
LINE
8
LINES
10
771.000000
20
985.000000
30
0.0
11
913.000000
21
985.000000
31
0.0
0
LINE
8
LINES
10
118.000000
20
446.000000
30
0.0
11
118.000000
21
587.000000
31
0.0
0
LINE
8
LINES
10
35.000000
20
584.000000
30
0.0
11
35.000000
21
444.000000
31
0.0
0
LINE
8
LINES
10
33.000000
20
332.000000
30
0.0
11
33.000000
21
192.000000
31
0.0
0
LINE
8
LINES
10
822.000000
20
828.000000
30
0.0
11
822.000000
21
968.000000
31
0.0
0
LINE
8
LINES
10
345.000000
20
417.000000
30
0.0
11
483.000000
21
417.000000
31
0.0
0
LINE
8
LINES
10
1017.000000
20
316.000000
30
0.0
11
1017.000000
21
177.000000
31
0.0
0
LINE
8
LINES
10
286.000000
20
796.000000
30
0.0
11
286.000000
21
936.000000
31
0.0
0
LINE
8
LINES
10
614.000000
20
211.000000
30
0.0
11
614.000000
21
348.000000
31
0.0
0
LINE
8
LINES
10
281.000000
20
936.000000
30
0.0
11
281.000000
21
798.000000
31
0.0
0
LINE
8
LINES
10
350.000000
20
163.000000
30
0.0
11
486.000000
21
163.000000
31
0.0
0
LINE
8
LINES
10
409.000000
20
1014.000000
30
0.0
11
545.000000
21
1014.000000
31
0.0
0
LINE
8
LINES
10
984.000000
20
105.000000
30
0.0
11
849.000000
21
105.000000
31
0.0
0
LINE
8
LINES
10
344.000000
20
684.000000
30
0.0
11
211.000000
21
684.000000
31
0.0
0
LINE
8
LINES
10
979.000000
20
118.000000
30
0.0
11
846.000000
21
118.000000
31
0.0
0
LINE
8
LINES
10
697.000000
20
428.000000
30
0.0
11
830.000000
21
428.000000
31
0.0
0
LINE
8
LINES
10
865.000000
20
169.000000
30
0.0
11
998.000000
21
169.000000
31
0.0
0
LINE
8
LINES
10
256.000000
20
801.000000
30
0.0
11
256.000000
21
932.000000
31
0.0
0
LINE
8
LINES
10
822.000000
20
123.000000
30
0.0
11
691.000000
21
123.000000
31
0.0
0
LINE
8
LINES
10
822.000000
20
118.000000
30
0.0
11
691.000000
21
118.000000
31
0.0
0
LINE
8
LINES
10
224.000000
20
931.000000
30
0.0
11
224.000000
21
798.000000
31
0.0
0
LINE
8
LINES
10
670.000000
20
124.000000
30
0.0
11
540.000000
21
124.000000
31
0.0
0
LINE
8
LINES
10
521.000000
20
169.000000
30
0.0
11
648.000000
21
169.000000
31
0.0
0
LINE
8
LINES
10
694.000000
20
121.000000
30
0.0
11
822.000000
21
121.000000
31
0.0
0
LINE
8
LINES
10
668.000000
20
118.000000
30
0.0
11
542.000000
21
118.000000
31
0.0
0
LINE
8
LINES
10
948.000000
20
825.000000
30
0.0
11
822.000000
21
825.000000
31
0.0
0
LINE
8
LINES
10
849.000000
20
99.000000
30
0.0
11
976.000000
21
99.000000
31
0.0
0
LINE
8
LINES
10
454.000000
20
206.000000
30
0.0
11
454.000000
21
332.000000
31
0.0
0
LINE
8
LINES
10
198.000000
20
339.000000
30
0.0
11
198.000000
21
214.000000
31
0.0
0
LINE
8
LINES
10
819.000000
20
105.000000
30
0.0
11
694.000000
21
105.000000
31
0.0
0
LINE
8
LINES
10
697.000000
20
99.000000
30
0.0
11
820.000000
21
99.000000
31
0.0
0
LINE
8
LINES
10
526.000000
20
428.000000
30
0.0
11
649.000000
21
428.000000
31
0.0
0
LINE
8
LINES
10
187.000000
20
417.000000
30
0.0
11
308.000000
21
417.000000
31
0.0
0
LINE
8
LINES
10
17.000000
20
417.000000
30
0.0
11
140.000000
21
417.000000
31
0.0
0
LINE
8
LINES
10
668.000000
20
105.000000
30
0.0
11
545.000000
21
105.000000
31
0.0
0
LINE
8
LINES
10
184.000000
20
161.000000
30
0.0
11
307.000000
21
161.000000
31
0.0
0
LINE
8
LINES
10
539.000000
20
350.000000
30
0.0
11
539.000000
21
227.000000
31
0.0
0
LINE
8
LINES
10
361.000000
20
424.000000
30
0.0
11
483.000000
21
424.000000
31
0.0
0
LINE
8
LINES
10
456.000000
20
593.000000
30
0.0
11
456.000000
21
473.000000
31
0.0
0
LINE
8
LINES
10
545.000000
20
99.000000
30
0.0
11
665.000000
21
99.000000
31
0.0
0
LINE
8
LINES
10
369.000000
20
124.000000
30
0.0
11
489.000000
21
124.000000
31
0.0
0
LINE
8
LINES
10
643.000000
20
806.000000
30
0.0
11
643.000000
21
926.000000
31
0.0
0
LINE
8
LINES
10
873.000000
20
177.000000
30
0.0
11
993.000000
21
177.000000
31
0.0
0
LINE
8
LINES
10
22.000000
20
161.000000
30
0.0
11
140.000000
21
161.000000
31
0.0
0
LINE
8
LINES
10
358.000000
20
432.000000
30
0.0
11
478.000000
21
432.000000
31
0.0
0
LINE
8
LINES
10
697.000000
20
177.000000
30
0.0
11
814.000000
21
177.000000
31
0.0
0
LINE
8
LINES
10
451.000000
20
467.000000
30
0.0
11
451.000000
21
584.000000
31
0.0
0
LINE
8
LINES
10
337.000000
20
926.000000
30
0.0
11
236.000000
21
988.000000
31
0.0
0
LINE
8
LINES
10
448.000000
20
755.000000
30
0.0
11
332.000000
21
739.000000
31
0.0
0
LINE
8
LINES
10
993.000000
20
433.000000
30
0.0
11
876.000000
21
433.000000
31
0.0
0
LINE
8
LINES
10
817.000000
20
433.000000
30
0.0
11
702.000000
21
433.000000
31
0.0
0
LINE
8
LINES
10
646.000000
20
432.000000
30
0.0
11
531.000000
21
432.000000
31
0.0
0
LINE
8
LINES
10
817.000000
20
172.000000
30
0.0
11
700.000000
21
172.000000
31
0.0
0
LINE
8
LINES
10
993.000000
20
174.000000
30
0.0
11
878.000000
21
174.000000
31
0.0
0
LINE
8
LINES
10
361.000000
20
176.000000
30
0.0
11
478.000000
21
176.000000
31
0.0
0
LINE
8
LINES
10
462.000000
20
924.000000
30
0.0
11
577.000000
21
924.000000
31
0.0
0
LINE
8
LINES
10
643.000000
20
172.000000
30
0.0
11
528.000000
21
172.000000
31
0.0
0
LINE
8
LINES
10
531.000000
20
433.000000
30
0.0
11
646.000000
21
433.000000
31
0.0
0
LINE
8
LINES
10
619.000000
20
502.000000
30
0.0
11
619.000000
21
617.000000
31
0.0
0
LINE
8
LINES
10
478.000000
20
430.000000
30
0.0
11
363.000000
21
430.000000
31
0.0
0
LINE
8
LINES
10
478.000000
20
172.000000
30
0.0
11
363.000000
21
172.000000
31
0.0
0
LINE
8
LINES
10
969.000000
20
321.000000
30
0.0
11
969.000000
21
206.000000
31
0.0
0
LINE
8
LINES
10
801.000000
20
822.000000
30
0.0
11
686.000000
21
822.000000
31
0.0
0
LINE
8
LINES
10
702.000000
20
435.000000
30
0.0
11
816.000000
21
435.000000
31
0.0
0
LINE
8
LINES
10
528.000000
20
176.000000
30
0.0
11
641.000000
21
176.000000
31
0.0
0
LINE
8
LINES
10
876.000000
20
435.000000
30
0.0
11
990.000000
21
435.000000
31
0.0
0
LINE
8
LINES
10
702.000000
20
440.000000
30
0.0
11
816.000000
21
440.000000
31
0.0
0
LINE
8
LINES
10
188.000000
20
430.000000
30
0.0
11
302.000000
21
430.000000
31
0.0
0
LINE
8
LINES
10
876.000000
20
182.000000
30
0.0
11
990.000000
21
182.000000
31
0.0
0
LINE
8
LINES
10
257.000000
20
982.000000
30
0.0
11
358.000000
21
931.000000
31
0.0
0
LINE
8
LINES
10
302.000000
20
428.000000
30
0.0
11
188.000000
21
428.000000
31
0.0
0
LINE
8
LINES
10
185.000000
20
176.000000
30
0.0
11
297.000000
21
176.000000
31
0.0
0
LINE
8
LINES
10
22.000000
20
174.000000
30
0.0
11
134.000000
21
174.000000
31
0.0
0
LINE
8
LINES
10
20.000000
20
428.000000
30
0.0
11
132.000000
21
428.000000
31
0.0
0
LINE
8
LINES
10
134.000000
20
425.000000
30
0.0
11
22.000000
21
425.000000
31
0.0
0
LINE
8
LINES
10
299.000000
20
172.000000
30
0.0
11
187.000000
21
172.000000
31
0.0
0
LINE
8
LINES
10
531.000000
20
438.000000
30
0.0
11
643.000000
21
438.000000
31
0.0
0
LINE
8
LINES
10
529.000000
20
180.000000
30
0.0
11
641.000000
21
180.000000
31
0.0
0
LINE
8
LINES
10
977.000000
20
1.000000
30
0.0
11
867.000000
21
1.000000
31
0.0
0
LINE
8
LINES
10
814.000000
20
438.000000
30
0.0
11
702.000000
21
438.000000
31
0.0
0
LINE
8
LINES
10
812.000000
20
179.000000
30
0.0
11
702.000000
21
179.000000
31
0.0
0
LINE
8
LINES
10
702.000000
20
182.000000
30
0.0
11
812.000000
21
182.000000
31
0.0
0
LINE
8
LINES
10
988.000000
20
185.000000
30
0.0
11
878.000000
21
185.000000
31
0.0
0
LINE
8
LINES
10
988.000000
20
440.000000
30
0.0
11
878.000000
21
440.000000
31
0.0
0
LINE
8
LINES
10
878.000000
20
441.000000
30
0.0
11
988.000000
21
441.000000
31
0.0
0
LINE
8
LINES
10
643.000000
20
436.000000
30
0.0
11
532.000000
21
436.000000
31
0.0
0
LINE
8
LINES
10
641.000000
20
179.000000
30
0.0
11
531.000000
21
179.000000
31
0.0
0
LINE
8
LINES
10
134.000000
20
172.000000
30
0.0
11
24.000000
21
172.000000
31
0.0
0
LINE
8
LINES
10
990.000000
20
179.000000
30
0.0
11
881.000000
21
179.000000
31
0.0
0
LINE
8
LINES
10
198.000000
20
798.000000
30
0.0
11
198.000000
21
908.000000
31
0.0
0
LINE
8
LINES
10
878.000000
20
192.000000
30
0.0
11
987.000000
21
192.000000
31
0.0
0
LINE
8
LINES
10
702.000000
20
449.000000
30
0.0
11
811.000000
21
449.000000
31
0.0
0
LINE
8
LINES
10
700.000000
20
192.000000
30
0.0
11
808.000000
21
192.000000
31
0.0
0
LINE
8
LINES
10
299.000000
20
438.000000
30
0.0
11
192.000000
21
438.000000
31
0.0
0
LINE
8
LINES
10
857.000000
20
758.000000
30
0.0
11
966.000000
21
758.000000
31
0.0
0
LINE
8
LINES
10
0.000000
20
710.000000
30
0.0
11
107.000000
21
710.000000
31
0.0
0
LINE
8
LINES
10
876.000000
20
451.000000
30
0.0
11
982.000000
21
451.000000
31
0.0
0
LINE
8
LINES
10
638.000000
20
185.000000
30
0.0
11
531.000000
21
185.000000
31
0.0
0
LINE
8
LINES
10
364.000000
20
617.000000
30
0.0
11
470.000000
21
617.000000
31
0.0
0
LINE
8
LINES
10
118.000000
20
924.000000
30
0.0
11
118.000000
21
817.000000
31
0.0
0
LINE
8
LINES
10
472.000000
20
441.000000
30
0.0
11
366.000000
21
441.000000
31
0.0
0
LINE
8
LINES
10
195.000000
20
611.000000
30
0.0
11
300.000000
21
611.000000
31
0.0
0
LINE
8
LINES
10
963.000000
20
750.000000
30
0.0
11
859.000000
21
750.000000
31
0.0
0
LINE
8
LINES
10
531.000000
20
448.000000
30
0.0
11
636.000000
21
448.000000
31
0.0
0
LINE
8
LINES
10
809.000000
20
444.000000
30
0.0
11
704.000000
21
444.000000
31
0.0
0
LINE
8
LINES
10
808.000000
20
185.000000
30
0.0
11
702.000000
21
185.000000
31
0.0
0
LINE
8
LINES
10
636.000000
20
443.000000
30
0.0
11
532.000000
21
443.000000
31
0.0
0
LINE
8
LINES
10
468.000000
20
182.000000
30
0.0
11
366.000000
21
182.000000
31
0.0
0
LINE
8
LINES
10
705.000000
20
364.000000
30
0.0
11
808.000000
21
364.000000
31
0.0
0
LINE
8
LINES
10
881.000000
20
366.000000
30
0.0
11
984.000000
21
366.000000
31
0.0
0
LINE
8
LINES
10
537.000000
20
630.000000
30
0.0
11
638.000000
21
630.000000
31
0.0
0
LINE
8
LINES
10
531.000000
20
190.000000
30
0.0
11
633.000000
21
190.000000
31
0.0
0
LINE
8
LINES
10
126.000000
20
435.000000
30
0.0
11
24.000000
21
435.000000
31
0.0
0
LINE
8
LINES
10
291.000000
20
182.000000
30
0.0
11
188.000000
21
182.000000
31
0.0
0
LINE
8
LINES
10
433.000000
20
937.000000
30
0.0
11
360.000000
21
1008.000000
31
0.0
0
LINE
8
LINES
10
534.000000
20
363.000000
30
0.0
11
636.000000
21
363.000000
31
0.0
0
LINE
8
LINES
10
366.000000
20
190.000000
30
0.0
11
467.000000
21
190.000000
31
0.0
0
LINE
8
LINES
10
105.000000
20
868.000000
30
0.0
11
105.000000
21
971.000000
31
0.0
0
LINE
8
LINES
10
384.000000
20
344.000000
30
0.0
11
483.000000
21
353.000000
31
0.0
0
LINE
8
LINES
10
878.000000
20
635.000000
30
0.0
11
977.000000
21
635.000000
31
0.0
0
LINE
8
LINES
10
707.000000
20
633.000000
30
0.0
11
806.000000
21
633.000000
31
0.0
0
LINE
8
LINES
10
534.000000
20
1.000000
30
0.0
11
633.000000
21
1.000000
31
0.0
0
LINE
8
LINES
10
126.000000
20
182.000000
30
0.0
11
27.000000
21
182.000000
31
0.0
0
LINE
8
LINES
10
190.000000
20
190.000000
30
0.0
11
289.000000
21
190.000000
31
0.0
0
LINE
8
LINES
10
193.000000
20
443.000000
30
0.0
11
292.000000
21
443.000000
31
0.0
0
LINE
8
LINES
10
30.000000
20
350.000000
30
0.0
11
128.000000
21
350.000000
31
0.0
0
LINE
8
LINES
10
803.000000
20
641.000000
30
0.0
11
707.000000
21
641.000000
31
0.0
0
LINE
8
LINES
10
632.000000
20
371.000000
30
0.0
11
536.000000
21
371.000000
31
0.0
0
LINE
8
LINES
10
28.000000
20
441.000000
30
0.0
11
124.000000
21
441.000000
31
0.0
0
LINE
8
LINES
10
28.000000
20
190.000000
30
0.0
11
124.000000
21
190.000000
31
0.0
0
LINE
8
LINES
10
712.000000
20
622.000000
30
0.0
11
806.000000
21
622.000000
31
0.0
0
LINE
8
LINES
10
624.000000
20
614.000000
30
0.0
11
624.000000
21
518.000000
31
0.0
0
LINE
8
LINES
10
643.000000
20
926.000000
30
0.0
11
734.000000
21
952.000000
31
0.0
0
LINE
8
LINES
10
440.000000
20
937.000000
30
0.0
11
534.000000
21
937.000000
31
0.0
0
LINE
8
LINES
10
270.000000
20
998.000000
30
0.0
11
360.000000
21
968.000000
31
0.0
0
LINE
8
LINES
10
345.000000
20
924.000000
30
0.0
11
438.000000
21
924.000000
31
0.0
0
LINE
8
LINES
10
297.000000
20
622.000000
30
0.0
11
204.000000
21
622.000000
31
0.0
0
LINE
8
LINES
10
627.000000
20
638.000000
30
0.0
11
536.000000
21
638.000000
31
0.0
0
LINE
8
LINES
10
465.000000
20
624.000000
30
0.0
11
372.000000
21
624.000000
31
0.0
0
LINE
8
LINES
10
288.000000
20
356.000000
30
0.0
11
195.000000
21
356.000000
31
0.0
0
LINE
8
LINES
10
366.000000
20
449.000000
30
0.0
11
457.000000
21
449.000000
31
0.0
0
LINE
8
LINES
10
710.000000
20
286.000000
30
0.0
11
710.000000
21
193.000000
31
0.0
0
LINE
8
LINES
10
22.000000
20
763.000000
30
0.0
11
113.000000
21
763.000000
31
0.0
0
LINE
8
LINES
10
123.000000
20
355.000000
30
0.0
11
32.000000
21
355.000000
31
0.0
0
LINE
8
LINES
10
121.000000
20
816.000000
30
0.0
11
121.000000
21
726.000000
31
0.0
0
LINE
8
LINES
10
36.000000
20
619.000000
30
0.0
11
126.000000
21
619.000000
31
0.0
0
LINE
8
LINES
10
793.000000
20
558.000000
30
0.0
11
793.000000
21
468.000000
31
0.0
0
LINE
8
LINES
10
803.000000
20
371.000000
30
0.0
11
716.000000
21
371.000000
31
0.0
0
LINE
8
LINES
10
236.000000
20
985.000000
30
0.0
11
307.000000
21
937.000000
31
0.0
0
LINE
8
LINES
10
955.000000
20
534.000000
30
0.0
11
955.000000
21
619.000000
31
0.0
0
LINE
8
LINES
10
374.000000
20
361.000000
30
0.0
11
459.000000
21
361.000000
31
0.0
0
LINE
8
LINES
10
86.000000
20
680.000000
30
0.0
11
3.000000
21
680.000000
31
0.0
0
LINE
8
LINES
10
108.000000
20
755.000000
30
0.0
11
24.000000
21
755.000000
31
0.0
0
LINE
8
LINES
10
25.000000
20
723.000000
30
0.0
11
108.000000
21
723.000000
31
0.0
0
LINE
8
LINES
10
278.000000
20
796.000000
30
0.0
11
196.000000
21
796.000000
31
0.0
0
LINE
8
LINES
10
94.000000
20
971.000000
30
0.0
11
94.000000
21
888.000000
31
0.0
0
LINE
8
LINES
10
964.000000
20
228.000000
30
0.0
11
964.000000
21
310.000000
31
0.0
0
LINE
8
LINES
10
376.000000
20
748.000000
30
0.0
11
454.000000
21
771.000000
31
0.0
0
LINE
8
LINES
10
972.000000
20
374.000000
30
0.0
11
894.000000
21
374.000000
31
0.0
0
LINE
8
LINES
10
915.000000
20
988.000000
30
0.0
11
993.000000
21
988.000000
31
0.0
0
LINE
8
LINES
10
371.000000
20
1006.000000
30
0.0
11
425.000000
21
950.000000
31
0.0
0
LINE
8
LINES
10
604.000000
20
918.000000
30
0.0
11
604.000000
21
841.000000
31
0.0
0
LINE
8
LINES
10
601.000000
20
841.000000
30
0.0
11
601.000000
21
918.000000
31
0.0
0
LINE
8
LINES
10
102.000000
20
723.000000
30
0.0
11
24.000000
21
723.000000
31
0.0
0
LINE
8
LINES
10
260.000000
20
963.000000
30
0.0
11
182.000000
21
963.000000
31
0.0
0
LINE
8
LINES
10
784.000000
20
620.000000
30
0.0
11
707.000000
21
620.000000
31
0.0
0
LINE
8
LINES
10
619.000000
20
352.000000
30
0.0
11
542.000000
21
352.000000
31
0.0
0
LINE
8
LINES
10
876.000000
20
625.000000
30
0.0
11
953.000000
21
625.000000
31
0.0
0
LINE
8
LINES
10
211.000000
20
624.000000
30
0.0
11
288.000000
21
624.000000
31
0.0
0
LINE
8
LINES
10
614.000000
20
537.000000
30
0.0
11
614.000000
21
616.000000
31
0.0
0
LINE
8
LINES
10
457.000000
20
283.000000
30
0.0
11
457.000000
21
206.000000
31
0.0
0
LINE
8
LINES
10
953.000000
20
622.000000
30
0.0
11
876.000000
21
622.000000
31
0.0
0
LINE
8
LINES
10
777.000000
20
697.000000
30
0.0
11
854.000000
21
697.000000
31
0.0
0
LINE
8
LINES
10
616.000000
20
617.000000
30
0.0
11
539.000000
21
617.000000
31
0.0
0
LINE
8
LINES
10
787.000000
20
353.000000
30
0.0
11
712.000000
21
353.000000
31
0.0
0
LINE
8
LINES
10
457.000000
20
371.000000
30
0.0
11
382.000000
21
371.000000
31
0.0
0
LINE
8
LINES
10
92.000000
20
43.000000
30
0.0
11
27.000000
21
9.000000
31
0.0
0
LINE
8
LINES
10
966.000000
20
643.000000
30
0.0
11
892.000000
21
643.000000
31
0.0
0
LINE
8
LINES
10
960.000000
20
278.000000
30
0.0
11
960.000000
21
352.000000
31
0.0
0
LINE
8
LINES
10
958.000000
20
353.000000
30
0.0
11
886.000000
21
353.000000
31
0.0
0
LINE
8
LINES
10
41.000000
20
358.000000
30
0.0
11
113.000000
21
358.000000
31
0.0
0
LINE
8
LINES
10
382.000000
20
627.000000
30
0.0
11
457.000000
21
627.000000
31
0.0
0
LINE
8
LINES
10
206.000000
20
361.000000
30
0.0
11
278.000000
21
361.000000
31
0.0
0
LINE
8
LINES
10
572.000000
20
923.000000
30
0.0
11
643.000000
21
929.000000
31
0.0
0
LINE
8
LINES
10
201.000000
20
273.000000
30
0.0
11
273.000000
21
273.000000
31
0.0
0
LINE
8
LINES
10
542.000000
20
619.000000
30
0.0
11
616.000000
21
619.000000
31
0.0
0
LINE
8
LINES
10
225.000000
20
1004.000000
30
0.0
11
297.000000
21
1004.000000
31
0.0
0
LINE
8
LINES
10
204.000000
20
529.000000
30
0.0
11
276.000000
21
529.000000
31
0.0
0
LINE
8
LINES
10
961.000000
20
352.000000
30
0.0
11
961.000000
21
278.000000
31
0.0
0
LINE
8
LINES
10
923.000000
20
89.000000
30
0.0
11
851.000000
21
89.000000
31
0.0
0
LINE
8
LINES
10
782.000000
20
283.000000
30
0.0
11
710.000000
21
283.000000
31
0.0
0
LINE
8
LINES
10
33.000000
20
777.000000
30
0.0
11
104.000000
21
777.000000
31
0.0
0
LINE
8
LINES
10
276.000000
20
369.000000
30
0.0
11
206.000000
21
369.000000
31
0.0
0
LINE
8
LINES
10
113.000000
20
366.000000
30
0.0
11
43.000000
21
366.000000
31
0.0
0
LINE
8
LINES
10
713.000000
20
539.000000
30
0.0
11
784.000000
21
539.000000
31
0.0
0
LINE
8
LINES
10
540.000000
20
276.000000
30
0.0
11
611.000000
21
276.000000
31
0.0
0
LINE
8
LINES
10
712.000000
20
278.000000
30
0.0
11
782.000000
21
278.000000
31
0.0
0
LINE
8
LINES
10
38.000000
20
526.000000
30
0.0
11
108.000000
21
526.000000
31
0.0
0
LINE
8
LINES
10
297.000000
20
931.000000
30
0.0
11
297.000000
21
860.000000
31
0.0
0
LINE
8
LINES
10
611.000000
20
278.000000
30
0.0
11
611.000000
21
348.000000
31
0.0
0
LINE
8
LINES
10
780.000000
20
617.000000
30
0.0
11
780.000000
21
547.000000
31
0.0
0
LINE
8
LINES
10
376.000000
20
531.000000
30
0.0
11
446.000000
21
531.000000
31
0.0
0
LINE
8
LINES
10
611.000000
20
616.000000
30
0.0
11
611.000000
21
544.000000
31
0.0
0
LINE
8
LINES
10
113.000000
20
627.000000
30
0.0
11
44.000000
21
627.000000
31
0.0
0
LINE
8
LINES
10
888.000000
20
278.000000
30
0.0
11
958.000000
21
278.000000
31
0.0
0
LINE
8
LINES
10
544.000000
20
537.000000
30
0.0
11
614.000000
21
537.000000
31
0.0
0
LINE
8
LINES
10
6.000000
20
673.000000
30
0.0
11
76.000000
21
673.000000
31
0.0
0
LINE
8
LINES
10
451.000000
20
636.000000
30
0.0
11
382.000000
21
636.000000
31
0.0
0
LINE
8
LINES
10
273.000000
20
574.000000
30
0.0
11
206.000000
21
574.000000
31
0.0
0
LINE
8
LINES
10
283.000000
20
632.000000
30
0.0
11
214.000000
21
632.000000
31
0.0
0
LINE
8
LINES
10
886.000000
20
540.000000
30
0.0
11
953.000000
21
540.000000
31
0.0
0
LINE
8
LINES
10
609.000000
20
283.000000
30
0.0
11
540.000000
21
283.000000
31
0.0
0
LINE
8
LINES
10
956.000000
20
284.000000
30
0.0
11
888.000000
21
284.000000
31
0.0
0
LINE
8
LINES
10
108.000000
20
539.000000
30
0.0
11
38.000000
21
539.000000
31
0.0
0
LINE
8
LINES
10
108.000000
20
462.000000
30
0.0
11
41.000000
21
462.000000
31
0.0
0
LINE
8
LINES
10
945.000000
20
550.000000
30
0.0
11
945.000000
21
619.000000
31
0.0
0
LINE
8
LINES
10
41.000000
20
756.000000
30
0.0
11
110.000000
21
756.000000
31
0.0
0
LINE
8
LINES
10
950.000000
20
617.000000
30
0.0
11
950.000000
21
548.000000
31
0.0
0
LINE
8
LINES
10
774.000000
20
547.000000
30
0.0
11
774.000000
21
616.000000
31
0.0
0
LINE
8
LINES
10
596.000000
20
918.000000
30
0.0
11
596.000000
21
851.000000
31
0.0
0
LINE
8
LINES
10
268.000000
20
206.000000
30
0.0
11
201.000000
21
206.000000
31
0.0
0
LINE
8
LINES
10
112.000000
20
211.000000
30
0.0
11
112.000000
21
278.000000
31
0.0
0
LINE
8
LINES
10
44.000000
20
859.000000
30
0.0
11
83.000000
21
803.000000
31
0.0
0
LINE
8
LINES
10
81.000000
20
800.000000
30
0.0
11
43.000000
21
854.000000
31
0.0
0
LINE
8
LINES
10
403.000000
20
977.000000
30
0.0
11
456.000000
21
936.000000
31
0.0
0
LINE
8
LINES
10
182.000000
20
990.000000
30
0.0
11
115.000000
21
990.000000
31
0.0
0
LINE
8
LINES
10
920.000000
20
537.000000
30
0.0
11
920.000000
21
470.000000
31
0.0
0
LINE
8
LINES
10
950.000000
20
472.000000
30
0.0
11
950.000000
21
537.000000
31
0.0
0
LINE
8
LINES
10
593.000000
20
851.000000
30
0.0
11
593.000000
21
916.000000
31
0.0
0
LINE
8
LINES
10
307.000000
20
859.000000
30
0.0
11
307.000000
21
926.000000
31
0.0
0
LINE
8
LINES
10
782.000000
20
352.000000
30
0.0
11
782.000000
21
286.000000
31
0.0
0
LINE
8
LINES
10
99.000000
20
782.000000
30
0.0
11
33.000000
21
782.000000
31
0.0
0
LINE
8
LINES
10
264.000000
20
339.000000
30
0.0
11
198.000000
21
339.000000
31
0.0
0
LINE
8
LINES
10
41.000000
20
862.000000
30
0.0
11
41.000000
21
796.000000
31
0.0
0
LINE
8
LINES
10
110.000000
20
976.000000
30
0.0
11
110.000000
21
910.000000
31
0.0
0
LINE
8
LINES
10
579.000000
20
532.000000
30
0.0
11
579.000000
21
467.000000
31
0.0
0
LINE
8
LINES
10
609.000000
20
468.000000
30
0.0
11
609.000000
21
534.000000
31
0.0
0
LINE
8
LINES
10
953.000000
20
211.000000
30
0.0
11
889.000000
21
211.000000
31
0.0
0
LINE
8
LINES
10
777.000000
20
537.000000
30
0.0
11
713.000000
21
537.000000
31
0.0
0
LINE
8
LINES
10
273.000000
20
273.000000
30
0.0
11
273.000000
21
337.000000
31
0.0
0
LINE
8
LINES
10
915.000000
20
472.000000
30
0.0
11
915.000000
21
536.000000
31
0.0
0
LINE
8
LINES
10
86.000000
20
798.000000
30
0.0
11
86.000000
21
862.000000
31
0.0
0
LINE
8
LINES
10
790.000000
20
92.000000
30
0.0
11
726.000000
21
92.000000
31
0.0
0
LINE
8
LINES
10
112.000000
20
910.000000
30
0.0
11
112.000000
21
974.000000
31
0.0
0
LINE
8
LINES
10
739.000000
20
547.000000
30
0.0
11
739.000000
21
611.000000
31
0.0
0
LINE
8
LINES
10
574.000000
20
467.000000
30
0.0
11
574.000000
21
531.000000
31
0.0
0
LINE
8
LINES
10
100.000000
20
283.000000
30
0.0
11
36.000000
21
283.000000
31
0.0
0
LINE
8
LINES
10
126.000000
20
617.000000
30
0.0
11
62.000000
21
617.000000
31
0.0
0
LINE
8
LINES
10
0.000000
20
24.000000
30
0.0
11
57.000000
21
52.000000
31
0.0
0
LINE
8
LINES
10
950.000000
20
537.000000
30
0.0
11
886.000000
21
537.000000
31
0.0
0
LINE
8
LINES
10
606.000000
20
545.000000
30
0.0
11
606.000000
21
609.000000
31
0.0
0
LINE
8
LINES
10
110.000000
20
526.000000
30
0.0
11
110.000000
21
462.000000
31
0.0
0
LINE
8
LINES
10
438.000000
20
472.000000
30
0.0
11
376.000000
21
472.000000
31
0.0
0
LINE
8
LINES
10
910.000000
20
548.000000
30
0.0
11
910.000000
21
612.000000
31
0.0
0
LINE
8
LINES
10
268.000000
20
462.000000
30
0.0
11
206.000000
21
462.000000
31
0.0
0
LINE
8
LINES
10
744.000000
20
609.000000
30
0.0
11
744.000000
21
547.000000
31
0.0
0
LINE
8
LINES
10
99.000000
20
347.000000
30
0.0
11
36.000000
21
347.000000
31
0.0
0
LINE
8
LINES
10
35.000000
20
784.000000
30
0.0
11
97.000000
21
784.000000
31
0.0
0
LINE
8
LINES
10
118.000000
20
56.000000
30
0.0
11
180.000000
21
56.000000
31
0.0
0
LINE
8
LINES
10
606.000000
20
611.000000
30
0.0
11
544.000000
21
611.000000
31
0.0
0
LINE
8
LINES
10
955.000000
20
348.000000
30
0.0
11
955.000000
21
286.000000
31
0.0
0
LINE
8
LINES
10
444.000000
20
606.000000
30
0.0
11
444.000000
21
542.000000
31
0.0
0
LINE
8
LINES
10
102.000000
20
230.000000
30
0.0
11
38.000000
21
230.000000
31
0.0
0
LINE
8
LINES
10
779.000000
20
476.000000
30
0.0
11
779.000000
21
537.000000
31
0.0
0
LINE
8
LINES
10
784.000000
20
537.000000
30
0.0
11
784.000000
21
476.000000
31
0.0
0
LINE
8
LINES
10
958.000000
20
275.000000
30
0.0
11
958.000000
21
212.000000
31
0.0
0
LINE
8
LINES
10
313.000000
20
915.000000
30
0.0
11
313.000000
21
852.000000
31
0.0
0
LINE
8
LINES
10
278.000000
20
316.000000
30
0.0
11
278.000000
21
254.000000
31
0.0
0
LINE
8
LINES
10
438.000000
20
606.000000
30
0.0
11
377.000000
21
606.000000
31
0.0
0
LINE
8
LINES
10
572.000000
20
545.000000
30
0.0
11
572.000000
21
606.000000
31
0.0
0
LINE
8
LINES
10
774.000000
20
611.000000
30
0.0
11
713.000000
21
611.000000
31
0.0
0
LINE
8
LINES
10
275.000000
20
526.000000
30
0.0
11
275.000000
21
464.000000
31
0.0
0
LINE
8
LINES
10
843.000000
20
700.000000
30
0.0
11
782.000000
21
700.000000
31
0.0
0
LINE
8
LINES
10
96.000000
20
976.000000
30
0.0
11
35.000000
21
976.000000
31
0.0
0
LINE
8
LINES
10
905.000000
20
612.000000
30
0.0
11
905.000000
21
553.000000
31
0.0
0
LINE
8
LINES
10
729.000000
20
3.000000
30
0.0
11
668.000000
21
3.000000
31
0.0
0
LINE
8
LINES
10
94.000000
20
795.000000
30
0.0
11
33.000000
21
795.000000
31
0.0
0
LINE
8
LINES
10
748.000000
20
534.000000
30
0.0
11
748.000000
21
473.000000
31
0.0
0
LINE
8
LINES
10
744.000000
20
473.000000
30
0.0
11
744.000000
21
534.000000
31
0.0
0
LINE
8
LINES
10
408.000000
20
603.000000
30
0.0
11
408.000000
21
542.000000
31
0.0
0
LINE
8
LINES
10
115.000000
20
345.000000
30
0.0
11
115.000000
21
286.000000
31
0.0
0
LINE
8
LINES
10
953.000000
20
531.000000
30
0.0
11
953.000000
21
472.000000
31
0.0
0
LINE
8
LINES
10
272.000000
20
681.000000
30
0.0
11
331.000000
21
681.000000
31
0.0
0
LINE
8
LINES
10
918.000000
20
214.000000
30
0.0
11
918.000000
21
273.000000
31
0.0
0
LINE
8
LINES
10
268.000000
20
342.000000
30
0.0
11
268.000000
21
283.000000
31
0.0
0
LINE
8
LINES
10
793.000000
20
619.000000
30
0.0
11
793.000000
21
561.000000
31
0.0
0
LINE
8
LINES
10
41.000000
20
236.000000
30
0.0
11
99.000000
21
236.000000
31
0.0
0
LINE
8
LINES
10
929.000000
20
612.000000
30
0.0
11
929.000000
21
553.000000
31
0.0
0
LINE
8
LINES
10
446.000000
20
531.000000
30
0.0
11
446.000000
21
473.000000
31
0.0
0
LINE
8
LINES
10
913.000000
20
286.000000
30
0.0
11
913.000000
21
345.000000
31
0.0
0
LINE
8
LINES
10
604.000000
20
217.000000
30
0.0
11
604.000000
21
275.000000
31
0.0
0
LINE
8
LINES
10
622.000000
20
809.000000
30
0.0
11
622.000000
21
867.000000
31
0.0
0
LINE
8
LINES
10
1016.000000
20
726.000000
30
0.0
11
1016.000000
21
668.000000
31
0.0
0
LINE
8
LINES
10
262.000000
20
212.000000
30
0.0
11
262.000000
21
270.000000
31
0.0
0
LINE
8
LINES
10
188.000000
20
356.000000
30
0.0
11
131.000000
21
356.000000
31
0.0
0
LINE
8
LINES
10
403.000000
20
545.000000
30
0.0
11
403.000000
21
603.000000
31
0.0
0
LINE
8
LINES
10
540.000000
20
121.000000
30
0.0
11
598.000000
21
121.000000
31
0.0
0
LINE
8
LINES
10
236.000000
20
270.000000
30
0.0
11
236.000000
21
212.000000
31
0.0
0
LINE
8
LINES
10
622.000000
20
518.000000
30
0.0
11
622.000000
21
462.000000
31
0.0
0
LINE
8
LINES
10
953.000000
20
219.000000
30
0.0
11
953.000000
21
276.000000
31
0.0
0
LINE
8
LINES
10
272.000000
20
268.000000
30
0.0
11
272.000000
21
211.000000
31
0.0
0
LINE
8
LINES
10
664.000000
20
78.000000
30
0.0
11
606.000000
21
78.000000
31
0.0
0
LINE
8
LINES
10
982.000000
20
446.000000
30
0.0
11
926.000000
21
446.000000
31
0.0
0
LINE
8
LINES
10
412.000000
20
920.000000
30
0.0
11
468.000000
21
920.000000
31
0.0
0
LINE
8
LINES
10
409.000000
20
212.000000
30
0.0
11
409.000000
21
268.000000
31
0.0
0
LINE
8
LINES
10
412.000000
20
268.000000
30
0.0
11
412.000000
21
212.000000
31
0.0
0
LINE
8
LINES
10
742.000000
20
214.000000
30
0.0
11
742.000000
21
270.000000
31
0.0
0
LINE
8
LINES
10
435.000000
20
547.000000
30
0.0
11
435.000000
21
604.000000
31
0.0
0
LINE
8
LINES
10
297.000000
20
854.000000
30
0.0
11
297.000000
21
798.000000
31
0.0
0
LINE
8
LINES
10
606.000000
20
1004.000000
30
0.0
11
662.000000
21
1004.000000
31
0.0
0
LINE
8
LINES
10
110.000000
20
995.000000
30
0.0
11
54.000000
21
1003.000000
31
0.0
0
LINE
8
LINES
10
235.000000
20
1008.000000
30
0.0
11
179.000000
21
1014.000000
31
0.0
0
LINE
8
LINES
10
140.000000
20
828.000000
30
0.0
11
140.000000
21
772.000000
31
0.0
0
LINE
8
LINES
10
409.000000
20
334.000000
30
0.0
11
409.000000
21
278.000000
31
0.0
0
LINE
8
LINES
10
430.000000
20
270.000000
30
0.0
11
376.000000
21
270.000000
31
0.0
0
LINE
8
LINES
10
440.000000
20
604.000000
30
0.0
11
440.000000
21
548.000000
31
0.0
0
LINE
8
LINES
10
996.000000
20
750.000000
30
0.0
11
996.000000
21
806.000000
31
0.0
0
LINE
8
LINES
10
406.000000
20
278.000000
30
0.0
11
406.000000
21
332.000000
31
0.0
0
LINE
8
LINES
10
444.000000
20
212.000000
30
0.0
11
444.000000
21
268.000000
31
0.0
0
LINE
8
LINES
10
312.000000
20
955.000000
30
0.0
11
265.000000
21
984.000000
31
0.0
0
LINE
8
LINES
10
172.000000
20
1011.000000
30
0.0
11
225.000000
21
1011.000000
31
0.0
0
LINE
8
LINES
10
299.000000
20
1009.000000
30
0.0
11
246.000000
21
1009.000000
31
0.0
0
LINE
8
LINES
10
105.000000
20
780.000000
30
0.0
11
105.000000
21
833.000000
31
0.0
0
LINE
8
LINES
10
142.000000
20
774.000000
30
0.0
11
142.000000
21
828.000000
31
0.0
0
LINE
8
LINES
10
569.000000
20
288.000000
30
0.0
11
569.000000
21
342.000000
31
0.0
0
LINE
8
LINES
10
784.000000
20
267.000000
30
0.0
11
784.000000
21
212.000000
31
0.0
0
LINE
8
LINES
10
435.000000
20
910.000000
30
0.0
11
435.000000
21
857.000000
31
0.0
0
LINE
8
LINES
10
689.000000
20
958.000000
30
0.0
11
710.000000
21
1006.000000
31
0.0
0
LINE
8
LINES
10
124.000000
20
348.000000
30
0.0
11
131.000000
21
401.000000
31
0.0
0
LINE
8
LINES
10
116.000000
20
1011.000000
30
0.0
11
169.000000
21
1006.000000
31
0.0
0
LINE
8
LINES
10
57.000000
20
588.000000
30
0.0
11
108.000000
21
588.000000
31
0.0
0
LINE
8
LINES
10
94.000000
20
884.000000
30
0.0
11
94.000000
21
937.000000
31
0.0
0
LINE
8
LINES
10
440.000000
20
217.000000
30
0.0
11
440.000000
21
268.000000
31
0.0
0
LINE
8
LINES
10
710.000000
20
352.000000
30
0.0
11
710.000000
21
299.000000
31
0.0
0
LINE
8
LINES
10
921.000000
20
273.000000
30
0.0
11
921.000000
21
220.000000
31
0.0
0
LINE
8
LINES
10
123.000000
20
867.000000
30
0.0
11
123.000000
21
816.000000
31
0.0
0
LINE
8
LINES
10
777.000000
20
219.000000
30
0.0
11
777.000000
21
272.000000
31
0.0
0
LINE
8
LINES
10
278.000000
20
462.000000
30
0.0
11
278.000000
21
513.000000
31
0.0
0
LINE
8
LINES
10
460.000000
20
337.000000
30
0.0
11
409.000000
21
337.000000
31
0.0
0
LINE
8
LINES
10
44.000000
20
969.000000
30
0.0
11
96.000000
21
969.000000
31
0.0
0
LINE
8
LINES
10
574.000000
20
596.000000
30
0.0
11
574.000000
21
545.000000
31
0.0
0
LINE
8
LINES
10
230.000000
20
284.000000
30
0.0
11
230.000000
21
336.000000
31
0.0
0
LINE
8
LINES
10
1020.000000
20
542.000000
30
0.0
11
1020.000000
21
593.000000
31
0.0
0
LINE
8
LINES
10
721.000000
20
646.000000
30
0.0
11
668.000000
21
646.000000
31
0.0
0
LINE
8
LINES
10
262.000000
20
286.000000
30
0.0
11
262.000000
21
337.000000
31
0.0
0
LINE
8
LINES
10
233.000000
20
336.000000
30
0.0
11
233.000000
21
284.000000
31
0.0
0
LINE
8
LINES
10
590.000000
20
769.000000
30
0.0
11
550.000000
21
737.000000
31
0.0
0
LINE
8
LINES
10
462.000000
20
924.000000
30
0.0
11
412.000000
21
924.000000
31
0.0
0
LINE
8
LINES
10
57.000000
20
329.000000
30
0.0
11
108.000000
21
329.000000
31
0.0
0
LINE
8
LINES
10
110.000000
20
292.000000
30
0.0
11
60.000000
21
292.000000
31
0.0
0
LINE
8
LINES
10
438.000000
20
284.000000
30
0.0
11
438.000000
21
334.000000
31
0.0
0
LINE
8
LINES
10
140.000000
20
772.000000
30
0.0
11
140.000000
21
723.000000
31
0.0
0
LINE
8
LINES
10
67.000000
20
56.000000
30
0.0
11
17.000000
21
56.000000
31
0.0
0
LINE
8
LINES
10
358.000000
20
937.000000
30
0.0
11
409.000000
21
937.000000
31
0.0
0
LINE
8
LINES
10
444.000000
20
334.000000
30
0.0
11
444.000000
21
284.000000
31
0.0
0
LINE
8
LINES
10
238.000000
20
982.000000
30
0.0
11
188.000000
21
982.000000
31
0.0
0
LINE
8
LINES
10
713.000000
20
1008.000000
30
0.0
11
696.000000
21
961.000000
31
0.0
0
LINE
8
LINES
10
107.000000
20
548.000000
30
0.0
11
57.000000
21
548.000000
31
0.0
0
LINE
8
LINES
10
747.000000
20
270.000000
30
0.0
11
747.000000
21
222.000000
31
0.0
0
LINE
8
LINES
10
339.000000
20
681.000000
30
0.0
11
387.000000
21
681.000000
31
0.0
0
LINE
8
LINES
10
576.000000
20
273.000000
30
0.0
11
576.000000
21
224.000000
31
0.0
0
LINE
8
LINES
10
604.000000
20
288.000000
30
0.0
11
604.000000
21
337.000000
31
0.0
0
LINE
8
LINES
10
121.000000
20
817.000000
30
0.0
11
121.000000
21
867.000000
31
0.0
0
LINE
8
LINES
10
115.000000
20
281.000000
30
0.0
11
115.000000
21
233.000000
31
0.0
0
LINE
8
LINES
10
78.000000
20
676.000000
30
0.0
11
126.000000
21
676.000000
31
0.0
0
LINE
8
LINES
10
926.000000
20
444.000000
30
0.0
11
878.000000
21
444.000000
31
0.0
0
LINE
8
LINES
10
571.000000
20
265.000000
30
0.0
11
571.000000
21
217.000000
31
0.0
0
LINE
8
LINES
10
579.000000
20
849.000000
30
0.0
11
531.000000
21
849.000000
31
0.0
0
LINE
8
LINES
10
713.000000
20
617.000000
30
0.0
11
761.000000
21
617.000000
31
0.0
0
LINE
8
LINES
10
72.000000
20
473.000000
30
0.0
11
72.000000
21
521.000000
31
0.0
0
LINE
8
LINES
10
958.000000
20
558.000000
30
0.0
11
958.000000
21
510.000000
31
0.0
0
LINE
8
LINES
10
132.000000
20
412.000000
30
0.0
11
126.000000
21
366.000000
31
0.0
0
LINE
8
LINES
10
803.000000
20
1001.000000
30
0.0
11
851.000000
21
1006.000000
31
0.0
0
LINE
8
LINES
10
86.000000
20
862.000000
30
0.0
11
41.000000
21
862.000000
31
0.0
0
LINE
8
LINES
10
265.000000
20
272.000000
30
0.0
11
265.000000
21
225.000000
31
0.0
0
LINE
8
LINES
10
441.000000
20
272.000000
30
0.0
11
441.000000
21
225.000000
31
0.0
0
LINE
8
LINES
10
57.000000
20
542.000000
30
0.0
11
57.000000
21
588.000000
31
0.0
0
LINE
8
LINES
10
680.000000
20
1004.000000
30
0.0
11
664.000000
21
961.000000
31
0.0
0
LINE
8
LINES
10
668.000000
20
1.000000
30
0.0
11
713.000000
21
1.000000
31
0.0
0
LINE
8
LINES
10
144.000000
20
723.000000
30
0.0
11
144.000000
21
771.000000
31
0.0
0
LINE
8
LINES
10
86.000000
20
910.000000
30
0.0
11
41.000000
21
910.000000
31
0.0
0
LINE
8
LINES
10
564.000000
20
340.000000
30
0.0
11
564.000000
21
294.000000
31
0.0
0
LINE
8
LINES
10
435.000000
20
483.000000
30
0.0
11
435.000000
21
531.000000
31
0.0
0
LINE
8
LINES
10
438.000000
20
531.000000
30
0.0
11
438.000000
21
483.000000
31
0.0
0
LINE
8
LINES
10
614.000000
20
513.000000
30
0.0
11
614.000000
21
467.000000
31
0.0
0
LINE
8
LINES
10
108.000000
20
257.000000
30
0.0
11
108.000000
21
211.000000
31
0.0
0
LINE
8
LINES
10
457.000000
20
334.000000
30
0.0
11
457.000000
21
288.000000
31
0.0
0
LINE
8
LINES
10
291.000000
20
881.000000
30
0.0
11
291.000000
21
928.000000
31
0.0
0
LINE
8
LINES
10
46.000000
20
28.000000
30
0.0
11
89.000000
21
46.000000
31
0.0
0
LINE
8
LINES
10
152.000000
20
851.000000
30
0.0
11
147.000000
21
806.000000
31
0.0
0
LINE
8
LINES
10
41.000000
20
918.000000
30
0.0
11
86.000000
21
918.000000
31
0.0
0
LINE
8
LINES
10
41.000000
20
950.000000
30
0.0
11
86.000000
21
950.000000
31
0.0
0
LINE
8
LINES
10
41.000000
20
873.000000
30
0.0
11
86.000000
21
873.000000
31
0.0
0
LINE
8
LINES
10
41.000000
20
907.000000
30
0.0
11
86.000000
21
907.000000
31
0.0
0
LINE
8
LINES
10
744.000000
20
339.000000
30
0.0
11
744.000000
21
294.000000
31
0.0
0
LINE
8
LINES
10
480.000000
20
798.000000
30
0.0
11
480.000000
21
844.000000
31
0.0
0
LINE
8
LINES
10
313.000000
20
844.000000
30
0.0
11
313.000000
21
798.000000
31
0.0
0
LINE
8
LINES
10
33.000000
20
1012.000000
30
0.0
11
76.000000
21
1006.000000
31
0.0
0
LINE
8
LINES
10
86.000000
20
955.000000
30
0.0
11
41.000000
21
955.000000
31
0.0
0
LINE
8
LINES
10
908.000000
20
340.000000
30
0.0
11
908.000000
21
297.000000
31
0.0
0
LINE
8
LINES
10
910.000000
20
272.000000
30
0.0
11
910.000000
21
227.000000
31
0.0
0
LINE
8
LINES
10
662.000000
20
960.000000
30
0.0
11
620.000000
21
948.000000
31
0.0
0
LINE
8
LINES
10
769.000000
20
296.000000
30
0.0
11
769.000000
21
339.000000
31
0.0
0
LINE
8
LINES
10
9.000000
20
972.000000
30
0.0
11
51.000000
21
979.000000
31
0.0
0
LINE
8
LINES
10
161.000000
20
998.000000
30
0.0
11
118.000000
21
1003.000000
31
0.0
0
LINE
8
LINES
10
499.000000
20
30.000000
30
0.0
11
529.000000
21
1.000000
31
0.0
0
LINE
8
LINES
10
872.000000
20
654.000000
30
0.0
11
828.000000
21
654.000000
31
0.0
0
LINE
8
LINES
10
6.000000
20
227.000000
30
0.0
11
6.000000
21
184.000000
31
0.0
0
LINE
8
LINES
10
360.000000
20
876.000000
30
0.0
11
360.000000
21
918.000000
31
0.0
0
LINE
8
LINES
10
185.000000
20
990.000000
30
0.0
11
227.000000
21
990.000000
31
0.0
0
LINE
8
LINES
10
433.000000
20
227.000000
30
0.0
11
433.000000
21
268.000000
31
0.0
0
LINE
8
LINES
10
547.000000
20
1012.000000
30
0.0
11
507.000000
21
1012.000000
31
0.0
0
LINE
8
LINES
10
276.000000
20
532.000000
30
0.0
11
276.000000
21
574.000000
31
0.0
0
LINE
8
LINES
10
115.000000
20
910.000000
30
0.0
11
115.000000
21
868.000000
31
0.0
0
LINE
8
LINES
10
113.000000
20
769.000000
30
0.0
11
73.000000
21
769.000000
31
0.0
0
LINE
8
LINES
10
387.000000
20
686.000000
30
0.0
11
347.000000
21
686.000000
31
0.0
0
LINE
8
LINES
10
686.000000
20
886.000000
30
0.0
11
686.000000
21
846.000000
31
0.0
0
LINE
8
LINES
10
612.000000
20
214.000000
30
0.0
11
572.000000
21
214.000000
31
0.0
0
LINE
8
LINES
10
494.000000
20
688.000000
30
0.0
11
454.000000
21
688.000000
31
0.0
0
LINE
8
LINES
10
62.000000
20
766.000000
30
0.0
11
22.000000
21
766.000000
31
0.0
0
LINE
8
LINES
10
963.000000
20
312.000000
30
0.0
11
963.000000
21
352.000000
31
0.0
0
LINE
8
LINES
10
446.000000
20
686.000000
30
0.0
11
406.000000
21
686.000000
31
0.0
0
LINE
8
LINES
10
574.000000
20
329.000000
30
0.0
11
574.000000
21
291.000000
31
0.0
0
LINE
8
LINES
10
44.000000
20
798.000000
30
0.0
11
83.000000
21
798.000000
31
0.0
0
LINE
8
LINES
10
684.000000
20
814.000000
30
0.0
11
646.000000
21
814.000000
31
0.0
0
LINE
8
LINES
10
412.000000
20
276.000000
30
0.0
11
451.000000
21
276.000000
31
0.0
0
LINE
8
LINES
10
38.000000
20
230.000000
30
0.0
11
38.000000
21
268.000000
31
0.0
0
LINE
8
LINES
10
758.000000
20
972.000000
30
0.0
11
798.000000
21
972.000000
31
0.0
0
LINE
8
LINES
10
304.000000
20
444.000000
30
0.0
11
342.000000
21
444.000000
31
0.0
0
LINE
8
LINES
10
611.000000
20
348.000000
30
0.0
11
611.000000
21
310.000000
31
0.0
0
LINE
8
LINES
10
560.000000
20
302.000000
30
0.0
11
560.000000
21
340.000000
31
0.0
0
LINE
8
LINES
10
934.000000
20
203.000000
30
0.0
11
896.000000
21
203.000000
31
0.0
0
LINE
8
LINES
10
601.000000
20
569.000000
30
0.0
11
579.000000
21
598.000000
31
0.0
0
LINE
8
LINES
10
46.000000
20
342.000000
30
0.0
11
49.000000
21
304.000000
31
0.0
0
LINE
8
LINES
10
108.000000
20
588.000000
30
0.0
11
108.000000
21
550.000000
31
0.0
0
LINE
8
LINES
10
102.000000
20
585.000000
30
0.0
11
65.000000
21
585.000000
31
0.0
0
LINE
8
LINES
10
116.000000
20
838.000000
30
0.0
11
116.000000
21
876.000000
31
0.0
0
LINE
8
LINES
10
275.000000
20
609.000000
30
0.0
11
238.000000
21
609.000000
31
0.0
0
LINE
8
LINES
10
1022.000000
20
1.000000
30
0.0
11
984.000000
21
1.000000
31
0.0
0
LINE
8
LINES
10
782.000000
20
211.000000
30
0.0
11
745.000000
21
211.000000
31
0.0
0
LINE
8
LINES
10
112.000000
20
512.000000
30
0.0
11
112.000000
21
548.000000
31
0.0
0
LINE
8
LINES
10
416.000000
20
614.000000
30
0.0
11
377.000000
21
614.000000
31
0.0
0
LINE
8
LINES
10
259.000000
20
945.000000
30
0.0
11
222.000000
21
945.000000
31
0.0
0
LINE
8
LINES
10
67.000000
20
550.000000
30
0.0
11
102.000000
21
550.000000
31
0.0
0
LINE
8
LINES
10
435.000000
20
268.000000
30
0.0
11
435.000000
21
233.000000
31
0.0
0
LINE
8
LINES
10
259.000000
20
931.000000
30
0.0
11
222.000000
21
931.000000
31
0.0
0
LINE
8
LINES
10
739.000000
20
291.000000
30
0.0
11
739.000000
21
328.000000
31
0.0
0
LINE
8
LINES
10
867.000000
20
622.000000
30
0.0
11
830.000000
21
622.000000
31
0.0
0
LINE
8
LINES
10
448.000000
20
249.000000
30
0.0
11
448.000000
21
212.000000
31
0.0
0
LINE
8
LINES
10
457.000000
20
684.000000
30
0.0
11
494.000000
21
684.000000
31
0.0
0
LINE
8
LINES
10
72.000000
20
272.000000
30
0.0
11
108.000000
21
272.000000
31
0.0
0
LINE
8
LINES
10
220.000000
20
873.000000
30
0.0
11
220.000000
21
908.000000
31
0.0
0
LINE
8
LINES
10
268.000000
20
233.000000
30
0.0
11
268.000000
21
268.000000
31
0.0
0
LINE
8
LINES
10
281.000000
20
534.000000
30
0.0
11
281.000000
21
571.000000
31
0.0
0
LINE
8
LINES
10
779.000000
20
203.000000
30
0.0
11
742.000000
21
203.000000
31
0.0
0
LINE
8
LINES
10
315.000000
20
851.000000
30
0.0
11
345.000000
21
833.000000
31
0.0
0
LINE
8
LINES
10
422.000000
20
958.000000
30
0.0
11
396.000000
21
982.000000
31
0.0
0
LINE
8
LINES
10
241.000000
20
577.000000
30
0.0
11
275.000000
21
577.000000
31
0.0
0
LINE
8
LINES
10
123.000000
20
680.000000
30
0.0
11
88.000000
21
680.000000
31
0.0
0
LINE
8
LINES
10
113.000000
20
1003.000000
30
0.0
11
148.000000
21
1003.000000
31
0.0
0
LINE
8
LINES
10
582.000000
20
600.000000
30
0.0
11
604.000000
21
572.000000
31
0.0
0
LINE
8
LINES
10
214.000000
20
908.000000
30
0.0
11
214.000000
21
873.000000
31
0.0
0
LINE
8
LINES
10
918.000000
20
121.000000
30
0.0
11
953.000000
21
121.000000
31
0.0
0
LINE
8
LINES
10
169.000000
20
998.000000
30
0.0
11
204.000000
21
995.000000
31
0.0
0
LINE
8
LINES
10
409.000000
20
496.000000
30
0.0
11
409.000000
21
531.000000
31
0.0
0
LINE
8
LINES
10
332.000000
20
412.000000
30
0.0
11
368.000000
21
412.000000
31
0.0
0
LINE
8
LINES
10
652.000000
20
649.000000
30
0.0
11
688.000000
21
649.000000
31
0.0
0
LINE
8
LINES
10
1020.000000
20
403.000000
30
0.0
11
1020.000000
21
438.000000
31
0.0
0
LINE
8
LINES
10
11.000000
20
192.000000
30
0.0
11
11.000000
21
227.000000
31
0.0
0
LINE
8
LINES
10
115.000000
20
547.000000
30
0.0
11
115.000000
21
513.000000
31
0.0
0
LINE
8
LINES
10
433.000000
20
851.000000
30
0.0
11
398.000000
21
851.000000
31
0.0
0
LINE
8
LINES
10
52.000000
20
998.000000
30
0.0
11
17.000000
21
998.000000
31
0.0
0
LINE
8
LINES
10
361.000000
20
953.000000
30
0.0
11
328.000000
21
963.000000
31
0.0
0
LINE
8
LINES
10
108.000000
20
328.000000
30
0.0
11
108.000000
21
294.000000
31
0.0
0
LINE
8
LINES
10
115.000000
20
1001.000000
30
0.0
11
148.000000
21
996.000000
31
0.0
0
LINE
8
LINES
10
1014.000000
20
617.000000
30
0.0
11
1014.000000
21
582.000000
31
0.0
0
LINE
8
LINES
10
782.000000
20
545.000000
30
0.0
11
748.000000
21
545.000000
31
0.0
0
LINE
8
LINES
10
201.000000
20
993.000000
30
0.0
11
168.000000
21
995.000000
31
0.0
0
LINE
8
LINES
10
380.000000
20
881.000000
30
0.0
11
380.000000
21
913.000000
31
0.0
0
LINE
8
LINES
10
104.000000
20
552.000000
30
0.0
11
104.000000
21
585.000000
31
0.0
0
LINE
8
LINES
10
376.000000
20
275.000000
30
0.0
11
409.000000
21
275.000000
31
0.0
0
LINE
8
LINES
10
278.000000
20
611.000000
30
0.0
11
278.000000
21
577.000000
31
0.0
0
LINE
8
LINES
10
235.000000
20
539.000000
30
0.0
11
235.000000
21
572.000000
31
0.0
0
LINE
8
LINES
10
238.000000
20
572.000000
30
0.0
11
238.000000
21
539.000000
31
0.0
0
LINE
8
LINES
10
268.000000
20
539.000000
30
0.0
11
268.000000
21
572.000000
31
0.0
0
LINE
8
LINES
10
395.000000
20
982.000000
30
0.0
11
374.000000
21
1009.000000
31
0.0
0
LINE
8
LINES
10
822.000000
20
1.000000
30
0.0
11
787.000000
21
1.000000
31
0.0
0
LINE
8
LINES
10
302.000000
20
1009.000000
30
0.0
11
337.000000
21
1009.000000
31
0.0
0
LINE
8
LINES
10
273.000000
20
572.000000
30
0.0
11
273.000000
21
539.000000
31
0.0
0
LINE
8
LINES
10
609.000000
20
534.000000
30
0.0
11
576.000000
21
534.000000
31
0.0
0
LINE
8
LINES
10
102.000000
20
553.000000
30
0.0
11
67.000000
21
553.000000
31
0.0
0
LINE
8
LINES
10
691.000000
20
430.000000
30
0.0
11
657.000000
21
430.000000
31
0.0
0
LINE
8
LINES
10
272.000000
20
464.000000
30
0.0
11
272.000000
21
497.000000
31
0.0
0
LINE
8
LINES
10
873.000000
20
648.000000
30
0.0
11
841.000000
21
648.000000
31
0.0
0
LINE
8
LINES
10
286.000000
20
606.000000
30
0.0
11
286.000000
21
572.000000
31
0.0
0
LINE
8
LINES
10
836.000000
20
646.000000
30
0.0
11
870.000000
21
646.000000
31
0.0
0
LINE
8
LINES
10
316.000000
20
796.000000
30
0.0
11
348.000000
21
796.000000
31
0.0
0
LINE
8
LINES
10
462.000000
20
947.000000
30
0.0
11
432.000000
21
961.000000
31
0.0
0
LINE
8
LINES
10
113.000000
20
1006.000000
30
0.0
11
81.000000
21
1009.000000
31
0.0
0
LINE
8
LINES
10
33.000000
20
633.000000
30
0.0
11
27.000000
21
601.000000
31
0.0
0
LINE
8
LINES
10
65.000000
20
582.000000
30
0.0
11
65.000000
21
550.000000
31
0.0
0
LINE
8
LINES
10
59.000000
20
294.000000
30
0.0
11
59.000000
21
326.000000
31
0.0
0
LINE
8
LINES
10
371.000000
20
931.000000
30
0.0
11
339.000000
21
931.000000
31
0.0
0
LINE
8
LINES
10
97.000000
20
326.000000
30
0.0
11
65.000000
21
326.000000
31
0.0
0
LINE
8
LINES
10
102.000000
20
270.000000
30
0.0
11
102.000000
21
238.000000
31
0.0
0
LINE
8
LINES
10
995.000000
20
913.000000
30
0.0
11
995.000000
21
945.000000
31
0.0
0
LINE
8
LINES
10
507.000000
20
88.000000
30
0.0
11
507.000000
21
121.000000
31
0.0
0
LINE
8
LINES
10
572.000000
20
214.000000
30
0.0
11
539.000000
21
214.000000
31
0.0
0
LINE
8
LINES
10
566.000000
20
3.000000
30
0.0
11
532.000000
21
3.000000
31
0.0
0
LINE
8
LINES
10
572.000000
20
217.000000
30
0.0
11
572.000000
21
251.000000
31
0.0
0
LINE
8
LINES
10
976.000000
20
646.000000
30
0.0
11
1008.000000
21
646.000000
31
0.0
0
LINE
8
LINES
10
278.000000
20
238.000000
30
0.0
11
278.000000
21
206.000000
31
0.0
0
LINE
8
LINES
10
406.000000
20
528.000000
30
0.0
11
406.000000
21
496.000000
31
0.0
0
LINE
8
LINES
10
57.000000
20
147.000000
30
0.0
11
25.000000
21
147.000000
31
0.0
0
LINE
8
LINES
10
76.000000
20
1003.000000
30
0.0
11
107.000000
21
998.000000
31
0.0
0
LINE
8
LINES
10
105.000000
20
297.000000
30
0.0
11
105.000000
21
328.000000
31
0.0
0
LINE
8
LINES
10
198.000000
20
342.000000
30
0.0
11
228.000000
21
342.000000
31
0.0
0
LINE
8
LINES
10
520.000000
20
126.000000
30
0.0
11
520.000000
21
94.000000
31
0.0
0
LINE
8
LINES
10
73.000000
20
227.000000
30
0.0
11
104.000000
21
227.000000
31
0.0
0
LINE
8
LINES
10
662.000000
20
852.000000
30
0.0
11
662.000000
21
883.000000
31
0.0
0
LINE
8
LINES
10
444.000000
20
273.000000
30
0.0
11
412.000000
21
273.000000
31
0.0
0
LINE
8
LINES
10
966.000000
20
425.000000
30
0.0
11
998.000000
21
425.000000
31
0.0
0
LINE
8
LINES
10
668.000000
20
700.000000
30
0.0
11
699.000000
21
700.000000
31
0.0
0
LINE
8
LINES
10
233.000000
20
214.000000
30
0.0
11
233.000000
21
246.000000
31
0.0
0
LINE
8
LINES
10
1020.000000
20
100.000000
30
0.0
11
1020.000000
21
131.000000
31
0.0
0
LINE
8
LINES
10
576.000000
20
345.000000
30
0.0
11
606.000000
21
345.000000
31
0.0
0
LINE
8
LINES
10
206.000000
20
499.000000
30
0.0
11
236.000000
21
499.000000
31
0.0
0
LINE
8
LINES
10
68.000000
20
204.000000
30
0.0
11
38.000000
21
204.000000
31
0.0
0
LINE
8
LINES
10
433.000000
20
526.000000
30
0.0
11
433.000000
21
494.000000
31
0.0
0
LINE
8
LINES
10
236.000000
20
211.000000
30
0.0
11
204.000000
21
211.000000
31
0.0
0
LINE
8
LINES
10
57.000000
20
652.000000
30
0.0
11
25.000000
21
652.000000
31
0.0
0
LINE
8
LINES
10
153.000000
20
297.000000
30
0.0
11
121.000000
21
297.000000
31
0.0
0
LINE
8
LINES
10
833.000000
20
984.000000
30
0.0
11
801.000000
21
984.000000
31
0.0
0
LINE
8
LINES
10
377.000000
20
1006.000000
30
0.0
11
398.000000
21
982.000000
31
0.0
0
LINE
8
LINES
10
153.000000
20
771.000000
30
0.0
11
153.000000
21
740.000000
31
0.0
0
LINE
8
LINES
10
1003.000000
20
668.000000
30
0.0
11
972.000000
21
668.000000
31
0.0
0
LINE
8
LINES
10
78.000000
20
611.000000
30
0.0
11
108.000000
21
611.000000
31
0.0
0
LINE
8
LINES
10
241.000000
20
604.000000
30
0.0
11
270.000000
21
604.000000
31
0.0
0
LINE
8
LINES
10
792.000000
20
84.000000
30
0.0
11
761.000000
21
84.000000
31
0.0
0
LINE
8
LINES
10
262.000000
20
283.000000
30
0.0
11
232.000000
21
283.000000
31
0.0
0
LINE
8
LINES
10
51.000000
20
977.000000
30
0.0
11
81.000000
21
977.000000
31
0.0
0
LINE
8
LINES
10
233.000000
20
342.000000
30
0.0
11
264.000000
21
342.000000
31
0.0
0
LINE
8
LINES
10
30.000000
20
608.000000
30
0.0
11
60.000000
21
608.000000
31
0.0
0
LINE
8
LINES
10
537.000000
20
224.000000
30
0.0
11
537.000000
21
193.000000
31
0.0
0
LINE
8
LINES
10
206.000000
20
603.000000
30
0.0
11
236.000000
21
603.000000
31
0.0
0
LINE
8
LINES
10
1017.000000
20
176.000000
30
0.0
11
1017.000000
21
145.000000
31
0.0
0
LINE
8
LINES
10
252.000000
20
966.000000
30
0.0
11
222.000000
21
966.000000
31
0.0
0
LINE
8
LINES
10
225.000000
20
798.000000
30
0.0
11
256.000000
21
798.000000
31
0.0
0
LINE
8
LINES
10
201.000000
20
243.000000
30
0.0
11
201.000000
21
212.000000
31
0.0
0
LINE
8
LINES
10
241.000000
20
500.000000
30
0.0
11
270.000000
21
500.000000
31
0.0
0
LINE
8
LINES
10
969.000000
20
353.000000
30
0.0
11
969.000000
21
323.000000
31
0.0
0
LINE
8
LINES
10
102.000000
20
204.000000
30
0.0
11
72.000000
21
204.000000
31
0.0
0
LINE
8
LINES
10
536.000000
20
275.000000
30
0.0
11
505.000000
21
275.000000
31
0.0
0
LINE
8
LINES
10
956.000000
20
620.000000
30
0.0
11
956.000000
21
590.000000
31
0.0
0
LINE
8
LINES
10
726.000000
20
158.000000
30
0.0
11
755.000000
21
158.000000
31
0.0
0
LINE
8
LINES
10
94.000000
20
881.000000
30
0.0
11
94.000000
21
851.000000
31
0.0
0
ENDSEC
0
EOF
