0
SECTION
2
ENTITIES
0
LWPOLYLINE
8
FACADE_OUTLINE
90
4
70
1
10
0.000000
20
0.000000
10
1024.000000
20
0.000000
10
1024.000000
20
507.000000
10
0.000000
20
507.000000
0
LWPOLYLINE
8
WINDOWS
90
4
70
1
10
0.000000
20
0.000000
10
1024.000000
20
0.000000
10
1024.000000
20
379.000000
10
0.000000
20
379.000000
0
LWPOLYLINE
8
WINDOWS
90
4
70
1
10
142.000000
20
38.000000
10
243.000000
20
38.000000
10
243.000000
20
96.000000
10
142.000000
20
96.000000
0
LWPOLYLINE
8
WINDOWS
90
4
70
1
10
817.000000
20
121.000000
10
856.000000
20
121.000000
10
856.000000
20
166.000000
10
817.000000
20
166.000000
0
LWPOLYLINE
8
WINDOWS
90
4
70
1
10
257.000000
20
214.000000
10
305.000000
20
214.000000
10
305.000000
20
294.000000
10
257.000000
20
294.000000
0
LWPOLYLINE
8
WINDOWS
90
4
70
1
10
332.000000
20
214.000000
10
380.000000
20
214.000000
10
380.000000
20
296.000000
10
332.000000
20
296.000000
0
LWPOLYLINE
8
WINDOWS
90
4
70
1
10
817.000000
20
219.000000
10
851.000000
20
219.000000
10
851.000000
20
270.000000
10
817.000000
20
270.000000
0
LWPOLYLINE
8
WINDOWS
90
4
70
1
10
481.000000
20
220.000000
10
526.000000
20
220.000000
10
526.000000
20
275.000000
10
481.000000
20
275.000000
0
LWPOLYLINE
8
WINDOWS
90
4
70
1
10
121.000000
20
297.000000
10
161.000000
20
297.000000
10
161.000000
20
366.000000
10
121.000000
20
366.000000
0
LWPOLYLINE
8
WINDOWS
90
4
70
1
10
716.000000
20
299.000000
10
750.000000
20
299.000000
10
750.000000
20
358.000000
10
716.000000
20
358.000000
0
LWPOLYLINE
8
WINDOWS
90
4
70
1
10
940.000000
20
390.000000
10
1024.000000
20
390.000000
10
1024.000000
20
446.000000
10
940.000000
20
446.000000
0
LWPOLYLINE
8
WINDOWS
90
4
70
1
10
0.000000
20
395.000000
10
137.000000
20
395.000000
10
137.000000
20
465.000000
10
0.000000
20
465.000000
0
LWPOLYLINE
8
WINDOWS
90
4
70
1
10
260.000000
20
396.000000
10
289.000000
20
396.000000
10
289.000000
20
440.000000
10
260.000000
20
440.000000
0
LWPOLYLINE
8
WINDOWS
90
4
70
1
10
299.000000
20
396.000000
10
366.000000
20
396.000000
10
366.000000
20
433.000000
10
299.000000
20
433.000000
0
LWPOLYLINE
8
WINDOWS
90
4
70
1
10
238.000000
20
432.000000
10
435.000000
20
432.000000
10
435.000000
20
507.000000
10
238.000000
20
507.000000
0
LWPOLYLINE
8
DOORS
90
4
70
1
10
0.000000
20
201.000000
10
94.000000
20
201.000000
10
94.000000
20
433.000000
10
0.000000
20
433.000000
0
LWPOLYLINE
8
DOORS
90
4
70
1
10
166.000000
20
201.000000
10
214.000000
20
201.000000
10
214.000000
20
366.000000
10
166.000000
20
366.000000
0
LWPOLYLINE
8
DOORS
90
4
70
1
10
622.000000
20
206.000000
10
668.000000
20
206.000000
10
668.000000
20
358.000000
10
622.000000
20
358.000000
0
LWPOLYLINE
8
DOORS
90
4
70
1
10
408.000000
20
214.000000
10
457.000000
20
214.000000
10
457.000000
20
316.000000
10
408.000000
20
316.000000
0
LWPOLYLINE
8
DOORS
90
4
70
1
10
558.000000
20
214.000000
10
604.000000
20
214.000000
10
604.000000
20
299.000000
10
558.000000
20
299.000000
0
LWPOLYLINE
8
DOORS
90
4
70
1
10
708.000000
20
214.000000
10
753.000000
20
214.000000
10
753.000000
20
313.000000
10
708.000000
20
313.000000
0
LWPOLYLINE
8
DOORS
90
4
70
1
10
257.000000
20
281.000000
10
302.000000
20
281.000000
10
302.000000
20
366.000000
10
257.000000
20
366.000000
0
LWPOLYLINE
8
DOORS
90
4
70
1
10
817.000000
20
297.000000
10
846.000000
20
297.000000
10
846.000000
20
355.000000
10
817.000000
20
355.000000
0
LWPOLYLINE
8
DOORS
90
4
70
1
10
416.000000
20
299.000000
10
444.000000
20
299.000000
10
444.000000
20
355.000000
10
416.000000
20
355.000000
0
LWPOLYLINE
8
DOORS
90
4
70
1
10
566.000000
20
299.000000
10
595.000000
20
299.000000
10
595.000000
20
355.000000
10
566.000000
20
355.000000
0
LWPOLYLINE
8
DOORS
90
4
70
1
10
641.000000
20
299.000000
10
670.000000
20
299.000000
10
670.000000
20
355.000000
10
641.000000
20
355.000000
0
LINE
8
LINES
10
38.000000
20
174.000000
30
0.0
11
742.000000
21
174.000000
31
0.0
0
LINE
8
LINES
10
230.000000
20
188.000000
30
0.0
11
897.000000
21
188.000000
31
0.0
0
LINE
8
LINES
10
131.000000
20
108.000000
30
0.0
11
761.000000
21
108.000000
31
0.0
0
LINE
8
LINES
10
672.000000
20
377.000000
30
0.0
11
100.000000
21
377.000000
31
0.0
0
LINE
8
LINES
10
742.000000
20
185.000000
30
0.0
11
236.000000
21
185.000000
31
0.0
0
LINE
8
LINES
10
796.000000
20
60.000000
30
0.0
11
291.000000
21
60.000000
31
0.0
0
LINE
8
LINES
10
294.000000
20
59.000000
30
0.0
11
798.000000
21
59.000000
31
0.0
0
LINE
8
LINES
10
761.000000
20
116.000000
30
0.0
11
276.000000
21
116.000000
31
0.0
0
LINE
8
LINES
10
278.000000
20
113.000000
30
0.0
11
761.000000
21
113.000000
31
0.0
0
LINE
8
LINES
10
761.000000
20
124.000000
30
0.0
11
278.000000
21
124.000000
31
0.0
0
LINE
8
LINES
10
348.000000
20
51.000000
30
0.0
11
811.000000
21
51.000000
31
0.0
0
LINE
8
LINES
10
233.000000
20
382.000000
30
0.0
11
672.000000
21
382.000000
31
0.0
0
LINE
8
LINES
10
649.000000
20
208.000000
30
0.0
11
241.000000
21
208.000000
31
0.0
0
LINE
8
LINES
10
828.000000
20
486.000000
30
0.0
11
446.000000
21
486.000000
31
0.0
0
LINE
8
LINES
10
622.000000
20
387.000000
30
0.0
11
332.000000
21
387.000000
31
0.0
0
LINE
8
LINES
10
531.000000
20
206.000000
30
0.0
11
812.000000
21
206.000000
31
0.0
0
LINE
8
LINES
10
1022.000000
20
80.000000
30
0.0
11
774.000000
21
0.000000
31
0.0
0
LINE
8
LINES
10
745.000000
20
382.000000
30
0.0
11
996.000000
21
382.000000
31
0.0
0
LINE
8
LINES
10
488.000000
20
195.000000
30
0.0
11
238.000000
21
195.000000
31
0.0
0
LINE
8
LINES
10
753.000000
20
192.000000
30
0.0
11
510.000000
21
192.000000
31
0.0
0
LINE
8
LINES
10
761.000000
20
198.000000
30
0.0
11
521.000000
21
198.000000
31
0.0
0
LINE
8
LINES
10
568.000000
20
483.000000
30
0.0
11
806.000000
21
483.000000
31
0.0
0
LINE
8
LINES
10
1000.000000
20
385.000000
30
0.0
11
771.000000
21
385.000000
31
0.0
0
LINE
8
LINES
10
228.000000
20
492.000000
30
0.0
11
1.000000
21
492.000000
31
0.0
0
LINE
8
LINES
10
811.000000
20
460.000000
30
0.0
11
1019.000000
21
460.000000
31
0.0
0
LINE
8
LINES
10
1011.000000
20
494.000000
30
0.0
11
806.000000
21
494.000000
31
0.0
0
LINE
8
LINES
10
27.000000
20
184.000000
30
0.0
11
227.000000
21
184.000000
31
0.0
0
LINE
8
LINES
10
766.000000
20
371.000000
30
0.0
11
956.000000
21
371.000000
31
0.0
0
LINE
8
LINES
10
987.000000
20
465.000000
30
0.0
11
812.000000
21
465.000000
31
0.0
0
LINE
8
LINES
10
241.000000
20
374.000000
30
0.0
11
411.000000
21
374.000000
31
0.0
0
LINE
8
LINES
10
238.000000
20
208.000000
30
0.0
11
238.000000
21
374.000000
31
0.0
0
LINE
8
LINES
10
220.000000
20
376.000000
30
0.0
11
220.000000
21
214.000000
31
0.0
0
LINE
8
LINES
10
185.000000
20
211.000000
30
0.0
11
185.000000
21
371.000000
31
0.0
0
LINE
8
LINES
10
233.000000
20
366.000000
30
0.0
11
233.000000
21
206.000000
31
0.0
0
LINE
8
LINES
10
744.000000
20
177.000000
30
0.0
11
899.000000
21
177.000000
31
0.0
0
LINE
8
LINES
10
313.000000
20
206.000000
30
0.0
11
468.000000
21
206.000000
31
0.0
0
LINE
8
LINES
10
996.000000
20
209.000000
30
0.0
11
897.000000
21
97.000000
31
0.0
0
LINE
8
LINES
10
896.000000
20
179.000000
30
0.0
11
747.000000
21
179.000000
31
0.0
0
LINE
8
LINES
10
894.000000
20
100.000000
30
0.0
11
993.000000
21
211.000000
31
0.0
0
LINE
8
LINES
10
894.000000
20
387.000000
30
0.0
11
747.000000
21
387.000000
31
0.0
0
LINE
8
LINES
10
897.000000
20
184.000000
30
0.0
11
750.000000
21
184.000000
31
0.0
0
LINE
8
LINES
10
526.000000
20
374.000000
30
0.0
11
668.000000
21
374.000000
31
0.0
0
LINE
8
LINES
10
44.000000
20
211.000000
30
0.0
11
44.000000
21
353.000000
31
0.0
0
LINE
8
LINES
10
697.000000
20
355.000000
30
0.0
11
697.000000
21
212.000000
31
0.0
0
LINE
8
LINES
10
244.000000
20
356.000000
30
0.0
11
244.000000
21
214.000000
31
0.0
0
LINE
8
LINES
10
753.000000
20
94.000000
30
0.0
11
896.000000
21
94.000000
31
0.0
0
LINE
8
LINES
10
473.000000
20
355.000000
30
0.0
11
473.000000
21
214.000000
31
0.0
0
LINE
8
LINES
10
321.000000
20
355.000000
30
0.0
11
321.000000
21
214.000000
31
0.0
0
LINE
8
LINES
10
396.000000
20
356.000000
30
0.0
11
396.000000
21
216.000000
31
0.0
0
LINE
8
LINES
10
800.000000
20
355.000000
30
0.0
11
800.000000
21
217.000000
31
0.0
0
LINE
8
LINES
10
896.000000
20
97.000000
30
0.0
11
756.000000
21
97.000000
31
0.0
0
LINE
8
LINES
10
547.000000
20
356.000000
30
0.0
11
547.000000
21
217.000000
31
0.0
0
LINE
8
LINES
10
947.000000
20
460.000000
30
0.0
11
809.000000
21
460.000000
31
0.0
0
LINE
8
LINES
10
758.000000
20
102.000000
30
0.0
11
892.000000
21
102.000000
31
0.0
0
LINE
8
LINES
10
622.000000
20
355.000000
30
0.0
11
622.000000
21
222.000000
31
0.0
0
LINE
8
LINES
10
249.000000
20
219.000000
30
0.0
11
249.000000
21
353.000000
31
0.0
0
LINE
8
LINES
10
99.000000
20
384.000000
30
0.0
11
232.000000
21
384.000000
31
0.0
0
LINE
8
LINES
10
896.000000
20
206.000000
30
0.0
11
764.000000
21
206.000000
31
0.0
0
LINE
8
LINES
10
897.000000
20
185.000000
30
0.0
11
998.000000
21
268.000000
31
0.0
0
LINE
8
LINES
10
30.000000
20
217.000000
30
0.0
11
30.000000
21
348.000000
31
0.0
0
LINE
8
LINES
10
995.000000
20
270.000000
30
0.0
11
894.000000
21
193.000000
31
0.0
0
LINE
8
LINES
10
686.000000
20
401.000000
30
0.0
11
812.000000
21
401.000000
31
0.0
0
LINE
8
LINES
10
166.000000
20
219.000000
30
0.0
11
166.000000
21
345.000000
31
0.0
0
LINE
8
LINES
10
892.000000
20
195.000000
30
0.0
11
766.000000
21
195.000000
31
0.0
0
LINE
8
LINES
10
886.000000
20
190.000000
30
0.0
11
761.000000
21
190.000000
31
0.0
0
LINE
8
LINES
10
688.000000
20
424.000000
30
0.0
11
812.000000
21
424.000000
31
0.0
0
LINE
8
LINES
10
892.000000
20
204.000000
30
0.0
11
993.000000
21
275.000000
31
0.0
0
LINE
8
LINES
10
900.000000
20
348.000000
30
0.0
11
900.000000
21
227.000000
31
0.0
0
LINE
8
LINES
10
902.000000
20
227.000000
30
0.0
11
902.000000
21
350.000000
31
0.0
0
LINE
8
LINES
10
201.000000
20
347.000000
30
0.0
11
201.000000
21
227.000000
31
0.0
0
LINE
8
LINES
10
784.000000
20
228.000000
30
0.0
11
784.000000
21
348.000000
31
0.0
0
LINE
8
LINES
10
875.000000
20
347.000000
30
0.0
11
875.000000
21
228.000000
31
0.0
0
LINE
8
LINES
10
780.000000
20
348.000000
30
0.0
11
780.000000
21
230.000000
31
0.0
0
LINE
8
LINES
10
166.000000
20
179.000000
30
0.0
11
51.000000
21
179.000000
31
0.0
0
LINE
8
LINES
10
110.000000
20
233.000000
30
0.0
11
110.000000
21
348.000000
31
0.0
0
LINE
8
LINES
10
305.000000
20
451.000000
30
0.0
11
417.000000
21
433.000000
31
0.0
0
LINE
8
LINES
10
65.000000
20
238.000000
30
0.0
11
65.000000
21
350.000000
31
0.0
0
LINE
8
LINES
10
960.000000
20
376.000000
30
0.0
11
960.000000
21
264.000000
31
0.0
0
LINE
8
LINES
10
60.000000
20
348.000000
30
0.0
11
60.000000
21
238.000000
31
0.0
0
LINE
8
LINES
10
475.000000
20
220.000000
30
0.0
11
475.000000
21
331.000000
31
0.0
0
LINE
8
LINES
10
161.000000
20
177.000000
30
0.0
11
51.000000
21
177.000000
31
0.0
0
LINE
8
LINES
10
180.000000
20
204.000000
30
0.0
11
73.000000
21
204.000000
31
0.0
0
LINE
8
LINES
10
72.000000
20
201.000000
30
0.0
11
179.000000
21
201.000000
31
0.0
0
LINE
8
LINES
10
572.000000
20
468.000000
30
0.0
11
678.000000
21
468.000000
31
0.0
0
LINE
8
LINES
10
761.000000
20
209.000000
30
0.0
11
654.000000
21
209.000000
31
0.0
0
LINE
8
LINES
10
172.000000
20
190.000000
30
0.0
11
67.000000
21
190.000000
31
0.0
0
LINE
8
LINES
10
72.000000
20
211.000000
30
0.0
11
172.000000
21
211.000000
31
0.0
0
LINE
8
LINES
10
939.000000
20
358.000000
30
0.0
11
939.000000
21
260.000000
31
0.0
0
LINE
8
LINES
10
860.000000
20
492.000000
30
0.0
11
956.000000
21
492.000000
31
0.0
0
LINE
8
LINES
10
670.000000
20
476.000000
30
0.0
11
574.000000
21
476.000000
31
0.0
0
LINE
8
LINES
10
241.000000
20
48.000000
30
0.0
11
150.000000
21
48.000000
31
0.0
0
LINE
8
LINES
10
952.000000
20
484.000000
30
0.0
11
865.000000
21
484.000000
31
0.0
0
LINE
8
LINES
10
204.000000
20
262.000000
30
0.0
11
204.000000
21
347.000000
31
0.0
0
LINE
8
LINES
10
878.000000
20
264.000000
30
0.0
11
878.000000
21
348.000000
31
0.0
0
LINE
8
LINES
10
899.000000
20
176.000000
30
0.0
11
963.000000
21
230.000000
31
0.0
0
LINE
8
LINES
10
537.000000
20
460.000000
30
0.0
11
454.000000
21
460.000000
31
0.0
0
LINE
8
LINES
10
865.000000
20
478.000000
30
0.0
11
947.000000
21
478.000000
31
0.0
0
LINE
8
LINES
10
376.000000
20
275.000000
30
0.0
11
376.000000
21
356.000000
31
0.0
0
LINE
8
LINES
10
435.000000
20
433.000000
30
0.0
11
516.000000
21
441.000000
31
0.0
0
LINE
8
LINES
10
676.000000
20
460.000000
30
0.0
11
596.000000
21
460.000000
31
0.0
0
LINE
8
LINES
10
963.000000
20
233.000000
30
0.0
11
900.000000
21
182.000000
31
0.0
0
LINE
8
LINES
10
275.000000
20
115.000000
30
0.0
11
198.000000
21
94.000000
31
0.0
0
LINE
8
LINES
10
993.000000
20
216.000000
30
0.0
11
940.000000
21
156.000000
31
0.0
0
LINE
8
LINES
10
142.000000
20
89.000000
30
0.0
11
220.000000
21
97.000000
31
0.0
0
LINE
8
LINES
10
816.000000
20
206.000000
30
0.0
11
892.000000
21
206.000000
31
0.0
0
LINE
8
LINES
10
182.000000
20
302.000000
30
0.0
11
182.000000
21
227.000000
31
0.0
0
LINE
8
LINES
10
961.000000
20
147.000000
30
0.0
11
996.000000
21
211.000000
31
0.0
0
LINE
8
LINES
10
326.000000
20
387.000000
30
0.0
11
256.000000
21
387.000000
31
0.0
0
LINE
8
LINES
10
396.000000
20
126.000000
30
0.0
11
467.000000
21
126.000000
31
0.0
0
LINE
8
LINES
10
916.000000
20
304.000000
30
0.0
11
916.000000
21
233.000000
31
0.0
0
LINE
8
LINES
10
526.000000
20
275.000000
30
0.0
11
526.000000
21
345.000000
31
0.0
0
LINE
8
LINES
10
670.000000
20
374.000000
30
0.0
11
739.000000
21
374.000000
31
0.0
0
LINE
8
LINES
10
985.000000
20
460.000000
30
0.0
11
920.000000
21
444.000000
31
0.0
0
LINE
8
LINES
10
742.000000
20
377.000000
30
0.0
11
673.000000
21
377.000000
31
0.0
0
LINE
8
LINES
10
569.000000
20
483.000000
30
0.0
11
502.000000
21
489.000000
31
0.0
0
LINE
8
LINES
10
1022.000000
20
432.000000
30
0.0
11
958.000000
21
444.000000
31
0.0
0
LINE
8
LINES
10
9.000000
20
441.000000
30
0.0
11
73.000000
21
441.000000
31
0.0
0
LINE
8
LINES
10
73.000000
20
438.000000
30
0.0
11
11.000000
21
438.000000
31
0.0
0
LINE
8
LINES
10
608.000000
20
449.000000
30
0.0
11
672.000000
21
449.000000
31
0.0
0
LINE
8
LINES
10
678.000000
20
384.000000
30
0.0
11
742.000000
21
384.000000
31
0.0
0
LINE
8
LINES
10
300.000000
20
291.000000
30
0.0
11
300.000000
21
353.000000
31
0.0
0
LINE
8
LINES
10
398.000000
20
460.000000
30
0.0
11
460.000000
21
460.000000
31
0.0
0
LINE
8
LINES
10
809.000000
20
396.000000
30
0.0
11
747.000000
21
396.000000
31
0.0
0
LINE
8
LINES
10
401.000000
20
268.000000
30
0.0
11
401.000000
21
331.000000
31
0.0
0
LINE
8
LINES
10
713.000000
20
182.000000
30
0.0
11
652.000000
21
182.000000
31
0.0
0
LINE
8
LINES
10
516.000000
20
430.000000
30
0.0
11
577.000000
21
443.000000
31
0.0
0
LINE
8
LINES
10
993.000000
20
280.000000
30
0.0
11
944.000000
21
243.000000
31
0.0
0
LINE
8
LINES
10
166.000000
20
43.000000
30
0.0
11
227.000000
21
43.000000
31
0.0
0
LINE
8
LINES
10
44.000000
20
110.000000
30
0.0
11
44.000000
21
172.000000
31
0.0
0
LINE
8
LINES
10
939.000000
20
155.000000
30
0.0
11
894.000000
21
115.000000
31
0.0
0
LINE
8
LINES
10
224.000000
20
502.000000
30
0.0
11
163.000000
21
502.000000
31
0.0
0
LINE
8
LINES
10
598.000000
20
436.000000
30
0.0
11
659.000000
21
436.000000
31
0.0
0
LINE
8
LINES
10
396.000000
20
214.000000
30
0.0
11
456.000000
21
214.000000
31
0.0
0
LINE
8
LINES
10
859.000000
20
107.000000
30
0.0
11
798.000000
21
107.000000
31
0.0
0
LINE
8
LINES
10
867.000000
20
32.000000
30
0.0
11
905.000000
21
78.000000
31
0.0
0
LINE
8
LINES
10
798.000000
20
212.000000
30
0.0
11
857.000000
21
212.000000
31
0.0
0
LINE
8
LINES
10
321.000000
20
214.000000
30
0.0
11
380.000000
21
214.000000
31
0.0
0
LINE
8
LINES
10
243.000000
20
164.000000
30
0.0
11
302.000000
21
164.000000
31
0.0
0
LINE
8
LINES
10
748.000000
20
395.000000
30
0.0
11
808.000000
21
395.000000
31
0.0
0
LINE
8
LINES
10
820.000000
20
353.000000
30
0.0
11
820.000000
21
297.000000
31
0.0
0
LINE
8
LINES
10
670.000000
20
297.000000
30
0.0
11
670.000000
21
353.000000
31
0.0
0
LINE
8
LINES
10
33.000000
20
385.000000
30
0.0
11
91.000000
21
385.000000
31
0.0
0
LINE
8
LINES
10
321.000000
20
164.000000
30
0.0
11
377.000000
21
164.000000
31
0.0
0
LINE
8
LINES
10
156.000000
20
438.000000
30
0.0
11
214.000000
21
438.000000
31
0.0
0
LINE
8
LINES
10
787.000000
20
470.000000
30
0.0
11
731.000000
21
470.000000
31
0.0
0
LINE
8
LINES
10
697.000000
20
163.000000
30
0.0
11
755.000000
21
163.000000
31
0.0
0
LINE
8
LINES
10
246.000000
20
214.000000
30
0.0
11
304.000000
21
214.000000
31
0.0
0
LINE
8
LINES
10
396.000000
20
164.000000
30
0.0
11
454.000000
21
164.000000
31
0.0
0
LINE
8
LINES
10
622.000000
20
163.000000
30
0.0
11
681.000000
21
163.000000
31
0.0
0
LINE
8
LINES
10
472.000000
20
163.000000
30
0.0
11
529.000000
21
163.000000
31
0.0
0
LINE
8
LINES
10
300.000000
20
232.000000
30
0.0
11
300.000000
21
289.000000
31
0.0
0
LINE
8
LINES
10
470.000000
20
443.000000
30
0.0
11
412.000000
21
436.000000
31
0.0
0
LINE
8
LINES
10
595.000000
20
297.000000
30
0.0
11
595.000000
21
353.000000
31
0.0
0
LINE
8
LINES
10
374.000000
20
449.000000
30
0.0
11
374.000000
21
505.000000
31
0.0
0
LINE
8
LINES
10
491.000000
20
476.000000
30
0.0
11
547.000000
21
476.000000
31
0.0
0
LINE
8
LINES
10
873.000000
20
44.000000
30
0.0
11
817.000000
21
44.000000
31
0.0
0
LINE
8
LINES
10
547.000000
20
163.000000
30
0.0
11
604.000000
21
163.000000
31
0.0
0
LINE
8
LINES
10
92.000000
20
377.000000
30
0.0
11
36.000000
21
377.000000
31
0.0
0
LINE
8
LINES
10
947.000000
20
476.000000
30
0.0
11
891.000000
21
476.000000
31
0.0
0
LINE
8
LINES
10
920.000000
20
358.000000
30
0.0
11
920.000000
21
304.000000
31
0.0
0
LINE
8
LINES
10
720.000000
20
353.000000
30
0.0
11
720.000000
21
299.000000
31
0.0
0
LINE
8
LINES
10
662.000000
20
446.000000
30
0.0
11
608.000000
21
446.000000
31
0.0
0
LINE
8
LINES
10
369.000000
20
299.000000
30
0.0
11
369.000000
21
353.000000
31
0.0
0
LINE
8
LINES
10
593.000000
20
460.000000
30
0.0
11
539.000000
21
460.000000
31
0.0
0
LINE
8
LINES
10
19.000000
20
504.000000
30
0.0
11
73.000000
21
499.000000
31
0.0
0
LINE
8
LINES
10
867.000000
20
424.000000
30
0.0
11
921.000000
21
424.000000
31
0.0
0
LINE
8
LINES
10
420.000000
20
353.000000
30
0.0
11
420.000000
21
300.000000
31
0.0
0
LINE
8
LINES
10
644.000000
20
353.000000
30
0.0
11
644.000000
21
300.000000
31
0.0
0
LINE
8
LINES
10
569.000000
20
353.000000
30
0.0
11
569.000000
21
300.000000
31
0.0
0
LINE
8
LINES
10
136.000000
20
353.000000
30
0.0
11
136.000000
21
300.000000
31
0.0
0
LINE
8
LINES
10
345.000000
20
353.000000
30
0.0
11
345.000000
21
300.000000
31
0.0
0
LINE
8
LINES
10
270.000000
20
353.000000
30
0.0
11
270.000000
21
302.000000
31
0.0
0
LINE
8
LINES
10
798.000000
20
171.000000
30
0.0
11
798.000000
21
118.000000
31
0.0
0
LINE
8
LINES
10
483.000000
20
345.000000
30
0.0
11
483.000000
21
292.000000
31
0.0
0
LINE
8
LINES
10
408.000000
20
345.000000
30
0.0
11
408.000000
21
292.000000
31
0.0
0
LINE
8
LINES
10
558.000000
20
345.000000
30
0.0
11
558.000000
21
292.000000
31
0.0
0
LINE
8
LINES
10
326.000000
20
267.000000
30
0.0
11
326.000000
21
318.000000
31
0.0
0
LINE
8
LINES
10
680.000000
20
302.000000
30
0.0
11
680.000000
21
355.000000
31
0.0
0
LINE
8
LINES
10
428.000000
20
108.000000
30
0.0
11
481.000000
21
108.000000
31
0.0
0
LINE
8
LINES
10
918.000000
20
406.000000
30
0.0
11
867.000000
21
406.000000
31
0.0
0
LINE
8
LINES
10
921.000000
20
416.000000
30
0.0
11
867.000000
21
416.000000
31
0.0
0
LINE
8
LINES
10
915.000000
20
489.000000
30
0.0
11
864.000000
21
489.000000
31
0.0
0
LINE
8
LINES
10
78.000000
20
440.000000
30
0.0
11
131.000000
21
440.000000
31
0.0
0
LINE
8
LINES
10
92.000000
20
428.000000
30
0.0
11
41.000000
21
428.000000
31
0.0
0
LINE
8
LINES
10
526.000000
20
131.000000
30
0.0
11
476.000000
21
131.000000
31
0.0
0
LINE
8
LINES
10
41.000000
20
404.000000
30
0.0
11
92.000000
21
404.000000
31
0.0
0
LINE
8
LINES
10
332.000000
20
345.000000
30
0.0
11
332.000000
21
294.000000
31
0.0
0
LINE
8
LINES
10
947.000000
20
265.000000
30
0.0
11
947.000000
21
316.000000
31
0.0
0
LINE
8
LINES
10
292.000000
20
297.000000
30
0.0
11
292.000000
21
348.000000
31
0.0
0
LINE
8
LINES
10
371.000000
20
432.000000
30
0.0
11
321.000000
21
432.000000
31
0.0
0
LINE
8
LINES
10
542.000000
20
214.000000
30
0.0
11
593.000000
21
214.000000
31
0.0
0
LINE
8
LINES
10
337.000000
20
348.000000
30
0.0
11
337.000000
21
299.000000
31
0.0
0
LINE
8
LINES
10
420.000000
20
51.000000
30
0.0
11
420.000000
21
1.000000
31
0.0
0
LINE
8
LINES
10
596.000000
20
131.000000
30
0.0
11
547.000000
21
131.000000
31
0.0
0
LINE
8
LINES
10
456.000000
20
131.000000
30
0.0
11
406.000000
21
131.000000
31
0.0
0
LINE
8
LINES
10
41.000000
20
257.000000
30
0.0
11
41.000000
21
208.000000
31
0.0
0
LINE
8
LINES
10
817.000000
20
41.000000
30
0.0
11
865.000000
21
32.000000
31
0.0
0
LINE
8
LINES
10
739.000000
20
398.000000
30
0.0
11
691.000000
21
398.000000
31
0.0
0
LINE
8
LINES
10
707.000000
20
214.000000
30
0.0
11
756.000000
21
214.000000
31
0.0
0
LINE
8
LINES
10
371.000000
20
456.000000
30
0.0
11
323.000000
21
456.000000
31
0.0
0
LINE
8
LINES
10
441.000000
20
403.000000
30
0.0
11
489.000000
21
403.000000
31
0.0
0
LINE
8
LINES
10
928.000000
20
313.000000
30
0.0
11
928.000000
21
361.000000
31
0.0
0
LINE
8
LINES
10
366.000000
20
403.000000
30
0.0
11
414.000000
21
403.000000
31
0.0
0
LINE
8
LINES
10
91.000000
20
398.000000
30
0.0
11
41.000000
21
398.000000
31
0.0
0
LINE
8
LINES
10
822.000000
20
264.000000
30
0.0
11
817.000000
21
217.000000
31
0.0
0
LINE
8
LINES
10
782.000000
20
428.000000
30
0.0
11
736.000000
21
428.000000
31
0.0
0
LINE
8
LINES
10
542.000000
20
454.000000
30
0.0
11
496.000000
21
454.000000
31
0.0
0
LINE
8
LINES
10
446.000000
20
456.000000
30
0.0
11
494.000000
21
456.000000
31
0.0
0
LINE
8
LINES
10
232.000000
20
387.000000
30
0.0
11
184.000000
21
387.000000
31
0.0
0
LINE
8
LINES
10
1020.000000
20
505.000000
30
0.0
11
1020.000000
21
457.000000
31
0.0
0
LINE
8
LINES
10
184.000000
20
201.000000
30
0.0
11
232.000000
21
201.000000
31
0.0
0
LINE
8
LINES
10
656.000000
20
182.000000
30
0.0
11
702.000000
21
182.000000
31
0.0
0
LINE
8
LINES
10
892.000000
20
211.000000
30
0.0
11
846.000000
21
211.000000
31
0.0
0
LINE
8
LINES
10
222.000000
20
94.000000
30
0.0
11
267.000000
21
108.000000
31
0.0
0
LINE
8
LINES
10
1001.000000
20
265.000000
30
0.0
11
964.000000
21
236.000000
31
0.0
0
LINE
8
LINES
10
892.000000
20
89.000000
30
0.0
11
876.000000
21
46.000000
31
0.0
0
LINE
8
LINES
10
289.000000
20
65.000000
30
0.0
11
246.000000
21
48.000000
31
0.0
0
LINE
8
LINES
10
137.000000
20
502.000000
30
0.0
11
184.000000
21
496.000000
31
0.0
0
LINE
8
LINES
10
958.000000
20
436.000000
30
0.0
11
1006.000000
21
436.000000
31
0.0
0
LINE
8
LINES
10
451.000000
20
283.000000
30
0.0
11
451.000000
21
329.000000
31
0.0
0
LINE
8
LINES
10
592.000000
20
217.000000
30
0.0
11
592.000000
21
264.000000
31
0.0
0
LINE
8
LINES
10
288.000000
20
424.000000
30
0.0
11
334.000000
21
424.000000
31
0.0
0
LINE
8
LINES
10
443.000000
20
299.000000
30
0.0
11
443.000000
21
345.000000
31
0.0
0
LINE
8
LINES
10
371.000000
20
353.000000
30
0.0
11
371.000000
21
307.000000
31
0.0
0
LINE
8
LINES
10
126.000000
20
345.000000
30
0.0
11
126.000000
21
299.000000
31
0.0
0
LINE
8
LINES
10
446.000000
20
353.000000
30
0.0
11
446.000000
21
307.000000
31
0.0
0
LINE
8
LINES
10
523.000000
20
353.000000
30
0.0
11
523.000000
21
307.000000
31
0.0
0
LINE
8
LINES
10
878.000000
20
121.000000
30
0.0
11
878.000000
21
166.000000
31
0.0
0
LINE
8
LINES
10
673.000000
20
353.000000
30
0.0
11
673.000000
21
307.000000
31
0.0
0
LINE
8
LINES
10
598.000000
20
353.000000
30
0.0
11
598.000000
21
307.000000
31
0.0
0
LINE
8
LINES
10
444.000000
20
424.000000
30
0.0
11
491.000000
21
424.000000
31
0.0
0
LINE
8
LINES
10
660.000000
20
432.000000
30
0.0
11
616.000000
21
432.000000
31
0.0
0
LINE
8
LINES
10
844.000000
20
217.000000
30
0.0
11
844.000000
21
262.000000
31
0.0
0
LINE
8
LINES
10
441.000000
20
220.000000
30
0.0
11
441.000000
21
265.000000
31
0.0
0
LINE
8
LINES
10
926.000000
20
156.000000
30
0.0
11
926.000000
21
201.000000
31
0.0
0
LINE
8
LINES
10
180.000000
20
387.000000
30
0.0
11
136.000000
21
387.000000
31
0.0
0
LINE
8
LINES
10
968.000000
20
323.000000
30
0.0
11
968.000000
21
369.000000
31
0.0
0
LINE
8
LINES
10
521.000000
20
403.000000
30
0.0
11
566.000000
21
403.000000
31
0.0
0
LINE
8
LINES
10
124.000000
20
374.000000
30
0.0
11
169.000000
21
374.000000
31
0.0
0
LINE
8
LINES
10
126.000000
20
264.000000
30
0.0
11
126.000000
21
219.000000
31
0.0
0
LINE
8
LINES
10
414.000000
20
262.000000
30
0.0
11
414.000000
21
217.000000
31
0.0
0
LINE
8
LINES
10
41.000000
20
396.000000
30
0.0
11
86.000000
21
396.000000
31
0.0
0
LINE
8
LINES
10
708.000000
20
345.000000
30
0.0
11
708.000000
21
300.000000
31
0.0
0
LINE
8
LINES
10
633.000000
20
345.000000
30
0.0
11
633.000000
21
300.000000
31
0.0
0
LINE
8
LINES
10
644.000000
20
265.000000
30
0.0
11
644.000000
21
222.000000
31
0.0
0
LINE
8
LINES
10
808.000000
20
360.000000
30
0.0
11
851.000000
21
360.000000
31
0.0
0
LINE
8
LINES
10
241.000000
20
113.000000
30
0.0
11
241.000000
21
156.000000
31
0.0
0
LINE
8
LINES
10
297.000000
20
350.000000
30
0.0
11
297.000000
21
307.000000
31
0.0
0
LINE
8
LINES
10
174.000000
20
374.000000
30
0.0
11
217.000000
21
374.000000
31
0.0
0
LINE
8
LINES
10
264.000000
20
342.000000
30
0.0
11
264.000000
21
299.000000
31
0.0
0
LINE
8
LINES
10
940.000000
20
246.000000
30
0.0
11
940.000000
21
289.000000
31
0.0
0
LINE
8
LINES
10
92.000000
20
331.000000
30
0.0
11
92.000000
21
374.000000
31
0.0
0
LINE
8
LINES
10
356.000000
20
504.000000
30
0.0
11
313.000000
21
504.000000
31
0.0
0
LINE
8
LINES
10
264.000000
20
262.000000
30
0.0
11
264.000000
21
219.000000
31
0.0
0
LINE
8
LINES
10
748.000000
20
337.000000
30
0.0
11
748.000000
21
292.000000
31
0.0
0
LINE
8
LINES
10
937.000000
20
203.000000
30
0.0
11
937.000000
21
158.000000
31
0.0
0
LINE
8
LINES
10
232.000000
20
417.000000
30
0.0
11
188.000000
21
417.000000
31
0.0
0
LINE
8
LINES
10
232.000000
20
406.000000
30
0.0
11
188.000000
21
406.000000
31
0.0
0
LINE
8
LINES
10
188.000000
20
404.000000
30
0.0
11
232.000000
21
404.000000
31
0.0
0
LINE
8
LINES
10
945.000000
20
358.000000
30
0.0
11
945.000000
21
313.000000
31
0.0
0
LINE
8
LINES
10
110.000000
20
169.000000
30
0.0
11
110.000000
21
126.000000
31
0.0
0
LINE
8
LINES
10
366.000000
20
220.000000
30
0.0
11
366.000000
21
264.000000
31
0.0
0
LINE
8
LINES
10
547.000000
20
457.000000
30
0.0
11
588.000000
21
449.000000
31
0.0
0
LINE
8
LINES
10
54.000000
20
230.000000
30
0.0
11
97.000000
21
240.000000
31
0.0
0
LINE
8
LINES
10
358.000000
20
438.000000
30
0.0
11
316.000000
21
446.000000
31
0.0
0
LINE
8
LINES
10
227.000000
20
89.000000
30
0.0
11
243.000000
21
49.000000
31
0.0
0
LINE
8
LINES
10
118.000000
20
22.000000
30
0.0
11
156.000000
21
40.000000
31
0.0
0
LINE
8
LINES
10
38.000000
20
387.000000
30
0.0
11
38.000000
21
430.000000
31
0.0
0
LINE
8
LINES
10
291.000000
20
220.000000
30
0.0
11
291.000000
21
262.000000
31
0.0
0
LINE
8
LINES
10
156.000000
20
220.000000
30
0.0
11
156.000000
21
262.000000
31
0.0
0
LINE
8
LINES
10
516.000000
20
220.000000
30
0.0
11
516.000000
21
262.000000
31
0.0
0
LINE
8
LINES
10
134.000000
20
264.000000
30
0.0
11
134.000000
21
222.000000
31
0.0
0
LINE
8
LINES
10
32.000000
20
388.000000
30
0.0
11
32.000000
21
432.000000
31
0.0
0
LINE
8
LINES
10
526.000000
20
1.000000
30
0.0
11
526.000000
21
43.000000
31
0.0
0
LINE
8
LINES
10
403.000000
20
1.000000
30
0.0
11
403.000000
21
43.000000
31
0.0
0
LINE
8
LINES
10
750.000000
20
219.000000
30
0.0
11
750.000000
21
262.000000
31
0.0
0
LINE
8
LINES
10
940.000000
20
161.000000
30
0.0
11
940.000000
21
203.000000
31
0.0
0
LINE
8
LINES
10
334.000000
20
416.000000
30
0.0
11
291.000000
21
416.000000
31
0.0
0
LINE
8
LINES
10
222.000000
20
179.000000
30
0.0
11
180.000000
21
179.000000
31
0.0
0
LINE
8
LINES
10
660.000000
20
134.000000
30
0.0
11
619.000000
21
129.000000
31
0.0
0
LINE
8
LINES
10
1.000000
20
352.000000
30
0.0
11
41.000000
21
352.000000
31
0.0
0
LINE
8
LINES
10
374.000000
20
134.000000
30
0.0
11
332.000000
21
129.000000
31
0.0
0
LINE
8
LINES
10
152.000000
20
128.000000
30
0.0
11
152.000000
21
169.000000
31
0.0
0
LINE
8
LINES
10
572.000000
20
262.000000
30
0.0
11
572.000000
21
222.000000
31
0.0
0
LINE
8
LINES
10
496.000000
20
265.000000
30
0.0
11
496.000000
21
224.000000
31
0.0
0
LINE
8
LINES
10
347.000000
20
265.000000
30
0.0
11
347.000000
21
224.000000
31
0.0
0
LINE
8
LINES
10
420.000000
20
262.000000
30
0.0
11
420.000000
21
222.000000
31
0.0
0
LINE
8
LINES
10
556.000000
20
360.000000
30
0.0
11
596.000000
21
360.000000
31
0.0
0
LINE
8
LINES
10
433.000000
20
6.000000
30
0.0
11
433.000000
21
48.000000
31
0.0
0
LINE
8
LINES
10
403.000000
20
360.000000
30
0.0
11
446.000000
21
360.000000
31
0.0
0
LINE
8
LINES
10
148.000000
20
161.000000
30
0.0
11
148.000000
21
118.000000
31
0.0
0
LINE
8
LINES
10
444.000000
20
265.000000
30
0.0
11
444.000000
21
224.000000
31
0.0
0
LINE
8
LINES
10
252.000000
20
360.000000
30
0.0
11
292.000000
21
360.000000
31
0.0
0
LINE
8
LINES
10
174.000000
20
166.000000
30
0.0
11
174.000000
21
124.000000
31
0.0
0
LINE
8
LINES
10
409.000000
20
396.000000
30
0.0
11
368.000000
21
396.000000
31
0.0
0
LINE
8
LINES
10
561.000000
20
396.000000
30
0.0
11
518.000000
21
396.000000
31
0.0
0
LINE
8
LINES
10
899.000000
20
171.000000
30
0.0
11
899.000000
21
129.000000
31
0.0
0
LINE
8
LINES
10
252.000000
20
204.000000
30
0.0
11
292.000000
21
204.000000
31
0.0
0
LINE
8
LINES
10
561.000000
20
416.000000
30
0.0
11
518.000000
21
416.000000
31
0.0
0
LINE
8
LINES
10
409.000000
20
416.000000
30
0.0
11
368.000000
21
416.000000
31
0.0
0
LINE
8
LINES
10
521.000000
20
422.000000
30
0.0
11
561.000000
21
422.000000
31
0.0
0
LINE
8
LINES
10
324.000000
20
220.000000
30
0.0
11
324.000000
21
262.000000
31
0.0
0
LINE
8
LINES
10
83.000000
20
286.000000
30
0.0
11
83.000000
21
243.000000
31
0.0
0
LINE
8
LINES
10
721.000000
20
262.000000
30
0.0
11
721.000000
21
222.000000
31
0.0
0
LINE
8
LINES
10
158.000000
20
451.000000
30
0.0
11
198.000000
21
451.000000
31
0.0
0
LINE
8
LINES
10
211.000000
20
433.000000
30
0.0
11
251.000000
21
433.000000
31
0.0
0
LINE
8
LINES
10
491.000000
20
492.000000
30
0.0
11
531.000000
21
492.000000
31
0.0
0
LINE
8
LINES
10
926.000000
20
243.000000
30
0.0
11
926.000000
21
283.000000
31
0.0
0
LINE
8
LINES
10
569.000000
20
436.000000
30
0.0
11
569.000000
21
396.000000
31
0.0
0
LINE
8
LINES
10
44.000000
20
374.000000
30
0.0
11
83.000000
21
374.000000
31
0.0
0
LINE
8
LINES
10
166.000000
20
268.000000
30
0.0
11
166.000000
21
228.000000
31
0.0
0
LINE
8
LINES
10
918.000000
20
188.000000
30
0.0
11
918.000000
21
147.000000
31
0.0
0
LINE
8
LINES
10
211.000000
20
435.000000
30
0.0
11
171.000000
21
435.000000
31
0.0
0
LINE
8
LINES
10
294.000000
20
8.000000
30
0.0
11
294.000000
21
48.000000
31
0.0
0
LINE
8
LINES
10
220.000000
20
92.000000
30
0.0
11
180.000000
21
92.000000
31
0.0
0
LINE
8
LINES
10
329.000000
20
360.000000
30
0.0
11
369.000000
21
360.000000
31
0.0
0
LINE
8
LINES
10
632.000000
20
360.000000
30
0.0
11
672.000000
21
360.000000
31
0.0
0
LINE
8
LINES
10
481.000000
20
360.000000
30
0.0
11
521.000000
21
360.000000
31
0.0
0
LINE
8
LINES
10
91.000000
20
163.000000
30
0.0
11
91.000000
21
124.000000
31
0.0
0
LINE
8
LINES
10
406.000000
20
267.000000
30
0.0
11
446.000000
21
267.000000
31
0.0
0
LINE
8
LINES
10
388.000000
20
502.000000
30
0.0
11
388.000000
21
462.000000
31
0.0
0
LINE
8
LINES
10
142.000000
20
395.000000
30
0.0
11
182.000000
21
395.000000
31
0.0
0
LINE
8
LINES
10
489.000000
20
259.000000
30
0.0
11
489.000000
21
219.000000
31
0.0
0
LINE
8
LINES
10
80.000000
20
347.000000
30
0.0
11
80.000000
21
307.000000
31
0.0
0
LINE
8
LINES
10
78.000000
20
387.000000
30
0.0
11
41.000000
21
387.000000
31
0.0
0
LINE
8
LINES
10
67.000000
20
433.000000
30
0.0
11
105.000000
21
433.000000
31
0.0
0
LINE
8
LINES
10
334.000000
20
460.000000
30
0.0
11
372.000000
21
460.000000
31
0.0
0
LINE
8
LINES
10
30.000000
20
454.000000
30
0.0
11
68.000000
21
454.000000
31
0.0
0
LINE
8
LINES
10
272.000000
20
262.000000
30
0.0
11
272.000000
21
224.000000
31
0.0
0
LINE
8
LINES
10
115.000000
20
158.000000
30
0.0
11
115.000000
21
121.000000
31
0.0
0
LINE
8
LINES
10
257.000000
20
268.000000
30
0.0
11
296.000000
21
268.000000
31
0.0
0
LINE
8
LINES
10
267.000000
20
436.000000
30
0.0
11
267.000000
21
398.000000
31
0.0
0
LINE
8
LINES
10
483.000000
20
396.000000
30
0.0
11
444.000000
21
396.000000
31
0.0
0
LINE
8
LINES
10
96.000000
20
126.000000
30
0.0
11
96.000000
21
166.000000
31
0.0
0
LINE
8
LINES
10
851.000000
20
344.000000
30
0.0
11
851.000000
21
305.000000
31
0.0
0
LINE
8
LINES
10
947.000000
20
318.000000
30
0.0
11
947.000000
21
358.000000
31
0.0
0
LINE
8
LINES
10
908.000000
20
222.000000
30
0.0
11
940.000000
21
244.000000
31
0.0
0
LINE
8
LINES
10
329.000000
20
436.000000
30
0.0
11
366.000000
21
436.000000
31
0.0
0
LINE
8
LINES
10
726.000000
20
428.000000
30
0.0
11
688.000000
21
428.000000
31
0.0
0
LINE
8
LINES
10
160.000000
20
262.000000
30
0.0
11
160.000000
21
224.000000
31
0.0
0
LINE
8
LINES
10
873.000000
20
163.000000
30
0.0
11
873.000000
21
126.000000
31
0.0
0
LINE
8
LINES
10
1014.000000
20
505.000000
30
0.0
11
1014.000000
21
467.000000
31
0.0
0
LINE
8
LINES
10
688.000000
20
430.000000
30
0.0
11
726.000000
21
430.000000
31
0.0
0
LINE
8
LINES
10
24.000000
20
435.000000
30
0.0
11
62.000000
21
435.000000
31
0.0
0
LINE
8
LINES
10
449.000000
20
12.000000
30
0.0
11
449.000000
21
51.000000
31
0.0
0
LINE
8
LINES
10
558.000000
20
267.000000
30
0.0
11
596.000000
21
267.000000
31
0.0
0
LINE
8
LINES
10
369.000000
20
262.000000
30
0.0
11
369.000000
21
224.000000
31
0.0
0
LINE
8
LINES
10
280.000000
20
131.000000
30
0.0
11
243.000000
21
121.000000
31
0.0
0
LINE
8
LINES
10
369.000000
20
424.000000
30
0.0
11
406.000000
21
424.000000
31
0.0
0
LINE
8
LINES
10
292.000000
20
403.000000
30
0.0
11
331.000000
21
403.000000
31
0.0
0
LINE
8
LINES
10
670.000000
20
262.000000
30
0.0
11
670.000000
21
224.000000
31
0.0
0
LINE
8
LINES
10
483.000000
20
416.000000
30
0.0
11
446.000000
21
416.000000
31
0.0
0
LINE
8
LINES
10
120.000000
20
345.000000
30
0.0
11
120.000000
21
307.000000
31
0.0
0
LINE
8
LINES
10
94.000000
20
304.000000
30
0.0
11
94.000000
21
267.000000
31
0.0
0
LINE
8
LINES
10
790.000000
20
209.000000
30
0.0
11
828.000000
21
209.000000
31
0.0
0
LINE
8
LINES
10
43.000000
20
193.000000
30
0.0
11
8.000000
21
179.000000
31
0.0
0
LINE
8
LINES
10
318.000000
20
17.000000
30
0.0
11
352.000000
21
30.000000
31
0.0
0
LINE
8
LINES
10
740.000000
20
300.000000
30
0.0
11
745.000000
21
336.000000
31
0.0
0
LINE
8
LINES
10
350.000000
20
20.000000
30
0.0
11
318.000000
21
6.000000
31
0.0
0
LINE
8
LINES
10
278.000000
20
124.000000
30
0.0
11
243.000000
21
112.000000
31
0.0
0
LINE
8
LINES
10
897.000000
20
214.000000
30
0.0
11
860.000000
21
214.000000
31
0.0
0
LINE
8
LINES
10
227.000000
20
1.000000
30
0.0
11
227.000000
21
36.000000
31
0.0
0
LINE
8
LINES
10
595.000000
20
214.000000
30
0.0
11
632.000000
21
214.000000
31
0.0
0
LINE
8
LINES
10
958.000000
20
222.000000
30
0.0
11
958.000000
21
187.000000
31
0.0
0
LINE
8
LINES
10
331.000000
20
396.000000
30
0.0
11
294.000000
21
396.000000
31
0.0
0
LINE
8
LINES
10
400.000000
20
219.000000
30
0.0
11
400.000000
21
256.000000
31
0.0
0
LINE
8
LINES
10
964.000000
20
232.000000
30
0.0
11
993.000000
21
254.000000
31
0.0
0
LINE
8
LINES
10
960.000000
20
382.000000
30
0.0
11
995.000000
21
385.000000
31
0.0
0
LINE
8
LINES
10
964.000000
20
196.000000
30
0.0
11
964.000000
21
232.000000
31
0.0
0
LINE
8
LINES
10
846.000000
20
163.000000
30
0.0
11
843.000000
21
129.000000
31
0.0
0
LINE
8
LINES
10
819.000000
20
158.000000
30
0.0
11
819.000000
21
124.000000
31
0.0
0
LINE
8
LINES
10
502.000000
20
446.000000
30
0.0
11
537.000000
21
446.000000
31
0.0
0
LINE
8
LINES
10
219.000000
20
192.000000
30
0.0
11
184.000000
21
192.000000
31
0.0
0
LINE
8
LINES
10
339.000000
20
262.000000
30
0.0
11
339.000000
21
227.000000
31
0.0
0
LINE
8
LINES
10
145.000000
20
123.000000
30
0.0
11
145.000000
21
158.000000
31
0.0
0
LINE
8
LINES
10
273.000000
20
1.000000
30
0.0
11
273.000000
21
35.000000
31
0.0
0
LINE
8
LINES
10
707.000000
20
360.000000
30
0.0
11
742.000000
21
360.000000
31
0.0
0
LINE
8
LINES
10
492.000000
20
433.000000
30
0.0
11
492.000000
21
398.000000
31
0.0
0
LINE
8
LINES
10
366.000000
20
355.000000
30
0.0
11
332.000000
21
355.000000
31
0.0
0
LINE
8
LINES
10
134.000000
20
404.000000
30
0.0
11
169.000000
21
404.000000
31
0.0
0
LINE
8
LINES
10
387.000000
20
1.000000
30
0.0
11
387.000000
21
35.000000
31
0.0
0
LINE
8
LINES
10
417.000000
20
433.000000
30
0.0
11
417.000000
21
398.000000
31
0.0
0
LINE
8
LINES
10
636.000000
20
214.000000
30
0.0
11
670.000000
21
214.000000
31
0.0
0
LINE
8
LINES
10
113.000000
20
361.000000
30
0.0
11
148.000000
21
361.000000
31
0.0
0
LINE
8
LINES
10
513.000000
20
1.000000
30
0.0
11
513.000000
21
35.000000
31
0.0
0
LINE
8
LINES
10
900.000000
20
131.000000
30
0.0
11
900.000000
21
166.000000
31
0.0
0
LINE
8
LINES
10
691.000000
20
393.000000
30
0.0
11
726.000000
21
393.000000
31
0.0
0
LINE
8
LINES
10
326.000000
20
425.000000
30
0.0
11
291.000000
21
425.000000
31
0.0
0
LINE
8
LINES
10
945.000000
20
176.000000
30
0.0
11
945.000000
21
211.000000
31
0.0
0
LINE
8
LINES
10
486.000000
20
374.000000
30
0.0
11
521.000000
21
374.000000
31
0.0
0
LINE
8
LINES
10
41.000000
20
172.000000
30
0.0
11
41.000000
21
137.000000
31
0.0
0
LINE
8
LINES
10
132.000000
20
227.000000
30
0.0
11
132.000000
21
262.000000
31
0.0
0
LINE
8
LINES
10
569.000000
20
182.000000
30
0.0
11
534.000000
21
182.000000
31
0.0
0
LINE
8
LINES
10
841.000000
20
182.000000
30
0.0
11
876.000000
21
182.000000
31
0.0
0
LINE
8
LINES
10
928.000000
20
105.000000
30
0.0
11
950.000000
21
131.000000
31
0.0
0
LINE
8
LINES
10
324.000000
20
321.000000
30
0.0
11
324.000000
21
355.000000
31
0.0
0
LINE
8
LINES
10
371.000000
20
432.000000
30
0.0
11
403.000000
21
432.000000
31
0.0
0
LINE
8
LINES
10
796.000000
20
497.000000
30
0.0
11
830.000000
21
497.000000
31
0.0
0
LINE
8
LINES
10
204.000000
20
227.000000
30
0.0
11
204.000000
21
262.000000
31
0.0
0
LINE
8
LINES
10
801.000000
20
219.000000
30
0.0
11
801.000000
21
252.000000
31
0.0
0
LINE
8
LINES
10
782.000000
20
476.000000
30
0.0
11
748.000000
21
476.000000
31
0.0
0
LINE
8
LINES
10
516.000000
20
435.000000
30
0.0
11
483.000000
21
435.000000
31
0.0
0
LINE
8
LINES
10
929.000000
20
401.000000
30
0.0
11
929.000000
21
433.000000
31
0.0
0
LINE
8
LINES
10
796.000000
20
105.000000
30
0.0
11
761.000000
21
105.000000
31
0.0
0
LINE
8
LINES
10
291.000000
20
355.000000
30
0.0
11
257.000000
21
358.000000
31
0.0
0
LINE
8
LINES
10
878.000000
20
228.000000
30
0.0
11
878.000000
21
262.000000
31
0.0
0
LINE
8
LINES
10
204.000000
20
1.000000
30
0.0
11
204.000000
21
33.000000
31
0.0
0
LINE
8
LINES
10
518.000000
20
355.000000
30
0.0
11
483.000000
21
355.000000
31
0.0
0
LINE
8
LINES
10
556.000000
20
425.000000
30
0.0
11
521.000000
21
425.000000
31
0.0
0
LINE
8
LINES
10
403.000000
20
425.000000
30
0.0
11
371.000000
21
425.000000
31
0.0
0
LINE
8
LINES
10
172.000000
20
108.000000
30
0.0
11
137.000000
21
108.000000
31
0.0
0
LINE
8
LINES
10
860.000000
20
395.000000
30
0.0
11
894.000000
21
395.000000
31
0.0
0
LINE
8
LINES
10
944.000000
20
209.000000
30
0.0
11
944.000000
21
176.000000
31
0.0
0
LINE
8
LINES
10
214.000000
20
180.000000
30
0.0
11
180.000000
21
180.000000
31
0.0
0
LINE
8
LINES
10
217.000000
20
206.000000
30
0.0
11
184.000000
21
206.000000
31
0.0
0
LINE
8
LINES
10
662.000000
20
390.000000
30
0.0
11
627.000000
21
390.000000
31
0.0
0
LINE
8
LINES
10
681.000000
20
462.000000
30
0.0
11
713.000000
21
462.000000
31
0.0
0
LINE
8
LINES
10
452.000000
20
468.000000
30
0.0
11
486.000000
21
468.000000
31
0.0
0
LINE
8
LINES
10
288.000000
20
392.000000
30
0.0
11
288.000000
21
424.000000
31
0.0
0
LINE
8
LINES
10
769.000000
20
339.000000
30
0.0
11
769.000000
21
371.000000
31
0.0
0
LINE
8
LINES
10
844.000000
20
355.000000
30
0.0
11
812.000000
21
355.000000
31
0.0
0
LINE
8
LINES
10
236.000000
20
144.000000
30
0.0
11
236.000000
21
112.000000
31
0.0
0
LINE
8
LINES
10
892.000000
20
105.000000
30
0.0
11
860.000000
21
105.000000
31
0.0
0
LINE
8
LINES
10
316.000000
20
49.000000
30
0.0
11
316.000000
21
17.000000
31
0.0
0
LINE
8
LINES
10
910.000000
20
425.000000
30
0.0
11
878.000000
21
425.000000
31
0.0
0
LINE
8
LINES
10
716.000000
20
388.000000
30
0.0
11
684.000000
21
388.000000
31
0.0
0
LINE
8
LINES
10
412.000000
20
374.000000
30
0.0
11
446.000000
21
374.000000
31
0.0
0
LINE
8
LINES
10
78.000000
20
499.000000
30
0.0
11
110.000000
21
499.000000
31
0.0
0
LINE
8
LINES
10
184.000000
20
425.000000
30
0.0
11
217.000000
21
425.000000
31
0.0
0
LINE
8
LINES
10
892.000000
20
112.000000
30
0.0
11
860.000000
21
112.000000
31
0.0
0
LINE
8
LINES
10
371.000000
20
395.000000
30
0.0
11
403.000000
21
395.000000
31
0.0
0
LINE
8
LINES
10
8.000000
20
372.000000
30
0.0
11
41.000000
21
372.000000
31
0.0
0
LINE
8
LINES
10
220.000000
20
396.000000
30
0.0
11
188.000000
21
396.000000
31
0.0
0
LINE
8
LINES
10
182.000000
20
342.000000
30
0.0
11
182.000000
21
308.000000
31
0.0
0
LINE
8
LINES
10
132.000000
20
308.000000
30
0.0
11
132.000000
21
342.000000
31
0.0
0
LINE
8
LINES
10
916.000000
20
441.000000
30
0.0
11
945.000000
21
454.000000
31
0.0
0
LINE
8
LINES
10
668.000000
20
230.000000
30
0.0
11
668.000000
21
262.000000
31
0.0
0
LINE
8
LINES
10
553.000000
20
464.000000
30
0.0
11
585.000000
21
464.000000
31
0.0
0
LINE
8
LINES
10
488.000000
20
464.000000
30
0.0
11
521.000000
21
464.000000
31
0.0
0
LINE
8
LINES
10
742.000000
20
384.000000
30
0.0
11
742.000000
21
352.000000
31
0.0
0
LINE
8
LINES
10
966.000000
20
268.000000
30
0.0
11
966.000000
21
300.000000
31
0.0
0
LINE
8
LINES
10
441.000000
20
355.000000
30
0.0
11
409.000000
21
355.000000
31
0.0
0
LINE
8
LINES
10
774.000000
20
83.000000
30
0.0
11
806.000000
21
83.000000
31
0.0
0
LINE
8
LINES
10
707.000000
20
267.000000
30
0.0
11
739.000000
21
267.000000
31
0.0
0
LINE
8
LINES
10
448.000000
20
374.000000
30
0.0
11
481.000000
21
374.000000
31
0.0
0
LINE
8
LINES
10
478.000000
20
425.000000
30
0.0
11
446.000000
21
425.000000
31
0.0
0
LINE
8
LINES
10
294.000000
20
262.000000
30
0.0
11
294.000000
21
230.000000
31
0.0
0
LINE
8
LINES
10
217.000000
20
427.000000
30
0.0
11
184.000000
21
427.000000
31
0.0
0
LINE
8
LINES
10
483.000000
20
214.000000
30
0.0
11
516.000000
21
214.000000
31
0.0
0
LINE
8
LINES
10
228.000000
20
107.000000
30
0.0
11
196.000000
21
107.000000
31
0.0
0
LINE
8
LINES
10
516.000000
20
216.000000
30
0.0
11
483.000000
21
216.000000
31
0.0
0
LINE
8
LINES
10
523.000000
20
414.000000
30
0.0
11
556.000000
21
414.000000
31
0.0
0
LINE
8
LINES
10
592.000000
20
216.000000
30
0.0
11
558.000000
21
216.000000
31
0.0
0
LINE
8
LINES
10
326.000000
20
406.000000
30
0.0
11
294.000000
21
406.000000
31
0.0
0
LINE
8
LINES
10
366.000000
20
216.000000
30
0.0
11
332.000000
21
216.000000
31
0.0
0
LINE
8
LINES
10
171.000000
20
417.000000
30
0.0
11
137.000000
21
417.000000
31
0.0
0
LINE
8
LINES
10
604.000000
20
321.000000
30
0.0
11
604.000000
21
353.000000
31
0.0
0
LINE
8
LINES
10
403.000000
20
44.000000
30
0.0
11
372.000000
21
30.000000
31
0.0
0
LINE
8
LINES
10
259.000000
20
505.000000
30
0.0
11
227.000000
21
500.000000
31
0.0
0
LINE
8
LINES
10
296.000000
20
67.000000
30
0.0
11
305.000000
21
97.000000
31
0.0
0
LINE
8
LINES
10
409.000000
20
438.000000
30
0.0
11
438.000000
21
454.000000
31
0.0
0
LINE
8
LINES
10
577.000000
20
446.000000
30
0.0
11
547.000000
21
452.000000
31
0.0
0
LINE
8
LINES
10
998.000000
20
396.000000
30
0.0
11
966.000000
21
393.000000
31
0.0
0
LINE
8
LINES
10
617.000000
20
464.000000
30
0.0
11
649.000000
21
464.000000
31
0.0
0
LINE
8
LINES
10
124.000000
20
156.000000
30
0.0
11
124.000000
21
126.000000
31
0.0
0
LINE
8
LINES
10
742.000000
20
321.000000
30
0.0
11
742.000000
21
352.000000
31
0.0
0
LINE
8
LINES
10
584.000000
20
465.000000
30
0.0
11
553.000000
21
465.000000
31
0.0
0
LINE
8
LINES
10
819.000000
20
428.000000
30
0.0
11
851.000000
21
428.000000
31
0.0
0
LINE
8
LINES
10
254.000000
20
32.000000
30
0.0
11
254.000000
21
1.000000
31
0.0
0
LINE
8
LINES
10
595.000000
20
262.000000
30
0.0
11
595.000000
21
230.000000
31
0.0
0
LINE
8
LINES
10
174.000000
20
94.000000
30
0.0
11
142.000000
21
94.000000
31
0.0
0
LINE
8
LINES
10
843.000000
20
214.000000
30
0.0
11
812.000000
21
214.000000
31
0.0
0
LINE
8
LINES
10
108.000000
20
432.000000
30
0.0
11
108.000000
21
401.000000
31
0.0
0
LINE
8
LINES
10
118.000000
20
164.000000
30
0.0
11
148.000000
21
164.000000
31
0.0
0
LINE
8
LINES
10
553.000000
20
406.000000
30
0.0
11
523.000000
21
406.000000
31
0.0
0
LINE
8
LINES
10
289.000000
20
216.000000
30
0.0
11
257.000000
21
216.000000
31
0.0
0
LINE
8
LINES
10
441.000000
20
216.000000
30
0.0
11
409.000000
21
216.000000
31
0.0
0
LINE
8
LINES
10
764.000000
20
110.000000
30
0.0
11
796.000000
21
110.000000
31
0.0
0
LINE
8
LINES
10
169.000000
20
398.000000
30
0.0
11
137.000000
21
398.000000
31
0.0
0
LINE
8
LINES
10
945.000000
20
288.000000
30
0.0
11
945.000000
21
257.000000
31
0.0
0
LINE
8
LINES
10
942.000000
20
318.000000
30
0.0
11
942.000000
21
348.000000
31
0.0
0
LINE
8
LINES
10
625.000000
20
267.000000
30
0.0
11
625.000000
21
297.000000
31
0.0
0
LINE
8
LINES
10
1016.000000
20
288.000000
30
0.0
11
1016.000000
21
318.000000
31
0.0
0
LINE
8
LINES
10
846.000000
20
321.000000
30
0.0
11
846.000000
21
353.000000
31
0.0
0
LINE
8
LINES
10
128.000000
20
297.000000
30
0.0
11
158.000000
21
297.000000
31
0.0
0
LINE
8
LINES
10
713.000000
20
465.000000
30
0.0
11
681.000000
21
465.000000
31
0.0
0
LINE
8
LINES
10
649.000000
20
465.000000
30
0.0
11
617.000000
21
465.000000
31
0.0
0
LINE
8
LINES
10
446.000000
20
414.000000
30
0.0
11
478.000000
21
414.000000
31
0.0
0
LINE
8
LINES
10
667.000000
20
216.000000
30
0.0
11
636.000000
21
216.000000
31
0.0
0
LINE
8
LINES
10
371.000000
20
414.000000
30
0.0
11
403.000000
21
414.000000
31
0.0
0
LINE
8
LINES
10
523.000000
20
393.000000
30
0.0
11
553.000000
21
393.000000
31
0.0
0
LINE
8
LINES
10
296.000000
20
414.000000
30
0.0
11
326.000000
21
414.000000
31
0.0
0
LINE
8
LINES
10
403.000000
20
406.000000
30
0.0
11
371.000000
21
406.000000
31
0.0
0
LINE
8
LINES
10
742.000000
20
216.000000
30
0.0
11
710.000000
21
216.000000
31
0.0
0
LINE
8
LINES
10
184.000000
20
137.000000
30
0.0
11
184.000000
21
169.000000
31
0.0
0
LINE
8
LINES
10
561.000000
20
128.000000
30
0.0
11
593.000000
21
128.000000
31
0.0
0
LINE
8
LINES
10
604.000000
20
182.000000
30
0.0
11
572.000000
21
182.000000
31
0.0
0
LINE
8
LINES
10
124.000000
20
208.000000
30
0.0
11
92.000000
21
208.000000
31
0.0
0
LINE
8
LINES
10
801.000000
20
211.000000
30
0.0
11
771.000000
21
211.000000
31
0.0
0
LINE
8
LINES
10
284.000000
20
462.000000
30
0.0
11
313.000000
21
457.000000
31
0.0
0
LINE
8
LINES
10
30.000000
20
163.000000
30
0.0
11
1.000000
21
158.000000
31
0.0
0
LINE
8
LINES
10
72.000000
20
195.000000
30
0.0
11
41.000000
21
192.000000
31
0.0
0
LINE
8
LINES
10
0.000000
20
188.000000
30
0.0
11
30.000000
21
193.000000
31
0.0
0
LINE
8
LINES
10
155.000000
20
323.000000
30
0.0
11
155.000000
21
353.000000
31
0.0
0
LINE
8
LINES
10
833.000000
20
321.000000
30
0.0
11
833.000000
21
352.000000
31
0.0
0
LINE
8
LINES
10
371.000000
20
30.000000
30
0.0
11
371.000000
21
1.000000
31
0.0
0
LINE
8
LINES
10
896.000000
20
396.000000
30
0.0
11
865.000000
21
396.000000
31
0.0
0
LINE
8
LINES
10
169.000000
20
427.000000
30
0.0
11
139.000000
21
427.000000
31
0.0
0
LINE
8
LINES
10
520.000000
20
262.000000
30
0.0
11
520.000000
21
232.000000
31
0.0
0
LINE
8
LINES
10
502.000000
20
30.000000
30
0.0
11
502.000000
21
1.000000
31
0.0
0
LINE
8
LINES
10
158.000000
20
102.000000
30
0.0
11
129.000000
21
102.000000
31
0.0
0
LINE
8
LINES
10
342.000000
20
428.000000
30
0.0
11
342.000000
21
398.000000
31
0.0
0
LINE
8
LINES
10
374.000000
20
243.000000
30
0.0
11
374.000000
21
273.000000
31
0.0
0
LINE
8
LINES
10
478.000000
20
406.000000
30
0.0
11
448.000000
21
406.000000
31
0.0
0
LINE
8
LINES
10
296.000000
20
395.000000
30
0.0
11
326.000000
21
395.000000
31
0.0
0
LINE
8
LINES
10
188.000000
20
414.000000
30
0.0
11
217.000000
21
414.000000
31
0.0
0
LINE
8
LINES
10
163.000000
20
470.000000
30
0.0
11
193.000000
21
470.000000
31
0.0
0
LINE
8
LINES
10
137.000000
20
323.000000
30
0.0
11
137.000000
21
353.000000
31
0.0
0
ENDSEC
0
EOF
