0
SECTION
2
ENTITIES
0
LWPOLYLINE
8
FACADE_OUTLINE
90
4
70
1
10
0.000000
20
0.000000
10
616.000000
20
0.000000
10
616.000000
20
1024.000000
10
0.000000
20
1024.000000
0
LWPOLYLINE
8
WINDOWS
90
4
70
1
10
315.000000
20
18.000000
10
360.000000
20
18.000000
10
360.000000
20
54.000000
10
315.000000
20
54.000000
0
LWPOLYLINE
8
WINDOWS
90
4
70
1
10
252.000000
20
18.000000
10
297.000000
20
18.000000
10
297.000000
20
54.000000
10
252.000000
20
54.000000
0
LWPOLYLINE
8
WINDOWS
90
4
70
1
10
36.000000
20
27.000000
10
108.000000
20
27.000000
10
108.000000
20
63.000000
10
36.000000
20
63.000000
0
LWPOLYLINE
8
WINDOWS
90
4
70
1
10
414.000000
20
288.000000
10
468.000000
20
288.000000
10
468.000000
20
333.000000
10
414.000000
20
333.000000
0
LWPOLYLINE
8
WINDOWS
90
4
70
1
10
369.000000
20
405.000000
10
432.000000
20
405.000000
10
432.000000
20
450.000000
10
369.000000
20
450.000000
0
LWPOLYLINE
8
WINDOWS
90
4
70
1
10
261.000000
20
621.000000
10
342.000000
20
621.000000
10
342.000000
20
675.000000
10
261.000000
20
675.000000
0
LWPOLYLINE
8
WINDOWS
90
4
70
1
10
63.000000
20
630.000000
10
144.000000
20
630.000000
10
144.000000
20
675.000000
10
63.000000
20
675.000000
0
LWPOLYLINE
8
WINDOWS
90
4
70
1
10
540.000000
20
801.000000
10
612.000000
20
801.000000
10
612.000000
20
846.000000
10
540.000000
20
846.000000
0
LWPOLYLINE
8
WINDOWS
90
4
70
1
10
0.000000
20
810.000000
10
63.000000
20
810.000000
10
63.000000
20
846.000000
10
0.000000
20
846.000000
0
LWPOLYLINE
8
WINDOWS
90
4
70
1
10
477.000000
20
810.000000
10
522.000000
20
810.000000
10
522.000000
20
846.000000
10
477.000000
20
846.000000
0
LWPOLYLINE
8
WINDOWS
90
4
70
1
10
72.000000
20
810.000000
10
126.000000
20
810.000000
10
126.000000
20
846.000000
10
72.000000
20
846.000000
0
LWPOLYLINE
8
WINDOWS
90
4
70
1
10
144.000000
20
810.000000
10
261.000000
20
810.000000
10
261.000000
20
846.000000
10
144.000000
20
846.000000
0
LWPOLYLINE
8
WINDOWS
90
4
70
1
10
261.000000
20
810.000000
10
324.000000
20
810.000000
10
324.000000
20
855.000000
10
261.000000
20
855.000000
0
LWPOLYLINE
8
WINDOWS
90
4
70
1
10
315.000000
20
810.000000
10
405.000000
20
810.000000
10
405.000000
20
855.000000
10
315.000000
20
855.000000
0
LWPOLYLINE
8
WINDOWS
90
4
70
1
10
405.000000
20
810.000000
10
459.000000
20
810.000000
10
459.000000
20
846.000000
10
405.000000
20
846.000000
0
LWPOLYLINE
8
WINDOWS
90
4
70
1
10
198.000000
20
864.000000
10
270.000000
20
864.000000
10
270.000000
20
909.000000
10
198.000000
20
909.000000
0
LWPOLYLINE
8
WINDOWS
90
4
70
1
10
468.000000
20
864.000000
10
522.000000
20
864.000000
10
522.000000
20
909.000000
10
468.000000
20
909.000000
0
LWPOLYLINE
8
WINDOWS
90
4
70
1
10
117.000000
20
936.000000
10
225.000000
20
936.000000
10
225.000000
20
1008.000000
10
117.000000
20
1008.000000
0
LWPOLYLINE
8
WINDOWS
90
4
70
1
10
540.000000
20
936.000000
10
612.000000
20
936.000000
10
612.000000
20
1008.000000
10
540.000000
20
1008.000000
0
LWPOLYLINE
8
WINDOWS
90
4
70
1
10
342.000000
20
936.000000
10
396.000000
20
936.000000
10
396.000000
20
1008.000000
10
342.000000
20
1008.000000
0
LWPOLYLINE
8
WINDOWS
90
4
70
1
10
387.000000
20
936.000000
10
468.000000
20
936.000000
10
468.000000
20
1017.000000
10
387.000000
20
1017.000000
0
LWPOLYLINE
8
WINDOWS
90
4
70
1
10
468.000000
20
936.000000
10
540.000000
20
936.000000
10
540.000000
20
1008.000000
10
468.000000
20
1008.000000
0
LWPOLYLINE
8
WINDOWS
90
4
70
1
10
153.000000
20
936.000000
10
189.000000
20
936.000000
10
189.000000
20
981.000000
10
153.000000
20
981.000000
0
LWPOLYLINE
8
DOORS
90
4
70
1
10
27.000000
20
918.000000
10
63.000000
20
918.000000
10
63.000000
20
1017.000000
10
27.000000
20
1017.000000
0
LINE
8
LINES
10
0.000000
20
729.000000
30
0.0
11
612.000000
21
729.000000
31
0.0
0
LINE
8
LINES
10
612.000000
20
621.000000
30
0.0
11
0.000000
21
621.000000
31
0.0
0
LINE
8
LINES
10
612.000000
20
801.000000
30
0.0
11
0.000000
21
801.000000
31
0.0
0
LINE
8
LINES
10
612.000000
20
729.000000
30
0.0
11
0.000000
21
729.000000
31
0.0
0
LINE
8
LINES
10
612.000000
20
855.000000
30
0.0
11
0.000000
21
855.000000
31
0.0
0
LINE
8
LINES
10
0.000000
20
855.000000
30
0.0
11
612.000000
21
855.000000
31
0.0
0
LINE
8
LINES
10
0.000000
20
810.000000
30
0.0
11
594.000000
21
810.000000
31
0.0
0
LINE
8
LINES
10
9.000000
20
135.000000
30
0.0
11
594.000000
21
135.000000
31
0.0
0
LINE
8
LINES
10
72.000000
20
918.000000
30
0.0
11
612.000000
21
918.000000
31
0.0
0
LINE
8
LINES
10
0.000000
20
792.000000
30
0.0
11
495.000000
21
792.000000
31
0.0
0
LINE
8
LINES
10
0.000000
20
792.000000
30
0.0
11
486.000000
21
792.000000
31
0.0
0
LINE
8
LINES
10
135.000000
20
513.000000
30
0.0
11
612.000000
21
513.000000
31
0.0
0
LINE
8
LINES
10
378.000000
20
720.000000
30
0.0
11
0.000000
21
720.000000
31
0.0
0
LINE
8
LINES
10
297.000000
20
918.000000
30
0.0
11
612.000000
21
918.000000
31
0.0
0
LINE
8
LINES
10
81.000000
20
126.000000
30
0.0
11
396.000000
21
126.000000
31
0.0
0
LINE
8
LINES
10
351.000000
20
792.000000
30
0.0
11
45.000000
21
792.000000
31
0.0
0
LINE
8
LINES
10
0.000000
20
864.000000
30
0.0
11
297.000000
21
864.000000
31
0.0
0
LINE
8
LINES
10
612.000000
20
927.000000
30
0.0
11
333.000000
21
927.000000
31
0.0
0
LINE
8
LINES
10
333.000000
20
927.000000
30
0.0
11
603.000000
21
927.000000
31
0.0
0
LINE
8
LINES
10
270.000000
20
675.000000
30
0.0
11
9.000000
21
675.000000
31
0.0
0
LINE
8
LINES
10
198.000000
20
54.000000
30
0.0
11
468.000000
21
54.000000
31
0.0
0
LINE
8
LINES
10
540.000000
20
675.000000
30
0.0
11
306.000000
21
675.000000
31
0.0
0
LINE
8
LINES
10
297.000000
20
873.000000
30
0.0
11
540.000000
21
873.000000
31
0.0
0
LINE
8
LINES
10
306.000000
20
936.000000
30
0.0
11
522.000000
21
936.000000
31
0.0
0
LINE
8
LINES
10
396.000000
20
117.000000
30
0.0
11
603.000000
21
117.000000
31
0.0
0
LINE
8
LINES
10
270.000000
20
396.000000
30
0.0
11
468.000000
21
396.000000
31
0.0
0
LINE
8
LINES
10
72.000000
20
522.000000
30
0.0
11
270.000000
21
522.000000
31
0.0
0
LINE
8
LINES
10
261.000000
20
513.000000
30
0.0
11
72.000000
21
513.000000
31
0.0
0
LINE
8
LINES
10
279.000000
20
288.000000
30
0.0
11
468.000000
21
288.000000
31
0.0
0
LINE
8
LINES
10
72.000000
20
405.000000
30
0.0
11
261.000000
21
405.000000
31
0.0
0
LINE
8
LINES
10
270.000000
20
288.000000
30
0.0
11
81.000000
21
288.000000
31
0.0
0
LINE
8
LINES
10
81.000000
20
297.000000
30
0.0
11
270.000000
21
297.000000
31
0.0
0
LINE
8
LINES
10
270.000000
20
504.000000
30
0.0
11
81.000000
21
504.000000
31
0.0
0
LINE
8
LINES
10
279.000000
20
396.000000
30
0.0
11
468.000000
21
396.000000
31
0.0
0
LINE
8
LINES
10
81.000000
20
396.000000
30
0.0
11
261.000000
21
396.000000
31
0.0
0
LINE
8
LINES
10
468.000000
20
513.000000
30
0.0
11
279.000000
21
513.000000
31
0.0
0
LINE
8
LINES
10
252.000000
20
927.000000
30
0.0
11
72.000000
21
927.000000
31
0.0
0
LINE
8
LINES
10
72.000000
20
936.000000
30
0.0
11
252.000000
21
936.000000
31
0.0
0
LINE
8
LINES
10
306.000000
20
396.000000
30
0.0
11
135.000000
21
396.000000
31
0.0
0
LINE
8
LINES
10
72.000000
20
927.000000
30
0.0
11
243.000000
21
927.000000
31
0.0
0
LINE
8
LINES
10
108.000000
20
450.000000
30
0.0
11
261.000000
21
450.000000
31
0.0
0
LINE
8
LINES
10
108.000000
20
243.000000
30
0.0
11
270.000000
21
243.000000
31
0.0
0
LINE
8
LINES
10
315.000000
20
342.000000
30
0.0
11
468.000000
21
342.000000
31
0.0
0
LINE
8
LINES
10
315.000000
20
459.000000
30
0.0
11
468.000000
21
459.000000
31
0.0
0
LINE
8
LINES
10
126.000000
20
918.000000
30
0.0
11
279.000000
21
918.000000
31
0.0
0
LINE
8
LINES
10
486.000000
20
396.000000
30
0.0
11
333.000000
21
396.000000
31
0.0
0
LINE
8
LINES
10
468.000000
20
450.000000
30
0.0
11
324.000000
21
450.000000
31
0.0
0
LINE
8
LINES
10
288.000000
20
864.000000
30
0.0
11
144.000000
21
864.000000
31
0.0
0
LINE
8
LINES
10
468.000000
20
396.000000
30
0.0
11
612.000000
21
396.000000
31
0.0
0
LINE
8
LINES
10
216.000000
20
927.000000
30
0.0
11
72.000000
21
927.000000
31
0.0
0
LINE
8
LINES
10
126.000000
20
576.000000
30
0.0
11
261.000000
21
576.000000
31
0.0
0
LINE
8
LINES
10
333.000000
20
522.000000
30
0.0
11
468.000000
21
522.000000
31
0.0
0
LINE
8
LINES
10
126.000000
20
180.000000
30
0.0
11
261.000000
21
180.000000
31
0.0
0
LINE
8
LINES
10
333.000000
20
558.000000
30
0.0
11
468.000000
21
558.000000
31
0.0
0
LINE
8
LINES
10
477.000000
20
387.000000
30
0.0
11
612.000000
21
387.000000
31
0.0
0
LINE
8
LINES
10
333.000000
20
621.000000
30
0.0
11
468.000000
21
621.000000
31
0.0
0
LINE
8
LINES
10
468.000000
20
441.000000
30
0.0
11
333.000000
21
441.000000
31
0.0
0
LINE
8
LINES
10
333.000000
20
441.000000
30
0.0
11
468.000000
21
441.000000
31
0.0
0
LINE
8
LINES
10
333.000000
20
333.000000
30
0.0
11
468.000000
21
333.000000
31
0.0
0
LINE
8
LINES
10
0.000000
20
63.000000
30
0.0
11
135.000000
21
63.000000
31
0.0
0
LINE
8
LINES
10
135.000000
20
468.000000
30
0.0
11
261.000000
21
468.000000
31
0.0
0
LINE
8
LINES
10
135.000000
20
342.000000
30
0.0
11
270.000000
21
342.000000
31
0.0
0
LINE
8
LINES
10
333.000000
20
180.000000
30
0.0
11
468.000000
21
180.000000
31
0.0
0
LINE
8
LINES
10
333.000000
20
576.000000
30
0.0
11
468.000000
21
576.000000
31
0.0
0
LINE
8
LINES
10
135.000000
20
567.000000
30
0.0
11
261.000000
21
567.000000
31
0.0
0
LINE
8
LINES
10
468.000000
20
288.000000
30
0.0
11
333.000000
21
288.000000
31
0.0
0
LINE
8
LINES
10
207.000000
20
918.000000
30
0.0
11
72.000000
21
918.000000
31
0.0
0
LINE
8
LINES
10
135.000000
20
225.000000
30
0.0
11
270.000000
21
225.000000
31
0.0
0
LINE
8
LINES
10
135.000000
20
351.000000
30
0.0
11
270.000000
21
351.000000
31
0.0
0
LINE
8
LINES
10
333.000000
20
288.000000
30
0.0
11
468.000000
21
288.000000
31
0.0
0
LINE
8
LINES
10
135.000000
20
288.000000
30
0.0
11
261.000000
21
288.000000
31
0.0
0
LINE
8
LINES
10
333.000000
20
234.000000
30
0.0
11
468.000000
21
234.000000
31
0.0
0
LINE
8
LINES
10
270.000000
20
180.000000
30
0.0
11
135.000000
21
180.000000
31
0.0
0
LINE
8
LINES
10
468.000000
20
180.000000
30
0.0
11
342.000000
21
180.000000
31
0.0
0
LINE
8
LINES
10
0.000000
20
0.000000
30
0.0
11
126.000000
21
0.000000
31
0.0
0
LINE
8
LINES
10
540.000000
20
108.000000
30
0.0
11
414.000000
21
108.000000
31
0.0
0
LINE
8
LINES
10
477.000000
20
279.000000
30
0.0
11
603.000000
21
279.000000
31
0.0
0
LINE
8
LINES
10
342.000000
20
171.000000
30
0.0
11
459.000000
21
171.000000
31
0.0
0
LINE
8
LINES
10
504.000000
20
720.000000
30
0.0
11
378.000000
21
720.000000
31
0.0
0
LINE
8
LINES
10
144.000000
20
189.000000
30
0.0
11
270.000000
21
189.000000
31
0.0
0
LINE
8
LINES
10
135.000000
20
288.000000
30
0.0
11
261.000000
21
288.000000
31
0.0
0
LINE
8
LINES
10
36.000000
20
747.000000
30
0.0
11
162.000000
21
747.000000
31
0.0
0
LINE
8
LINES
10
0.000000
20
909.000000
30
0.0
11
126.000000
21
909.000000
31
0.0
0
LINE
8
LINES
10
252.000000
20
909.000000
30
0.0
11
126.000000
21
909.000000
31
0.0
0
LINE
8
LINES
10
270.000000
20
279.000000
30
0.0
11
153.000000
21
279.000000
31
0.0
0
LINE
8
LINES
10
468.000000
20
216.000000
30
0.0
11
351.000000
21
216.000000
31
0.0
0
LINE
8
LINES
10
144.000000
20
171.000000
30
0.0
11
261.000000
21
171.000000
31
0.0
0
LINE
8
LINES
10
342.000000
20
387.000000
30
0.0
11
459.000000
21
387.000000
31
0.0
0
LINE
8
LINES
10
171.000000
20
747.000000
30
0.0
11
288.000000
21
747.000000
31
0.0
0
LINE
8
LINES
10
441.000000
20
342.000000
30
0.0
11
333.000000
21
342.000000
31
0.0
0
LINE
8
LINES
10
261.000000
20
162.000000
30
0.0
11
153.000000
21
162.000000
31
0.0
0
LINE
8
LINES
10
270.000000
20
558.000000
30
0.0
11
162.000000
21
558.000000
31
0.0
0
LINE
8
LINES
10
72.000000
20
981.000000
30
0.0
11
180.000000
21
981.000000
31
0.0
0
LINE
8
LINES
10
198.000000
20
117.000000
30
0.0
11
90.000000
21
117.000000
31
0.0
0
LINE
8
LINES
10
504.000000
20
747.000000
30
0.0
11
612.000000
21
747.000000
31
0.0
0
LINE
8
LINES
10
135.000000
20
504.000000
30
0.0
11
234.000000
21
504.000000
31
0.0
0
LINE
8
LINES
10
612.000000
20
504.000000
30
0.0
11
513.000000
21
504.000000
31
0.0
0
LINE
8
LINES
10
252.000000
20
333.000000
30
0.0
11
153.000000
21
333.000000
31
0.0
0
LINE
8
LINES
10
612.000000
20
720.000000
30
0.0
11
513.000000
21
720.000000
31
0.0
0
LINE
8
LINES
10
513.000000
20
567.000000
30
0.0
11
612.000000
21
567.000000
31
0.0
0
LINE
8
LINES
10
612.000000
20
738.000000
30
0.0
11
513.000000
21
738.000000
31
0.0
0
LINE
8
LINES
10
612.000000
20
324.000000
30
0.0
11
513.000000
21
324.000000
31
0.0
0
LINE
8
LINES
10
342.000000
20
630.000000
30
0.0
11
432.000000
21
630.000000
31
0.0
0
LINE
8
LINES
10
495.000000
20
792.000000
30
0.0
11
585.000000
21
792.000000
31
0.0
0
LINE
8
LINES
10
513.000000
20
747.000000
30
0.0
11
423.000000
21
747.000000
31
0.0
0
LINE
8
LINES
10
612.000000
20
549.000000
30
0.0
11
522.000000
21
549.000000
31
0.0
0
LINE
8
LINES
10
468.000000
20
324.000000
30
0.0
11
378.000000
21
324.000000
31
0.0
0
LINE
8
LINES
10
135.000000
20
639.000000
30
0.0
11
225.000000
21
639.000000
31
0.0
0
LINE
8
LINES
10
513.000000
20
513.000000
30
0.0
11
603.000000
21
513.000000
31
0.0
0
LINE
8
LINES
10
279.000000
20
738.000000
30
0.0
11
360.000000
21
738.000000
31
0.0
0
LINE
8
LINES
10
324.000000
20
918.000000
30
0.0
11
243.000000
21
918.000000
31
0.0
0
LINE
8
LINES
10
387.000000
20
558.000000
30
0.0
11
306.000000
21
558.000000
31
0.0
0
LINE
8
LINES
10
432.000000
20
918.000000
30
0.0
11
342.000000
21
918.000000
31
0.0
0
LINE
8
LINES
10
0.000000
20
585.000000
30
0.0
11
81.000000
21
585.000000
31
0.0
0
LINE
8
LINES
10
540.000000
20
936.000000
30
0.0
11
459.000000
21
936.000000
31
0.0
0
LINE
8
LINES
10
468.000000
20
621.000000
30
0.0
11
549.000000
21
621.000000
31
0.0
0
LINE
8
LINES
10
468.000000
20
549.000000
30
0.0
11
396.000000
21
549.000000
31
0.0
0
LINE
8
LINES
10
468.000000
20
567.000000
30
0.0
11
387.000000
21
567.000000
31
0.0
0
LINE
8
LINES
10
81.000000
20
405.000000
30
0.0
11
0.000000
21
405.000000
31
0.0
0
LINE
8
LINES
10
540.000000
20
459.000000
30
0.0
11
612.000000
21
459.000000
31
0.0
0
LINE
8
LINES
10
531.000000
20
180.000000
30
0.0
11
612.000000
21
180.000000
31
0.0
0
LINE
8
LINES
10
540.000000
20
441.000000
30
0.0
11
612.000000
21
441.000000
31
0.0
0
LINE
8
LINES
10
540.000000
20
558.000000
30
0.0
11
612.000000
21
558.000000
31
0.0
0
LINE
8
LINES
10
612.000000
20
288.000000
30
0.0
11
540.000000
21
288.000000
31
0.0
0
LINE
8
LINES
10
81.000000
20
864.000000
30
0.0
11
0.000000
21
864.000000
31
0.0
0
LINE
8
LINES
10
612.000000
20
495.000000
30
0.0
11
540.000000
21
495.000000
31
0.0
0
LINE
8
LINES
10
612.000000
20
432.000000
30
0.0
11
540.000000
21
432.000000
31
0.0
0
LINE
8
LINES
10
333.000000
20
927.000000
30
0.0
11
252.000000
21
927.000000
31
0.0
0
LINE
8
LINES
10
612.000000
20
396.000000
30
0.0
11
540.000000
21
396.000000
31
0.0
0
LINE
8
LINES
10
540.000000
20
279.000000
30
0.0
11
612.000000
21
279.000000
31
0.0
0
LINE
8
LINES
10
81.000000
20
558.000000
30
0.0
11
0.000000
21
558.000000
31
0.0
0
LINE
8
LINES
10
270.000000
20
342.000000
30
0.0
11
189.000000
21
342.000000
31
0.0
0
LINE
8
LINES
10
153.000000
20
558.000000
30
0.0
11
81.000000
21
558.000000
31
0.0
0
LINE
8
LINES
10
540.000000
20
234.000000
30
0.0
11
612.000000
21
234.000000
31
0.0
0
LINE
8
LINES
10
612.000000
20
270.000000
30
0.0
11
540.000000
21
270.000000
31
0.0
0
LINE
8
LINES
10
540.000000
20
225.000000
30
0.0
11
612.000000
21
225.000000
31
0.0
0
LINE
8
LINES
10
612.000000
20
180.000000
30
0.0
11
540.000000
21
180.000000
31
0.0
0
LINE
8
LINES
10
612.000000
20
216.000000
30
0.0
11
540.000000
21
216.000000
31
0.0
0
LINE
8
LINES
10
414.000000
20
387.000000
30
0.0
11
333.000000
21
387.000000
31
0.0
0
LINE
8
LINES
10
270.000000
20
216.000000
30
0.0
11
198.000000
21
216.000000
31
0.0
0
LINE
8
LINES
10
540.000000
20
342.000000
30
0.0
11
612.000000
21
342.000000
31
0.0
0
LINE
8
LINES
10
540.000000
20
333.000000
30
0.0
11
612.000000
21
333.000000
31
0.0
0
LINE
8
LINES
10
513.000000
20
378.000000
30
0.0
11
585.000000
21
378.000000
31
0.0
0
LINE
8
LINES
10
612.000000
20
162.000000
30
0.0
11
540.000000
21
162.000000
31
0.0
0
LINE
8
LINES
10
396.000000
20
225.000000
30
0.0
11
468.000000
21
225.000000
31
0.0
0
LINE
8
LINES
10
540.000000
20
171.000000
30
0.0
11
612.000000
21
171.000000
31
0.0
0
LINE
8
LINES
10
72.000000
20
279.000000
30
0.0
11
0.000000
21
279.000000
31
0.0
0
LINE
8
LINES
10
414.000000
20
1008.000000
30
0.0
11
477.000000
21
1008.000000
31
0.0
0
LINE
8
LINES
10
72.000000
20
450.000000
30
0.0
11
0.000000
21
450.000000
31
0.0
0
LINE
8
LINES
10
189.000000
20
459.000000
30
0.0
11
117.000000
21
459.000000
31
0.0
0
LINE
8
LINES
10
477.000000
20
378.000000
30
0.0
11
414.000000
21
378.000000
31
0.0
0
LINE
8
LINES
10
0.000000
20
360.000000
30
0.0
11
72.000000
21
360.000000
31
0.0
0
LINE
8
LINES
10
0.000000
20
342.000000
30
0.0
11
72.000000
21
342.000000
31
0.0
0
LINE
8
LINES
10
72.000000
20
297.000000
30
0.0
11
0.000000
21
297.000000
31
0.0
0
LINE
8
LINES
10
72.000000
20
189.000000
30
0.0
11
9.000000
21
189.000000
31
0.0
0
LINE
8
LINES
10
72.000000
20
243.000000
30
0.0
11
9.000000
21
243.000000
31
0.0
0
LINE
8
LINES
10
0.000000
20
522.000000
30
0.0
11
72.000000
21
522.000000
31
0.0
0
LINE
8
LINES
10
0.000000
20
414.000000
30
0.0
11
72.000000
21
414.000000
31
0.0
0
LINE
8
LINES
10
135.000000
20
630.000000
30
0.0
11
198.000000
21
630.000000
31
0.0
0
LINE
8
LINES
10
0.000000
20
297.000000
30
0.0
11
63.000000
21
297.000000
31
0.0
0
LINE
8
LINES
10
0.000000
20
189.000000
30
0.0
11
63.000000
21
189.000000
31
0.0
0
LINE
8
LINES
10
279.000000
20
558.000000
30
0.0
11
207.000000
21
558.000000
31
0.0
0
LINE
8
LINES
10
0.000000
20
468.000000
30
0.0
11
63.000000
21
468.000000
31
0.0
0
LINE
8
LINES
10
72.000000
20
522.000000
30
0.0
11
0.000000
21
522.000000
31
0.0
0
LINE
8
LINES
10
0.000000
20
522.000000
30
0.0
11
63.000000
21
522.000000
31
0.0
0
LINE
8
LINES
10
0.000000
20
459.000000
30
0.0
11
63.000000
21
459.000000
31
0.0
0
LINE
8
LINES
10
0.000000
20
630.000000
30
0.0
11
63.000000
21
630.000000
31
0.0
0
LINE
8
LINES
10
369.000000
20
747.000000
30
0.0
11
441.000000
21
747.000000
31
0.0
0
LINE
8
LINES
10
279.000000
20
153.000000
30
0.0
11
342.000000
21
153.000000
31
0.0
0
LINE
8
LINES
10
144.000000
20
396.000000
30
0.0
11
81.000000
21
396.000000
31
0.0
0
LINE
8
LINES
10
0.000000
20
306.000000
30
0.0
11
72.000000
21
306.000000
31
0.0
0
LINE
8
LINES
10
0.000000
20
405.000000
30
0.0
11
63.000000
21
405.000000
31
0.0
0
LINE
8
LINES
10
342.000000
20
999.000000
30
0.0
11
342.000000
21
936.000000
31
0.0
0
LINE
8
LINES
10
270.000000
20
621.000000
30
0.0
11
333.000000
21
621.000000
31
0.0
0
LINE
8
LINES
10
423.000000
20
495.000000
30
0.0
11
360.000000
21
495.000000
31
0.0
0
LINE
8
LINES
10
0.000000
20
252.000000
30
0.0
11
72.000000
21
252.000000
31
0.0
0
LINE
8
LINES
10
135.000000
20
54.000000
30
0.0
11
198.000000
21
54.000000
31
0.0
0
LINE
8
LINES
10
396.000000
20
747.000000
30
0.0
11
324.000000
21
747.000000
31
0.0
0
LINE
8
LINES
10
378.000000
20
567.000000
30
0.0
11
441.000000
21
567.000000
31
0.0
0
LINE
8
LINES
10
405.000000
20
864.000000
30
0.0
11
342.000000
21
864.000000
31
0.0
0
LINE
8
LINES
10
378.000000
20
450.000000
30
0.0
11
441.000000
21
450.000000
31
0.0
0
LINE
8
LINES
10
72.000000
20
918.000000
30
0.0
11
72.000000
21
981.000000
31
0.0
0
LINE
8
LINES
10
297.000000
20
675.000000
30
0.0
11
360.000000
21
675.000000
31
0.0
0
LINE
8
LINES
10
612.000000
20
855.000000
30
0.0
11
549.000000
21
855.000000
31
0.0
0
LINE
8
LINES
10
351.000000
20
846.000000
30
0.0
11
279.000000
21
846.000000
31
0.0
0
LINE
8
LINES
10
72.000000
20
513.000000
30
0.0
11
135.000000
21
513.000000
31
0.0
0
LINE
8
LINES
10
522.000000
20
909.000000
30
0.0
11
459.000000
21
909.000000
31
0.0
0
LINE
8
LINES
10
378.000000
20
108.000000
30
0.0
11
315.000000
21
108.000000
31
0.0
0
LINE
8
LINES
10
459.000000
20
234.000000
30
0.0
11
396.000000
21
234.000000
31
0.0
0
LINE
8
LINES
10
477.000000
20
153.000000
30
0.0
11
540.000000
21
153.000000
31
0.0
0
LINE
8
LINES
10
18.000000
20
513.000000
30
0.0
11
81.000000
21
513.000000
31
0.0
0
LINE
8
LINES
10
531.000000
20
54.000000
30
0.0
11
594.000000
21
54.000000
31
0.0
0
LINE
8
LINES
10
18.000000
20
126.000000
30
0.0
11
81.000000
21
126.000000
31
0.0
0
LINE
8
LINES
10
612.000000
20
846.000000
30
0.0
11
549.000000
21
846.000000
31
0.0
0
LINE
8
LINES
10
72.000000
20
630.000000
30
0.0
11
135.000000
21
630.000000
31
0.0
0
LINE
8
LINES
10
9.000000
20
198.000000
30
0.0
11
72.000000
21
198.000000
31
0.0
0
LINE
8
LINES
10
252.000000
20
441.000000
30
0.0
11
189.000000
21
441.000000
31
0.0
0
LINE
8
LINES
10
261.000000
20
234.000000
30
0.0
11
198.000000
21
234.000000
31
0.0
0
LINE
8
LINES
10
450.000000
20
909.000000
30
0.0
11
387.000000
21
909.000000
31
0.0
0
LINE
8
LINES
10
234.000000
20
693.000000
30
0.0
11
297.000000
21
693.000000
31
0.0
0
LINE
8
LINES
10
603.000000
20
108.000000
30
0.0
11
549.000000
21
108.000000
31
0.0
0
LINE
8
LINES
10
81.000000
20
117.000000
30
0.0
11
27.000000
21
117.000000
31
0.0
0
LINE
8
LINES
10
0.000000
20
162.000000
30
0.0
11
0.000000
21
99.000000
31
0.0
0
LINE
8
LINES
10
216.000000
20
846.000000
30
0.0
11
153.000000
21
846.000000
31
0.0
0
LINE
8
LINES
10
72.000000
20
288.000000
30
0.0
11
135.000000
21
288.000000
31
0.0
0
LINE
8
LINES
10
81.000000
20
333.000000
30
0.0
11
18.000000
21
333.000000
31
0.0
0
LINE
8
LINES
10
207.000000
20
387.000000
30
0.0
11
153.000000
21
387.000000
31
0.0
0
LINE
8
LINES
10
9.000000
20
567.000000
30
0.0
11
72.000000
21
567.000000
31
0.0
0
LINE
8
LINES
10
189.000000
20
351.000000
30
0.0
11
135.000000
21
351.000000
31
0.0
0
LINE
8
LINES
10
387.000000
20
567.000000
30
0.0
11
324.000000
21
567.000000
31
0.0
0
LINE
8
LINES
10
387.000000
20
234.000000
30
0.0
11
333.000000
21
234.000000
31
0.0
0
LINE
8
LINES
10
126.000000
20
909.000000
30
0.0
11
63.000000
21
909.000000
31
0.0
0
LINE
8
LINES
10
189.000000
20
450.000000
30
0.0
11
126.000000
21
450.000000
31
0.0
0
LINE
8
LINES
10
81.000000
20
162.000000
30
0.0
11
135.000000
21
162.000000
31
0.0
0
LINE
8
LINES
10
405.000000
20
963.000000
30
0.0
11
468.000000
21
963.000000
31
0.0
0
LINE
8
LINES
10
558.000000
20
783.000000
30
0.0
11
612.000000
21
783.000000
31
0.0
0
LINE
8
LINES
10
414.000000
20
792.000000
30
0.0
11
351.000000
21
792.000000
31
0.0
0
LINE
8
LINES
10
252.000000
20
108.000000
30
0.0
11
198.000000
21
108.000000
31
0.0
0
LINE
8
LINES
10
135.000000
20
675.000000
30
0.0
11
189.000000
21
675.000000
31
0.0
0
LINE
8
LINES
10
63.000000
20
468.000000
30
0.0
11
0.000000
21
468.000000
31
0.0
0
LINE
8
LINES
10
144.000000
20
864.000000
30
0.0
11
81.000000
21
864.000000
31
0.0
0
LINE
8
LINES
10
0.000000
20
954.000000
30
0.0
11
27.000000
21
1008.000000
31
0.0
0
LINE
8
LINES
10
405.000000
20
855.000000
30
0.0
11
351.000000
21
855.000000
31
0.0
0
LINE
8
LINES
10
54.000000
20
504.000000
30
0.0
11
0.000000
21
504.000000
31
0.0
0
LINE
8
LINES
10
144.000000
20
1008.000000
30
0.0
11
198.000000
21
1008.000000
31
0.0
0
LINE
8
LINES
10
333.000000
20
225.000000
30
0.0
11
396.000000
21
225.000000
31
0.0
0
LINE
8
LINES
10
495.000000
20
783.000000
30
0.0
11
549.000000
21
783.000000
31
0.0
0
LINE
8
LINES
10
486.000000
20
270.000000
30
0.0
11
423.000000
21
270.000000
31
0.0
0
LINE
8
LINES
10
18.000000
20
693.000000
30
0.0
11
72.000000
21
693.000000
31
0.0
0
LINE
8
LINES
10
603.000000
20
927.000000
30
0.0
11
549.000000
21
927.000000
31
0.0
0
LINE
8
LINES
10
72.000000
20
396.000000
30
0.0
11
18.000000
21
396.000000
31
0.0
0
LINE
8
LINES
10
486.000000
20
495.000000
30
0.0
11
432.000000
21
495.000000
31
0.0
0
LINE
8
LINES
10
279.000000
20
279.000000
30
0.0
11
333.000000
21
279.000000
31
0.0
0
LINE
8
LINES
10
189.000000
20
450.000000
30
0.0
11
135.000000
21
450.000000
31
0.0
0
LINE
8
LINES
10
558.000000
20
621.000000
30
0.0
11
612.000000
21
621.000000
31
0.0
0
LINE
8
LINES
10
270.000000
20
846.000000
30
0.0
11
216.000000
21
846.000000
31
0.0
0
LINE
8
LINES
10
198.000000
20
999.000000
30
0.0
11
135.000000
21
999.000000
31
0.0
0
LINE
8
LINES
10
549.000000
20
792.000000
30
0.0
11
495.000000
21
792.000000
31
0.0
0
LINE
8
LINES
10
18.000000
20
234.000000
30
0.0
11
72.000000
21
234.000000
31
0.0
0
LINE
8
LINES
10
441.000000
20
747.000000
30
0.0
11
495.000000
21
747.000000
31
0.0
0
LINE
8
LINES
10
540.000000
20
846.000000
30
0.0
11
486.000000
21
846.000000
31
0.0
0
LINE
8
LINES
10
189.000000
20
234.000000
30
0.0
11
135.000000
21
234.000000
31
0.0
0
LINE
8
LINES
10
603.000000
20
918.000000
30
0.0
11
549.000000
21
918.000000
31
0.0
0
LINE
8
LINES
10
135.000000
20
405.000000
30
0.0
11
81.000000
21
405.000000
31
0.0
0
LINE
8
LINES
10
72.000000
20
225.000000
30
0.0
11
18.000000
21
225.000000
31
0.0
0
LINE
8
LINES
10
18.000000
20
396.000000
30
0.0
11
63.000000
21
396.000000
31
0.0
0
LINE
8
LINES
10
306.000000
20
747.000000
30
0.0
11
360.000000
21
747.000000
31
0.0
0
LINE
8
LINES
10
63.000000
20
171.000000
30
0.0
11
9.000000
21
171.000000
31
0.0
0
LINE
8
LINES
10
387.000000
20
270.000000
30
0.0
11
333.000000
21
270.000000
31
0.0
0
LINE
8
LINES
10
540.000000
20
171.000000
30
0.0
11
594.000000
21
171.000000
31
0.0
0
LINE
8
LINES
10
72.000000
20
693.000000
30
0.0
11
126.000000
21
693.000000
31
0.0
0
LINE
8
LINES
10
144.000000
20
846.000000
30
0.0
11
90.000000
21
846.000000
31
0.0
0
LINE
8
LINES
10
279.000000
20
495.000000
30
0.0
11
333.000000
21
495.000000
31
0.0
0
LINE
8
LINES
10
612.000000
20
567.000000
30
0.0
11
567.000000
21
567.000000
31
0.0
0
LINE
8
LINES
10
567.000000
20
333.000000
30
0.0
11
513.000000
21
333.000000
31
0.0
0
LINE
8
LINES
10
540.000000
20
378.000000
30
0.0
11
486.000000
21
378.000000
31
0.0
0
LINE
8
LINES
10
279.000000
20
513.000000
30
0.0
11
333.000000
21
513.000000
31
0.0
0
LINE
8
LINES
10
135.000000
20
279.000000
30
0.0
11
81.000000
21
279.000000
31
0.0
0
LINE
8
LINES
10
333.000000
20
288.000000
30
0.0
11
279.000000
21
288.000000
31
0.0
0
LINE
8
LINES
10
36.000000
20
1017.000000
30
0.0
11
81.000000
21
1017.000000
31
0.0
0
LINE
8
LINES
10
540.000000
20
864.000000
30
0.0
11
594.000000
21
864.000000
31
0.0
0
LINE
8
LINES
10
531.000000
20
396.000000
30
0.0
11
486.000000
21
396.000000
31
0.0
0
LINE
8
LINES
10
81.000000
20
981.000000
30
0.0
11
81.000000
21
936.000000
31
0.0
0
LINE
8
LINES
10
477.000000
20
963.000000
30
0.0
11
522.000000
21
963.000000
31
0.0
0
LINE
8
LINES
10
459.000000
20
162.000000
30
0.0
11
414.000000
21
162.000000
31
0.0
0
LINE
8
LINES
10
243.000000
20
576.000000
30
0.0
11
189.000000
21
576.000000
31
0.0
0
LINE
8
LINES
10
513.000000
20
504.000000
30
0.0
11
468.000000
21
504.000000
31
0.0
0
LINE
8
LINES
10
153.000000
20
333.000000
30
0.0
11
108.000000
21
333.000000
31
0.0
0
LINE
8
LINES
10
585.000000
20
378.000000
30
0.0
11
540.000000
21
378.000000
31
0.0
0
LINE
8
LINES
10
540.000000
20
936.000000
30
0.0
11
585.000000
21
936.000000
31
0.0
0
LINE
8
LINES
10
252.000000
20
459.000000
30
0.0
11
207.000000
21
459.000000
31
0.0
0
LINE
8
LINES
10
594.000000
20
342.000000
30
0.0
11
540.000000
21
342.000000
31
0.0
0
LINE
8
LINES
10
18.000000
20
288.000000
30
0.0
11
63.000000
21
288.000000
31
0.0
0
LINE
8
LINES
10
387.000000
20
909.000000
30
0.0
11
342.000000
21
909.000000
31
0.0
0
LINE
8
LINES
10
144.000000
20
693.000000
30
0.0
11
189.000000
21
693.000000
31
0.0
0
LINE
8
LINES
10
81.000000
20
459.000000
30
0.0
11
126.000000
21
459.000000
31
0.0
0
LINE
8
LINES
10
360.000000
20
567.000000
30
0.0
11
315.000000
21
567.000000
31
0.0
0
LINE
8
LINES
10
612.000000
20
117.000000
30
0.0
11
567.000000
21
117.000000
31
0.0
0
LINE
8
LINES
10
567.000000
20
441.000000
30
0.0
11
522.000000
21
441.000000
31
0.0
0
LINE
8
LINES
10
360.000000
20
495.000000
30
0.0
11
315.000000
21
495.000000
31
0.0
0
LINE
8
LINES
10
189.000000
20
225.000000
30
0.0
11
144.000000
21
225.000000
31
0.0
0
LINE
8
LINES
10
378.000000
20
324.000000
30
0.0
11
333.000000
21
324.000000
31
0.0
0
LINE
8
LINES
10
45.000000
20
792.000000
30
0.0
11
0.000000
21
792.000000
31
0.0
0
LINE
8
LINES
10
540.000000
20
963.000000
30
0.0
11
585.000000
21
963.000000
31
0.0
0
LINE
8
LINES
10
450.000000
20
864.000000
30
0.0
11
405.000000
21
864.000000
31
0.0
0
LINE
8
LINES
10
513.000000
20
279.000000
30
0.0
11
468.000000
21
279.000000
31
0.0
0
LINE
8
LINES
10
198.000000
20
738.000000
30
0.0
11
243.000000
21
738.000000
31
0.0
0
LINE
8
LINES
10
594.000000
20
450.000000
30
0.0
11
549.000000
21
450.000000
31
0.0
0
LINE
8
LINES
10
594.000000
20
234.000000
30
0.0
11
549.000000
21
234.000000
31
0.0
0
LINE
8
LINES
10
468.000000
20
513.000000
30
0.0
11
513.000000
21
513.000000
31
0.0
0
LINE
8
LINES
10
405.000000
20
1008.000000
30
0.0
11
405.000000
21
963.000000
31
0.0
0
LINE
8
LINES
10
585.000000
20
909.000000
30
0.0
11
540.000000
21
909.000000
31
0.0
0
LINE
8
LINES
10
423.000000
20
504.000000
30
0.0
11
468.000000
21
504.000000
31
0.0
0
LINE
8
LINES
10
549.000000
20
495.000000
30
0.0
11
594.000000
21
495.000000
31
0.0
0
LINE
8
LINES
10
153.000000
20
963.000000
30
0.0
11
189.000000
21
963.000000
31
0.0
0
LINE
8
LINES
10
585.000000
20
126.000000
30
0.0
11
549.000000
21
126.000000
31
0.0
0
LINE
8
LINES
10
279.000000
20
225.000000
30
0.0
11
234.000000
21
225.000000
31
0.0
0
LINE
8
LINES
10
486.000000
20
909.000000
30
0.0
11
486.000000
21
873.000000
31
0.0
0
LINE
8
LINES
10
495.000000
20
990.000000
30
0.0
11
450.000000
21
990.000000
31
0.0
0
LINE
8
LINES
10
54.000000
20
405.000000
30
0.0
11
9.000000
21
405.000000
31
0.0
0
LINE
8
LINES
10
225.000000
20
387.000000
30
0.0
11
261.000000
21
387.000000
31
0.0
0
LINE
8
LINES
10
351.000000
20
963.000000
30
0.0
11
387.000000
21
963.000000
31
0.0
0
LINE
8
LINES
10
468.000000
20
441.000000
30
0.0
11
513.000000
21
441.000000
31
0.0
0
LINE
8
LINES
10
477.000000
20
558.000000
30
0.0
11
441.000000
21
558.000000
31
0.0
0
LINE
8
LINES
10
468.000000
20
567.000000
30
0.0
11
513.000000
21
567.000000
31
0.0
0
LINE
8
LINES
10
0.000000
20
936.000000
30
0.0
11
45.000000
21
936.000000
31
0.0
0
LINE
8
LINES
10
45.000000
20
927.000000
30
0.0
11
0.000000
21
927.000000
31
0.0
0
LINE
8
LINES
10
486.000000
20
792.000000
30
0.0
11
441.000000
21
792.000000
31
0.0
0
LINE
8
LINES
10
396.000000
20
162.000000
30
0.0
11
351.000000
21
162.000000
31
0.0
0
LINE
8
LINES
10
396.000000
20
675.000000
30
0.0
11
441.000000
21
675.000000
31
0.0
0
LINE
8
LINES
10
54.000000
20
351.000000
30
0.0
11
18.000000
21
351.000000
31
0.0
0
LINE
8
LINES
10
90.000000
20
963.000000
30
0.0
11
126.000000
21
963.000000
31
0.0
0
LINE
8
LINES
10
576.000000
20
630.000000
30
0.0
11
612.000000
21
630.000000
31
0.0
0
LINE
8
LINES
10
0.000000
20
918.000000
30
0.0
11
36.000000
21
918.000000
31
0.0
0
LINE
8
LINES
10
612.000000
20
333.000000
30
0.0
11
576.000000
21
333.000000
31
0.0
0
LINE
8
LINES
10
207.000000
20
1017.000000
30
0.0
11
162.000000
21
1017.000000
31
0.0
0
LINE
8
LINES
10
450.000000
20
846.000000
30
0.0
11
414.000000
21
846.000000
31
0.0
0
LINE
8
LINES
10
0.000000
20
639.000000
30
0.0
11
36.000000
21
639.000000
31
0.0
0
LINE
8
LINES
10
432.000000
20
738.000000
30
0.0
11
468.000000
21
738.000000
31
0.0
0
LINE
8
LINES
10
387.000000
20
945.000000
30
0.0
11
351.000000
21
945.000000
31
0.0
0
LINE
8
LINES
10
99.000000
20
459.000000
30
0.0
11
63.000000
21
459.000000
31
0.0
0
LINE
8
LINES
10
531.000000
20
450.000000
30
0.0
11
495.000000
21
450.000000
31
0.0
0
LINE
8
LINES
10
72.000000
20
576.000000
30
0.0
11
36.000000
21
576.000000
31
0.0
0
LINE
8
LINES
10
477.000000
20
783.000000
30
0.0
11
477.000000
21
747.000000
31
0.0
0
LINE
8
LINES
10
45.000000
20
459.000000
30
0.0
11
0.000000
21
459.000000
31
0.0
0
LINE
8
LINES
10
612.000000
20
558.000000
30
0.0
11
576.000000
21
558.000000
31
0.0
0
LINE
8
LINES
10
297.000000
20
693.000000
30
0.0
11
333.000000
21
693.000000
31
0.0
0
LINE
8
LINES
10
513.000000
20
783.000000
30
0.0
11
513.000000
21
747.000000
31
0.0
0
LINE
8
LINES
10
495.000000
20
54.000000
30
0.0
11
531.000000
21
54.000000
31
0.0
0
LINE
8
LINES
10
576.000000
20
783.000000
30
0.0
11
576.000000
21
747.000000
31
0.0
0
LINE
8
LINES
10
549.000000
20
783.000000
30
0.0
11
549.000000
21
747.000000
31
0.0
0
LINE
8
LINES
10
369.000000
20
738.000000
30
0.0
11
405.000000
21
738.000000
31
0.0
0
LINE
8
LINES
10
36.000000
20
918.000000
30
0.0
11
0.000000
21
918.000000
31
0.0
0
LINE
8
LINES
10
504.000000
20
666.000000
30
0.0
11
540.000000
21
666.000000
31
0.0
0
LINE
8
LINES
10
486.000000
20
495.000000
30
0.0
11
522.000000
21
495.000000
31
0.0
0
LINE
8
LINES
10
0.000000
20
927.000000
30
0.0
11
36.000000
21
927.000000
31
0.0
0
LINE
8
LINES
10
36.000000
20
927.000000
30
0.0
11
0.000000
21
927.000000
31
0.0
0
LINE
8
LINES
10
522.000000
20
864.000000
30
0.0
11
486.000000
21
864.000000
31
0.0
0
LINE
8
LINES
10
279.000000
20
567.000000
30
0.0
11
243.000000
21
567.000000
31
0.0
0
LINE
8
LINES
10
441.000000
20
612.000000
30
0.0
11
441.000000
21
576.000000
31
0.0
0
LINE
8
LINES
10
612.000000
20
225.000000
30
0.0
11
576.000000
21
225.000000
31
0.0
0
LINE
8
LINES
10
549.000000
20
909.000000
30
0.0
11
549.000000
21
873.000000
31
0.0
0
LINE
8
LINES
10
171.000000
20
396.000000
30
0.0
11
207.000000
21
396.000000
31
0.0
0
LINE
8
LINES
10
414.000000
20
783.000000
30
0.0
11
414.000000
21
747.000000
31
0.0
0
LINE
8
LINES
10
0.000000
20
747.000000
30
0.0
11
36.000000
21
747.000000
31
0.0
0
LINE
8
LINES
10
441.000000
20
783.000000
30
0.0
11
441.000000
21
747.000000
31
0.0
0
LINE
8
LINES
10
63.000000
20
909.000000
30
0.0
11
27.000000
21
909.000000
31
0.0
0
LINE
8
LINES
10
234.000000
20
630.000000
30
0.0
11
270.000000
21
630.000000
31
0.0
0
LINE
8
LINES
10
369.000000
20
684.000000
30
0.0
11
405.000000
21
684.000000
31
0.0
0
LINE
8
LINES
10
243.000000
20
828.000000
30
0.0
11
279.000000
21
828.000000
31
0.0
0
LINE
8
LINES
10
513.000000
20
828.000000
30
0.0
11
549.000000
21
828.000000
31
0.0
0
LINE
8
LINES
10
144.000000
20
747.000000
30
0.0
11
108.000000
21
747.000000
31
0.0
0
LINE
8
LINES
10
225.000000
20
621.000000
30
0.0
11
261.000000
21
621.000000
31
0.0
0
LINE
8
LINES
10
216.000000
20
963.000000
30
0.0
11
252.000000
21
963.000000
31
0.0
0
LINE
8
LINES
10
252.000000
20
936.000000
30
0.0
11
216.000000
21
936.000000
31
0.0
0
LINE
8
LINES
10
342.000000
20
864.000000
30
0.0
11
306.000000
21
864.000000
31
0.0
0
LINE
8
LINES
10
144.000000
20
225.000000
30
0.0
11
108.000000
21
225.000000
31
0.0
0
LINE
8
LINES
10
81.000000
20
234.000000
30
0.0
11
45.000000
21
234.000000
31
0.0
0
LINE
8
LINES
10
99.000000
20
387.000000
30
0.0
11
135.000000
21
387.000000
31
0.0
0
LINE
8
LINES
10
477.000000
20
225.000000
30
0.0
11
441.000000
21
225.000000
31
0.0
0
LINE
8
LINES
10
576.000000
20
477.000000
30
0.0
11
612.000000
21
477.000000
31
0.0
0
LINE
8
LINES
10
351.000000
20
216.000000
30
0.0
11
315.000000
21
216.000000
31
0.0
0
LINE
8
LINES
10
441.000000
20
324.000000
30
0.0
11
441.000000
21
288.000000
31
0.0
0
LINE
8
LINES
10
378.000000
20
270.000000
30
0.0
11
378.000000
21
234.000000
31
0.0
0
LINE
8
LINES
10
378.000000
20
549.000000
30
0.0
11
378.000000
21
522.000000
31
0.0
0
LINE
8
LINES
10
81.000000
20
567.000000
30
0.0
11
45.000000
21
567.000000
31
0.0
0
LINE
8
LINES
10
405.000000
20
558.000000
30
0.0
11
369.000000
21
558.000000
31
0.0
0
LINE
8
LINES
10
612.000000
20
360.000000
30
0.0
11
576.000000
21
360.000000
31
0.0
0
LINE
8
LINES
10
576.000000
20
666.000000
30
0.0
11
612.000000
21
666.000000
31
0.0
0
LINE
8
LINES
10
576.000000
20
495.000000
30
0.0
11
576.000000
21
459.000000
31
0.0
0
LINE
8
LINES
10
549.000000
20
603.000000
30
0.0
11
549.000000
21
576.000000
31
0.0
0
LINE
8
LINES
10
441.000000
20
378.000000
30
0.0
11
441.000000
21
351.000000
31
0.0
0
LINE
8
LINES
10
513.000000
20
108.000000
30
0.0
11
513.000000
21
72.000000
31
0.0
0
LINE
8
LINES
10
549.000000
20
720.000000
30
0.0
11
549.000000
21
684.000000
31
0.0
0
LINE
8
LINES
10
576.000000
20
423.000000
30
0.0
11
612.000000
21
423.000000
31
0.0
0
LINE
8
LINES
10
612.000000
20
963.000000
30
0.0
11
612.000000
21
927.000000
31
0.0
0
LINE
8
LINES
10
360.000000
20
504.000000
30
0.0
11
387.000000
21
504.000000
31
0.0
0
LINE
8
LINES
10
558.000000
20
279.000000
30
0.0
11
594.000000
21
279.000000
31
0.0
0
LINE
8
LINES
10
540.000000
20
171.000000
30
0.0
11
504.000000
21
171.000000
31
0.0
0
LINE
8
LINES
10
117.000000
20
612.000000
30
0.0
11
117.000000
21
576.000000
31
0.0
0
LINE
8
LINES
10
72.000000
20
333.000000
30
0.0
11
108.000000
21
333.000000
31
0.0
0
LINE
8
LINES
10
414.000000
20
720.000000
30
0.0
11
414.000000
21
684.000000
31
0.0
0
LINE
8
LINES
10
441.000000
20
720.000000
30
0.0
11
441.000000
21
684.000000
31
0.0
0
LINE
8
LINES
10
441.000000
20
666.000000
30
0.0
11
441.000000
21
630.000000
31
0.0
0
LINE
8
LINES
10
81.000000
20
450.000000
30
0.0
11
45.000000
21
450.000000
31
0.0
0
LINE
8
LINES
10
585.000000
20
531.000000
30
0.0
11
612.000000
21
531.000000
31
0.0
0
LINE
8
LINES
10
378.000000
20
423.000000
30
0.0
11
414.000000
21
423.000000
31
0.0
0
LINE
8
LINES
10
441.000000
20
441.000000
30
0.0
11
441.000000
21
405.000000
31
0.0
0
LINE
8
LINES
10
378.000000
20
216.000000
30
0.0
11
378.000000
21
180.000000
31
0.0
0
LINE
8
LINES
10
441.000000
20
270.000000
30
0.0
11
441.000000
21
234.000000
31
0.0
0
LINE
8
LINES
10
261.000000
20
450.000000
30
0.0
11
225.000000
21
450.000000
31
0.0
0
LINE
8
LINES
10
486.000000
20
855.000000
30
0.0
11
486.000000
21
819.000000
31
0.0
0
LINE
8
LINES
10
315.000000
20
108.000000
30
0.0
11
315.000000
21
72.000000
31
0.0
0
LINE
8
LINES
10
117.000000
20
828.000000
30
0.0
11
153.000000
21
828.000000
31
0.0
0
LINE
8
LINES
10
612.000000
20
666.000000
30
0.0
11
576.000000
21
666.000000
31
0.0
0
LINE
8
LINES
10
171.000000
20
576.000000
30
0.0
11
207.000000
21
576.000000
31
0.0
0
LINE
8
LINES
10
549.000000
20
846.000000
30
0.0
11
549.000000
21
810.000000
31
0.0
0
LINE
8
LINES
10
504.000000
20
675.000000
30
0.0
11
540.000000
21
675.000000
31
0.0
0
LINE
8
LINES
10
495.000000
20
369.000000
30
0.0
11
495.000000
21
342.000000
31
0.0
0
LINE
8
LINES
10
378.000000
20
486.000000
30
0.0
11
414.000000
21
486.000000
31
0.0
0
LINE
8
LINES
10
423.000000
20
270.000000
30
0.0
11
387.000000
21
270.000000
31
0.0
0
LINE
8
LINES
10
441.000000
20
108.000000
30
0.0
11
441.000000
21
72.000000
31
0.0
0
LINE
8
LINES
10
486.000000
20
108.000000
30
0.0
11
486.000000
21
72.000000
31
0.0
0
LINE
8
LINES
10
288.000000
20
108.000000
30
0.0
11
261.000000
21
108.000000
31
0.0
0
LINE
8
LINES
10
180.000000
20
108.000000
30
0.0
11
180.000000
21
81.000000
31
0.0
0
LINE
8
LINES
10
315.000000
20
828.000000
30
0.0
11
351.000000
21
828.000000
31
0.0
0
LINE
8
LINES
10
612.000000
20
927.000000
30
0.0
11
612.000000
21
954.000000
31
0.0
0
LINE
8
LINES
10
495.000000
20
126.000000
30
0.0
11
459.000000
21
126.000000
31
0.0
0
LINE
8
LINES
10
549.000000
20
324.000000
30
0.0
11
549.000000
21
288.000000
31
0.0
0
LINE
8
LINES
10
414.000000
20
216.000000
30
0.0
11
414.000000
21
180.000000
31
0.0
0
LINE
8
LINES
10
378.000000
20
162.000000
30
0.0
11
378.000000
21
126.000000
31
0.0
0
LINE
8
LINES
10
414.000000
20
162.000000
30
0.0
11
414.000000
21
126.000000
31
0.0
0
LINE
8
LINES
10
441.000000
20
216.000000
30
0.0
11
441.000000
21
180.000000
31
0.0
0
LINE
8
LINES
10
441.000000
20
162.000000
30
0.0
11
441.000000
21
126.000000
31
0.0
0
LINE
8
LINES
10
252.000000
20
108.000000
30
0.0
11
252.000000
21
81.000000
31
0.0
0
LINE
8
LINES
10
414.000000
20
108.000000
30
0.0
11
378.000000
21
108.000000
31
0.0
0
LINE
8
LINES
10
477.000000
20
378.000000
30
0.0
11
477.000000
21
342.000000
31
0.0
0
LINE
8
LINES
10
576.000000
20
216.000000
30
0.0
11
576.000000
21
180.000000
31
0.0
0
LINE
8
LINES
10
576.000000
20
270.000000
30
0.0
11
576.000000
21
234.000000
31
0.0
0
LINE
8
LINES
10
549.000000
20
270.000000
30
0.0
11
549.000000
21
234.000000
31
0.0
0
LINE
8
LINES
10
549.000000
20
216.000000
30
0.0
11
549.000000
21
180.000000
31
0.0
0
LINE
8
LINES
10
549.000000
20
162.000000
30
0.0
11
549.000000
21
135.000000
31
0.0
0
LINE
8
LINES
10
351.000000
20
108.000000
30
0.0
11
351.000000
21
72.000000
31
0.0
0
LINE
8
LINES
10
378.000000
20
108.000000
30
0.0
11
378.000000
21
72.000000
31
0.0
0
LINE
8
LINES
10
216.000000
20
108.000000
30
0.0
11
216.000000
21
81.000000
31
0.0
0
LINE
8
LINES
10
495.000000
20
153.000000
30
0.0
11
468.000000
21
162.000000
31
0.0
0
LINE
8
LINES
10
27.000000
20
117.000000
30
0.0
11
27.000000
21
90.000000
31
0.0
0
LINE
8
LINES
10
360.000000
20
351.000000
30
0.0
11
360.000000
21
378.000000
31
0.0
0
LINE
8
LINES
10
495.000000
20
207.000000
30
0.0
11
495.000000
21
180.000000
31
0.0
0
LINE
8
LINES
10
441.000000
20
495.000000
30
0.0
11
441.000000
21
459.000000
31
0.0
0
LINE
8
LINES
10
63.000000
20
342.000000
30
0.0
11
36.000000
21
342.000000
31
0.0
0
LINE
8
LINES
10
585.000000
20
702.000000
30
0.0
11
612.000000
21
702.000000
31
0.0
0
LINE
8
LINES
10
63.000000
20
846.000000
30
0.0
11
36.000000
21
846.000000
31
0.0
0
LINE
8
LINES
10
351.000000
20
846.000000
30
0.0
11
351.000000
21
819.000000
31
0.0
0
LINE
8
LINES
10
585.000000
20
594.000000
30
0.0
11
612.000000
21
594.000000
31
0.0
0
LINE
8
LINES
10
549.000000
20
657.000000
30
0.0
11
549.000000
21
630.000000
31
0.0
0
LINE
8
LINES
10
90.000000
20
846.000000
30
0.0
11
90.000000
21
819.000000
31
0.0
0
LINE
8
LINES
10
468.000000
20
630.000000
30
0.0
11
495.000000
21
630.000000
31
0.0
0
LINE
8
LINES
10
153.000000
20
846.000000
30
0.0
11
153.000000
21
819.000000
31
0.0
0
LINE
8
LINES
10
612.000000
20
702.000000
30
0.0
11
585.000000
21
702.000000
31
0.0
0
LINE
8
LINES
10
279.000000
20
846.000000
30
0.0
11
279.000000
21
819.000000
31
0.0
0
LINE
8
LINES
10
117.000000
20
117.000000
30
0.0
11
117.000000
21
81.000000
31
0.0
0
LINE
8
LINES
10
612.000000
20
207.000000
30
0.0
11
585.000000
21
207.000000
31
0.0
0
LINE
8
LINES
10
558.000000
20
567.000000
30
0.0
11
531.000000
21
567.000000
31
0.0
0
LINE
8
LINES
10
540.000000
20
819.000000
30
0.0
11
513.000000
21
819.000000
31
0.0
0
LINE
8
LINES
10
396.000000
20
279.000000
30
0.0
11
423.000000
21
279.000000
31
0.0
0
LINE
8
LINES
10
81.000000
20
747.000000
30
0.0
11
54.000000
21
747.000000
31
0.0
0
LINE
8
LINES
10
360.000000
20
171.000000
30
0.0
11
387.000000
21
171.000000
31
0.0
0
LINE
8
LINES
10
297.000000
20
126.000000
30
0.0
11
261.000000
21
126.000000
31
0.0
0
LINE
8
LINES
10
333.000000
20
684.000000
30
0.0
11
369.000000
21
684.000000
31
0.0
0
LINE
8
LINES
10
153.000000
20
909.000000
30
0.0
11
153.000000
21
882.000000
31
0.0
0
LINE
8
LINES
10
279.000000
20
783.000000
30
0.0
11
279.000000
21
756.000000
31
0.0
0
LINE
8
LINES
10
405.000000
20
477.000000
30
0.0
11
378.000000
21
477.000000
31
0.0
0
LINE
8
LINES
10
144.000000
20
234.000000
30
0.0
11
117.000000
21
234.000000
31
0.0
0
LINE
8
LINES
10
72.000000
20
351.000000
30
0.0
11
108.000000
21
351.000000
31
0.0
0
LINE
8
LINES
10
144.000000
20
612.000000
30
0.0
11
108.000000
21
612.000000
31
0.0
0
LINE
8
LINES
10
324.000000
20
162.000000
30
0.0
11
297.000000
21
162.000000
31
0.0
0
LINE
8
LINES
10
612.000000
20
315.000000
30
0.0
11
585.000000
21
315.000000
31
0.0
0
LINE
8
LINES
10
549.000000
20
432.000000
30
0.0
11
549.000000
21
405.000000
31
0.0
0
LINE
8
LINES
10
585.000000
20
549.000000
30
0.0
11
612.000000
21
549.000000
31
0.0
0
LINE
8
LINES
10
378.000000
20
666.000000
30
0.0
11
414.000000
21
666.000000
31
0.0
0
LINE
8
LINES
10
306.000000
20
630.000000
30
0.0
11
333.000000
21
630.000000
31
0.0
0
LINE
8
LINES
10
414.000000
20
108.000000
30
0.0
11
414.000000
21
81.000000
31
0.0
0
LINE
8
LINES
10
117.000000
20
783.000000
30
0.0
11
117.000000
21
756.000000
31
0.0
0
LINE
8
LINES
10
27.000000
20
846.000000
30
0.0
11
27.000000
21
819.000000
31
0.0
0
LINE
8
LINES
10
90.000000
20
117.000000
30
0.0
11
90.000000
21
90.000000
31
0.0
0
LINE
8
LINES
10
243.000000
20
9.000000
30
0.0
11
216.000000
21
9.000000
31
0.0
0
LINE
8
LINES
10
540.000000
20
828.000000
30
0.0
11
513.000000
21
828.000000
31
0.0
0
LINE
8
LINES
10
18.000000
20
180.000000
30
0.0
11
45.000000
21
180.000000
31
0.0
0
LINE
8
LINES
10
315.000000
20
495.000000
30
0.0
11
279.000000
21
495.000000
31
0.0
0
LINE
8
LINES
10
405.000000
20
423.000000
30
0.0
11
378.000000
21
423.000000
31
0.0
0
LINE
8
LINES
10
216.000000
20
999.000000
30
0.0
11
216.000000
21
963.000000
31
0.0
0
LINE
8
LINES
10
27.000000
20
909.000000
30
0.0
11
0.000000
21
909.000000
31
0.0
0
LINE
8
LINES
10
108.000000
20
450.000000
30
0.0
11
81.000000
21
450.000000
31
0.0
0
LINE
8
LINES
10
90.000000
20
783.000000
30
0.0
11
90.000000
21
756.000000
31
0.0
0
LINE
8
LINES
10
378.000000
20
603.000000
30
0.0
11
414.000000
21
603.000000
31
0.0
0
LINE
8
LINES
10
378.000000
20
594.000000
30
0.0
11
414.000000
21
594.000000
31
0.0
0
LINE
8
LINES
10
378.000000
20
540.000000
30
0.0
11
414.000000
21
540.000000
31
0.0
0
LINE
8
LINES
10
513.000000
20
702.000000
30
0.0
11
549.000000
21
702.000000
31
0.0
0
LINE
8
LINES
10
396.000000
20
504.000000
30
0.0
11
423.000000
21
504.000000
31
0.0
0
LINE
8
LINES
10
36.000000
20
909.000000
30
0.0
11
36.000000
21
882.000000
31
0.0
0
LINE
8
LINES
10
423.000000
20
171.000000
30
0.0
11
459.000000
21
171.000000
31
0.0
0
ENDSEC
0
EOF
