0
SECTION
2
ENTITIES
0
LWPOLYLINE
8
FACADE_OUTLINE
90
4
70
1
10
0.000000
20
0.000000
10
1024.000000
20
0.000000
10
1024.000000
20
648.000000
10
0.000000
20
648.000000
0
LWPOLYLINE
8
WINDOWS
90
4
70
1
10
0.000000
20
0.000000
10
1024.000000
20
0.000000
10
1024.000000
20
620.000000
10
0.000000
20
620.000000
0
LWPOLYLINE
8
WINDOWS
90
4
70
1
10
796.000000
20
57.000000
10
857.000000
20
57.000000
10
857.000000
20
102.000000
10
796.000000
20
102.000000
0
LWPOLYLINE
8
WINDOWS
90
4
70
1
10
452.000000
20
124.000000
10
508.000000
20
124.000000
10
508.000000
20
200.000000
10
452.000000
20
200.000000
0
LWPOLYLINE
8
WINDOWS
90
4
70
1
10
510.000000
20
124.000000
10
563.000000
20
124.000000
10
563.000000
20
198.000000
10
510.000000
20
198.000000
0
LWPOLYLINE
8
WINDOWS
90
4
70
1
10
564.000000
20
124.000000
10
620.000000
20
124.000000
10
620.000000
20
198.000000
10
564.000000
20
198.000000
0
LWPOLYLINE
8
WINDOWS
90
4
70
1
10
366.000000
20
126.000000
10
424.000000
20
126.000000
10
424.000000
20
201.000000
10
366.000000
20
201.000000
0
LWPOLYLINE
8
WINDOWS
90
4
70
1
10
702.000000
20
126.000000
10
760.000000
20
126.000000
10
760.000000
20
200.000000
10
702.000000
20
200.000000
0
LWPOLYLINE
8
WINDOWS
90
4
70
1
10
937.000000
20
150.000000
10
1019.000000
20
150.000000
10
1019.000000
20
232.000000
10
937.000000
20
232.000000
0
LWPOLYLINE
8
WINDOWS
90
4
70
1
10
825.000000
20
192.000000
10
892.000000
20
192.000000
10
892.000000
20
230.000000
10
825.000000
20
230.000000
0
LWPOLYLINE
8
WINDOWS
90
4
70
1
10
444.000000
20
235.000000
10
673.000000
20
235.000000
10
673.000000
20
340.000000
10
444.000000
20
340.000000
0
LWPOLYLINE
8
WINDOWS
90
4
70
1
10
356.000000
20
236.000000
10
435.000000
20
236.000000
10
435.000000
20
321.000000
10
356.000000
20
321.000000
0
LWPOLYLINE
8
WINDOWS
90
4
70
1
10
696.000000
20
236.000000
10
766.000000
20
236.000000
10
766.000000
20
321.000000
10
696.000000
20
321.000000
0
LWPOLYLINE
8
WINDOWS
90
4
70
1
10
563.000000
20
243.000000
10
620.000000
20
243.000000
10
620.000000
20
328.000000
10
563.000000
20
328.000000
0
LWPOLYLINE
8
WINDOWS
90
4
70
1
10
451.000000
20
244.000000
10
500.000000
20
244.000000
10
500.000000
20
328.000000
10
451.000000
20
328.000000
0
LWPOLYLINE
8
WINDOWS
90
4
70
1
10
500.000000
20
244.000000
10
561.000000
20
244.000000
10
561.000000
20
326.000000
10
500.000000
20
326.000000
0
LWPOLYLINE
8
WINDOWS
90
4
70
1
10
825.000000
20
276.000000
10
894.000000
20
276.000000
10
894.000000
20
329.000000
10
825.000000
20
329.000000
0
LWPOLYLINE
8
WINDOWS
90
4
70
1
10
355.000000
20
289.000000
10
428.000000
20
289.000000
10
428.000000
20
339.000000
10
355.000000
20
339.000000
0
LWPOLYLINE
8
WINDOWS
90
4
70
1
10
696.000000
20
289.000000
10
764.000000
20
289.000000
10
764.000000
20
339.000000
10
696.000000
20
339.000000
0
LWPOLYLINE
8
WINDOWS
90
4
70
1
10
320.000000
20
364.000000
10
902.000000
20
364.000000
10
902.000000
20
620.000000
10
320.000000
20
620.000000
0
LWPOLYLINE
8
WINDOWS
90
4
70
1
10
700.000000
20
368.000000
10
758.000000
20
368.000000
10
758.000000
20
456.000000
10
700.000000
20
456.000000
0
LWPOLYLINE
8
WINDOWS
90
4
70
1
10
451.000000
20
371.000000
10
507.000000
20
371.000000
10
507.000000
20
456.000000
10
451.000000
20
456.000000
0
LWPOLYLINE
8
WINDOWS
90
4
70
1
10
508.000000
20
371.000000
10
619.000000
20
371.000000
10
619.000000
20
448.000000
10
508.000000
20
448.000000
0
LWPOLYLINE
8
WINDOWS
90
4
70
1
10
702.000000
20
510.000000
10
758.000000
20
510.000000
10
758.000000
20
590.000000
10
702.000000
20
590.000000
0
LWPOLYLINE
8
WINDOWS
90
4
70
1
10
619.000000
20
510.000000
10
668.000000
20
510.000000
10
668.000000
20
590.000000
10
619.000000
20
590.000000
0
LWPOLYLINE
8
WINDOWS
90
4
70
1
10
366.000000
20
512.000000
10
416.000000
20
512.000000
10
416.000000
20
595.000000
10
366.000000
20
595.000000
0
LWPOLYLINE
8
WINDOWS
90
4
70
1
10
318.000000
20
529.000000
10
584.000000
20
529.000000
10
584.000000
20
633.000000
10
318.000000
20
633.000000
0
LWPOLYLINE
8
WINDOWS
90
4
70
1
10
62.000000
20
572.000000
10
145.000000
20
572.000000
10
145.000000
20
648.000000
10
62.000000
20
648.000000
0
LWPOLYLINE
8
WINDOWS
90
4
70
1
10
236.000000
20
572.000000
10
297.000000
20
572.000000
10
297.000000
20
648.000000
10
236.000000
20
648.000000
0
LWPOLYLINE
8
WINDOWS
90
4
70
1
10
27.000000
20
574.000000
10
76.000000
20
574.000000
10
76.000000
20
641.000000
10
27.000000
20
641.000000
0
LWPOLYLINE
8
DOORS
90
4
70
1
10
104.000000
20
448.000000
10
142.000000
20
448.000000
10
142.000000
20
520.000000
10
104.000000
20
520.000000
0
LWPOLYLINE
8
DOORS
90
4
70
1
10
449.000000
20
510.000000
10
494.000000
20
510.000000
10
494.000000
20
590.000000
10
449.000000
20
590.000000
0
LWPOLYLINE
8
DOORS
90
4
70
1
10
195.000000
20
561.000000
10
241.000000
20
561.000000
10
241.000000
20
648.000000
10
195.000000
20
648.000000
0
LWPOLYLINE
8
DOORS
90
4
70
1
10
203.000000
20
582.000000
10
235.000000
20
582.000000
10
235.000000
20
643.000000
10
203.000000
20
643.000000
0
LINE
8
LINES
10
329.000000
20
217.000000
30
0.0
11
793.000000
21
217.000000
31
0.0
0
LINE
8
LINES
10
318.000000
20
644.000000
30
0.0
11
726.000000
21
644.000000
31
0.0
0
LINE
8
LINES
10
1022.000000
20
147.000000
30
0.0
11
662.000000
21
1.000000
31
0.0
0
LINE
8
LINES
10
787.000000
20
65.000000
30
0.0
11
408.000000
21
65.000000
31
0.0
0
LINE
8
LINES
10
433.000000
20
89.000000
30
0.0
11
793.000000
21
89.000000
31
0.0
0
LINE
8
LINES
10
771.000000
20
486.000000
30
0.0
11
476.000000
21
486.000000
31
0.0
0
LINE
8
LINES
10
478.000000
20
481.000000
30
0.0
11
771.000000
21
481.000000
31
0.0
0
LINE
8
LINES
10
408.000000
20
70.000000
30
0.0
11
691.000000
21
70.000000
31
0.0
0
LINE
8
LINES
10
688.000000
20
201.000000
30
0.0
11
425.000000
21
201.000000
31
0.0
0
LINE
8
LINES
10
427.000000
20
204.000000
30
0.0
11
686.000000
21
204.000000
31
0.0
0
LINE
8
LINES
10
995.000000
20
582.000000
30
0.0
11
1022.000000
21
331.000000
31
0.0
0
LINE
8
LINES
10
686.000000
20
209.000000
30
0.0
11
432.000000
21
209.000000
31
0.0
0
LINE
8
LINES
10
684.000000
20
88.000000
30
0.0
11
433.000000
21
88.000000
31
0.0
0
LINE
8
LINES
10
318.000000
20
609.000000
30
0.0
11
537.000000
21
609.000000
31
0.0
0
LINE
8
LINES
10
798.000000
20
508.000000
30
0.0
11
1001.000000
21
508.000000
31
0.0
0
LINE
8
LINES
10
326.000000
20
614.000000
30
0.0
11
526.000000
21
614.000000
31
0.0
0
LINE
8
LINES
10
526.000000
20
616.000000
30
0.0
11
326.000000
21
616.000000
31
0.0
0
LINE
8
LINES
10
798.000000
20
139.000000
30
0.0
11
798.000000
21
334.000000
31
0.0
0
LINE
8
LINES
10
326.000000
20
489.000000
30
0.0
11
513.000000
21
489.000000
31
0.0
0
LINE
8
LINES
10
177.000000
20
156.000000
30
0.0
11
1.000000
21
156.000000
31
0.0
0
LINE
8
LINES
10
1.000000
20
134.000000
30
0.0
11
172.000000
21
134.000000
31
0.0
0
LINE
8
LINES
10
329.000000
20
388.000000
30
0.0
11
329.000000
21
220.000000
31
0.0
0
LINE
8
LINES
10
318.000000
20
481.000000
30
0.0
11
473.000000
21
481.000000
31
0.0
0
LINE
8
LINES
10
326.000000
20
454.000000
30
0.0
11
476.000000
21
454.000000
31
0.0
0
LINE
8
LINES
10
473.000000
20
446.000000
30
0.0
11
616.000000
21
446.000000
31
0.0
0
LINE
8
LINES
10
582.000000
20
608.000000
30
0.0
11
723.000000
21
608.000000
31
0.0
0
LINE
8
LINES
10
582.000000
20
612.000000
30
0.0
11
721.000000
21
612.000000
31
0.0
0
LINE
8
LINES
10
17.000000
20
1.000000
30
0.0
11
134.000000
21
73.000000
31
0.0
0
LINE
8
LINES
10
622.000000
20
480.000000
30
0.0
11
756.000000
21
480.000000
31
0.0
0
LINE
8
LINES
10
136.000000
20
131.000000
30
0.0
11
1.000000
21
131.000000
31
0.0
0
LINE
8
LINES
10
0.000000
20
518.000000
30
0.0
11
41.000000
21
646.000000
31
0.0
0
LINE
8
LINES
10
790.000000
20
126.000000
30
0.0
11
924.000000
21
126.000000
31
0.0
0
LINE
8
LINES
10
1.000000
20
129.000000
30
0.0
11
134.000000
21
129.000000
31
0.0
0
LINE
8
LINES
10
331.000000
20
57.000000
30
0.0
11
462.000000
21
57.000000
31
0.0
0
LINE
8
LINES
10
792.000000
20
134.000000
30
0.0
11
921.000000
21
134.000000
31
0.0
0
LINE
8
LINES
10
131.000000
20
123.000000
30
0.0
11
1.000000
21
123.000000
31
0.0
0
LINE
8
LINES
10
428.000000
20
83.000000
30
0.0
11
556.000000
21
83.000000
31
0.0
0
LINE
8
LINES
10
657.000000
20
454.000000
30
0.0
11
771.000000
21
454.000000
31
0.0
0
LINE
8
LINES
10
883.000000
20
611.000000
30
0.0
11
993.000000
21
611.000000
31
0.0
0
LINE
8
LINES
10
899.000000
20
369.000000
30
0.0
11
788.000000
21
369.000000
31
0.0
0
LINE
8
LINES
10
558.000000
20
83.000000
30
0.0
11
668.000000
21
83.000000
31
0.0
0
LINE
8
LINES
10
1.000000
20
115.000000
30
0.0
11
108.000000
21
115.000000
31
0.0
0
LINE
8
LINES
10
236.000000
20
636.000000
30
0.0
11
342.000000
21
636.000000
31
0.0
0
LINE
8
LINES
10
792.000000
20
372.000000
30
0.0
11
899.000000
21
372.000000
31
0.0
0
LINE
8
LINES
10
446.000000
20
364.000000
30
0.0
11
553.000000
21
364.000000
31
0.0
0
LINE
8
LINES
10
329.000000
20
606.000000
30
0.0
11
329.000000
21
500.000000
31
0.0
0
LINE
8
LINES
10
793.000000
20
89.000000
30
0.0
11
688.000000
21
89.000000
31
0.0
0
LINE
8
LINES
10
432.000000
20
211.000000
30
0.0
11
328.000000
21
211.000000
31
0.0
0
LINE
8
LINES
10
689.000000
20
204.000000
30
0.0
11
792.000000
21
204.000000
31
0.0
0
LINE
8
LINES
10
102.000000
20
145.000000
30
0.0
11
1.000000
21
145.000000
31
0.0
0
LINE
8
LINES
10
433.000000
20
492.000000
30
0.0
11
331.000000
21
492.000000
31
0.0
0
LINE
8
LINES
10
798.000000
20
366.000000
30
0.0
11
900.000000
21
366.000000
31
0.0
0
LINE
8
LINES
10
731.000000
20
619.000000
30
0.0
11
832.000000
21
619.000000
31
0.0
0
LINE
8
LINES
10
792.000000
20
201.000000
30
0.0
11
691.000000
21
201.000000
31
0.0
0
LINE
8
LINES
10
691.000000
20
86.000000
30
0.0
11
792.000000
21
86.000000
31
0.0
0
LINE
8
LINES
10
896.000000
20
100.000000
30
0.0
11
795.000000
21
100.000000
31
0.0
0
LINE
8
LINES
10
897.000000
20
337.000000
30
0.0
11
798.000000
21
337.000000
31
0.0
0
LINE
8
LINES
10
1.000000
20
140.000000
30
0.0
11
100.000000
21
140.000000
31
0.0
0
LINE
8
LINES
10
782.000000
20
403.000000
30
0.0
11
782.000000
21
502.000000
31
0.0
0
LINE
8
LINES
10
691.000000
20
73.000000
30
0.0
11
790.000000
21
73.000000
31
0.0
0
LINE
8
LINES
10
422.000000
20
201.000000
30
0.0
11
323.000000
21
201.000000
31
0.0
0
LINE
8
LINES
10
897.000000
20
377.000000
30
0.0
11
798.000000
21
377.000000
31
0.0
0
LINE
8
LINES
10
435.000000
20
496.000000
30
0.0
11
435.000000
21
593.000000
31
0.0
0
LINE
8
LINES
10
326.000000
20
206.000000
30
0.0
11
424.000000
21
206.000000
31
0.0
0
LINE
8
LINES
10
419.000000
20
484.000000
30
0.0
11
321.000000
21
484.000000
31
0.0
0
LINE
8
LINES
10
681.000000
20
616.000000
30
0.0
11
584.000000
21
616.000000
31
0.0
0
LINE
8
LINES
10
924.000000
20
348.000000
30
0.0
11
1019.000000
21
348.000000
31
0.0
0
LINE
8
LINES
10
1017.000000
20
350.000000
30
0.0
11
923.000000
21
350.000000
31
0.0
0
LINE
8
LINES
10
1017.000000
20
355.000000
30
0.0
11
921.000000
21
355.000000
31
0.0
0
LINE
8
LINES
10
542.000000
20
81.000000
30
0.0
11
448.000000
21
81.000000
31
0.0
0
LINE
8
LINES
10
796.000000
20
502.000000
30
0.0
11
796.000000
21
409.000000
31
0.0
0
LINE
8
LINES
10
904.000000
20
256.000000
30
0.0
11
811.000000
21
256.000000
31
0.0
0
LINE
8
LINES
10
505.000000
20
59.000000
30
0.0
11
598.000000
21
59.000000
31
0.0
0
LINE
8
LINES
10
796.000000
20
334.000000
30
0.0
11
796.000000
21
241.000000
31
0.0
0
LINE
8
LINES
10
681.000000
20
492.000000
30
0.0
11
592.000000
21
492.000000
31
0.0
0
LINE
8
LINES
10
924.000000
20
384.000000
30
0.0
11
1014.000000
21
384.000000
31
0.0
0
LINE
8
LINES
10
1012.000000
20
388.000000
30
0.0
11
923.000000
21
388.000000
31
0.0
0
LINE
8
LINES
10
926.000000
20
377.000000
30
0.0
11
1016.000000
21
377.000000
31
0.0
0
LINE
8
LINES
10
812.000000
20
259.000000
30
0.0
11
902.000000
21
259.000000
31
0.0
0
LINE
8
LINES
10
1014.000000
20
380.000000
30
0.0
11
926.000000
21
380.000000
31
0.0
0
LINE
8
LINES
10
592.000000
20
35.000000
30
0.0
11
504.000000
21
35.000000
31
0.0
0
LINE
8
LINES
10
793.000000
20
593.000000
30
0.0
11
793.000000
21
508.000000
31
0.0
0
LINE
8
LINES
10
934.000000
20
254.000000
30
0.0
11
1017.000000
21
254.000000
31
0.0
0
LINE
8
LINES
10
798.000000
20
510.000000
30
0.0
11
798.000000
21
593.000000
31
0.0
0
LINE
8
LINES
10
332.000000
20
243.000000
30
0.0
11
417.000000
21
243.000000
31
0.0
0
LINE
8
LINES
10
1017.000000
20
265.000000
30
0.0
11
932.000000
21
265.000000
31
0.0
0
LINE
8
LINES
10
1006.000000
20
144.000000
30
0.0
11
921.000000
21
144.000000
31
0.0
0
LINE
8
LINES
10
516.000000
20
489.000000
30
0.0
11
601.000000
21
489.000000
31
0.0
0
LINE
8
LINES
10
177.000000
20
116.000000
30
0.0
11
260.000000
21
116.000000
31
0.0
0
LINE
8
LINES
10
771.000000
20
492.000000
30
0.0
11
688.000000
21
492.000000
31
0.0
0
LINE
8
LINES
10
78.000000
20
46.000000
30
0.0
11
12.000000
21
0.000000
31
0.0
0
LINE
8
LINES
10
924.000000
20
473.000000
30
0.0
11
1006.000000
21
473.000000
31
0.0
0
LINE
8
LINES
10
904.000000
20
264.000000
30
0.0
11
822.000000
21
264.000000
31
0.0
0
LINE
8
LINES
10
1004.000000
20
481.000000
30
0.0
11
923.000000
21
481.000000
31
0.0
0
LINE
8
LINES
10
542.000000
20
219.000000
30
0.0
11
460.000000
21
219.000000
31
0.0
0
LINE
8
LINES
10
198.000000
20
641.000000
30
0.0
11
198.000000
21
561.000000
31
0.0
0
LINE
8
LINES
10
44.000000
20
643.000000
30
0.0
11
124.000000
21
643.000000
31
0.0
0
LINE
8
LINES
10
552.000000
20
323.000000
30
0.0
11
552.000000
21
243.000000
31
0.0
0
LINE
8
LINES
10
1001.000000
20
510.000000
30
0.0
11
921.000000
21
510.000000
31
0.0
0
LINE
8
LINES
10
897.000000
20
129.000000
30
0.0
11
817.000000
21
129.000000
31
0.0
0
LINE
8
LINES
10
625.000000
20
219.000000
30
0.0
11
547.000000
21
219.000000
31
0.0
0
LINE
8
LINES
10
684.000000
20
60.000000
30
0.0
11
761.000000
21
60.000000
31
0.0
0
LINE
8
LINES
10
665.000000
20
323.000000
30
0.0
11
665.000000
21
246.000000
31
0.0
0
LINE
8
LINES
10
419.000000
20
451.000000
30
0.0
11
419.000000
21
374.000000
31
0.0
0
LINE
8
LINES
10
608.000000
20
323.000000
30
0.0
11
608.000000
21
248.000000
31
0.0
0
LINE
8
LINES
10
756.000000
20
323.000000
30
0.0
11
756.000000
21
248.000000
31
0.0
0
LINE
8
LINES
10
497.000000
20
323.000000
30
0.0
11
497.000000
21
248.000000
31
0.0
0
LINE
8
LINES
10
1017.000000
20
257.000000
30
0.0
11
940.000000
21
257.000000
31
0.0
0
LINE
8
LINES
10
921.000000
20
137.000000
30
0.0
11
996.000000
21
137.000000
31
0.0
0
LINE
8
LINES
10
260.000000
20
121.000000
30
0.0
11
187.000000
21
121.000000
31
0.0
0
LINE
8
LINES
10
145.000000
20
572.000000
30
0.0
11
145.000000
21
646.000000
31
0.0
0
LINE
8
LINES
10
185.000000
20
48.000000
30
0.0
11
241.000000
21
94.000000
31
0.0
0
LINE
8
LINES
10
464.000000
20
440.000000
30
0.0
11
537.000000
21
440.000000
31
0.0
0
LINE
8
LINES
10
622.000000
20
380.000000
30
0.0
11
622.000000
21
452.000000
31
0.0
0
LINE
8
LINES
10
510.000000
20
123.000000
30
0.0
11
510.000000
21
195.000000
31
0.0
0
LINE
8
LINES
10
624.000000
20
123.000000
30
0.0
11
624.000000
21
195.000000
31
0.0
0
LINE
8
LINES
10
566.000000
20
123.000000
30
0.0
11
566.000000
21
195.000000
31
0.0
0
LINE
8
LINES
10
606.000000
20
195.000000
30
0.0
11
606.000000
21
123.000000
31
0.0
0
LINE
8
LINES
10
420.000000
20
323.000000
30
0.0
11
420.000000
21
252.000000
31
0.0
0
LINE
8
LINES
10
552.000000
20
195.000000
30
0.0
11
552.000000
21
123.000000
31
0.0
0
LINE
8
LINES
10
366.000000
20
124.000000
30
0.0
11
366.000000
21
196.000000
31
0.0
0
LINE
8
LINES
10
291.000000
20
145.000000
30
0.0
11
219.000000
21
145.000000
31
0.0
0
LINE
8
LINES
10
596.000000
20
38.000000
30
0.0
11
524.000000
21
38.000000
31
0.0
0
LINE
8
LINES
10
940.000000
20
262.000000
30
0.0
11
1012.000000
21
262.000000
31
0.0
0
LINE
8
LINES
10
806.000000
20
252.000000
30
0.0
11
878.000000
21
252.000000
31
0.0
0
LINE
8
LINES
10
564.000000
20
252.000000
30
0.0
11
564.000000
21
323.000000
31
0.0
0
LINE
8
LINES
10
452.000000
20
380.000000
30
0.0
11
452.000000
21
451.000000
31
0.0
0
LINE
8
LINES
10
526.000000
20
36.000000
30
0.0
11
596.000000
21
36.000000
31
0.0
0
LINE
8
LINES
10
430.000000
20
33.000000
30
0.0
11
499.000000
21
40.000000
31
0.0
0
LINE
8
LINES
10
801.000000
20
100.000000
30
0.0
11
870.000000
21
100.000000
31
0.0
0
LINE
8
LINES
10
508.000000
20
252.000000
30
0.0
11
508.000000
21
323.000000
31
0.0
0
LINE
8
LINES
10
452.000000
20
252.000000
30
0.0
11
452.000000
21
323.000000
31
0.0
0
LINE
8
LINES
10
622.000000
20
252.000000
30
0.0
11
622.000000
21
323.000000
31
0.0
0
LINE
8
LINES
10
665.000000
20
451.000000
30
0.0
11
665.000000
21
380.000000
31
0.0
0
LINE
8
LINES
10
625.000000
20
508.000000
30
0.0
11
625.000000
21
577.000000
31
0.0
0
LINE
8
LINES
10
662.000000
20
577.000000
30
0.0
11
662.000000
21
508.000000
31
0.0
0
LINE
8
LINES
10
492.000000
20
577.000000
30
0.0
11
492.000000
21
508.000000
31
0.0
0
LINE
8
LINES
10
353.000000
20
364.000000
30
0.0
11
424.000000
21
364.000000
31
0.0
0
LINE
8
LINES
10
822.000000
20
276.000000
30
0.0
11
892.000000
21
276.000000
31
0.0
0
LINE
8
LINES
10
166.000000
20
38.000000
30
0.0
11
108.000000
21
1.000000
31
0.0
0
LINE
8
LINES
10
262.000000
20
118.000000
30
0.0
11
331.000000
21
118.000000
31
0.0
0
LINE
8
LINES
10
107.000000
20
142.000000
30
0.0
11
176.000000
21
142.000000
31
0.0
0
LINE
8
LINES
10
454.000000
20
126.000000
30
0.0
11
454.000000
21
195.000000
31
0.0
0
LINE
8
LINES
10
707.000000
20
508.000000
30
0.0
11
707.000000
21
577.000000
31
0.0
0
LINE
8
LINES
10
752.000000
20
577.000000
30
0.0
11
752.000000
21
508.000000
31
0.0
0
LINE
8
LINES
10
457.000000
20
508.000000
30
0.0
11
457.000000
21
577.000000
31
0.0
0
LINE
8
LINES
10
371.000000
20
508.000000
30
0.0
11
371.000000
21
577.000000
31
0.0
0
LINE
8
LINES
10
528.000000
20
41.000000
30
0.0
11
596.000000
21
41.000000
31
0.0
0
LINE
8
LINES
10
142.000000
20
318.000000
30
0.0
11
142.000000
21
387.000000
31
0.0
0
LINE
8
LINES
10
67.000000
20
448.000000
30
0.0
11
67.000000
21
515.000000
31
0.0
0
LINE
8
LINES
10
664.000000
20
195.000000
30
0.0
11
664.000000
21
128.000000
31
0.0
0
LINE
8
LINES
10
414.000000
20
577.000000
30
0.0
11
414.000000
21
510.000000
31
0.0
0
LINE
8
LINES
10
897.000000
20
497.000000
30
0.0
11
966.000000
21
497.000000
31
0.0
0
LINE
8
LINES
10
75.000000
20
572.000000
30
0.0
11
75.000000
21
640.000000
31
0.0
0
LINE
8
LINES
10
196.000000
20
68.000000
30
0.0
11
248.000000
21
112.000000
31
0.0
0
LINE
8
LINES
10
822.000000
20
380.000000
30
0.0
11
888.000000
21
380.000000
31
0.0
0
LINE
8
LINES
10
537.000000
20
606.000000
30
0.0
11
537.000000
21
539.000000
31
0.0
0
LINE
8
LINES
10
657.000000
20
385.000000
30
0.0
11
657.000000
21
451.000000
31
0.0
0
LINE
8
LINES
10
424.000000
20
368.000000
30
0.0
11
358.000000
21
368.000000
31
0.0
0
LINE
8
LINES
10
705.000000
20
131.000000
30
0.0
11
705.000000
21
196.000000
31
0.0
0
LINE
8
LINES
10
420.000000
20
196.000000
30
0.0
11
420.000000
21
131.000000
31
0.0
0
LINE
8
LINES
10
756.000000
20
196.000000
30
0.0
11
756.000000
21
131.000000
31
0.0
0
LINE
8
LINES
10
494.000000
20
195.000000
30
0.0
11
494.000000
21
129.000000
31
0.0
0
LINE
8
LINES
10
356.000000
20
236.000000
30
0.0
11
422.000000
21
236.000000
31
0.0
0
LINE
8
LINES
10
489.000000
20
483.000000
30
0.0
11
422.000000
21
483.000000
31
0.0
0
LINE
8
LINES
10
582.000000
20
542.000000
30
0.0
11
582.000000
21
606.000000
31
0.0
0
LINE
8
LINES
10
529.000000
20
539.000000
30
0.0
11
529.000000
21
604.000000
31
0.0
0
LINE
8
LINES
10
888.000000
20
227.000000
30
0.0
11
822.000000
21
227.000000
31
0.0
0
LINE
8
LINES
10
236.000000
20
448.000000
30
0.0
11
236.000000
21
513.000000
31
0.0
0
LINE
8
LINES
10
140.000000
20
448.000000
30
0.0
11
140.000000
21
513.000000
31
0.0
0
LINE
8
LINES
10
918.000000
20
510.000000
30
0.0
11
852.000000
21
510.000000
31
0.0
0
LINE
8
LINES
10
169.000000
20
147.000000
30
0.0
11
104.000000
21
147.000000
31
0.0
0
LINE
8
LINES
10
240.000000
20
572.000000
30
0.0
11
240.000000
21
636.000000
31
0.0
0
LINE
8
LINES
10
411.000000
20
387.000000
30
0.0
11
411.000000
21
451.000000
31
0.0
0
LINE
8
LINES
10
489.000000
20
259.000000
30
0.0
11
489.000000
21
323.000000
31
0.0
0
LINE
8
LINES
10
705.000000
20
260.000000
30
0.0
11
705.000000
21
323.000000
31
0.0
0
LINE
8
LINES
10
97.000000
20
638.000000
30
0.0
11
97.000000
21
574.000000
31
0.0
0
LINE
8
LINES
10
622.000000
20
33.000000
30
0.0
11
686.000000
21
33.000000
31
0.0
0
LINE
8
LINES
10
825.000000
20
222.000000
30
0.0
11
889.000000
21
222.000000
31
0.0
0
LINE
8
LINES
10
657.000000
20
259.000000
30
0.0
11
657.000000
21
323.000000
31
0.0
0
LINE
8
LINES
10
420.000000
20
238.000000
30
0.0
11
356.000000
21
238.000000
31
0.0
0
LINE
8
LINES
10
696.000000
20
364.000000
30
0.0
11
758.000000
21
364.000000
31
0.0
0
LINE
8
LINES
10
889.000000
20
158.000000
30
0.0
11
825.000000
21
158.000000
31
0.0
0
LINE
8
LINES
10
945.000000
20
278.000000
30
0.0
11
1009.000000
21
278.000000
31
0.0
0
LINE
8
LINES
10
409.000000
20
513.000000
30
0.0
11
409.000000
21
577.000000
31
0.0
0
LINE
8
LINES
10
291.000000
20
449.000000
30
0.0
11
291.000000
21
512.000000
31
0.0
0
LINE
8
LINES
10
545.000000
20
260.000000
30
0.0
11
545.000000
21
323.000000
31
0.0
0
LINE
8
LINES
10
438.000000
20
240.000000
30
0.0
11
500.000000
21
240.000000
31
0.0
0
LINE
8
LINES
10
840.000000
20
611.000000
30
0.0
11
840.000000
21
548.000000
31
0.0
0
LINE
8
LINES
10
761.000000
20
368.000000
30
0.0
11
697.000000
21
368.000000
31
0.0
0
LINE
8
LINES
10
368.000000
20
388.000000
30
0.0
11
368.000000
21
451.000000
31
0.0
0
LINE
8
LINES
10
761.000000
20
329.000000
30
0.0
11
697.000000
21
329.000000
31
0.0
0
LINE
8
LINES
10
353.000000
20
115.000000
30
0.0
11
416.000000
21
115.000000
31
0.0
0
LINE
8
LINES
10
696.000000
20
115.000000
30
0.0
11
758.000000
21
115.000000
31
0.0
0
LINE
8
LINES
10
526.000000
20
30.000000
30
0.0
11
588.000000
21
30.000000
31
0.0
0
LINE
8
LINES
10
758.000000
20
118.000000
30
0.0
11
697.000000
21
118.000000
31
0.0
0
LINE
8
LINES
10
838.000000
20
336.000000
30
0.0
11
900.000000
21
336.000000
31
0.0
0
LINE
8
LINES
10
238.000000
20
193.000000
30
0.0
11
238.000000
21
256.000000
31
0.0
0
LINE
8
LINES
10
254.000000
20
633.000000
30
0.0
11
254.000000
21
572.000000
31
0.0
0
LINE
8
LINES
10
68.000000
20
195.000000
30
0.0
11
68.000000
21
257.000000
31
0.0
0
LINE
8
LINES
10
67.000000
20
321.000000
30
0.0
11
67.000000
21
382.000000
31
0.0
0
LINE
8
LINES
10
292.000000
20
318.000000
30
0.0
11
292.000000
21
380.000000
31
0.0
0
LINE
8
LINES
10
236.000000
20
318.000000
30
0.0
11
236.000000
21
380.000000
31
0.0
0
LINE
8
LINES
10
756.000000
20
451.000000
30
0.0
11
756.000000
21
390.000000
31
0.0
0
LINE
8
LINES
10
889.000000
20
281.000000
30
0.0
11
828.000000
21
281.000000
31
0.0
0
LINE
8
LINES
10
294.000000
20
572.000000
30
0.0
11
294.000000
21
633.000000
31
0.0
0
LINE
8
LINES
10
292.000000
20
195.000000
30
0.0
11
292.000000
21
256.000000
31
0.0
0
LINE
8
LINES
10
142.000000
20
196.000000
30
0.0
11
142.000000
21
257.000000
31
0.0
0
LINE
8
LINES
10
756.000000
20
238.000000
30
0.0
11
697.000000
21
238.000000
31
0.0
0
LINE
8
LINES
10
697.000000
20
236.000000
30
0.0
11
758.000000
21
236.000000
31
0.0
0
LINE
8
LINES
10
697.000000
20
123.000000
30
0.0
11
758.000000
21
123.000000
31
0.0
0
LINE
8
LINES
10
329.000000
20
451.000000
30
0.0
11
329.000000
21
390.000000
31
0.0
0
LINE
8
LINES
10
105.000000
20
579.000000
30
0.0
11
105.000000
21
638.000000
31
0.0
0
LINE
8
LINES
10
734.000000
20
198.000000
30
0.0
11
793.000000
21
198.000000
31
0.0
0
LINE
8
LINES
10
600.000000
20
257.000000
30
0.0
11
600.000000
21
316.000000
31
0.0
0
LINE
8
LINES
10
1006.000000
20
230.000000
30
0.0
11
947.000000
21
230.000000
31
0.0
0
LINE
8
LINES
10
697.000000
20
241.000000
30
0.0
11
755.000000
21
241.000000
31
0.0
0
LINE
8
LINES
10
945.000000
20
606.000000
30
0.0
11
945.000000
21
547.000000
31
0.0
0
LINE
8
LINES
10
609.000000
20
438.000000
30
0.0
11
609.000000
21
380.000000
31
0.0
0
LINE
8
LINES
10
828.000000
20
156.000000
30
0.0
11
888.000000
21
156.000000
31
0.0
0
LINE
8
LINES
10
416.000000
20
118.000000
30
0.0
11
356.000000
21
118.000000
31
0.0
0
LINE
8
LINES
10
1006.000000
20
163.000000
30
0.0
11
947.000000
21
163.000000
31
0.0
0
LINE
8
LINES
10
364.000000
20
369.000000
30
0.0
11
422.000000
21
369.000000
31
0.0
0
LINE
8
LINES
10
718.000000
20
571.000000
30
0.0
11
713.000000
21
513.000000
31
0.0
0
LINE
8
LINES
10
508.000000
20
380.000000
30
0.0
11
508.000000
21
438.000000
31
0.0
0
LINE
8
LINES
10
564.000000
20
380.000000
30
0.0
11
564.000000
21
438.000000
31
0.0
0
LINE
8
LINES
10
368.000000
20
267.000000
30
0.0
11
368.000000
21
323.000000
31
0.0
0
LINE
8
LINES
10
492.000000
20
491.000000
30
0.0
11
435.000000
21
491.000000
31
0.0
0
LINE
8
LINES
10
947.000000
20
225.000000
30
0.0
11
1006.000000
21
225.000000
31
0.0
0
LINE
8
LINES
10
553.000000
20
438.000000
30
0.0
11
553.000000
21
380.000000
31
0.0
0
LINE
8
LINES
10
1006.000000
20
283.000000
30
0.0
11
948.000000
21
283.000000
31
0.0
0
LINE
8
LINES
10
704.000000
20
396.000000
30
0.0
11
704.000000
21
451.000000
31
0.0
0
LINE
8
LINES
10
497.000000
20
436.000000
30
0.0
11
497.000000
21
380.000000
31
0.0
0
LINE
8
LINES
10
729.000000
20
606.000000
30
0.0
11
785.000000
21
606.000000
31
0.0
0
LINE
8
LINES
10
358.000000
20
123.000000
30
0.0
11
414.000000
21
123.000000
31
0.0
0
LINE
8
LINES
10
329.000000
20
129.000000
30
0.0
11
275.000000
21
120.000000
31
0.0
0
LINE
8
LINES
10
238.000000
20
96.000000
30
0.0
11
195.000000
21
59.000000
31
0.0
0
LINE
8
LINES
10
444.000000
20
324.000000
30
0.0
11
499.000000
21
324.000000
31
0.0
0
LINE
8
LINES
10
611.000000
20
368.000000
30
0.0
11
667.000000
21
368.000000
31
0.0
0
LINE
8
LINES
10
417.000000
20
329.000000
30
0.0
11
361.000000
21
329.000000
31
0.0
0
LINE
8
LINES
10
950.000000
20
158.000000
30
0.0
11
1006.000000
21
158.000000
31
0.0
0
LINE
8
LINES
10
20.000000
20
572.000000
30
0.0
11
76.000000
21
572.000000
31
0.0
0
LINE
8
LINES
10
204.000000
20
585.000000
30
0.0
11
204.000000
21
641.000000
31
0.0
0
LINE
8
LINES
10
260.000000
20
579.000000
30
0.0
11
260.000000
21
633.000000
31
0.0
0
LINE
8
LINES
10
699.000000
20
332.000000
30
0.0
11
753.000000
21
332.000000
31
0.0
0
LINE
8
LINES
10
361.000000
20
331.000000
30
0.0
11
417.000000
21
331.000000
31
0.0
0
LINE
8
LINES
10
502.000000
20
240.000000
30
0.0
11
556.000000
21
240.000000
31
0.0
0
LINE
8
LINES
10
499.000000
20
366.000000
30
0.0
11
446.000000
21
366.000000
31
0.0
0
LINE
8
LINES
10
556.000000
20
366.000000
30
0.0
11
502.000000
21
366.000000
31
0.0
0
LINE
8
LINES
10
446.000000
20
233.000000
30
0.0
11
499.000000
21
233.000000
31
0.0
0
LINE
8
LINES
10
977.000000
20
132.000000
30
0.0
11
924.000000
21
132.000000
31
0.0
0
LINE
8
LINES
10
446.000000
20
329.000000
30
0.0
11
500.000000
21
329.000000
31
0.0
0
LINE
8
LINES
10
772.000000
20
452.000000
30
0.0
11
772.000000
21
398.000000
31
0.0
0
LINE
8
LINES
10
340.000000
20
20.000000
30
0.0
11
288.000000
21
11.000000
31
0.0
0
LINE
8
LINES
10
950.000000
20
291.000000
30
0.0
11
950.000000
21
342.000000
31
0.0
0
LINE
8
LINES
10
558.000000
20
240.000000
30
0.0
11
611.000000
21
240.000000
31
0.0
0
LINE
8
LINES
10
446.000000
20
120.000000
30
0.0
11
497.000000
21
120.000000
31
0.0
0
LINE
8
LINES
10
422.000000
20
198.000000
30
0.0
11
476.000000
21
198.000000
31
0.0
0
LINE
8
LINES
10
801.000000
20
521.000000
30
0.0
11
852.000000
21
521.000000
31
0.0
0
LINE
8
LINES
10
945.000000
20
544.000000
30
0.0
11
998.000000
21
544.000000
31
0.0
0
LINE
8
LINES
10
558.000000
20
368.000000
30
0.0
11
611.000000
21
368.000000
31
0.0
0
LINE
8
LINES
10
446.000000
20
368.000000
30
0.0
11
497.000000
21
368.000000
31
0.0
0
LINE
8
LINES
10
502.000000
20
368.000000
30
0.0
11
553.000000
21
368.000000
31
0.0
0
LINE
8
LINES
10
553.000000
20
235.000000
30
0.0
11
606.000000
21
235.000000
31
0.0
0
LINE
8
LINES
10
558.000000
20
364.000000
30
0.0
11
611.000000
21
364.000000
31
0.0
0
LINE
8
LINES
10
892.000000
20
275.000000
30
0.0
11
892.000000
21
328.000000
31
0.0
0
LINE
8
LINES
10
422.000000
20
220.000000
30
0.0
11
369.000000
21
220.000000
31
0.0
0
LINE
8
LINES
10
89.000000
20
52.000000
30
0.0
11
131.000000
21
83.000000
31
0.0
0
LINE
8
LINES
10
924.000000
20
129.000000
30
0.0
11
976.000000
21
129.000000
31
0.0
0
LINE
8
LINES
10
488.000000
20
387.000000
30
0.0
11
488.000000
21
438.000000
31
0.0
0
LINE
8
LINES
10
553.000000
20
236.000000
30
0.0
11
502.000000
21
236.000000
31
0.0
0
LINE
8
LINES
10
611.000000
20
366.000000
30
0.0
11
558.000000
21
366.000000
31
0.0
0
LINE
8
LINES
10
502.000000
20
121.000000
30
0.0
11
553.000000
21
121.000000
31
0.0
0
LINE
8
LINES
10
668.000000
20
366.000000
30
0.0
11
617.000000
21
366.000000
31
0.0
0
LINE
8
LINES
10
267.000000
20
633.000000
30
0.0
11
267.000000
21
582.000000
31
0.0
0
LINE
8
LINES
10
616.000000
20
364.000000
30
0.0
11
667.000000
21
364.000000
31
0.0
0
LINE
8
LINES
10
502.000000
20
331.000000
30
0.0
11
553.000000
21
331.000000
31
0.0
0
LINE
8
LINES
10
443.000000
20
113.000000
30
0.0
11
494.000000
21
113.000000
31
0.0
0
LINE
8
LINES
10
499.000000
20
113.000000
30
0.0
11
550.000000
21
113.000000
31
0.0
0
LINE
8
LINES
10
756.000000
20
336.000000
30
0.0
11
705.000000
21
336.000000
31
0.0
0
LINE
8
LINES
10
616.000000
20
38.000000
30
0.0
11
667.000000
21
38.000000
31
0.0
0
LINE
8
LINES
10
883.000000
20
140.000000
30
0.0
11
832.000000
21
140.000000
31
0.0
0
LINE
8
LINES
10
838.000000
20
342.000000
30
0.0
11
891.000000
21
342.000000
31
0.0
0
LINE
8
LINES
10
108.000000
20
252.000000
30
0.0
11
108.000000
21
201.000000
31
0.0
0
LINE
8
LINES
10
851.000000
20
516.000000
30
0.0
11
902.000000
21
526.000000
31
0.0
0
LINE
8
LINES
10
558.000000
20
121.000000
30
0.0
11
609.000000
21
121.000000
31
0.0
0
LINE
8
LINES
10
552.000000
20
328.000000
30
0.0
11
502.000000
21
328.000000
31
0.0
0
LINE
8
LINES
10
611.000000
20
240.000000
30
0.0
11
662.000000
21
240.000000
31
0.0
0
LINE
8
LINES
10
496.000000
20
328.000000
30
0.0
11
446.000000
21
328.000000
31
0.0
0
LINE
8
LINES
10
608.000000
20
329.000000
30
0.0
11
558.000000
21
329.000000
31
0.0
0
LINE
8
LINES
10
617.000000
20
121.000000
30
0.0
11
667.000000
21
121.000000
31
0.0
0
LINE
8
LINES
10
417.000000
20
126.000000
30
0.0
11
368.000000
21
126.000000
31
0.0
0
LINE
8
LINES
10
417.000000
20
460.000000
30
0.0
11
368.000000
21
460.000000
31
0.0
0
LINE
8
LINES
10
612.000000
20
113.000000
30
0.0
11
662.000000
21
113.000000
31
0.0
0
LINE
8
LINES
10
550.000000
20
116.000000
30
0.0
11
500.000000
21
116.000000
31
0.0
0
LINE
8
LINES
10
780.000000
20
614.000000
30
0.0
11
731.000000
21
614.000000
31
0.0
0
LINE
8
LINES
10
755.000000
20
460.000000
30
0.0
11
705.000000
21
460.000000
31
0.0
0
LINE
8
LINES
10
420.000000
20
336.000000
30
0.0
11
371.000000
21
336.000000
31
0.0
0
LINE
8
LINES
10
276.000000
20
35.000000
30
0.0
11
228.000000
21
24.000000
31
0.0
0
LINE
8
LINES
10
873.000000
20
473.000000
30
0.0
11
921.000000
21
473.000000
31
0.0
0
LINE
8
LINES
10
897.000000
20
528.000000
30
0.0
11
897.000000
21
577.000000
31
0.0
0
LINE
8
LINES
10
916.000000
20
108.000000
30
0.0
11
867.000000
21
108.000000
31
0.0
0
LINE
8
LINES
10
947.000000
20
326.000000
30
0.0
11
947.000000
21
278.000000
31
0.0
0
LINE
8
LINES
10
89.000000
20
28.000000
30
0.0
11
49.000000
21
0.000000
31
0.0
0
LINE
8
LINES
10
664.000000
20
236.000000
30
0.0
11
616.000000
21
236.000000
31
0.0
0
LINE
8
LINES
10
606.000000
20
236.000000
30
0.0
11
556.000000
21
236.000000
31
0.0
0
LINE
8
LINES
10
664.000000
20
328.000000
30
0.0
11
616.000000
21
328.000000
31
0.0
0
LINE
8
LINES
10
494.000000
20
116.000000
30
0.0
11
446.000000
21
116.000000
31
0.0
0
LINE
8
LINES
10
502.000000
20
233.000000
30
0.0
11
552.000000
21
233.000000
31
0.0
0
LINE
8
LINES
10
606.000000
20
116.000000
30
0.0
11
556.000000
21
116.000000
31
0.0
0
LINE
8
LINES
10
616.000000
20
235.000000
30
0.0
11
664.000000
21
235.000000
31
0.0
0
LINE
8
LINES
10
556.000000
20
113.000000
30
0.0
11
606.000000
21
113.000000
31
0.0
0
LINE
8
LINES
10
1009.000000
20
278.000000
30
0.0
11
1009.000000
21
326.000000
31
0.0
0
LINE
8
LINES
10
505.000000
20
41.000000
30
0.0
11
457.000000
21
41.000000
31
0.0
0
LINE
8
LINES
10
731.000000
20
611.000000
30
0.0
11
779.000000
21
611.000000
31
0.0
0
LINE
8
LINES
10
953.000000
20
163.000000
30
0.0
11
1003.000000
21
163.000000
31
0.0
0
LINE
8
LINES
10
201.000000
20
318.000000
30
0.0
11
201.000000
21
368.000000
31
0.0
0
LINE
8
LINES
10
137.000000
20
73.000000
30
0.0
11
92.000000
21
52.000000
31
0.0
0
LINE
8
LINES
10
753.000000
20
246.000000
30
0.0
11
707.000000
21
246.000000
31
0.0
0
LINE
8
LINES
10
451.000000
20
32.000000
30
0.0
11
499.000000
21
32.000000
31
0.0
0
LINE
8
LINES
10
492.000000
20
236.000000
30
0.0
11
446.000000
21
236.000000
31
0.0
0
LINE
8
LINES
10
368.000000
20
585.000000
30
0.0
11
416.000000
21
585.000000
31
0.0
0
LINE
8
LINES
10
211.000000
20
638.000000
30
0.0
11
211.000000
21
590.000000
31
0.0
0
LINE
8
LINES
10
921.000000
20
478.000000
30
0.0
11
873.000000
21
478.000000
31
0.0
0
LINE
8
LINES
10
755.000000
20
126.000000
30
0.0
11
707.000000
21
126.000000
31
0.0
0
LINE
8
LINES
10
944.000000
20
502.000000
30
0.0
11
897.000000
21
502.000000
31
0.0
0
LINE
8
LINES
10
185.000000
20
99.000000
30
0.0
11
145.000000
21
76.000000
31
0.0
0
LINE
8
LINES
10
537.000000
20
198.000000
30
0.0
11
584.000000
21
198.000000
31
0.0
0
LINE
8
LINES
10
894.000000
20
153.000000
30
0.0
11
894.000000
21
201.000000
31
0.0
0
LINE
8
LINES
10
371.000000
20
344.000000
30
0.0
11
417.000000
21
344.000000
31
0.0
0
LINE
8
LINES
10
707.000000
20
344.000000
30
0.0
11
753.000000
21
344.000000
31
0.0
0
LINE
8
LINES
10
884.000000
20
556.000000
30
0.0
11
884.000000
21
601.000000
31
0.0
0
LINE
8
LINES
10
27.000000
20
516.000000
30
0.0
11
73.000000
21
516.000000
31
0.0
0
LINE
8
LINES
10
664.000000
20
118.000000
30
0.0
11
617.000000
21
118.000000
31
0.0
0
LINE
8
LINES
10
846.000000
20
510.000000
30
0.0
11
798.000000
21
510.000000
31
0.0
0
LINE
8
LINES
10
369.000000
20
92.000000
30
0.0
11
416.000000
21
92.000000
31
0.0
0
LINE
8
LINES
10
667.000000
20
38.000000
30
0.0
11
620.000000
21
38.000000
31
0.0
0
LINE
8
LINES
10
881.000000
20
121.000000
30
0.0
11
835.000000
21
121.000000
31
0.0
0
LINE
8
LINES
10
956.000000
20
168.000000
30
0.0
11
1001.000000
21
168.000000
31
0.0
0
LINE
8
LINES
10
752.000000
20
347.000000
30
0.0
11
705.000000
21
347.000000
31
0.0
0
LINE
8
LINES
10
499.000000
20
35.000000
30
0.0
11
454.000000
21
35.000000
31
0.0
0
LINE
8
LINES
10
665.000000
20
35.000000
30
0.0
11
620.000000
21
35.000000
31
0.0
0
LINE
8
LINES
10
112.000000
20
641.000000
30
0.0
11
112.000000
21
595.000000
31
0.0
0
LINE
8
LINES
10
187.000000
20
132.000000
30
0.0
11
232.000000
21
132.000000
31
0.0
0
LINE
8
LINES
10
414.000000
20
582.000000
30
0.0
11
369.000000
21
582.000000
31
0.0
0
LINE
8
LINES
10
28.000000
20
259.000000
30
0.0
11
73.000000
21
259.000000
31
0.0
0
LINE
8
LINES
10
102.000000
20
388.000000
30
0.0
11
147.000000
21
388.000000
31
0.0
0
LINE
8
LINES
10
28.000000
20
388.000000
30
0.0
11
73.000000
21
388.000000
31
0.0
0
LINE
8
LINES
10
145.000000
20
518.000000
30
0.0
11
100.000000
21
518.000000
31
0.0
0
LINE
8
LINES
10
956.000000
20
286.000000
30
0.0
11
1001.000000
21
286.000000
31
0.0
0
LINE
8
LINES
10
822.000000
20
203.000000
30
0.0
11
822.000000
21
158.000000
31
0.0
0
LINE
8
LINES
10
267.000000
20
30.000000
30
0.0
11
225.000000
21
14.000000
31
0.0
0
LINE
8
LINES
10
131.000000
20
601.000000
30
0.0
11
131.000000
21
643.000000
31
0.0
0
LINE
8
LINES
10
355.000000
20
198.000000
30
0.0
11
398.000000
21
198.000000
31
0.0
0
LINE
8
LINES
10
486.000000
20
198.000000
30
0.0
11
531.000000
21
198.000000
31
0.0
0
LINE
8
LINES
10
355.000000
20
326.000000
30
0.0
11
398.000000
21
326.000000
31
0.0
0
LINE
8
LINES
10
64.000000
20
28.000000
30
0.0
11
30.000000
21
0.000000
31
0.0
0
LINE
8
LINES
10
35.000000
20
624.000000
30
0.0
11
35.000000
21
580.000000
31
0.0
0
LINE
8
LINES
10
27.000000
20
577.000000
30
0.0
11
70.000000
21
577.000000
31
0.0
0
LINE
8
LINES
10
956.000000
20
438.000000
30
0.0
11
1001.000000
21
438.000000
31
0.0
0
LINE
8
LINES
10
414.000000
20
246.000000
30
0.0
11
371.000000
21
246.000000
31
0.0
0
LINE
8
LINES
10
73.000000
20
262.000000
30
0.0
11
30.000000
21
262.000000
31
0.0
0
LINE
8
LINES
10
257.000000
20
73.000000
30
0.0
11
219.000000
21
52.000000
31
0.0
0
LINE
8
LINES
10
417.000000
20
374.000000
30
0.0
11
374.000000
21
374.000000
31
0.0
0
LINE
8
LINES
10
824.000000
20
326.000000
30
0.0
11
824.000000
21
284.000000
31
0.0
0
LINE
8
LINES
10
488.000000
20
536.000000
30
0.0
11
488.000000
21
577.000000
31
0.0
0
LINE
8
LINES
10
256.000000
20
387.000000
30
0.0
11
297.000000
21
387.000000
31
0.0
0
LINE
8
LINES
10
793.000000
20
211.000000
30
0.0
11
750.000000
21
211.000000
31
0.0
0
LINE
8
LINES
10
70.000000
20
520.000000
30
0.0
11
28.000000
21
520.000000
31
0.0
0
LINE
8
LINES
10
299.000000
20
11.000000
30
0.0
11
340.000000
21
17.000000
31
0.0
0
LINE
8
LINES
10
115.000000
20
78.000000
30
0.0
11
83.000000
21
51.000000
31
0.0
0
LINE
8
LINES
10
102.000000
20
572.000000
30
0.0
11
142.000000
21
572.000000
31
0.0
0
LINE
8
LINES
10
998.000000
20
497.000000
30
0.0
11
956.000000
21
497.000000
31
0.0
0
LINE
8
LINES
10
142.000000
20
14.000000
30
0.0
11
176.000000
21
40.000000
31
0.0
0
LINE
8
LINES
10
1001.000000
20
433.000000
30
0.0
11
958.000000
21
433.000000
31
0.0
0
LINE
8
LINES
10
508.000000
20
342.000000
30
0.0
11
550.000000
21
342.000000
31
0.0
0
LINE
8
LINES
10
750.000000
20
508.000000
30
0.0
11
708.000000
21
508.000000
31
0.0
0
LINE
8
LINES
10
257.000000
20
260.000000
30
0.0
11
297.000000
21
260.000000
31
0.0
0
LINE
8
LINES
10
201.000000
20
387.000000
30
0.0
11
243.000000
21
387.000000
31
0.0
0
LINE
8
LINES
10
145.000000
20
390.000000
30
0.0
11
104.000000
21
390.000000
31
0.0
0
LINE
8
LINES
10
201.000000
20
259.000000
30
0.0
11
243.000000
21
259.000000
31
0.0
0
LINE
8
LINES
10
748.000000
20
374.000000
30
0.0
11
707.000000
21
374.000000
31
0.0
0
LINE
8
LINES
10
539.000000
20
558.000000
30
0.0
11
580.000000
21
558.000000
31
0.0
0
LINE
8
LINES
10
956.000000
20
494.000000
30
0.0
11
998.000000
21
494.000000
31
0.0
0
LINE
8
LINES
10
918.000000
20
545.000000
30
0.0
11
918.000000
21
587.000000
31
0.0
0
LINE
8
LINES
10
188.000000
20
35.000000
30
0.0
11
158.000000
21
9.000000
31
0.0
0
LINE
8
LINES
10
795.000000
20
100.000000
30
0.0
11
795.000000
21
60.000000
31
0.0
0
LINE
8
LINES
10
798.000000
20
59.000000
30
0.0
11
798.000000
21
99.000000
31
0.0
0
LINE
8
LINES
10
716.000000
20
387.000000
30
0.0
11
755.000000
21
387.000000
31
0.0
0
LINE
8
LINES
10
452.000000
20
585.000000
30
0.0
11
492.000000
21
585.000000
31
0.0
0
LINE
8
LINES
10
972.000000
20
347.000000
30
0.0
11
972.000000
21
307.000000
31
0.0
0
LINE
8
LINES
10
566.000000
20
342.000000
30
0.0
11
606.000000
21
342.000000
31
0.0
0
LINE
8
LINES
10
456.000000
20
342.000000
30
0.0
11
496.000000
21
342.000000
31
0.0
0
LINE
8
LINES
10
412.000000
20
508.000000
30
0.0
11
372.000000
21
508.000000
31
0.0
0
LINE
8
LINES
10
83.000000
20
641.000000
30
0.0
11
43.000000
21
641.000000
31
0.0
0
LINE
8
LINES
10
297.000000
20
262.000000
30
0.0
11
257.000000
21
262.000000
31
0.0
0
LINE
8
LINES
10
241.000000
20
518.000000
30
0.0
11
201.000000
21
518.000000
31
0.0
0
LINE
8
LINES
10
297.000000
20
390.000000
30
0.0
11
257.000000
21
390.000000
31
0.0
0
LINE
8
LINES
10
219.000000
20
92.000000
30
0.0
11
190.000000
21
64.000000
31
0.0
0
LINE
8
LINES
10
227.000000
20
147.000000
30
0.0
11
188.000000
21
144.000000
31
0.0
0
LINE
8
LINES
10
494.000000
20
334.000000
30
0.0
11
456.000000
21
334.000000
31
0.0
0
LINE
8
LINES
10
752.000000
20
211.000000
30
0.0
11
713.000000
21
211.000000
31
0.0
0
LINE
8
LINES
10
601.000000
20
198.000000
30
0.0
11
638.000000
21
198.000000
31
0.0
0
LINE
8
LINES
10
745.000000
20
539.000000
30
0.0
11
745.000000
21
577.000000
31
0.0
0
LINE
8
LINES
10
624.000000
20
585.000000
30
0.0
11
662.000000
21
585.000000
31
0.0
0
LINE
8
LINES
10
804.000000
20
566.000000
30
0.0
11
804.000000
21
526.000000
31
0.0
0
LINE
8
LINES
10
624.000000
20
342.000000
30
0.0
11
662.000000
21
342.000000
31
0.0
0
LINE
8
LINES
10
988.000000
20
307.000000
30
0.0
11
988.000000
21
345.000000
31
0.0
0
LINE
8
LINES
10
492.000000
20
582.000000
30
0.0
11
452.000000
21
582.000000
31
0.0
0
LINE
8
LINES
10
257.000000
20
572.000000
30
0.0
11
296.000000
21
572.000000
31
0.0
0
LINE
8
LINES
10
792.000000
20
83.000000
30
0.0
11
753.000000
21
83.000000
31
0.0
0
LINE
8
LINES
10
708.000000
20
369.000000
30
0.0
11
748.000000
21
369.000000
31
0.0
0
LINE
8
LINES
10
241.000000
20
390.000000
30
0.0
11
203.000000
21
390.000000
31
0.0
0
LINE
8
LINES
10
297.000000
20
518.000000
30
0.0
11
257.000000
21
518.000000
31
0.0
0
LINE
8
LINES
10
801.000000
20
497.000000
30
0.0
11
838.000000
21
497.000000
31
0.0
0
LINE
8
LINES
10
113.000000
20
0.000000
30
0.0
11
145.000000
21
19.000000
31
0.0
0
LINE
8
LINES
10
662.000000
20
334.000000
30
0.0
11
624.000000
21
334.000000
31
0.0
0
LINE
8
LINES
10
640.000000
20
451.000000
30
0.0
11
640.000000
21
414.000000
31
0.0
0
LINE
8
LINES
10
739.000000
20
452.000000
30
0.0
11
739.000000
21
416.000000
31
0.0
0
LINE
8
LINES
10
830.000000
20
289.000000
30
0.0
11
830.000000
21
326.000000
31
0.0
0
LINE
8
LINES
10
480.000000
20
540.000000
30
0.0
11
480.000000
21
577.000000
31
0.0
0
LINE
8
LINES
10
400.000000
20
416.000000
30
0.0
11
400.000000
21
452.000000
31
0.0
0
LINE
8
LINES
10
640.000000
20
577.000000
30
0.0
11
640.000000
21
539.000000
31
0.0
0
LINE
8
LINES
10
289.000000
20
508.000000
30
0.0
11
289.000000
21
472.000000
31
0.0
0
LINE
8
LINES
10
233.000000
20
508.000000
30
0.0
11
233.000000
21
472.000000
31
0.0
0
LINE
8
LINES
10
881.000000
20
494.000000
30
0.0
11
843.000000
21
494.000000
31
0.0
0
LINE
8
LINES
10
492.000000
20
372.000000
30
0.0
11
456.000000
21
372.000000
31
0.0
0
LINE
8
LINES
10
604.000000
20
246.000000
30
0.0
11
566.000000
21
246.000000
31
0.0
0
LINE
8
LINES
10
372.000000
20
630.000000
30
0.0
11
411.000000
21
630.000000
31
0.0
0
LINE
8
LINES
10
897.000000
20
449.000000
30
0.0
11
936.000000
21
449.000000
31
0.0
0
LINE
8
LINES
10
302.000000
20
156.000000
30
0.0
11
264.000000
21
156.000000
31
0.0
0
LINE
8
LINES
10
798.000000
20
336.000000
30
0.0
11
836.000000
21
336.000000
31
0.0
0
LINE
8
LINES
10
483.000000
20
577.000000
30
0.0
11
483.000000
21
540.000000
31
0.0
0
LINE
8
LINES
10
982.000000
20
608.000000
30
0.0
11
945.000000
21
608.000000
31
0.0
0
LINE
8
LINES
10
646.000000
20
414.000000
30
0.0
11
646.000000
21
451.000000
31
0.0
0
LINE
8
LINES
10
656.000000
20
539.000000
30
0.0
11
656.000000
21
577.000000
31
0.0
0
LINE
8
LINES
10
132.000000
20
473.000000
30
0.0
11
132.000000
21
510.000000
31
0.0
0
LINE
8
LINES
10
649.000000
20
577.000000
30
0.0
11
649.000000
21
539.000000
31
0.0
0
LINE
8
LINES
10
492.000000
20
124.000000
30
0.0
11
456.000000
21
124.000000
31
0.0
0
LINE
8
LINES
10
225.000000
20
12.000000
30
0.0
11
259.000000
21
24.000000
31
0.0
0
LINE
8
LINES
10
864.000000
20
395.000000
30
0.0
11
828.000000
21
400.000000
31
0.0
0
LINE
8
LINES
10
192.000000
20
646.000000
30
0.0
11
227.000000
21
636.000000
31
0.0
0
LINE
8
LINES
10
604.000000
20
334.000000
30
0.0
11
568.000000
21
334.000000
31
0.0
0
LINE
8
LINES
10
547.000000
20
334.000000
30
0.0
11
512.000000
21
334.000000
31
0.0
0
LINE
8
LINES
10
400.000000
20
542.000000
30
0.0
11
400.000000
21
577.000000
31
0.0
0
LINE
8
LINES
10
230.000000
20
473.000000
30
0.0
11
230.000000
21
508.000000
31
0.0
0
LINE
8
LINES
10
376.000000
20
73.000000
30
0.0
11
412.000000
21
73.000000
31
0.0
0
LINE
8
LINES
10
897.000000
20
460.000000
30
0.0
11
934.000000
21
460.000000
31
0.0
0
LINE
8
LINES
10
139.000000
20
606.000000
30
0.0
11
139.000000
21
641.000000
31
0.0
0
LINE
8
LINES
10
646.000000
20
540.000000
30
0.0
11
646.000000
21
577.000000
31
0.0
0
LINE
8
LINES
10
284.000000
20
473.000000
30
0.0
11
284.000000
21
508.000000
31
0.0
0
LINE
8
LINES
10
732.000000
20
416.000000
30
0.0
11
732.000000
21
451.000000
31
0.0
0
LINE
8
LINES
10
120.000000
20
510.000000
30
0.0
11
120.000000
21
473.000000
31
0.0
0
LINE
8
LINES
10
403.000000
20
577.000000
30
0.0
11
403.000000
21
540.000000
31
0.0
0
LINE
8
LINES
10
403.000000
20
451.000000
30
0.0
11
403.000000
21
416.000000
31
0.0
0
LINE
8
LINES
10
48.000000
20
510.000000
30
0.0
11
48.000000
21
473.000000
31
0.0
0
LINE
8
LINES
10
137.000000
20
510.000000
30
0.0
11
137.000000
21
473.000000
31
0.0
0
LINE
8
LINES
10
64.000000
20
510.000000
30
0.0
11
64.000000
21
473.000000
31
0.0
0
LINE
8
LINES
10
220.000000
20
508.000000
30
0.0
11
220.000000
21
473.000000
31
0.0
0
LINE
8
LINES
10
60.000000
20
473.000000
30
0.0
11
60.000000
21
510.000000
31
0.0
0
LINE
8
LINES
10
470.000000
20
577.000000
30
0.0
11
470.000000
21
540.000000
31
0.0
0
LINE
8
LINES
10
747.000000
20
416.000000
30
0.0
11
747.000000
21
451.000000
31
0.0
0
LINE
8
LINES
10
660.000000
20
582.000000
30
0.0
11
624.000000
21
582.000000
31
0.0
0
LINE
8
LINES
10
721.000000
20
451.000000
30
0.0
11
721.000000
21
416.000000
31
0.0
0
LINE
8
LINES
10
387.000000
20
451.000000
30
0.0
11
387.000000
21
416.000000
31
0.0
0
LINE
8
LINES
10
593.000000
20
323.000000
30
0.0
11
593.000000
21
288.000000
31
0.0
0
LINE
8
LINES
10
385.000000
20
577.000000
30
0.0
11
385.000000
21
540.000000
31
0.0
0
LINE
8
LINES
10
649.000000
20
451.000000
30
0.0
11
649.000000
21
414.000000
31
0.0
0
LINE
8
LINES
10
547.000000
20
124.000000
30
0.0
11
512.000000
21
124.000000
31
0.0
0
LINE
8
LINES
10
604.000000
20
124.000000
30
0.0
11
568.000000
21
124.000000
31
0.0
0
LINE
8
LINES
10
662.000000
20
124.000000
30
0.0
11
625.000000
21
124.000000
31
0.0
0
LINE
8
LINES
10
662.000000
20
372.000000
30
0.0
11
625.000000
21
372.000000
31
0.0
0
LINE
8
LINES
10
492.000000
20
246.000000
30
0.0
11
457.000000
21
246.000000
31
0.0
0
LINE
8
LINES
10
1001.000000
20
435.000000
30
0.0
11
1001.000000
21
472.000000
31
0.0
0
LINE
8
LINES
10
548.000000
20
246.000000
30
0.0
11
513.000000
21
246.000000
31
0.0
0
LINE
8
LINES
10
897.000000
20
438.000000
30
0.0
11
934.000000
21
438.000000
31
0.0
0
LINE
8
LINES
10
662.000000
20
246.000000
30
0.0
11
625.000000
21
246.000000
31
0.0
0
LINE
8
LINES
10
491.000000
20
588.000000
30
0.0
11
454.000000
21
588.000000
31
0.0
0
LINE
8
LINES
10
659.000000
20
588.000000
30
0.0
11
622.000000
21
588.000000
31
0.0
0
LINE
8
LINES
10
257.000000
20
156.000000
30
0.0
11
220.000000
21
156.000000
31
0.0
0
LINE
8
LINES
10
838.000000
20
409.000000
30
0.0
11
873.000000
21
409.000000
31
0.0
0
LINE
8
LINES
10
1008.000000
20
163.000000
30
0.0
11
1008.000000
21
201.000000
31
0.0
0
LINE
8
LINES
10
721.000000
20
614.000000
30
0.0
11
686.000000
21
614.000000
31
0.0
0
LINE
8
LINES
10
65.000000
20
70.000000
30
0.0
11
35.000000
21
51.000000
31
0.0
0
LINE
8
LINES
10
131.000000
20
115.000000
30
0.0
11
99.000000
21
102.000000
31
0.0
0
LINE
8
LINES
10
35.000000
20
41.000000
30
0.0
11
0.000000
21
48.000000
31
0.0
0
LINE
8
LINES
10
584.000000
20
323.000000
30
0.0
11
580.000000
21
289.000000
31
0.0
0
LINE
8
LINES
10
739.000000
20
576.000000
30
0.0
11
739.000000
21
540.000000
31
0.0
0
LINE
8
LINES
10
747.000000
20
289.000000
30
0.0
11
747.000000
21
323.000000
31
0.0
0
LINE
8
LINES
10
590.000000
20
572.000000
30
0.0
11
588.000000
21
537.000000
31
0.0
0
LINE
8
LINES
10
992.000000
20
396.000000
30
0.0
11
956.000000
21
398.000000
31
0.0
0
LINE
8
LINES
10
590.000000
20
289.000000
30
0.0
11
590.000000
21
323.000000
31
0.0
0
LINE
8
LINES
10
646.000000
20
289.000000
30
0.0
11
646.000000
21
323.000000
31
0.0
0
LINE
8
LINES
10
273.000000
20
380.000000
30
0.0
11
273.000000
21
345.000000
31
0.0
0
LINE
8
LINES
10
966.000000
20
312.000000
30
0.0
11
966.000000
21
347.000000
31
0.0
0
LINE
8
LINES
10
654.000000
20
451.000000
30
0.0
11
654.000000
21
416.000000
31
0.0
0
LINE
8
LINES
10
660.000000
20
508.000000
30
0.0
11
625.000000
21
508.000000
31
0.0
0
LINE
8
LINES
10
230.000000
20
345.000000
30
0.0
11
230.000000
21
380.000000
31
0.0
0
LINE
8
LINES
10
558.000000
20
331.000000
30
0.0
11
593.000000
21
331.000000
31
0.0
0
LINE
8
LINES
10
604.000000
20
372.000000
30
0.0
11
569.000000
21
372.000000
31
0.0
0
LINE
8
LINES
10
899.000000
20
427.000000
30
0.0
11
934.000000
21
427.000000
31
0.0
0
LINE
8
LINES
10
409.000000
20
632.000000
30
0.0
11
374.000000
21
632.000000
31
0.0
0
LINE
8
LINES
10
934.000000
20
491.000000
30
0.0
11
899.000000
21
491.000000
31
0.0
0
LINE
8
LINES
10
846.000000
20
577.000000
30
0.0
11
846.000000
21
611.000000
31
0.0
0
LINE
8
LINES
10
872.000000
20
500.000000
30
0.0
11
836.000000
21
500.000000
31
0.0
0
LINE
8
LINES
10
433.000000
20
161.000000
30
0.0
11
433.000000
21
195.000000
31
0.0
0
LINE
8
LINES
10
204.000000
20
169.000000
30
0.0
11
182.000000
21
142.000000
31
0.0
0
LINE
8
LINES
10
489.000000
20
163.000000
30
0.0
11
486.000000
21
196.000000
31
0.0
0
LINE
8
LINES
10
721.000000
20
326.000000
30
0.0
11
721.000000
21
291.000000
31
0.0
0
LINE
8
LINES
10
638.000000
20
323.000000
30
0.0
11
638.000000
21
289.000000
31
0.0
0
LINE
8
LINES
10
739.000000
20
323.000000
30
0.0
11
739.000000
21
291.000000
31
0.0
0
LINE
8
LINES
10
411.000000
20
291.000000
30
0.0
11
411.000000
21
323.000000
31
0.0
0
LINE
8
LINES
10
732.000000
20
291.000000
30
0.0
11
732.000000
21
323.000000
31
0.0
0
LINE
8
LINES
10
107.000000
20
448.000000
30
0.0
11
140.000000
21
448.000000
31
0.0
0
LINE
8
LINES
10
401.000000
20
291.000000
30
0.0
11
401.000000
21
323.000000
31
0.0
0
LINE
8
LINES
10
852.000000
20
467.000000
30
0.0
11
852.000000
21
433.000000
31
0.0
0
LINE
8
LINES
10
387.000000
20
323.000000
30
0.0
11
387.000000
21
291.000000
31
0.0
0
LINE
8
LINES
10
528.000000
20
323.000000
30
0.0
11
528.000000
21
289.000000
31
0.0
0
LINE
8
LINES
10
649.000000
20
323.000000
30
0.0
11
649.000000
21
289.000000
31
0.0
0
LINE
8
LINES
10
971.000000
20
222.000000
30
0.0
11
971.000000
21
188.000000
31
0.0
0
LINE
8
LINES
10
219.000000
20
380.000000
30
0.0
11
219.000000
21
347.000000
31
0.0
0
LINE
8
LINES
10
536.000000
20
289.000000
30
0.0
11
536.000000
21
323.000000
31
0.0
0
LINE
8
LINES
10
475.000000
20
577.000000
30
0.0
11
475.000000
21
542.000000
31
0.0
0
LINE
8
LINES
10
484.000000
20
323.000000
30
0.0
11
484.000000
21
289.000000
31
0.0
0
LINE
8
LINES
10
539.000000
20
323.000000
30
0.0
11
539.000000
21
289.000000
31
0.0
0
LINE
8
LINES
10
988.000000
20
188.000000
30
0.0
11
988.000000
21
222.000000
31
0.0
0
LINE
8
LINES
10
481.000000
20
289.000000
30
0.0
11
481.000000
21
323.000000
31
0.0
0
LINE
8
LINES
10
657.000000
20
161.000000
30
0.0
11
657.000000
21
195.000000
31
0.0
0
LINE
8
LINES
10
492.000000
20
508.000000
30
0.0
11
457.000000
21
508.000000
31
0.0
0
LINE
8
LINES
10
654.000000
20
576.000000
30
0.0
11
654.000000
21
542.000000
31
0.0
0
LINE
8
LINES
10
662.000000
20
459.000000
30
0.0
11
627.000000
21
459.000000
31
0.0
0
LINE
8
LINES
10
457.000000
20
628.000000
30
0.0
11
491.000000
21
628.000000
31
0.0
0
LINE
8
LINES
10
252.000000
20
140.000000
30
0.0
11
286.000000
21
140.000000
31
0.0
0
LINE
8
LINES
10
633.000000
20
542.000000
30
0.0
11
633.000000
21
576.000000
31
0.0
0
LINE
8
LINES
10
793.000000
20
196.000000
30
0.0
11
793.000000
21
163.000000
31
0.0
0
LINE
8
LINES
10
825.000000
20
163.000000
30
0.0
11
825.000000
21
198.000000
31
0.0
0
LINE
8
LINES
10
113.000000
20
262.000000
30
0.0
11
147.000000
21
262.000000
31
0.0
0
LINE
8
LINES
10
273.000000
20
508.000000
30
0.0
11
273.000000
21
473.000000
31
0.0
0
LINE
8
LINES
10
870.000000
20
438.000000
30
0.0
11
870.000000
21
472.000000
31
0.0
0
LINE
8
LINES
10
545.000000
20
161.000000
30
0.0
11
545.000000
21
193.000000
31
0.0
0
LINE
8
LINES
10
366.000000
20
579.000000
30
0.0
11
398.000000
21
579.000000
31
0.0
0
LINE
8
LINES
10
393.000000
20
576.000000
30
0.0
11
393.000000
21
542.000000
31
0.0
0
LINE
8
LINES
10
134.000000
20
348.000000
30
0.0
11
134.000000
21
380.000000
31
0.0
0
LINE
8
LINES
10
363.000000
20
462.000000
30
0.0
11
331.000000
21
462.000000
31
0.0
0
LINE
8
LINES
10
84.000000
20
113.000000
30
0.0
11
84.000000
21
81.000000
31
0.0
0
LINE
8
LINES
10
689.000000
20
198.000000
30
0.0
11
721.000000
21
198.000000
31
0.0
0
LINE
8
LINES
10
622.000000
20
452.000000
30
0.0
11
656.000000
21
452.000000
31
0.0
0
LINE
8
LINES
10
33.000000
20
320.000000
30
0.0
11
67.000000
21
320.000000
31
0.0
0
LINE
8
LINES
10
35.000000
20
195.000000
30
0.0
11
67.000000
21
195.000000
31
0.0
0
LINE
8
LINES
10
536.000000
20
163.000000
30
0.0
11
536.000000
21
195.000000
31
0.0
0
LINE
8
LINES
10
33.000000
20
448.000000
30
0.0
11
67.000000
21
448.000000
31
0.0
0
LINE
8
LINES
10
107.000000
20
382.000000
30
0.0
11
139.000000
21
382.000000
31
0.0
0
LINE
8
LINES
10
105.000000
20
512.000000
30
0.0
11
137.000000
21
512.000000
31
0.0
0
LINE
8
LINES
10
321.000000
20
201.000000
30
0.0
11
353.000000
21
201.000000
31
0.0
0
LINE
8
LINES
10
526.000000
20
195.000000
30
0.0
11
526.000000
21
163.000000
31
0.0
0
LINE
8
LINES
10
33.000000
20
254.000000
30
0.0
11
67.000000
21
254.000000
31
0.0
0
LINE
8
LINES
10
33.000000
20
382.000000
30
0.0
11
65.000000
21
382.000000
31
0.0
0
LINE
8
LINES
10
32.000000
20
512.000000
30
0.0
11
64.000000
21
512.000000
31
0.0
0
LINE
8
LINES
10
49.000000
20
380.000000
30
0.0
11
49.000000
21
348.000000
31
0.0
0
LINE
8
LINES
10
403.000000
20
323.000000
30
0.0
11
403.000000
21
291.000000
31
0.0
0
LINE
8
LINES
10
958.000000
20
347.000000
30
0.0
11
958.000000
21
313.000000
31
0.0
0
LINE
8
LINES
10
993.000000
20
345.000000
30
0.0
11
993.000000
21
313.000000
31
0.0
0
LINE
8
LINES
10
67.000000
20
385.000000
30
0.0
11
33.000000
21
385.000000
31
0.0
0
LINE
8
LINES
10
121.000000
20
380.000000
30
0.0
11
121.000000
21
348.000000
31
0.0
0
LINE
8
LINES
10
62.000000
20
348.000000
30
0.0
11
62.000000
21
382.000000
31
0.0
0
LINE
8
LINES
10
600.000000
20
163.000000
30
0.0
11
600.000000
21
195.000000
31
0.0
0
LINE
8
LINES
10
284.000000
20
348.000000
30
0.0
11
284.000000
21
380.000000
31
0.0
0
LINE
8
LINES
10
958.000000
20
470.000000
30
0.0
11
958.000000
21
438.000000
31
0.0
0
LINE
8
LINES
10
208.000000
20
572.000000
30
0.0
11
241.000000
21
572.000000
31
0.0
0
LINE
8
LINES
10
873.000000
20
412.000000
30
0.0
11
841.000000
21
412.000000
31
0.0
0
LINE
8
LINES
10
460.000000
20
545.000000
30
0.0
11
460.000000
21
513.000000
31
0.0
0
LINE
8
LINES
10
289.000000
20
380.000000
30
0.0
11
289.000000
21
348.000000
31
0.0
0
LINE
8
LINES
10
721.000000
20
83.000000
30
0.0
11
689.000000
21
83.000000
31
0.0
0
LINE
8
LINES
10
944.000000
20
204.000000
30
0.0
11
944.000000
21
172.000000
31
0.0
0
LINE
8
LINES
10
953.000000
20
435.000000
30
0.0
11
953.000000
21
467.000000
31
0.0
0
LINE
8
LINES
10
854.000000
20
105.000000
30
0.0
11
886.000000
21
105.000000
31
0.0
0
LINE
8
LINES
10
633.000000
20
417.000000
30
0.0
11
633.000000
21
449.000000
31
0.0
0
LINE
8
LINES
10
467.000000
20
542.000000
30
0.0
11
467.000000
21
576.000000
31
0.0
0
LINE
8
LINES
10
683.000000
20
219.000000
30
0.0
11
651.000000
21
219.000000
31
0.0
0
LINE
8
LINES
10
918.000000
20
140.000000
30
0.0
11
886.000000
21
140.000000
31
0.0
0
LINE
8
LINES
10
953.000000
20
606.000000
30
0.0
11
958.000000
21
574.000000
31
0.0
0
LINE
8
LINES
10
224.000000
20
161.000000
30
0.0
11
235.000000
21
190.000000
31
0.0
0
LINE
8
LINES
10
846.000000
20
456.000000
30
0.0
11
856.000000
21
486.000000
31
0.0
0
LINE
8
LINES
10
166.000000
20
72.000000
30
0.0
11
140.000000
21
54.000000
31
0.0
0
LINE
8
LINES
10
739.000000
20
196.000000
30
0.0
11
739.000000
21
166.000000
31
0.0
0
LINE
8
LINES
10
411.000000
20
166.000000
30
0.0
11
408.000000
21
196.000000
31
0.0
0
LINE
8
LINES
10
905.000000
20
417.000000
30
0.0
11
937.000000
21
419.000000
31
0.0
0
LINE
8
LINES
10
721.000000
20
196.000000
30
0.0
11
721.000000
21
166.000000
31
0.0
0
LINE
8
LINES
10
108.000000
20
320.000000
30
0.0
11
140.000000
21
320.000000
31
0.0
0
LINE
8
LINES
10
732.000000
20
166.000000
30
0.0
11
732.000000
21
196.000000
31
0.0
0
LINE
8
LINES
10
108.000000
20
195.000000
30
0.0
11
140.000000
21
195.000000
31
0.0
0
LINE
8
LINES
10
140.000000
20
257.000000
30
0.0
11
108.000000
21
257.000000
31
0.0
0
LINE
8
LINES
10
646.000000
20
163.000000
30
0.0
11
646.000000
21
193.000000
31
0.0
0
LINE
8
LINES
10
387.000000
20
196.000000
30
0.0
11
387.000000
21
166.000000
31
0.0
0
LINE
8
LINES
10
275.000000
20
252.000000
30
0.0
11
275.000000
21
222.000000
31
0.0
0
LINE
8
LINES
10
982.000000
20
470.000000
30
0.0
11
982.000000
21
438.000000
31
0.0
0
LINE
8
LINES
10
139.000000
20
385.000000
30
0.0
11
108.000000
21
385.000000
31
0.0
0
LINE
8
LINES
10
593.000000
20
193.000000
30
0.0
11
593.000000
21
163.000000
31
0.0
0
LINE
8
LINES
10
649.000000
20
193.000000
30
0.0
11
649.000000
21
163.000000
31
0.0
0
LINE
8
LINES
10
747.000000
20
166.000000
30
0.0
11
747.000000
21
196.000000
31
0.0
0
LINE
8
LINES
10
67.000000
20
257.000000
30
0.0
11
35.000000
21
257.000000
31
0.0
0
LINE
8
LINES
10
230.000000
20
222.000000
30
0.0
11
230.000000
21
252.000000
31
0.0
0
LINE
8
LINES
10
163.000000
20
121.000000
30
0.0
11
131.000000
21
121.000000
31
0.0
0
LINE
8
LINES
10
976.000000
20
438.000000
30
0.0
11
976.000000
21
470.000000
31
0.0
0
LINE
8
LINES
10
286.000000
20
222.000000
30
0.0
11
286.000000
21
252.000000
31
0.0
0
LINE
8
LINES
10
246.000000
20
134.000000
30
0.0
11
276.000000
21
134.000000
31
0.0
0
LINE
8
LINES
10
393.000000
20
451.000000
30
0.0
11
393.000000
21
420.000000
31
0.0
0
LINE
8
LINES
10
126.000000
20
118.000000
30
0.0
11
156.000000
21
118.000000
31
0.0
0
LINE
8
LINES
10
137.000000
20
513.000000
30
0.0
11
107.000000
21
513.000000
31
0.0
0
LINE
8
LINES
10
280.000000
20
508.000000
30
0.0
11
280.000000
21
476.000000
31
0.0
0
LINE
8
LINES
10
523.000000
20
291.000000
30
0.0
11
523.000000
21
323.000000
31
0.0
0
LINE
8
LINES
10
291.000000
20
604.000000
30
0.0
11
291.000000
21
636.000000
31
0.0
0
LINE
8
LINES
10
865.000000
20
188.000000
30
0.0
11
865.000000
21
219.000000
31
0.0
0
LINE
8
LINES
10
137.000000
20
380.000000
30
0.0
11
137.000000
21
348.000000
31
0.0
0
LINE
8
LINES
10
44.000000
20
478.000000
30
0.0
11
44.000000
21
508.000000
31
0.0
0
LINE
8
LINES
10
592.000000
20
228.000000
30
0.0
11
622.000000
21
228.000000
31
0.0
0
LINE
8
LINES
10
257.000000
20
350.000000
30
0.0
11
257.000000
21
382.000000
31
0.0
0
LINE
8
LINES
10
329.000000
20
92.000000
30
0.0
11
310.000000
21
67.000000
31
0.0
0
LINE
8
LINES
10
107.000000
20
14.000000
30
0.0
11
129.000000
21
35.000000
31
0.0
0
LINE
8
LINES
10
38.000000
20
35.000000
30
0.0
11
12.000000
21
19.000000
31
0.0
0
LINE
8
LINES
10
476.000000
20
196.000000
30
0.0
11
473.000000
21
166.000000
31
0.0
0
LINE
8
LINES
10
584.000000
20
195.000000
30
0.0
11
584.000000
21
163.000000
31
0.0
0
LINE
8
LINES
10
640.000000
20
193.000000
30
0.0
11
640.000000
21
163.000000
31
0.0
0
LINE
8
LINES
10
657.000000
20
198.000000
30
0.0
11
688.000000
21
198.000000
31
0.0
0
LINE
8
LINES
10
401.000000
20
166.000000
30
0.0
11
401.000000
21
196.000000
31
0.0
0
LINE
8
LINES
10
409.000000
20
132.000000
30
0.0
11
409.000000
21
163.000000
31
0.0
0
LINE
8
LINES
10
220.000000
20
252.000000
30
0.0
11
220.000000
21
222.000000
31
0.0
0
LINE
8
LINES
10
377.000000
20
513.000000
30
0.0
11
408.000000
21
513.000000
31
0.0
0
LINE
8
LINES
10
657.000000
20
131.000000
30
0.0
11
657.000000
21
161.000000
31
0.0
0
LINE
8
LINES
10
876.000000
20
468.000000
30
0.0
11
876.000000
21
438.000000
31
0.0
0
LINE
8
LINES
10
540.000000
20
195.000000
30
0.0
11
540.000000
21
166.000000
31
0.0
0
LINE
8
LINES
10
590.000000
20
163.000000
30
0.0
11
590.000000
21
193.000000
31
0.0
0
LINE
8
LINES
10
716.000000
20
260.000000
30
0.0
11
745.000000
21
260.000000
31
0.0
0
LINE
8
LINES
10
51.000000
20
252.000000
30
0.0
11
51.000000
21
222.000000
31
0.0
0
LINE
8
LINES
10
716.000000
20
134.000000
30
0.0
11
745.000000
21
134.000000
31
0.0
0
LINE
8
LINES
10
64.000000
20
515.000000
30
0.0
11
33.000000
21
515.000000
31
0.0
0
LINE
8
LINES
10
828.000000
20
478.000000
30
0.0
11
798.000000
21
478.000000
31
0.0
0
LINE
8
LINES
10
108.000000
20
577.000000
30
0.0
11
137.000000
21
577.000000
31
0.0
0
LINE
8
LINES
10
1001.000000
20
316.000000
30
0.0
11
1001.000000
21
345.000000
31
0.0
0
LINE
8
LINES
10
819.000000
20
539.000000
30
0.0
11
819.000000
21
569.000000
31
0.0
0
LINE
8
LINES
10
801.000000
20
238.000000
30
0.0
11
801.000000
21
208.000000
31
0.0
0
LINE
8
LINES
10
1011.000000
20
172.000000
30
0.0
11
1011.000000
21
203.000000
31
0.0
0
LINE
8
LINES
10
899.000000
20
486.000000
30
0.0
11
929.000000
21
486.000000
31
0.0
0
LINE
8
LINES
10
947.000000
20
166.000000
30
0.0
11
947.000000
21
196.000000
31
0.0
0
LINE
8
LINES
10
630.000000
20
353.000000
30
0.0
11
601.000000
21
353.000000
31
0.0
0
ENDSEC
0
EOF
