<svg xmlns="http://www.w3.org/2000/svg" viewBox="0 0 595 441" width="595" height="441">
  <rect x="0" y="0" width="595" height="441" fill="#fff"/>
  <g id="facade_outline">
    <polygon id="facade_0001" points="0,0 595,0 595,441 0,441" stroke="#000" stroke-width="2" fill="none"/>
  </g>
  <g id="openings_windows">
    <rect id="window_0001" x="60" y="40" width="72" height="28" stroke="#000" stroke-width="1" fill="none" data-conf="0.0315" data-type="window"/>
    <rect id="window_0002" x="60" y="76" width="72" height="28" stroke="#000" stroke-width="1" fill="none" data-conf="0.0307" data-type="window"/>
    <rect id="window_0003" x="144" y="420" width="64" height="20" stroke="#000" stroke-width="1" fill="none" data-conf="0.0319" data-type="window"/>
    <rect id="window_0004" x="352" y="420" width="64" height="20" stroke="#000" stroke-width="1" fill="none" data-conf="0.0310" data-type="window"/>
    <rect id="window_0005" x="276" y="424" width="64" height="16" stroke="#000" stroke-width="1" fill="none" data-conf="0.0361" data-type="window"/>
    <rect id="window_0006" x="312" y="424" width="64" height="16" stroke="#000" stroke-width="1" fill="none" data-conf="0.0391" data-type="window"/>
  </g>
  <g id="openings_doors">
  </g>
  <g id="lines">
    <line id="line_0001" x1="568" y1="392" x2="260" y2="392" stroke="#000" stroke-width="1" data-conf="0.4172"/>
    <line id="line_0002" x1="284" y1="396" x2="572" y2="396" stroke="#000" stroke-width="1" data-conf="0.3883"/>
    <line id="line_0003" x1="568" y1="440" x2="568" y2="168" stroke="#000" stroke-width="1" data-conf="0.3674"/>
    <line id="line_0004" x1="280" y1="144" x2="8" y2="144" stroke="#000" stroke-width="1" data-conf="0.3640"/>
    <line id="line_0005" x1="588" y1="164" x2="360" y2="164" stroke="#000" stroke-width="1" data-conf="0.3058"/>
    <line id="line_0006" x1="304" y1="168" x2="92" y2="168" stroke="#000" stroke-width="1" data-conf="0.2872"/>
    <line id="line_0007" x1="392" y1="140" x2="588" y2="140" stroke="#000" stroke-width="1" data-conf="0.2634"/>
    <line id="line_0008" x1="80" y1="160" x2="272" y2="160" stroke="#000" stroke-width="1" data-conf="0.2633"/>
    <line id="line_0009" x1="264" y1="400" x2="72" y2="400" stroke="#000" stroke-width="1" data-conf="0.2600"/>
    <line id="line_0010" x1="588" y1="148" x2="396" y2="148" stroke="#000" stroke-width="1" data-conf="0.2584"/>
    <line id="line_0011" x1="396" y1="156" x2="584" y2="156" stroke="#000" stroke-width="1" data-conf="0.2549"/>
    <line id="line_0012" x1="88" y1="144" x2="272" y2="144" stroke="#000" stroke-width="1" data-conf="0.2532"/>
    <line id="line_0013" x1="92" y1="400" x2="272" y2="400" stroke="#000" stroke-width="1" data-conf="0.2431"/>
    <line id="line_0014" x1="592" y1="16" x2="440" y2="16" stroke="#000" stroke-width="1" data-conf="0.2071"/>
    <line id="line_0015" x1="464" y1="32" x2="588" y2="56" stroke="#000" stroke-width="1" data-conf="0.1732"/>
    <line id="line_0016" x1="464" y1="0" x2="592" y2="0" stroke="#000" stroke-width="1" data-conf="0.1730"/>
    <line id="line_0017" x1="284" y1="28" x2="164" y2="28" stroke="#000" stroke-width="1" data-conf="0.1621"/>
    <line id="line_0018" x1="116" y1="432" x2="236" y2="432" stroke="#000" stroke-width="1" data-conf="0.1604"/>
    <line id="line_0019" x1="280" y1="428" x2="396" y2="428" stroke="#000" stroke-width="1" data-conf="0.1603"/>
    <line id="line_0020" x1="276" y1="388" x2="276" y2="272" stroke="#000" stroke-width="1" data-conf="0.1571"/>
    <line id="line_0021" x1="440" y1="424" x2="552" y2="424" stroke="#000" stroke-width="1" data-conf="0.1570"/>
    <line id="line_0022" x1="232" y1="436" x2="120" y2="436" stroke="#000" stroke-width="1" data-conf="0.1503"/>
    <line id="line_0023" x1="280" y1="288" x2="280" y2="396" stroke="#000" stroke-width="1" data-conf="0.1502"/>
    <line id="line_0024" x1="180" y1="24" x2="288" y2="24" stroke="#000" stroke-width="1" data-conf="0.1486"/>
    <line id="line_0025" x1="392" y1="432" x2="280" y2="432" stroke="#000" stroke-width="1" data-conf="0.1486"/>
    <line id="line_0026" x1="548" y1="428" x2="440" y2="428" stroke="#000" stroke-width="1" data-conf="0.1452"/>
    <line id="line_0027" x1="388" y1="156" x2="280" y2="156" stroke="#000" stroke-width="1" data-conf="0.1435"/>
    <line id="line_0028" x1="500" y1="132" x2="396" y2="132" stroke="#000" stroke-width="1" data-conf="0.1417"/>
    <line id="line_0029" x1="280" y1="160" x2="384" y2="160" stroke="#000" stroke-width="1" data-conf="0.1367"/>
    <line id="line_0030" x1="404" y1="28" x2="308" y2="28" stroke="#000" stroke-width="1" data-conf="0.1317"/>
    <line id="line_0031" x1="288" y1="392" x2="288" y2="296" stroke="#000" stroke-width="1" data-conf="0.1283"/>
    <line id="line_0032" x1="384" y1="296" x2="384" y2="388" stroke="#000" stroke-width="1" data-conf="0.1266"/>
    <line id="line_0033" x1="144" y1="180" x2="240" y2="180" stroke="#000" stroke-width="1" data-conf="0.1266"/>
    <line id="line_0034" x1="432" y1="292" x2="528" y2="292" stroke="#000" stroke-width="1" data-conf="0.1266"/>
    <line id="line_0035" x1="432" y1="180" x2="524" y2="180" stroke="#000" stroke-width="1" data-conf="0.1249"/>
    <line id="line_0036" x1="284" y1="272" x2="376" y2="272" stroke="#000" stroke-width="1" data-conf="0.1232"/>
    <line id="line_0037" x1="312" y1="296" x2="312" y2="388" stroke="#000" stroke-width="1" data-conf="0.1215"/>
    <line id="line_0038" x1="364" y1="280" x2="280" y2="280" stroke="#000" stroke-width="1" data-conf="0.1127"/>
    <line id="line_0039" x1="0" y1="60" x2="76" y2="28" stroke="#000" stroke-width="1" data-conf="0.1108"/>
    <line id="line_0040" x1="312" y1="184" x2="312" y2="264" stroke="#000" stroke-width="1" data-conf="0.1097"/>
    <line id="line_0041" x1="472" y1="148" x2="392" y2="148" stroke="#000" stroke-width="1" data-conf="0.1097"/>
    <line id="line_0042" x1="360" y1="388" x2="360" y2="308" stroke="#000" stroke-width="1" data-conf="0.1080"/>
    <line id="line_0043" x1="592" y1="4" x2="512" y2="4" stroke="#000" stroke-width="1" data-conf="0.1067"/>
    <line id="line_0044" x1="384" y1="180" x2="384" y2="256" stroke="#000" stroke-width="1" data-conf="0.1063"/>
    <line id="line_0045" x1="568" y1="376" x2="568" y2="304" stroke="#000" stroke-width="1" data-conf="0.1013"/>
    <line id="line_0046" x1="0" y1="164" x2="68" y2="140" stroke="#000" stroke-width="1" data-conf="0.0950"/>
    <line id="line_0047" x1="568" y1="248" x2="496" y2="248" stroke="#000" stroke-width="1" data-conf="0.0946"/>
    <line id="line_0048" x1="168" y1="296" x2="240" y2="296" stroke="#000" stroke-width="1" data-conf="0.0945"/>
    <line id="line_0049" x1="576" y1="68" x2="508" y2="68" stroke="#000" stroke-width="1" data-conf="0.0928"/>
    <line id="line_0050" x1="140" y1="208" x2="72" y2="208" stroke="#000" stroke-width="1" data-conf="0.0913"/>
    <line id="line_0051" x1="72" y1="224" x2="140" y2="224" stroke="#000" stroke-width="1" data-conf="0.0913"/>
    <line id="line_0052" x1="72" y1="204" x2="140" y2="204" stroke="#000" stroke-width="1" data-conf="0.0913"/>
    <line id="line_0053" x1="456" y1="296" x2="456" y2="360" stroke="#000" stroke-width="1" data-conf="0.0912"/>
    <line id="line_0054" x1="168" y1="296" x2="168" y2="368" stroke="#000" stroke-width="1" data-conf="0.0912"/>
    <line id="line_0055" x1="92" y1="392" x2="160" y2="392" stroke="#000" stroke-width="1" data-conf="0.0912"/>
    <line id="line_0056" x1="508" y1="56" x2="576" y2="56" stroke="#000" stroke-width="1" data-conf="0.0911"/>
    <line id="line_0057" x1="72" y1="236" x2="140" y2="236" stroke="#000" stroke-width="1" data-conf="0.0896"/>
    <line id="line_0058" x1="140" y1="232" x2="72" y2="232" stroke="#000" stroke-width="1" data-conf="0.0896"/>
    <line id="line_0059" x1="240" y1="180" x2="240" y2="248" stroke="#000" stroke-width="1" data-conf="0.0895"/>
    <line id="line_0060" x1="452" y1="180" x2="452" y2="248" stroke="#000" stroke-width="1" data-conf="0.0895"/>
    <line id="line_0061" x1="432" y1="248" x2="432" y2="180" stroke="#000" stroke-width="1" data-conf="0.0895"/>
    <line id="line_0062" x1="240" y1="296" x2="240" y2="364" stroke="#000" stroke-width="1" data-conf="0.0895"/>
    <line id="line_0063" x1="524" y1="176" x2="524" y2="244" stroke="#000" stroke-width="1" data-conf="0.0894"/>
    <line id="line_0064" x1="56" y1="296" x2="56" y2="360" stroke="#000" stroke-width="1" data-conf="0.0894"/>
    <line id="line_0065" x1="8" y1="72" x2="68" y2="48" stroke="#000" stroke-width="1" data-conf="0.0887"/>
    <line id="line_0066" x1="304" y1="24" x2="368" y2="24" stroke="#000" stroke-width="1" data-conf="0.0879"/>
    <line id="line_0067" x1="144" y1="364" x2="144" y2="300" stroke="#000" stroke-width="1" data-conf="0.0878"/>
    <line id="line_0068" x1="144" y1="248" x2="144" y2="184" stroke="#000" stroke-width="1" data-conf="0.0878"/>
    <line id="line_0069" x1="216" y1="364" x2="216" y2="300" stroke="#000" stroke-width="1" data-conf="0.0878"/>
    <line id="line_0070" x1="152" y1="56" x2="220" y2="56" stroke="#000" stroke-width="1" data-conf="0.0878"/>
    <line id="line_0071" x1="528" y1="292" x2="528" y2="356" stroke="#000" stroke-width="1" data-conf="0.0861"/>
    <line id="line_0072" x1="432" y1="360" x2="432" y2="296" stroke="#000" stroke-width="1" data-conf="0.0861"/>
    <line id="line_0073" x1="216" y1="56" x2="152" y2="56" stroke="#000" stroke-width="1" data-conf="0.0861"/>
    <line id="line_0074" x1="368" y1="52" x2="304" y2="52" stroke="#000" stroke-width="1" data-conf="0.0861"/>
    <line id="line_0075" x1="340" y1="384" x2="340" y2="320" stroke="#000" stroke-width="1" data-conf="0.0844"/>
    <line id="line_0076" x1="216" y1="248" x2="216" y2="188" stroke="#000" stroke-width="1" data-conf="0.0844"/>
    <line id="line_0077" x1="72" y1="296" x2="72" y2="360" stroke="#000" stroke-width="1" data-conf="0.0844"/>
    <line id="line_0078" x1="440" y1="56" x2="504" y2="56" stroke="#000" stroke-width="1" data-conf="0.0844"/>
    <line id="line_0079" x1="504" y1="52" x2="440" y2="52" stroke="#000" stroke-width="1" data-conf="0.0844"/>
    <line id="line_0080" x1="8" y1="300" x2="68" y2="288" stroke="#000" stroke-width="1" data-conf="0.0838"/>
    <line id="line_0081" x1="84" y1="128" x2="108" y2="72" stroke="#000" stroke-width="1" data-conf="0.0831"/>
    <line id="line_0082" x1="16" y1="368" x2="16" y2="308" stroke="#000" stroke-width="1" data-conf="0.0827"/>
    <line id="line_0083" x1="116" y1="76" x2="92" y2="132" stroke="#000" stroke-width="1" data-conf="0.0822"/>
    <line id="line_0084" x1="8" y1="404" x2="68" y2="404" stroke="#000" stroke-width="1" data-conf="0.0822"/>
    <line id="line_0085" x1="168" y1="184" x2="168" y2="240" stroke="#000" stroke-width="1" data-conf="0.0811"/>
    <line id="line_0086" x1="336" y1="324" x2="336" y2="384" stroke="#000" stroke-width="1" data-conf="0.0810"/>
    <line id="line_0087" x1="8" y1="232" x2="8" y2="292" stroke="#000" stroke-width="1" data-conf="0.0793"/>
    <line id="line_0088" x1="12" y1="184" x2="68" y2="168" stroke="#000" stroke-width="1" data-conf="0.0784"/>
    <line id="line_0089" x1="500" y1="244" x2="500" y2="184" stroke="#000" stroke-width="1" data-conf="0.0778"/>
    <line id="line_0090" x1="364" y1="56" x2="304" y2="56" stroke="#000" stroke-width="1" data-conf="0.0777"/>
    <line id="line_0091" x1="164" y1="248" x2="220" y2="248" stroke="#000" stroke-width="1" data-conf="0.0777"/>
    <line id="line_0092" x1="508" y1="252" x2="568" y2="252" stroke="#000" stroke-width="1" data-conf="0.0777"/>
    <line id="line_0093" x1="568" y1="256" x2="508" y2="256" stroke="#000" stroke-width="1" data-conf="0.0777"/>
    <line id="line_0094" x1="376" y1="56" x2="432" y2="56" stroke="#000" stroke-width="1" data-conf="0.0776"/>
    <line id="line_0095" x1="448" y1="248" x2="504" y2="248" stroke="#000" stroke-width="1" data-conf="0.0776"/>
    <line id="line_0096" x1="276" y1="152" x2="336" y2="152" stroke="#000" stroke-width="1" data-conf="0.0776"/>
    <line id="line_0097" x1="284" y1="68" x2="224" y2="68" stroke="#000" stroke-width="1" data-conf="0.0776"/>
    <line id="line_0098" x1="56" y1="48" x2="4" y2="68" stroke="#000" stroke-width="1" data-conf="0.0774"/>
    <line id="line_0099" x1="164" y1="368" x2="220" y2="368" stroke="#000" stroke-width="1" data-conf="0.0760"/>
    <line id="line_0100" x1="164" y1="292" x2="220" y2="292" stroke="#000" stroke-width="1" data-conf="0.0760"/>
    <line id="line_0101" x1="68" y1="400" x2="12" y2="400" stroke="#000" stroke-width="1" data-conf="0.0755"/>
    <line id="line_0102" x1="184" y1="136" x2="128" y2="136" stroke="#000" stroke-width="1" data-conf="0.0743"/>
    <line id="line_0103" x1="32" y1="312" x2="32" y2="368" stroke="#000" stroke-width="1" data-conf="0.0743"/>
    <line id="line_0104" x1="500" y1="116" x2="500" y2="64" stroke="#000" stroke-width="1" data-conf="0.0743"/>
    <line id="line_0105" x1="512" y1="384" x2="568" y2="384" stroke="#000" stroke-width="1" data-conf="0.0743"/>
    <line id="line_0106" x1="216" y1="64" x2="160" y2="64" stroke="#000" stroke-width="1" data-conf="0.0743"/>
    <line id="line_0107" x1="72" y1="52" x2="24" y2="72" stroke="#000" stroke-width="1" data-conf="0.0739"/>
    <line id="line_0108" x1="452" y1="360" x2="508" y2="360" stroke="#000" stroke-width="1" data-conf="0.0726"/>
    <line id="line_0109" x1="500" y1="360" x2="500" y2="304" stroke="#000" stroke-width="1" data-conf="0.0726"/>
    <line id="line_0110" x1="168" y1="176" x2="220" y2="176" stroke="#000" stroke-width="1" data-conf="0.0726"/>
    <line id="line_0111" x1="496" y1="60" x2="444" y2="60" stroke="#000" stroke-width="1" data-conf="0.0726"/>
    <line id="line_0112" x1="400" y1="32" x2="452" y2="32" stroke="#000" stroke-width="1" data-conf="0.0716"/>
    <line id="line_0113" x1="432" y1="52" x2="376" y2="52" stroke="#000" stroke-width="1" data-conf="0.0709"/>
    <line id="line_0114" x1="452" y1="172" x2="504" y2="172" stroke="#000" stroke-width="1" data-conf="0.0709"/>
    <line id="line_0115" x1="312" y1="288" x2="364" y2="288" stroke="#000" stroke-width="1" data-conf="0.0709"/>
    <line id="line_0116" x1="340" y1="152" x2="392" y2="152" stroke="#000" stroke-width="1" data-conf="0.0709"/>
    <line id="line_0117" x1="504" y1="388" x2="452" y2="388" stroke="#000" stroke-width="1" data-conf="0.0709"/>
    <line id="line_0118" x1="504" y1="368" x2="456" y2="368" stroke="#000" stroke-width="1" data-conf="0.0693"/>
    <line id="line_0119" x1="336" y1="116" x2="388" y2="116" stroke="#000" stroke-width="1" data-conf="0.0692"/>
    <line id="line_0120" x1="440" y1="44" x2="492" y2="44" stroke="#000" stroke-width="1" data-conf="0.0692"/>
    <line id="line_0121" x1="360" y1="108" x2="360" y2="56" stroke="#000" stroke-width="1" data-conf="0.0691"/>
    <line id="line_0122" x1="24" y1="152" x2="72" y2="136" stroke="#000" stroke-width="1" data-conf="0.0683"/>
    <line id="line_0123" x1="448" y1="252" x2="396" y2="252" stroke="#000" stroke-width="1" data-conf="0.0676"/>
    <line id="line_0124" x1="444" y1="60" x2="444" y2="112" stroke="#000" stroke-width="1" data-conf="0.0676"/>
    <line id="line_0125" x1="168" y1="72" x2="168" y2="124" stroke="#000" stroke-width="1" data-conf="0.0675"/>
    <line id="line_0126" x1="12" y1="392" x2="60" y2="392" stroke="#000" stroke-width="1" data-conf="0.0660"/>
    <line id="line_0127" x1="224" y1="392" x2="272" y2="392" stroke="#000" stroke-width="1" data-conf="0.0659"/>
    <line id="line_0128" x1="32" y1="84" x2="32" y2="132" stroke="#000" stroke-width="1" data-conf="0.0658"/>
    <line id="line_0129" x1="452" y1="384" x2="504" y2="384" stroke="#000" stroke-width="1" data-conf="0.0658"/>
    <line id="line_0130" x1="424" y1="68" x2="376" y2="68" stroke="#000" stroke-width="1" data-conf="0.0658"/>
    <line id="line_0131" x1="224" y1="32" x2="272" y2="32" stroke="#000" stroke-width="1" data-conf="0.0643"/>
    <line id="line_0132" x1="364" y1="24" x2="412" y2="24" stroke="#000" stroke-width="1" data-conf="0.0642"/>
    <line id="line_0133" x1="208" y1="120" x2="208" y2="72" stroke="#000" stroke-width="1" data-conf="0.0642"/>
    <line id="line_0134" x1="60" y1="88" x2="60" y2="132" stroke="#000" stroke-width="1" data-conf="0.0642"/>
    <line id="line_0135" x1="140" y1="240" x2="92" y2="240" stroke="#000" stroke-width="1" data-conf="0.0642"/>
    <line id="line_0136" x1="20" y1="132" x2="20" y2="84" stroke="#000" stroke-width="1" data-conf="0.0642"/>
    <line id="line_0137" x1="452" y1="72" x2="452" y2="120" stroke="#000" stroke-width="1" data-conf="0.0641"/>
    <line id="line_0138" x1="212" y1="256" x2="168" y2="256" stroke="#000" stroke-width="1" data-conf="0.0641"/>
    <line id="line_0139" x1="8" y1="128" x2="8" y2="80" stroke="#000" stroke-width="1" data-conf="0.0641"/>
    <line id="line_0140" x1="116" y1="40" x2="160" y2="32" stroke="#000" stroke-width="1" data-conf="0.0632"/>
    <line id="line_0141" x1="12" y1="372" x2="56" y2="372" stroke="#000" stroke-width="1" data-conf="0.0632"/>
    <line id="line_0142" x1="232" y1="60" x2="276" y2="60" stroke="#000" stroke-width="1" data-conf="0.0627"/>
    <line id="line_0143" x1="40" y1="424" x2="88" y2="424" stroke="#000" stroke-width="1" data-conf="0.0625"/>
    <line id="line_0144" x1="288" y1="224" x2="288" y2="180" stroke="#000" stroke-width="1" data-conf="0.0625"/>
    <line id="line_0145" x1="488" y1="120" x2="488" y2="72" stroke="#000" stroke-width="1" data-conf="0.0625"/>
    <line id="line_0146" x1="308" y1="64" x2="308" y2="108" stroke="#000" stroke-width="1" data-conf="0.0625"/>
    <line id="line_0147" x1="360" y1="232" x2="360" y2="188" stroke="#000" stroke-width="1" data-conf="0.0625"/>
    <line id="line_0148" x1="352" y1="32" x2="396" y2="32" stroke="#000" stroke-width="1" data-conf="0.0625"/>
    <line id="line_0149" x1="8" y1="172" x2="8" y2="220" stroke="#000" stroke-width="1" data-conf="0.0624"/>
    <line id="line_0150" x1="360" y1="184" x2="312" y2="184" stroke="#000" stroke-width="1" data-conf="0.0624"/>
    <line id="line_0151" x1="12" y1="256" x2="56" y2="248" stroke="#000" stroke-width="1" data-conf="0.0622"/>
    <line id="line_0152" x1="76" y1="28" x2="120" y2="44" stroke="#000" stroke-width="1" data-conf="0.0611"/>
    <line id="line_0153" x1="312" y1="60" x2="360" y2="60" stroke="#000" stroke-width="1" data-conf="0.0608"/>
    <line id="line_0154" x1="60" y1="136" x2="16" y2="148" stroke="#000" stroke-width="1" data-conf="0.0608"/>
    <line id="line_0155" x1="312" y1="108" x2="312" y2="64" stroke="#000" stroke-width="1" data-conf="0.0608"/>
    <line id="line_0156" x1="360" y1="64" x2="360" y2="104" stroke="#000" stroke-width="1" data-conf="0.0591"/>
    <line id="line_0157" x1="216" y1="184" x2="172" y2="184" stroke="#000" stroke-width="1" data-conf="0.0591"/>
    <line id="line_0158" x1="568" y1="224" x2="568" y2="184" stroke="#000" stroke-width="1" data-conf="0.0591"/>
    <line id="line_0159" x1="16" y1="144" x2="60" y2="128" stroke="#000" stroke-width="1" data-conf="0.0587"/>
    <line id="line_0160" x1="172" y1="48" x2="216" y2="48" stroke="#000" stroke-width="1" data-conf="0.0574"/>
    <line id="line_0161" x1="172" y1="308" x2="216" y2="308" stroke="#000" stroke-width="1" data-conf="0.0574"/>
    <line id="line_0162" x1="356" y1="296" x2="312" y2="296" stroke="#000" stroke-width="1" data-conf="0.0574"/>
    <line id="line_0163" x1="216" y1="300" x2="172" y2="300" stroke="#000" stroke-width="1" data-conf="0.0574"/>
    <line id="line_0164" x1="76" y1="128" x2="76" y2="88" stroke="#000" stroke-width="1" data-conf="0.0574"/>
    <line id="line_0165" x1="72" y1="88" x2="72" y2="128" stroke="#000" stroke-width="1" data-conf="0.0574"/>
    <line id="line_0166" x1="496" y1="184" x2="456" y2="184" stroke="#000" stroke-width="1" data-conf="0.0573"/>
    <line id="line_0167" x1="244" y1="212" x2="284" y2="212" stroke="#000" stroke-width="1" data-conf="0.0558"/>
    <line id="line_0168" x1="284" y1="216" x2="244" y2="216" stroke="#000" stroke-width="1" data-conf="0.0558"/>
    <line id="line_0169" x1="356" y1="72" x2="316" y2="72" stroke="#000" stroke-width="1" data-conf="0.0557"/>
    <line id="line_0170" x1="496" y1="296" x2="456" y2="296" stroke="#000" stroke-width="1" data-conf="0.0557"/>
    <line id="line_0171" x1="496" y1="252" x2="456" y2="252" stroke="#000" stroke-width="1" data-conf="0.0557"/>
    <line id="line_0172" x1="272" y1="120" x2="312" y2="120" stroke="#000" stroke-width="1" data-conf="0.0557"/>
    <line id="line_0173" x1="88" y1="44" x2="124" y2="60" stroke="#000" stroke-width="1" data-conf="0.0543"/>
    <line id="line_0174" x1="80" y1="52" x2="120" y2="68" stroke="#000" stroke-width="1" data-conf="0.0543"/>
    <line id="line_0175" x1="568" y1="132" x2="528" y2="132" stroke="#000" stroke-width="1" data-conf="0.0541"/>
    <line id="line_0176" x1="168" y1="124" x2="208" y2="124" stroke="#000" stroke-width="1" data-conf="0.0540"/>
    <line id="line_0177" x1="80" y1="88" x2="80" y2="128" stroke="#000" stroke-width="1" data-conf="0.0540"/>
    <line id="line_0178" x1="452" y1="120" x2="492" y2="120" stroke="#000" stroke-width="1" data-conf="0.0540"/>
    <line id="line_0179" x1="456" y1="304" x2="496" y2="304" stroke="#000" stroke-width="1" data-conf="0.0540"/>
    <line id="line_0180" x1="316" y1="304" x2="356" y2="304" stroke="#000" stroke-width="1" data-conf="0.0540"/>
    <line id="line_0181" x1="384" y1="220" x2="424" y2="220" stroke="#000" stroke-width="1" data-conf="0.0540"/>
    <line id="line_0182" x1="504" y1="64" x2="504" y2="104" stroke="#000" stroke-width="1" data-conf="0.0540"/>
    <line id="line_0183" x1="372" y1="104" x2="372" y2="64" stroke="#000" stroke-width="1" data-conf="0.0540"/>
    <line id="line_0184" x1="368" y1="64" x2="368" y2="104" stroke="#000" stroke-width="1" data-conf="0.0540"/>
    <line id="line_0185" x1="352" y1="176" x2="312" y2="176" stroke="#000" stroke-width="1" data-conf="0.0540"/>
    <line id="line_0186" x1="56" y1="252" x2="20" y2="260" stroke="#000" stroke-width="1" data-conf="0.0536"/>
    <line id="line_0187" x1="468" y1="72" x2="468" y2="112" stroke="#000" stroke-width="1" data-conf="0.0524"/>
    <line id="line_0188" x1="344" y1="180" x2="384" y2="180" stroke="#000" stroke-width="1" data-conf="0.0524"/>
    <line id="line_0189" x1="404" y1="248" x2="444" y2="248" stroke="#000" stroke-width="1" data-conf="0.0524"/>
    <line id="line_0190" x1="568" y1="232" x2="528" y2="232" stroke="#000" stroke-width="1" data-conf="0.0524"/>
    <line id="line_0191" x1="356" y1="120" x2="316" y2="120" stroke="#000" stroke-width="1" data-conf="0.0523"/>
    <line id="line_0192" x1="492" y1="72" x2="452" y2="72" stroke="#000" stroke-width="1" data-conf="0.0523"/>
    <line id="line_0193" x1="312" y1="264" x2="352" y2="264" stroke="#000" stroke-width="1" data-conf="0.0523"/>
    <line id="line_0194" x1="424" y1="224" x2="384" y2="224" stroke="#000" stroke-width="1" data-conf="0.0523"/>
    <line id="line_0195" x1="508" y1="352" x2="508" y2="312" stroke="#000" stroke-width="1" data-conf="0.0523"/>
    <line id="line_0196" x1="316" y1="64" x2="356" y2="64" stroke="#000" stroke-width="1" data-conf="0.0523"/>
    <line id="line_0197" x1="504" y1="240" x2="504" y2="200" stroke="#000" stroke-width="1" data-conf="0.0523"/>
    <line id="line_0198" x1="436" y1="352" x2="436" y2="316" stroke="#000" stroke-width="1" data-conf="0.0523"/>
    <line id="line_0199" x1="24" y1="428" x2="64" y2="428" stroke="#000" stroke-width="1" data-conf="0.0509"/>
    <line id="line_0200" x1="52" y1="128" x2="52" y2="92" stroke="#000" stroke-width="1" data-conf="0.0507"/>
    <line id="line_0201" x1="528" y1="244" x2="568" y2="244" stroke="#000" stroke-width="1" data-conf="0.0507"/>
    <line id="line_0202" x1="528" y1="224" x2="568" y2="224" stroke="#000" stroke-width="1" data-conf="0.0507"/>
    <line id="line_0203" x1="316" y1="72" x2="316" y2="112" stroke="#000" stroke-width="1" data-conf="0.0506"/>
    <line id="line_0204" x1="192" y1="320" x2="192" y2="360" stroke="#000" stroke-width="1" data-conf="0.0506"/>
    <line id="line_0205" x1="476" y1="320" x2="476" y2="356" stroke="#000" stroke-width="1" data-conf="0.0506"/>
    <line id="line_0206" x1="452" y1="64" x2="488" y2="64" stroke="#000" stroke-width="1" data-conf="0.0506"/>
    <line id="line_0207" x1="48" y1="96" x2="48" y2="132" stroke="#000" stroke-width="1" data-conf="0.0499"/>
    <line id="line_0208" x1="264" y1="52" x2="228" y2="52" stroke="#000" stroke-width="1" data-conf="0.0491"/>
    <line id="line_0209" x1="356" y1="108" x2="356" y2="72" stroke="#000" stroke-width="1" data-conf="0.0490"/>
    <line id="line_0210" x1="476" y1="188" x2="476" y2="224" stroke="#000" stroke-width="1" data-conf="0.0490"/>
    <line id="line_0211" x1="336" y1="48" x2="376" y2="48" stroke="#000" stroke-width="1" data-conf="0.0490"/>
    <line id="line_0212" x1="168" y1="68" x2="208" y2="68" stroke="#000" stroke-width="1" data-conf="0.0490"/>
    <line id="line_0213" x1="200" y1="392" x2="164" y2="392" stroke="#000" stroke-width="1" data-conf="0.0490"/>
    <line id="line_0214" x1="24" y1="188" x2="56" y2="180" stroke="#000" stroke-width="1" data-conf="0.0475"/>
    <line id="line_0215" x1="196" y1="360" x2="196" y2="324" stroke="#000" stroke-width="1" data-conf="0.0473"/>
    <line id="line_0216" x1="48" y1="360" x2="48" y2="328" stroke="#000" stroke-width="1" data-conf="0.0473"/>
    <line id="line_0217" x1="480" y1="352" x2="480" y2="320" stroke="#000" stroke-width="1" data-conf="0.0473"/>
    <line id="line_0218" x1="32" y1="364" x2="32" y2="328" stroke="#000" stroke-width="1" data-conf="0.0473"/>
    <line id="line_0219" x1="176" y1="360" x2="176" y2="324" stroke="#000" stroke-width="1" data-conf="0.0473"/>
    <line id="line_0220" x1="460" y1="356" x2="460" y2="320" stroke="#000" stroke-width="1" data-conf="0.0473"/>
    <line id="line_0221" x1="116" y1="64" x2="88" y2="48" stroke="#000" stroke-width="1" data-conf="0.0468"/>
    <line id="line_0222" x1="48" y1="328" x2="48" y2="360" stroke="#000" stroke-width="1" data-conf="0.0456"/>
    <line id="line_0223" x1="36" y1="132" x2="36" y2="96" stroke="#000" stroke-width="1" data-conf="0.0456"/>
    <line id="line_0224" x1="72" y1="252" x2="72" y2="284" stroke="#000" stroke-width="1" data-conf="0.0456"/>
    <line id="line_0225" x1="216" y1="324" x2="216" y2="360" stroke="#000" stroke-width="1" data-conf="0.0456"/>
    <line id="line_0226" x1="24" y1="304" x2="56" y2="296" stroke="#000" stroke-width="1" data-conf="0.0447"/>
    <line id="line_0227" x1="292" y1="164" x2="324" y2="164" stroke="#000" stroke-width="1" data-conf="0.0439"/>
    <line id="line_0228" x1="24" y1="72" x2="56" y2="64" stroke="#000" stroke-width="1" data-conf="0.0439"/>
    <line id="line_0229" x1="496" y1="352" x2="496" y2="320" stroke="#000" stroke-width="1" data-conf="0.0439"/>
    <line id="line_0230" x1="80" y1="432" x2="112" y2="432" stroke="#000" stroke-width="1" data-conf="0.0423"/>
    <line id="line_0231" x1="568" y1="288" x2="568" y2="256" stroke="#000" stroke-width="1" data-conf="0.0422"/>
    <line id="line_0232" x1="344" y1="164" x2="376" y2="164" stroke="#000" stroke-width="1" data-conf="0.0422"/>
    <line id="line_0233" x1="56" y1="96" x2="56" y2="128" stroke="#000" stroke-width="1" data-conf="0.0422"/>
    <line id="line_0234" x1="332" y1="172" x2="360" y2="172" stroke="#000" stroke-width="1" data-conf="0.0422"/>
    <line id="line_0235" x1="128" y1="56" x2="96" y2="48" stroke="#000" stroke-width="1" data-conf="0.0411"/>
    <line id="line_0236" x1="48" y1="416" x2="16" y2="416" stroke="#000" stroke-width="1" data-conf="0.0406"/>
    <line id="line_0237" x1="160" y1="92" x2="160" y2="120" stroke="#000" stroke-width="1" data-conf="0.0405"/>
    <line id="line_0238" x1="216" y1="96" x2="216" y2="64" stroke="#000" stroke-width="1" data-conf="0.0405"/>
    <line id="line_0239" x1="56" y1="128" x2="56" y2="96" stroke="#000" stroke-width="1" data-conf="0.0405"/>
  </g>
  <g id="metadata" data-source="pipeline" data-ortho-width="595" data-ortho-height="441" data-units="px" data-rectification-score="0.5943"/>
</svg>