0
SECTION
2
ENTITIES
0
LWPOLYLINE
8
FACADE_OUTLINE
90
4
70
1
10
0.000000
20
0.000000
10
507.000000
20
0.000000
10
507.000000
20
474.000000
10
0.000000
20
474.000000
0
LWPOLYLINE
8
WINDOWS
90
4
70
1
10
84.000000
20
36.000000
10
144.000000
20
36.000000
10
144.000000
20
56.000000
10
84.000000
20
56.000000
0
LWPOLYLINE
8
WINDOWS
90
4
70
1
10
116.000000
20
36.000000
10
176.000000
20
36.000000
10
176.000000
20
56.000000
10
116.000000
20
56.000000
0
LWPOLYLINE
8
WINDOWS
90
4
70
1
10
84.000000
20
68.000000
10
144.000000
20
68.000000
10
144.000000
20
88.000000
10
84.000000
20
88.000000
0
LWPOLYLINE
8
WINDOWS
90
4
70
1
10
52.000000
20
96.000000
10
112.000000
20
96.000000
10
112.000000
20
120.000000
10
52.000000
20
120.000000
0
LWPOLYLINE
8
WINDOWS
90
4
70
1
10
84.000000
20
96.000000
10
144.000000
20
96.000000
10
144.000000
20
120.000000
10
84.000000
20
120.000000
0
LWPOLYLINE
8
WINDOWS
90
4
70
1
10
52.000000
20
128.000000
10
112.000000
20
128.000000
10
112.000000
20
152.000000
10
52.000000
20
152.000000
0
LWPOLYLINE
8
WINDOWS
90
4
70
1
10
84.000000
20
128.000000
10
144.000000
20
128.000000
10
144.000000
20
152.000000
10
84.000000
20
152.000000
0
LWPOLYLINE
8
WINDOWS
90
4
70
1
10
84.000000
20
160.000000
10
144.000000
20
160.000000
10
144.000000
20
184.000000
10
84.000000
20
184.000000
0
LWPOLYLINE
8
WINDOWS
90
4
70
1
10
84.000000
20
192.000000
10
144.000000
20
192.000000
10
144.000000
20
216.000000
10
84.000000
20
216.000000
0
LWPOLYLINE
8
WINDOWS
90
4
70
1
10
84.000000
20
224.000000
10
144.000000
20
224.000000
10
144.000000
20
248.000000
10
84.000000
20
248.000000
0
LWPOLYLINE
8
WINDOWS
90
4
70
1
10
84.000000
20
320.000000
10
140.000000
20
320.000000
10
140.000000
20
344.000000
10
84.000000
20
344.000000
0
LWPOLYLINE
8
WINDOWS
90
4
70
1
10
84.000000
20
352.000000
10
140.000000
20
352.000000
10
140.000000
20
376.000000
10
84.000000
20
376.000000
0
LINE
8
LINES
10
60.000000
20
360.000000
30
0.0
11
496.000000
21
360.000000
31
0.0
0
LINE
8
LINES
10
324.000000
20
116.000000
30
0.0
11
56.000000
21
116.000000
31
0.0
0
LINE
8
LINES
10
60.000000
20
296.000000
30
0.0
11
328.000000
21
296.000000
31
0.0
0
LINE
8
LINES
10
328.000000
20
304.000000
30
0.0
11
60.000000
21
304.000000
31
0.0
0
LINE
8
LINES
10
328.000000
20
372.000000
30
0.0
11
88.000000
21
372.000000
31
0.0
0
LINE
8
LINES
10
288.000000
20
192.000000
30
0.0
11
56.000000
21
192.000000
31
0.0
0
LINE
8
LINES
10
92.000000
20
104.000000
30
0.0
11
320.000000
21
104.000000
31
0.0
0
LINE
8
LINES
10
316.000000
20
100.000000
30
0.0
11
92.000000
21
100.000000
31
0.0
0
LINE
8
LINES
10
316.000000
20
80.000000
30
0.0
11
120.000000
21
0.000000
31
0.0
0
LINE
8
LINES
10
507.000000
20
156.000000
30
0.0
11
312.000000
21
88.000000
31
0.0
0
LINE
8
LINES
10
328.000000
20
300.000000
30
0.0
11
488.000000
21
300.000000
31
0.0
0
LINE
8
LINES
10
56.000000
20
36.000000
30
0.0
11
212.000000
21
36.000000
31
0.0
0
LINE
8
LINES
10
464.000000
20
304.000000
30
0.0
11
332.000000
21
304.000000
31
0.0
0
LINE
8
LINES
10
368.000000
20
400.000000
30
0.0
11
484.000000
21
400.000000
31
0.0
0
LINE
8
LINES
10
464.000000
20
184.000000
30
0.0
11
352.000000
21
184.000000
31
0.0
0
LINE
8
LINES
10
332.000000
20
120.000000
30
0.0
11
332.000000
21
232.000000
31
0.0
0
LINE
8
LINES
10
60.000000
20
88.000000
30
0.0
11
168.000000
21
88.000000
31
0.0
0
LINE
8
LINES
10
464.000000
20
188.000000
30
0.0
11
352.000000
21
188.000000
31
0.0
0
LINE
8
LINES
10
328.000000
20
180.000000
30
0.0
11
216.000000
21
180.000000
31
0.0
0
LINE
8
LINES
10
0.000000
20
456.000000
30
0.0
11
100.000000
21
456.000000
31
0.0
0
LINE
8
LINES
10
232.000000
20
188.000000
30
0.0
11
324.000000
21
220.000000
31
0.0
0
LINE
8
LINES
10
464.000000
20
372.000000
30
0.0
11
368.000000
21
372.000000
31
0.0
0
LINE
8
LINES
10
16.000000
20
352.000000
30
0.0
11
16.000000
21
264.000000
31
0.0
0
LINE
8
LINES
10
324.000000
20
184.000000
30
0.0
11
232.000000
21
184.000000
31
0.0
0
LINE
8
LINES
10
8.000000
20
264.000000
30
0.0
11
8.000000
21
352.000000
31
0.0
0
LINE
8
LINES
10
328.000000
20
272.000000
30
0.0
11
328.000000
21
184.000000
31
0.0
0
LINE
8
LINES
10
216.000000
20
88.000000
30
0.0
11
304.000000
21
88.000000
31
0.0
0
LINE
8
LINES
10
16.000000
20
456.000000
30
0.0
11
16.000000
21
368.000000
31
0.0
0
LINE
8
LINES
10
368.000000
20
388.000000
30
0.0
11
452.000000
21
388.000000
31
0.0
0
LINE
8
LINES
10
16.000000
20
260.000000
30
0.0
11
16.000000
21
176.000000
31
0.0
0
LINE
8
LINES
10
448.000000
20
392.000000
30
0.0
11
368.000000
21
392.000000
31
0.0
0
LINE
8
LINES
10
56.000000
20
180.000000
30
0.0
11
56.000000
21
264.000000
31
0.0
0
LINE
8
LINES
10
320.000000
20
464.000000
30
0.0
11
400.000000
21
464.000000
31
0.0
0
LINE
8
LINES
10
184.000000
20
92.000000
30
0.0
11
104.000000
21
92.000000
31
0.0
0
LINE
8
LINES
10
176.000000
20
384.000000
30
0.0
11
256.000000
21
384.000000
31
0.0
0
LINE
8
LINES
10
12.000000
20
372.000000
30
0.0
11
12.000000
21
448.000000
31
0.0
0
LINE
8
LINES
10
180.000000
20
396.000000
30
0.0
11
256.000000
21
396.000000
31
0.0
0
LINE
8
LINES
10
468.000000
20
264.000000
30
0.0
11
468.000000
21
192.000000
31
0.0
0
LINE
8
LINES
10
312.000000
20
96.000000
30
0.0
11
240.000000
21
96.000000
31
0.0
0
LINE
8
LINES
10
32.000000
20
172.000000
30
0.0
11
32.000000
21
244.000000
31
0.0
0
LINE
8
LINES
10
256.000000
20
396.000000
30
0.0
11
324.000000
21
396.000000
31
0.0
0
LINE
8
LINES
10
256.000000
20
388.000000
30
0.0
11
324.000000
21
388.000000
31
0.0
0
LINE
8
LINES
10
144.000000
20
112.000000
30
0.0
11
80.000000
21
112.000000
31
0.0
0
LINE
8
LINES
10
256.000000
20
272.000000
30
0.0
11
256.000000
21
212.000000
31
0.0
0
LINE
8
LINES
10
80.000000
20
272.000000
30
0.0
11
80.000000
21
212.000000
31
0.0
0
LINE
8
LINES
10
152.000000
20
212.000000
30
0.0
11
152.000000
21
272.000000
31
0.0
0
LINE
8
LINES
10
320.000000
20
104.000000
30
0.0
11
376.000000
21
104.000000
31
0.0
0
LINE
8
LINES
10
16.000000
20
168.000000
30
0.0
11
16.000000
21
108.000000
31
0.0
0
LINE
8
LINES
10
240.000000
20
216.000000
30
0.0
11
240.000000
21
272.000000
31
0.0
0
LINE
8
LINES
10
332.000000
20
240.000000
30
0.0
11
332.000000
21
296.000000
31
0.0
0
LINE
8
LINES
10
324.000000
20
176.000000
30
0.0
11
264.000000
21
176.000000
31
0.0
0
LINE
8
LINES
10
64.000000
20
216.000000
30
0.0
11
64.000000
21
272.000000
31
0.0
0
LINE
8
LINES
10
352.000000
20
232.000000
30
0.0
11
352.000000
21
288.000000
31
0.0
0
LINE
8
LINES
10
452.000000
20
412.000000
30
0.0
11
452.000000
21
468.000000
31
0.0
0
LINE
8
LINES
10
436.000000
20
180.000000
30
0.0
11
380.000000
21
180.000000
31
0.0
0
LINE
8
LINES
10
56.000000
20
92.000000
30
0.0
11
56.000000
21
36.000000
31
0.0
0
LINE
8
LINES
10
316.000000
20
392.000000
30
0.0
11
260.000000
21
392.000000
31
0.0
0
LINE
8
LINES
10
408.000000
20
180.000000
30
0.0
11
464.000000
21
180.000000
31
0.0
0
LINE
8
LINES
10
328.000000
20
360.000000
30
0.0
11
328.000000
21
304.000000
31
0.0
0
LINE
8
LINES
10
232.000000
20
392.000000
30
0.0
11
176.000000
21
392.000000
31
0.0
0
LINE
8
LINES
10
8.000000
20
268.000000
30
0.0
11
8.000000
21
216.000000
31
0.0
0
LINE
8
LINES
10
184.000000
20
220.000000
30
0.0
11
184.000000
21
272.000000
31
0.0
0
LINE
8
LINES
10
96.000000
20
268.000000
30
0.0
11
96.000000
21
216.000000
31
0.0
0
LINE
8
LINES
10
380.000000
20
420.000000
30
0.0
11
432.000000
21
420.000000
31
0.0
0
LINE
8
LINES
10
236.000000
20
128.000000
30
0.0
11
236.000000
21
176.000000
31
0.0
0
LINE
8
LINES
10
60.000000
20
264.000000
30
0.0
11
60.000000
21
216.000000
31
0.0
0
LINE
8
LINES
10
136.000000
20
308.000000
30
0.0
11
184.000000
21
308.000000
31
0.0
0
LINE
8
LINES
10
496.000000
20
228.000000
30
0.0
11
496.000000
21
276.000000
31
0.0
0
LINE
8
LINES
10
496.000000
20
280.000000
30
0.0
11
496.000000
21
232.000000
31
0.0
0
LINE
8
LINES
10
328.000000
20
180.000000
30
0.0
11
328.000000
21
132.000000
31
0.0
0
LINE
8
LINES
10
152.000000
20
408.000000
30
0.0
11
152.000000
21
456.000000
31
0.0
0
LINE
8
LINES
10
60.000000
20
304.000000
30
0.0
11
60.000000
21
352.000000
31
0.0
0
LINE
8
LINES
10
260.000000
20
360.000000
30
0.0
11
260.000000
21
312.000000
31
0.0
0
LINE
8
LINES
10
212.000000
20
464.000000
30
0.0
11
260.000000
21
464.000000
31
0.0
0
LINE
8
LINES
10
88.000000
20
172.000000
30
0.0
11
136.000000
21
172.000000
31
0.0
0
LINE
8
LINES
10
232.000000
20
168.000000
30
0.0
11
232.000000
21
120.000000
31
0.0
0
LINE
8
LINES
10
104.000000
20
208.000000
30
0.0
11
152.000000
21
208.000000
31
0.0
0
LINE
8
LINES
10
188.000000
20
172.000000
30
0.0
11
188.000000
21
124.000000
31
0.0
0
LINE
8
LINES
10
136.000000
20
176.000000
30
0.0
11
184.000000
21
176.000000
31
0.0
0
LINE
8
LINES
10
324.000000
20
172.000000
30
0.0
11
324.000000
21
128.000000
31
0.0
0
LINE
8
LINES
10
8.000000
20
208.000000
30
0.0
11
8.000000
21
256.000000
31
0.0
0
LINE
8
LINES
10
60.000000
20
128.000000
30
0.0
11
60.000000
21
172.000000
31
0.0
0
LINE
8
LINES
10
88.000000
20
380.000000
30
0.0
11
128.000000
21
380.000000
31
0.0
0
LINE
8
LINES
10
496.000000
20
452.000000
30
0.0
11
496.000000
21
412.000000
31
0.0
0
LINE
8
LINES
10
168.000000
20
272.000000
30
0.0
11
168.000000
21
232.000000
31
0.0
0
LINE
8
LINES
10
228.000000
20
288.000000
30
0.0
11
272.000000
21
288.000000
31
0.0
0
LINE
8
LINES
10
172.000000
20
88.000000
30
0.0
11
212.000000
21
88.000000
31
0.0
0
LINE
8
LINES
10
328.000000
20
320.000000
30
0.0
11
328.000000
21
360.000000
31
0.0
0
LINE
8
LINES
10
384.000000
20
424.000000
30
0.0
11
384.000000
21
464.000000
31
0.0
0
LINE
8
LINES
10
352.000000
20
176.000000
30
0.0
11
392.000000
21
176.000000
31
0.0
0
LINE
8
LINES
10
276.000000
20
224.000000
30
0.0
11
276.000000
21
264.000000
31
0.0
0
LINE
8
LINES
10
424.000000
20
468.000000
30
0.0
11
424.000000
21
428.000000
31
0.0
0
LINE
8
LINES
10
220.000000
20
168.000000
30
0.0
11
220.000000
21
128.000000
31
0.0
0
LINE
8
LINES
10
280.000000
20
320.000000
30
0.0
11
280.000000
21
360.000000
31
0.0
0
LINE
8
LINES
10
184.000000
20
264.000000
30
0.0
11
184.000000
21
224.000000
31
0.0
0
LINE
8
LINES
10
188.000000
20
320.000000
30
0.0
11
188.000000
21
360.000000
31
0.0
0
LINE
8
LINES
10
448.000000
20
216.000000
30
0.0
11
448.000000
21
256.000000
31
0.0
0
LINE
8
LINES
10
372.000000
20
272.000000
30
0.0
11
372.000000
21
236.000000
31
0.0
0
LINE
8
LINES
10
424.000000
20
232.000000
30
0.0
11
424.000000
21
272.000000
31
0.0
0
LINE
8
LINES
10
496.000000
20
156.000000
30
0.0
11
496.000000
21
192.000000
31
0.0
0
LINE
8
LINES
10
296.000000
20
232.000000
30
0.0
11
296.000000
21
272.000000
31
0.0
0
LINE
8
LINES
10
208.000000
20
232.000000
30
0.0
11
208.000000
21
272.000000
31
0.0
0
LINE
8
LINES
10
392.000000
20
176.000000
30
0.0
11
428.000000
21
176.000000
31
0.0
0
LINE
8
LINES
10
100.000000
20
92.000000
30
0.0
11
60.000000
21
92.000000
31
0.0
0
LINE
8
LINES
10
352.000000
20
188.000000
30
0.0
11
352.000000
21
224.000000
31
0.0
0
LINE
8
LINES
10
392.000000
20
172.000000
30
0.0
11
392.000000
21
136.000000
31
0.0
0
LINE
8
LINES
10
268.000000
20
288.000000
30
0.0
11
228.000000
21
288.000000
31
0.0
0
LINE
8
LINES
10
144.000000
20
96.000000
30
0.0
11
180.000000
21
96.000000
31
0.0
0
LINE
8
LINES
10
236.000000
20
184.000000
30
0.0
11
276.000000
21
184.000000
31
0.0
0
LINE
8
LINES
10
104.000000
20
432.000000
30
0.0
11
104.000000
21
392.000000
31
0.0
0
LINE
8
LINES
10
452.000000
20
468.000000
30
0.0
11
492.000000
21
468.000000
31
0.0
0
LINE
8
LINES
10
260.000000
20
432.000000
30
0.0
11
260.000000
21
396.000000
31
0.0
0
LINE
8
LINES
10
100.000000
20
320.000000
30
0.0
11
100.000000
21
360.000000
31
0.0
0
LINE
8
LINES
10
140.000000
20
284.000000
30
0.0
11
176.000000
21
284.000000
31
0.0
0
LINE
8
LINES
10
120.000000
20
232.000000
30
0.0
11
120.000000
21
272.000000
31
0.0
0
LINE
8
LINES
10
180.000000
20
432.000000
30
0.0
11
180.000000
21
396.000000
31
0.0
0
LINE
8
LINES
10
284.000000
20
272.000000
30
0.0
11
284.000000
21
232.000000
31
0.0
0
LINE
8
LINES
10
108.000000
20
272.000000
30
0.0
11
108.000000
21
232.000000
31
0.0
0
LINE
8
LINES
10
212.000000
20
272.000000
30
0.0
11
212.000000
21
232.000000
31
0.0
0
LINE
8
LINES
10
364.000000
20
184.000000
30
0.0
11
400.000000
21
184.000000
31
0.0
0
LINE
8
LINES
10
300.000000
20
272.000000
30
0.0
11
300.000000
21
236.000000
31
0.0
0
LINE
8
LINES
10
144.000000
20
460.000000
30
0.0
11
180.000000
21
460.000000
31
0.0
0
LINE
8
LINES
10
312.000000
20
232.000000
30
0.0
11
312.000000
21
272.000000
31
0.0
0
LINE
8
LINES
10
440.000000
20
144.000000
30
0.0
11
440.000000
21
180.000000
31
0.0
0
LINE
8
LINES
10
416.000000
20
272.000000
30
0.0
11
416.000000
21
236.000000
31
0.0
0
LINE
8
LINES
10
408.000000
20
240.000000
30
0.0
11
408.000000
21
272.000000
31
0.0
0
LINE
8
LINES
10
124.000000
20
268.000000
30
0.0
11
124.000000
21
232.000000
31
0.0
0
LINE
8
LINES
10
276.000000
20
172.000000
30
0.0
11
276.000000
21
136.000000
31
0.0
0
LINE
8
LINES
10
424.000000
20
424.000000
30
0.0
11
388.000000
21
424.000000
31
0.0
0
LINE
8
LINES
10
132.000000
20
232.000000
30
0.0
11
132.000000
21
268.000000
31
0.0
0
LINE
8
LINES
10
24.000000
20
36.000000
30
0.0
11
24.000000
21
0.000000
31
0.0
0
LINE
8
LINES
10
400.000000
20
272.000000
30
0.0
11
400.000000
21
240.000000
31
0.0
0
LINE
8
LINES
10
196.000000
20
272.000000
30
0.0
11
196.000000
21
236.000000
31
0.0
0
LINE
8
LINES
10
236.000000
20
232.000000
30
0.0
11
236.000000
21
268.000000
31
0.0
0
LINE
8
LINES
10
352.000000
20
132.000000
30
0.0
11
352.000000
21
168.000000
31
0.0
0
LINE
8
LINES
10
272.000000
20
232.000000
30
0.0
11
272.000000
21
268.000000
31
0.0
0
LINE
8
LINES
10
496.000000
20
188.000000
30
0.0
11
496.000000
21
152.000000
31
0.0
0
LINE
8
LINES
10
24.000000
20
168.000000
30
0.0
11
24.000000
21
204.000000
31
0.0
0
LINE
8
LINES
10
92.000000
20
232.000000
30
0.0
11
92.000000
21
264.000000
31
0.0
0
LINE
8
LINES
10
148.000000
20
232.000000
30
0.0
11
148.000000
21
264.000000
31
0.0
0
LINE
8
LINES
10
180.000000
20
232.000000
30
0.0
11
180.000000
21
264.000000
31
0.0
0
LINE
8
LINES
10
436.000000
20
332.000000
30
0.0
11
436.000000
21
364.000000
31
0.0
0
LINE
8
LINES
10
56.000000
20
0.000000
30
0.0
11
56.000000
21
32.000000
31
0.0
0
LINE
8
LINES
10
332.000000
20
424.000000
30
0.0
11
364.000000
21
424.000000
31
0.0
0
LINE
8
LINES
10
188.000000
20
276.000000
30
0.0
11
220.000000
21
276.000000
31
0.0
0
LINE
8
LINES
10
280.000000
20
276.000000
30
0.0
11
312.000000
21
276.000000
31
0.0
0
LINE
8
LINES
10
288.000000
20
240.000000
30
0.0
11
288.000000
21
272.000000
31
0.0
0
LINE
8
LINES
10
332.000000
20
416.000000
30
0.0
11
364.000000
21
416.000000
31
0.0
0
LINE
8
LINES
10
136.000000
20
264.000000
30
0.0
11
136.000000
21
232.000000
31
0.0
0
LINE
8
LINES
10
292.000000
20
272.000000
30
0.0
11
292.000000
21
240.000000
31
0.0
0
LINE
8
LINES
10
4.000000
20
232.000000
30
0.0
11
4.000000
21
264.000000
31
0.0
0
LINE
8
LINES
10
224.000000
20
264.000000
30
0.0
11
224.000000
21
232.000000
31
0.0
0
LINE
8
LINES
10
312.000000
20
268.000000
30
0.0
11
312.000000
21
232.000000
31
0.0
0
LINE
8
LINES
10
432.000000
20
312.000000
30
0.0
11
464.000000
21
312.000000
31
0.0
0
LINE
8
LINES
10
96.000000
20
348.000000
30
0.0
11
96.000000
21
312.000000
31
0.0
0
LINE
8
LINES
10
20.000000
20
32.000000
30
0.0
11
12.000000
21
0.000000
31
0.0
0
LINE
8
LINES
10
16.000000
20
0.000000
30
0.0
11
24.000000
21
32.000000
31
0.0
0
LINE
8
LINES
10
400.000000
20
212.000000
30
0.0
11
432.000000
21
216.000000
31
0.0
0
LINE
8
LINES
10
280.000000
20
312.000000
30
0.0
11
312.000000
21
312.000000
31
0.0
0
LINE
8
LINES
10
168.000000
20
360.000000
30
0.0
11
168.000000
21
328.000000
31
0.0
0
LINE
8
LINES
10
396.000000
20
312.000000
30
0.0
11
428.000000
21
312.000000
31
0.0
0
LINE
8
LINES
10
220.000000
20
280.000000
30
0.0
11
188.000000
21
280.000000
31
0.0
0
LINE
8
LINES
10
364.000000
20
428.000000
30
0.0
11
332.000000
21
428.000000
31
0.0
0
LINE
8
LINES
10
364.000000
20
456.000000
30
0.0
11
332.000000
21
456.000000
31
0.0
0
LINE
8
LINES
10
32.000000
20
416.000000
30
0.0
11
32.000000
21
448.000000
31
0.0
0
LINE
8
LINES
10
392.000000
20
280.000000
30
0.0
11
424.000000
21
280.000000
31
0.0
0
LINE
8
LINES
10
232.000000
20
176.000000
30
0.0
11
264.000000
21
176.000000
31
0.0
0
LINE
8
LINES
10
332.000000
20
456.000000
30
0.0
11
364.000000
21
456.000000
31
0.0
0
LINE
8
LINES
10
432.000000
20
288.000000
30
0.0
11
464.000000
21
288.000000
31
0.0
0
LINE
8
LINES
10
92.000000
20
136.000000
30
0.0
11
64.000000
21
128.000000
31
0.0
0
LINE
8
LINES
10
504.000000
20
188.000000
30
0.0
11
504.000000
21
156.000000
31
0.0
0
LINE
8
LINES
10
192.000000
20
208.000000
30
0.0
11
224.000000
21
208.000000
31
0.0
0
LINE
8
LINES
10
308.000000
20
280.000000
30
0.0
11
280.000000
21
280.000000
31
0.0
0
LINE
8
LINES
10
280.000000
20
232.000000
30
0.0
11
312.000000
21
232.000000
31
0.0
0
LINE
8
LINES
10
332.000000
20
432.000000
30
0.0
11
360.000000
21
432.000000
31
0.0
0
LINE
8
LINES
10
492.000000
20
200.000000
30
0.0
11
492.000000
21
228.000000
31
0.0
0
LINE
8
LINES
10
464.000000
20
292.000000
30
0.0
11
432.000000
21
292.000000
31
0.0
0
LINE
8
LINES
10
424.000000
20
280.000000
30
0.0
11
392.000000
21
280.000000
31
0.0
0
LINE
8
LINES
10
100.000000
20
272.000000
30
0.0
11
128.000000
21
272.000000
31
0.0
0
LINE
8
LINES
10
332.000000
20
408.000000
30
0.0
11
360.000000
21
408.000000
31
0.0
0
LINE
8
LINES
10
144.000000
20
152.000000
30
0.0
11
144.000000
21
120.000000
31
0.0
0
LINE
8
LINES
10
60.000000
20
96.000000
30
0.0
11
92.000000
21
96.000000
31
0.0
0
LINE
8
LINES
10
184.000000
20
328.000000
30
0.0
11
184.000000
21
360.000000
31
0.0
0
LINE
8
LINES
10
384.000000
20
292.000000
30
0.0
11
352.000000
21
292.000000
31
0.0
0
LINE
8
LINES
10
352.000000
20
288.000000
30
0.0
11
384.000000
21
288.000000
31
0.0
0
LINE
8
LINES
10
240.000000
20
248.000000
30
0.0
11
240.000000
21
220.000000
31
0.0
0
ENDSEC
0
EOF
