0
SECTION
2
ENTITIES
0
LWPOLYLINE
8
FACADE_OUTLINE
90
4
70
1
10
0.000000
20
0.000000
10
595.000000
20
0.000000
10
595.000000
20
441.000000
10
0.000000
20
441.000000
0
LWPOLYLINE
8
WINDOWS
90
4
70
1
10
153.000000
20
30.000000
10
208.000000
20
30.000000
10
208.000000
20
49.000000
10
153.000000
20
49.000000
0
LWPOLYLINE
8
WINDOWS
90
4
70
1
10
225.000000
20
49.000000
10
443.000000
20
49.000000
10
443.000000
20
126.000000
10
225.000000
20
126.000000
0
LWPOLYLINE
8
WINDOWS
90
4
70
1
10
156.000000
20
60.000000
10
190.000000
20
60.000000
10
190.000000
20
100.000000
10
156.000000
20
100.000000
0
LWPOLYLINE
8
WINDOWS
90
4
70
1
10
168.000000
20
60.000000
10
310.000000
20
60.000000
10
310.000000
20
129.000000
10
168.000000
20
129.000000
0
LWPOLYLINE
8
WINDOWS
90
4
70
1
10
107.000000
20
67.000000
10
156.000000
20
67.000000
10
156.000000
20
129.000000
10
107.000000
20
129.000000
0
LWPOLYLINE
8
WINDOWS
90
4
70
1
10
299.000000
20
118.000000
10
358.000000
20
118.000000
10
358.000000
20
148.000000
10
299.000000
20
148.000000
0
LWPOLYLINE
8
WINDOWS
90
4
70
1
10
361.000000
20
124.000000
10
393.000000
20
124.000000
10
393.000000
20
148.000000
10
361.000000
20
148.000000
0
LWPOLYLINE
8
WINDOWS
90
4
70
1
10
281.000000
20
126.000000
10
310.000000
20
126.000000
10
310.000000
20
148.000000
10
281.000000
20
148.000000
0
LWPOLYLINE
8
WINDOWS
90
4
70
1
10
280.000000
20
145.000000
10
593.000000
20
145.000000
10
593.000000
20
398.000000
10
280.000000
20
398.000000
0
LWPOLYLINE
8
WINDOWS
90
4
70
1
10
428.000000
20
177.000000
10
526.000000
20
177.000000
10
526.000000
20
256.000000
10
428.000000
20
256.000000
0
LWPOLYLINE
8
WINDOWS
90
4
70
1
10
142.000000
20
179.000000
10
241.000000
20
179.000000
10
241.000000
20
259.000000
10
142.000000
20
259.000000
0
LWPOLYLINE
8
WINDOWS
90
4
70
1
10
452.000000
20
182.000000
10
502.000000
20
182.000000
10
502.000000
20
249.000000
10
452.000000
20
249.000000
0
LWPOLYLINE
8
WINDOWS
90
4
70
1
10
166.000000
20
185.000000
10
220.000000
20
185.000000
10
220.000000
20
252.000000
10
166.000000
20
252.000000
0
LWPOLYLINE
8
WINDOWS
90
4
70
1
10
281.000000
20
241.000000
10
316.000000
20
241.000000
10
316.000000
20
278.000000
10
281.000000
20
278.000000
0
LWPOLYLINE
8
WINDOWS
90
4
70
1
10
0.000000
20
286.000000
10
99.000000
20
286.000000
10
99.000000
20
390.000000
10
0.000000
20
390.000000
0
LWPOLYLINE
8
WINDOWS
90
4
70
1
10
142.000000
20
291.000000
10
241.000000
20
291.000000
10
241.000000
20
393.000000
10
142.000000
20
393.000000
0
LWPOLYLINE
8
WINDOWS
90
4
70
1
10
166.000000
20
299.000000
10
222.000000
20
299.000000
10
222.000000
20
369.000000
10
166.000000
20
369.000000
0
LWPOLYLINE
8
WINDOWS
90
4
70
1
10
454.000000
20
305.000000
10
502.000000
20
305.000000
10
502.000000
20
364.000000
10
454.000000
20
364.000000
0
LWPOLYLINE
8
WINDOWS
90
4
70
1
10
452.000000
20
366.000000
10
505.000000
20
366.000000
10
505.000000
20
395.000000
10
452.000000
20
395.000000
0
LWPOLYLINE
8
DOORS
90
4
70
1
10
41.000000
20
188.000000
10
54.000000
20
188.000000
10
54.000000
20
251.000000
10
41.000000
20
251.000000
0
LINE
8
LINES
10
568.000000
20
393.000000
30
0.0
11
259.000000
21
393.000000
31
0.0
0
LINE
8
LINES
10
283.000000
20
395.000000
30
0.0
11
571.000000
21
395.000000
31
0.0
0
LINE
8
LINES
10
569.000000
20
438.000000
30
0.0
11
569.000000
21
168.000000
31
0.0
0
LINE
8
LINES
10
278.000000
20
145.000000
30
0.0
11
9.000000
21
145.000000
31
0.0
0
LINE
8
LINES
10
587.000000
20
163.000000
30
0.0
11
361.000000
21
163.000000
31
0.0
0
LINE
8
LINES
10
305.000000
20
169.000000
30
0.0
11
92.000000
21
169.000000
31
0.0
0
LINE
8
LINES
10
393.000000
20
139.000000
30
0.0
11
588.000000
21
139.000000
31
0.0
0
LINE
8
LINES
10
78.000000
20
160.000000
30
0.0
11
273.000000
21
160.000000
31
0.0
0
LINE
8
LINES
10
265.000000
20
401.000000
30
0.0
11
73.000000
21
401.000000
31
0.0
0
LINE
8
LINES
10
588.000000
20
147.000000
30
0.0
11
396.000000
21
147.000000
31
0.0
0
LINE
8
LINES
10
396.000000
20
156.000000
30
0.0
11
585.000000
21
156.000000
31
0.0
0
LINE
8
LINES
10
86.000000
20
142.000000
30
0.0
11
273.000000
21
142.000000
31
0.0
0
LINE
8
LINES
10
92.000000
20
400.000000
30
0.0
11
272.000000
21
400.000000
31
0.0
0
LINE
8
LINES
10
593.000000
20
14.000000
30
0.0
11
441.000000
21
0.000000
31
0.0
0
LINE
8
LINES
10
462.000000
20
32.000000
30
0.0
11
588.000000
21
54.000000
31
0.0
0
LINE
8
LINES
10
465.000000
20
0.000000
30
0.0
11
593.000000
21
12.000000
31
0.0
0
LINE
8
LINES
10
283.000000
20
28.000000
30
0.0
11
163.000000
21
28.000000
31
0.0
0
LINE
8
LINES
10
116.000000
20
432.000000
30
0.0
11
236.000000
21
432.000000
31
0.0
0
LINE
8
LINES
10
278.000000
20
428.000000
30
0.0
11
396.000000
21
428.000000
31
0.0
0
LINE
8
LINES
10
276.000000
20
387.000000
30
0.0
11
276.000000
21
272.000000
31
0.0
0
LINE
8
LINES
10
438.000000
20
425.000000
30
0.0
11
553.000000
21
425.000000
31
0.0
0
LINE
8
LINES
10
232.000000
20
435.000000
30
0.0
11
121.000000
21
435.000000
31
0.0
0
LINE
8
LINES
10
280.000000
20
286.000000
30
0.0
11
280.000000
21
396.000000
31
0.0
0
LINE
8
LINES
10
179.000000
20
24.000000
30
0.0
11
289.000000
21
24.000000
31
0.0
0
LINE
8
LINES
10
392.000000
20
432.000000
30
0.0
11
281.000000
21
432.000000
31
0.0
0
LINE
8
LINES
10
548.000000
20
428.000000
30
0.0
11
441.000000
21
428.000000
31
0.0
0
LINE
8
LINES
10
387.000000
20
155.000000
30
0.0
11
281.000000
21
155.000000
31
0.0
0
LINE
8
LINES
10
500.000000
20
132.000000
30
0.0
11
396.000000
21
132.000000
31
0.0
0
LINE
8
LINES
10
281.000000
20
160.000000
30
0.0
11
382.000000
21
160.000000
31
0.0
0
LINE
8
LINES
10
403.000000
20
27.000000
30
0.0
11
307.000000
21
27.000000
31
0.0
0
LINE
8
LINES
10
288.000000
20
390.000000
30
0.0
11
288.000000
21
296.000000
31
0.0
0
LINE
8
LINES
10
384.000000
20
296.000000
30
0.0
11
384.000000
21
388.000000
31
0.0
0
LINE
8
LINES
10
144.000000
20
180.000000
30
0.0
11
238.000000
21
180.000000
31
0.0
0
LINE
8
LINES
10
432.000000
20
291.000000
30
0.0
11
526.000000
21
291.000000
31
0.0
0
LINE
8
LINES
10
430.000000
20
179.000000
30
0.0
11
523.000000
21
179.000000
31
0.0
0
LINE
8
LINES
10
283.000000
20
270.000000
30
0.0
11
374.000000
21
270.000000
31
0.0
0
LINE
8
LINES
10
313.000000
20
297.000000
30
0.0
11
313.000000
21
387.000000
31
0.0
0
LINE
8
LINES
10
364.000000
20
281.000000
30
0.0
11
281.000000
21
291.000000
31
0.0
0
LINE
8
LINES
10
0.000000
20
60.000000
30
0.0
11
76.000000
21
28.000000
31
0.0
0
LINE
8
LINES
10
313.000000
20
182.000000
30
0.0
11
313.000000
21
264.000000
31
0.0
0
LINE
8
LINES
10
473.000000
20
147.000000
30
0.0
11
393.000000
21
147.000000
31
0.0
0
LINE
8
LINES
10
360.000000
20
387.000000
30
0.0
11
360.000000
21
307.000000
31
0.0
0
LINE
8
LINES
10
593.000000
20
4.000000
30
0.0
11
513.000000
21
4.000000
31
0.0
0
LINE
8
LINES
10
382.000000
20
179.000000
30
0.0
11
382.000000
21
257.000000
31
0.0
0
LINE
8
LINES
10
568.000000
20
377.000000
30
0.0
11
568.000000
21
302.000000
31
0.0
0
LINE
8
LINES
10
0.000000
20
163.000000
30
0.0
11
67.000000
21
140.000000
31
0.0
0
LINE
8
LINES
10
566.000000
20
246.000000
30
0.0
11
496.000000
21
246.000000
31
0.0
0
LINE
8
LINES
10
169.000000
20
296.000000
30
0.0
11
238.000000
21
296.000000
31
0.0
0
LINE
8
LINES
10
576.000000
20
67.000000
30
0.0
11
507.000000
21
67.000000
31
0.0
0
LINE
8
LINES
10
139.000000
20
209.000000
30
0.0
11
72.000000
21
209.000000
31
0.0
0
LINE
8
LINES
10
72.000000
20
224.000000
30
0.0
11
139.000000
21
224.000000
31
0.0
0
LINE
8
LINES
10
72.000000
20
203.000000
30
0.0
11
139.000000
21
203.000000
31
0.0
0
LINE
8
LINES
10
454.000000
20
294.000000
30
0.0
11
454.000000
21
361.000000
31
0.0
0
LINE
8
LINES
10
168.000000
20
297.000000
30
0.0
11
168.000000
21
366.000000
31
0.0
0
LINE
8
LINES
10
92.000000
20
393.000000
30
0.0
11
161.000000
21
393.000000
31
0.0
0
LINE
8
LINES
10
508.000000
20
57.000000
30
0.0
11
577.000000
21
57.000000
31
0.0
0
LINE
8
LINES
10
73.000000
20
235.000000
30
0.0
11
139.000000
21
235.000000
31
0.0
0
LINE
8
LINES
10
139.000000
20
230.000000
30
0.0
11
73.000000
21
230.000000
31
0.0
0
LINE
8
LINES
10
240.000000
20
180.000000
30
0.0
11
240.000000
21
246.000000
31
0.0
0
LINE
8
LINES
10
452.000000
20
179.000000
30
0.0
11
452.000000
21
246.000000
31
0.0
0
LINE
8
LINES
10
430.000000
20
246.000000
30
0.0
11
430.000000
21
179.000000
31
0.0
0
LINE
8
LINES
10
241.000000
20
297.000000
30
0.0
11
241.000000
21
363.000000
31
0.0
0
LINE
8
LINES
10
524.000000
20
177.000000
30
0.0
11
524.000000
21
243.000000
31
0.0
0
LINE
8
LINES
10
57.000000
20
296.000000
30
0.0
11
57.000000
21
361.000000
31
0.0
0
LINE
8
LINES
10
6.000000
20
70.000000
30
0.0
11
67.000000
21
46.000000
31
0.0
0
LINE
8
LINES
10
304.000000
20
22.000000
30
0.0
11
369.000000
21
22.000000
31
0.0
0
LINE
8
LINES
10
142.000000
20
364.000000
30
0.0
11
142.000000
21
299.000000
31
0.0
0
LINE
8
LINES
10
142.000000
20
248.000000
30
0.0
11
142.000000
21
182.000000
31
0.0
0
LINE
8
LINES
10
217.000000
20
364.000000
30
0.0
11
217.000000
21
299.000000
31
0.0
0
LINE
8
LINES
10
153.000000
20
57.000000
30
0.0
11
219.000000
21
57.000000
31
0.0
0
LINE
8
LINES
10
526.000000
20
292.000000
30
0.0
11
526.000000
21
356.000000
31
0.0
0
LINE
8
LINES
10
430.000000
20
358.000000
30
0.0
11
430.000000
21
296.000000
31
0.0
0
LINE
8
LINES
10
217.000000
20
54.000000
30
0.0
11
153.000000
21
54.000000
31
0.0
0
LINE
8
LINES
10
369.000000
20
52.000000
30
0.0
11
305.000000
21
52.000000
31
0.0
0
LINE
8
LINES
10
340.000000
20
384.000000
30
0.0
11
340.000000
21
321.000000
31
0.0
0
LINE
8
LINES
10
217.000000
20
249.000000
30
0.0
11
217.000000
21
187.000000
31
0.0
0
LINE
8
LINES
10
70.000000
20
297.000000
30
0.0
11
70.000000
21
358.000000
31
0.0
0
LINE
8
LINES
10
441.000000
20
56.000000
30
0.0
11
502.000000
21
56.000000
31
0.0
0
LINE
8
LINES
10
502.000000
20
51.000000
30
0.0
11
441.000000
21
51.000000
31
0.0
0
LINE
8
LINES
10
6.000000
20
299.000000
30
0.0
11
67.000000
21
286.000000
31
0.0
0
LINE
8
LINES
10
83.000000
20
126.000000
30
0.0
11
108.000000
21
70.000000
31
0.0
0
LINE
8
LINES
10
17.000000
20
368.000000
30
0.0
11
17.000000
21
307.000000
31
0.0
0
LINE
8
LINES
10
115.000000
20
76.000000
30
0.0
11
92.000000
21
131.000000
31
0.0
0
LINE
8
LINES
10
6.000000
20
404.000000
30
0.0
11
67.000000
21
398.000000
31
0.0
0
LINE
8
LINES
10
169.000000
20
182.000000
30
0.0
11
169.000000
21
241.000000
31
0.0
0
LINE
8
LINES
10
336.000000
20
323.000000
30
0.0
11
336.000000
21
382.000000
31
0.0
0
LINE
8
LINES
10
9.000000
20
233.000000
30
0.0
11
9.000000
21
291.000000
31
0.0
0
LINE
8
LINES
10
12.000000
20
185.000000
30
0.0
11
67.000000
21
169.000000
31
0.0
0
LINE
8
LINES
10
499.000000
20
243.000000
30
0.0
11
499.000000
21
185.000000
31
0.0
0
LINE
8
LINES
10
363.000000
20
57.000000
30
0.0
11
305.000000
21
57.000000
31
0.0
0
LINE
8
LINES
10
163.000000
20
249.000000
30
0.0
11
220.000000
21
249.000000
31
0.0
0
LINE
8
LINES
10
508.000000
20
252.000000
30
0.0
11
566.000000
21
252.000000
31
0.0
0
LINE
8
LINES
10
566.000000
20
256.000000
30
0.0
11
508.000000
21
256.000000
31
0.0
0
LINE
8
LINES
10
376.000000
20
56.000000
30
0.0
11
433.000000
21
56.000000
31
0.0
0
LINE
8
LINES
10
448.000000
20
246.000000
30
0.0
11
505.000000
21
246.000000
31
0.0
0
LINE
8
LINES
10
276.000000
20
153.000000
30
0.0
11
334.000000
21
153.000000
31
0.0
0
LINE
8
LINES
10
283.000000
20
68.000000
30
0.0
11
225.000000
21
68.000000
31
0.0
0
LINE
8
LINES
10
57.000000
20
46.000000
30
0.0
11
3.000000
21
67.000000
31
0.0
0
LINE
8
LINES
10
163.000000
20
366.000000
30
0.0
11
220.000000
21
366.000000
31
0.0
0
LINE
8
LINES
10
163.000000
20
291.000000
30
0.0
11
220.000000
21
291.000000
31
0.0
0
LINE
8
LINES
10
67.000000
20
401.000000
30
0.0
11
12.000000
21
409.000000
31
0.0
0
LINE
8
LINES
10
182.000000
20
137.000000
30
0.0
11
128.000000
21
137.000000
31
0.0
0
LINE
8
LINES
10
30.000000
20
310.000000
30
0.0
11
30.000000
21
366.000000
31
0.0
0
LINE
8
LINES
10
499.000000
20
116.000000
30
0.0
11
499.000000
21
62.000000
31
0.0
0
LINE
8
LINES
10
510.000000
20
385.000000
30
0.0
11
566.000000
21
385.000000
31
0.0
0
LINE
8
LINES
10
214.000000
20
62.000000
30
0.0
11
158.000000
21
62.000000
31
0.0
0
LINE
8
LINES
10
73.000000
20
51.000000
30
0.0
11
22.000000
21
70.000000
31
0.0
0
LINE
8
LINES
10
452.000000
20
361.000000
30
0.0
11
507.000000
21
361.000000
31
0.0
0
LINE
8
LINES
10
500.000000
20
358.000000
30
0.0
11
500.000000
21
305.000000
31
0.0
0
LINE
8
LINES
10
166.000000
20
174.000000
30
0.0
11
219.000000
21
174.000000
31
0.0
0
LINE
8
LINES
10
497.000000
20
60.000000
30
0.0
11
444.000000
21
60.000000
31
0.0
0
LINE
8
LINES
10
401.000000
20
30.000000
30
0.0
11
452.000000
21
35.000000
31
0.0
0
LINE
8
LINES
10
430.000000
20
51.000000
30
0.0
11
377.000000
21
51.000000
31
0.0
0
LINE
8
LINES
10
451.000000
20
172.000000
30
0.0
11
502.000000
21
172.000000
31
0.0
0
LINE
8
LINES
10
310.000000
20
289.000000
30
0.0
11
363.000000
21
289.000000
31
0.0
0
LINE
8
LINES
10
339.000000
20
150.000000
30
0.0
11
392.000000
21
150.000000
31
0.0
0
LINE
8
LINES
10
504.000000
20
387.000000
30
0.0
11
451.000000
21
387.000000
31
0.0
0
LINE
8
LINES
10
505.000000
20
366.000000
30
0.0
11
454.000000
21
366.000000
31
0.0
0
LINE
8
LINES
10
336.000000
20
115.000000
30
0.0
11
387.000000
21
115.000000
31
0.0
0
LINE
8
LINES
10
441.000000
20
44.000000
30
0.0
11
492.000000
21
44.000000
31
0.0
0
LINE
8
LINES
10
361.000000
20
108.000000
30
0.0
11
361.000000
21
57.000000
31
0.0
0
LINE
8
LINES
10
25.000000
20
150.000000
30
0.0
11
72.000000
21
134.000000
31
0.0
0
LINE
8
LINES
10
446.000000
20
252.000000
30
0.0
11
396.000000
21
252.000000
31
0.0
0
LINE
8
LINES
10
443.000000
20
60.000000
30
0.0
11
443.000000
21
110.000000
31
0.0
0
LINE
8
LINES
10
169.000000
20
73.000000
30
0.0
11
169.000000
21
124.000000
31
0.0
0
LINE
8
LINES
10
12.000000
20
393.000000
30
0.0
11
60.000000
21
393.000000
31
0.0
0
LINE
8
LINES
10
224.000000
20
392.000000
30
0.0
11
273.000000
21
392.000000
31
0.0
0
LINE
8
LINES
10
33.000000
20
83.000000
30
0.0
11
33.000000
21
131.000000
31
0.0
0
LINE
8
LINES
10
452.000000
20
385.000000
30
0.0
11
502.000000
21
385.000000
31
0.0
0
LINE
8
LINES
10
422.000000
20
67.000000
30
0.0
11
374.000000
21
67.000000
31
0.0
0
LINE
8
LINES
10
225.000000
20
32.000000
30
0.0
11
273.000000
21
32.000000
31
0.0
0
LINE
8
LINES
10
363.000000
20
22.000000
30
0.0
11
411.000000
21
22.000000
31
0.0
0
LINE
8
LINES
10
206.000000
20
121.000000
30
0.0
11
206.000000
21
73.000000
31
0.0
0
LINE
8
LINES
10
60.000000
20
86.000000
30
0.0
11
60.000000
21
132.000000
31
0.0
0
LINE
8
LINES
10
139.000000
20
240.000000
30
0.0
11
92.000000
21
240.000000
31
0.0
0
LINE
8
LINES
10
19.000000
20
131.000000
30
0.0
11
19.000000
21
83.000000
31
0.0
0
LINE
8
LINES
10
452.000000
20
73.000000
30
0.0
11
452.000000
21
121.000000
31
0.0
0
LINE
8
LINES
10
212.000000
20
254.000000
30
0.0
11
166.000000
21
254.000000
31
0.0
0
LINE
8
LINES
10
9.000000
20
129.000000
30
0.0
11
9.000000
21
81.000000
31
0.0
0
LINE
8
LINES
10
115.000000
20
41.000000
30
0.0
11
161.000000
21
32.000000
31
0.0
0
LINE
8
LINES
10
12.000000
20
371.000000
30
0.0
11
57.000000
21
366.000000
31
0.0
0
LINE
8
LINES
10
230.000000
20
60.000000
30
0.0
11
276.000000
21
60.000000
31
0.0
0
LINE
8
LINES
10
41.000000
20
425.000000
30
0.0
11
88.000000
21
425.000000
31
0.0
0
LINE
8
LINES
10
288.000000
20
225.000000
30
0.0
11
288.000000
21
179.000000
31
0.0
0
LINE
8
LINES
10
489.000000
20
118.000000
30
0.0
11
489.000000
21
73.000000
31
0.0
0
LINE
8
LINES
10
308.000000
20
62.000000
30
0.0
11
308.000000
21
108.000000
31
0.0
0
LINE
8
LINES
10
358.000000
20
233.000000
30
0.0
11
358.000000
21
187.000000
31
0.0
0
LINE
8
LINES
10
350.000000
20
32.000000
30
0.0
11
396.000000
21
32.000000
31
0.0
0
LINE
8
LINES
10
9.000000
20
172.000000
30
0.0
11
9.000000
21
219.000000
31
0.0
0
LINE
8
LINES
10
358.000000
20
184.000000
30
0.0
11
313.000000
21
184.000000
31
0.0
0
LINE
8
LINES
10
12.000000
20
257.000000
30
0.0
11
57.000000
21
248.000000
31
0.0
0
LINE
8
LINES
10
76.000000
20
28.000000
30
0.0
11
118.000000
21
44.000000
31
0.0
0
LINE
8
LINES
10
313.000000
20
60.000000
30
0.0
11
358.000000
21
60.000000
31
0.0
0
LINE
8
LINES
10
60.000000
20
134.000000
30
0.0
11
17.000000
21
147.000000
31
0.0
0
LINE
8
LINES
10
312.000000
20
108.000000
30
0.0
11
312.000000
21
62.000000
31
0.0
0
LINE
8
LINES
10
358.000000
20
62.000000
30
0.0
11
358.000000
21
105.000000
31
0.0
0
LINE
8
LINES
10
214.000000
20
185.000000
30
0.0
11
171.000000
21
185.000000
31
0.0
0
LINE
8
LINES
10
568.000000
20
225.000000
30
0.0
11
568.000000
21
182.000000
31
0.0
0
LINE
8
LINES
10
17.000000
20
142.000000
30
0.0
11
59.000000
21
129.000000
31
0.0
0
LINE
8
LINES
10
172.000000
20
48.000000
30
0.0
11
214.000000
21
48.000000
31
0.0
0
LINE
8
LINES
10
172.000000
20
307.000000
30
0.0
11
216.000000
21
307.000000
31
0.0
0
LINE
8
LINES
10
356.000000
20
297.000000
30
0.0
11
313.000000
21
297.000000
31
0.0
0
LINE
8
LINES
10
214.000000
20
300.000000
30
0.0
11
172.000000
21
300.000000
31
0.0
0
LINE
8
LINES
10
75.000000
20
129.000000
30
0.0
11
75.000000
21
86.000000
31
0.0
0
LINE
8
LINES
10
70.000000
20
86.000000
30
0.0
11
70.000000
21
129.000000
31
0.0
0
LINE
8
LINES
10
497.000000
20
184.000000
30
0.0
11
456.000000
21
184.000000
31
0.0
0
LINE
8
LINES
10
243.000000
20
211.000000
30
0.0
11
284.000000
21
211.000000
31
0.0
0
LINE
8
LINES
10
284.000000
20
217.000000
30
0.0
11
243.000000
21
217.000000
31
0.0
0
LINE
8
LINES
10
356.000000
20
70.000000
30
0.0
11
316.000000
21
70.000000
31
0.0
0
LINE
8
LINES
10
497.000000
20
294.000000
30
0.0
11
457.000000
21
294.000000
31
0.0
0
LINE
8
LINES
10
497.000000
20
251.000000
30
0.0
11
457.000000
21
251.000000
31
0.0
0
LINE
8
LINES
10
272.000000
20
118.000000
30
0.0
11
313.000000
21
118.000000
31
0.0
0
LINE
8
LINES
10
86.000000
20
44.000000
30
0.0
11
124.000000
21
60.000000
31
0.0
0
LINE
8
LINES
10
81.000000
20
51.000000
30
0.0
11
118.000000
21
68.000000
31
0.0
0
LINE
8
LINES
10
568.000000
20
132.000000
30
0.0
11
528.000000
21
132.000000
31
0.0
0
LINE
8
LINES
10
169.000000
20
124.000000
30
0.0
11
209.000000
21
124.000000
31
0.0
0
LINE
8
LINES
10
78.000000
20
86.000000
30
0.0
11
78.000000
21
126.000000
31
0.0
0
LINE
8
LINES
10
452.000000
20
121.000000
30
0.0
11
492.000000
21
121.000000
31
0.0
0
LINE
8
LINES
10
457.000000
20
302.000000
30
0.0
11
497.000000
21
302.000000
31
0.0
0
LINE
8
LINES
10
316.000000
20
305.000000
30
0.0
11
356.000000
21
305.000000
31
0.0
0
LINE
8
LINES
10
385.000000
20
220.000000
30
0.0
11
425.000000
21
220.000000
31
0.0
0
LINE
8
LINES
10
502.000000
20
62.000000
30
0.0
11
502.000000
21
102.000000
31
0.0
0
LINE
8
LINES
10
371.000000
20
102.000000
30
0.0
11
371.000000
21
62.000000
31
0.0
0
LINE
8
LINES
10
369.000000
20
64.000000
30
0.0
11
369.000000
21
104.000000
31
0.0
0
LINE
8
LINES
10
352.000000
20
176.000000
30
0.0
11
312.000000
21
176.000000
31
0.0
0
LINE
8
LINES
10
57.000000
20
252.000000
30
0.0
11
19.000000
21
260.000000
31
0.0
0
LINE
8
LINES
10
468.000000
20
73.000000
30
0.0
11
468.000000
21
113.000000
31
0.0
0
LINE
8
LINES
10
342.000000
20
179.000000
30
0.0
11
382.000000
21
179.000000
31
0.0
0
LINE
8
LINES
10
403.000000
20
248.000000
30
0.0
11
443.000000
21
248.000000
31
0.0
0
LINE
8
LINES
10
566.000000
20
230.000000
30
0.0
11
528.000000
21
230.000000
31
0.0
0
LINE
8
LINES
10
355.000000
20
120.000000
30
0.0
11
316.000000
21
120.000000
31
0.0
0
LINE
8
LINES
10
491.000000
20
70.000000
30
0.0
11
451.000000
21
70.000000
31
0.0
0
LINE
8
LINES
10
313.000000
20
265.000000
30
0.0
11
352.000000
21
265.000000
31
0.0
0
LINE
8
LINES
10
424.000000
20
222.000000
30
0.0
11
385.000000
21
222.000000
31
0.0
0
LINE
8
LINES
10
508.000000
20
353.000000
30
0.0
11
508.000000
21
313.000000
31
0.0
0
LINE
8
LINES
10
316.000000
20
65.000000
30
0.0
11
355.000000
21
65.000000
31
0.0
0
LINE
8
LINES
10
505.000000
20
238.000000
30
0.0
11
505.000000
21
198.000000
31
0.0
0
LINE
8
LINES
10
435.000000
20
353.000000
30
0.0
11
435.000000
21
316.000000
31
0.0
0
LINE
8
LINES
10
24.000000
20
428.000000
30
0.0
11
62.000000
21
428.000000
31
0.0
0
LINE
8
LINES
10
51.000000
20
129.000000
30
0.0
11
51.000000
21
92.000000
31
0.0
0
LINE
8
LINES
10
528.000000
20
243.000000
30
0.0
11
566.000000
21
243.000000
31
0.0
0
LINE
8
LINES
10
528.000000
20
225.000000
30
0.0
11
566.000000
21
225.000000
31
0.0
0
LINE
8
LINES
10
316.000000
20
73.000000
30
0.0
11
316.000000
21
110.000000
31
0.0
0
LINE
8
LINES
10
193.000000
20
321.000000
30
0.0
11
193.000000
21
358.000000
31
0.0
0
LINE
8
LINES
10
476.000000
20
318.000000
30
0.0
11
476.000000
21
356.000000
31
0.0
0
LINE
8
LINES
10
451.000000
20
65.000000
30
0.0
11
489.000000
21
65.000000
31
0.0
0
LINE
8
LINES
10
46.000000
20
94.000000
30
0.0
11
43.000000
21
131.000000
31
0.0
0
LINE
8
LINES
10
264.000000
20
52.000000
30
0.0
11
227.000000
21
52.000000
31
0.0
0
LINE
8
LINES
10
356.000000
20
108.000000
30
0.0
11
356.000000
21
73.000000
31
0.0
0
LINE
8
LINES
10
475.000000
20
187.000000
30
0.0
11
475.000000
21
222.000000
31
0.0
0
LINE
8
LINES
10
337.000000
20
46.000000
30
0.0
11
374.000000
21
46.000000
31
0.0
0
LINE
8
LINES
10
169.000000
20
67.000000
30
0.0
11
206.000000
21
67.000000
31
0.0
0
LINE
8
LINES
10
201.000000
20
393.000000
30
0.0
11
163.000000
21
393.000000
31
0.0
0
LINE
8
LINES
10
22.000000
20
188.000000
30
0.0
11
56.000000
21
179.000000
31
0.0
0
LINE
8
LINES
10
196.000000
20
358.000000
30
0.0
11
196.000000
21
323.000000
31
0.0
0
LINE
8
LINES
10
49.000000
20
361.000000
30
0.0
11
49.000000
21
326.000000
31
0.0
0
LINE
8
LINES
10
481.000000
20
353.000000
30
0.0
11
481.000000
21
318.000000
31
0.0
0
LINE
8
LINES
10
33.000000
20
364.000000
30
0.0
11
33.000000
21
329.000000
31
0.0
0
LINE
8
LINES
10
176.000000
20
358.000000
30
0.0
11
176.000000
21
323.000000
31
0.0
0
LINE
8
LINES
10
460.000000
20
355.000000
30
0.0
11
460.000000
21
321.000000
31
0.0
0
LINE
8
LINES
10
116.000000
20
64.000000
30
0.0
11
86.000000
21
49.000000
31
0.0
0
LINE
8
LINES
10
46.000000
20
328.000000
30
0.0
11
46.000000
21
361.000000
31
0.0
0
LINE
8
LINES
10
35.000000
20
131.000000
30
0.0
11
35.000000
21
97.000000
31
0.0
0
LINE
8
LINES
10
70.000000
20
251.000000
30
0.0
11
70.000000
21
284.000000
31
0.0
0
LINE
8
LINES
10
214.000000
20
323.000000
30
0.0
11
214.000000
21
358.000000
31
0.0
0
LINE
8
LINES
10
22.000000
20
302.000000
30
0.0
11
56.000000
21
297.000000
31
0.0
0
LINE
8
LINES
10
291.000000
20
163.000000
30
0.0
11
323.000000
21
163.000000
31
0.0
0
LINE
8
LINES
10
25.000000
20
73.000000
30
0.0
11
56.000000
21
62.000000
31
0.0
0
LINE
8
LINES
10
496.000000
20
353.000000
30
0.0
11
496.000000
21
321.000000
31
0.0
0
LINE
8
LINES
10
81.000000
20
433.000000
30
0.0
11
113.000000
21
433.000000
31
0.0
0
LINE
8
LINES
10
569.000000
20
289.000000
30
0.0
11
569.000000
21
257.000000
31
0.0
0
LINE
8
LINES
10
344.000000
20
163.000000
30
0.0
11
376.000000
21
163.000000
31
0.0
0
LINE
8
LINES
10
54.000000
20
96.000000
30
0.0
11
54.000000
21
126.000000
31
0.0
0
LINE
8
LINES
10
331.000000
20
172.000000
30
0.0
11
361.000000
21
172.000000
31
0.0
0
LINE
8
LINES
10
126.000000
20
54.000000
30
0.0
11
96.000000
21
46.000000
31
0.0
0
LINE
8
LINES
10
46.000000
20
417.000000
30
0.0
11
16.000000
21
420.000000
31
0.0
0
LINE
8
LINES
10
158.000000
20
91.000000
30
0.0
11
158.000000
21
121.000000
31
0.0
0
LINE
8
LINES
10
216.000000
20
94.000000
30
0.0
11
216.000000
21
64.000000
31
0.0
0
LINE
8
LINES
10
57.000000
20
126.000000
30
0.0
11
57.000000
21
96.000000
31
0.0
0
ENDSEC
0
EOF
