0
SECTION
2
ENTITIES
0
LWPOLYLINE
8
FACADE_OUTLINE
90
4
70
1
10
0.000000
20
0.000000
10
601.000000
20
0.000000
10
601.000000
20
1024.000000
10
0.000000
20
1024.000000
0
LWPOLYLINE
8
WINDOWS
90
4
70
1
10
265.000000
20
65.000000
10
294.000000
20
65.000000
10
294.000000
20
108.000000
10
265.000000
20
108.000000
0
LWPOLYLINE
8
WINDOWS
90
4
70
1
10
302.000000
20
65.000000
10
334.000000
20
65.000000
10
334.000000
20
115.000000
10
302.000000
20
115.000000
0
LWPOLYLINE
8
WINDOWS
90
4
70
1
10
377.000000
20
65.000000
10
448.000000
20
65.000000
10
448.000000
20
116.000000
10
377.000000
20
116.000000
0
LWPOLYLINE
8
WINDOWS
90
4
70
1
10
371.000000
20
163.000000
10
601.000000
20
163.000000
10
601.000000
20
318.000000
10
371.000000
20
318.000000
0
LWPOLYLINE
8
WINDOWS
90
4
70
1
10
377.000000
20
184.000000
10
425.000000
20
184.000000
10
425.000000
20
211.000000
10
377.000000
20
211.000000
0
LWPOLYLINE
8
WINDOWS
90
4
70
1
10
364.000000
20
252.000000
10
457.000000
20
252.000000
10
457.000000
20
313.000000
10
364.000000
20
313.000000
0
LWPOLYLINE
8
WINDOWS
90
4
70
1
10
36.000000
20
347.000000
10
139.000000
20
347.000000
10
139.000000
20
406.000000
10
36.000000
20
406.000000
0
LWPOLYLINE
8
WINDOWS
90
4
70
1
10
147.000000
20
348.000000
10
233.000000
20
348.000000
10
233.000000
20
412.000000
10
147.000000
20
412.000000
0
LWPOLYLINE
8
WINDOWS
90
4
70
1
10
249.000000
20
348.000000
10
364.000000
20
348.000000
10
364.000000
20
406.000000
10
249.000000
20
406.000000
0
LWPOLYLINE
8
WINDOWS
90
4
70
1
10
481.000000
20
348.000000
10
563.000000
20
348.000000
10
563.000000
20
406.000000
10
481.000000
20
406.000000
0
LWPOLYLINE
8
WINDOWS
90
4
70
1
10
145.000000
20
427.000000
10
182.000000
20
427.000000
10
182.000000
20
476.000000
10
145.000000
20
476.000000
0
LWPOLYLINE
8
WINDOWS
90
4
70
1
10
193.000000
20
428.000000
10
225.000000
20
428.000000
10
225.000000
20
476.000000
10
193.000000
20
476.000000
0
LWPOLYLINE
8
WINDOWS
90
4
70
1
10
264.000000
20
428.000000
10
294.000000
20
428.000000
10
294.000000
20
476.000000
10
264.000000
20
476.000000
0
LWPOLYLINE
8
WINDOWS
90
4
70
1
10
304.000000
20
428.000000
10
337.000000
20
428.000000
10
337.000000
20
476.000000
10
304.000000
20
476.000000
0
LWPOLYLINE
8
WINDOWS
90
4
70
1
10
376.000000
20
428.000000
10
408.000000
20
428.000000
10
408.000000
20
478.000000
10
376.000000
20
478.000000
0
LWPOLYLINE
8
WINDOWS
90
4
70
1
10
528.000000
20
428.000000
10
560.000000
20
428.000000
10
560.000000
20
478.000000
10
528.000000
20
478.000000
0
LWPOLYLINE
8
WINDOWS
90
4
70
1
10
73.000000
20
507.000000
10
113.000000
20
507.000000
10
113.000000
20
566.000000
10
73.000000
20
566.000000
0
LWPOLYLINE
8
WINDOWS
90
4
70
1
10
150.000000
20
507.000000
10
227.000000
20
507.000000
10
227.000000
20
563.000000
10
150.000000
20
563.000000
0
LWPOLYLINE
8
WINDOWS
90
4
70
1
10
260.000000
20
508.000000
10
296.000000
20
508.000000
10
296.000000
20
564.000000
10
260.000000
20
564.000000
0
LWPOLYLINE
8
WINDOWS
90
4
70
1
10
294.000000
20
508.000000
10
336.000000
20
508.000000
10
336.000000
20
564.000000
10
294.000000
20
564.000000
0
LWPOLYLINE
8
WINDOWS
90
4
70
1
10
376.000000
20
508.000000
10
451.000000
20
508.000000
10
451.000000
20
566.000000
10
376.000000
20
566.000000
0
LWPOLYLINE
8
WINDOWS
90
4
70
1
10
483.000000
20
508.000000
10
540.000000
20
508.000000
10
540.000000
20
564.000000
10
483.000000
20
564.000000
0
LWPOLYLINE
8
WINDOWS
90
4
70
1
10
529.000000
20
508.000000
10
560.000000
20
508.000000
10
560.000000
20
558.000000
10
529.000000
20
558.000000
0
LWPOLYLINE
8
WINDOWS
90
4
70
1
10
81.000000
20
587.000000
10
113.000000
20
587.000000
10
113.000000
20
636.000000
10
81.000000
20
636.000000
0
LWPOLYLINE
8
WINDOWS
90
4
70
1
10
152.000000
20
588.000000
10
184.000000
20
588.000000
10
184.000000
20
636.000000
10
152.000000
20
636.000000
0
LWPOLYLINE
8
WINDOWS
90
4
70
1
10
193.000000
20
588.000000
10
225.000000
20
588.000000
10
225.000000
20
636.000000
10
193.000000
20
636.000000
0
LWPOLYLINE
8
WINDOWS
90
4
70
1
10
264.000000
20
588.000000
10
294.000000
20
588.000000
10
294.000000
20
638.000000
10
264.000000
20
638.000000
0
LWPOLYLINE
8
WINDOWS
90
4
70
1
10
305.000000
20
588.000000
10
336.000000
20
588.000000
10
336.000000
20
636.000000
10
305.000000
20
636.000000
0
LWPOLYLINE
8
WINDOWS
90
4
70
1
10
374.000000
20
588.000000
10
406.000000
20
588.000000
10
406.000000
20
638.000000
10
374.000000
20
638.000000
0
LWPOLYLINE
8
WINDOWS
90
4
70
1
10
417.000000
20
588.000000
10
449.000000
20
588.000000
10
449.000000
20
638.000000
10
417.000000
20
638.000000
0
LWPOLYLINE
8
WINDOWS
90
4
70
1
10
488.000000
20
588.000000
10
518.000000
20
588.000000
10
518.000000
20
638.000000
10
488.000000
20
638.000000
0
LWPOLYLINE
8
WINDOWS
90
4
70
1
10
529.000000
20
588.000000
10
560.000000
20
588.000000
10
560.000000
20
638.000000
10
529.000000
20
638.000000
0
LWPOLYLINE
8
WINDOWS
90
4
70
1
10
36.000000
20
668.000000
10
113.000000
20
668.000000
10
113.000000
20
726.000000
10
36.000000
20
726.000000
0
LWPOLYLINE
8
WINDOWS
90
4
70
1
10
152.000000
20
668.000000
10
182.000000
20
668.000000
10
182.000000
20
718.000000
10
152.000000
20
718.000000
0
LWPOLYLINE
8
WINDOWS
90
4
70
1
10
262.000000
20
668.000000
10
296.000000
20
668.000000
10
296.000000
20
726.000000
10
262.000000
20
726.000000
0
LWPOLYLINE
8
WINDOWS
90
4
70
1
10
304.000000
20
668.000000
10
339.000000
20
668.000000
10
339.000000
20
726.000000
10
304.000000
20
726.000000
0
LWPOLYLINE
8
WINDOWS
90
4
70
1
10
372.000000
20
670.000000
10
448.000000
20
670.000000
10
448.000000
20
726.000000
10
372.000000
20
726.000000
0
LWPOLYLINE
8
WINDOWS
90
4
70
1
10
529.000000
20
670.000000
10
560.000000
20
670.000000
10
560.000000
20
718.000000
10
529.000000
20
718.000000
0
LWPOLYLINE
8
WINDOWS
90
4
70
1
10
81.000000
20
748.000000
10
112.000000
20
748.000000
10
112.000000
20
800.000000
10
81.000000
20
800.000000
0
LWPOLYLINE
8
WINDOWS
90
4
70
1
10
193.000000
20
748.000000
10
224.000000
20
748.000000
10
224.000000
20
800.000000
10
193.000000
20
800.000000
0
LWPOLYLINE
8
WINDOWS
90
4
70
1
10
54.000000
20
908.000000
10
129.000000
20
908.000000
10
129.000000
20
1024.000000
10
54.000000
20
1024.000000
0
LWPOLYLINE
8
WINDOWS
90
4
70
1
10
318.000000
20
921.000000
10
430.000000
20
921.000000
10
430.000000
20
1024.000000
10
318.000000
20
1024.000000
0
LWPOLYLINE
8
WINDOWS
90
4
70
1
10
134.000000
20
937.000000
10
342.000000
20
937.000000
10
342.000000
20
1024.000000
10
134.000000
20
1024.000000
0
LWPOLYLINE
8
DOORS
90
4
70
1
10
60.000000
20
924.000000
10
94.000000
20
924.000000
10
94.000000
20
1017.000000
10
60.000000
20
1017.000000
0
LINE
8
LINES
10
1.000000
20
142.000000
30
0.0
11
598.000000
21
142.000000
31
0.0
0
LINE
8
LINES
10
598.000000
20
492.000000
30
0.0
11
1.000000
21
492.000000
31
0.0
0
LINE
8
LINES
10
592.000000
20
128.000000
30
0.0
11
1.000000
21
128.000000
31
0.0
0
LINE
8
LINES
10
1.000000
20
321.000000
30
0.0
11
553.000000
21
321.000000
31
0.0
0
LINE
8
LINES
10
545.000000
20
316.000000
30
0.0
11
1.000000
21
316.000000
31
0.0
0
LINE
8
LINES
10
496.000000
20
332.000000
30
0.0
11
1.000000
21
332.000000
31
0.0
0
LINE
8
LINES
10
1.000000
20
337.000000
30
0.0
11
467.000000
21
337.000000
31
0.0
0
LINE
8
LINES
10
462.000000
20
342.000000
30
0.0
11
1.000000
21
342.000000
31
0.0
0
LINE
8
LINES
10
1.000000
20
22.000000
30
0.0
11
420.000000
21
22.000000
31
0.0
0
LINE
8
LINES
10
150.000000
20
641.000000
30
0.0
11
561.000000
21
641.000000
31
0.0
0
LINE
8
LINES
10
396.000000
20
17.000000
30
0.0
11
1.000000
21
17.000000
31
0.0
0
LINE
8
LINES
10
206.000000
20
316.000000
30
0.0
11
598.000000
21
316.000000
31
0.0
0
LINE
8
LINES
10
12.000000
20
481.000000
30
0.0
11
369.000000
21
481.000000
31
0.0
0
LINE
8
LINES
10
339.000000
20
652.000000
30
0.0
11
1.000000
21
652.000000
31
0.0
0
LINE
8
LINES
10
1.000000
20
803.000000
30
0.0
11
259.000000
21
803.000000
31
0.0
0
LINE
8
LINES
10
596.000000
20
652.000000
30
0.0
11
342.000000
21
652.000000
31
0.0
0
LINE
8
LINES
10
1.000000
20
809.000000
30
0.0
11
241.000000
21
809.000000
31
0.0
0
LINE
8
LINES
10
201.000000
20
342.000000
30
0.0
11
436.000000
21
342.000000
31
0.0
0
LINE
8
LINES
10
337.000000
20
478.000000
30
0.0
11
571.000000
21
478.000000
31
0.0
0
LINE
8
LINES
10
158.000000
20
488.000000
30
0.0
11
348.000000
21
488.000000
31
0.0
0
LINE
8
LINES
10
419.000000
20
22.000000
30
0.0
11
598.000000
21
22.000000
31
0.0
0
LINE
8
LINES
10
598.000000
20
19.000000
30
0.0
11
422.000000
21
19.000000
31
0.0
0
LINE
8
LINES
10
166.000000
20
486.000000
30
0.0
11
1.000000
21
486.000000
31
0.0
0
LINE
8
LINES
10
158.000000
20
817.000000
30
0.0
11
6.000000
21
817.000000
31
0.0
0
LINE
8
LINES
10
1.000000
20
640.000000
30
0.0
11
147.000000
21
640.000000
31
0.0
0
LINE
8
LINES
10
1.000000
20
313.000000
30
0.0
11
147.000000
21
313.000000
31
0.0
0
LINE
8
LINES
10
142.000000
20
428.000000
30
0.0
11
1.000000
21
396.000000
31
0.0
0
LINE
8
LINES
10
387.000000
20
486.000000
30
0.0
11
243.000000
21
486.000000
31
0.0
0
LINE
8
LINES
10
598.000000
20
342.000000
30
0.0
11
459.000000
21
342.000000
31
0.0
0
LINE
8
LINES
10
464.000000
20
110.000000
30
0.0
11
598.000000
21
110.000000
31
0.0
0
LINE
8
LINES
10
147.000000
20
308.000000
30
0.0
11
147.000000
21
193.000000
31
0.0
0
LINE
8
LINES
10
449.000000
20
195.000000
30
0.0
11
449.000000
21
310.000000
31
0.0
0
LINE
8
LINES
10
331.000000
20
380.000000
30
0.0
11
440.000000
21
348.000000
31
0.0
0
LINE
8
LINES
10
337.000000
20
196.000000
30
0.0
11
337.000000
21
308.000000
31
0.0
0
LINE
8
LINES
10
41.000000
20
403.000000
30
0.0
11
150.000000
21
428.000000
31
0.0
0
LINE
8
LINES
10
1.000000
20
120.000000
30
0.0
11
108.000000
21
120.000000
31
0.0
0
LINE
8
LINES
10
496.000000
20
339.000000
30
0.0
11
598.000000
21
339.000000
31
0.0
0
LINE
8
LINES
10
140.000000
20
568.000000
30
0.0
11
38.000000
21
568.000000
31
0.0
0
LINE
8
LINES
10
598.000000
20
332.000000
30
0.0
11
499.000000
21
332.000000
31
0.0
0
LINE
8
LINES
10
411.000000
20
489.000000
30
0.0
11
508.000000
21
489.000000
31
0.0
0
LINE
8
LINES
10
289.000000
20
152.000000
30
0.0
11
193.000000
21
152.000000
31
0.0
0
LINE
8
LINES
10
177.000000
20
152.000000
30
0.0
11
81.000000
21
152.000000
31
0.0
0
LINE
8
LINES
10
403.000000
20
153.000000
30
0.0
11
307.000000
21
153.000000
31
0.0
0
LINE
8
LINES
10
516.000000
20
153.000000
30
0.0
11
427.000000
21
153.000000
31
0.0
0
LINE
8
LINES
10
56.000000
20
1011.000000
30
0.0
11
56.000000
21
924.000000
31
0.0
0
LINE
8
LINES
10
92.000000
20
1012.000000
30
0.0
11
92.000000
21
926.000000
31
0.0
0
LINE
8
LINES
10
494.000000
20
14.000000
30
0.0
11
412.000000
21
14.000000
31
0.0
0
LINE
8
LINES
10
259.000000
20
496.000000
30
0.0
11
177.000000
21
496.000000
31
0.0
0
LINE
8
LINES
10
497.000000
20
803.000000
30
0.0
11
577.000000
21
803.000000
31
0.0
0
LINE
8
LINES
10
33.000000
20
843.000000
30
0.0
11
113.000000
21
843.000000
31
0.0
0
LINE
8
LINES
10
337.000000
20
558.000000
30
0.0
11
257.000000
21
558.000000
31
0.0
0
LINE
8
LINES
10
259.000000
20
721.000000
30
0.0
11
337.000000
21
721.000000
31
0.0
0
LINE
8
LINES
10
81.000000
20
12.000000
30
0.0
11
3.000000
21
12.000000
31
0.0
0
LINE
8
LINES
10
483.000000
20
561.000000
30
0.0
11
561.000000
21
561.000000
31
0.0
0
LINE
8
LINES
10
260.000000
20
560.000000
30
0.0
11
337.000000
21
560.000000
31
0.0
0
LINE
8
LINES
10
148.000000
20
721.000000
30
0.0
11
227.000000
21
721.000000
31
0.0
0
LINE
8
LINES
10
372.000000
20
400.000000
30
0.0
11
449.000000
21
400.000000
31
0.0
0
LINE
8
LINES
10
486.000000
20
401.000000
30
0.0
11
561.000000
21
401.000000
31
0.0
0
LINE
8
LINES
10
36.000000
20
398.000000
30
0.0
11
113.000000
21
398.000000
31
0.0
0
LINE
8
LINES
10
486.000000
20
723.000000
30
0.0
11
561.000000
21
723.000000
31
0.0
0
LINE
8
LINES
10
372.000000
20
561.000000
30
0.0
11
449.000000
21
561.000000
31
0.0
0
LINE
8
LINES
10
148.000000
20
560.000000
30
0.0
11
225.000000
21
560.000000
31
0.0
0
LINE
8
LINES
10
372.000000
20
721.000000
30
0.0
11
449.000000
21
721.000000
31
0.0
0
LINE
8
LINES
10
486.000000
20
259.000000
30
0.0
11
561.000000
21
259.000000
31
0.0
0
LINE
8
LINES
10
372.000000
20
259.000000
30
0.0
11
449.000000
21
259.000000
31
0.0
0
LINE
8
LINES
10
36.000000
20
268.000000
30
0.0
11
113.000000
21
268.000000
31
0.0
0
LINE
8
LINES
10
113.000000
20
264.000000
30
0.0
11
36.000000
21
264.000000
31
0.0
0
LINE
8
LINES
10
449.000000
20
265.000000
30
0.0
11
372.000000
21
265.000000
31
0.0
0
LINE
8
LINES
10
81.000000
20
486.000000
30
0.0
11
156.000000
21
486.000000
31
0.0
0
LINE
8
LINES
10
38.000000
20
560.000000
30
0.0
11
113.000000
21
560.000000
31
0.0
0
LINE
8
LINES
10
36.000000
20
721.000000
30
0.0
11
112.000000
21
721.000000
31
0.0
0
LINE
8
LINES
10
561.000000
20
563.000000
30
0.0
11
486.000000
21
563.000000
31
0.0
0
LINE
8
LINES
10
486.000000
20
270.000000
30
0.0
11
561.000000
21
270.000000
31
0.0
0
LINE
8
LINES
10
372.000000
20
270.000000
30
0.0
11
448.000000
21
270.000000
31
0.0
0
LINE
8
LINES
10
449.000000
20
563.000000
30
0.0
11
374.000000
21
563.000000
31
0.0
0
LINE
8
LINES
10
262.000000
20
268.000000
30
0.0
11
337.000000
21
268.000000
31
0.0
0
LINE
8
LINES
10
148.000000
20
268.000000
30
0.0
11
224.000000
21
268.000000
31
0.0
0
LINE
8
LINES
10
148.000000
20
259.000000
30
0.0
11
224.000000
21
259.000000
31
0.0
0
LINE
8
LINES
10
262.000000
20
259.000000
30
0.0
11
337.000000
21
259.000000
31
0.0
0
LINE
8
LINES
10
337.000000
20
265.000000
30
0.0
11
262.000000
21
265.000000
31
0.0
0
LINE
8
LINES
10
561.000000
20
265.000000
30
0.0
11
486.000000
21
265.000000
31
0.0
0
LINE
8
LINES
10
224.000000
20
265.000000
30
0.0
11
148.000000
21
265.000000
31
0.0
0
LINE
8
LINES
10
62.000000
20
926.000000
30
0.0
11
62.000000
21
998.000000
31
0.0
0
LINE
8
LINES
10
448.000000
20
558.000000
30
0.0
11
374.000000
21
558.000000
31
0.0
0
LINE
8
LINES
10
449.000000
20
638.000000
30
0.0
11
376.000000
21
638.000000
31
0.0
0
LINE
8
LINES
10
337.000000
20
636.000000
30
0.0
11
262.000000
21
636.000000
31
0.0
0
LINE
8
LINES
10
561.000000
20
638.000000
30
0.0
11
486.000000
21
638.000000
31
0.0
0
LINE
8
LINES
10
336.000000
20
273.000000
30
0.0
11
262.000000
21
273.000000
31
0.0
0
LINE
8
LINES
10
337.000000
20
563.000000
30
0.0
11
264.000000
21
563.000000
31
0.0
0
LINE
8
LINES
10
224.000000
20
563.000000
30
0.0
11
150.000000
21
563.000000
31
0.0
0
LINE
8
LINES
10
318.000000
20
160.000000
30
0.0
11
392.000000
21
160.000000
31
0.0
0
LINE
8
LINES
10
243.000000
20
486.000000
30
0.0
11
169.000000
21
486.000000
31
0.0
0
LINE
8
LINES
10
448.000000
20
724.000000
30
0.0
11
374.000000
21
724.000000
31
0.0
0
LINE
8
LINES
10
224.000000
20
724.000000
30
0.0
11
150.000000
21
724.000000
31
0.0
0
LINE
8
LINES
10
392.000000
20
156.000000
30
0.0
11
318.000000
21
156.000000
31
0.0
0
LINE
8
LINES
10
108.000000
20
577.000000
30
0.0
11
180.000000
21
590.000000
31
0.0
0
LINE
8
LINES
10
1.000000
20
300.000000
30
0.0
11
1.000000
21
227.000000
31
0.0
0
LINE
8
LINES
10
265.000000
20
400.000000
30
0.0
11
337.000000
21
400.000000
31
0.0
0
LINE
8
LINES
10
598.000000
20
14.000000
30
0.0
11
526.000000
21
14.000000
31
0.0
0
LINE
8
LINES
10
113.000000
20
110.000000
30
0.0
11
187.000000
21
110.000000
31
0.0
0
LINE
8
LINES
10
112.000000
20
476.000000
30
0.0
11
41.000000
21
476.000000
31
0.0
0
LINE
8
LINES
10
220.000000
20
406.000000
30
0.0
11
150.000000
21
406.000000
31
0.0
0
LINE
8
LINES
10
108.000000
20
403.000000
30
0.0
11
38.000000
21
403.000000
31
0.0
0
LINE
8
LINES
10
222.000000
20
347.000000
30
0.0
11
292.000000
21
347.000000
31
0.0
0
LINE
8
LINES
10
376.000000
20
65.000000
30
0.0
11
444.000000
21
65.000000
31
0.0
0
LINE
8
LINES
10
208.000000
20
158.000000
30
0.0
11
276.000000
21
158.000000
31
0.0
0
LINE
8
LINES
10
1.000000
20
107.000000
30
0.0
11
1.000000
21
38.000000
31
0.0
0
LINE
8
LINES
10
35.000000
20
308.000000
30
0.0
11
35.000000
21
241.000000
31
0.0
0
LINE
8
LINES
10
11.000000
20
486.000000
30
0.0
11
78.000000
21
486.000000
31
0.0
0
LINE
8
LINES
10
420.000000
20
19.000000
30
0.0
11
355.000000
21
9.000000
31
0.0
0
LINE
8
LINES
10
52.000000
20
924.000000
30
0.0
11
52.000000
21
990.000000
31
0.0
0
LINE
8
LINES
10
153.000000
20
64.000000
30
0.0
11
219.000000
21
64.000000
31
0.0
0
LINE
8
LINES
10
150.000000
20
390.000000
30
0.0
11
84.000000
21
376.000000
31
0.0
0
LINE
8
LINES
10
289.000000
20
425.000000
30
0.0
11
225.000000
21
411.000000
31
0.0
0
LINE
8
LINES
10
507.000000
20
811.000000
30
0.0
11
572.000000
21
811.000000
31
0.0
0
LINE
8
LINES
10
102.000000
20
724.000000
30
0.0
11
36.000000
21
724.000000
31
0.0
0
LINE
8
LINES
10
147.000000
20
843.000000
30
0.0
11
211.000000
21
843.000000
31
0.0
0
LINE
8
LINES
10
36.000000
20
259.000000
30
0.0
11
102.000000
21
259.000000
31
0.0
0
LINE
8
LINES
10
537.000000
20
1008.000000
30
0.0
11
473.000000
21
1008.000000
31
0.0
0
LINE
8
LINES
10
64.000000
20
150.000000
30
0.0
11
1.000000
21
150.000000
31
0.0
0
LINE
8
LINES
10
233.000000
20
409.000000
30
0.0
11
292.000000
21
430.000000
31
0.0
0
LINE
8
LINES
10
49.000000
20
108.000000
30
0.0
11
112.000000
21
108.000000
31
0.0
0
LINE
8
LINES
10
441.000000
20
158.000000
30
0.0
11
504.000000
21
158.000000
31
0.0
0
LINE
8
LINES
10
318.000000
20
4.000000
30
0.0
11
257.000000
21
4.000000
31
0.0
0
LINE
8
LINES
10
337.000000
20
724.000000
30
0.0
11
275.000000
21
724.000000
31
0.0
0
LINE
8
LINES
10
211.000000
20
638.000000
30
0.0
11
150.000000
21
638.000000
31
0.0
0
LINE
8
LINES
10
227.000000
20
312.000000
30
0.0
11
168.000000
21
312.000000
31
0.0
0
LINE
8
LINES
10
22.000000
20
492.000000
30
0.0
11
83.000000
21
492.000000
31
0.0
0
LINE
8
LINES
10
46.000000
20
564.000000
30
0.0
11
104.000000
21
576.000000
31
0.0
0
LINE
8
LINES
10
318.000000
20
312.000000
30
0.0
11
259.000000
21
312.000000
31
0.0
0
LINE
8
LINES
10
596.000000
20
153.000000
30
0.0
11
539.000000
21
153.000000
31
0.0
0
LINE
8
LINES
10
307.000000
20
148.000000
30
0.0
11
366.000000
21
148.000000
31
0.0
0
LINE
8
LINES
10
462.000000
20
502.000000
30
0.0
11
518.000000
21
510.000000
31
0.0
0
LINE
8
LINES
10
115.000000
20
241.000000
30
0.0
11
115.000000
21
297.000000
31
0.0
0
LINE
8
LINES
10
92.000000
20
158.000000
30
0.0
11
148.000000
21
158.000000
31
0.0
0
LINE
8
LINES
10
217.000000
20
494.000000
30
0.0
11
273.000000
21
494.000000
31
0.0
0
LINE
8
LINES
10
278.000000
20
156.000000
30
0.0
11
222.000000
21
156.000000
31
0.0
0
LINE
8
LINES
10
46.000000
20
342.000000
30
0.0
11
102.000000
21
342.000000
31
0.0
0
LINE
8
LINES
10
147.000000
20
569.000000
30
0.0
11
201.000000
21
579.000000
31
0.0
0
LINE
8
LINES
10
225.000000
20
411.000000
30
0.0
11
171.000000
21
425.000000
31
0.0
0
LINE
8
LINES
10
1.000000
20
158.000000
30
0.0
11
57.000000
21
158.000000
31
0.0
0
LINE
8
LINES
10
236.000000
20
148.000000
30
0.0
11
291.000000
21
148.000000
31
0.0
0
LINE
8
LINES
10
545.000000
20
323.000000
30
0.0
11
598.000000
21
323.000000
31
0.0
0
LINE
8
LINES
10
558.000000
20
478.000000
30
0.0
11
505.000000
21
478.000000
31
0.0
0
LINE
8
LINES
10
336.000000
20
403.000000
30
0.0
11
281.000000
21
403.000000
31
0.0
0
LINE
8
LINES
10
600.000000
20
308.000000
30
0.0
11
547.000000
21
321.000000
31
0.0
0
LINE
8
LINES
10
97.000000
20
153.000000
30
0.0
11
148.000000
21
153.000000
31
0.0
0
LINE
8
LINES
10
112.000000
20
636.000000
30
0.0
11
60.000000
21
636.000000
31
0.0
0
LINE
8
LINES
10
478.000000
20
1014.000000
30
0.0
11
531.000000
21
1014.000000
31
0.0
0
LINE
8
LINES
10
211.000000
20
580.000000
30
0.0
11
260.000000
21
590.000000
31
0.0
0
LINE
8
LINES
10
193.000000
20
798.000000
30
0.0
11
193.000000
21
748.000000
31
0.0
0
LINE
8
LINES
10
518.000000
20
750.000000
30
0.0
11
518.000000
21
801.000000
31
0.0
0
LINE
8
LINES
10
560.000000
20
750.000000
30
0.0
11
560.000000
21
801.000000
31
0.0
0
LINE
8
LINES
10
40.000000
20
798.000000
30
0.0
11
40.000000
21
748.000000
31
0.0
0
LINE
8
LINES
10
598.000000
20
486.000000
30
0.0
11
548.000000
21
486.000000
31
0.0
0
LINE
8
LINES
10
422.000000
20
275.000000
30
0.0
11
372.000000
21
275.000000
31
0.0
0
LINE
8
LINES
10
1.000000
20
206.000000
30
0.0
11
1.000000
21
158.000000
31
0.0
0
LINE
8
LINES
10
227.000000
20
260.000000
30
0.0
11
227.000000
21
308.000000
31
0.0
0
LINE
8
LINES
10
182.000000
20
750.000000
30
0.0
11
182.000000
21
798.000000
31
0.0
0
LINE
8
LINES
10
259.000000
20
308.000000
30
0.0
11
259.000000
21
260.000000
31
0.0
0
LINE
8
LINES
10
81.000000
20
716.000000
30
0.0
11
81.000000
21
668.000000
31
0.0
0
LINE
8
LINES
10
529.000000
20
801.000000
30
0.0
11
529.000000
21
752.000000
31
0.0
0
LINE
8
LINES
10
478.000000
20
1020.000000
30
0.0
11
528.000000
21
1020.000000
31
0.0
0
LINE
8
LINES
10
222.000000
20
750.000000
30
0.0
11
222.000000
21
798.000000
31
0.0
0
LINE
8
LINES
10
110.000000
20
750.000000
30
0.0
11
110.000000
21
798.000000
31
0.0
0
LINE
8
LINES
10
81.000000
20
798.000000
30
0.0
11
81.000000
21
748.000000
31
0.0
0
LINE
8
LINES
10
446.000000
20
668.000000
30
0.0
11
446.000000
21
718.000000
31
0.0
0
LINE
8
LINES
10
40.000000
20
716.000000
30
0.0
11
40.000000
21
668.000000
31
0.0
0
LINE
8
LINES
10
70.000000
20
750.000000
30
0.0
11
70.000000
21
798.000000
31
0.0
0
LINE
8
LINES
10
558.000000
20
192.000000
30
0.0
11
563.000000
21
238.000000
31
0.0
0
LINE
8
LINES
10
294.000000
20
508.000000
30
0.0
11
294.000000
21
556.000000
31
0.0
0
LINE
8
LINES
10
222.000000
20
507.000000
30
0.0
11
222.000000
21
553.000000
31
0.0
0
LINE
8
LINES
10
152.000000
20
553.000000
30
0.0
11
152.000000
21
507.000000
31
0.0
0
LINE
8
LINES
10
182.000000
20
428.000000
30
0.0
11
182.000000
21
476.000000
31
0.0
0
LINE
8
LINES
10
182.000000
20
507.000000
30
0.0
11
182.000000
21
553.000000
31
0.0
0
LINE
8
LINES
10
558.000000
20
508.000000
30
0.0
11
558.000000
21
556.000000
31
0.0
0
LINE
8
LINES
10
417.000000
20
636.000000
30
0.0
11
417.000000
21
588.000000
31
0.0
0
LINE
8
LINES
10
193.000000
20
716.000000
30
0.0
11
193.000000
21
668.000000
31
0.0
0
LINE
8
LINES
10
529.000000
20
718.000000
30
0.0
11
529.000000
21
670.000000
31
0.0
0
LINE
8
LINES
10
152.000000
20
798.000000
30
0.0
11
152.000000
21
750.000000
31
0.0
0
LINE
8
LINES
10
488.000000
20
556.000000
30
0.0
11
488.000000
21
508.000000
31
0.0
0
LINE
8
LINES
10
40.000000
20
553.000000
30
0.0
11
40.000000
21
507.000000
31
0.0
0
LINE
8
LINES
10
193.000000
20
476.000000
30
0.0
11
193.000000
21
428.000000
31
0.0
0
LINE
8
LINES
10
558.000000
20
428.000000
30
0.0
11
558.000000
21
476.000000
31
0.0
0
LINE
8
LINES
10
334.000000
20
588.000000
30
0.0
11
334.000000
21
636.000000
31
0.0
0
LINE
8
LINES
10
81.000000
20
553.000000
30
0.0
11
81.000000
21
507.000000
31
0.0
0
LINE
8
LINES
10
406.000000
20
668.000000
30
0.0
11
406.000000
21
716.000000
31
0.0
0
LINE
8
LINES
10
193.000000
20
636.000000
30
0.0
11
193.000000
21
588.000000
31
0.0
0
LINE
8
LINES
10
264.000000
20
716.000000
30
0.0
11
264.000000
21
668.000000
31
0.0
0
LINE
8
LINES
10
294.000000
20
668.000000
30
0.0
11
294.000000
21
716.000000
31
0.0
0
LINE
8
LINES
10
152.000000
20
633.000000
30
0.0
11
152.000000
21
587.000000
31
0.0
0
LINE
8
LINES
10
488.000000
20
798.000000
30
0.0
11
488.000000
21
750.000000
31
0.0
0
LINE
8
LINES
10
518.000000
20
62.000000
30
0.0
11
473.000000
21
44.000000
31
0.0
0
LINE
8
LINES
10
376.000000
20
556.000000
30
0.0
11
376.000000
21
508.000000
31
0.0
0
LINE
8
LINES
10
446.000000
20
348.000000
30
0.0
11
446.000000
21
396.000000
31
0.0
0
LINE
8
LINES
10
334.000000
20
508.000000
30
0.0
11
334.000000
21
556.000000
31
0.0
0
LINE
8
LINES
10
518.000000
20
348.000000
30
0.0
11
518.000000
21
396.000000
31
0.0
0
LINE
8
LINES
10
446.000000
20
428.000000
30
0.0
11
446.000000
21
476.000000
31
0.0
0
LINE
8
LINES
10
446.000000
20
508.000000
30
0.0
11
446.000000
21
556.000000
31
0.0
0
LINE
8
LINES
10
262.000000
20
393.000000
30
0.0
11
262.000000
21
348.000000
31
0.0
0
LINE
8
LINES
10
518.000000
20
428.000000
30
0.0
11
518.000000
21
476.000000
31
0.0
0
LINE
8
LINES
10
518.000000
20
588.000000
30
0.0
11
518.000000
21
636.000000
31
0.0
0
LINE
8
LINES
10
334.000000
20
428.000000
30
0.0
11
334.000000
21
476.000000
31
0.0
0
LINE
8
LINES
10
376.000000
20
636.000000
30
0.0
11
376.000000
21
588.000000
31
0.0
0
LINE
8
LINES
10
264.000000
20
476.000000
30
0.0
11
264.000000
21
428.000000
31
0.0
0
LINE
8
LINES
10
305.000000
20
556.000000
30
0.0
11
305.000000
21
508.000000
31
0.0
0
LINE
8
LINES
10
518.000000
20
672.000000
30
0.0
11
518.000000
21
718.000000
31
0.0
0
LINE
8
LINES
10
192.000000
20
393.000000
30
0.0
11
192.000000
21
348.000000
31
0.0
0
LINE
8
LINES
10
488.000000
20
636.000000
30
0.0
11
488.000000
21
588.000000
31
0.0
0
LINE
8
LINES
10
304.000000
20
716.000000
30
0.0
11
304.000000
21
668.000000
31
0.0
0
LINE
8
LINES
10
264.000000
20
556.000000
30
0.0
11
264.000000
21
508.000000
31
0.0
0
LINE
8
LINES
10
222.000000
20
670.000000
30
0.0
11
222.000000
21
716.000000
31
0.0
0
LINE
8
LINES
10
446.000000
20
588.000000
30
0.0
11
446.000000
21
636.000000
31
0.0
0
LINE
8
LINES
10
294.000000
20
588.000000
30
0.0
11
294.000000
21
636.000000
31
0.0
0
LINE
8
LINES
10
558.000000
20
588.000000
30
0.0
11
558.000000
21
636.000000
31
0.0
0
LINE
8
LINES
10
558.000000
20
348.000000
30
0.0
11
558.000000
21
396.000000
31
0.0
0
LINE
8
LINES
10
81.000000
20
633.000000
30
0.0
11
81.000000
21
588.000000
31
0.0
0
LINE
8
LINES
10
227.000000
20
201.000000
30
0.0
11
227.000000
21
246.000000
31
0.0
0
LINE
8
LINES
10
264.000000
20
636.000000
30
0.0
11
264.000000
21
588.000000
31
0.0
0
LINE
8
LINES
10
334.000000
20
670.000000
30
0.0
11
334.000000
21
716.000000
31
0.0
0
LINE
8
LINES
10
553.000000
20
489.000000
30
0.0
11
598.000000
21
489.000000
31
0.0
0
LINE
8
LINES
10
126.000000
20
3.000000
30
0.0
11
81.000000
21
3.000000
31
0.0
0
LINE
8
LINES
10
176.000000
20
422.000000
30
0.0
11
219.000000
21
409.000000
31
0.0
0
LINE
8
LINES
10
104.000000
20
496.000000
30
0.0
11
59.000000
21
496.000000
31
0.0
0
LINE
8
LINES
10
406.000000
20
510.000000
30
0.0
11
406.000000
21
556.000000
31
0.0
0
LINE
8
LINES
10
305.000000
20
636.000000
30
0.0
11
305.000000
21
590.000000
31
0.0
0
LINE
8
LINES
10
192.000000
20
553.000000
30
0.0
11
192.000000
21
508.000000
31
0.0
0
LINE
8
LINES
10
222.000000
20
588.000000
30
0.0
11
222.000000
21
633.000000
31
0.0
0
LINE
8
LINES
10
374.000000
20
718.000000
30
0.0
11
374.000000
21
673.000000
31
0.0
0
LINE
8
LINES
10
152.000000
20
716.000000
30
0.0
11
152.000000
21
670.000000
31
0.0
0
LINE
8
LINES
10
561.000000
20
726.000000
30
0.0
11
515.000000
21
726.000000
31
0.0
0
LINE
8
LINES
10
345.000000
20
800.000000
30
0.0
11
388.000000
21
804.000000
31
0.0
0
LINE
8
LINES
10
558.000000
20
673.000000
30
0.0
11
558.000000
21
716.000000
31
0.0
0
LINE
8
LINES
10
112.000000
20
672.000000
30
0.0
11
112.000000
21
716.000000
31
0.0
0
LINE
8
LINES
10
529.000000
20
633.000000
30
0.0
11
529.000000
21
588.000000
31
0.0
0
LINE
8
LINES
10
531.000000
20
558.000000
30
0.0
11
486.000000
21
558.000000
31
0.0
0
LINE
8
LINES
10
552.000000
20
160.000000
30
0.0
11
595.000000
21
160.000000
31
0.0
0
LINE
8
LINES
10
1.000000
20
342.000000
30
0.0
11
44.000000
21
342.000000
31
0.0
0
LINE
8
LINES
10
278.000000
20
393.000000
30
0.0
11
318.000000
21
382.000000
31
0.0
0
LINE
8
LINES
10
182.000000
20
398.000000
30
0.0
11
225.000000
21
398.000000
31
0.0
0
LINE
8
LINES
10
152.000000
20
473.000000
30
0.0
11
152.000000
21
430.000000
31
0.0
0
LINE
8
LINES
10
483.000000
20
486.000000
30
0.0
11
441.000000
21
486.000000
31
0.0
0
LINE
8
LINES
10
137.000000
20
134.000000
30
0.0
11
96.000000
21
134.000000
31
0.0
0
LINE
8
LINES
10
20.000000
20
147.000000
30
0.0
11
62.000000
21
147.000000
31
0.0
0
LINE
8
LINES
10
552.000000
20
344.000000
30
0.0
11
593.000000
21
344.000000
31
0.0
0
LINE
8
LINES
10
155.000000
20
27.000000
30
0.0
11
112.000000
21
30.000000
31
0.0
0
LINE
8
LINES
10
113.000000
20
198.000000
30
0.0
11
113.000000
21
238.000000
31
0.0
0
LINE
8
LINES
10
225.000000
20
558.000000
30
0.0
11
184.000000
21
558.000000
31
0.0
0
LINE
8
LINES
10
83.000000
20
147.000000
30
0.0
11
41.000000
21
147.000000
31
0.0
0
LINE
8
LINES
10
225.000000
20
816.000000
30
0.0
11
184.000000
21
816.000000
31
0.0
0
LINE
8
LINES
10
411.000000
20
670.000000
30
0.0
11
451.000000
21
670.000000
31
0.0
0
LINE
8
LINES
10
518.000000
20
513.000000
30
0.0
11
518.000000
21
556.000000
31
0.0
0
LINE
8
LINES
10
300.000000
20
956.000000
30
0.0
11
260.000000
21
956.000000
31
0.0
0
LINE
8
LINES
10
225.000000
20
408.000000
30
0.0
11
264.000000
21
398.000000
31
0.0
0
LINE
8
LINES
10
332.000000
20
67.000000
30
0.0
11
332.000000
21
107.000000
31
0.0
0
LINE
8
LINES
10
371.000000
20
236.000000
30
0.0
11
371.000000
21
195.000000
31
0.0
0
LINE
8
LINES
10
152.000000
20
387.000000
30
0.0
11
152.000000
21
348.000000
31
0.0
0
LINE
8
LINES
10
563.000000
20
270.000000
30
0.0
11
563.000000
21
310.000000
31
0.0
0
LINE
8
LINES
10
561.000000
20
718.000000
30
0.0
11
521.000000
21
718.000000
31
0.0
0
LINE
8
LINES
10
446.000000
20
752.000000
30
0.0
11
446.000000
21
792.000000
31
0.0
0
LINE
8
LINES
10
422.000000
20
160.000000
30
0.0
11
457.000000
21
180.000000
31
0.0
0
LINE
8
LINES
10
457.000000
20
228.000000
30
0.0
11
457.000000
21
268.000000
31
0.0
0
LINE
8
LINES
10
561.000000
20
241.000000
30
0.0
11
521.000000
21
241.000000
31
0.0
0
LINE
8
LINES
10
38.000000
20
364.000000
30
0.0
11
0.000000
21
353.000000
31
0.0
0
LINE
8
LINES
10
193.000000
20
148.000000
30
0.0
11
233.000000
21
148.000000
31
0.0
0
LINE
8
LINES
10
470.000000
20
156.000000
30
0.0
11
430.000000
21
156.000000
31
0.0
0
LINE
8
LINES
10
35.000000
20
232.000000
30
0.0
11
35.000000
21
192.000000
31
0.0
0
LINE
8
LINES
10
0.000000
20
395.000000
30
0.0
11
38.000000
21
403.000000
31
0.0
0
LINE
8
LINES
10
374.000000
20
369.000000
30
0.0
11
337.000000
21
380.000000
31
0.0
0
LINE
8
LINES
10
83.000000
20
164.000000
30
0.0
11
116.000000
21
185.000000
31
0.0
0
LINE
8
LINES
10
297.000000
20
427.000000
30
0.0
11
336.000000
21
427.000000
31
0.0
0
LINE
8
LINES
10
448.000000
20
462.000000
30
0.0
11
486.000000
21
472.000000
31
0.0
0
LINE
8
LINES
10
265.000000
20
112.000000
30
0.0
11
304.000000
21
112.000000
31
0.0
0
LINE
8
LINES
10
257.000000
20
950.000000
30
0.0
11
297.000000
21
950.000000
31
0.0
0
LINE
8
LINES
10
406.000000
20
588.000000
30
0.0
11
406.000000
21
627.000000
31
0.0
0
LINE
8
LINES
10
454.000000
20
32.000000
30
0.0
11
489.000000
21
46.000000
31
0.0
0
LINE
8
LINES
10
561.000000
20
403.000000
30
0.0
11
523.000000
21
403.000000
31
0.0
0
LINE
8
LINES
10
91.000000
20
921.000000
30
0.0
11
51.000000
21
921.000000
31
0.0
0
LINE
8
LINES
10
188.000000
20
238.000000
30
0.0
11
148.000000
21
238.000000
31
0.0
0
LINE
8
LINES
10
486.000000
20
475.000000
30
0.0
11
449.000000
21
467.000000
31
0.0
0
LINE
8
LINES
10
46.000000
20
454.000000
30
0.0
11
83.000000
21
448.000000
31
0.0
0
LINE
8
LINES
10
267.000000
20
104.000000
30
0.0
11
267.000000
21
67.000000
31
0.0
0
LINE
8
LINES
10
297.000000
20
120.000000
30
0.0
11
334.000000
21
120.000000
31
0.0
0
LINE
8
LINES
10
337.000000
20
435.000000
30
0.0
11
372.000000
21
444.000000
31
0.0
0
LINE
8
LINES
10
558.000000
20
275.000000
30
0.0
11
521.000000
21
275.000000
31
0.0
0
LINE
8
LINES
10
294.000000
20
348.000000
30
0.0
11
294.000000
21
385.000000
31
0.0
0
LINE
8
LINES
10
376.000000
20
121.000000
30
0.0
11
412.000000
21
121.000000
31
0.0
0
LINE
8
LINES
10
222.000000
20
718.000000
30
0.0
11
184.000000
21
718.000000
31
0.0
0
LINE
8
LINES
10
414.000000
20
718.000000
30
0.0
11
377.000000
21
718.000000
31
0.0
0
LINE
8
LINES
10
80.000000
20
102.000000
30
0.0
11
80.000000
21
65.000000
31
0.0
0
LINE
8
LINES
10
529.000000
20
556.000000
30
0.0
11
529.000000
21
518.000000
31
0.0
0
LINE
8
LINES
10
507.000000
20
4.000000
30
0.0
11
468.000000
21
4.000000
31
0.0
0
LINE
8
LINES
10
163.000000
20
4.000000
30
0.0
11
126.000000
21
4.000000
31
0.0
0
LINE
8
LINES
10
105.000000
20
342.000000
30
0.0
11
142.000000
21
342.000000
31
0.0
0
LINE
8
LINES
10
489.000000
20
28.000000
30
0.0
11
452.000000
21
28.000000
31
0.0
0
LINE
8
LINES
10
1.000000
20
352.000000
30
0.0
11
36.000000
21
361.000000
31
0.0
0
LINE
8
LINES
10
1.000000
20
544.000000
30
0.0
11
36.000000
21
550.000000
31
0.0
0
LINE
8
LINES
10
520.000000
20
62.000000
30
0.0
11
556.000000
21
67.000000
31
0.0
0
LINE
8
LINES
10
86.000000
20
444.000000
30
0.0
11
121.000000
21
435.000000
31
0.0
0
LINE
8
LINES
10
260.000000
20
121.000000
30
0.0
11
297.000000
21
121.000000
31
0.0
0
LINE
8
LINES
10
300.000000
20
396.000000
30
0.0
11
264.000000
21
396.000000
31
0.0
0
LINE
8
LINES
10
110.000000
20
508.000000
30
0.0
11
110.000000
21
544.000000
31
0.0
0
LINE
8
LINES
10
182.000000
20
678.000000
30
0.0
11
182.000000
21
716.000000
31
0.0
0
LINE
8
LINES
10
304.000000
20
384.000000
30
0.0
11
304.000000
21
348.000000
31
0.0
0
LINE
8
LINES
10
188.000000
20
121.000000
30
0.0
11
225.000000
21
121.000000
31
0.0
0
LINE
8
LINES
10
294.000000
20
68.000000
30
0.0
11
294.000000
21
105.000000
31
0.0
0
LINE
8
LINES
10
488.000000
20
710.000000
30
0.0
11
488.000000
21
673.000000
31
0.0
0
LINE
8
LINES
10
148.000000
20
793.000000
30
0.0
11
113.000000
21
793.000000
31
0.0
0
LINE
8
LINES
10
70.000000
20
518.000000
30
0.0
11
70.000000
21
556.000000
31
0.0
0
LINE
8
LINES
10
129.000000
20
156.000000
30
0.0
11
92.000000
21
156.000000
31
0.0
0
LINE
8
LINES
10
385.000000
20
4.000000
30
0.0
11
419.000000
21
19.000000
31
0.0
0
LINE
8
LINES
10
371.000000
20
185.000000
30
0.0
11
401.000000
21
166.000000
31
0.0
0
LINE
8
LINES
10
33.000000
20
184.000000
30
0.0
11
64.000000
21
166.000000
31
0.0
0
LINE
8
LINES
10
595.000000
20
531.000000
30
0.0
11
561.000000
21
524.000000
31
0.0
0
LINE
8
LINES
10
28.000000
20
627.000000
30
0.0
11
65.000000
21
630.000000
31
0.0
0
LINE
8
LINES
10
225.000000
20
116.000000
30
0.0
11
190.000000
21
116.000000
31
0.0
0
LINE
8
LINES
10
563.000000
20
481.000000
30
0.0
11
598.000000
21
481.000000
31
0.0
0
LINE
8
LINES
10
524.000000
20
347.000000
30
0.0
11
558.000000
21
347.000000
31
0.0
0
LINE
8
LINES
10
451.000000
20
121.000000
30
0.0
11
486.000000
21
121.000000
31
0.0
0
LINE
8
LINES
10
305.000000
20
348.000000
30
0.0
11
340.000000
21
348.000000
31
0.0
0
LINE
8
LINES
10
152.000000
20
120.000000
30
0.0
11
187.000000
21
120.000000
31
0.0
0
LINE
8
LINES
10
110.000000
20
120.000000
30
0.0
11
145.000000
21
120.000000
31
0.0
0
LINE
8
LINES
10
305.000000
20
464.000000
30
0.0
11
305.000000
21
428.000000
31
0.0
0
LINE
8
LINES
10
262.000000
20
784.000000
30
0.0
11
262.000000
21
748.000000
31
0.0
0
LINE
8
LINES
10
68.000000
20
115.000000
30
0.0
11
33.000000
21
115.000000
31
0.0
0
LINE
8
LINES
10
368.000000
20
148.000000
30
0.0
11
403.000000
21
148.000000
31
0.0
0
LINE
8
LINES
10
36.000000
20
883.000000
30
0.0
11
72.000000
21
883.000000
31
0.0
0
LINE
8
LINES
10
518.000000
20
240.000000
30
0.0
11
483.000000
21
240.000000
31
0.0
0
LINE
8
LINES
10
6.000000
20
800.000000
30
0.0
11
41.000000
21
800.000000
31
0.0
0
LINE
8
LINES
10
30.000000
20
176.000000
30
0.0
11
62.000000
21
158.000000
31
0.0
0
LINE
8
LINES
10
310.000000
20
160.000000
30
0.0
11
340.000000
21
176.000000
31
0.0
0
LINE
8
LINES
10
561.000000
20
521.000000
30
0.0
11
595.000000
21
529.000000
31
0.0
0
LINE
8
LINES
10
371.000000
20
624.000000
30
0.0
11
337.000000
21
617.000000
31
0.0
0
LINE
8
LINES
10
193.000000
20
166.000000
30
0.0
11
224.000000
21
182.000000
31
0.0
0
LINE
8
LINES
10
227.000000
20
596.000000
30
0.0
11
260.000000
21
601.000000
31
0.0
0
LINE
8
LINES
10
488.000000
20
348.000000
30
0.0
11
521.000000
21
348.000000
31
0.0
0
LINE
8
LINES
10
406.000000
20
108.000000
30
0.0
11
371.000000
21
108.000000
31
0.0
0
LINE
8
LINES
10
81.000000
20
668.000000
30
0.0
11
115.000000
21
668.000000
31
0.0
0
LINE
8
LINES
10
531.000000
20
121.000000
30
0.0
11
563.000000
21
121.000000
31
0.0
0
LINE
8
LINES
10
220.000000
20
64.000000
30
0.0
11
220.000000
21
97.000000
31
0.0
0
LINE
8
LINES
10
302.000000
20
65.000000
30
0.0
11
336.000000
21
65.000000
31
0.0
0
LINE
8
LINES
10
110.000000
20
588.000000
30
0.0
11
110.000000
21
622.000000
31
0.0
0
LINE
8
LINES
10
260.000000
20
115.000000
30
0.0
11
227.000000
21
115.000000
31
0.0
0
LINE
8
LINES
10
595.000000
20
796.000000
30
0.0
11
561.000000
21
796.000000
31
0.0
0
LINE
8
LINES
10
193.000000
20
147.000000
30
0.0
11
158.000000
21
147.000000
31
0.0
0
LINE
8
LINES
10
566.000000
20
643.000000
30
0.0
11
598.000000
21
643.000000
31
0.0
0
LINE
8
LINES
10
342.000000
20
494.000000
30
0.0
11
376.000000
21
494.000000
31
0.0
0
LINE
8
LINES
10
260.000000
20
604.000000
30
0.0
11
227.000000
21
601.000000
31
0.0
0
LINE
8
LINES
10
462.000000
20
502.000000
30
0.0
11
430.000000
21
494.000000
31
0.0
0
LINE
8
LINES
10
419.000000
20
168.000000
30
0.0
11
449.000000
21
184.000000
31
0.0
0
LINE
8
LINES
10
121.000000
20
1017.000000
30
0.0
11
89.000000
21
1014.000000
31
0.0
0
LINE
8
LINES
10
118.000000
20
380.000000
30
0.0
11
148.000000
21
388.000000
31
0.0
0
LINE
8
LINES
10
33.000000
20
622.000000
30
0.0
11
1.000000
21
622.000000
31
0.0
0
LINE
8
LINES
10
416.000000
20
588.000000
30
0.0
11
448.000000
21
588.000000
31
0.0
0
LINE
8
LINES
10
414.000000
20
121.000000
30
0.0
11
446.000000
21
121.000000
31
0.0
0
LINE
8
LINES
10
337.000000
20
396.000000
30
0.0
11
304.000000
21
396.000000
31
0.0
0
LINE
8
LINES
10
566.000000
20
214.000000
30
0.0
11
598.000000
21
214.000000
31
0.0
0
LINE
8
LINES
10
483.000000
20
668.000000
30
0.0
11
516.000000
21
668.000000
31
0.0
0
LINE
8
LINES
10
294.000000
20
428.000000
30
0.0
11
294.000000
21
460.000000
31
0.0
0
LINE
8
LINES
10
406.000000
20
363.000000
30
0.0
11
406.000000
21
396.000000
31
0.0
0
LINE
8
LINES
10
192.000000
20
97.000000
30
0.0
11
192.000000
21
65.000000
31
0.0
0
LINE
8
LINES
10
40.000000
20
620.000000
30
0.0
11
40.000000
21
588.000000
31
0.0
0
LINE
8
LINES
10
337.000000
20
718.000000
30
0.0
11
304.000000
21
718.000000
31
0.0
0
LINE
8
LINES
10
35.000000
20
748.000000
30
0.0
11
67.000000
21
748.000000
31
0.0
0
LINE
8
LINES
10
112.000000
20
556.000000
30
0.0
11
78.000000
21
556.000000
31
0.0
0
LINE
8
LINES
10
182.000000
20
352.000000
30
0.0
11
182.000000
21
384.000000
31
0.0
0
LINE
8
LINES
10
510.000000
20
489.000000
30
0.0
11
542.000000
21
489.000000
31
0.0
0
LINE
8
LINES
10
561.000000
20
801.000000
30
0.0
11
593.000000
21
801.000000
31
0.0
0
LINE
8
LINES
10
473.000000
20
156.000000
30
0.0
11
507.000000
21
156.000000
31
0.0
0
LINE
8
LINES
10
1.000000
20
918.000000
30
0.0
11
1.000000
21
886.000000
31
0.0
0
LINE
8
LINES
10
595.000000
20
30.000000
30
0.0
11
563.000000
21
30.000000
31
0.0
0
LINE
8
LINES
10
265.000000
20
188.000000
30
0.0
11
292.000000
21
172.000000
31
0.0
0
LINE
8
LINES
10
489.000000
20
46.000000
30
0.0
11
520.000000
21
59.000000
31
0.0
0
LINE
8
LINES
10
428.000000
20
206.000000
30
0.0
11
435.000000
21
236.000000
31
0.0
0
LINE
8
LINES
10
377.000000
20
188.000000
30
0.0
11
404.000000
21
174.000000
31
0.0
0
LINE
8
LINES
10
259.000000
20
174.000000
30
0.0
11
288.000000
21
161.000000
31
0.0
0
LINE
8
LINES
10
257.000000
20
225.000000
30
0.0
11
262.000000
21
193.000000
31
0.0
0
LINE
8
LINES
10
265.000000
20
588.000000
30
0.0
11
297.000000
21
588.000000
31
0.0
0
LINE
8
LINES
10
371.000000
20
110.000000
30
0.0
11
403.000000
21
110.000000
31
0.0
0
LINE
8
LINES
10
374.000000
20
588.000000
30
0.0
11
406.000000
21
588.000000
31
0.0
0
LINE
8
LINES
10
492.000000
20
121.000000
30
0.0
11
524.000000
21
121.000000
31
0.0
0
LINE
8
LINES
10
150.000000
20
507.000000
30
0.0
11
182.000000
21
507.000000
31
0.0
0
LINE
8
LINES
10
371.000000
20
272.000000
30
0.0
11
371.000000
21
241.000000
31
0.0
0
LINE
8
LINES
10
227.000000
20
121.000000
30
0.0
11
257.000000
21
121.000000
31
0.0
0
LINE
8
LINES
10
148.000000
20
400.000000
30
0.0
11
180.000000
21
400.000000
31
0.0
0
LINE
8
LINES
10
422.000000
20
403.000000
30
0.0
11
392.000000
21
403.000000
31
0.0
0
LINE
8
LINES
10
68.000000
20
718.000000
30
0.0
11
38.000000
21
718.000000
31
0.0
0
LINE
8
LINES
10
222.000000
20
353.000000
30
0.0
11
222.000000
21
384.000000
31
0.0
0
LINE
8
LINES
10
518.000000
20
718.000000
30
0.0
11
486.000000
21
718.000000
31
0.0
0
LINE
8
LINES
10
182.000000
20
556.000000
30
0.0
11
150.000000
21
556.000000
31
0.0
0
LINE
8
LINES
10
113.000000
20
718.000000
30
0.0
11
81.000000
21
718.000000
31
0.0
0
LINE
8
LINES
10
569.000000
20
232.000000
30
0.0
11
569.000000
21
262.000000
31
0.0
0
LINE
8
LINES
10
483.000000
20
116.000000
30
0.0
11
452.000000
21
116.000000
31
0.0
0
LINE
8
LINES
10
72.000000
20
556.000000
30
0.0
11
41.000000
21
556.000000
31
0.0
0
LINE
8
LINES
10
462.000000
20
494.000000
30
0.0
11
494.000000
21
494.000000
31
0.0
0
LINE
8
LINES
10
156.000000
20
921.000000
30
0.0
11
185.000000
21
910.000000
31
0.0
0
LINE
8
LINES
10
532.000000
20
169.000000
30
0.0
11
560.000000
21
182.000000
31
0.0
0
LINE
8
LINES
10
97.000000
20
577.000000
30
0.0
11
67.000000
21
572.000000
31
0.0
0
LINE
8
LINES
10
508.000000
20
278.000000
30
0.0
11
505.000000
21
308.000000
31
0.0
0
LINE
8
LINES
10
0.000000
20
211.000000
30
0.0
11
30.000000
21
211.000000
31
0.0
0
LINE
8
LINES
10
225.000000
20
635.000000
30
0.0
11
256.000000
21
638.000000
31
0.0
0
LINE
8
LINES
10
1.000000
20
881.000000
30
0.0
11
30.000000
21
873.000000
31
0.0
0
LINE
8
LINES
10
150.000000
20
427.000000
30
0.0
11
180.000000
21
427.000000
31
0.0
0
LINE
8
LINES
10
569.000000
20
121.000000
30
0.0
11
598.000000
21
121.000000
31
0.0
0
LINE
8
LINES
10
486.000000
20
459.000000
30
0.0
11
486.000000
21
428.000000
31
0.0
0
LINE
8
LINES
10
376.000000
20
748.000000
30
0.0
11
406.000000
21
748.000000
31
0.0
0
LINE
8
LINES
10
150.000000
20
748.000000
30
0.0
11
180.000000
21
748.000000
31
0.0
0
LINE
8
LINES
10
561.000000
20
558.000000
30
0.0
11
531.000000
21
558.000000
31
0.0
0
LINE
8
LINES
10
416.000000
20
748.000000
30
0.0
11
446.000000
21
748.000000
31
0.0
0
LINE
8
LINES
10
180.000000
20
396.000000
30
0.0
11
150.000000
21
396.000000
31
0.0
0
LINE
8
LINES
10
396.000000
20
990.000000
30
0.0
11
396.000000
21
961.000000
31
0.0
0
LINE
8
LINES
10
448.000000
20
718.000000
30
0.0
11
417.000000
21
718.000000
31
0.0
0
LINE
8
LINES
10
292.000000
20
476.000000
30
0.0
11
262.000000
21
476.000000
31
0.0
0
LINE
8
LINES
10
40.000000
20
457.000000
30
0.0
11
40.000000
21
428.000000
31
0.0
0
LINE
8
LINES
10
305.000000
20
105.000000
30
0.0
11
305.000000
21
76.000000
31
0.0
0
LINE
8
LINES
10
345.000000
20
260.000000
30
0.0
11
345.000000
21
291.000000
31
0.0
0
LINE
8
LINES
10
206.000000
20
134.000000
30
0.0
11
176.000000
21
134.000000
31
0.0
0
ENDSEC
0
EOF
