0
SECTION
2
ENTITIES
0
LWPOLYLINE
8
FACADE_OUTLINE
90
4
70
1
10
0.000000
20
0.000000
10
844.000000
20
0.000000
10
844.000000
20
1024.000000
10
0.000000
20
1024.000000
0
LWPOLYLINE
8
WINDOWS
90
4
70
1
10
0.000000
20
0.000000
10
198.000000
20
0.000000
10
198.000000
20
140.000000
10
0.000000
20
140.000000
0
LWPOLYLINE
8
WINDOWS
90
4
70
1
10
529.000000
20
0.000000
10
811.000000
20
0.000000
10
811.000000
20
236.000000
10
529.000000
20
236.000000
0
LWPOLYLINE
8
WINDOWS
90
4
70
1
10
33.000000
20
214.000000
10
280.000000
20
214.000000
10
280.000000
20
451.000000
10
33.000000
20
451.000000
0
LWPOLYLINE
8
WINDOWS
90
4
70
1
10
12.000000
20
249.000000
10
512.000000
20
249.000000
10
512.000000
20
1020.000000
10
12.000000
20
1020.000000
0
LWPOLYLINE
8
WINDOWS
90
4
70
1
10
510.000000
20
268.000000
10
606.000000
20
268.000000
10
606.000000
20
385.000000
10
510.000000
20
385.000000
0
LWPOLYLINE
8
WINDOWS
90
4
70
1
10
126.000000
20
270.000000
10
222.000000
20
270.000000
10
222.000000
20
387.000000
10
126.000000
20
387.000000
0
LWPOLYLINE
8
WINDOWS
90
4
70
1
10
630.000000
20
273.000000
10
710.000000
20
273.000000
10
710.000000
20
385.000000
10
630.000000
20
385.000000
0
LWPOLYLINE
8
WINDOWS
90
4
70
1
10
275.000000
20
273.000000
10
369.000000
20
273.000000
10
369.000000
20
385.000000
10
275.000000
20
385.000000
0
LWPOLYLINE
8
WINDOWS
90
4
70
1
10
393.000000
20
273.000000
10
486.000000
20
273.000000
10
486.000000
20
387.000000
10
393.000000
20
387.000000
0
LWPOLYLINE
8
WINDOWS
90
4
70
1
10
758.000000
20
273.000000
10
812.000000
20
273.000000
10
812.000000
20
384.000000
10
758.000000
20
384.000000
0
LWPOLYLINE
8
WINDOWS
90
4
70
1
10
534.000000
20
316.000000
10
566.000000
20
316.000000
10
566.000000
20
374.000000
10
534.000000
20
374.000000
0
LWPOLYLINE
8
WINDOWS
90
4
70
1
10
300.000000
20
316.000000
10
348.000000
20
316.000000
10
348.000000
20
374.000000
10
300.000000
20
374.000000
0
LWPOLYLINE
8
WINDOWS
90
4
70
1
10
779.000000
20
316.000000
10
806.000000
20
316.000000
10
806.000000
20
371.000000
10
779.000000
20
371.000000
0
LWPOLYLINE
8
WINDOWS
90
4
70
1
10
126.000000
20
470.000000
10
220.000000
20
470.000000
10
220.000000
20
585.000000
10
126.000000
20
585.000000
0
LWPOLYLINE
8
WINDOWS
90
4
70
1
10
515.000000
20
470.000000
10
604.000000
20
470.000000
10
604.000000
20
585.000000
10
515.000000
20
585.000000
0
LWPOLYLINE
8
WINDOWS
90
4
70
1
10
633.000000
20
470.000000
10
729.000000
20
470.000000
10
729.000000
20
588.000000
10
633.000000
20
588.000000
0
LWPOLYLINE
8
WINDOWS
90
4
70
1
10
273.000000
20
473.000000
10
369.000000
20
473.000000
10
369.000000
20
587.000000
10
273.000000
20
587.000000
0
LWPOLYLINE
8
WINDOWS
90
4
70
1
10
393.000000
20
473.000000
10
488.000000
20
473.000000
10
488.000000
20
587.000000
10
393.000000
20
587.000000
0
LWPOLYLINE
8
WINDOWS
90
4
70
1
10
654.000000
20
515.000000
10
707.000000
20
515.000000
10
707.000000
20
577.000000
10
654.000000
20
577.000000
0
LWPOLYLINE
8
WINDOWS
90
4
70
1
10
273.000000
20
673.000000
10
369.000000
20
673.000000
10
369.000000
20
788.000000
10
273.000000
20
788.000000
0
LWPOLYLINE
8
WINDOWS
90
4
70
1
10
123.000000
20
675.000000
10
220.000000
20
675.000000
10
220.000000
20
787.000000
10
123.000000
20
787.000000
0
LWPOLYLINE
8
WINDOWS
90
4
70
1
10
392.000000
20
675.000000
10
488.000000
20
675.000000
10
488.000000
20
787.000000
10
392.000000
20
787.000000
0
LWPOLYLINE
8
WINDOWS
90
4
70
1
10
512.000000
20
675.000000
10
609.000000
20
675.000000
10
609.000000
20
787.000000
10
512.000000
20
787.000000
0
LWPOLYLINE
8
WINDOWS
90
4
70
1
10
636.000000
20
675.000000
10
732.000000
20
675.000000
10
732.000000
20
787.000000
10
636.000000
20
787.000000
0
LWPOLYLINE
8
WINDOWS
90
4
70
1
10
526.000000
20
873.000000
10
596.000000
20
873.000000
10
596.000000
20
1000.000000
10
526.000000
20
1000.000000
0
LWPOLYLINE
8
WINDOWS
90
4
70
1
10
638.000000
20
875.000000
10
729.000000
20
875.000000
10
729.000000
20
961.000000
10
638.000000
20
961.000000
0
LWPOLYLINE
8
WINDOWS
90
4
70
1
10
131.000000
20
876.000000
10
214.000000
20
876.000000
10
214.000000
20
963.000000
10
131.000000
20
963.000000
0
LWPOLYLINE
8
WINDOWS
90
4
70
1
10
273.000000
20
876.000000
10
369.000000
20
876.000000
10
369.000000
20
963.000000
10
273.000000
20
963.000000
0
LWPOLYLINE
8
WINDOWS
90
4
70
1
10
393.000000
20
876.000000
10
486.000000
20
876.000000
10
486.000000
20
963.000000
10
393.000000
20
963.000000
0
LWPOLYLINE
8
WINDOWS
90
4
70
1
10
657.000000
20
878.000000
10
712.000000
20
878.000000
10
712.000000
20
952.000000
10
657.000000
20
952.000000
0
LWPOLYLINE
8
WINDOWS
90
4
70
1
10
299.000000
20
881.000000
10
348.000000
20
881.000000
10
348.000000
20
955.000000
10
299.000000
20
955.000000
0
LWPOLYLINE
8
WINDOWS
90
4
70
1
10
417.000000
20
881.000000
10
468.000000
20
881.000000
10
468.000000
20
955.000000
10
417.000000
20
955.000000
0
LWPOLYLINE
8
DOORS
90
4
70
1
10
760.000000
20
473.000000
10
816.000000
20
473.000000
10
816.000000
20
587.000000
10
760.000000
20
587.000000
0
LWPOLYLINE
8
DOORS
90
4
70
1
10
760.000000
20
499.000000
10
844.000000
20
499.000000
10
844.000000
20
1024.000000
10
760.000000
20
1024.000000
0
LWPOLYLINE
8
DOORS
90
4
70
1
10
417.000000
20
680.000000
10
467.000000
20
680.000000
10
467.000000
20
780.000000
10
417.000000
20
780.000000
0
LWPOLYLINE
8
DOORS
90
4
70
1
10
300.000000
20
681.000000
10
350.000000
20
681.000000
10
350.000000
20
780.000000
10
300.000000
20
780.000000
0
LWPOLYLINE
8
DOORS
90
4
70
1
10
768.000000
20
873.000000
10
814.000000
20
873.000000
10
814.000000
20
960.000000
10
768.000000
20
960.000000
0
LWPOLYLINE
8
DOORS
90
4
70
1
10
782.000000
20
878.000000
10
809.000000
20
878.000000
10
809.000000
20
952.000000
10
782.000000
20
952.000000
0
LINE
8
LINES
10
64.000000
20
492.000000
30
0.0
11
129.000000
21
1022.000000
31
0.0
0
LINE
8
LINES
10
841.000000
20
779.000000
30
0.0
11
841.000000
21
300.000000
31
0.0
0
LINE
8
LINES
10
508.000000
20
228.000000
30
0.0
11
118.000000
21
228.000000
31
0.0
0
LINE
8
LINES
10
129.000000
20
976.000000
30
0.0
11
512.000000
21
976.000000
31
0.0
0
LINE
8
LINES
10
441.000000
20
190.000000
30
0.0
11
806.000000
21
190.000000
31
0.0
0
LINE
8
LINES
10
462.000000
20
1022.000000
30
0.0
11
136.000000
21
1022.000000
31
0.0
0
LINE
8
LINES
10
764.000000
20
51.000000
30
0.0
11
521.000000
21
0.000000
31
0.0
0
LINE
8
LINES
10
116.000000
20
220.000000
30
0.0
11
358.000000
21
220.000000
31
0.0
0
LINE
8
LINES
10
841.000000
20
1022.000000
30
0.0
11
841.000000
21
790.000000
31
0.0
0
LINE
8
LINES
10
721.000000
20
206.000000
30
0.0
11
526.000000
21
206.000000
31
0.0
0
LINE
8
LINES
10
17.000000
20
249.000000
30
0.0
11
46.000000
21
443.000000
31
0.0
0
LINE
8
LINES
10
806.000000
20
76.000000
30
0.0
11
806.000000
21
264.000000
31
0.0
0
LINE
8
LINES
10
574.000000
20
158.000000
30
0.0
11
388.000000
21
158.000000
31
0.0
0
LINE
8
LINES
10
217.000000
20
246.000000
30
0.0
11
46.000000
21
246.000000
31
0.0
0
LINE
8
LINES
10
115.000000
20
241.000000
30
0.0
11
268.000000
21
241.000000
31
0.0
0
LINE
8
LINES
10
84.000000
20
316.000000
30
0.0
11
84.000000
21
457.000000
31
0.0
0
LINE
8
LINES
10
281.000000
20
200.000000
30
0.0
11
148.000000
21
200.000000
31
0.0
0
LINE
8
LINES
10
128.000000
20
115.000000
30
0.0
11
188.000000
21
0.000000
31
0.0
0
LINE
8
LINES
10
73.000000
20
451.000000
30
0.0
11
73.000000
21
326.000000
31
0.0
0
LINE
8
LINES
10
606.000000
20
977.000000
30
0.0
11
732.000000
21
977.000000
31
0.0
0
LINE
8
LINES
10
595.000000
20
873.000000
30
0.0
11
595.000000
21
998.000000
31
0.0
0
LINE
8
LINES
10
526.000000
20
998.000000
30
0.0
11
526.000000
21
876.000000
31
0.0
0
LINE
8
LINES
10
500.000000
20
849.000000
30
0.0
11
617.000000
21
849.000000
31
0.0
0
LINE
8
LINES
10
508.000000
20
241.000000
30
0.0
11
624.000000
21
241.000000
31
0.0
0
LINE
8
LINES
10
73.000000
20
608.000000
30
0.0
11
73.000000
21
492.000000
31
0.0
0
LINE
8
LINES
10
420.000000
20
217.000000
30
0.0
11
307.000000
21
217.000000
31
0.0
0
LINE
8
LINES
10
774.000000
20
577.000000
30
0.0
11
774.000000
21
468.000000
31
0.0
0
LINE
8
LINES
10
300.000000
20
236.000000
30
0.0
11
193.000000
21
236.000000
31
0.0
0
LINE
8
LINES
10
355.000000
20
672.000000
30
0.0
11
355.000000
21
777.000000
31
0.0
0
LINE
8
LINES
10
137.000000
20
1019.000000
30
0.0
11
243.000000
21
1019.000000
31
0.0
0
LINE
8
LINES
10
355.000000
20
472.000000
30
0.0
11
355.000000
21
577.000000
31
0.0
0
LINE
8
LINES
10
204.000000
20
673.000000
30
0.0
11
204.000000
21
777.000000
31
0.0
0
LINE
8
LINES
10
411.000000
20
779.000000
30
0.0
11
411.000000
21
673.000000
31
0.0
0
LINE
8
LINES
10
609.000000
20
862.000000
30
0.0
11
504.000000
21
862.000000
31
0.0
0
LINE
8
LINES
10
611.000000
20
854.000000
30
0.0
11
505.000000
21
854.000000
31
0.0
0
LINE
8
LINES
10
0.000000
20
137.000000
30
0.0
11
14.000000
21
241.000000
31
0.0
0
LINE
8
LINES
10
472.000000
20
673.000000
30
0.0
11
472.000000
21
777.000000
31
0.0
0
LINE
8
LINES
10
118.000000
20
646.000000
30
0.0
11
222.000000
21
646.000000
31
0.0
0
LINE
8
LINES
10
118.000000
20
849.000000
30
0.0
11
222.000000
21
849.000000
31
0.0
0
LINE
8
LINES
10
145.000000
20
777.000000
30
0.0
11
145.000000
21
673.000000
31
0.0
0
LINE
8
LINES
10
816.000000
20
668.000000
30
0.0
11
816.000000
21
772.000000
31
0.0
0
LINE
8
LINES
10
529.000000
20
777.000000
30
0.0
11
529.000000
21
673.000000
31
0.0
0
LINE
8
LINES
10
412.000000
20
577.000000
30
0.0
11
412.000000
21
473.000000
31
0.0
0
LINE
8
LINES
10
294.000000
20
777.000000
30
0.0
11
294.000000
21
675.000000
31
0.0
0
LINE
8
LINES
10
472.000000
20
473.000000
30
0.0
11
472.000000
21
577.000000
31
0.0
0
LINE
8
LINES
10
592.000000
20
673.000000
30
0.0
11
592.000000
21
777.000000
31
0.0
0
LINE
8
LINES
10
715.000000
20
673.000000
30
0.0
11
715.000000
21
776.000000
31
0.0
0
LINE
8
LINES
10
387.000000
20
646.000000
30
0.0
11
489.000000
21
646.000000
31
0.0
0
LINE
8
LINES
10
529.000000
20
577.000000
30
0.0
11
529.000000
21
473.000000
31
0.0
0
LINE
8
LINES
10
772.000000
20
371.000000
30
0.0
11
772.000000
21
270.000000
31
0.0
0
LINE
8
LINES
10
592.000000
20
473.000000
30
0.0
11
592.000000
21
576.000000
31
0.0
0
LINE
8
LINES
10
206.000000
20
473.000000
30
0.0
11
206.000000
21
576.000000
31
0.0
0
LINE
8
LINES
10
268.000000
20
849.000000
30
0.0
11
371.000000
21
849.000000
31
0.0
0
LINE
8
LINES
10
388.000000
20
444.000000
30
0.0
11
491.000000
21
444.000000
31
0.0
0
LINE
8
LINES
10
294.000000
20
374.000000
30
0.0
11
294.000000
21
273.000000
31
0.0
0
LINE
8
LINES
10
652.000000
20
777.000000
30
0.0
11
652.000000
21
675.000000
31
0.0
0
LINE
8
LINES
10
411.000000
20
374.000000
30
0.0
11
411.000000
21
273.000000
31
0.0
0
LINE
8
LINES
10
294.000000
20
576.000000
30
0.0
11
294.000000
21
473.000000
31
0.0
0
LINE
8
LINES
10
649.000000
20
372.000000
30
0.0
11
649.000000
21
272.000000
31
0.0
0
LINE
8
LINES
10
649.000000
20
576.000000
30
0.0
11
649.000000
21
473.000000
31
0.0
0
LINE
8
LINES
10
150.000000
20
376.000000
30
0.0
11
150.000000
21
273.000000
31
0.0
0
LINE
8
LINES
10
776.000000
20
777.000000
30
0.0
11
776.000000
21
675.000000
31
0.0
0
LINE
8
LINES
10
803.000000
20
145.000000
30
0.0
11
766.000000
21
51.000000
31
0.0
0
LINE
8
LINES
10
355.000000
20
273.000000
30
0.0
11
355.000000
21
372.000000
31
0.0
0
LINE
8
LINES
10
590.000000
20
272.000000
30
0.0
11
590.000000
21
371.000000
31
0.0
0
LINE
8
LINES
10
270.000000
20
648.000000
30
0.0
11
371.000000
21
648.000000
31
0.0
0
LINE
8
LINES
10
387.000000
20
849.000000
30
0.0
11
488.000000
21
849.000000
31
0.0
0
LINE
8
LINES
10
150.000000
20
572.000000
30
0.0
11
150.000000
21
473.000000
31
0.0
0
LINE
8
LINES
10
470.000000
20
272.000000
30
0.0
11
470.000000
21
371.000000
31
0.0
0
LINE
8
LINES
10
710.000000
20
272.000000
30
0.0
11
710.000000
21
371.000000
31
0.0
0
LINE
8
LINES
10
508.000000
20
646.000000
30
0.0
11
608.000000
21
646.000000
31
0.0
0
LINE
8
LINES
10
632.000000
20
646.000000
30
0.0
11
731.000000
21
646.000000
31
0.0
0
LINE
8
LINES
10
633.000000
20
849.000000
30
0.0
11
732.000000
21
849.000000
31
0.0
0
LINE
8
LINES
10
529.000000
20
371.000000
30
0.0
11
529.000000
21
273.000000
31
0.0
0
LINE
8
LINES
10
648.000000
20
776.000000
30
0.0
11
648.000000
21
676.000000
31
0.0
0
LINE
8
LINES
10
510.000000
20
857.000000
30
0.0
11
609.000000
21
857.000000
31
0.0
0
LINE
8
LINES
10
209.000000
20
273.000000
30
0.0
11
209.000000
21
371.000000
31
0.0
0
LINE
8
LINES
10
508.000000
20
444.000000
30
0.0
11
606.000000
21
444.000000
31
0.0
0
LINE
8
LINES
10
268.000000
20
444.000000
30
0.0
11
366.000000
21
444.000000
31
0.0
0
LINE
8
LINES
10
537.000000
20
185.000000
30
0.0
11
441.000000
21
185.000000
31
0.0
0
LINE
8
LINES
10
121.000000
20
444.000000
30
0.0
11
217.000000
21
444.000000
31
0.0
0
LINE
8
LINES
10
628.000000
20
444.000000
30
0.0
11
726.000000
21
444.000000
31
0.0
0
LINE
8
LINES
10
488.000000
20
257.000000
30
0.0
11
392.000000
21
257.000000
31
0.0
0
LINE
8
LINES
10
630.000000
20
241.000000
30
0.0
11
726.000000
21
241.000000
31
0.0
0
LINE
8
LINES
10
387.000000
20
241.000000
30
0.0
11
483.000000
21
241.000000
31
0.0
0
LINE
8
LINES
10
729.000000
20
859.000000
30
0.0
11
636.000000
21
859.000000
31
0.0
0
LINE
8
LINES
10
603.000000
20
244.000000
30
0.0
11
508.000000
21
244.000000
31
0.0
0
LINE
8
LINES
10
486.000000
20
651.000000
30
0.0
11
392.000000
21
651.000000
31
0.0
0
LINE
8
LINES
10
371.000000
20
257.000000
30
0.0
11
278.000000
21
257.000000
31
0.0
0
LINE
8
LINES
10
483.000000
20
860.000000
30
0.0
11
392.000000
21
860.000000
31
0.0
0
LINE
8
LINES
10
646.000000
20
574.000000
30
0.0
11
646.000000
21
481.000000
31
0.0
0
LINE
8
LINES
10
483.000000
20
854.000000
30
0.0
11
392.000000
21
854.000000
31
0.0
0
LINE
8
LINES
10
723.000000
20
256.000000
30
0.0
11
632.000000
21
256.000000
31
0.0
0
LINE
8
LINES
10
366.000000
20
459.000000
30
0.0
11
275.000000
21
459.000000
31
0.0
0
LINE
8
LINES
10
729.000000
20
659.000000
30
0.0
11
638.000000
21
659.000000
31
0.0
0
LINE
8
LINES
10
366.000000
20
246.000000
30
0.0
11
273.000000
21
246.000000
31
0.0
0
LINE
8
LINES
10
366.000000
20
651.000000
30
0.0
11
273.000000
21
651.000000
31
0.0
0
LINE
8
LINES
10
723.000000
20
449.000000
30
0.0
11
632.000000
21
449.000000
31
0.0
0
LINE
8
LINES
10
0.000000
20
126.000000
30
0.0
11
91.000000
21
126.000000
31
0.0
0
LINE
8
LINES
10
392.000000
20
251.000000
30
0.0
11
481.000000
21
251.000000
31
0.0
0
LINE
8
LINES
10
128.000000
20
451.000000
30
0.0
11
217.000000
21
451.000000
31
0.0
0
LINE
8
LINES
10
513.000000
20
452.000000
30
0.0
11
604.000000
21
452.000000
31
0.0
0
LINE
8
LINES
10
219.000000
20
459.000000
30
0.0
11
129.000000
21
459.000000
31
0.0
0
LINE
8
LINES
10
483.000000
20
659.000000
30
0.0
11
393.000000
21
659.000000
31
0.0
0
LINE
8
LINES
10
364.000000
20
449.000000
30
0.0
11
273.000000
21
449.000000
31
0.0
0
LINE
8
LINES
10
483.000000
20
449.000000
30
0.0
11
393.000000
21
449.000000
31
0.0
0
LINE
8
LINES
10
366.000000
20
854.000000
30
0.0
11
275.000000
21
854.000000
31
0.0
0
LINE
8
LINES
10
275.000000
20
252.000000
30
0.0
11
364.000000
21
252.000000
31
0.0
0
LINE
8
LINES
10
276.000000
20
452.000000
30
0.0
11
366.000000
21
452.000000
31
0.0
0
LINE
8
LINES
10
366.000000
20
958.000000
30
0.0
11
276.000000
21
958.000000
31
0.0
0
LINE
8
LINES
10
131.000000
20
251.000000
30
0.0
11
219.000000
21
251.000000
31
0.0
0
LINE
8
LINES
10
396.000000
20
451.000000
30
0.0
11
483.000000
21
451.000000
31
0.0
0
LINE
8
LINES
10
513.000000
20
249.000000
30
0.0
11
601.000000
21
249.000000
31
0.0
0
LINE
8
LINES
10
217.000000
20
785.000000
30
0.0
11
129.000000
21
785.000000
31
0.0
0
LINE
8
LINES
10
723.000000
20
457.000000
30
0.0
11
636.000000
21
457.000000
31
0.0
0
LINE
8
LINES
10
638.000000
20
654.000000
30
0.0
11
726.000000
21
654.000000
31
0.0
0
LINE
8
LINES
10
366.000000
20
860.000000
30
0.0
11
276.000000
21
860.000000
31
0.0
0
LINE
8
LINES
10
636.000000
20
452.000000
30
0.0
11
723.000000
21
452.000000
31
0.0
0
LINE
8
LINES
10
481.000000
20
246.000000
30
0.0
11
392.000000
21
246.000000
31
0.0
0
LINE
8
LINES
10
278.000000
20
654.000000
30
0.0
11
366.000000
21
654.000000
31
0.0
0
LINE
8
LINES
10
721.000000
20
244.000000
30
0.0
11
632.000000
21
244.000000
31
0.0
0
LINE
8
LINES
10
216.000000
20
449.000000
30
0.0
11
126.000000
21
449.000000
31
0.0
0
LINE
8
LINES
10
601.000000
20
449.000000
30
0.0
11
513.000000
21
449.000000
31
0.0
0
LINE
8
LINES
10
728.000000
20
784.000000
30
0.0
11
638.000000
21
784.000000
31
0.0
0
LINE
8
LINES
10
366.000000
20
659.000000
30
0.0
11
278.000000
21
659.000000
31
0.0
0
LINE
8
LINES
10
364.000000
20
785.000000
30
0.0
11
276.000000
21
785.000000
31
0.0
0
LINE
8
LINES
10
364.000000
20
963.000000
30
0.0
11
276.000000
21
963.000000
31
0.0
0
LINE
8
LINES
10
603.000000
20
657.000000
30
0.0
11
515.000000
21
657.000000
31
0.0
0
LINE
8
LINES
10
366.000000
20
385.000000
30
0.0
11
278.000000
21
385.000000
31
0.0
0
LINE
8
LINES
10
396.000000
20
654.000000
30
0.0
11
483.000000
21
654.000000
31
0.0
0
LINE
8
LINES
10
515.000000
20
654.000000
30
0.0
11
603.000000
21
654.000000
31
0.0
0
LINE
8
LINES
10
603.000000
20
785.000000
30
0.0
11
515.000000
21
785.000000
31
0.0
0
LINE
8
LINES
10
198.000000
20
216.000000
30
0.0
11
112.000000
21
216.000000
31
0.0
0
LINE
8
LINES
10
212.000000
20
659.000000
30
0.0
11
126.000000
21
659.000000
31
0.0
0
LINE
8
LINES
10
481.000000
20
385.000000
30
0.0
11
396.000000
21
385.000000
31
0.0
0
LINE
8
LINES
10
633.000000
20
249.000000
30
0.0
11
718.000000
21
249.000000
31
0.0
0
LINE
8
LINES
10
481.000000
20
961.000000
30
0.0
11
396.000000
21
961.000000
31
0.0
0
LINE
8
LINES
10
217.000000
20
257.000000
30
0.0
11
131.000000
21
257.000000
31
0.0
0
LINE
8
LINES
10
211.000000
20
860.000000
30
0.0
11
126.000000
21
860.000000
31
0.0
0
LINE
8
LINES
10
595.000000
20
256.000000
30
0.0
11
508.000000
21
256.000000
31
0.0
0
LINE
8
LINES
10
217.000000
20
580.000000
30
0.0
11
131.000000
21
580.000000
31
0.0
0
LINE
8
LINES
10
721.000000
20
651.000000
30
0.0
11
633.000000
21
651.000000
31
0.0
0
LINE
8
LINES
10
211.000000
20
652.000000
30
0.0
11
126.000000
21
652.000000
31
0.0
0
LINE
8
LINES
10
481.000000
20
582.000000
30
0.0
11
396.000000
21
582.000000
31
0.0
0
LINE
8
LINES
10
216.000000
20
377.000000
30
0.0
11
131.000000
21
377.000000
31
0.0
0
LINE
8
LINES
10
364.000000
20
585.000000
30
0.0
11
278.000000
21
585.000000
31
0.0
0
LINE
8
LINES
10
363.000000
20
579.000000
30
0.0
11
278.000000
21
579.000000
31
0.0
0
LINE
8
LINES
10
441.000000
20
188.000000
30
0.0
11
355.000000
21
188.000000
31
0.0
0
LINE
8
LINES
10
129.000000
20
654.000000
30
0.0
11
214.000000
21
654.000000
31
0.0
0
LINE
8
LINES
10
625.000000
20
185.000000
30
0.0
11
540.000000
21
185.000000
31
0.0
0
LINE
8
LINES
10
481.000000
20
782.000000
30
0.0
11
396.000000
21
782.000000
31
0.0
0
LINE
8
LINES
10
598.000000
20
651.000000
30
0.0
11
513.000000
21
651.000000
31
0.0
0
LINE
8
LINES
10
766.000000
20
574.000000
30
0.0
11
766.000000
21
489.000000
31
0.0
0
LINE
8
LINES
10
278.000000
20
857.000000
30
0.0
11
364.000000
21
857.000000
31
0.0
0
LINE
8
LINES
10
598.000000
20
374.000000
30
0.0
11
513.000000
21
374.000000
31
0.0
0
LINE
8
LINES
10
814.000000
20
873.000000
30
0.0
11
814.000000
21
958.000000
31
0.0
0
LINE
8
LINES
10
726.000000
20
958.000000
30
0.0
11
641.000000
21
958.000000
31
0.0
0
LINE
8
LINES
10
721.000000
20
579.000000
30
0.0
11
638.000000
21
579.000000
31
0.0
0
LINE
8
LINES
10
363.000000
20
376.000000
30
0.0
11
278.000000
21
376.000000
31
0.0
0
LINE
8
LINES
10
478.000000
20
377.000000
30
0.0
11
396.000000
21
377.000000
31
0.0
0
LINE
8
LINES
10
718.000000
20
377.000000
30
0.0
11
636.000000
21
377.000000
31
0.0
0
LINE
8
LINES
10
478.000000
20
787.000000
30
0.0
11
396.000000
21
787.000000
31
0.0
0
LINE
8
LINES
10
806.000000
20
208.000000
30
0.0
11
723.000000
21
208.000000
31
0.0
0
LINE
8
LINES
10
643.000000
20
371.000000
30
0.0
11
643.000000
21
288.000000
31
0.0
0
LINE
8
LINES
10
75.000000
20
324.000000
30
0.0
11
36.000000
21
252.000000
31
0.0
0
LINE
8
LINES
10
478.000000
20
457.000000
30
0.0
11
396.000000
21
457.000000
31
0.0
0
LINE
8
LINES
10
598.000000
20
384.000000
30
0.0
11
516.000000
21
384.000000
31
0.0
0
LINE
8
LINES
10
216.000000
20
385.000000
30
0.0
11
134.000000
21
385.000000
31
0.0
0
LINE
8
LINES
10
636.000000
20
379.000000
30
0.0
11
718.000000
21
379.000000
31
0.0
0
LINE
8
LINES
10
398.000000
20
380.000000
30
0.0
11
478.000000
21
380.000000
31
0.0
0
LINE
8
LINES
10
281.000000
20
961.000000
30
0.0
11
361.000000
21
961.000000
31
0.0
0
LINE
8
LINES
10
769.000000
20
947.000000
30
0.0
11
769.000000
21
867.000000
31
0.0
0
LINE
8
LINES
10
134.000000
20
382.000000
30
0.0
11
216.000000
21
382.000000
31
0.0
0
LINE
8
LINES
10
211.000000
20
585.000000
30
0.0
11
131.000000
21
585.000000
31
0.0
0
LINE
8
LINES
10
598.000000
20
780.000000
30
0.0
11
521.000000
21
780.000000
31
0.0
0
LINE
8
LINES
10
598.000000
20
579.000000
30
0.0
11
518.000000
21
579.000000
31
0.0
0
LINE
8
LINES
10
598.000000
20
459.000000
30
0.0
11
518.000000
21
459.000000
31
0.0
0
LINE
8
LINES
10
643.000000
20
582.000000
30
0.0
11
721.000000
21
582.000000
31
0.0
0
LINE
8
LINES
10
472.000000
20
876.000000
30
0.0
11
472.000000
21
953.000000
31
0.0
0
LINE
8
LINES
10
598.000000
20
585.000000
30
0.0
11
521.000000
21
585.000000
31
0.0
0
LINE
8
LINES
10
776.000000
20
948.000000
30
0.0
11
776.000000
21
872.000000
31
0.0
0
LINE
8
LINES
10
643.000000
20
865.000000
30
0.0
11
721.000000
21
865.000000
31
0.0
0
LINE
8
LINES
10
353.000000
20
876.000000
30
0.0
11
353.000000
21
953.000000
31
0.0
0
LINE
8
LINES
10
713.000000
20
876.000000
30
0.0
11
713.000000
21
952.000000
31
0.0
0
LINE
8
LINES
10
204.000000
20
876.000000
30
0.0
11
204.000000
21
953.000000
31
0.0
0
LINE
8
LINES
10
409.000000
20
953.000000
30
0.0
11
409.000000
21
876.000000
31
0.0
0
LINE
8
LINES
10
651.000000
20
952.000000
30
0.0
11
651.000000
21
876.000000
31
0.0
0
LINE
8
LINES
10
779.000000
20
952.000000
30
0.0
11
779.000000
21
876.000000
31
0.0
0
LINE
8
LINES
10
291.000000
20
953.000000
30
0.0
11
291.000000
21
876.000000
31
0.0
0
LINE
8
LINES
10
142.000000
20
952.000000
30
0.0
11
142.000000
21
876.000000
31
0.0
0
LINE
8
LINES
10
283.000000
20
867.000000
30
0.0
11
358.000000
21
867.000000
31
0.0
0
LINE
8
LINES
10
401.000000
20
867.000000
30
0.0
11
478.000000
21
867.000000
31
0.0
0
LINE
8
LINES
10
209.000000
20
963.000000
30
0.0
11
134.000000
21
963.000000
31
0.0
0
LINE
8
LINES
10
206.000000
20
956.000000
30
0.0
11
131.000000
21
956.000000
31
0.0
0
LINE
8
LINES
10
518.000000
20
1014.000000
30
0.0
11
593.000000
21
1014.000000
31
0.0
0
LINE
8
LINES
10
524.000000
20
353.000000
30
0.0
11
524.000000
21
278.000000
31
0.0
0
LINE
8
LINES
10
473.000000
20
956.000000
30
0.0
11
398.000000
21
956.000000
31
0.0
0
LINE
8
LINES
10
812.000000
20
307.000000
30
0.0
11
812.000000
21
382.000000
31
0.0
0
LINE
8
LINES
10
403.000000
20
344.000000
30
0.0
11
403.000000
21
270.000000
31
0.0
0
LINE
8
LINES
10
286.000000
20
344.000000
30
0.0
11
286.000000
21
272.000000
31
0.0
0
LINE
8
LINES
10
524.000000
20
544.000000
30
0.0
11
524.000000
21
472.000000
31
0.0
0
LINE
8
LINES
10
368.000000
20
190.000000
30
0.0
11
438.000000
21
190.000000
31
0.0
0
LINE
8
LINES
10
366.000000
20
102.000000
30
0.0
11
438.000000
21
102.000000
31
0.0
0
LINE
8
LINES
10
216.000000
20
337.000000
30
0.0
11
216.000000
21
265.000000
31
0.0
0
LINE
8
LINES
10
712.000000
20
505.000000
30
0.0
11
712.000000
21
576.000000
31
0.0
0
LINE
8
LINES
10
806.000000
20
188.000000
30
0.0
11
737.000000
21
188.000000
31
0.0
0
LINE
8
LINES
10
718.000000
20
368.000000
30
0.0
11
718.000000
21
297.000000
31
0.0
0
LINE
8
LINES
10
526.000000
20
873.000000
30
0.0
11
593.000000
21
873.000000
31
0.0
0
LINE
8
LINES
10
526.000000
20
470.000000
30
0.0
11
593.000000
21
470.000000
31
0.0
0
LINE
8
LINES
10
526.000000
20
670.000000
30
0.0
11
593.000000
21
670.000000
31
0.0
0
LINE
8
LINES
10
491.000000
20
982.000000
30
0.0
11
422.000000
21
982.000000
31
0.0
0
LINE
8
LINES
10
526.000000
20
268.000000
30
0.0
11
593.000000
21
268.000000
31
0.0
0
LINE
8
LINES
10
321.000000
20
83.000000
30
0.0
11
387.000000
21
83.000000
31
0.0
0
LINE
8
LINES
10
841.000000
20
67.000000
30
0.0
11
777.000000
21
54.000000
31
0.0
0
LINE
8
LINES
10
289.000000
20
876.000000
30
0.0
11
355.000000
21
876.000000
31
0.0
0
LINE
8
LINES
10
593.000000
20
998.000000
30
0.0
11
526.000000
21
998.000000
31
0.0
0
LINE
8
LINES
10
406.000000
20
670.000000
30
0.0
11
473.000000
21
670.000000
31
0.0
0
LINE
8
LINES
10
406.000000
20
470.000000
30
0.0
11
473.000000
21
470.000000
31
0.0
0
LINE
8
LINES
10
142.000000
20
270.000000
30
0.0
11
209.000000
21
270.000000
31
0.0
0
LINE
8
LINES
10
646.000000
20
470.000000
30
0.0
11
713.000000
21
470.000000
31
0.0
0
LINE
8
LINES
10
139.000000
20
670.000000
30
0.0
11
206.000000
21
670.000000
31
0.0
0
LINE
8
LINES
10
649.000000
20
670.000000
30
0.0
11
716.000000
21
670.000000
31
0.0
0
LINE
8
LINES
10
289.000000
20
672.000000
30
0.0
11
355.000000
21
672.000000
31
0.0
0
LINE
8
LINES
10
219.000000
20
262.000000
30
0.0
11
219.000000
21
329.000000
31
0.0
0
LINE
8
LINES
10
649.000000
20
870.000000
30
0.0
11
716.000000
21
870.000000
31
0.0
0
LINE
8
LINES
10
139.000000
20
876.000000
30
0.0
11
204.000000
21
876.000000
31
0.0
0
LINE
8
LINES
10
406.000000
20
268.000000
30
0.0
11
472.000000
21
268.000000
31
0.0
0
LINE
8
LINES
10
142.000000
20
470.000000
30
0.0
11
206.000000
21
470.000000
31
0.0
0
LINE
8
LINES
10
291.000000
20
270.000000
30
0.0
11
355.000000
21
270.000000
31
0.0
0
LINE
8
LINES
10
289.000000
20
470.000000
30
0.0
11
353.000000
21
470.000000
31
0.0
0
LINE
8
LINES
10
646.000000
20
268.000000
30
0.0
11
710.000000
21
268.000000
31
0.0
0
LINE
8
LINES
10
524.000000
20
742.000000
30
0.0
11
524.000000
21
678.000000
31
0.0
0
LINE
8
LINES
10
422.000000
20
137.000000
30
0.0
11
361.000000
21
137.000000
31
0.0
0
LINE
8
LINES
10
409.000000
20
876.000000
30
0.0
11
470.000000
21
876.000000
31
0.0
0
LINE
8
LINES
10
652.000000
20
875.000000
30
0.0
11
713.000000
21
875.000000
31
0.0
0
LINE
8
LINES
10
664.000000
20
139.000000
30
0.0
11
603.000000
21
139.000000
31
0.0
0
LINE
8
LINES
10
668.000000
20
147.000000
30
0.0
11
608.000000
21
147.000000
31
0.0
0
LINE
8
LINES
10
652.000000
20
675.000000
30
0.0
11
713.000000
21
675.000000
31
0.0
0
LINE
8
LINES
10
292.000000
20
675.000000
30
0.0
11
353.000000
21
675.000000
31
0.0
0
LINE
8
LINES
10
531.000000
20
675.000000
30
0.0
11
590.000000
21
675.000000
31
0.0
0
LINE
8
LINES
10
411.000000
20
675.000000
30
0.0
11
470.000000
21
675.000000
31
0.0
0
LINE
8
LINES
10
598.000000
20
145.000000
30
0.0
11
659.000000
21
145.000000
31
0.0
0
LINE
8
LINES
10
361.000000
20
57.000000
30
0.0
11
422.000000
21
57.000000
31
0.0
0
LINE
8
LINES
10
624.000000
20
193.000000
30
0.0
11
563.000000
21
193.000000
31
0.0
0
LINE
8
LINES
10
49.000000
20
262.000000
30
0.0
11
78.000000
21
313.000000
31
0.0
0
LINE
8
LINES
10
777.000000
20
59.000000
30
0.0
11
798.000000
21
113.000000
31
0.0
0
LINE
8
LINES
10
142.000000
20
675.000000
30
0.0
11
201.000000
21
675.000000
31
0.0
0
LINE
8
LINES
10
294.000000
20
275.000000
30
0.0
11
353.000000
21
275.000000
31
0.0
0
LINE
8
LINES
10
531.000000
20
475.000000
30
0.0
11
588.000000
21
475.000000
31
0.0
0
LINE
8
LINES
10
756.000000
20
646.000000
30
0.0
11
816.000000
21
646.000000
31
0.0
0
LINE
8
LINES
10
294.000000
20
475.000000
30
0.0
11
353.000000
21
475.000000
31
0.0
0
LINE
8
LINES
10
411.000000
20
475.000000
30
0.0
11
468.000000
21
475.000000
31
0.0
0
LINE
8
LINES
10
411.000000
20
275.000000
30
0.0
11
468.000000
21
275.000000
31
0.0
0
LINE
8
LINES
10
651.000000
20
475.000000
30
0.0
11
708.000000
21
475.000000
31
0.0
0
LINE
8
LINES
10
529.000000
20
273.000000
30
0.0
11
588.000000
21
273.000000
31
0.0
0
LINE
8
LINES
10
649.000000
20
273.000000
30
0.0
11
707.000000
21
273.000000
31
0.0
0
LINE
8
LINES
10
184.000000
20
92.000000
30
0.0
11
243.000000
21
92.000000
31
0.0
0
LINE
8
LINES
10
721.000000
20
980.000000
30
0.0
11
662.000000
21
980.000000
31
0.0
0
LINE
8
LINES
10
147.000000
20
475.000000
30
0.0
11
204.000000
21
475.000000
31
0.0
0
LINE
8
LINES
10
755.000000
20
443.000000
30
0.0
11
812.000000
21
443.000000
31
0.0
0
LINE
8
LINES
10
148.000000
20
275.000000
30
0.0
11
206.000000
21
275.000000
31
0.0
0
LINE
8
LINES
10
406.000000
20
529.000000
30
0.0
11
406.000000
21
472.000000
31
0.0
0
LINE
8
LINES
10
676.000000
20
316.000000
30
0.0
11
676.000000
21
372.000000
31
0.0
0
LINE
8
LINES
10
140.000000
20
528.000000
30
0.0
11
140.000000
21
472.000000
31
0.0
0
LINE
8
LINES
10
729.000000
20
185.000000
30
0.0
11
673.000000
21
185.000000
31
0.0
0
LINE
8
LINES
10
753.000000
20
241.000000
30
0.0
11
808.000000
21
241.000000
31
0.0
0
LINE
8
LINES
10
732.000000
20
368.000000
30
0.0
11
732.000000
21
313.000000
31
0.0
0
LINE
8
LINES
10
652.000000
20
313.000000
30
0.0
11
707.000000
21
313.000000
31
0.0
0
LINE
8
LINES
10
156.000000
20
318.000000
30
0.0
11
156.000000
21
374.000000
31
0.0
0
LINE
8
LINES
10
416.000000
20
318.000000
30
0.0
11
416.000000
21
372.000000
31
0.0
0
LINE
8
LINES
10
808.000000
20
259.000000
30
0.0
11
753.000000
21
259.000000
31
0.0
0
LINE
8
LINES
10
59.000000
20
246.000000
30
0.0
11
113.000000
21
246.000000
31
0.0
0
LINE
8
LINES
10
758.000000
20
976.000000
30
0.0
11
812.000000
21
976.000000
31
0.0
0
LINE
8
LINES
10
723.000000
20
382.000000
30
0.0
11
670.000000
21
382.000000
31
0.0
0
LINE
8
LINES
10
811.000000
20
446.000000
30
0.0
11
756.000000
21
446.000000
31
0.0
0
LINE
8
LINES
10
768.000000
20
771.000000
30
0.0
11
768.000000
21
718.000000
31
0.0
0
LINE
8
LINES
10
812.000000
20
449.000000
30
0.0
11
758.000000
21
449.000000
31
0.0
0
LINE
8
LINES
10
723.000000
20
870.000000
30
0.0
11
723.000000
21
924.000000
31
0.0
0
LINE
8
LINES
10
761.000000
20
848.000000
30
0.0
11
812.000000
21
848.000000
31
0.0
0
LINE
8
LINES
10
812.000000
20
457.000000
30
0.0
11
758.000000
21
457.000000
31
0.0
0
LINE
8
LINES
10
724.000000
20
665.000000
30
0.0
11
724.000000
21
718.000000
31
0.0
0
LINE
8
LINES
10
600.000000
20
718.000000
30
0.0
11
600.000000
21
667.000000
31
0.0
0
LINE
8
LINES
10
337.000000
20
201.000000
30
0.0
11
286.000000
21
201.000000
31
0.0
0
LINE
8
LINES
10
521.000000
20
137.000000
30
0.0
11
569.000000
21
156.000000
31
0.0
0
LINE
8
LINES
10
49.000000
20
257.000000
30
0.0
11
100.000000
21
257.000000
31
0.0
0
LINE
8
LINES
10
808.000000
20
246.000000
30
0.0
11
756.000000
21
246.000000
31
0.0
0
LINE
8
LINES
10
454.000000
20
76.000000
30
0.0
11
505.000000
21
76.000000
31
0.0
0
LINE
8
LINES
10
761.000000
20
451.000000
30
0.0
11
812.000000
21
451.000000
31
0.0
0
LINE
8
LINES
10
252.000000
20
68.000000
30
0.0
11
302.000000
21
68.000000
31
0.0
0
LINE
8
LINES
10
547.000000
20
379.000000
30
0.0
11
598.000000
21
379.000000
31
0.0
0
LINE
8
LINES
10
334.000000
20
240.000000
30
0.0
11
384.000000
21
240.000000
31
0.0
0
LINE
8
LINES
10
758.000000
20
249.000000
30
0.0
11
808.000000
21
249.000000
31
0.0
0
LINE
8
LINES
10
812.000000
20
579.000000
30
0.0
11
763.000000
21
579.000000
31
0.0
0
LINE
8
LINES
10
204.000000
20
64.000000
30
0.0
11
254.000000
21
64.000000
31
0.0
0
LINE
8
LINES
10
763.000000
20
654.000000
30
0.0
11
812.000000
21
654.000000
31
0.0
0
LINE
8
LINES
10
145.000000
20
198.000000
30
0.0
11
96.000000
21
198.000000
31
0.0
0
LINE
8
LINES
10
812.000000
20
587.000000
30
0.0
11
764.000000
21
587.000000
31
0.0
0
LINE
8
LINES
10
812.000000
20
382.000000
30
0.0
11
763.000000
21
382.000000
31
0.0
0
LINE
8
LINES
10
46.000000
20
441.000000
30
0.0
11
89.000000
21
462.000000
31
0.0
0
LINE
8
LINES
10
100.000000
20
257.000000
30
0.0
11
52.000000
21
257.000000
31
0.0
0
LINE
8
LINES
10
198.000000
20
572.000000
30
0.0
11
150.000000
21
572.000000
31
0.0
0
LINE
8
LINES
10
811.000000
20
376.000000
30
0.0
11
763.000000
21
376.000000
31
0.0
0
LINE
8
LINES
10
812.000000
20
785.000000
30
0.0
11
764.000000
21
785.000000
31
0.0
0
LINE
8
LINES
10
195.000000
20
673.000000
30
0.0
11
147.000000
21
673.000000
31
0.0
0
LINE
8
LINES
10
812.000000
20
659.000000
30
0.0
11
766.000000
21
659.000000
31
0.0
0
LINE
8
LINES
10
108.000000
20
172.000000
30
0.0
11
156.000000
21
172.000000
31
0.0
0
LINE
8
LINES
10
147.000000
20
576.000000
30
0.0
11
193.000000
21
576.000000
31
0.0
0
LINE
8
LINES
10
665.000000
20
718.000000
30
0.0
11
712.000000
21
718.000000
31
0.0
0
LINE
8
LINES
10
641.000000
20
950.000000
30
0.0
11
641.000000
21
904.000000
31
0.0
0
LINE
8
LINES
10
158.000000
20
180.000000
30
0.0
11
206.000000
21
180.000000
31
0.0
0
LINE
8
LINES
10
273.000000
20
249.000000
30
0.0
11
227.000000
21
249.000000
31
0.0
0
LINE
8
LINES
10
723.000000
20
588.000000
30
0.0
11
678.000000
21
588.000000
31
0.0
0
LINE
8
LINES
10
158.000000
20
174.000000
30
0.0
11
204.000000
21
174.000000
31
0.0
0
LINE
8
LINES
10
812.000000
20
859.000000
30
0.0
11
766.000000
21
859.000000
31
0.0
0
LINE
8
LINES
10
275.000000
20
56.000000
30
0.0
11
321.000000
21
56.000000
31
0.0
0
LINE
8
LINES
10
331.000000
20
371.000000
30
0.0
11
331.000000
21
326.000000
31
0.0
0
LINE
8
LINES
10
305.000000
20
513.000000
30
0.0
11
350.000000
21
513.000000
31
0.0
0
LINE
8
LINES
10
54.000000
20
265.000000
30
0.0
11
99.000000
21
265.000000
31
0.0
0
LINE
8
LINES
10
388.000000
20
92.000000
30
0.0
11
344.000000
21
92.000000
31
0.0
0
LINE
8
LINES
10
118.000000
20
140.000000
30
0.0
11
163.000000
21
140.000000
31
0.0
0
LINE
8
LINES
10
256.000000
20
180.000000
30
0.0
11
299.000000
21
180.000000
31
0.0
0
LINE
8
LINES
10
542.000000
20
312.000000
30
0.0
11
587.000000
21
312.000000
31
0.0
0
LINE
8
LINES
10
288.000000
20
46.000000
30
0.0
11
332.000000
21
46.000000
31
0.0
0
LINE
8
LINES
10
208.000000
20
180.000000
30
0.0
11
252.000000
21
180.000000
31
0.0
0
LINE
8
LINES
10
564.000000
20
369.000000
30
0.0
11
564.000000
21
326.000000
31
0.0
0
LINE
8
LINES
10
318.000000
20
380.000000
30
0.0
11
363.000000
21
380.000000
31
0.0
0
LINE
8
LINES
10
118.000000
20
478.000000
30
0.0
11
78.000000
21
489.000000
31
0.0
0
LINE
8
LINES
10
545.000000
20
720.000000
30
0.0
11
588.000000
21
720.000000
31
0.0
0
LINE
8
LINES
10
396.000000
20
857.000000
30
0.0
11
438.000000
21
857.000000
31
0.0
0
LINE
8
LINES
10
771.000000
20
670.000000
30
0.0
11
814.000000
21
670.000000
31
0.0
0
LINE
8
LINES
10
768.000000
20
854.000000
30
0.0
11
811.000000
21
854.000000
31
0.0
0
LINE
8
LINES
10
718.000000
20
89.000000
30
0.0
11
745.000000
21
121.000000
31
0.0
0
LINE
8
LINES
10
689.000000
20
121.000000
30
0.0
11
716.000000
21
89.000000
31
0.0
0
LINE
8
LINES
10
771.000000
20
470.000000
30
0.0
11
812.000000
21
470.000000
31
0.0
0
LINE
8
LINES
10
211.000000
20
174.000000
30
0.0
11
252.000000
21
174.000000
31
0.0
0
LINE
8
LINES
10
321.000000
20
163.000000
30
0.0
11
281.000000
21
163.000000
31
0.0
0
LINE
8
LINES
10
257.000000
20
172.000000
30
0.0
11
297.000000
21
172.000000
31
0.0
0
LINE
8
LINES
10
552.000000
20
446.000000
30
0.0
11
510.000000
21
446.000000
31
0.0
0
LINE
8
LINES
10
334.000000
20
92.000000
30
0.0
11
376.000000
21
92.000000
31
0.0
0
LINE
8
LINES
10
340.000000
20
116.000000
30
0.0
11
382.000000
21
116.000000
31
0.0
0
LINE
8
LINES
10
808.000000
20
780.000000
30
0.0
11
766.000000
21
780.000000
31
0.0
0
LINE
8
LINES
10
712.000000
20
774.000000
30
0.0
11
670.000000
21
774.000000
31
0.0
0
LINE
8
LINES
10
428.000000
20
513.000000
30
0.0
11
468.000000
21
513.000000
31
0.0
0
LINE
8
LINES
10
465.000000
20
870.000000
30
0.0
11
424.000000
21
870.000000
31
0.0
0
LINE
8
LINES
10
68.000000
20
316.000000
30
0.0
11
28.000000
21
316.000000
31
0.0
0
LINE
8
LINES
10
812.000000
20
958.000000
30
0.0
11
772.000000
21
958.000000
31
0.0
0
LINE
8
LINES
10
446.000000
20
673.000000
30
0.0
11
406.000000
21
673.000000
31
0.0
0
LINE
8
LINES
10
403.000000
20
718.000000
30
0.0
11
403.000000
21
678.000000
31
0.0
0
LINE
8
LINES
10
678.000000
20
852.000000
30
0.0
11
638.000000
21
852.000000
31
0.0
0
LINE
8
LINES
10
441.000000
20
857.000000
30
0.0
11
481.000000
21
857.000000
31
0.0
0
LINE
8
LINES
10
398.000000
20
156.000000
30
0.0
11
436.000000
21
147.000000
31
0.0
0
LINE
8
LINES
10
792.000000
20
1001.000000
30
0.0
11
753.000000
21
1001.000000
31
0.0
0
LINE
8
LINES
10
771.000000
20
268.000000
30
0.0
11
809.000000
21
268.000000
31
0.0
0
LINE
8
LINES
10
393.000000
20
108.000000
30
0.0
11
432.000000
21
108.000000
31
0.0
0
LINE
8
LINES
10
811.000000
20
955.000000
30
0.0
11
771.000000
21
955.000000
31
0.0
0
LINE
8
LINES
10
131.000000
20
121.000000
30
0.0
11
169.000000
21
121.000000
31
0.0
0
LINE
8
LINES
10
374.000000
20
235.000000
30
0.0
11
336.000000
21
235.000000
31
0.0
0
LINE
8
LINES
10
336.000000
20
272.000000
30
0.0
11
297.000000
21
272.000000
31
0.0
0
LINE
8
LINES
10
177.000000
20
254.000000
30
0.0
11
139.000000
21
254.000000
31
0.0
0
LINE
8
LINES
10
182.000000
20
236.000000
30
0.0
11
142.000000
21
236.000000
31
0.0
0
LINE
8
LINES
10
777.000000
20
673.000000
30
0.0
11
814.000000
21
673.000000
31
0.0
0
LINE
8
LINES
10
675.000000
20
588.000000
30
0.0
11
638.000000
21
588.000000
31
0.0
0
LINE
8
LINES
10
310.000000
20
172.000000
30
0.0
11
348.000000
21
172.000000
31
0.0
0
LINE
8
LINES
10
457.000000
20
110.000000
30
0.0
11
419.000000
21
110.000000
31
0.0
0
LINE
8
LINES
10
593.000000
20
148.000000
30
0.0
11
632.000000
21
148.000000
31
0.0
0
LINE
8
LINES
10
139.000000
20
100.000000
30
0.0
11
177.000000
21
100.000000
31
0.0
0
LINE
8
LINES
10
337.000000
20
108.000000
30
0.0
11
376.000000
21
108.000000
31
0.0
0
LINE
8
LINES
10
588.000000
20
774.000000
30
0.0
11
552.000000
21
774.000000
31
0.0
0
LINE
8
LINES
10
158.000000
20
126.000000
30
0.0
11
195.000000
21
126.000000
31
0.0
0
LINE
8
LINES
10
278.000000
20
217.000000
30
0.0
11
241.000000
21
217.000000
31
0.0
0
LINE
8
LINES
10
377.000000
20
201.000000
30
0.0
11
340.000000
21
201.000000
31
0.0
0
LINE
8
LINES
10
772.000000
20
273.000000
30
0.0
11
809.000000
21
273.000000
31
0.0
0
LINE
8
LINES
10
776.000000
20
473.000000
30
0.0
11
812.000000
21
473.000000
31
0.0
0
LINE
8
LINES
10
28.000000
20
315.000000
30
0.0
11
65.000000
21
315.000000
31
0.0
0
LINE
8
LINES
10
238.000000
20
217.000000
30
0.0
11
201.000000
21
217.000000
31
0.0
0
LINE
8
LINES
10
814.000000
20
508.000000
30
0.0
11
814.000000
21
545.000000
31
0.0
0
LINE
8
LINES
10
286.000000
20
126.000000
30
0.0
11
323.000000
21
126.000000
31
0.0
0
LINE
8
LINES
10
361.000000
20
89.000000
30
0.0
11
398.000000
21
89.000000
31
0.0
0
LINE
8
LINES
10
340.000000
20
62.000000
30
0.0
11
377.000000
21
62.000000
31
0.0
0
LINE
8
LINES
10
305.000000
20
57.000000
30
0.0
11
268.000000
21
57.000000
31
0.0
0
LINE
8
LINES
10
328.000000
20
102.000000
30
0.0
11
364.000000
21
102.000000
31
0.0
0
LINE
8
LINES
10
184.000000
20
54.000000
30
0.0
11
220.000000
21
54.000000
31
0.0
0
LINE
8
LINES
10
552.000000
20
177.000000
30
0.0
11
588.000000
21
177.000000
31
0.0
0
LINE
8
LINES
10
211.000000
20
918.000000
30
0.0
11
211.000000
21
953.000000
31
0.0
0
LINE
8
LINES
10
169.000000
20
73.000000
30
0.0
11
204.000000
21
73.000000
31
0.0
0
LINE
8
LINES
10
438.000000
20
104.000000
30
0.0
11
473.000000
21
104.000000
31
0.0
0
LINE
8
LINES
10
233.000000
20
78.000000
30
0.0
11
268.000000
21
78.000000
31
0.0
0
LINE
8
LINES
10
145.000000
20
112.000000
30
0.0
11
180.000000
21
112.000000
31
0.0
0
LINE
8
LINES
10
236.000000
20
51.000000
30
0.0
11
272.000000
21
51.000000
31
0.0
0
LINE
8
LINES
10
262.000000
20
73.000000
30
0.0
11
297.000000
21
73.000000
31
0.0
0
LINE
8
LINES
10
256.000000
20
163.000000
30
0.0
11
220.000000
21
163.000000
31
0.0
0
LINE
8
LINES
10
382.000000
20
19.000000
30
0.0
11
347.000000
21
19.000000
31
0.0
0
LINE
8
LINES
10
350.000000
20
574.000000
30
0.0
11
316.000000
21
574.000000
31
0.0
0
LINE
8
LINES
10
422.000000
20
60.000000
30
0.0
11
387.000000
21
60.000000
31
0.0
0
LINE
8
LINES
10
313.000000
20
180.000000
30
0.0
11
348.000000
21
180.000000
31
0.0
0
LINE
8
LINES
10
112.000000
20
179.000000
30
0.0
11
147.000000
21
179.000000
31
0.0
0
LINE
8
LINES
10
201.000000
20
777.000000
30
0.0
11
166.000000
21
777.000000
31
0.0
0
LINE
8
LINES
10
281.000000
20
380.000000
30
0.0
11
316.000000
21
380.000000
31
0.0
0
LINE
8
LINES
10
353.000000
20
179.000000
30
0.0
11
387.000000
21
179.000000
31
0.0
0
LINE
8
LINES
10
108.000000
20
299.000000
30
0.0
11
73.000000
21
299.000000
31
0.0
0
LINE
8
LINES
10
60.000000
20
211.000000
30
0.0
11
62.000000
21
246.000000
31
0.0
0
LINE
8
LINES
10
633.000000
20
126.000000
30
0.0
11
601.000000
21
126.000000
31
0.0
0
LINE
8
LINES
10
680.000000
20
371.000000
30
0.0
11
680.000000
21
337.000000
31
0.0
0
LINE
8
LINES
10
297.000000
20
75.000000
30
0.0
11
332.000000
21
75.000000
31
0.0
0
LINE
8
LINES
10
275.000000
20
134.000000
30
0.0
11
241.000000
21
134.000000
31
0.0
0
LINE
8
LINES
10
403.000000
20
124.000000
30
0.0
11
371.000000
21
124.000000
31
0.0
0
LINE
8
LINES
10
702.000000
20
129.000000
30
0.0
11
736.000000
21
129.000000
31
0.0
0
LINE
8
LINES
10
60.000000
20
300.000000
30
0.0
11
27.000000
21
300.000000
31
0.0
0
LINE
8
LINES
10
481.000000
20
118.000000
30
0.0
11
515.000000
21
126.000000
31
0.0
0
LINE
8
LINES
10
64.000000
20
284.000000
30
0.0
11
97.000000
21
284.000000
31
0.0
0
LINE
8
LINES
10
94.000000
20
275.000000
30
0.0
11
62.000000
21
275.000000
31
0.0
0
LINE
8
LINES
10
841.000000
20
72.000000
30
0.0
11
809.000000
21
72.000000
31
0.0
0
LINE
8
LINES
10
96.000000
20
270.000000
30
0.0
11
62.000000
21
270.000000
31
0.0
0
LINE
8
LINES
10
228.000000
20
59.000000
30
0.0
11
262.000000
21
59.000000
31
0.0
0
LINE
8
LINES
10
337.000000
20
38.000000
30
0.0
11
369.000000
21
38.000000
31
0.0
0
LINE
8
LINES
10
268.000000
20
33.000000
30
0.0
11
302.000000
21
33.000000
31
0.0
0
LINE
8
LINES
10
777.000000
20
313.000000
30
0.0
11
809.000000
21
313.000000
31
0.0
0
LINE
8
LINES
10
780.000000
20
865.000000
30
0.0
11
812.000000
21
865.000000
31
0.0
0
LINE
8
LINES
10
603.000000
20
177.000000
30
0.0
11
636.000000
21
177.000000
31
0.0
0
LINE
8
LINES
10
142.000000
20
336.000000
30
0.0
11
142.000000
21
302.000000
31
0.0
0
LINE
8
LINES
10
780.000000
20
873.000000
30
0.0
11
812.000000
21
873.000000
31
0.0
0
LINE
8
LINES
10
670.000000
20
384.000000
30
0.0
11
638.000000
21
384.000000
31
0.0
0
LINE
8
LINES
10
270.000000
20
243.000000
30
0.0
11
302.000000
21
243.000000
31
0.0
0
LINE
8
LINES
10
153.000000
20
958.000000
30
0.0
11
184.000000
21
958.000000
31
0.0
0
LINE
8
LINES
10
396.000000
20
56.000000
30
0.0
11
364.000000
21
56.000000
31
0.0
0
LINE
8
LINES
10
203.000000
20
854.000000
30
0.0
11
172.000000
21
854.000000
31
0.0
0
LINE
8
LINES
10
734.000000
20
195.000000
30
0.0
11
702.000000
21
195.000000
31
0.0
0
LINE
8
LINES
10
673.000000
20
553.000000
30
0.0
11
704.000000
21
553.000000
31
0.0
0
LINE
8
LINES
10
732.000000
20
972.000000
30
0.0
11
732.000000
21
1001.000000
31
0.0
0
LINE
8
LINES
10
382.000000
20
118.000000
30
0.0
11
352.000000
21
118.000000
31
0.0
0
LINE
8
LINES
10
174.000000
20
163.000000
30
0.0
11
144.000000
21
163.000000
31
0.0
0
LINE
8
LINES
10
558.000000
20
270.000000
30
0.0
11
529.000000
21
270.000000
31
0.0
0
LINE
8
LINES
10
416.000000
20
179.000000
30
0.0
11
446.000000
21
179.000000
31
0.0
0
LINE
8
LINES
10
486.000000
20
217.000000
30
0.0
11
456.000000
21
217.000000
31
0.0
0
LINE
8
LINES
10
329.000000
20
982.000000
30
0.0
11
299.000000
21
982.000000
31
0.0
0
ENDSEC
0
EOF
