0
SECTION
2
ENTITIES
0
LWPOLYLINE
8
FACADE_OUTLINE
90
4
70
1
10
0.000000
20
0.000000
10
745.000000
20
0.000000
10
745.000000
20
1024.000000
10
0.000000
20
1024.000000
0
LWPOLYLINE
8
WINDOWS
90
4
70
1
10
76.000000
20
9.000000
10
148.000000
20
9.000000
10
148.000000
20
35.000000
10
76.000000
20
35.000000
0
LWPOLYLINE
8
WINDOWS
90
4
70
1
10
177.000000
20
113.000000
10
238.000000
20
113.000000
10
238.000000
20
140.000000
10
177.000000
20
140.000000
0
LWPOLYLINE
8
WINDOWS
90
4
70
1
10
526.000000
20
118.000000
10
588.000000
20
118.000000
10
588.000000
20
144.000000
10
526.000000
20
144.000000
0
LWPOLYLINE
8
WINDOWS
90
4
70
1
10
44.000000
20
377.000000
10
94.000000
20
377.000000
10
94.000000
20
486.000000
10
44.000000
20
486.000000
0
LWPOLYLINE
8
WINDOWS
90
4
70
1
10
305.000000
20
377.000000
10
355.000000
20
377.000000
10
355.000000
20
484.000000
10
305.000000
20
484.000000
0
LWPOLYLINE
8
WINDOWS
90
4
70
1
10
428.000000
20
656.000000
10
488.000000
20
656.000000
10
488.000000
20
700.000000
10
428.000000
20
700.000000
0
LWPOLYLINE
8
WINDOWS
90
4
70
1
10
545.000000
20
659.000000
10
608.000000
20
659.000000
10
608.000000
20
750.000000
10
545.000000
20
750.000000
0
LWPOLYLINE
8
WINDOWS
90
4
70
1
10
604.000000
20
662.000000
10
664.000000
20
662.000000
10
664.000000
20
700.000000
10
604.000000
20
700.000000
0
LWPOLYLINE
8
WINDOWS
90
4
70
1
10
252.000000
20
664.000000
10
313.000000
20
664.000000
10
313.000000
20
702.000000
10
252.000000
20
702.000000
0
LWPOLYLINE
8
WINDOWS
90
4
70
1
10
72.000000
20
665.000000
10
134.000000
20
665.000000
10
134.000000
20
705.000000
10
72.000000
20
705.000000
0
LWPOLYLINE
8
WINDOWS
90
4
70
1
10
545.000000
20
700.000000
10
579.000000
20
700.000000
10
579.000000
20
760.000000
10
545.000000
20
760.000000
0
LWPOLYLINE
8
WINDOWS
90
4
70
1
10
590.000000
20
700.000000
10
739.000000
20
700.000000
10
739.000000
20
780.000000
10
590.000000
20
780.000000
0
LWPOLYLINE
8
WINDOWS
90
4
70
1
10
22.000000
20
787.000000
10
150.000000
20
787.000000
10
150.000000
20
875.000000
10
22.000000
20
875.000000
0
LWPOLYLINE
8
WINDOWS
90
4
70
1
10
236.000000
20
806.000000
10
291.000000
20
806.000000
10
291.000000
20
875.000000
10
236.000000
20
875.000000
0
LWPOLYLINE
8
WINDOWS
90
4
70
1
10
81.000000
20
809.000000
10
131.000000
20
809.000000
10
131.000000
20
881.000000
10
81.000000
20
881.000000
0
LWPOLYLINE
8
WINDOWS
90
4
70
1
10
545.000000
20
812.000000
10
585.000000
20
812.000000
10
585.000000
20
883.000000
10
545.000000
20
883.000000
0
LWPOLYLINE
8
WINDOWS
90
4
70
1
10
376.000000
20
873.000000
10
456.000000
20
873.000000
10
456.000000
20
932.000000
10
376.000000
20
932.000000
0
LWPOLYLINE
8
WINDOWS
90
4
70
1
10
241.000000
20
878.000000
10
305.000000
20
878.000000
10
305.000000
20
905.000000
10
241.000000
20
905.000000
0
LWPOLYLINE
8
WINDOWS
90
4
70
1
10
166.000000
20
920.000000
10
233.000000
20
920.000000
10
233.000000
20
988.000000
10
166.000000
20
988.000000
0
LWPOLYLINE
8
WINDOWS
90
4
70
1
10
364.000000
20
932.000000
10
465.000000
20
932.000000
10
465.000000
20
1020.000000
10
364.000000
20
1020.000000
0
LWPOLYLINE
8
DOORS
90
4
70
1
10
366.000000
20
803.000000
10
390.000000
20
803.000000
10
390.000000
20
876.000000
10
366.000000
20
876.000000
0
LWPOLYLINE
8
DOORS
90
4
70
1
10
315.000000
20
804.000000
10
342.000000
20
804.000000
10
342.000000
20
857.000000
10
315.000000
20
857.000000
0
LWPOLYLINE
8
DOORS
90
4
70
1
10
54.000000
20
811.000000
10
81.000000
20
811.000000
10
81.000000
20
876.000000
10
54.000000
20
876.000000
0
LWPOLYLINE
8
DOORS
90
4
70
1
10
308.000000
20
860.000000
10
355.000000
20
860.000000
10
355.000000
20
942.000000
10
308.000000
20
942.000000
0
LINE
8
LINES
10
739.000000
20
257.000000
30
0.0
11
1.000000
21
257.000000
31
0.0
0
LINE
8
LINES
10
1.000000
20
265.000000
30
0.0
11
732.000000
21
265.000000
31
0.0
0
LINE
8
LINES
10
8.000000
20
160.000000
30
0.0
11
740.000000
21
160.000000
31
0.0
0
LINE
8
LINES
10
166.000000
20
4.000000
30
0.0
11
668.000000
21
4.000000
31
0.0
0
LINE
8
LINES
10
496.000000
20
601.000000
30
0.0
11
1.000000
21
601.000000
31
0.0
0
LINE
8
LINES
10
1.000000
20
608.000000
30
0.0
11
494.000000
21
608.000000
31
0.0
0
LINE
8
LINES
10
483.000000
20
622.000000
30
0.0
11
8.000000
21
622.000000
31
0.0
0
LINE
8
LINES
10
1.000000
20
246.000000
30
0.0
11
438.000000
21
246.000000
31
0.0
0
LINE
8
LINES
10
528.000000
20
769.000000
30
0.0
11
230.000000
21
769.000000
31
0.0
0
LINE
8
LINES
10
232.000000
20
779.000000
30
0.0
11
528.000000
21
779.000000
31
0.0
0
LINE
8
LINES
10
230.000000
20
803.000000
30
0.0
11
526.000000
21
803.000000
31
0.0
0
LINE
8
LINES
10
443.000000
20
249.000000
30
0.0
11
732.000000
21
249.000000
31
0.0
0
LINE
8
LINES
10
737.000000
20
593.000000
30
0.0
11
737.000000
21
305.000000
31
0.0
0
LINE
8
LINES
10
732.000000
20
593.000000
30
0.0
11
732.000000
21
313.000000
31
0.0
0
LINE
8
LINES
10
736.000000
20
313.000000
30
0.0
11
736.000000
21
593.000000
31
0.0
0
LINE
8
LINES
10
444.000000
20
329.000000
30
0.0
11
444.000000
21
595.000000
31
0.0
0
LINE
8
LINES
10
9.000000
20
326.000000
30
0.0
11
9.000000
21
572.000000
31
0.0
0
LINE
8
LINES
10
97.000000
20
326.000000
30
0.0
11
97.000000
21
572.000000
31
0.0
0
LINE
8
LINES
10
273.000000
20
328.000000
30
0.0
11
273.000000
21
571.000000
31
0.0
0
LINE
8
LINES
10
358.000000
20
329.000000
30
0.0
11
358.000000
21
572.000000
31
0.0
0
LINE
8
LINES
10
185.000000
20
328.000000
30
0.0
11
185.000000
21
571.000000
31
0.0
0
LINE
8
LINES
10
614.000000
20
329.000000
30
0.0
11
614.000000
21
569.000000
31
0.0
0
LINE
8
LINES
10
726.000000
20
569.000000
30
0.0
11
726.000000
21
329.000000
31
0.0
0
LINE
8
LINES
10
529.000000
20
329.000000
30
0.0
11
529.000000
21
531.000000
31
0.0
0
LINE
8
LINES
10
1.000000
20
396.000000
30
0.0
11
1.000000
21
596.000000
31
0.0
0
LINE
8
LINES
10
640.000000
20
491.000000
30
0.0
11
640.000000
21
299.000000
31
0.0
0
LINE
8
LINES
10
158.000000
20
8.000000
30
0.0
11
43.000000
21
150.000000
31
0.0
0
LINE
8
LINES
10
174.000000
20
296.000000
30
0.0
11
174.000000
21
478.000000
31
0.0
0
LINE
8
LINES
10
86.000000
20
302.000000
30
0.0
11
86.000000
21
478.000000
31
0.0
0
LINE
8
LINES
10
94.000000
20
209.000000
30
0.0
11
268.000000
21
209.000000
31
0.0
0
LINE
8
LINES
10
216.000000
20
491.000000
30
0.0
11
216.000000
21
318.000000
31
0.0
0
LINE
8
LINES
10
736.000000
20
598.000000
30
0.0
11
566.000000
21
598.000000
31
0.0
0
LINE
8
LINES
10
441.000000
20
212.000000
30
0.0
11
609.000000
21
212.000000
31
0.0
0
LINE
8
LINES
10
284.000000
20
169.000000
30
0.0
11
116.000000
21
169.000000
31
0.0
0
LINE
8
LINES
10
40.000000
20
483.000000
30
0.0
11
40.000000
21
316.000000
31
0.0
0
LINE
8
LINES
10
457.000000
20
171.000000
30
0.0
11
292.000000
21
171.000000
31
0.0
0
LINE
8
LINES
10
302.000000
20
483.000000
30
0.0
11
302.000000
21
318.000000
31
0.0
0
LINE
8
LINES
10
558.000000
20
483.000000
30
0.0
11
558.000000
21
321.000000
31
0.0
0
LINE
8
LINES
10
124.000000
20
326.000000
30
0.0
11
124.000000
21
489.000000
31
0.0
0
LINE
8
LINES
10
473.000000
20
483.000000
30
0.0
11
473.000000
21
323.000000
31
0.0
0
LINE
8
LINES
10
715.000000
20
158.000000
30
0.0
11
652.000000
21
12.000000
31
0.0
0
LINE
8
LINES
10
624.000000
20
171.000000
30
0.0
11
465.000000
21
171.000000
31
0.0
0
LINE
8
LINES
10
387.000000
20
483.000000
30
0.0
11
387.000000
21
326.000000
31
0.0
0
LINE
8
LINES
10
35.000000
20
326.000000
30
0.0
11
35.000000
21
483.000000
31
0.0
0
LINE
8
LINES
10
657.000000
20
11.000000
30
0.0
11
718.000000
21
156.000000
31
0.0
0
LINE
8
LINES
10
296.000000
20
172.000000
30
0.0
11
451.000000
21
172.000000
31
0.0
0
LINE
8
LINES
10
582.000000
20
774.000000
30
0.0
11
737.000000
21
774.000000
31
0.0
0
LINE
8
LINES
10
737.000000
20
766.000000
30
0.0
11
737.000000
21
612.000000
31
0.0
0
LINE
8
LINES
10
128.000000
20
478.000000
30
0.0
11
128.000000
21
329.000000
31
0.0
0
LINE
8
LINES
10
1.000000
20
782.000000
30
0.0
11
148.000000
21
782.000000
31
0.0
0
LINE
8
LINES
10
92.000000
20
476.000000
30
0.0
11
92.000000
21
329.000000
31
0.0
0
LINE
8
LINES
10
211.000000
20
328.000000
30
0.0
11
211.000000
21
476.000000
31
0.0
0
LINE
8
LINES
10
606.000000
20
476.000000
30
0.0
11
606.000000
21
331.000000
31
0.0
0
LINE
8
LINES
10
590.000000
20
604.000000
30
0.0
11
736.000000
21
604.000000
31
0.0
0
LINE
8
LINES
10
299.000000
20
212.000000
30
0.0
11
441.000000
21
212.000000
31
0.0
0
LINE
8
LINES
10
731.000000
20
771.000000
30
0.0
11
593.000000
21
771.000000
31
0.0
0
LINE
8
LINES
10
436.000000
20
467.000000
30
0.0
11
436.000000
21
332.000000
31
0.0
0
LINE
8
LINES
10
729.000000
20
737.000000
30
0.0
11
729.000000
21
609.000000
31
0.0
0
LINE
8
LINES
10
492.000000
20
612.000000
30
0.0
11
364.000000
21
612.000000
31
0.0
0
LINE
8
LINES
10
1.000000
20
443.000000
30
0.0
11
1.000000
21
321.000000
31
0.0
0
LINE
8
LINES
10
6.000000
20
616.000000
30
0.0
11
6.000000
21
736.000000
31
0.0
0
LINE
8
LINES
10
1.000000
20
612.000000
30
0.0
11
1.000000
21
732.000000
31
0.0
0
LINE
8
LINES
10
700.000000
20
622.000000
30
0.0
11
592.000000
21
622.000000
31
0.0
0
LINE
8
LINES
10
545.000000
20
744.000000
30
0.0
11
545.000000
21
851.000000
31
0.0
0
LINE
8
LINES
10
521.000000
20
476.000000
30
0.0
11
521.000000
21
372.000000
31
0.0
0
LINE
8
LINES
10
518.000000
20
374.000000
30
0.0
11
518.000000
21
476.000000
31
0.0
0
LINE
8
LINES
10
12.000000
20
678.000000
30
0.0
11
105.000000
21
641.000000
31
0.0
0
LINE
8
LINES
10
44.000000
20
153.000000
30
0.0
11
108.000000
21
76.000000
31
0.0
0
LINE
8
LINES
10
689.000000
20
612.000000
30
0.0
11
590.000000
21
612.000000
31
0.0
0
LINE
8
LINES
10
140.000000
20
481.000000
30
0.0
11
140.000000
21
385.000000
31
0.0
0
LINE
8
LINES
10
179.000000
20
424.000000
30
0.0
11
179.000000
21
331.000000
31
0.0
0
LINE
8
LINES
10
569.000000
20
478.000000
30
0.0
11
569.000000
21
385.000000
31
0.0
0
LINE
8
LINES
10
649.000000
20
384.000000
30
0.0
11
649.000000
21
476.000000
31
0.0
0
LINE
8
LINES
10
654.000000
20
476.000000
30
0.0
11
654.000000
21
385.000000
31
0.0
0
LINE
8
LINES
10
438.000000
20
873.000000
30
0.0
11
529.000000
21
873.000000
31
0.0
0
LINE
8
LINES
10
348.000000
20
387.000000
30
0.0
11
348.000000
21
478.000000
31
0.0
0
LINE
8
LINES
10
206.000000
20
873.000000
30
0.0
11
196.000000
21
784.000000
31
0.0
0
LINE
8
LINES
10
433.000000
20
387.000000
30
0.0
11
433.000000
21
476.000000
31
0.0
0
LINE
8
LINES
10
3.000000
20
596.000000
30
0.0
11
3.000000
21
507.000000
31
0.0
0
LINE
8
LINES
10
137.000000
20
913.000000
30
0.0
11
48.000000
21
913.000000
31
0.0
0
LINE
8
LINES
10
3.000000
20
510.000000
30
0.0
11
3.000000
21
598.000000
31
0.0
0
LINE
8
LINES
10
433.000000
20
296.000000
30
0.0
11
433.000000
21
382.000000
31
0.0
0
LINE
8
LINES
10
220.000000
20
382.000000
30
0.0
11
220.000000
21
470.000000
31
0.0
0
LINE
8
LINES
10
729.000000
20
329.000000
30
0.0
11
729.000000
21
417.000000
31
0.0
0
LINE
8
LINES
10
584.000000
20
883.000000
30
0.0
11
670.000000
21
897.000000
31
0.0
0
LINE
8
LINES
10
134.000000
20
382.000000
30
0.0
11
134.000000
21
468.000000
31
0.0
0
LINE
8
LINES
10
195.000000
20
675.000000
30
0.0
11
273.000000
21
643.000000
31
0.0
0
LINE
8
LINES
10
307.000000
20
382.000000
30
0.0
11
307.000000
21
467.000000
31
0.0
0
LINE
8
LINES
10
35.000000
20
486.000000
30
0.0
11
35.000000
21
572.000000
31
0.0
0
LINE
8
LINES
10
132.000000
20
616.000000
30
0.0
11
48.000000
21
616.000000
31
0.0
0
LINE
8
LINES
10
369.000000
20
675.000000
30
0.0
11
448.000000
21
643.000000
31
0.0
0
LINE
8
LINES
10
52.000000
20
481.000000
30
0.0
11
52.000000
21
398.000000
31
0.0
0
LINE
8
LINES
10
51.000000
20
880.000000
30
0.0
11
134.000000
21
880.000000
31
0.0
0
LINE
8
LINES
10
580.000000
20
873.000000
30
0.0
11
664.000000
21
873.000000
31
0.0
0
LINE
8
LINES
10
603.000000
20
297.000000
30
0.0
11
603.000000
21
382.000000
31
0.0
0
LINE
8
LINES
10
393.000000
20
382.000000
30
0.0
11
393.000000
21
467.000000
31
0.0
0
LINE
8
LINES
10
44.000000
20
382.000000
30
0.0
11
44.000000
21
467.000000
31
0.0
0
LINE
8
LINES
10
563.000000
20
384.000000
30
0.0
11
563.000000
21
467.000000
31
0.0
0
LINE
8
LINES
10
108.000000
20
76.000000
30
0.0
11
160.000000
21
9.000000
31
0.0
0
LINE
8
LINES
10
548.000000
20
673.000000
30
0.0
11
625.000000
21
641.000000
31
0.0
0
LINE
8
LINES
10
398.000000
20
481.000000
30
0.0
11
398.000000
21
398.000000
31
0.0
0
LINE
8
LINES
10
153.000000
20
817.000000
30
0.0
11
153.000000
21
899.000000
31
0.0
0
LINE
8
LINES
10
478.000000
20
384.000000
30
0.0
11
478.000000
21
467.000000
31
0.0
0
LINE
8
LINES
10
313.000000
20
481.000000
30
0.0
11
313.000000
21
398.000000
31
0.0
0
LINE
8
LINES
10
148.000000
20
774.000000
30
0.0
11
67.000000
21
774.000000
31
0.0
0
LINE
8
LINES
10
614.000000
20
211.000000
30
0.0
11
696.000000
21
211.000000
31
0.0
0
LINE
8
LINES
10
433.000000
20
158.000000
30
0.0
11
353.000000
21
158.000000
31
0.0
0
LINE
8
LINES
10
672.000000
20
899.000000
30
0.0
11
672.000000
21
819.000000
31
0.0
0
LINE
8
LINES
10
483.000000
20
478.000000
30
0.0
11
483.000000
21
398.000000
31
0.0
0
LINE
8
LINES
10
545.000000
20
628.000000
30
0.0
11
545.000000
21
707.000000
31
0.0
0
LINE
8
LINES
10
713.000000
20
171.000000
30
0.0
11
633.000000
21
171.000000
31
0.0
0
LINE
8
LINES
10
347.000000
20
304.000000
30
0.0
11
347.000000
21
382.000000
31
0.0
0
LINE
8
LINES
10
108.000000
20
166.000000
30
0.0
11
28.000000
21
166.000000
31
0.0
0
LINE
8
LINES
10
262.000000
20
398.000000
30
0.0
11
262.000000
21
478.000000
31
0.0
0
LINE
8
LINES
10
664.000000
20
867.000000
30
0.0
11
585.000000
21
867.000000
31
0.0
0
LINE
8
LINES
10
140.000000
20
371.000000
30
0.0
11
140.000000
21
294.000000
31
0.0
0
LINE
8
LINES
10
544.000000
20
817.000000
30
0.0
11
544.000000
21
739.000000
31
0.0
0
LINE
8
LINES
10
212.000000
20
494.000000
30
0.0
11
212.000000
21
572.000000
31
0.0
0
LINE
8
LINES
10
584.000000
20
870.000000
30
0.0
11
584.000000
21
793.000000
31
0.0
0
LINE
8
LINES
10
483.000000
20
596.000000
30
0.0
11
483.000000
21
521.000000
31
0.0
0
LINE
8
LINES
10
140.000000
20
598.000000
30
0.0
11
140.000000
21
521.000000
31
0.0
0
LINE
8
LINES
10
376.000000
20
897.000000
30
0.0
11
451.000000
21
897.000000
31
0.0
0
LINE
8
LINES
10
734.000000
20
614.000000
30
0.0
11
734.000000
21
691.000000
31
0.0
0
LINE
8
LINES
10
204.000000
20
172.000000
30
0.0
11
281.000000
21
172.000000
31
0.0
0
LINE
8
LINES
10
652.000000
20
596.000000
30
0.0
11
652.000000
21
521.000000
31
0.0
0
LINE
8
LINES
10
569.000000
20
372.000000
30
0.0
11
569.000000
21
297.000000
31
0.0
0
LINE
8
LINES
10
398.000000
20
372.000000
30
0.0
11
398.000000
21
297.000000
31
0.0
0
LINE
8
LINES
10
227.000000
20
371.000000
30
0.0
11
227.000000
21
297.000000
31
0.0
0
LINE
8
LINES
10
483.000000
20
372.000000
30
0.0
11
483.000000
21
297.000000
31
0.0
0
LINE
8
LINES
10
51.000000
20
598.000000
30
0.0
11
51.000000
21
524.000000
31
0.0
0
LINE
8
LINES
10
227.000000
20
598.000000
30
0.0
11
227.000000
21
524.000000
31
0.0
0
LINE
8
LINES
10
689.000000
20
403.000000
30
0.0
11
689.000000
21
476.000000
31
0.0
0
LINE
8
LINES
10
398.000000
20
595.000000
30
0.0
11
398.000000
21
521.000000
31
0.0
0
LINE
8
LINES
10
313.000000
20
371.000000
30
0.0
11
313.000000
21
297.000000
31
0.0
0
LINE
8
LINES
10
44.000000
20
524.000000
30
0.0
11
44.000000
21
598.000000
31
0.0
0
LINE
8
LINES
10
132.000000
20
523.000000
30
0.0
11
132.000000
21
596.000000
31
0.0
0
LINE
8
LINES
10
392.000000
20
521.000000
30
0.0
11
392.000000
21
595.000000
31
0.0
0
LINE
8
LINES
10
518.000000
20
297.000000
30
0.0
11
518.000000
21
371.000000
31
0.0
0
LINE
8
LINES
10
307.000000
20
521.000000
30
0.0
11
307.000000
21
595.000000
31
0.0
0
LINE
8
LINES
10
531.000000
20
870.000000
30
0.0
11
457.000000
21
870.000000
31
0.0
0
LINE
8
LINES
10
646.000000
20
521.000000
30
0.0
11
646.000000
21
593.000000
31
0.0
0
LINE
8
LINES
10
476.000000
20
521.000000
30
0.0
11
476.000000
21
593.000000
31
0.0
0
LINE
8
LINES
10
689.000000
20
523.000000
30
0.0
11
689.000000
21
595.000000
31
0.0
0
LINE
8
LINES
10
51.000000
20
368.000000
30
0.0
11
51.000000
21
297.000000
31
0.0
0
LINE
8
LINES
10
313.000000
20
596.000000
30
0.0
11
313.000000
21
526.000000
31
0.0
0
LINE
8
LINES
10
542.000000
20
700.000000
30
0.0
11
542.000000
21
628.000000
31
0.0
0
LINE
8
LINES
10
41.000000
20
598.000000
30
0.0
11
41.000000
21
526.000000
31
0.0
0
LINE
8
LINES
10
129.000000
20
596.000000
30
0.0
11
129.000000
21
526.000000
31
0.0
0
LINE
8
LINES
10
220.000000
20
524.000000
30
0.0
11
220.000000
21
595.000000
31
0.0
0
LINE
8
LINES
10
603.000000
20
406.000000
30
0.0
11
603.000000
21
476.000000
31
0.0
0
LINE
8
LINES
10
304.000000
20
595.000000
30
0.0
11
304.000000
21
524.000000
31
0.0
0
LINE
8
LINES
10
48.000000
20
596.000000
30
0.0
11
48.000000
21
526.000000
31
0.0
0
LINE
8
LINES
10
462.000000
20
960.000000
30
0.0
11
532.000000
21
960.000000
31
0.0
0
LINE
8
LINES
10
643.000000
20
593.000000
30
0.0
11
643.000000
21
524.000000
31
0.0
0
LINE
8
LINES
10
473.000000
20
593.000000
30
0.0
11
473.000000
21
524.000000
31
0.0
0
LINE
8
LINES
10
217.000000
20
595.000000
30
0.0
11
217.000000
21
526.000000
31
0.0
0
LINE
8
LINES
10
604.000000
20
524.000000
30
0.0
11
604.000000
21
593.000000
31
0.0
0
LINE
8
LINES
10
608.000000
20
593.000000
30
0.0
11
608.000000
21
523.000000
31
0.0
0
LINE
8
LINES
10
238.000000
20
873.000000
30
0.0
11
307.000000
21
873.000000
31
0.0
0
LINE
8
LINES
10
433.000000
20
523.000000
30
0.0
11
433.000000
21
592.000000
31
0.0
0
LINE
8
LINES
10
265.000000
20
396.000000
30
0.0
11
265.000000
21
326.000000
31
0.0
0
LINE
8
LINES
10
508.000000
20
801.000000
30
0.0
11
438.000000
21
801.000000
31
0.0
0
LINE
8
LINES
10
555.000000
20
396.000000
30
0.0
11
555.000000
21
465.000000
31
0.0
0
LINE
8
LINES
10
51.000000
20
806.000000
30
0.0
11
121.000000
21
806.000000
31
0.0
0
LINE
8
LINES
10
80.000000
20
25.000000
30
0.0
11
147.000000
21
16.000000
31
0.0
0
LINE
8
LINES
10
332.000000
20
742.000000
30
0.0
11
401.000000
21
734.000000
31
0.0
0
LINE
8
LINES
10
676.000000
20
41.000000
30
0.0
11
702.000000
21
105.000000
31
0.0
0
LINE
8
LINES
10
49.000000
20
921.000000
30
0.0
11
116.000000
21
921.000000
31
0.0
0
LINE
8
LINES
10
689.000000
20
803.000000
30
0.0
11
689.000000
21
870.000000
31
0.0
0
LINE
8
LINES
10
556.000000
20
174.000000
30
0.0
11
624.000000
21
174.000000
31
0.0
0
LINE
8
LINES
10
148.000000
20
876.000000
30
0.0
11
148.000000
21
811.000000
31
0.0
0
LINE
8
LINES
10
243.000000
20
140.000000
30
0.0
11
177.000000
21
140.000000
31
0.0
0
LINE
8
LINES
10
83.000000
20
811.000000
30
0.0
11
83.000000
21
876.000000
31
0.0
0
LINE
8
LINES
10
177.000000
20
142.000000
30
0.0
11
243.000000
21
142.000000
31
0.0
0
LINE
8
LINES
10
737.000000
20
238.000000
30
0.0
11
737.000000
21
172.000000
31
0.0
0
LINE
8
LINES
10
385.000000
20
494.000000
30
0.0
11
385.000000
21
561.000000
31
0.0
0
LINE
8
LINES
10
732.000000
20
681.000000
30
0.0
11
732.000000
21
614.000000
31
0.0
0
LINE
8
LINES
10
238.000000
20
808.000000
30
0.0
11
238.000000
21
873.000000
31
0.0
0
LINE
8
LINES
10
156.000000
20
878.000000
30
0.0
11
156.000000
21
814.000000
31
0.0
0
LINE
8
LINES
10
678.000000
20
144.000000
30
0.0
11
614.000000
21
144.000000
31
0.0
0
LINE
8
LINES
10
88.000000
20
142.000000
30
0.0
11
153.000000
21
142.000000
31
0.0
0
LINE
8
LINES
10
723.000000
20
156.000000
30
0.0
11
697.000000
21
97.000000
31
0.0
0
LINE
8
LINES
10
156.000000
20
780.000000
30
0.0
11
219.000000
21
780.000000
31
0.0
0
LINE
8
LINES
10
739.000000
20
40.000000
30
0.0
11
675.000000
21
40.000000
31
0.0
0
LINE
8
LINES
10
624.000000
20
798.000000
30
0.0
11
688.000000
21
798.000000
31
0.0
0
LINE
8
LINES
10
128.000000
20
873.000000
30
0.0
11
128.000000
21
811.000000
31
0.0
0
LINE
8
LINES
10
289.000000
20
868.000000
30
0.0
11
289.000000
21
806.000000
31
0.0
0
LINE
8
LINES
10
588.000000
20
144.000000
30
0.0
11
526.000000
21
144.000000
31
0.0
0
LINE
8
LINES
10
265.000000
20
478.000000
30
0.0
11
265.000000
21
414.000000
31
0.0
0
LINE
8
LINES
10
300.000000
20
912.000000
30
0.0
11
238.000000
21
912.000000
31
0.0
0
LINE
8
LINES
10
740.000000
20
193.000000
30
0.0
11
740.000000
21
256.000000
31
0.0
0
LINE
8
LINES
10
550.000000
20
830.000000
30
0.0
11
550.000000
21
768.000000
31
0.0
0
LINE
8
LINES
10
59.000000
20
1.000000
30
0.0
11
59.000000
21
62.000000
31
0.0
0
LINE
8
LINES
10
292.000000
20
806.000000
30
0.0
11
292.000000
21
867.000000
31
0.0
0
LINE
8
LINES
10
689.000000
20
307.000000
30
0.0
11
689.000000
21
369.000000
31
0.0
0
LINE
8
LINES
10
260.000000
20
308.000000
30
0.0
11
260.000000
21
371.000000
31
0.0
0
LINE
8
LINES
10
729.000000
20
420.000000
30
0.0
11
729.000000
21
481.000000
31
0.0
0
LINE
8
LINES
10
342.000000
20
609.000000
30
0.0
11
281.000000
21
609.000000
31
0.0
0
LINE
8
LINES
10
134.000000
20
812.000000
30
0.0
11
134.000000
21
872.000000
31
0.0
0
LINE
8
LINES
10
227.000000
20
452.000000
30
0.0
11
227.000000
21
393.000000
31
0.0
0
LINE
8
LINES
10
78.000000
20
873.000000
30
0.0
11
78.000000
21
812.000000
31
0.0
0
LINE
8
LINES
10
526.000000
20
147.000000
30
0.0
11
585.000000
21
147.000000
31
0.0
0
LINE
8
LINES
10
452.000000
20
865.000000
30
0.0
11
452.000000
21
806.000000
31
0.0
0
LINE
8
LINES
10
308.000000
20
593.000000
30
0.0
11
308.000000
21
534.000000
31
0.0
0
LINE
8
LINES
10
211.000000
20
811.000000
30
0.0
11
211.000000
21
868.000000
31
0.0
0
LINE
8
LINES
10
54.000000
20
814.000000
30
0.0
11
54.000000
21
873.000000
31
0.0
0
LINE
8
LINES
10
307.000000
20
867.000000
30
0.0
11
307.000000
21
809.000000
31
0.0
0
LINE
8
LINES
10
563.000000
20
536.000000
30
0.0
11
563.000000
21
593.000000
31
0.0
0
LINE
8
LINES
10
513.000000
20
806.000000
30
0.0
11
513.000000
21
865.000000
31
0.0
0
LINE
8
LINES
10
558.000000
20
593.000000
30
0.0
11
558.000000
21
536.000000
31
0.0
0
LINE
8
LINES
10
73.000000
20
304.000000
30
0.0
11
73.000000
21
363.000000
31
0.0
0
LINE
8
LINES
10
70.000000
20
1.000000
30
0.0
11
70.000000
21
59.000000
31
0.0
0
LINE
8
LINES
10
182.000000
20
240.000000
30
0.0
11
241.000000
21
240.000000
31
0.0
0
LINE
8
LINES
10
428.000000
20
696.000000
30
0.0
11
486.000000
21
696.000000
31
0.0
0
LINE
8
LINES
10
699.000000
20
209.000000
30
0.0
11
641.000000
21
209.000000
31
0.0
0
LINE
8
LINES
10
169.000000
20
923.000000
30
0.0
11
169.000000
21
980.000000
31
0.0
0
LINE
8
LINES
10
92.000000
20
816.000000
30
0.0
11
92.000000
21
873.000000
31
0.0
0
LINE
8
LINES
10
134.000000
20
35.000000
30
0.0
11
76.000000
21
35.000000
31
0.0
0
LINE
8
LINES
10
35.000000
20
209.000000
30
0.0
11
92.000000
21
209.000000
31
0.0
0
LINE
8
LINES
10
729.000000
20
483.000000
30
0.0
11
729.000000
21
542.000000
31
0.0
0
LINE
8
LINES
10
75.000000
20
763.000000
30
0.0
11
75.000000
21
707.000000
31
0.0
0
LINE
8
LINES
10
606.000000
20
713.000000
30
0.0
11
662.000000
21
713.000000
31
0.0
0
LINE
8
LINES
10
531.000000
20
960.000000
30
0.0
11
476.000000
21
960.000000
31
0.0
0
LINE
8
LINES
10
692.000000
20
577.000000
30
0.0
11
692.000000
21
521.000000
31
0.0
0
LINE
8
LINES
10
224.000000
20
614.000000
30
0.0
11
168.000000
21
614.000000
31
0.0
0
LINE
8
LINES
10
662.000000
20
806.000000
30
0.0
11
662.000000
21
862.000000
31
0.0
0
LINE
8
LINES
10
392.000000
20
947.000000
30
0.0
11
337.000000
21
956.000000
31
0.0
0
LINE
8
LINES
10
30.000000
20
104.000000
30
0.0
11
9.000000
21
153.000000
31
0.0
0
LINE
8
LINES
10
318.000000
20
686.000000
30
0.0
11
313.000000
21
740.000000
31
0.0
0
LINE
8
LINES
10
121.000000
20
936.000000
30
0.0
11
67.000000
21
936.000000
31
0.0
0
LINE
8
LINES
10
344.000000
20
715.000000
30
0.0
11
390.000000
21
689.000000
31
0.0
0
LINE
8
LINES
10
742.000000
20
105.000000
30
0.0
11
737.000000
21
158.000000
31
0.0
0
LINE
8
LINES
10
432.000000
20
750.000000
30
0.0
11
432.000000
21
699.000000
31
0.0
0
LINE
8
LINES
10
49.000000
20
878.000000
30
0.0
11
49.000000
21
827.000000
31
0.0
0
LINE
8
LINES
10
568.000000
20
593.000000
30
0.0
11
568.000000
21
542.000000
31
0.0
0
LINE
8
LINES
10
606.000000
20
753.000000
30
0.0
11
606.000000
21
702.000000
31
0.0
0
LINE
8
LINES
10
161.000000
20
305.000000
30
0.0
11
161.000000
21
356.000000
31
0.0
0
LINE
8
LINES
10
548.000000
20
12.000000
30
0.0
11
497.000000
21
12.000000
31
0.0
0
LINE
8
LINES
10
124.000000
20
289.000000
30
0.0
11
176.000000
21
289.000000
31
0.0
0
LINE
8
LINES
10
681.000000
20
57.000000
30
0.0
11
662.000000
21
9.000000
31
0.0
0
LINE
8
LINES
10
73.000000
20
702.000000
30
0.0
11
124.000000
21
702.000000
31
0.0
0
LINE
8
LINES
10
174.000000
20
596.000000
30
0.0
11
179.000000
21
547.000000
31
0.0
0
LINE
8
LINES
10
256.000000
20
870.000000
30
0.0
11
256.000000
21
820.000000
31
0.0
0
LINE
8
LINES
10
387.000000
20
574.000000
30
0.0
11
387.000000
21
524.000000
31
0.0
0
LINE
8
LINES
10
438.000000
20
806.000000
30
0.0
11
438.000000
21
856.000000
31
0.0
0
LINE
8
LINES
10
209.000000
20
291.000000
30
0.0
11
259.000000
21
291.000000
31
0.0
0
LINE
8
LINES
10
470.000000
20
329.000000
30
0.0
11
470.000000
21
379.000000
31
0.0
0
LINE
8
LINES
10
350.000000
20
438.000000
30
0.0
11
350.000000
21
387.000000
31
0.0
0
LINE
8
LINES
10
276.000000
20
614.000000
30
0.0
11
227.000000
21
614.000000
31
0.0
0
LINE
8
LINES
10
433.000000
20
851.000000
30
0.0
11
433.000000
21
803.000000
31
0.0
0
LINE
8
LINES
10
120.000000
20
921.000000
30
0.0
11
168.000000
21
913.000000
31
0.0
0
LINE
8
LINES
10
161.000000
20
547.000000
30
0.0
11
161.000000
21
596.000000
31
0.0
0
LINE
8
LINES
10
638.000000
20
883.000000
30
0.0
11
588.000000
21
883.000000
31
0.0
0
LINE
8
LINES
10
307.000000
20
326.000000
30
0.0
11
307.000000
21
374.000000
31
0.0
0
LINE
8
LINES
10
54.000000
20
548.000000
30
0.0
11
54.000000
21
598.000000
31
0.0
0
LINE
8
LINES
10
1.000000
20
736.000000
30
0.0
11
1.000000
21
686.000000
31
0.0
0
LINE
8
LINES
10
582.000000
20
801.000000
30
0.0
11
630.000000
21
801.000000
31
0.0
0
LINE
8
LINES
10
172.000000
20
982.000000
30
0.0
11
172.000000
21
934.000000
31
0.0
0
LINE
8
LINES
10
70.000000
20
596.000000
30
0.0
11
70.000000
21
548.000000
31
0.0
0
LINE
8
LINES
10
73.000000
20
548.000000
30
0.0
11
73.000000
21
596.000000
31
0.0
0
LINE
8
LINES
10
156.000000
20
596.000000
30
0.0
11
156.000000
21
548.000000
31
0.0
0
LINE
8
LINES
10
332.000000
20
547.000000
30
0.0
11
332.000000
21
595.000000
31
0.0
0
LINE
8
LINES
10
700.000000
20
97.000000
30
0.0
11
742.000000
21
75.000000
31
0.0
0
LINE
8
LINES
10
417.000000
20
547.000000
30
0.0
11
417.000000
21
593.000000
31
0.0
0
LINE
8
LINES
10
257.000000
20
928.000000
30
0.0
11
304.000000
21
928.000000
31
0.0
0
LINE
8
LINES
10
636.000000
20
803.000000
30
0.0
11
683.000000
21
803.000000
31
0.0
0
LINE
8
LINES
10
569.000000
20
291.000000
30
0.0
11
617.000000
21
291.000000
31
0.0
0
LINE
8
LINES
10
41.000000
20
288.000000
30
0.0
11
88.000000
21
288.000000
31
0.0
0
LINE
8
LINES
10
414.000000
20
593.000000
30
0.0
11
414.000000
21
547.000000
31
0.0
0
LINE
8
LINES
10
457.000000
20
803.000000
30
0.0
11
457.000000
21
851.000000
31
0.0
0
LINE
8
LINES
10
430.000000
20
470.000000
30
0.0
11
430.000000
21
424.000000
31
0.0
0
LINE
8
LINES
10
49.000000
20
547.000000
30
0.0
11
49.000000
21
593.000000
31
0.0
0
LINE
8
LINES
10
390.000000
20
483.000000
30
0.0
11
435.000000
21
483.000000
31
0.0
0
LINE
8
LINES
10
44.000000
20
483.000000
30
0.0
11
89.000000
21
483.000000
31
0.0
0
LINE
8
LINES
10
398.000000
20
851.000000
30
0.0
11
398.000000
21
806.000000
31
0.0
0
LINE
8
LINES
10
673.000000
20
20.000000
30
0.0
11
718.000000
21
20.000000
31
0.0
0
LINE
8
LINES
10
600.000000
20
468.000000
30
0.0
11
600.000000
21
424.000000
31
0.0
0
LINE
8
LINES
10
496.000000
20
924.000000
30
0.0
11
465.000000
21
955.000000
31
0.0
0
LINE
8
LINES
10
198.000000
20
896.000000
30
0.0
11
153.000000
21
896.000000
31
0.0
0
LINE
8
LINES
10
449.000000
20
948.000000
30
0.0
11
406.000000
21
948.000000
31
0.0
0
LINE
8
LINES
10
224.000000
20
452.000000
30
0.0
11
224.000000
21
409.000000
31
0.0
0
LINE
8
LINES
10
267.000000
20
697.000000
30
0.0
11
308.000000
21
697.000000
31
0.0
0
LINE
8
LINES
10
134.000000
20
483.000000
30
0.0
11
177.000000
21
483.000000
31
0.0
0
LINE
8
LINES
10
222.000000
20
483.000000
30
0.0
11
264.000000
21
483.000000
31
0.0
0
LINE
8
LINES
10
348.000000
20
806.000000
30
0.0
11
348.000000
21
848.000000
31
0.0
0
LINE
8
LINES
10
392.000000
20
806.000000
30
0.0
11
392.000000
21
848.000000
31
0.0
0
LINE
8
LINES
10
387.000000
20
846.000000
30
0.0
11
387.000000
21
803.000000
31
0.0
0
LINE
8
LINES
10
476.000000
20
483.000000
30
0.0
11
518.000000
21
483.000000
31
0.0
0
LINE
8
LINES
10
182.000000
20
598.000000
30
0.0
11
225.000000
21
598.000000
31
0.0
0
LINE
8
LINES
10
150.000000
20
753.000000
30
0.0
11
150.000000
21
796.000000
31
0.0
0
LINE
8
LINES
10
563.000000
20
326.000000
30
0.0
11
563.000000
21
368.000000
31
0.0
0
LINE
8
LINES
10
649.000000
20
321.000000
30
0.0
11
649.000000
21
363.000000
31
0.0
0
LINE
8
LINES
10
697.000000
20
718.000000
30
0.0
11
697.000000
21
676.000000
31
0.0
0
LINE
8
LINES
10
302.000000
20
158.000000
30
0.0
11
260.000000
21
158.000000
31
0.0
0
LINE
8
LINES
10
3.000000
20
464.000000
30
0.0
11
3.000000
21
507.000000
31
0.0
0
LINE
8
LINES
10
561.000000
20
483.000000
30
0.0
11
604.000000
21
483.000000
31
0.0
0
LINE
8
LINES
10
169.000000
20
486.000000
30
0.0
11
129.000000
21
496.000000
31
0.0
0
LINE
8
LINES
10
83.000000
20
486.000000
30
0.0
11
41.000000
21
494.000000
31
0.0
0
LINE
8
LINES
10
433.000000
20
676.000000
30
0.0
11
422.000000
21
718.000000
31
0.0
0
LINE
8
LINES
10
257.000000
20
486.000000
30
0.0
11
217.000000
21
494.000000
31
0.0
0
LINE
8
LINES
10
254.000000
20
956.000000
30
0.0
11
254.000000
21
913.000000
31
0.0
0
LINE
8
LINES
10
323.000000
20
702.000000
30
0.0
11
323.000000
21
742.000000
31
0.0
0
LINE
8
LINES
10
256.000000
20
748.000000
30
0.0
11
256.000000
21
707.000000
31
0.0
0
LINE
8
LINES
10
76.000000
20
51.000000
30
0.0
11
76.000000
21
11.000000
31
0.0
0
LINE
8
LINES
10
233.000000
20
851.000000
30
0.0
11
233.000000
21
809.000000
31
0.0
0
LINE
8
LINES
10
1.000000
20
945.000000
30
0.0
11
41.000000
21
945.000000
31
0.0
0
LINE
8
LINES
10
196.000000
20
776.000000
30
0.0
11
156.000000
21
776.000000
31
0.0
0
LINE
8
LINES
10
316.000000
20
556.000000
30
0.0
11
316.000000
21
596.000000
31
0.0
0
LINE
8
LINES
10
41.000000
20
777.000000
30
0.0
11
1.000000
21
777.000000
31
0.0
0
LINE
8
LINES
10
260.000000
20
828.000000
30
0.0
11
260.000000
21
868.000000
31
0.0
0
LINE
8
LINES
10
384.000000
20
398.000000
30
0.0
11
384.000000
21
441.000000
31
0.0
0
LINE
8
LINES
10
297.000000
20
329.000000
30
0.0
11
297.000000
21
371.000000
31
0.0
0
LINE
8
LINES
10
304.000000
20
291.000000
30
0.0
11
345.000000
21
291.000000
31
0.0
0
LINE
8
LINES
10
428.000000
20
486.000000
30
0.0
11
388.000000
21
494.000000
31
0.0
0
LINE
8
LINES
10
305.000000
20
483.000000
30
0.0
11
345.000000
21
483.000000
31
0.0
0
LINE
8
LINES
10
598.000000
20
484.000000
30
0.0
11
558.000000
21
494.000000
31
0.0
0
LINE
8
LINES
10
348.000000
20
523.000000
30
0.0
11
348.000000
21
563.000000
31
0.0
0
LINE
8
LINES
10
384.000000
20
329.000000
30
0.0
11
384.000000
21
369.000000
31
0.0
0
LINE
8
LINES
10
297.000000
20
924.000000
30
0.0
11
257.000000
21
924.000000
31
0.0
0
LINE
8
LINES
10
124.000000
20
532.000000
30
0.0
11
124.000000
21
572.000000
31
0.0
0
LINE
8
LINES
10
299.000000
20
492.000000
30
0.0
11
299.000000
21
531.000000
31
0.0
0
LINE
8
LINES
10
68.000000
20
940.000000
30
0.0
11
108.000000
21
940.000000
31
0.0
0
LINE
8
LINES
10
396.000000
20
291.000000
30
0.0
11
435.000000
21
291.000000
31
0.0
0
LINE
8
LINES
10
598.000000
20
180.000000
30
0.0
11
558.000000
21
180.000000
31
0.0
0
LINE
8
LINES
10
192.000000
20
988.000000
30
0.0
11
220.000000
21
960.000000
31
0.0
0
LINE
8
LINES
10
44.000000
20
830.000000
30
0.0
11
6.000000
21
835.000000
31
0.0
0
LINE
8
LINES
10
620.000000
20
696.000000
30
0.0
11
659.000000
21
696.000000
31
0.0
0
LINE
8
LINES
10
368.000000
20
806.000000
30
0.0
11
368.000000
21
846.000000
31
0.0
0
LINE
8
LINES
10
62.000000
20
969.000000
30
0.0
11
62.000000
21
1008.000000
31
0.0
0
LINE
8
LINES
10
360.000000
20
806.000000
30
0.0
11
360.000000
21
844.000000
31
0.0
0
LINE
8
LINES
10
302.000000
20
702.000000
30
0.0
11
302.000000
21
742.000000
31
0.0
0
LINE
8
LINES
10
220.000000
20
323.000000
30
0.0
11
220.000000
21
363.000000
31
0.0
0
LINE
8
LINES
10
252.000000
20
830.000000
30
0.0
11
252.000000
21
868.000000
31
0.0
0
LINE
8
LINES
10
478.000000
20
326.000000
30
0.0
11
478.000000
21
364.000000
31
0.0
0
LINE
8
LINES
10
132.000000
20
323.000000
30
0.0
11
132.000000
21
363.000000
31
0.0
0
LINE
8
LINES
10
273.000000
20
987.000000
30
0.0
11
273.000000
21
947.000000
31
0.0
0
LINE
8
LINES
10
334.000000
20
304.000000
30
0.0
11
334.000000
21
342.000000
31
0.0
0
LINE
8
LINES
10
702.000000
20
107.000000
30
0.0
11
742.000000
21
107.000000
31
0.0
0
LINE
8
LINES
10
739.000000
20
819.000000
30
0.0
11
739.000000
21
780.000000
31
0.0
0
LINE
8
LINES
10
734.000000
20
764.000000
30
0.0
11
734.000000
21
726.000000
31
0.0
0
LINE
8
LINES
10
249.000000
20
424.000000
30
0.0
11
249.000000
21
462.000000
31
0.0
0
LINE
8
LINES
10
73.000000
20
422.000000
30
0.0
11
73.000000
21
462.000000
31
0.0
0
LINE
8
LINES
10
48.000000
20
422.000000
30
0.0
11
48.000000
21
384.000000
31
0.0
0
LINE
8
LINES
10
358.000000
20
241.000000
30
0.0
11
396.000000
21
241.000000
31
0.0
0
LINE
8
LINES
10
430.000000
20
873.000000
30
0.0
11
398.000000
21
852.000000
31
0.0
0
LINE
8
LINES
10
729.000000
20
768.000000
30
0.0
11
729.000000
21
729.000000
31
0.0
0
LINE
8
LINES
10
648.000000
20
483.000000
30
0.0
11
686.000000
21
483.000000
31
0.0
0
LINE
8
LINES
10
446.000000
20
740.000000
30
0.0
11
446.000000
21
702.000000
31
0.0
0
LINE
8
LINES
10
476.000000
20
702.000000
30
0.0
11
476.000000
21
740.000000
31
0.0
0
LINE
8
LINES
10
156.000000
20
772.000000
30
0.0
11
193.000000
21
772.000000
31
0.0
0
LINE
8
LINES
10
41.000000
20
899.000000
30
0.0
11
3.000000
21
899.000000
31
0.0
0
LINE
8
LINES
10
41.000000
20
881.000000
30
0.0
11
3.000000
21
881.000000
31
0.0
0
LINE
8
LINES
10
43.000000
20
844.000000
30
0.0
11
6.000000
21
844.000000
31
0.0
0
LINE
8
LINES
10
401.000000
20
547.000000
30
0.0
11
401.000000
21
585.000000
31
0.0
0
LINE
8
LINES
10
313.000000
20
9.000000
30
0.0
11
276.000000
21
9.000000
31
0.0
0
LINE
8
LINES
10
505.000000
20
305.000000
30
0.0
11
505.000000
21
342.000000
31
0.0
0
LINE
8
LINES
10
124.000000
20
492.000000
30
0.0
11
124.000000
21
531.000000
31
0.0
0
LINE
8
LINES
10
334.000000
20
424.000000
30
0.0
11
334.000000
21
462.000000
31
0.0
0
LINE
8
LINES
10
468.000000
20
416.000000
30
0.0
11
468.000000
21
452.000000
31
0.0
0
LINE
8
LINES
10
694.000000
20
441.000000
30
0.0
11
694.000000
21
478.000000
31
0.0
0
LINE
8
LINES
10
585.000000
20
798.000000
30
0.0
11
622.000000
21
798.000000
31
0.0
0
LINE
8
LINES
10
488.000000
20
304.000000
30
0.0
11
488.000000
21
342.000000
31
0.0
0
LINE
8
LINES
10
70.000000
20
60.000000
30
0.0
11
99.000000
21
36.000000
31
0.0
0
LINE
8
LINES
10
441.000000
20
1011.000000
30
0.0
11
441.000000
21
976.000000
31
0.0
0
LINE
8
LINES
10
113.000000
20
873.000000
30
0.0
11
113.000000
21
836.000000
31
0.0
0
LINE
8
LINES
10
691.000000
20
766.000000
30
0.0
11
726.000000
21
766.000000
31
0.0
0
LINE
8
LINES
10
435.000000
20
705.000000
30
0.0
11
435.000000
21
742.000000
31
0.0
0
LINE
8
LINES
10
678.000000
20
486.000000
30
0.0
11
643.000000
21
494.000000
31
0.0
0
LINE
8
LINES
10
41.000000
20
864.000000
30
0.0
11
6.000000
21
864.000000
31
0.0
0
LINE
8
LINES
10
68.000000
20
340.000000
30
0.0
11
68.000000
21
304.000000
31
0.0
0
LINE
8
LINES
10
702.000000
20
28.000000
30
0.0
11
739.000000
21
28.000000
31
0.0
0
LINE
8
LINES
10
355.000000
20
844.000000
30
0.0
11
355.000000
21
808.000000
31
0.0
0
LINE
8
LINES
10
352.000000
20
478.000000
30
0.0
11
316.000000
21
478.000000
31
0.0
0
LINE
8
LINES
10
401.000000
20
804.000000
30
0.0
11
364.000000
21
804.000000
31
0.0
0
LINE
8
LINES
10
81.000000
20
707.000000
30
0.0
11
81.000000
21
742.000000
31
0.0
0
LINE
8
LINES
10
451.000000
20
704.000000
30
0.0
11
451.000000
21
739.000000
31
0.0
0
LINE
8
LINES
10
86.000000
20
931.000000
30
0.0
11
121.000000
21
931.000000
31
0.0
0
LINE
8
LINES
10
393.000000
20
326.000000
30
0.0
11
393.000000
21
363.000000
31
0.0
0
LINE
8
LINES
10
323.000000
20
145.000000
30
0.0
11
358.000000
21
145.000000
31
0.0
0
LINE
8
LINES
10
196.000000
20
860.000000
30
0.0
11
161.000000
21
860.000000
31
0.0
0
LINE
8
LINES
10
409.000000
20
145.000000
30
0.0
11
446.000000
21
145.000000
31
0.0
0
LINE
8
LINES
10
419.000000
20
307.000000
30
0.0
11
419.000000
21
342.000000
31
0.0
0
LINE
8
LINES
10
49.000000
20
294.000000
30
0.0
11
86.000000
21
294.000000
31
0.0
0
LINE
8
LINES
10
76.000000
20
340.000000
30
0.0
11
76.000000
21
304.000000
31
0.0
0
LINE
8
LINES
10
651.000000
20
713.000000
30
0.0
11
651.000000
21
750.000000
31
0.0
0
LINE
8
LINES
10
299.000000
20
536.000000
30
0.0
11
299.000000
21
572.000000
31
0.0
0
LINE
8
LINES
10
673.000000
20
158.000000
30
0.0
11
636.000000
21
158.000000
31
0.0
0
LINE
8
LINES
10
76.000000
20
62.000000
30
0.0
11
76.000000
21
99.000000
31
0.0
0
LINE
8
LINES
10
30.000000
20
924.000000
30
0.0
11
0.000000
21
942.000000
31
0.0
0
LINE
8
LINES
10
382.000000
20
902.000000
30
0.0
11
404.000000
21
929.000000
31
0.0
0
LINE
8
LINES
10
446.000000
20
142.000000
30
0.0
11
411.000000
21
142.000000
31
0.0
0
LINE
8
LINES
10
358.000000
20
142.000000
30
0.0
11
323.000000
21
142.000000
31
0.0
0
LINE
8
LINES
10
35.000000
20
60.000000
30
0.0
11
35.000000
21
96.000000
31
0.0
0
LINE
8
LINES
10
1.000000
20
776.000000
30
0.0
11
35.000000
21
776.000000
31
0.0
0
LINE
8
LINES
10
467.000000
20
886.000000
30
0.0
11
502.000000
21
886.000000
31
0.0
0
LINE
8
LINES
10
268.000000
20
915.000000
30
0.0
11
304.000000
21
915.000000
31
0.0
0
LINE
8
LINES
10
689.000000
20
777.000000
30
0.0
11
723.000000
21
777.000000
31
0.0
0
LINE
8
LINES
10
736.000000
20
784.000000
30
0.0
11
736.000000
21
819.000000
31
0.0
0
LINE
8
LINES
10
640.000000
20
414.000000
30
0.0
11
640.000000
21
449.000000
31
0.0
0
LINE
8
LINES
10
318.000000
20
305.000000
30
0.0
11
318.000000
21
340.000000
31
0.0
0
LINE
8
LINES
10
691.000000
20
478.000000
30
0.0
11
656.000000
21
478.000000
31
0.0
0
LINE
8
LINES
10
729.000000
20
816.000000
30
0.0
11
729.000000
21
780.000000
31
0.0
0
LINE
8
LINES
10
54.000000
20
542.000000
30
0.0
11
89.000000
21
542.000000
31
0.0
0
LINE
8
LINES
10
248.000000
20
561.000000
30
0.0
11
248.000000
21
596.000000
31
0.0
0
LINE
8
LINES
10
44.000000
20
323.000000
30
0.0
11
44.000000
21
358.000000
31
0.0
0
LINE
8
LINES
10
376.000000
20
742.000000
30
0.0
11
411.000000
21
742.000000
31
0.0
0
LINE
8
LINES
10
310.000000
20
833.000000
30
0.0
11
310.000000
21
867.000000
31
0.0
0
LINE
8
LINES
10
54.000000
20
304.000000
30
0.0
11
54.000000
21
339.000000
31
0.0
0
LINE
8
LINES
10
504.000000
20
883.000000
30
0.0
11
468.000000
21
883.000000
31
0.0
0
LINE
8
LINES
10
163.000000
20
340.000000
30
0.0
11
163.000000
21
305.000000
31
0.0
0
LINE
8
LINES
10
318.000000
20
740.000000
30
0.0
11
318.000000
21
705.000000
31
0.0
0
LINE
8
LINES
10
430.000000
20
342.000000
30
0.0
11
430.000000
21
307.000000
31
0.0
0
LINE
8
LINES
10
403.000000
20
307.000000
30
0.0
11
403.000000
21
342.000000
31
0.0
0
LINE
8
LINES
10
468.000000
20
739.000000
30
0.0
11
472.000000
21
705.000000
31
0.0
0
LINE
8
LINES
10
332.000000
20
926.000000
30
0.0
11
353.000000
21
897.000000
31
0.0
0
LINE
8
LINES
10
537.000000
20
782.000000
30
0.0
11
540.000000
21
816.000000
31
0.0
0
LINE
8
LINES
10
24.000000
20
145.000000
30
0.0
11
38.000000
21
113.000000
31
0.0
0
LINE
8
LINES
10
742.000000
20
156.000000
30
0.0
11
739.000000
21
188.000000
31
0.0
0
LINE
8
LINES
10
86.000000
20
368.000000
30
0.0
11
52.000000
21
368.000000
31
0.0
0
LINE
8
LINES
10
689.000000
20
369.000000
30
0.0
11
656.000000
21
369.000000
31
0.0
0
LINE
8
LINES
10
227.000000
20
398.000000
30
0.0
11
262.000000
21
398.000000
31
0.0
0
LINE
8
LINES
10
83.000000
20
929.000000
30
0.0
11
51.000000
21
929.000000
31
0.0
0
LINE
8
LINES
10
654.000000
20
556.000000
30
0.0
11
688.000000
21
556.000000
31
0.0
0
LINE
8
LINES
10
6.000000
20
598.000000
30
0.0
11
41.000000
21
598.000000
31
0.0
0
LINE
8
LINES
10
270.000000
20
740.000000
30
0.0
11
270.000000
21
707.000000
31
0.0
0
LINE
8
LINES
10
92.000000
20
744.000000
30
0.0
11
92.000000
21
710.000000
31
0.0
0
LINE
8
LINES
10
140.000000
20
398.000000
30
0.0
11
174.000000
21
398.000000
31
0.0
0
LINE
8
LINES
10
529.000000
20
536.000000
30
0.0
11
529.000000
21
569.000000
31
0.0
0
LINE
8
LINES
10
244.000000
20
595.000000
30
0.0
11
244.000000
21
561.000000
31
0.0
0
LINE
8
LINES
10
643.000000
20
147.000000
30
0.0
11
678.000000
21
147.000000
31
0.0
0
LINE
8
LINES
10
654.000000
20
297.000000
30
0.0
11
688.000000
21
297.000000
31
0.0
0
LINE
8
LINES
10
139.000000
20
296.000000
30
0.0
11
172.000000
21
296.000000
31
0.0
0
LINE
8
LINES
10
569.000000
20
299.000000
30
0.0
11
603.000000
21
299.000000
31
0.0
0
LINE
8
LINES
10
312.000000
20
297.000000
30
0.0
11
345.000000
21
297.000000
31
0.0
0
LINE
8
LINES
10
502.000000
20
966.000000
30
0.0
11
536.000000
21
966.000000
31
0.0
0
LINE
8
LINES
10
268.000000
20
835.000000
30
0.0
11
268.000000
21
868.000000
31
0.0
0
LINE
8
LINES
10
403.000000
20
806.000000
30
0.0
11
403.000000
21
838.000000
31
0.0
0
LINE
8
LINES
10
675.000000
20
593.000000
30
0.0
11
675.000000
21
558.000000
31
0.0
0
LINE
8
LINES
10
739.000000
20
878.000000
30
0.0
11
739.000000
21
846.000000
31
0.0
0
LINE
8
LINES
10
515.000000
20
457.000000
30
0.0
11
515.000000
21
424.000000
31
0.0
0
LINE
8
LINES
10
73.000000
20
99.000000
30
0.0
11
73.000000
21
65.000000
31
0.0
0
LINE
8
LINES
10
515.000000
20
342.000000
30
0.0
11
515.000000
21
307.000000
31
0.0
0
LINE
8
LINES
10
336.000000
20
342.000000
30
0.0
11
336.000000
21
308.000000
31
0.0
0
LINE
8
LINES
10
270.000000
20
596.000000
30
0.0
11
304.000000
21
596.000000
31
0.0
0
LINE
8
LINES
10
40.000000
20
144.000000
30
0.0
11
54.000000
21
113.000000
31
0.0
0
LINE
8
LINES
10
329.000000
20
744.000000
30
0.0
11
342.000000
21
713.000000
31
0.0
0
LINE
8
LINES
10
316.000000
20
528.000000
30
0.0
11
348.000000
21
520.000000
31
0.0
0
LINE
8
LINES
10
481.000000
20
929.000000
30
0.0
11
449.000000
21
932.000000
31
0.0
0
LINE
8
LINES
10
603.000000
20
369.000000
30
0.0
11
571.000000
21
369.000000
31
0.0
0
LINE
8
LINES
10
86.000000
20
480.000000
30
0.0
11
54.000000
21
480.000000
31
0.0
0
LINE
8
LINES
10
176.000000
20
480.000000
30
0.0
11
142.000000
21
480.000000
31
0.0
0
LINE
8
LINES
10
262.000000
20
478.000000
30
0.0
11
228.000000
21
478.000000
31
0.0
0
LINE
8
LINES
10
310.000000
20
940.000000
30
0.0
11
342.000000
21
937.000000
31
0.0
0
LINE
8
LINES
10
236.000000
20
908.000000
30
0.0
11
204.000000
21
908.000000
31
0.0
0
LINE
8
LINES
10
398.000000
20
398.000000
30
0.0
11
432.000000
21
398.000000
31
0.0
0
LINE
8
LINES
10
52.000000
20
396.000000
30
0.0
11
86.000000
21
396.000000
31
0.0
0
LINE
8
LINES
10
297.000000
20
742.000000
30
0.0
11
297.000000
21
708.000000
31
0.0
0
LINE
8
LINES
10
353.000000
20
209.000000
30
0.0
11
321.000000
21
209.000000
31
0.0
0
LINE
8
LINES
10
142.000000
20
536.000000
30
0.0
11
174.000000
21
536.000000
31
0.0
0
LINE
8
LINES
10
486.000000
20
739.000000
30
0.0
11
486.000000
21
707.000000
31
0.0
0
LINE
8
LINES
10
97.000000
20
710.000000
30
0.0
11
97.000000
21
742.000000
31
0.0
0
LINE
8
LINES
10
134.000000
20
742.000000
30
0.0
11
134.000000
21
710.000000
31
0.0
0
LINE
8
LINES
10
352.000000
20
368.000000
30
0.0
11
352.000000
21
336.000000
31
0.0
0
LINE
8
LINES
10
611.000000
20
836.000000
30
0.0
11
611.000000
21
868.000000
31
0.0
0
LINE
8
LINES
10
656.000000
20
307.000000
30
0.0
11
688.000000
21
307.000000
31
0.0
0
LINE
8
LINES
10
51.000000
20
302.000000
30
0.0
11
83.000000
21
302.000000
31
0.0
0
LINE
8
LINES
10
398.000000
20
297.000000
30
0.0
11
432.000000
21
297.000000
31
0.0
0
LINE
8
LINES
10
590.000000
20
313.000000
30
0.0
11
590.000000
21
347.000000
31
0.0
0
LINE
8
LINES
10
483.000000
20
300.000000
30
0.0
11
516.000000
21
300.000000
31
0.0
0
LINE
8
LINES
10
227.000000
20
297.000000
30
0.0
11
259.000000
21
297.000000
31
0.0
0
LINE
8
LINES
10
603.000000
20
400.000000
30
0.0
11
571.000000
21
400.000000
31
0.0
0
LINE
8
LINES
10
339.000000
20
699.000000
30
0.0
11
323.000000
21
670.000000
31
0.0
0
LINE
8
LINES
10
675.000000
20
308.000000
30
0.0
11
675.000000
21
342.000000
31
0.0
0
LINE
8
LINES
10
555.000000
20
329.000000
30
0.0
11
555.000000
21
361.000000
31
0.0
0
LINE
8
LINES
10
3.000000
20
313.000000
30
0.0
11
3.000000
21
345.000000
31
0.0
0
LINE
8
LINES
10
507.000000
20
782.000000
30
0.0
11
473.000000
21
785.000000
31
0.0
0
LINE
8
LINES
10
524.000000
20
363.000000
30
0.0
11
524.000000
21
396.000000
31
0.0
0
LINE
8
LINES
10
704.000000
20
177.000000
30
0.0
11
672.000000
21
177.000000
31
0.0
0
LINE
8
LINES
10
145.000000
20
521.000000
30
0.0
11
177.000000
21
521.000000
31
0.0
0
LINE
8
LINES
10
230.000000
20
208.000000
30
0.0
11
198.000000
21
204.000000
31
0.0
0
LINE
8
LINES
10
260.000000
20
521.000000
30
0.0
11
260.000000
21
489.000000
31
0.0
0
LINE
8
LINES
10
740.000000
20
163.000000
30
0.0
11
708.000000
21
158.000000
31
0.0
0
LINE
8
LINES
10
705.000000
20
812.000000
30
0.0
11
705.000000
21
780.000000
31
0.0
0
LINE
8
LINES
10
62.000000
20
196.000000
30
0.0
11
92.000000
21
196.000000
31
0.0
0
LINE
8
LINES
10
728.000000
20
865.000000
30
0.0
11
739.000000
21
835.000000
31
0.0
0
LINE
8
LINES
10
601.000000
20
478.000000
30
0.0
11
571.000000
21
478.000000
31
0.0
0
LINE
8
LINES
10
268.000000
20
209.000000
30
0.0
11
236.000000
21
209.000000
31
0.0
0
LINE
8
LINES
10
608.000000
20
209.000000
30
0.0
11
577.000000
21
209.000000
31
0.0
0
LINE
8
LINES
10
438.000000
20
209.000000
30
0.0
11
406.000000
21
209.000000
31
0.0
0
LINE
8
LINES
10
182.000000
20
208.000000
30
0.0
11
150.000000
21
208.000000
31
0.0
0
LINE
8
LINES
10
571.000000
20
403.000000
30
0.0
11
601.000000
21
403.000000
31
0.0
0
LINE
8
LINES
10
182.000000
20
566.000000
30
0.0
11
182.000000
21
598.000000
31
0.0
0
LINE
8
LINES
10
441.000000
20
595.000000
30
0.0
11
473.000000
21
595.000000
31
0.0
0
LINE
8
LINES
10
356.000000
20
596.000000
30
0.0
11
387.000000
21
596.000000
31
0.0
0
LINE
8
LINES
10
486.000000
20
403.000000
30
0.0
11
516.000000
21
403.000000
31
0.0
0
LINE
8
LINES
10
161.000000
20
934.000000
30
0.0
11
161.000000
21
966.000000
31
0.0
0
LINE
8
LINES
10
313.000000
20
401.000000
30
0.0
11
345.000000
21
401.000000
31
0.0
0
LINE
8
LINES
10
321.000000
20
198.000000
30
0.0
11
352.000000
21
198.000000
31
0.0
0
LINE
8
LINES
10
313.000000
20
740.000000
30
0.0
11
313.000000
21
708.000000
31
0.0
0
LINE
8
LINES
10
659.000000
20
200.000000
30
0.0
11
691.000000
21
200.000000
31
0.0
0
LINE
8
LINES
10
656.000000
20
401.000000
30
0.0
11
686.000000
21
401.000000
31
0.0
0
LINE
8
LINES
10
268.000000
20
953.000000
30
0.0
11
268.000000
21
984.000000
31
0.0
0
LINE
8
LINES
10
275.000000
20
936.000000
30
0.0
11
275.000000
21
966.000000
31
0.0
0
LINE
8
LINES
10
148.000000
20
198.000000
30
0.0
11
180.000000
21
198.000000
31
0.0
0
LINE
8
LINES
10
236.000000
20
198.000000
30
0.0
11
267.000000
21
198.000000
31
0.0
0
LINE
8
LINES
10
518.000000
20
556.000000
30
0.0
11
518.000000
21
587.000000
31
0.0
0
LINE
8
LINES
10
398.000000
20
304.000000
30
0.0
11
430.000000
21
304.000000
31
0.0
0
LINE
8
LINES
10
726.000000
20
897.000000
30
0.0
11
696.000000
21
897.000000
31
0.0
0
LINE
8
LINES
10
227.000000
20
307.000000
30
0.0
11
259.000000
21
307.000000
31
0.0
0
LINE
8
LINES
10
248.000000
20
310.000000
30
0.0
11
248.000000
21
342.000000
31
0.0
0
LINE
8
LINES
10
8.000000
20
707.000000
30
0.0
11
33.000000
21
691.000000
31
0.0
0
LINE
8
LINES
10
571.000000
20
312.000000
30
0.0
11
601.000000
21
312.000000
31
0.0
0
LINE
8
LINES
10
140.000000
20
304.000000
30
0.0
11
172.000000
21
304.000000
31
0.0
0
LINE
8
LINES
10
313.000000
20
302.000000
30
0.0
11
345.000000
21
302.000000
31
0.0
0
LINE
8
LINES
10
1.000000
20
923.000000
30
0.0
11
30.000000
21
915.000000
31
0.0
0
LINE
8
LINES
10
697.000000
20
892.000000
30
0.0
11
729.000000
21
892.000000
31
0.0
0
LINE
8
LINES
10
6.000000
20
966.000000
30
0.0
11
38.000000
21
966.000000
31
0.0
0
LINE
8
LINES
10
251.000000
20
342.000000
30
0.0
11
251.000000
21
310.000000
31
0.0
0
LINE
8
LINES
10
86.000000
20
526.000000
30
0.0
11
56.000000
21
526.000000
31
0.0
0
LINE
8
LINES
10
32.000000
20
771.000000
30
0.0
11
1.000000
21
771.000000
31
0.0
0
LINE
8
LINES
10
174.000000
20
526.000000
30
0.0
11
142.000000
21
526.000000
31
0.0
0
LINE
8
LINES
10
422.000000
20
340.000000
30
0.0
11
422.000000
21
308.000000
31
0.0
0
LINE
8
LINES
10
507.000000
20
340.000000
30
0.0
11
507.000000
21
308.000000
31
0.0
0
LINE
8
LINES
10
659.000000
20
310.000000
30
0.0
11
659.000000
21
342.000000
31
0.0
0
LINE
8
LINES
10
601.000000
20
302.000000
30
0.0
11
571.000000
21
302.000000
31
0.0
0
LINE
8
LINES
10
672.000000
20
561.000000
30
0.0
11
672.000000
21
593.000000
31
0.0
0
LINE
8
LINES
10
68.000000
20
454.000000
30
0.0
11
68.000000
21
422.000000
31
0.0
0
LINE
8
LINES
10
524.000000
20
408.000000
30
0.0
11
524.000000
21
438.000000
31
0.0
0
LINE
8
LINES
10
99.000000
20
4.000000
30
0.0
11
129.000000
21
14.000000
31
0.0
0
LINE
8
LINES
10
363.000000
20
958.000000
30
0.0
11
393.000000
21
950.000000
31
0.0
0
LINE
8
LINES
10
289.000000
20
806.000000
30
0.0
11
259.000000
21
806.000000
31
0.0
0
LINE
8
LINES
10
641.000000
20
249.000000
30
0.0
11
672.000000
21
249.000000
31
0.0
0
LINE
8
LINES
10
33.000000
20
96.000000
30
0.0
11
33.000000
21
65.000000
31
0.0
0
LINE
8
LINES
10
432.000000
20
478.000000
30
0.0
11
401.000000
21
478.000000
31
0.0
0
LINE
8
LINES
10
516.000000
20
478.000000
30
0.0
11
486.000000
21
478.000000
31
0.0
0
LINE
8
LINES
10
92.000000
20
206.000000
30
0.0
11
62.000000
21
206.000000
31
0.0
0
LINE
8
LINES
10
51.000000
20
371.000000
30
0.0
11
81.000000
21
371.000000
31
0.0
0
LINE
8
LINES
10
526.000000
20
566.000000
30
0.0
11
526.000000
21
595.000000
31
0.0
0
LINE
8
LINES
10
612.000000
20
147.000000
30
0.0
11
643.000000
21
147.000000
31
0.0
0
LINE
8
LINES
10
491.000000
20
201.000000
30
0.0
11
521.000000
21
201.000000
31
0.0
0
LINE
8
LINES
10
553.000000
20
806.000000
30
0.0
11
553.000000
21
776.000000
31
0.0
0
LINE
8
LINES
10
406.000000
20
201.000000
30
0.0
11
436.000000
21
201.000000
31
0.0
0
LINE
8
LINES
10
86.000000
20
518.000000
30
0.0
11
86.000000
21
489.000000
31
0.0
0
LINE
8
LINES
10
172.000000
20
518.000000
30
0.0
11
172.000000
21
489.000000
31
0.0
0
LINE
8
LINES
10
86.000000
20
531.000000
30
0.0
11
57.000000
21
531.000000
31
0.0
0
LINE
8
LINES
10
614.000000
20
867.000000
30
0.0
11
614.000000
21
838.000000
31
0.0
0
LINE
8
LINES
10
401.000000
20
540.000000
30
0.0
11
432.000000
21
540.000000
31
0.0
0
LINE
8
LINES
10
1.000000
20
771.000000
30
0.0
11
30.000000
21
771.000000
31
0.0
0
LINE
8
LINES
10
142.000000
20
305.000000
30
0.0
11
142.000000
21
336.000000
31
0.0
0
LINE
8
LINES
10
259.000000
20
454.000000
30
0.0
11
259.000000
21
424.000000
31
0.0
0
LINE
8
LINES
10
499.000000
20
336.000000
30
0.0
11
499.000000
21
305.000000
31
0.0
0
LINE
8
LINES
10
259.000000
20
300.000000
30
0.0
11
228.000000
21
300.000000
31
0.0
0
ENDSEC
0
EOF
