0
SECTION
2
ENTITIES
0
LWPOLYLINE
8
FACADE_OUTLINE
90
4
70
1
10
0.000000
20
0.000000
10
1011.000000
20
0.000000
10
1011.000000
20
578.000000
10
0.000000
20
578.000000
0
LWPOLYLINE
8
WINDOWS
90
4
70
1
10
934.000000
20
0.000000
10
976.000000
20
0.000000
10
976.000000
20
81.000000
10
934.000000
20
81.000000
0
LWPOLYLINE
8
WINDOWS
90
4
70
1
10
446.000000
20
70.000000
10
556.000000
20
70.000000
10
556.000000
20
134.000000
10
446.000000
20
134.000000
0
LWPOLYLINE
8
WINDOWS
90
4
70
1
10
369.000000
20
76.000000
10
430.000000
20
76.000000
10
430.000000
20
134.000000
10
369.000000
20
134.000000
0
LWPOLYLINE
8
WINDOWS
90
4
70
1
10
545.000000
20
84.000000
10
598.000000
20
84.000000
10
598.000000
20
134.000000
10
545.000000
20
134.000000
0
LWPOLYLINE
8
WINDOWS
90
4
70
1
10
244.000000
20
89.000000
10
297.000000
20
89.000000
10
297.000000
20
134.000000
10
244.000000
20
134.000000
0
LWPOLYLINE
8
WINDOWS
90
4
70
1
10
641.000000
20
94.000000
10
723.000000
20
94.000000
10
723.000000
20
131.000000
10
641.000000
20
131.000000
0
LWPOLYLINE
8
WINDOWS
90
4
70
1
10
171.000000
20
96.000000
10
236.000000
20
96.000000
10
236.000000
20
131.000000
10
171.000000
20
131.000000
0
LWPOLYLINE
8
WINDOWS
90
4
70
1
10
632.000000
20
102.000000
10
822.000000
20
102.000000
10
822.000000
20
204.000000
10
632.000000
20
204.000000
0
LWPOLYLINE
8
WINDOWS
90
4
70
1
10
596.000000
20
158.000000
10
867.000000
20
158.000000
10
867.000000
20
371.000000
10
596.000000
20
371.000000
0
LWPOLYLINE
8
WINDOWS
90
4
70
1
10
150.000000
20
172.000000
10
305.000000
20
172.000000
10
305.000000
20
291.000000
10
150.000000
20
291.000000
0
LWPOLYLINE
8
WINDOWS
90
4
70
1
10
254.000000
20
172.000000
10
467.000000
20
172.000000
10
467.000000
20
259.000000
10
254.000000
20
259.000000
0
LWPOLYLINE
8
WINDOWS
90
4
70
1
10
340.000000
20
184.000000
10
540.000000
20
184.000000
10
540.000000
20
310.000000
10
340.000000
20
310.000000
0
LWPOLYLINE
8
WINDOWS
90
4
70
1
10
515.000000
20
184.000000
10
563.000000
20
184.000000
10
563.000000
20
246.000000
10
515.000000
20
246.000000
0
LWPOLYLINE
8
WINDOWS
90
4
70
1
10
563.000000
20
184.000000
10
595.000000
20
184.000000
10
595.000000
20
241.000000
10
563.000000
20
241.000000
0
LWPOLYLINE
8
WINDOWS
90
4
70
1
10
732.000000
20
187.000000
10
771.000000
20
187.000000
10
771.000000
20
225.000000
10
732.000000
20
225.000000
0
LWPOLYLINE
8
WINDOWS
90
4
70
1
10
177.000000
20
291.000000
10
302.000000
20
291.000000
10
302.000000
20
352.000000
10
177.000000
20
352.000000
0
LWPOLYLINE
8
WINDOWS
90
4
70
1
10
307.000000
20
294.000000
10
380.000000
20
294.000000
10
380.000000
20
353.000000
10
307.000000
20
353.000000
0
LWPOLYLINE
8
WINDOWS
90
4
70
1
10
340.000000
20
294.000000
10
561.000000
20
294.000000
10
561.000000
20
422.000000
10
340.000000
20
422.000000
0
LWPOLYLINE
8
WINDOWS
90
4
70
1
10
564.000000
20
294.000000
10
609.000000
20
294.000000
10
609.000000
20
356.000000
10
564.000000
20
356.000000
0
LWPOLYLINE
8
WINDOWS
90
4
70
1
10
598.000000
20
355.000000
10
796.000000
20
355.000000
10
796.000000
20
460.000000
10
598.000000
20
460.000000
0
LWPOLYLINE
8
WINDOWS
90
4
70
1
10
214.000000
20
404.000000
10
337.000000
20
404.000000
10
337.000000
20
468.000000
10
214.000000
20
468.000000
0
LWPOLYLINE
8
WINDOWS
90
4
70
1
10
470.000000
20
406.000000
10
561.000000
20
406.000000
10
561.000000
20
462.000000
10
470.000000
20
462.000000
0
LWPOLYLINE
8
WINDOWS
90
4
70
1
10
564.000000
20
408.000000
10
598.000000
20
408.000000
10
598.000000
20
457.000000
10
564.000000
20
457.000000
0
LWPOLYLINE
8
WINDOWS
90
4
70
1
10
475.000000
20
414.000000
10
518.000000
20
414.000000
10
518.000000
20
452.000000
10
475.000000
20
452.000000
0
LWPOLYLINE
8
DOORS
90
4
70
1
10
387.000000
20
411.000000
10
417.000000
20
411.000000
10
417.000000
20
465.000000
10
387.000000
20
465.000000
0
LINE
8
LINES
10
57.000000
20
518.000000
30
0.0
11
454.000000
21
518.000000
31
0.0
0
LINE
8
LINES
10
625.000000
20
555.000000
30
0.0
11
947.000000
21
555.000000
31
0.0
0
LINE
8
LINES
10
353.000000
20
472.000000
30
0.0
11
627.000000
21
472.000000
31
0.0
0
LINE
8
LINES
10
361.000000
20
476.000000
30
0.0
11
617.000000
21
476.000000
31
0.0
0
LINE
8
LINES
10
376.000000
20
150.000000
30
0.0
11
169.000000
21
150.000000
31
0.0
0
LINE
8
LINES
10
177.000000
20
145.000000
30
0.0
11
377.000000
21
145.000000
31
0.0
0
LINE
8
LINES
10
611.000000
20
467.000000
30
0.0
11
414.000000
21
467.000000
31
0.0
0
LINE
8
LINES
10
177.000000
20
158.000000
30
0.0
11
371.000000
21
158.000000
31
0.0
0
LINE
8
LINES
10
451.000000
20
145.000000
30
0.0
11
641.000000
21
145.000000
31
0.0
0
LINE
8
LINES
10
636.000000
20
150.000000
30
0.0
11
452.000000
21
150.000000
31
0.0
0
LINE
8
LINES
10
446.000000
20
156.000000
30
0.0
11
627.000000
21
156.000000
31
0.0
0
LINE
8
LINES
10
172.000000
20
166.000000
30
0.0
11
347.000000
21
166.000000
31
0.0
0
LINE
8
LINES
10
456.000000
20
545.000000
30
0.0
11
627.000000
21
545.000000
31
0.0
0
LINE
8
LINES
10
497.000000
20
272.000000
30
0.0
11
342.000000
21
272.000000
31
0.0
0
LINE
8
LINES
10
145.000000
20
0.000000
30
0.0
11
1.000000
21
36.000000
31
0.0
0
LINE
8
LINES
10
497.000000
20
388.000000
30
0.0
11
353.000000
21
388.000000
31
0.0
0
LINE
8
LINES
10
459.000000
20
164.000000
30
0.0
11
604.000000
21
164.000000
31
0.0
0
LINE
8
LINES
10
753.000000
20
272.000000
30
0.0
11
614.000000
21
272.000000
31
0.0
0
LINE
8
LINES
10
344.000000
20
281.000000
30
0.0
11
476.000000
21
281.000000
31
0.0
0
LINE
8
LINES
10
603.000000
20
281.000000
30
0.0
11
729.000000
21
281.000000
31
0.0
0
LINE
8
LINES
10
345.000000
20
392.000000
30
0.0
11
467.000000
21
392.000000
31
0.0
0
LINE
8
LINES
10
611.000000
20
190.000000
30
0.0
11
732.000000
21
177.000000
31
0.0
0
LINE
8
LINES
10
336.000000
20
465.000000
30
0.0
11
217.000000
21
465.000000
31
0.0
0
LINE
8
LINES
10
609.000000
20
393.000000
30
0.0
11
726.000000
21
393.000000
31
0.0
0
LINE
8
LINES
10
659.000000
20
454.000000
30
0.0
11
553.000000
21
454.000000
31
0.0
0
LINE
8
LINES
10
128.000000
20
417.000000
30
0.0
11
128.000000
21
521.000000
31
0.0
0
LINE
8
LINES
10
355.000000
20
54.000000
30
0.0
11
454.000000
21
54.000000
31
0.0
0
LINE
8
LINES
10
617.000000
20
52.000000
30
0.0
11
716.000000
21
52.000000
31
0.0
0
LINE
8
LINES
10
236.000000
20
70.000000
30
0.0
11
331.000000
21
70.000000
31
0.0
0
LINE
8
LINES
10
211.000000
20
292.000000
30
0.0
11
305.000000
21
292.000000
31
0.0
0
LINE
8
LINES
10
121.000000
20
521.000000
30
0.0
11
121.000000
21
425.000000
31
0.0
0
LINE
8
LINES
10
825.000000
20
353.000000
30
0.0
11
732.000000
21
353.000000
31
0.0
0
LINE
8
LINES
10
307.000000
20
246.000000
30
0.0
11
212.000000
21
246.000000
31
0.0
0
LINE
8
LINES
10
723.000000
20
56.000000
30
0.0
11
817.000000
21
56.000000
31
0.0
0
LINE
8
LINES
10
472.000000
20
406.000000
30
0.0
11
563.000000
21
406.000000
31
0.0
0
LINE
8
LINES
10
702.000000
20
158.000000
30
0.0
11
793.000000
21
158.000000
31
0.0
0
LINE
8
LINES
10
216.000000
20
404.000000
30
0.0
11
305.000000
21
404.000000
31
0.0
0
LINE
8
LINES
10
472.000000
20
294.000000
30
0.0
11
561.000000
21
294.000000
31
0.0
0
LINE
8
LINES
10
451.000000
20
462.000000
30
0.0
11
363.000000
21
462.000000
31
0.0
0
LINE
8
LINES
10
217.000000
20
182.000000
30
0.0
11
302.000000
21
182.000000
31
0.0
0
LINE
8
LINES
10
161.000000
20
60.000000
30
0.0
11
222.000000
21
1.000000
31
0.0
0
LINE
8
LINES
10
793.000000
20
150.000000
30
0.0
11
712.000000
21
150.000000
31
0.0
0
LINE
8
LINES
10
441.000000
20
68.000000
30
0.0
11
358.000000
21
68.000000
31
0.0
0
LINE
8
LINES
10
700.000000
20
67.000000
30
0.0
11
619.000000
21
67.000000
31
0.0
0
LINE
8
LINES
10
718.000000
20
164.000000
30
0.0
11
798.000000
21
164.000000
31
0.0
0
LINE
8
LINES
10
716.000000
20
142.000000
30
0.0
11
793.000000
21
142.000000
31
0.0
0
LINE
8
LINES
10
998.000000
20
571.000000
30
0.0
11
921.000000
21
571.000000
31
0.0
0
LINE
8
LINES
10
486.000000
20
68.000000
30
0.0
11
563.000000
21
68.000000
31
0.0
0
LINE
8
LINES
10
492.000000
20
57.000000
30
0.0
11
566.000000
21
57.000000
31
0.0
0
LINE
8
LINES
10
731.000000
20
182.000000
30
0.0
11
806.000000
21
182.000000
31
0.0
0
LINE
8
LINES
10
312.000000
20
137.000000
30
0.0
11
236.000000
21
137.000000
31
0.0
0
LINE
8
LINES
10
736.000000
20
408.000000
30
0.0
11
809.000000
21
408.000000
31
0.0
0
LINE
8
LINES
10
593.000000
20
353.000000
30
0.0
11
518.000000
21
353.000000
31
0.0
0
LINE
8
LINES
10
238.000000
20
60.000000
30
0.0
11
310.000000
21
60.000000
31
0.0
0
LINE
8
LINES
10
289.000000
20
355.000000
30
0.0
11
217.000000
21
355.000000
31
0.0
0
LINE
8
LINES
10
478.000000
20
486.000000
30
0.0
11
412.000000
21
486.000000
31
0.0
0
LINE
8
LINES
10
358.000000
20
449.000000
30
0.0
11
345.000000
21
385.000000
31
0.0
0
LINE
8
LINES
10
566.000000
20
403.000000
30
0.0
11
500.000000
21
403.000000
31
0.0
0
LINE
8
LINES
10
409.000000
20
188.000000
30
0.0
11
473.000000
21
176.000000
31
0.0
0
LINE
8
LINES
10
617.000000
20
350.000000
30
0.0
11
609.000000
21
286.000000
31
0.0
0
LINE
8
LINES
10
356.000000
20
337.000000
30
0.0
11
342.000000
21
273.000000
31
0.0
0
LINE
8
LINES
10
553.000000
20
73.000000
30
0.0
11
489.000000
21
73.000000
31
0.0
0
LINE
8
LINES
10
470.000000
20
184.000000
30
0.0
11
536.000000
21
184.000000
31
0.0
0
LINE
8
LINES
10
563.000000
20
244.000000
30
0.0
11
497.000000
21
244.000000
31
0.0
0
LINE
8
LINES
10
456.000000
20
396.000000
30
0.0
11
456.000000
21
460.000000
31
0.0
0
LINE
8
LINES
10
588.000000
20
486.000000
30
0.0
11
523.000000
21
486.000000
31
0.0
0
LINE
8
LINES
10
307.000000
20
401.000000
30
0.0
11
243.000000
21
401.000000
31
0.0
0
LINE
8
LINES
10
502.000000
20
353.000000
30
0.0
11
566.000000
21
353.000000
31
0.0
0
LINE
8
LINES
10
566.000000
20
291.000000
30
0.0
11
502.000000
21
291.000000
31
0.0
0
LINE
8
LINES
10
812.000000
20
70.000000
30
0.0
11
748.000000
21
70.000000
31
0.0
0
LINE
8
LINES
10
443.000000
20
132.000000
30
0.0
11
443.000000
21
70.000000
31
0.0
0
LINE
8
LINES
10
222.000000
20
1.000000
30
0.0
11
284.000000
21
1.000000
31
0.0
0
LINE
8
LINES
10
940.000000
20
561.000000
30
0.0
11
1001.000000
21
561.000000
31
0.0
0
LINE
8
LINES
10
246.000000
20
462.000000
30
0.0
11
307.000000
21
462.000000
31
0.0
0
LINE
8
LINES
10
300.000000
20
76.000000
30
0.0
11
241.000000
21
76.000000
31
0.0
0
LINE
8
LINES
10
246.000000
20
350.000000
30
0.0
11
307.000000
21
350.000000
31
0.0
0
LINE
8
LINES
10
374.000000
20
156.000000
30
0.0
11
433.000000
21
147.000000
31
0.0
0
LINE
8
LINES
10
246.000000
20
241.000000
30
0.0
11
307.000000
21
241.000000
31
0.0
0
LINE
8
LINES
10
504.000000
20
241.000000
30
0.0
11
563.000000
21
241.000000
31
0.0
0
LINE
8
LINES
10
419.000000
20
406.000000
30
0.0
11
358.000000
21
406.000000
31
0.0
0
LINE
8
LINES
10
417.000000
20
296.000000
30
0.0
11
358.000000
21
296.000000
31
0.0
0
LINE
8
LINES
10
907.000000
20
553.000000
30
0.0
11
937.000000
21
504.000000
31
0.0
0
LINE
8
LINES
10
892.000000
20
446.000000
30
0.0
11
945.000000
21
419.000000
31
0.0
0
LINE
8
LINES
10
616.000000
20
452.000000
30
0.0
11
609.000000
21
396.000000
31
0.0
0
LINE
8
LINES
10
337.000000
20
292.000000
30
0.0
11
337.000000
21
350.000000
31
0.0
0
LINE
8
LINES
10
337.000000
20
406.000000
30
0.0
11
337.000000
21
462.000000
31
0.0
0
LINE
8
LINES
10
454.000000
20
286.000000
30
0.0
11
454.000000
21
342.000000
31
0.0
0
LINE
8
LINES
10
641.000000
20
158.000000
30
0.0
11
697.000000
21
153.000000
31
0.0
0
LINE
8
LINES
10
496.000000
20
81.000000
30
0.0
11
552.000000
21
81.000000
31
0.0
0
LINE
8
LINES
10
214.000000
20
462.000000
30
0.0
11
214.000000
21
406.000000
31
0.0
0
LINE
8
LINES
10
595.000000
20
296.000000
30
0.0
11
595.000000
21
350.000000
31
0.0
0
LINE
8
LINES
10
748.000000
20
451.000000
30
0.0
11
692.000000
21
451.000000
31
0.0
0
LINE
8
LINES
10
243.000000
20
83.000000
30
0.0
11
299.000000
21
83.000000
31
0.0
0
LINE
8
LINES
10
243.000000
20
408.000000
30
0.0
11
243.000000
21
462.000000
31
0.0
0
LINE
8
LINES
10
243.000000
20
185.000000
30
0.0
11
243.000000
21
241.000000
31
0.0
0
LINE
8
LINES
10
593.000000
20
184.000000
30
0.0
11
593.000000
21
238.000000
31
0.0
0
LINE
8
LINES
10
334.000000
20
184.000000
30
0.0
11
334.000000
21
238.000000
31
0.0
0
LINE
8
LINES
10
361.000000
20
411.000000
30
0.0
11
417.000000
21
411.000000
31
0.0
0
LINE
8
LINES
10
422.000000
20
462.000000
30
0.0
11
422.000000
21
408.000000
31
0.0
0
LINE
8
LINES
10
526.000000
20
459.000000
30
0.0
11
472.000000
21
459.000000
31
0.0
0
LINE
8
LINES
10
496.000000
20
131.000000
30
0.0
11
548.000000
21
131.000000
31
0.0
0
LINE
8
LINES
10
675.000000
20
227.000000
30
0.0
11
729.000000
21
227.000000
31
0.0
0
LINE
8
LINES
10
307.000000
20
460.000000
30
0.0
11
307.000000
21
406.000000
31
0.0
0
LINE
8
LINES
10
825.000000
20
358.000000
30
0.0
11
771.000000
21
358.000000
31
0.0
0
LINE
8
LINES
10
361.000000
20
300.000000
30
0.0
11
416.000000
21
300.000000
31
0.0
0
LINE
8
LINES
10
361.000000
20
193.000000
30
0.0
11
414.000000
21
193.000000
31
0.0
0
LINE
8
LINES
10
758.000000
20
65.000000
30
0.0
11
812.000000
21
65.000000
31
0.0
0
LINE
8
LINES
10
587.000000
20
81.000000
30
0.0
11
609.000000
21
129.000000
31
0.0
0
LINE
8
LINES
10
307.000000
20
238.000000
30
0.0
11
307.000000
21
185.000000
31
0.0
0
LINE
8
LINES
10
563.000000
20
238.000000
30
0.0
11
563.000000
21
185.000000
31
0.0
0
LINE
8
LINES
10
771.000000
20
355.000000
30
0.0
11
824.000000
21
355.000000
31
0.0
0
LINE
8
LINES
10
876.000000
20
502.000000
30
0.0
11
902.000000
21
459.000000
31
0.0
0
LINE
8
LINES
10
51.000000
20
497.000000
30
0.0
11
0.000000
21
492.000000
31
0.0
0
LINE
8
LINES
10
243.000000
20
132.000000
30
0.0
11
296.000000
21
132.000000
31
0.0
0
LINE
8
LINES
10
526.000000
20
238.000000
30
0.0
11
526.000000
21
188.000000
31
0.0
0
LINE
8
LINES
10
268.000000
20
297.000000
30
0.0
11
268.000000
21
348.000000
31
0.0
0
LINE
8
LINES
10
361.000000
20
462.000000
30
0.0
11
361.000000
21
411.000000
31
0.0
0
LINE
8
LINES
10
470.000000
20
459.000000
30
0.0
11
470.000000
21
408.000000
31
0.0
0
LINE
8
LINES
10
689.000000
20
472.000000
30
0.0
11
740.000000
21
472.000000
31
0.0
0
LINE
8
LINES
10
432.000000
20
169.000000
30
0.0
11
380.000000
21
169.000000
31
0.0
0
LINE
8
LINES
10
416.000000
20
411.000000
30
0.0
11
416.000000
21
462.000000
31
0.0
0
LINE
8
LINES
10
617.000000
20
307.000000
30
0.0
11
668.000000
21
307.000000
31
0.0
0
LINE
8
LINES
10
1.000000
20
515.000000
30
0.0
11
51.000000
21
515.000000
31
0.0
0
LINE
8
LINES
10
545.000000
20
136.000000
30
0.0
11
496.000000
21
136.000000
31
0.0
0
LINE
8
LINES
10
745.000000
20
73.000000
30
0.0
11
745.000000
21
123.000000
31
0.0
0
LINE
8
LINES
10
616.000000
20
201.000000
30
0.0
11
665.000000
21
201.000000
31
0.0
0
LINE
8
LINES
10
385.000000
20
460.000000
30
0.0
11
385.000000
21
411.000000
31
0.0
0
LINE
8
LINES
10
521.000000
20
299.000000
30
0.0
11
521.000000
21
348.000000
31
0.0
0
LINE
8
LINES
10
412.000000
20
462.000000
30
0.0
11
412.000000
21
412.000000
31
0.0
0
LINE
8
LINES
10
1.000000
20
502.000000
30
0.0
11
51.000000
21
502.000000
31
0.0
0
LINE
8
LINES
10
150.000000
20
187.000000
30
0.0
11
196.000000
21
171.000000
31
0.0
0
LINE
8
LINES
10
649.000000
20
150.000000
30
0.0
11
699.000000
21
145.000000
31
0.0
0
LINE
8
LINES
10
208.000000
20
78.000000
30
0.0
11
158.000000
21
78.000000
31
0.0
0
LINE
8
LINES
10
785.000000
20
238.000000
30
0.0
11
785.000000
21
190.000000
31
0.0
0
LINE
8
LINES
10
548.000000
20
190.000000
30
0.0
11
548.000000
21
238.000000
31
0.0
0
LINE
8
LINES
10
294.000000
20
188.000000
30
0.0
11
294.000000
21
238.000000
31
0.0
0
LINE
8
LINES
10
521.000000
20
188.000000
30
0.0
11
521.000000
21
238.000000
31
0.0
0
LINE
8
LINES
10
408.000000
20
412.000000
30
0.0
11
408.000000
21
460.000000
31
0.0
0
LINE
8
LINES
10
777.000000
20
188.000000
30
0.0
11
777.000000
21
238.000000
31
0.0
0
LINE
8
LINES
10
296.000000
20
411.000000
30
0.0
11
296.000000
21
459.000000
31
0.0
0
LINE
8
LINES
10
268.000000
20
409.000000
30
0.0
11
268.000000
21
457.000000
31
0.0
0
LINE
8
LINES
10
732.000000
20
347.000000
30
0.0
11
732.000000
21
297.000000
31
0.0
0
LINE
8
LINES
10
499.000000
20
297.000000
30
0.0
11
499.000000
21
345.000000
31
0.0
0
LINE
8
LINES
10
569.000000
20
348.000000
30
0.0
11
569.000000
21
299.000000
31
0.0
0
LINE
8
LINES
10
220.000000
20
457.000000
30
0.0
11
220.000000
21
408.000000
31
0.0
0
LINE
8
LINES
10
568.000000
20
236.000000
30
0.0
11
568.000000
21
187.000000
31
0.0
0
LINE
8
LINES
10
526.000000
20
348.000000
30
0.0
11
526.000000
21
300.000000
31
0.0
0
LINE
8
LINES
10
339.000000
20
83.000000
30
0.0
11
353.000000
21
131.000000
31
0.0
0
LINE
8
LINES
10
694.000000
20
147.000000
30
0.0
11
648.000000
21
153.000000
31
0.0
0
LINE
8
LINES
10
787.000000
20
350.000000
30
0.0
11
787.000000
21
302.000000
31
0.0
0
LINE
8
LINES
10
380.000000
20
412.000000
30
0.0
11
380.000000
21
459.000000
31
0.0
0
LINE
8
LINES
10
547.000000
20
84.000000
30
0.0
11
499.000000
21
84.000000
31
0.0
0
LINE
8
LINES
10
564.000000
20
348.000000
30
0.0
11
564.000000
21
302.000000
31
0.0
0
LINE
8
LINES
10
470.000000
20
344.000000
30
0.0
11
470.000000
21
297.000000
31
0.0
0
LINE
8
LINES
10
550.000000
20
300.000000
30
0.0
11
550.000000
21
348.000000
31
0.0
0
LINE
8
LINES
10
246.000000
20
345.000000
30
0.0
11
246.000000
21
297.000000
31
0.0
0
LINE
8
LINES
10
272.000000
20
457.000000
30
0.0
11
272.000000
21
411.000000
31
0.0
0
LINE
8
LINES
10
294.000000
20
299.000000
30
0.0
11
294.000000
21
347.000000
31
0.0
0
LINE
8
LINES
10
812.000000
20
454.000000
30
0.0
11
764.000000
21
454.000000
31
0.0
0
LINE
8
LINES
10
420.000000
20
342.000000
30
0.0
11
420.000000
21
296.000000
31
0.0
0
LINE
8
LINES
10
502.000000
20
411.000000
30
0.0
11
502.000000
21
457.000000
31
0.0
0
LINE
8
LINES
10
528.000000
20
457.000000
30
0.0
11
528.000000
21
412.000000
31
0.0
0
LINE
8
LINES
10
267.000000
20
192.000000
30
0.0
11
267.000000
21
238.000000
31
0.0
0
LINE
8
LINES
10
262.000000
20
299.000000
30
0.0
11
262.000000
21
345.000000
31
0.0
0
LINE
8
LINES
10
305.000000
20
342.000000
30
0.0
11
305.000000
21
296.000000
31
0.0
0
LINE
8
LINES
10
46.000000
20
507.000000
30
0.0
11
1.000000
21
507.000000
31
0.0
0
LINE
8
LINES
10
473.000000
20
297.000000
30
0.0
11
473.000000
21
344.000000
31
0.0
0
LINE
8
LINES
10
510.000000
20
486.000000
30
0.0
11
510.000000
21
532.000000
31
0.0
0
LINE
8
LINES
10
574.000000
20
70.000000
30
0.0
11
617.000000
21
51.000000
31
0.0
0
LINE
8
LINES
10
1.000000
20
494.000000
30
0.0
11
46.000000
21
499.000000
31
0.0
0
LINE
8
LINES
10
272.000000
20
238.000000
30
0.0
11
272.000000
21
193.000000
31
0.0
0
LINE
8
LINES
10
272.000000
20
348.000000
30
0.0
11
272.000000
21
302.000000
31
0.0
0
LINE
8
LINES
10
291.000000
20
86.000000
30
0.0
11
291.000000
21
131.000000
31
0.0
0
LINE
8
LINES
10
596.000000
20
409.000000
30
0.0
11
596.000000
21
454.000000
31
0.0
0
LINE
8
LINES
10
291.000000
20
233.000000
30
0.0
11
291.000000
21
188.000000
31
0.0
0
LINE
8
LINES
10
640.000000
20
19.000000
30
0.0
11
683.000000
21
28.000000
31
0.0
0
LINE
8
LINES
10
636.000000
20
78.000000
30
0.0
11
681.000000
21
78.000000
31
0.0
0
LINE
8
LINES
10
497.000000
20
86.000000
30
0.0
11
497.000000
21
131.000000
31
0.0
0
LINE
8
LINES
10
552.000000
20
412.000000
30
0.0
11
552.000000
21
456.000000
31
0.0
0
LINE
8
LINES
10
470.000000
20
228.000000
30
0.0
11
470.000000
21
185.000000
31
0.0
0
LINE
8
LINES
10
548.000000
20
132.000000
30
0.0
11
548.000000
21
89.000000
31
0.0
0
LINE
8
LINES
10
758.000000
20
86.000000
30
0.0
11
758.000000
21
129.000000
31
0.0
0
LINE
8
LINES
10
476.000000
20
344.000000
30
0.0
11
476.000000
21
300.000000
31
0.0
0
LINE
8
LINES
10
681.000000
20
30.000000
30
0.0
11
723.000000
21
38.000000
31
0.0
0
LINE
8
LINES
10
731.000000
20
227.000000
30
0.0
11
731.000000
21
185.000000
31
0.0
0
LINE
8
LINES
10
406.000000
20
302.000000
30
0.0
11
406.000000
21
345.000000
31
0.0
0
LINE
8
LINES
10
545.000000
20
89.000000
30
0.0
11
545.000000
21
131.000000
31
0.0
0
LINE
8
LINES
10
294.000000
20
131.000000
30
0.0
11
294.000000
21
89.000000
31
0.0
0
LINE
8
LINES
10
385.000000
20
345.000000
30
0.0
11
385.000000
21
302.000000
31
0.0
0
LINE
8
LINES
10
539.000000
20
3.000000
30
0.0
11
497.000000
21
3.000000
31
0.0
0
LINE
8
LINES
10
246.000000
20
233.000000
30
0.0
11
246.000000
21
192.000000
31
0.0
0
LINE
8
LINES
10
571.000000
20
454.000000
30
0.0
11
571.000000
21
412.000000
31
0.0
0
LINE
8
LINES
10
121.000000
20
65.000000
30
0.0
11
152.000000
21
36.000000
31
0.0
0
LINE
8
LINES
10
73.000000
20
470.000000
30
0.0
11
78.000000
21
512.000000
31
0.0
0
LINE
8
LINES
10
798.000000
20
134.000000
30
0.0
11
756.000000
21
134.000000
31
0.0
0
LINE
8
LINES
10
284.000000
20
89.000000
30
0.0
11
284.000000
21
131.000000
31
0.0
0
LINE
8
LINES
10
764.000000
20
296.000000
30
0.0
11
806.000000
21
296.000000
31
0.0
0
LINE
8
LINES
10
523.000000
20
416.000000
30
0.0
11
523.000000
21
457.000000
31
0.0
0
LINE
8
LINES
10
246.000000
20
89.000000
30
0.0
11
246.000000
21
131.000000
31
0.0
0
LINE
8
LINES
10
411.000000
20
342.000000
30
0.0
11
411.000000
21
302.000000
31
0.0
0
LINE
8
LINES
10
297.000000
20
236.000000
30
0.0
11
297.000000
21
195.000000
31
0.0
0
LINE
8
LINES
10
416.000000
20
302.000000
30
0.0
11
416.000000
21
342.000000
31
0.0
0
LINE
8
LINES
10
553.000000
20
236.000000
30
0.0
11
553.000000
21
193.000000
31
0.0
0
LINE
8
LINES
10
553.000000
20
344.000000
30
0.0
11
553.000000
21
302.000000
31
0.0
0
LINE
8
LINES
10
760.000000
20
187.000000
30
0.0
11
760.000000
21
227.000000
31
0.0
0
LINE
8
LINES
10
297.000000
20
345.000000
30
0.0
11
297.000000
21
304.000000
31
0.0
0
LINE
8
LINES
10
531.000000
20
62.000000
30
0.0
11
489.000000
21
62.000000
31
0.0
0
LINE
8
LINES
10
281.000000
20
65.000000
30
0.0
11
238.000000
21
65.000000
31
0.0
0
LINE
8
LINES
10
278.000000
20
169.000000
30
0.0
11
240.000000
21
174.000000
31
0.0
0
LINE
8
LINES
10
502.000000
20
89.000000
30
0.0
11
542.000000
21
89.000000
31
0.0
0
LINE
8
LINES
10
534.000000
20
91.000000
30
0.0
11
534.000000
21
131.000000
31
0.0
0
LINE
8
LINES
10
268.000000
20
129.000000
30
0.0
11
268.000000
21
89.000000
31
0.0
0
LINE
8
LINES
10
41.000000
20
500.000000
30
0.0
11
1.000000
21
500.000000
31
0.0
0
LINE
8
LINES
10
473.000000
20
187.000000
30
0.0
11
473.000000
21
227.000000
31
0.0
0
LINE
8
LINES
10
737.000000
20
227.000000
30
0.0
11
737.000000
21
187.000000
31
0.0
0
LINE
8
LINES
10
380.000000
20
304.000000
30
0.0
11
380.000000
21
344.000000
31
0.0
0
LINE
8
LINES
10
761.000000
20
81.000000
30
0.0
11
801.000000
21
81.000000
31
0.0
0
LINE
8
LINES
10
476.000000
20
227.000000
30
0.0
11
476.000000
21
187.000000
31
0.0
0
LINE
8
LINES
10
288.000000
20
131.000000
30
0.0
11
288.000000
21
92.000000
31
0.0
0
LINE
8
LINES
10
771.000000
20
92.000000
30
0.0
11
771.000000
21
131.000000
31
0.0
0
LINE
8
LINES
10
566.000000
20
456.000000
30
0.0
11
566.000000
21
417.000000
31
0.0
0
LINE
8
LINES
10
696.000000
20
457.000000
30
0.0
11
734.000000
21
457.000000
31
0.0
0
LINE
8
LINES
10
302.000000
20
408.000000
30
0.0
11
302.000000
21
446.000000
31
0.0
0
LINE
8
LINES
10
555.000000
20
454.000000
30
0.0
11
555.000000
21
416.000000
31
0.0
0
LINE
8
LINES
10
358.000000
20
406.000000
30
0.0
11
358.000000
21
446.000000
31
0.0
0
LINE
8
LINES
10
683.000000
20
345.000000
30
0.0
11
721.000000
21
345.000000
31
0.0
0
LINE
8
LINES
10
720.000000
20
185.000000
30
0.0
11
683.000000
21
196.000000
31
0.0
0
LINE
8
LINES
10
457.000000
20
267.000000
30
0.0
11
494.000000
21
267.000000
31
0.0
0
LINE
8
LINES
10
787.000000
20
126.000000
30
0.0
11
787.000000
21
88.000000
31
0.0
0
LINE
8
LINES
10
918.000000
20
395.000000
30
0.0
11
956.000000
21
388.000000
31
0.0
0
LINE
8
LINES
10
540.000000
20
131.000000
30
0.0
11
540.000000
21
92.000000
31
0.0
0
LINE
8
LINES
10
726.000000
20
265.000000
30
0.0
11
763.000000
21
265.000000
31
0.0
0
LINE
8
LINES
10
376.000000
20
265.000000
30
0.0
11
412.000000
21
265.000000
31
0.0
0
LINE
8
LINES
10
686.000000
20
265.000000
30
0.0
11
723.000000
21
265.000000
31
0.0
0
LINE
8
LINES
10
796.000000
20
84.000000
30
0.0
11
758.000000
21
84.000000
31
0.0
0
LINE
8
LINES
10
748.000000
20
129.000000
30
0.0
11
712.000000
21
129.000000
31
0.0
0
LINE
8
LINES
10
376.000000
20
499.000000
30
0.0
11
353.000000
21
470.000000
31
0.0
0
LINE
8
LINES
10
403.000000
20
486.000000
30
0.0
11
403.000000
21
524.000000
31
0.0
0
LINE
8
LINES
10
310.000000
20
345.000000
30
0.0
11
310.000000
21
307.000000
31
0.0
0
LINE
8
LINES
10
812.000000
20
75.000000
30
0.0
11
774.000000
21
75.000000
31
0.0
0
LINE
8
LINES
10
678.000000
20
195.000000
30
0.0
11
641.000000
21
195.000000
31
0.0
0
LINE
8
LINES
10
900.000000
20
508.000000
30
0.0
11
884.000000
21
542.000000
31
0.0
0
LINE
8
LINES
10
878.000000
20
537.000000
30
0.0
11
896.000000
21
505.000000
31
0.0
0
LINE
8
LINES
10
459.000000
20
185.000000
30
0.0
11
425.000000
21
196.000000
31
0.0
0
LINE
8
LINES
10
224.000000
20
139.000000
30
0.0
11
188.000000
21
139.000000
31
0.0
0
LINE
8
LINES
10
265.000000
20
94.000000
30
0.0
11
265.000000
21
131.000000
31
0.0
0
LINE
8
LINES
10
771.000000
20
241.000000
30
0.0
11
806.000000
21
241.000000
31
0.0
0
LINE
8
LINES
10
281.000000
20
131.000000
30
0.0
11
281.000000
21
94.000000
31
0.0
0
LINE
8
LINES
10
776.000000
20
470.000000
30
0.0
11
812.000000
21
470.000000
31
0.0
0
LINE
8
LINES
10
803.000000
20
246.000000
30
0.0
11
766.000000
21
246.000000
31
0.0
0
LINE
8
LINES
10
619.000000
20
65.000000
30
0.0
11
587.000000
21
80.000000
31
0.0
0
LINE
8
LINES
10
691.000000
20
169.000000
30
0.0
11
654.000000
21
169.000000
31
0.0
0
LINE
8
LINES
10
499.000000
20
185.000000
30
0.0
11
499.000000
21
220.000000
31
0.0
0
LINE
8
LINES
10
617.000000
20
137.000000
30
0.0
11
582.000000
21
137.000000
31
0.0
0
LINE
8
LINES
10
515.000000
20
96.000000
30
0.0
11
515.000000
21
131.000000
31
0.0
0
LINE
8
LINES
10
766.000000
20
230.000000
30
0.0
11
731.000000
21
230.000000
31
0.0
0
LINE
8
LINES
10
633.000000
20
313.000000
30
0.0
11
633.000000
21
348.000000
31
0.0
0
LINE
8
LINES
10
646.000000
20
265.000000
30
0.0
11
681.000000
21
265.000000
31
0.0
0
LINE
8
LINES
10
417.000000
20
382.000000
30
0.0
11
451.000000
21
382.000000
31
0.0
0
LINE
8
LINES
10
732.000000
20
382.000000
30
0.0
11
766.000000
21
382.000000
31
0.0
0
LINE
8
LINES
10
392.000000
20
160.000000
30
0.0
11
427.000000
21
160.000000
31
0.0
0
LINE
8
LINES
10
638.000000
20
348.000000
30
0.0
11
638.000000
21
313.000000
31
0.0
0
LINE
8
LINES
10
462.000000
20
72.000000
30
0.0
11
492.000000
21
56.000000
31
0.0
0
LINE
8
LINES
10
798.000000
20
129.000000
30
0.0
11
796.000000
21
94.000000
31
0.0
0
LINE
8
LINES
10
161.000000
20
270.000000
30
0.0
11
193.000000
21
259.000000
31
0.0
0
LINE
8
LINES
10
520.000000
20
131.000000
30
0.0
11
520.000000
21
97.000000
31
0.0
0
LINE
8
LINES
10
361.000000
20
347.000000
30
0.0
11
361.000000
21
313.000000
31
0.0
0
LINE
8
LINES
10
769.000000
20
462.000000
30
0.0
11
803.000000
21
462.000000
31
0.0
0
LINE
8
LINES
10
536.000000
20
179.000000
30
0.0
11
502.000000
21
179.000000
31
0.0
0
LINE
8
LINES
10
249.000000
20
131.000000
30
0.0
11
249.000000
21
97.000000
31
0.0
0
LINE
8
LINES
10
931.000000
20
505.000000
30
0.0
11
913.000000
21
534.000000
31
0.0
0
LINE
8
LINES
10
70.000000
20
32.000000
30
0.0
11
105.000000
21
28.000000
31
0.0
0
LINE
8
LINES
10
835.000000
20
540.000000
30
0.0
11
852.000000
21
513.000000
31
0.0
0
LINE
8
LINES
10
163.000000
20
374.000000
30
0.0
11
195.000000
21
369.000000
31
0.0
0
LINE
8
LINES
10
702.000000
20
102.000000
30
0.0
11
702.000000
21
68.000000
31
0.0
0
LINE
8
LINES
10
380.000000
20
116.000000
30
0.0
11
380.000000
21
83.000000
31
0.0
0
LINE
8
LINES
10
684.000000
20
57.000000
30
0.0
11
652.000000
21
57.000000
31
0.0
0
LINE
8
LINES
10
659.000000
20
313.000000
30
0.0
11
659.000000
21
347.000000
31
0.0
0
LINE
8
LINES
10
502.000000
20
227.000000
30
0.0
11
502.000000
21
193.000000
31
0.0
0
LINE
8
LINES
10
964.000000
20
419.000000
30
0.0
11
995.000000
21
432.000000
31
0.0
0
LINE
8
LINES
10
531.000000
20
128.000000
30
0.0
11
531.000000
21
96.000000
31
0.0
0
LINE
8
LINES
10
673.000000
20
83.000000
30
0.0
11
641.000000
21
83.000000
31
0.0
0
LINE
8
LINES
10
504.000000
20
456.000000
30
0.0
11
504.000000
21
422.000000
31
0.0
0
LINE
8
LINES
10
374.000000
20
86.000000
30
0.0
11
374.000000
21
118.000000
31
0.0
0
LINE
8
LINES
10
414.000000
20
193.000000
30
0.0
11
414.000000
21
225.000000
31
0.0
0
LINE
8
LINES
10
372.000000
20
536.000000
30
0.0
11
372.000000
21
502.000000
31
0.0
0
LINE
8
LINES
10
806.000000
20
488.000000
30
0.0
11
777.000000
21
473.000000
31
0.0
0
LINE
8
LINES
10
668.000000
20
313.000000
30
0.0
11
668.000000
21
344.000000
31
0.0
0
LINE
8
LINES
10
609.000000
20
217.000000
30
0.0
11
609.000000
21
187.000000
31
0.0
0
LINE
8
LINES
10
744.000000
20
504.000000
30
0.0
11
713.000000
21
504.000000
31
0.0
0
LINE
8
LINES
10
262.000000
20
128.000000
30
0.0
11
262.000000
21
97.000000
31
0.0
0
LINE
8
LINES
10
86.000000
20
492.000000
30
0.0
11
118.000000
21
492.000000
31
0.0
0
LINE
8
LINES
10
729.000000
20
558.000000
30
0.0
11
699.000000
21
552.000000
31
0.0
0
LINE
8
LINES
10
958.000000
20
409.000000
30
0.0
11
929.000000
21
422.000000
31
0.0
0
LINE
8
LINES
10
888.000000
20
508.000000
30
0.0
11
873.000000
21
537.000000
31
0.0
0
LINE
8
LINES
10
156.000000
20
329.000000
30
0.0
11
129.000000
21
344.000000
31
0.0
0
LINE
8
LINES
10
688.000000
20
108.000000
30
0.0
11
718.000000
21
105.000000
31
0.0
0
LINE
8
LINES
10
952.000000
20
513.000000
30
0.0
11
936.000000
21
540.000000
31
0.0
0
LINE
8
LINES
10
768.000000
20
380.000000
30
0.0
11
768.000000
21
350.000000
31
0.0
0
LINE
8
LINES
10
936.000000
20
548.000000
30
0.0
11
950.000000
21
524.000000
31
0.0
0
LINE
8
LINES
10
764.000000
20
264.000000
30
0.0
11
764.000000
21
233.000000
31
0.0
0
LINE
8
LINES
10
456.000000
20
233.000000
30
0.0
11
456.000000
21
262.000000
31
0.0
0
LINE
8
LINES
10
731.000000
20
350.000000
30
0.0
11
731.000000
21
380.000000
31
0.0
0
LINE
8
LINES
10
417.000000
20
348.000000
30
0.0
11
417.000000
21
379.000000
31
0.0
0
LINE
8
LINES
10
648.000000
20
352.000000
30
0.0
11
648.000000
21
382.000000
31
0.0
0
LINE
8
LINES
10
422.000000
20
262.000000
30
0.0
11
422.000000
21
232.000000
31
0.0
0
LINE
8
LINES
10
372.000000
20
377.000000
30
0.0
11
372.000000
21
348.000000
31
0.0
0
LINE
8
LINES
10
846.000000
20
486.000000
30
0.0
11
867.000000
21
465.000000
31
0.0
0
LINE
8
LINES
10
446.000000
20
128.000000
30
0.0
11
476.000000
21
128.000000
31
0.0
0
LINE
8
LINES
10
500.000000
20
128.000000
30
0.0
11
500.000000
21
97.000000
31
0.0
0
LINE
8
LINES
10
790.000000
20
96.000000
30
0.0
11
790.000000
21
126.000000
31
0.0
0
LINE
8
LINES
10
398.000000
20
344.000000
30
0.0
11
398.000000
21
313.000000
31
0.0
0
LINE
8
LINES
10
499.000000
20
486.000000
30
0.0
11
499.000000
21
516.000000
31
0.0
0
ENDSEC
0
EOF
