<svg xmlns="http://www.w3.org/2000/svg" viewBox="0 0 1011 578" width="1011" height="578">
  <rect x="0" y="0" width="1011" height="578" fill="#fff"/>
  <g id="facade_outline">
    <polygon id="facade_0001" points="0,0 1011,0 1011,578 0,578" stroke="#000" stroke-width="2" fill="none"/>
  </g>
  <g id="openings_windows">
    <rect id="window_0001" x="934" y="0" width="42" height="81" stroke="#000" stroke-width="1" fill="none" data-conf="0.6791" data-type="window"/>
    <rect id="window_0002" x="446" y="70" width="110" height="64" stroke="#000" stroke-width="1" fill="none" data-conf="0.7377" data-type="window"/>
    <rect id="window_0003" x="369" y="76" width="61" height="58" stroke="#000" stroke-width="1" fill="none" data-conf="0.6540" data-type="window"/>
    <rect id="window_0004" x="545" y="84" width="53" height="50" stroke="#000" stroke-width="1" fill="none" data-conf="0.7576" data-type="window"/>
    <rect id="window_0005" x="244" y="89" width="53" height="45" stroke="#000" stroke-width="1" fill="none" data-conf="0.8689" data-type="window"/>
    <rect id="window_0006" x="641" y="94" width="82" height="37" stroke="#000" stroke-width="1" fill="none" data-conf="0.6491" data-type="window"/>
    <rect id="window_0007" x="171" y="96" width="65" height="35" stroke="#000" stroke-width="1" fill="none" data-conf="0.7990" data-type="window"/>
    <rect id="window_0008" x="632" y="102" width="190" height="102" stroke="#000" stroke-width="1" fill="none" data-conf="0.5603" data-type="window"/>
    <rect id="window_0009" x="596" y="158" width="271" height="213" stroke="#000" stroke-width="1" fill="none" data-conf="0.6106" data-type="window"/>
    <rect id="window_0010" x="150" y="172" width="155" height="119" stroke="#000" stroke-width="1" fill="none" data-conf="0.6058" data-type="window"/>
    <rect id="window_0011" x="254" y="172" width="213" height="87" stroke="#000" stroke-width="1" fill="none" data-conf="0.6002" data-type="window"/>
    <rect id="window_0012" x="340" y="184" width="200" height="126" stroke="#000" stroke-width="1" fill="none" data-conf="0.5635" data-type="window"/>
    <rect id="window_0013" x="515" y="184" width="48" height="62" stroke="#000" stroke-width="1" fill="none" data-conf="0.6741" data-type="window"/>
    <rect id="window_0014" x="563" y="184" width="32" height="57" stroke="#000" stroke-width="1" fill="none" data-conf="0.9449" data-type="window"/>
    <rect id="window_0015" x="732" y="187" width="39" height="38" stroke="#000" stroke-width="1" fill="none" data-conf="0.8192" data-type="window"/>
    <rect id="window_0016" x="177" y="291" width="125" height="61" stroke="#000" stroke-width="1" fill="none" data-conf="0.6847" data-type="window"/>
    <rect id="window_0017" x="307" y="294" width="73" height="59" stroke="#000" stroke-width="1" fill="none" data-conf="0.7630" data-type="window"/>
    <rect id="window_0018" x="340" y="294" width="221" height="128" stroke="#000" stroke-width="1" fill="none" data-conf="0.6049" data-type="window"/>
    <rect id="window_0019" x="564" y="294" width="45" height="62" stroke="#000" stroke-width="1" fill="none" data-conf="0.8130" data-type="window"/>
    <rect id="window_0020" x="598" y="355" width="198" height="105" stroke="#000" stroke-width="1" fill="none" data-conf="0.5790" data-type="window"/>
    <rect id="window_0021" x="214" y="404" width="123" height="64" stroke="#000" stroke-width="1" fill="none" data-conf="0.8117" data-type="window"/>
    <rect id="window_0022" x="470" y="406" width="91" height="56" stroke="#000" stroke-width="1" fill="none" data-conf="0.8682" data-type="window"/>
    <rect id="window_0023" x="564" y="408" width="34" height="49" stroke="#000" stroke-width="1" fill="none" data-conf="0.9140" data-type="window"/>
    <rect id="window_0024" x="475" y="414" width="43" height="38" stroke="#000" stroke-width="1" fill="none" data-conf="0.8190" data-type="window"/>
  </g>
  <g id="openings_doors">
    <rect id="door_0001" x="387" y="411" width="30" height="54" stroke="#000" stroke-width="1" fill="none" data-conf="0.8247" data-type="door"/>
  </g>
  <g id="lines">
    <line id="line_0001" x1="57" y1="518" x2="454" y2="518" stroke="#000" stroke-width="1" data-conf="0.3410"/>
    <line id="line_0002" x1="625" y1="555" x2="947" y2="555" stroke="#000" stroke-width="1" data-conf="0.2775"/>
    <line id="line_0003" x1="353" y1="472" x2="627" y2="472" stroke="#000" stroke-width="1" data-conf="0.2353"/>
    <line id="line_0004" x1="361" y1="476" x2="617" y2="476" stroke="#000" stroke-width="1" data-conf="0.2201"/>
    <line id="line_0005" x1="376" y1="150" x2="169" y2="150" stroke="#000" stroke-width="1" data-conf="0.1771"/>
    <line id="line_0006" x1="177" y1="145" x2="377" y2="145" stroke="#000" stroke-width="1" data-conf="0.1707"/>
    <line id="line_0007" x1="611" y1="467" x2="414" y2="467" stroke="#000" stroke-width="1" data-conf="0.1696"/>
    <line id="line_0008" x1="177" y1="158" x2="371" y2="158" stroke="#000" stroke-width="1" data-conf="0.1674"/>
    <line id="line_0009" x1="451" y1="145" x2="641" y2="145" stroke="#000" stroke-width="1" data-conf="0.1632"/>
    <line id="line_0010" x1="636" y1="150" x2="452" y2="150" stroke="#000" stroke-width="1" data-conf="0.1578"/>
    <line id="line_0011" x1="446" y1="156" x2="627" y2="156" stroke="#000" stroke-width="1" data-conf="0.1557"/>
    <line id="line_0012" x1="172" y1="166" x2="347" y2="166" stroke="#000" stroke-width="1" data-conf="0.1503"/>
    <line id="line_0013" x1="456" y1="545" x2="627" y2="545" stroke="#000" stroke-width="1" data-conf="0.1483"/>
    <line id="line_0014" x1="497" y1="272" x2="342" y2="272" stroke="#000" stroke-width="1" data-conf="0.1331"/>
    <line id="line_0015" x1="145" y1="0" x2="1" y2="36" stroke="#000" stroke-width="1" data-conf="0.1281"/>
    <line id="line_0016" x1="497" y1="388" x2="353" y2="388" stroke="#000" stroke-width="1" data-conf="0.1245"/>
    <line id="line_0017" x1="459" y1="164" x2="604" y2="164" stroke="#000" stroke-width="1" data-conf="0.1245"/>
    <line id="line_0018" x1="753" y1="272" x2="614" y2="272" stroke="#000" stroke-width="1" data-conf="0.1203"/>
    <line id="line_0019" x1="344" y1="281" x2="476" y2="281" stroke="#000" stroke-width="1" data-conf="0.1137"/>
    <line id="line_0020" x1="603" y1="281" x2="729" y2="281" stroke="#000" stroke-width="1" data-conf="0.1084"/>
    <line id="line_0021" x1="345" y1="392" x2="467" y2="392" stroke="#000" stroke-width="1" data-conf="0.1052"/>
    <line id="line_0022" x1="611" y1="190" x2="732" y2="177" stroke="#000" stroke-width="1" data-conf="0.1035"/>
    <line id="line_0023" x1="336" y1="465" x2="217" y2="465" stroke="#000" stroke-width="1" data-conf="0.1009"/>
    <line id="line_0024" x1="609" y1="393" x2="726" y2="393" stroke="#000" stroke-width="1" data-conf="0.0998"/>
    <line id="line_0025" x1="659" y1="454" x2="553" y2="454" stroke="#000" stroke-width="1" data-conf="0.0913"/>
    <line id="line_0026" x1="128" y1="417" x2="128" y2="521" stroke="#000" stroke-width="1" data-conf="0.0891"/>
    <line id="line_0027" x1="355" y1="54" x2="454" y2="54" stroke="#000" stroke-width="1" data-conf="0.0849"/>
    <line id="line_0028" x1="617" y1="52" x2="716" y2="52" stroke="#000" stroke-width="1" data-conf="0.0848"/>
    <line id="line_0029" x1="236" y1="70" x2="331" y2="70" stroke="#000" stroke-width="1" data-conf="0.0816"/>
    <line id="line_0030" x1="211" y1="292" x2="305" y2="292" stroke="#000" stroke-width="1" data-conf="0.0816"/>
    <line id="line_0031" x1="121" y1="521" x2="121" y2="425" stroke="#000" stroke-width="1" data-conf="0.0816"/>
    <line id="line_0032" x1="825" y1="353" x2="732" y2="353" stroke="#000" stroke-width="1" data-conf="0.0806"/>
    <line id="line_0033" x1="307" y1="246" x2="212" y2="246" stroke="#000" stroke-width="1" data-conf="0.0806"/>
    <line id="line_0034" x1="723" y1="56" x2="817" y2="56" stroke="#000" stroke-width="1" data-conf="0.0805"/>
    <line id="line_0035" x1="472" y1="406" x2="563" y2="406" stroke="#000" stroke-width="1" data-conf="0.0795"/>
    <line id="line_0036" x1="702" y1="158" x2="793" y2="158" stroke="#000" stroke-width="1" data-conf="0.0784"/>
    <line id="line_0037" x1="216" y1="404" x2="305" y2="404" stroke="#000" stroke-width="1" data-conf="0.0773"/>
    <line id="line_0038" x1="472" y1="294" x2="561" y2="294" stroke="#000" stroke-width="1" data-conf="0.0773"/>
    <line id="line_0039" x1="451" y1="462" x2="363" y2="462" stroke="#000" stroke-width="1" data-conf="0.0752"/>
    <line id="line_0040" x1="217" y1="182" x2="302" y2="182" stroke="#000" stroke-width="1" data-conf="0.0741"/>
    <line id="line_0041" x1="161" y1="60" x2="222" y2="1" stroke="#000" stroke-width="1" data-conf="0.0736"/>
    <line id="line_0042" x1="793" y1="150" x2="712" y2="150" stroke="#000" stroke-width="1" data-conf="0.0708"/>
    <line id="line_0043" x1="441" y1="68" x2="358" y2="68" stroke="#000" stroke-width="1" data-conf="0.0708"/>
    <line id="line_0044" x1="700" y1="67" x2="619" y2="67" stroke="#000" stroke-width="1" data-conf="0.0698"/>
    <line id="line_0045" x1="718" y1="164" x2="798" y2="164" stroke="#000" stroke-width="1" data-conf="0.0687"/>
    <line id="line_0046" x1="716" y1="142" x2="793" y2="142" stroke="#000" stroke-width="1" data-conf="0.0676"/>
    <line id="line_0047" x1="998" y1="571" x2="921" y2="571" stroke="#000" stroke-width="1" data-conf="0.0666"/>
    <line id="line_0048" x1="486" y1="68" x2="563" y2="68" stroke="#000" stroke-width="1" data-conf="0.0655"/>
    <line id="line_0049" x1="492" y1="57" x2="566" y2="57" stroke="#000" stroke-width="1" data-conf="0.0644"/>
    <line id="line_0050" x1="731" y1="182" x2="806" y2="182" stroke="#000" stroke-width="1" data-conf="0.0644"/>
    <line id="line_0051" x1="312" y1="137" x2="236" y2="137" stroke="#000" stroke-width="1" data-conf="0.0644"/>
    <line id="line_0052" x1="736" y1="408" x2="809" y2="408" stroke="#000" stroke-width="1" data-conf="0.0634"/>
    <line id="line_0053" x1="593" y1="353" x2="518" y2="353" stroke="#000" stroke-width="1" data-conf="0.0634"/>
    <line id="line_0054" x1="238" y1="60" x2="310" y2="60" stroke="#000" stroke-width="1" data-conf="0.0623"/>
    <line id="line_0055" x1="289" y1="355" x2="217" y2="355" stroke="#000" stroke-width="1" data-conf="0.0623"/>
    <line id="line_0056" x1="478" y1="486" x2="412" y2="486" stroke="#000" stroke-width="1" data-conf="0.0580"/>
    <line id="line_0057" x1="358" y1="449" x2="345" y2="385" stroke="#000" stroke-width="1" data-conf="0.0570"/>
    <line id="line_0058" x1="566" y1="403" x2="500" y2="403" stroke="#000" stroke-width="1" data-conf="0.0569"/>
    <line id="line_0059" x1="409" y1="188" x2="473" y2="176" stroke="#000" stroke-width="1" data-conf="0.0564"/>
    <line id="line_0060" x1="617" y1="350" x2="609" y2="286" stroke="#000" stroke-width="1" data-conf="0.0562"/>
    <line id="line_0061" x1="356" y1="337" x2="342" y2="273" stroke="#000" stroke-width="1" data-conf="0.0560"/>
    <line id="line_0062" x1="553" y1="73" x2="489" y2="73" stroke="#000" stroke-width="1" data-conf="0.0558"/>
    <line id="line_0063" x1="470" y1="184" x2="536" y2="184" stroke="#000" stroke-width="1" data-conf="0.0558"/>
    <line id="line_0064" x1="563" y1="244" x2="497" y2="244" stroke="#000" stroke-width="1" data-conf="0.0558"/>
    <line id="line_0065" x1="456" y1="396" x2="456" y2="460" stroke="#000" stroke-width="1" data-conf="0.0558"/>
    <line id="line_0066" x1="588" y1="486" x2="523" y2="486" stroke="#000" stroke-width="1" data-conf="0.0558"/>
    <line id="line_0067" x1="307" y1="401" x2="243" y2="401" stroke="#000" stroke-width="1" data-conf="0.0548"/>
    <line id="line_0068" x1="502" y1="353" x2="566" y2="353" stroke="#000" stroke-width="1" data-conf="0.0547"/>
    <line id="line_0069" x1="566" y1="291" x2="502" y2="291" stroke="#000" stroke-width="1" data-conf="0.0547"/>
    <line id="line_0070" x1="812" y1="70" x2="748" y2="70" stroke="#000" stroke-width="1" data-conf="0.0547"/>
    <line id="line_0071" x1="443" y1="132" x2="443" y2="70" stroke="#000" stroke-width="1" data-conf="0.0537"/>
    <line id="line_0072" x1="222" y1="1" x2="284" y2="1" stroke="#000" stroke-width="1" data-conf="0.0526"/>
    <line id="line_0073" x1="940" y1="561" x2="1001" y2="561" stroke="#000" stroke-width="1" data-conf="0.0526"/>
    <line id="line_0074" x1="246" y1="462" x2="307" y2="462" stroke="#000" stroke-width="1" data-conf="0.0526"/>
    <line id="line_0075" x1="300" y1="76" x2="241" y2="76" stroke="#000" stroke-width="1" data-conf="0.0515"/>
    <line id="line_0076" x1="246" y1="350" x2="307" y2="350" stroke="#000" stroke-width="1" data-conf="0.0515"/>
    <line id="line_0077" x1="374" y1="156" x2="433" y2="147" stroke="#000" stroke-width="1" data-conf="0.0515"/>
    <line id="line_0078" x1="246" y1="241" x2="307" y2="241" stroke="#000" stroke-width="1" data-conf="0.0515"/>
    <line id="line_0079" x1="504" y1="241" x2="563" y2="241" stroke="#000" stroke-width="1" data-conf="0.0515"/>
    <line id="line_0080" x1="419" y1="406" x2="358" y2="406" stroke="#000" stroke-width="1" data-conf="0.0515"/>
    <line id="line_0081" x1="417" y1="296" x2="358" y2="296" stroke="#000" stroke-width="1" data-conf="0.0505"/>
    <line id="line_0082" x1="907" y1="553" x2="937" y2="504" stroke="#000" stroke-width="1" data-conf="0.0503"/>
    <line id="line_0083" x1="892" y1="446" x2="945" y2="419" stroke="#000" stroke-width="1" data-conf="0.0499"/>
    <line id="line_0084" x1="616" y1="452" x2="609" y2="396" stroke="#000" stroke-width="1" data-conf="0.0496"/>
    <line id="line_0085" x1="337" y1="292" x2="337" y2="350" stroke="#000" stroke-width="1" data-conf="0.0494"/>
    <line id="line_0086" x1="337" y1="406" x2="337" y2="462" stroke="#000" stroke-width="1" data-conf="0.0494"/>
    <line id="line_0087" x1="454" y1="286" x2="454" y2="342" stroke="#000" stroke-width="1" data-conf="0.0494"/>
    <line id="line_0088" x1="641" y1="158" x2="697" y2="153" stroke="#000" stroke-width="1" data-conf="0.0487"/>
    <line id="line_0089" x1="496" y1="81" x2="552" y2="81" stroke="#000" stroke-width="1" data-conf="0.0484"/>
    <line id="line_0090" x1="214" y1="462" x2="214" y2="406" stroke="#000" stroke-width="1" data-conf="0.0483"/>
    <line id="line_0091" x1="595" y1="296" x2="595" y2="350" stroke="#000" stroke-width="1" data-conf="0.0473"/>
    <line id="line_0092" x1="748" y1="451" x2="692" y2="451" stroke="#000" stroke-width="1" data-conf="0.0472"/>
    <line id="line_0093" x1="243" y1="83" x2="299" y2="83" stroke="#000" stroke-width="1" data-conf="0.0472"/>
    <line id="line_0094" x1="243" y1="408" x2="243" y2="462" stroke="#000" stroke-width="1" data-conf="0.0472"/>
    <line id="line_0095" x1="243" y1="185" x2="243" y2="241" stroke="#000" stroke-width="1" data-conf="0.0472"/>
    <line id="line_0096" x1="593" y1="184" x2="593" y2="238" stroke="#000" stroke-width="1" data-conf="0.0472"/>
    <line id="line_0097" x1="334" y1="184" x2="334" y2="238" stroke="#000" stroke-width="1" data-conf="0.0472"/>
    <line id="line_0098" x1="361" y1="411" x2="417" y2="411" stroke="#000" stroke-width="1" data-conf="0.0472"/>
    <line id="line_0099" x1="422" y1="462" x2="422" y2="408" stroke="#000" stroke-width="1" data-conf="0.0472"/>
    <line id="line_0100" x1="526" y1="459" x2="472" y2="459" stroke="#000" stroke-width="1" data-conf="0.0463"/>
    <line id="line_0101" x1="496" y1="131" x2="548" y2="131" stroke="#000" stroke-width="1" data-conf="0.0462"/>
    <line id="line_0102" x1="675" y1="227" x2="729" y2="227" stroke="#000" stroke-width="1" data-conf="0.0462"/>
    <line id="line_0103" x1="307" y1="460" x2="307" y2="406" stroke="#000" stroke-width="1" data-conf="0.0462"/>
    <line id="line_0104" x1="825" y1="358" x2="771" y2="358" stroke="#000" stroke-width="1" data-conf="0.0462"/>
    <line id="line_0105" x1="361" y1="300" x2="416" y2="300" stroke="#000" stroke-width="1" data-conf="0.0462"/>
    <line id="line_0106" x1="361" y1="193" x2="414" y2="193" stroke="#000" stroke-width="1" data-conf="0.0462"/>
    <line id="line_0107" x1="758" y1="65" x2="812" y2="65" stroke="#000" stroke-width="1" data-conf="0.0462"/>
    <line id="line_0108" x1="587" y1="81" x2="609" y2="129" stroke="#000" stroke-width="1" data-conf="0.0456"/>
    <line id="line_0109" x1="307" y1="238" x2="307" y2="185" stroke="#000" stroke-width="1" data-conf="0.0451"/>
    <line id="line_0110" x1="563" y1="238" x2="563" y2="185" stroke="#000" stroke-width="1" data-conf="0.0451"/>
    <line id="line_0111" x1="771" y1="355" x2="824" y2="355" stroke="#000" stroke-width="1" data-conf="0.0451"/>
    <line id="line_0112" x1="876" y1="502" x2="902" y2="459" stroke="#000" stroke-width="1" data-conf="0.0447"/>
    <line id="line_0113" x1="51" y1="497" x2="0" y2="492" stroke="#000" stroke-width="1" data-conf="0.0445"/>
    <line id="line_0114" x1="243" y1="132" x2="296" y2="132" stroke="#000" stroke-width="1" data-conf="0.0440"/>
    <line id="line_0115" x1="526" y1="238" x2="526" y2="188" stroke="#000" stroke-width="1" data-conf="0.0440"/>
    <line id="line_0116" x1="268" y1="297" x2="268" y2="348" stroke="#000" stroke-width="1" data-conf="0.0440"/>
    <line id="line_0117" x1="361" y1="462" x2="361" y2="411" stroke="#000" stroke-width="1" data-conf="0.0440"/>
    <line id="line_0118" x1="470" y1="459" x2="470" y2="408" stroke="#000" stroke-width="1" data-conf="0.0440"/>
    <line id="line_0119" x1="689" y1="472" x2="740" y2="472" stroke="#000" stroke-width="1" data-conf="0.0440"/>
    <line id="line_0120" x1="432" y1="169" x2="380" y2="169" stroke="#000" stroke-width="1" data-conf="0.0440"/>
    <line id="line_0121" x1="416" y1="411" x2="416" y2="462" stroke="#000" stroke-width="1" data-conf="0.0440"/>
    <line id="line_0122" x1="617" y1="307" x2="668" y2="307" stroke="#000" stroke-width="1" data-conf="0.0440"/>
    <line id="line_0123" x1="1" y1="515" x2="51" y2="515" stroke="#000" stroke-width="1" data-conf="0.0431"/>
    <line id="line_0124" x1="545" y1="136" x2="496" y2="136" stroke="#000" stroke-width="1" data-conf="0.0430"/>
    <line id="line_0125" x1="745" y1="73" x2="745" y2="123" stroke="#000" stroke-width="1" data-conf="0.0430"/>
    <line id="line_0126" x1="616" y1="201" x2="665" y2="201" stroke="#000" stroke-width="1" data-conf="0.0430"/>
    <line id="line_0127" x1="385" y1="460" x2="385" y2="411" stroke="#000" stroke-width="1" data-conf="0.0429"/>
    <line id="line_0128" x1="521" y1="299" x2="521" y2="348" stroke="#000" stroke-width="1" data-conf="0.0429"/>
    <line id="line_0129" x1="412" y1="462" x2="412" y2="412" stroke="#000" stroke-width="1" data-conf="0.0429"/>
    <line id="line_0130" x1="1" y1="502" x2="51" y2="502" stroke="#000" stroke-width="1" data-conf="0.0429"/>
    <line id="line_0131" x1="150" y1="187" x2="196" y2="171" stroke="#000" stroke-width="1" data-conf="0.0428"/>
    <line id="line_0132" x1="649" y1="150" x2="699" y2="145" stroke="#000" stroke-width="1" data-conf="0.0421"/>
    <line id="line_0133" x1="208" y1="78" x2="158" y2="78" stroke="#000" stroke-width="1" data-conf="0.0420"/>
    <line id="line_0134" x1="785" y1="238" x2="785" y2="190" stroke="#000" stroke-width="1" data-conf="0.0419"/>
    <line id="line_0135" x1="548" y1="190" x2="548" y2="238" stroke="#000" stroke-width="1" data-conf="0.0419"/>
    <line id="line_0136" x1="294" y1="188" x2="294" y2="238" stroke="#000" stroke-width="1" data-conf="0.0419"/>
    <line id="line_0137" x1="521" y1="188" x2="521" y2="238" stroke="#000" stroke-width="1" data-conf="0.0419"/>
    <line id="line_0138" x1="408" y1="412" x2="408" y2="460" stroke="#000" stroke-width="1" data-conf="0.0419"/>
    <line id="line_0139" x1="777" y1="188" x2="777" y2="238" stroke="#000" stroke-width="1" data-conf="0.0419"/>
    <line id="line_0140" x1="296" y1="411" x2="296" y2="459" stroke="#000" stroke-width="1" data-conf="0.0419"/>
    <line id="line_0141" x1="268" y1="409" x2="268" y2="457" stroke="#000" stroke-width="1" data-conf="0.0419"/>
    <line id="line_0142" x1="732" y1="347" x2="732" y2="297" stroke="#000" stroke-width="1" data-conf="0.0419"/>
    <line id="line_0143" x1="499" y1="297" x2="499" y2="345" stroke="#000" stroke-width="1" data-conf="0.0419"/>
    <line id="line_0144" x1="569" y1="348" x2="569" y2="299" stroke="#000" stroke-width="1" data-conf="0.0419"/>
    <line id="line_0145" x1="220" y1="457" x2="220" y2="408" stroke="#000" stroke-width="1" data-conf="0.0419"/>
    <line id="line_0146" x1="568" y1="236" x2="568" y2="187" stroke="#000" stroke-width="1" data-conf="0.0419"/>
    <line id="line_0147" x1="526" y1="348" x2="526" y2="300" stroke="#000" stroke-width="1" data-conf="0.0418"/>
    <line id="line_0148" x1="339" y1="83" x2="353" y2="131" stroke="#000" stroke-width="1" data-conf="0.0414"/>
    <line id="line_0149" x1="694" y1="147" x2="648" y2="153" stroke="#000" stroke-width="1" data-conf="0.0411"/>
    <line id="line_0150" x1="787" y1="350" x2="787" y2="302" stroke="#000" stroke-width="1" data-conf="0.0408"/>
    <line id="line_0151" x1="380" y1="412" x2="380" y2="459" stroke="#000" stroke-width="1" data-conf="0.0408"/>
    <line id="line_0152" x1="547" y1="84" x2="499" y2="84" stroke="#000" stroke-width="1" data-conf="0.0408"/>
    <line id="line_0153" x1="564" y1="348" x2="564" y2="302" stroke="#000" stroke-width="1" data-conf="0.0408"/>
    <line id="line_0154" x1="470" y1="344" x2="470" y2="297" stroke="#000" stroke-width="1" data-conf="0.0408"/>
    <line id="line_0155" x1="550" y1="300" x2="550" y2="348" stroke="#000" stroke-width="1" data-conf="0.0408"/>
    <line id="line_0156" x1="246" y1="345" x2="246" y2="297" stroke="#000" stroke-width="1" data-conf="0.0408"/>
    <line id="line_0157" x1="272" y1="457" x2="272" y2="411" stroke="#000" stroke-width="1" data-conf="0.0408"/>
    <line id="line_0158" x1="294" y1="299" x2="294" y2="347" stroke="#000" stroke-width="1" data-conf="0.0408"/>
    <line id="line_0159" x1="812" y1="454" x2="764" y2="454" stroke="#000" stroke-width="1" data-conf="0.0408"/>
    <line id="line_0160" x1="420" y1="342" x2="420" y2="296" stroke="#000" stroke-width="1" data-conf="0.0408"/>
    <line id="line_0161" x1="502" y1="411" x2="502" y2="457" stroke="#000" stroke-width="1" data-conf="0.0398"/>
    <line id="line_0162" x1="528" y1="457" x2="528" y2="412" stroke="#000" stroke-width="1" data-conf="0.0397"/>
    <line id="line_0163" x1="267" y1="192" x2="267" y2="238" stroke="#000" stroke-width="1" data-conf="0.0397"/>
    <line id="line_0164" x1="262" y1="299" x2="262" y2="345" stroke="#000" stroke-width="1" data-conf="0.0397"/>
    <line id="line_0165" x1="305" y1="342" x2="305" y2="296" stroke="#000" stroke-width="1" data-conf="0.0397"/>
    <line id="line_0166" x1="46" y1="507" x2="1" y2="507" stroke="#000" stroke-width="1" data-conf="0.0397"/>
    <line id="line_0167" x1="473" y1="297" x2="473" y2="344" stroke="#000" stroke-width="1" data-conf="0.0397"/>
    <line id="line_0168" x1="510" y1="486" x2="510" y2="532" stroke="#000" stroke-width="1" data-conf="0.0397"/>
    <line id="line_0169" x1="574" y1="70" x2="617" y2="51" stroke="#000" stroke-width="1" data-conf="0.0394"/>
    <line id="line_0170" x1="1" y1="494" x2="46" y2="499" stroke="#000" stroke-width="1" data-conf="0.0389"/>
    <line id="line_0171" x1="272" y1="238" x2="272" y2="193" stroke="#000" stroke-width="1" data-conf="0.0386"/>
    <line id="line_0172" x1="272" y1="348" x2="272" y2="302" stroke="#000" stroke-width="1" data-conf="0.0386"/>
    <line id="line_0173" x1="291" y1="86" x2="291" y2="131" stroke="#000" stroke-width="1" data-conf="0.0386"/>
    <line id="line_0174" x1="596" y1="409" x2="596" y2="454" stroke="#000" stroke-width="1" data-conf="0.0386"/>
    <line id="line_0175" x1="291" y1="233" x2="291" y2="188" stroke="#000" stroke-width="1" data-conf="0.0386"/>
    <line id="line_0176" x1="640" y1="19" x2="683" y2="28" stroke="#000" stroke-width="1" data-conf="0.0378"/>
    <line id="line_0177" x1="636" y1="78" x2="681" y2="78" stroke="#000" stroke-width="1" data-conf="0.0376"/>
    <line id="line_0178" x1="497" y1="86" x2="497" y2="131" stroke="#000" stroke-width="1" data-conf="0.0376"/>
    <line id="line_0179" x1="552" y1="412" x2="552" y2="456" stroke="#000" stroke-width="1" data-conf="0.0376"/>
    <line id="line_0180" x1="470" y1="228" x2="470" y2="185" stroke="#000" stroke-width="1" data-conf="0.0376"/>
    <line id="line_0181" x1="548" y1="132" x2="548" y2="89" stroke="#000" stroke-width="1" data-conf="0.0376"/>
    <line id="line_0182" x1="758" y1="86" x2="758" y2="129" stroke="#000" stroke-width="1" data-conf="0.0376"/>
    <line id="line_0183" x1="476" y1="344" x2="476" y2="300" stroke="#000" stroke-width="1" data-conf="0.0376"/>
    <line id="line_0184" x1="681" y1="30" x2="723" y2="38" stroke="#000" stroke-width="1" data-conf="0.0366"/>
    <line id="line_0185" x1="731" y1="227" x2="731" y2="185" stroke="#000" stroke-width="1" data-conf="0.0366"/>
    <line id="line_0186" x1="406" y1="302" x2="406" y2="345" stroke="#000" stroke-width="1" data-conf="0.0365"/>
    <line id="line_0187" x1="545" y1="89" x2="545" y2="131" stroke="#000" stroke-width="1" data-conf="0.0365"/>
    <line id="line_0188" x1="294" y1="131" x2="294" y2="89" stroke="#000" stroke-width="1" data-conf="0.0365"/>
    <line id="line_0189" x1="385" y1="345" x2="385" y2="302" stroke="#000" stroke-width="1" data-conf="0.0365"/>
    <line id="line_0190" x1="539" y1="3" x2="497" y2="3" stroke="#000" stroke-width="1" data-conf="0.0365"/>
    <line id="line_0191" x1="246" y1="233" x2="246" y2="192" stroke="#000" stroke-width="1" data-conf="0.0365"/>
    <line id="line_0192" x1="571" y1="454" x2="571" y2="412" stroke="#000" stroke-width="1" data-conf="0.0365"/>
    <line id="line_0193" x1="121" y1="65" x2="152" y2="36" stroke="#000" stroke-width="1" data-conf="0.0356"/>
    <line id="line_0194" x1="73" y1="470" x2="78" y2="512" stroke="#000" stroke-width="1" data-conf="0.0356"/>
    <line id="line_0195" x1="798" y1="134" x2="756" y2="134" stroke="#000" stroke-width="1" data-conf="0.0355"/>
    <line id="line_0196" x1="284" y1="89" x2="284" y2="131" stroke="#000" stroke-width="1" data-conf="0.0354"/>
    <line id="line_0197" x1="764" y1="296" x2="806" y2="296" stroke="#000" stroke-width="1" data-conf="0.0354"/>
    <line id="line_0198" x1="523" y1="416" x2="523" y2="457" stroke="#000" stroke-width="1" data-conf="0.0354"/>
    <line id="line_0199" x1="246" y1="89" x2="246" y2="131" stroke="#000" stroke-width="1" data-conf="0.0354"/>
    <line id="line_0200" x1="411" y1="342" x2="411" y2="302" stroke="#000" stroke-width="1" data-conf="0.0354"/>
    <line id="line_0201" x1="297" y1="236" x2="297" y2="195" stroke="#000" stroke-width="1" data-conf="0.0354"/>
    <line id="line_0202" x1="416" y1="302" x2="416" y2="342" stroke="#000" stroke-width="1" data-conf="0.0354"/>
    <line id="line_0203" x1="553" y1="236" x2="553" y2="193" stroke="#000" stroke-width="1" data-conf="0.0354"/>
    <line id="line_0204" x1="553" y1="344" x2="553" y2="302" stroke="#000" stroke-width="1" data-conf="0.0354"/>
    <line id="line_0205" x1="760" y1="187" x2="760" y2="227" stroke="#000" stroke-width="1" data-conf="0.0354"/>
    <line id="line_0206" x1="297" y1="345" x2="297" y2="304" stroke="#000" stroke-width="1" data-conf="0.0354"/>
    <line id="line_0207" x1="531" y1="62" x2="489" y2="62" stroke="#000" stroke-width="1" data-conf="0.0354"/>
    <line id="line_0208" x1="281" y1="65" x2="238" y2="65" stroke="#000" stroke-width="1" data-conf="0.0354"/>
    <line id="line_0209" x1="278" y1="169" x2="240" y2="174" stroke="#000" stroke-width="1" data-conf="0.0346"/>
    <line id="line_0210" x1="502" y1="89" x2="542" y2="89" stroke="#000" stroke-width="1" data-conf="0.0344"/>
    <line id="line_0211" x1="534" y1="91" x2="534" y2="131" stroke="#000" stroke-width="1" data-conf="0.0344"/>
    <line id="line_0212" x1="268" y1="129" x2="268" y2="89" stroke="#000" stroke-width="1" data-conf="0.0344"/>
    <line id="line_0213" x1="41" y1="500" x2="1" y2="500" stroke="#000" stroke-width="1" data-conf="0.0344"/>
    <line id="line_0214" x1="473" y1="187" x2="473" y2="227" stroke="#000" stroke-width="1" data-conf="0.0344"/>
    <line id="line_0215" x1="737" y1="227" x2="737" y2="187" stroke="#000" stroke-width="1" data-conf="0.0344"/>
    <line id="line_0216" x1="380" y1="304" x2="380" y2="344" stroke="#000" stroke-width="1" data-conf="0.0343"/>
    <line id="line_0217" x1="761" y1="81" x2="801" y2="81" stroke="#000" stroke-width="1" data-conf="0.0343"/>
    <line id="line_0218" x1="476" y1="227" x2="476" y2="187" stroke="#000" stroke-width="1" data-conf="0.0343"/>
    <line id="line_0219" x1="288" y1="131" x2="288" y2="92" stroke="#000" stroke-width="1" data-conf="0.0333"/>
    <line id="line_0220" x1="771" y1="92" x2="771" y2="131" stroke="#000" stroke-width="1" data-conf="0.0333"/>
    <line id="line_0221" x1="566" y1="456" x2="566" y2="417" stroke="#000" stroke-width="1" data-conf="0.0333"/>
    <line id="line_0222" x1="696" y1="457" x2="734" y2="457" stroke="#000" stroke-width="1" data-conf="0.0333"/>
    <line id="line_0223" x1="302" y1="408" x2="302" y2="446" stroke="#000" stroke-width="1" data-conf="0.0333"/>
    <line id="line_0224" x1="555" y1="454" x2="555" y2="416" stroke="#000" stroke-width="1" data-conf="0.0333"/>
    <line id="line_0225" x1="358" y1="406" x2="358" y2="446" stroke="#000" stroke-width="1" data-conf="0.0333"/>
    <line id="line_0226" x1="683" y1="345" x2="721" y2="345" stroke="#000" stroke-width="1" data-conf="0.0333"/>
    <line id="line_0227" x1="720" y1="185" x2="683" y2="196" stroke="#000" stroke-width="1" data-conf="0.0327"/>
    <line id="line_0228" x1="457" y1="267" x2="494" y2="267" stroke="#000" stroke-width="1" data-conf="0.0323"/>
    <line id="line_0229" x1="787" y1="126" x2="787" y2="88" stroke="#000" stroke-width="1" data-conf="0.0323"/>
    <line id="line_0230" x1="918" y1="395" x2="956" y2="388" stroke="#000" stroke-width="1" data-conf="0.0323"/>
    <line id="line_0231" x1="540" y1="131" x2="540" y2="92" stroke="#000" stroke-width="1" data-conf="0.0322"/>
    <line id="line_0232" x1="726" y1="265" x2="763" y2="265" stroke="#000" stroke-width="1" data-conf="0.0322"/>
    <line id="line_0233" x1="376" y1="265" x2="412" y2="265" stroke="#000" stroke-width="1" data-conf="0.0322"/>
    <line id="line_0234" x1="686" y1="265" x2="723" y2="265" stroke="#000" stroke-width="1" data-conf="0.0322"/>
    <line id="line_0235" x1="796" y1="84" x2="758" y2="84" stroke="#000" stroke-width="1" data-conf="0.0322"/>
    <line id="line_0236" x1="748" y1="129" x2="712" y2="129" stroke="#000" stroke-width="1" data-conf="0.0322"/>
    <line id="line_0237" x1="376" y1="499" x2="353" y2="470" stroke="#000" stroke-width="1" data-conf="0.0322"/>
    <line id="line_0238" x1="403" y1="486" x2="403" y2="524" stroke="#000" stroke-width="1" data-conf="0.0322"/>
    <line id="line_0239" x1="310" y1="345" x2="310" y2="307" stroke="#000" stroke-width="1" data-conf="0.0322"/>
    <line id="line_0240" x1="812" y1="75" x2="774" y2="75" stroke="#000" stroke-width="1" data-conf="0.0322"/>
    <line id="line_0241" x1="678" y1="195" x2="641" y2="195" stroke="#000" stroke-width="1" data-conf="0.0322"/>
    <line id="line_0242" x1="900" y1="508" x2="884" y2="542" stroke="#000" stroke-width="1" data-conf="0.0317"/>
    <line id="line_0243" x1="878" y1="537" x2="896" y2="505" stroke="#000" stroke-width="1" data-conf="0.0314"/>
    <line id="line_0244" x1="459" y1="185" x2="425" y2="196" stroke="#000" stroke-width="1" data-conf="0.0312"/>
    <line id="line_0245" x1="224" y1="139" x2="188" y2="139" stroke="#000" stroke-width="1" data-conf="0.0311"/>
    <line id="line_0246" x1="265" y1="94" x2="265" y2="131" stroke="#000" stroke-width="1" data-conf="0.0311"/>
    <line id="line_0247" x1="771" y1="241" x2="806" y2="241" stroke="#000" stroke-width="1" data-conf="0.0311"/>
    <line id="line_0248" x1="281" y1="131" x2="281" y2="94" stroke="#000" stroke-width="1" data-conf="0.0311"/>
    <line id="line_0249" x1="776" y1="470" x2="812" y2="470" stroke="#000" stroke-width="1" data-conf="0.0311"/>
    <line id="line_0250" x1="803" y1="246" x2="766" y2="246" stroke="#000" stroke-width="1" data-conf="0.0311"/>
    <line id="line_0251" x1="619" y1="65" x2="587" y2="80" stroke="#000" stroke-width="1" data-conf="0.0304"/>
    <line id="line_0252" x1="691" y1="169" x2="654" y2="169" stroke="#000" stroke-width="1" data-conf="0.0303"/>
    <line id="line_0253" x1="499" y1="185" x2="499" y2="220" stroke="#000" stroke-width="1" data-conf="0.0302"/>
    <line id="line_0254" x1="617" y1="137" x2="582" y2="137" stroke="#000" stroke-width="1" data-conf="0.0301"/>
    <line id="line_0255" x1="515" y1="96" x2="515" y2="131" stroke="#000" stroke-width="1" data-conf="0.0301"/>
    <line id="line_0256" x1="766" y1="230" x2="731" y2="230" stroke="#000" stroke-width="1" data-conf="0.0301"/>
    <line id="line_0257" x1="633" y1="313" x2="633" y2="348" stroke="#000" stroke-width="1" data-conf="0.0301"/>
    <line id="line_0258" x1="646" y1="265" x2="681" y2="265" stroke="#000" stroke-width="1" data-conf="0.0301"/>
    <line id="line_0259" x1="417" y1="382" x2="451" y2="382" stroke="#000" stroke-width="1" data-conf="0.0301"/>
    <line id="line_0260" x1="732" y1="382" x2="766" y2="382" stroke="#000" stroke-width="1" data-conf="0.0301"/>
    <line id="line_0261" x1="392" y1="160" x2="427" y2="160" stroke="#000" stroke-width="1" data-conf="0.0301"/>
    <line id="line_0262" x1="638" y1="348" x2="638" y2="313" stroke="#000" stroke-width="1" data-conf="0.0300"/>
    <line id="line_0263" x1="462" y1="72" x2="492" y2="56" stroke="#000" stroke-width="1" data-conf="0.0297"/>
    <line id="line_0264" x1="798" y1="129" x2="796" y2="94" stroke="#000" stroke-width="1" data-conf="0.0297"/>
    <line id="line_0265" x1="161" y1="270" x2="193" y2="259" stroke="#000" stroke-width="1" data-conf="0.0293"/>
    <line id="line_0266" x1="520" y1="131" x2="520" y2="97" stroke="#000" stroke-width="1" data-conf="0.0290"/>
    <line id="line_0267" x1="361" y1="347" x2="361" y2="313" stroke="#000" stroke-width="1" data-conf="0.0290"/>
    <line id="line_0268" x1="769" y1="462" x2="803" y2="462" stroke="#000" stroke-width="1" data-conf="0.0290"/>
    <line id="line_0269" x1="536" y1="179" x2="502" y2="179" stroke="#000" stroke-width="1" data-conf="0.0290"/>
    <line id="line_0270" x1="249" y1="131" x2="249" y2="97" stroke="#000" stroke-width="1" data-conf="0.0290"/>
    <line id="line_0271" x1="931" y1="505" x2="913" y2="534" stroke="#000" stroke-width="1" data-conf="0.0289"/>
    <line id="line_0272" x1="70" y1="32" x2="105" y2="28" stroke="#000" stroke-width="1" data-conf="0.0286"/>
    <line id="line_0273" x1="835" y1="540" x2="852" y2="513" stroke="#000" stroke-width="1" data-conf="0.0282"/>
    <line id="line_0274" x1="163" y1="374" x2="195" y2="369" stroke="#000" stroke-width="1" data-conf="0.0281"/>
    <line id="line_0275" x1="702" y1="102" x2="702" y2="68" stroke="#000" stroke-width="1" data-conf="0.0280"/>
    <line id="line_0276" x1="380" y1="116" x2="380" y2="83" stroke="#000" stroke-width="1" data-conf="0.0280"/>
    <line id="line_0277" x1="684" y1="57" x2="652" y2="57" stroke="#000" stroke-width="1" data-conf="0.0280"/>
    <line id="line_0278" x1="659" y1="313" x2="659" y2="347" stroke="#000" stroke-width="1" data-conf="0.0279"/>
    <line id="line_0279" x1="502" y1="227" x2="502" y2="193" stroke="#000" stroke-width="1" data-conf="0.0279"/>
    <line id="line_0280" x1="964" y1="419" x2="995" y2="432" stroke="#000" stroke-width="1" data-conf="0.0279"/>
    <line id="line_0281" x1="531" y1="128" x2="531" y2="96" stroke="#000" stroke-width="1" data-conf="0.0279"/>
    <line id="line_0282" x1="673" y1="83" x2="641" y2="83" stroke="#000" stroke-width="1" data-conf="0.0279"/>
    <line id="line_0283" x1="504" y1="456" x2="504" y2="422" stroke="#000" stroke-width="1" data-conf="0.0279"/>
    <line id="line_0284" x1="374" y1="86" x2="374" y2="118" stroke="#000" stroke-width="1" data-conf="0.0279"/>
    <line id="line_0285" x1="414" y1="193" x2="414" y2="225" stroke="#000" stroke-width="1" data-conf="0.0279"/>
    <line id="line_0286" x1="372" y1="536" x2="372" y2="502" stroke="#000" stroke-width="1" data-conf="0.0279"/>
    <line id="line_0287" x1="806" y1="488" x2="777" y2="473" stroke="#000" stroke-width="1" data-conf="0.0274"/>
    <line id="line_0288" x1="668" y1="313" x2="668" y2="344" stroke="#000" stroke-width="1" data-conf="0.0269"/>
    <line id="line_0289" x1="609" y1="217" x2="609" y2="187" stroke="#000" stroke-width="1" data-conf="0.0268"/>
    <line id="line_0290" x1="744" y1="504" x2="713" y2="504" stroke="#000" stroke-width="1" data-conf="0.0268"/>
    <line id="line_0291" x1="262" y1="128" x2="262" y2="97" stroke="#000" stroke-width="1" data-conf="0.0268"/>
    <line id="line_0292" x1="86" y1="492" x2="118" y2="492" stroke="#000" stroke-width="1" data-conf="0.0268"/>
    <line id="line_0293" x1="729" y1="558" x2="699" y2="552" stroke="#000" stroke-width="1" data-conf="0.0266"/>
    <line id="line_0294" x1="958" y1="409" x2="929" y2="422" stroke="#000" stroke-width="1" data-conf="0.0265"/>
    <line id="line_0295" x1="888" y1="508" x2="873" y2="537" stroke="#000" stroke-width="1" data-conf="0.0264"/>
    <line id="line_0296" x1="156" y1="329" x2="129" y2="344" stroke="#000" stroke-width="1" data-conf="0.0264"/>
    <line id="line_0297" x1="688" y1="108" x2="718" y2="105" stroke="#000" stroke-width="1" data-conf="0.0263"/>
    <line id="line_0298" x1="952" y1="513" x2="936" y2="540" stroke="#000" stroke-width="1" data-conf="0.0260"/>
    <line id="line_0299" x1="768" y1="380" x2="768" y2="350" stroke="#000" stroke-width="1" data-conf="0.0259"/>
    <line id="line_0300" x1="936" y1="548" x2="950" y2="524" stroke="#000" stroke-width="1" data-conf="0.0259"/>
    <line id="line_0301" x1="764" y1="264" x2="764" y2="233" stroke="#000" stroke-width="1" data-conf="0.0258"/>
    <line id="line_0302" x1="456" y1="233" x2="456" y2="262" stroke="#000" stroke-width="1" data-conf="0.0258"/>
    <line id="line_0303" x1="731" y1="350" x2="731" y2="380" stroke="#000" stroke-width="1" data-conf="0.0258"/>
    <line id="line_0304" x1="417" y1="348" x2="417" y2="379" stroke="#000" stroke-width="1" data-conf="0.0258"/>
    <line id="line_0305" x1="648" y1="352" x2="648" y2="382" stroke="#000" stroke-width="1" data-conf="0.0258"/>
    <line id="line_0306" x1="422" y1="262" x2="422" y2="232" stroke="#000" stroke-width="1" data-conf="0.0258"/>
    <line id="line_0307" x1="372" y1="377" x2="372" y2="348" stroke="#000" stroke-width="1" data-conf="0.0258"/>
    <line id="line_0308" x1="846" y1="486" x2="867" y2="465" stroke="#000" stroke-width="1" data-conf="0.0258"/>
    <line id="line_0309" x1="446" y1="128" x2="476" y2="128" stroke="#000" stroke-width="1" data-conf="0.0258"/>
    <line id="line_0310" x1="500" y1="128" x2="500" y2="97" stroke="#000" stroke-width="1" data-conf="0.0258"/>
    <line id="line_0311" x1="790" y1="96" x2="790" y2="126" stroke="#000" stroke-width="1" data-conf="0.0258"/>
    <line id="line_0312" x1="398" y1="344" x2="398" y2="313" stroke="#000" stroke-width="1" data-conf="0.0258"/>
    <line id="line_0313" x1="499" y1="486" x2="499" y2="516" stroke="#000" stroke-width="1" data-conf="0.0258"/>
  </g>
  <g id="metadata" data-source="pipeline" data-ortho-width="1011" data-ortho-height="578" data-units="px" data-rectification-score="0.3981"/>
</svg>