0
SECTION
2
ENTITIES
0
LWPOLYLINE
8
FACADE_OUTLINE
90
4
70
1
10
0.000000
20
0.000000
10
720.000000
20
0.000000
10
720.000000
20
1024.000000
10
0.000000
20
1024.000000
0
LWPOLYLINE
8
WINDOWS
90
4
70
1
10
0.000000
20
22.000000
10
720.000000
20
22.000000
10
720.000000
20
323.000000
10
0.000000
20
323.000000
0
LWPOLYLINE
8
WINDOWS
90
4
70
1
10
555.000000
20
121.000000
10
630.000000
20
121.000000
10
630.000000
20
224.000000
10
555.000000
20
224.000000
0
LWPOLYLINE
8
WINDOWS
90
4
70
1
10
41.000000
20
228.000000
10
198.000000
20
228.000000
10
198.000000
20
291.000000
10
41.000000
20
291.000000
0
LWPOLYLINE
8
WINDOWS
90
4
70
1
10
524.000000
20
230.000000
10
691.000000
20
230.000000
10
691.000000
20
313.000000
10
524.000000
20
313.000000
0
LWPOLYLINE
8
WINDOWS
90
4
70
1
10
505.000000
20
422.000000
10
720.000000
20
422.000000
10
720.000000
20
561.000000
10
505.000000
20
561.000000
0
LWPOLYLINE
8
WINDOWS
90
4
70
1
10
59.000000
20
424.000000
10
689.000000
20
424.000000
10
689.000000
20
712.000000
10
59.000000
20
712.000000
0
LWPOLYLINE
8
WINDOWS
90
4
70
1
10
289.000000
20
424.000000
10
430.000000
20
424.000000
10
430.000000
20
489.000000
10
289.000000
20
489.000000
0
LWPOLYLINE
8
WINDOWS
90
4
70
1
10
0.000000
20
425.000000
10
259.000000
20
425.000000
10
259.000000
20
604.000000
10
0.000000
20
604.000000
0
LWPOLYLINE
8
WINDOWS
90
4
70
1
10
326.000000
20
449.000000
10
395.000000
20
449.000000
10
395.000000
20
483.000000
10
326.000000
20
483.000000
0
LWPOLYLINE
8
WINDOWS
90
4
70
1
10
524.000000
20
499.000000
10
694.000000
20
499.000000
10
694.000000
20
638.000000
10
524.000000
20
638.000000
0
LWPOLYLINE
8
WINDOWS
90
4
70
1
10
124.000000
20
585.000000
10
174.000000
20
585.000000
10
174.000000
20
638.000000
10
124.000000
20
638.000000
0
LWPOLYLINE
8
WINDOWS
90
4
70
1
10
41.000000
20
585.000000
10
193.000000
20
585.000000
10
193.000000
20
649.000000
10
41.000000
20
649.000000
0
LWPOLYLINE
8
WINDOWS
90
4
70
1
10
129.000000
20
590.000000
10
171.000000
20
590.000000
10
171.000000
20
633.000000
10
129.000000
20
633.000000
0
LWPOLYLINE
8
WINDOWS
90
4
70
1
10
0.000000
20
723.000000
10
478.000000
20
723.000000
10
478.000000
20
1017.000000
10
0.000000
20
1017.000000
0
LWPOLYLINE
8
WINDOWS
90
4
70
1
10
286.000000
20
737.000000
10
428.000000
20
737.000000
10
428.000000
20
806.000000
10
286.000000
20
806.000000
0
LWPOLYLINE
8
WINDOWS
90
4
70
1
10
88.000000
20
739.000000
10
137.000000
20
739.000000
10
137.000000
20
772.000000
10
88.000000
20
772.000000
0
LWPOLYLINE
8
DOORS
90
4
70
1
10
321.000000
20
497.000000
10
355.000000
20
497.000000
10
355.000000
20
585.000000
10
321.000000
20
585.000000
0
LWPOLYLINE
8
DOORS
90
4
70
1
10
473.000000
20
521.000000
10
720.000000
20
521.000000
10
720.000000
20
1024.000000
10
473.000000
20
1024.000000
0
LWPOLYLINE
8
DOORS
90
4
70
1
10
593.000000
20
790.000000
10
622.000000
20
790.000000
10
622.000000
20
880.000000
10
593.000000
20
880.000000
0
LWPOLYLINE
8
DOORS
90
4
70
1
10
86.000000
20
796.000000
10
124.000000
20
796.000000
10
124.000000
20
883.000000
10
86.000000
20
883.000000
0
LWPOLYLINE
8
DOORS
90
4
70
1
10
131.000000
20
798.000000
10
163.000000
20
798.000000
10
163.000000
20
883.000000
10
131.000000
20
883.000000
0
LINE
8
LINES
10
652.000000
20
1022.000000
30
0.0
11
716.000000
21
515.000000
31
0.0
0
LINE
8
LINES
10
227.000000
20
78.000000
30
0.0
11
694.000000
21
78.000000
31
0.0
0
LINE
8
LINES
10
193.000000
20
329.000000
30
0.0
11
526.000000
21
329.000000
31
0.0
0
LINE
8
LINES
10
488.000000
20
116.000000
30
0.0
11
227.000000
21
116.000000
31
0.0
0
LINE
8
LINES
10
228.000000
20
112.000000
30
0.0
11
488.000000
21
112.000000
31
0.0
0
LINE
8
LINES
10
488.000000
20
86.000000
30
0.0
11
228.000000
21
86.000000
31
0.0
0
LINE
8
LINES
10
230.000000
20
686.000000
30
0.0
11
488.000000
21
686.000000
31
0.0
0
LINE
8
LINES
10
435.000000
20
728.000000
30
0.0
11
435.000000
21
982.000000
31
0.0
0
LINE
8
LINES
10
483.000000
20
688.000000
30
0.0
11
233.000000
21
688.000000
31
0.0
0
LINE
8
LINES
10
491.000000
20
81.000000
30
0.0
11
491.000000
21
328.000000
31
0.0
0
LINE
8
LINES
10
281.000000
20
972.000000
30
0.0
11
281.000000
21
729.000000
31
0.0
0
LINE
8
LINES
10
25.000000
20
78.000000
30
0.0
11
25.000000
21
299.000000
31
0.0
0
LINE
8
LINES
10
443.000000
20
80.000000
30
0.0
11
228.000000
21
80.000000
31
0.0
0
LINE
8
LINES
10
227.000000
20
328.000000
30
0.0
11
227.000000
21
121.000000
31
0.0
0
LINE
8
LINES
10
25.000000
20
73.000000
30
0.0
11
227.000000
21
73.000000
31
0.0
0
LINE
8
LINES
10
24.000000
20
438.000000
30
0.0
11
24.000000
21
638.000000
31
0.0
0
LINE
8
LINES
10
233.000000
20
131.000000
30
0.0
11
233.000000
21
328.000000
31
0.0
0
LINE
8
LINES
10
448.000000
20
131.000000
30
0.0
11
448.000000
21
328.000000
31
0.0
0
LINE
8
LINES
10
278.000000
20
131.000000
30
0.0
11
278.000000
21
326.000000
31
0.0
0
LINE
8
LINES
10
481.000000
20
326.000000
30
0.0
11
481.000000
21
131.000000
31
0.0
0
LINE
8
LINES
10
404.000000
20
131.000000
30
0.0
11
404.000000
21
326.000000
31
0.0
0
LINE
8
LINES
10
441.000000
20
326.000000
30
0.0
11
441.000000
21
131.000000
31
0.0
0
LINE
8
LINES
10
264.000000
20
694.000000
30
0.0
11
454.000000
21
694.000000
31
0.0
0
LINE
8
LINES
10
678.000000
20
78.000000
30
0.0
11
492.000000
21
78.000000
31
0.0
0
LINE
8
LINES
10
651.000000
20
1017.000000
30
0.0
11
472.000000
21
1017.000000
31
0.0
0
LINE
8
LINES
10
430.000000
20
337.000000
30
0.0
11
260.000000
21
337.000000
31
0.0
0
LINE
8
LINES
10
363.000000
20
588.000000
30
0.0
11
515.000000
21
649.000000
31
0.0
0
LINE
8
LINES
10
212.000000
20
652.000000
30
0.0
11
361.000000
21
587.000000
31
0.0
0
LINE
8
LINES
10
0.000000
20
870.000000
30
0.0
11
0.000000
21
1022.000000
31
0.0
0
LINE
8
LINES
10
539.000000
20
640.000000
30
0.0
11
691.000000
21
640.000000
31
0.0
0
LINE
8
LINES
10
41.000000
20
643.000000
30
0.0
11
192.000000
21
643.000000
31
0.0
0
LINE
8
LINES
10
540.000000
20
230.000000
30
0.0
11
689.000000
21
230.000000
31
0.0
0
LINE
8
LINES
10
41.000000
20
228.000000
30
0.0
11
190.000000
21
228.000000
31
0.0
0
LINE
8
LINES
10
41.000000
20
569.000000
30
0.0
11
188.000000
21
569.000000
31
0.0
0
LINE
8
LINES
10
542.000000
20
300.000000
30
0.0
11
691.000000
21
300.000000
31
0.0
0
LINE
8
LINES
10
43.000000
20
300.000000
30
0.0
11
192.000000
21
300.000000
31
0.0
0
LINE
8
LINES
10
544.000000
20
566.000000
30
0.0
11
691.000000
21
566.000000
31
0.0
0
LINE
8
LINES
10
283.000000
20
800.000000
30
0.0
11
430.000000
21
800.000000
31
0.0
0
LINE
8
LINES
10
633.000000
20
736.000000
30
0.0
11
633.000000
21
883.000000
31
0.0
0
LINE
8
LINES
10
284.000000
20
814.000000
30
0.0
11
430.000000
21
814.000000
31
0.0
0
LINE
8
LINES
10
284.000000
20
734.000000
30
0.0
11
430.000000
21
734.000000
31
0.0
0
LINE
8
LINES
10
44.000000
20
657.000000
30
0.0
11
188.000000
21
657.000000
31
0.0
0
LINE
8
LINES
10
188.000000
20
305.000000
30
0.0
11
43.000000
21
305.000000
31
0.0
0
LINE
8
LINES
10
542.000000
20
652.000000
30
0.0
11
686.000000
21
652.000000
31
0.0
0
LINE
8
LINES
10
428.000000
20
811.000000
30
0.0
11
284.000000
21
811.000000
31
0.0
0
LINE
8
LINES
10
284.000000
20
804.000000
30
0.0
11
428.000000
21
804.000000
31
0.0
0
LINE
8
LINES
10
494.000000
20
436.000000
30
0.0
11
494.000000
21
580.000000
31
0.0
0
LINE
8
LINES
10
686.000000
20
643.000000
30
0.0
11
542.000000
21
643.000000
31
0.0
0
LINE
8
LINES
10
544.000000
20
316.000000
30
0.0
11
686.000000
21
316.000000
31
0.0
0
LINE
8
LINES
10
686.000000
20
304.000000
30
0.0
11
544.000000
21
304.000000
31
0.0
0
LINE
8
LINES
10
188.000000
20
236.000000
30
0.0
11
46.000000
21
236.000000
31
0.0
0
LINE
8
LINES
10
48.000000
20
315.000000
30
0.0
11
188.000000
21
315.000000
31
0.0
0
LINE
8
LINES
10
270.000000
20
326.000000
30
0.0
11
270.000000
21
187.000000
31
0.0
0
LINE
8
LINES
10
489.000000
20
582.000000
30
0.0
11
489.000000
21
443.000000
31
0.0
0
LINE
8
LINES
10
424.000000
20
801.000000
30
0.0
11
284.000000
21
801.000000
31
0.0
0
LINE
8
LINES
10
291.000000
20
424.000000
30
0.0
11
428.000000
21
424.000000
31
0.0
0
LINE
8
LINES
10
686.000000
20
238.000000
30
0.0
11
547.000000
21
238.000000
31
0.0
0
LINE
8
LINES
10
182.000000
20
579.000000
30
0.0
11
46.000000
21
579.000000
31
0.0
0
LINE
8
LINES
10
512.000000
20
966.000000
30
0.0
11
646.000000
21
966.000000
31
0.0
0
LINE
8
LINES
10
683.000000
20
574.000000
30
0.0
11
547.000000
21
574.000000
31
0.0
0
LINE
8
LINES
10
57.000000
20
425.000000
30
0.0
11
192.000000
21
425.000000
31
0.0
0
LINE
8
LINES
10
531.000000
20
422.000000
30
0.0
11
662.000000
21
422.000000
31
0.0
0
LINE
8
LINES
10
632.000000
20
430.000000
30
0.0
11
632.000000
21
563.000000
31
0.0
0
LINE
8
LINES
10
344.000000
20
603.000000
30
0.0
11
222.000000
21
654.000000
31
0.0
0
LINE
8
LINES
10
396.000000
20
438.000000
30
0.0
11
396.000000
21
571.000000
31
0.0
0
LINE
8
LINES
10
1.000000
20
734.000000
30
0.0
11
131.000000
21
734.000000
31
0.0
0
LINE
8
LINES
10
627.000000
20
563.000000
30
0.0
11
627.000000
21
433.000000
31
0.0
0
LINE
8
LINES
10
288.000000
20
83.000000
30
0.0
11
412.000000
21
83.000000
31
0.0
0
LINE
8
LINES
10
225.000000
20
588.000000
30
0.0
11
348.000000
21
588.000000
31
0.0
0
LINE
8
LINES
10
372.000000
20
668.000000
30
0.0
11
497.000000
21
668.000000
31
0.0
0
LINE
8
LINES
10
350.000000
20
596.000000
30
0.0
11
227.000000
21
596.000000
31
0.0
0
LINE
8
LINES
10
374.000000
20
588.000000
30
0.0
11
492.000000
21
588.000000
31
0.0
0
LINE
8
LINES
10
92.000000
20
995.000000
30
0.0
11
211.000000
21
995.000000
31
0.0
0
LINE
8
LINES
10
627.000000
20
878.000000
30
0.0
11
627.000000
21
761.000000
31
0.0
0
LINE
8
LINES
10
228.000000
20
668.000000
30
0.0
11
348.000000
21
668.000000
31
0.0
0
LINE
8
LINES
10
62.000000
20
670.000000
30
0.0
11
182.000000
21
670.000000
31
0.0
0
LINE
8
LINES
10
67.000000
20
94.000000
30
0.0
11
182.000000
21
94.000000
31
0.0
0
LINE
8
LINES
10
358.000000
20
20.000000
30
0.0
11
460.000000
21
76.000000
31
0.0
0
LINE
8
LINES
10
491.000000
20
598.000000
30
0.0
11
376.000000
21
598.000000
31
0.0
0
LINE
8
LINES
10
536.000000
20
97.000000
30
0.0
11
651.000000
21
97.000000
31
0.0
0
LINE
8
LINES
10
486.000000
20
646.000000
30
0.0
11
382.000000
21
603.000000
31
0.0
0
LINE
8
LINES
10
182.000000
20
76.000000
30
0.0
11
67.000000
21
76.000000
31
0.0
0
LINE
8
LINES
10
259.000000
20
75.000000
30
0.0
11
358.000000
21
19.000000
31
0.0
0
LINE
8
LINES
10
649.000000
20
102.000000
30
0.0
11
537.000000
21
102.000000
31
0.0
0
LINE
8
LINES
10
182.000000
20
100.000000
30
0.0
11
68.000000
21
100.000000
31
0.0
0
LINE
8
LINES
10
486.000000
20
918.000000
30
0.0
11
486.000000
21
806.000000
31
0.0
0
LINE
8
LINES
10
662.000000
20
438.000000
30
0.0
11
662.000000
21
548.000000
31
0.0
0
LINE
8
LINES
10
232.000000
20
993.000000
30
0.0
11
337.000000
21
969.000000
31
0.0
0
LINE
8
LINES
10
398.000000
20
793.000000
30
0.0
11
291.000000
21
793.000000
31
0.0
0
LINE
8
LINES
10
86.000000
20
225.000000
30
0.0
11
86.000000
21
118.000000
31
0.0
0
LINE
8
LINES
10
630.000000
20
121.000000
30
0.0
11
630.000000
21
227.000000
31
0.0
0
LINE
8
LINES
10
451.000000
20
80.000000
30
0.0
11
358.000000
21
30.000000
31
0.0
0
LINE
8
LINES
10
358.000000
20
30.000000
30
0.0
11
268.000000
21
80.000000
31
0.0
0
LINE
8
LINES
10
217.000000
20
1000.000000
30
0.0
11
113.000000
21
1000.000000
31
0.0
0
LINE
8
LINES
10
307.000000
20
728.000000
30
0.0
11
409.000000
21
728.000000
31
0.0
0
LINE
8
LINES
10
438.000000
20
697.000000
30
0.0
11
337.000000
21
697.000000
31
0.0
0
LINE
8
LINES
10
144.000000
20
646.000000
30
0.0
11
44.000000
21
646.000000
31
0.0
0
LINE
8
LINES
10
588.000000
20
731.000000
30
0.0
11
686.000000
21
731.000000
31
0.0
0
LINE
8
LINES
10
132.000000
20
734.000000
30
0.0
11
228.000000
21
734.000000
31
0.0
0
LINE
8
LINES
10
489.000000
20
731.000000
30
0.0
11
585.000000
21
731.000000
31
0.0
0
LINE
8
LINES
10
227.000000
20
120.000000
30
0.0
11
323.000000
21
120.000000
31
0.0
0
LINE
8
LINES
10
78.000000
20
108.000000
30
0.0
11
172.000000
21
108.000000
31
0.0
0
LINE
8
LINES
10
545.000000
20
110.000000
30
0.0
11
641.000000
21
110.000000
31
0.0
0
LINE
8
LINES
10
172.000000
20
112.000000
30
0.0
11
78.000000
21
112.000000
31
0.0
0
LINE
8
LINES
10
542.000000
20
665.000000
30
0.0
11
636.000000
21
665.000000
31
0.0
0
LINE
8
LINES
10
638.000000
20
112.000000
30
0.0
11
545.000000
21
112.000000
31
0.0
0
LINE
8
LINES
10
398.000000
20
120.000000
30
0.0
11
489.000000
21
120.000000
31
0.0
0
LINE
8
LINES
10
550.000000
20
888.000000
30
0.0
11
641.000000
21
888.000000
31
0.0
0
LINE
8
LINES
10
321.000000
20
124.000000
30
0.0
11
228.000000
21
124.000000
31
0.0
0
LINE
8
LINES
10
488.000000
20
124.000000
30
0.0
11
398.000000
21
124.000000
31
0.0
0
LINE
8
LINES
10
390.000000
20
499.000000
30
0.0
11
390.000000
21
588.000000
31
0.0
0
LINE
8
LINES
10
592.000000
20
878.000000
30
0.0
11
592.000000
21
790.000000
31
0.0
0
LINE
8
LINES
10
81.000000
20
892.000000
30
0.0
11
169.000000
21
892.000000
31
0.0
0
LINE
8
LINES
10
393.000000
20
587.000000
30
0.0
11
393.000000
21
499.000000
31
0.0
0
LINE
8
LINES
10
168.000000
20
894.000000
30
0.0
11
81.000000
21
894.000000
31
0.0
0
LINE
8
LINES
10
360.000000
20
585.000000
30
0.0
11
360.000000
21
499.000000
31
0.0
0
LINE
8
LINES
10
323.000000
20
587.000000
30
0.0
11
323.000000
21
500.000000
31
0.0
0
LINE
8
LINES
10
353.000000
20
500.000000
30
0.0
11
353.000000
21
587.000000
31
0.0
0
LINE
8
LINES
10
124.000000
20
798.000000
30
0.0
11
124.000000
21
883.000000
31
0.0
0
LINE
8
LINES
10
81.000000
20
899.000000
30
0.0
11
168.000000
21
899.000000
31
0.0
0
LINE
8
LINES
10
638.000000
20
884.000000
30
0.0
11
553.000000
21
884.000000
31
0.0
0
LINE
8
LINES
10
553.000000
20
896.000000
30
0.0
11
638.000000
21
896.000000
31
0.0
0
LINE
8
LINES
10
660.000000
20
939.000000
30
0.0
11
576.000000
21
939.000000
31
0.0
0
LINE
8
LINES
10
636.000000
20
902.000000
30
0.0
11
553.000000
21
902.000000
31
0.0
0
LINE
8
LINES
10
638.000000
20
892.000000
30
0.0
11
556.000000
21
892.000000
31
0.0
0
LINE
8
LINES
10
163.000000
20
905.000000
30
0.0
11
81.000000
21
905.000000
31
0.0
0
LINE
8
LINES
10
233.000000
20
942.000000
30
0.0
11
233.000000
21
859.000000
31
0.0
0
LINE
8
LINES
10
307.000000
20
977.000000
30
0.0
11
228.000000
21
998.000000
31
0.0
0
LINE
8
LINES
10
1.000000
20
784.000000
30
0.0
11
81.000000
21
784.000000
31
0.0
0
LINE
8
LINES
10
1.000000
20
833.000000
30
0.0
11
81.000000
21
833.000000
31
0.0
0
LINE
8
LINES
10
177.000000
20
979.000000
30
0.0
11
257.000000
21
969.000000
31
0.0
0
LINE
8
LINES
10
579.000000
20
950.000000
30
0.0
11
659.000000
21
950.000000
31
0.0
0
LINE
8
LINES
10
3.000000
20
881.000000
30
0.0
11
81.000000
21
881.000000
31
0.0
0
LINE
8
LINES
10
318.000000
20
275.000000
30
0.0
11
396.000000
21
275.000000
31
0.0
0
LINE
8
LINES
10
395.000000
20
273.000000
30
0.0
11
395.000000
21
195.000000
31
0.0
0
LINE
8
LINES
10
556.000000
20
121.000000
30
0.0
11
632.000000
21
121.000000
31
0.0
0
LINE
8
LINES
10
353.000000
20
198.000000
30
0.0
11
353.000000
21
273.000000
31
0.0
0
LINE
8
LINES
10
88.000000
20
120.000000
30
0.0
11
163.000000
21
120.000000
31
0.0
0
LINE
8
LINES
10
89.000000
20
177.000000
30
0.0
11
163.000000
21
177.000000
31
0.0
0
LINE
8
LINES
10
318.000000
20
500.000000
30
0.0
11
318.000000
21
576.000000
31
0.0
0
LINE
8
LINES
10
80.000000
20
1024.000000
30
0.0
11
12.000000
21
990.000000
31
0.0
0
LINE
8
LINES
10
156.000000
20
942.000000
30
0.0
11
81.000000
21
942.000000
31
0.0
0
LINE
8
LINES
10
489.000000
20
1.000000
30
0.0
11
489.000000
21
73.000000
31
0.0
0
LINE
8
LINES
10
390.000000
20
198.000000
30
0.0
11
390.000000
21
273.000000
31
0.0
0
LINE
8
LINES
10
321.000000
20
198.000000
30
0.0
11
321.000000
21
273.000000
31
0.0
0
LINE
8
LINES
10
670.000000
20
542.000000
30
0.0
11
670.000000
21
468.000000
31
0.0
0
LINE
8
LINES
10
91.000000
20
187.000000
30
0.0
11
163.000000
21
187.000000
31
0.0
0
LINE
8
LINES
10
92.000000
20
494.000000
30
0.0
11
163.000000
21
494.000000
31
0.0
0
LINE
8
LINES
10
163.000000
20
180.000000
30
0.0
11
91.000000
21
180.000000
31
0.0
0
LINE
8
LINES
10
392.000000
20
436.000000
30
0.0
11
318.000000
21
436.000000
31
0.0
0
LINE
8
LINES
10
321.000000
20
192.000000
30
0.0
11
393.000000
21
192.000000
31
0.0
0
LINE
8
LINES
10
321.000000
20
496.000000
30
0.0
11
392.000000
21
496.000000
31
0.0
0
LINE
8
LINES
10
390.000000
20
486.000000
30
0.0
11
318.000000
21
486.000000
31
0.0
0
LINE
8
LINES
10
161.000000
20
131.000000
30
0.0
11
91.000000
21
131.000000
31
0.0
0
LINE
8
LINES
10
163.000000
20
435.000000
30
0.0
11
92.000000
21
435.000000
31
0.0
0
LINE
8
LINES
10
393.000000
20
136.000000
30
0.0
11
323.000000
21
136.000000
31
0.0
0
LINE
8
LINES
10
25.000000
20
1.000000
30
0.0
11
25.000000
21
72.000000
31
0.0
0
LINE
8
LINES
10
686.000000
20
233.000000
30
0.0
11
616.000000
21
233.000000
31
0.0
0
LINE
8
LINES
10
9.000000
20
958.000000
30
0.0
11
81.000000
21
958.000000
31
0.0
0
LINE
8
LINES
10
640.000000
20
1.000000
30
0.0
11
640.000000
21
72.000000
31
0.0
0
LINE
8
LINES
10
646.000000
20
963.000000
30
0.0
11
576.000000
21
963.000000
31
0.0
0
LINE
8
LINES
10
625.000000
20
483.000000
30
0.0
11
556.000000
21
483.000000
31
0.0
0
LINE
8
LINES
10
136.000000
20
568.000000
30
0.0
11
136.000000
21
499.000000
31
0.0
0
LINE
8
LINES
10
192.000000
20
353.000000
30
0.0
11
192.000000
21
422.000000
31
0.0
0
LINE
8
LINES
10
121.000000
20
499.000000
30
0.0
11
121.000000
21
568.000000
31
0.0
0
LINE
8
LINES
10
326.000000
20
126.000000
30
0.0
11
393.000000
21
126.000000
31
0.0
0
LINE
8
LINES
10
622.000000
20
182.000000
30
0.0
11
553.000000
21
182.000000
31
0.0
0
LINE
8
LINES
10
112.000000
20
640.000000
30
0.0
11
43.000000
21
640.000000
31
0.0
0
LINE
8
LINES
10
89.000000
20
497.000000
30
0.0
11
89.000000
21
566.000000
31
0.0
0
LINE
8
LINES
10
163.000000
20
566.000000
30
0.0
11
163.000000
21
497.000000
31
0.0
0
LINE
8
LINES
10
396.000000
20
286.000000
30
0.0
11
328.000000
21
286.000000
31
0.0
0
LINE
8
LINES
10
625.000000
20
131.000000
30
0.0
11
556.000000
21
131.000000
31
0.0
0
LINE
8
LINES
10
625.000000
20
432.000000
30
0.0
11
556.000000
21
432.000000
31
0.0
0
LINE
8
LINES
10
556.000000
20
859.000000
30
0.0
11
556.000000
21
790.000000
31
0.0
0
LINE
8
LINES
10
388.000000
20
155.000000
30
0.0
11
321.000000
21
155.000000
31
0.0
0
LINE
8
LINES
10
96.000000
20
568.000000
30
0.0
11
96.000000
21
500.000000
31
0.0
0
LINE
8
LINES
10
161.000000
20
144.000000
30
0.0
11
94.000000
21
144.000000
31
0.0
0
LINE
8
LINES
10
612.000000
20
636.000000
30
0.0
11
545.000000
21
636.000000
31
0.0
0
LINE
8
LINES
10
612.000000
20
233.000000
30
0.0
11
545.000000
21
233.000000
31
0.0
0
LINE
8
LINES
10
94.000000
20
440.000000
30
0.0
11
161.000000
21
440.000000
31
0.0
0
LINE
8
LINES
10
624.000000
20
792.000000
30
0.0
11
624.000000
21
859.000000
31
0.0
0
LINE
8
LINES
10
392.000000
20
702.000000
30
0.0
11
323.000000
21
702.000000
31
0.0
0
LINE
8
LINES
10
648.000000
20
67.000000
30
0.0
11
648.000000
21
1.000000
31
0.0
0
LINE
8
LINES
10
580.000000
20
497.000000
30
0.0
11
580.000000
21
563.000000
31
0.0
0
LINE
8
LINES
10
620.000000
20
497.000000
30
0.0
11
620.000000
21
563.000000
31
0.0
0
LINE
8
LINES
10
161.000000
20
484.000000
30
0.0
11
94.000000
21
484.000000
31
0.0
0
LINE
8
LINES
10
323.000000
20
142.000000
30
0.0
11
390.000000
21
142.000000
31
0.0
0
LINE
8
LINES
10
595.000000
20
563.000000
30
0.0
11
595.000000
21
497.000000
31
0.0
0
LINE
8
LINES
10
190.000000
20
641.000000
30
0.0
11
190.000000
21
574.000000
31
0.0
0
LINE
8
LINES
10
160.000000
20
500.000000
30
0.0
11
160.000000
21
566.000000
31
0.0
0
LINE
8
LINES
10
555.000000
20
496.000000
30
0.0
11
555.000000
21
561.000000
31
0.0
0
LINE
8
LINES
10
78.000000
20
942.000000
30
0.0
11
12.000000
21
942.000000
31
0.0
0
LINE
8
LINES
10
94.000000
20
136.000000
30
0.0
11
161.000000
21
136.000000
31
0.0
0
LINE
8
LINES
10
323.000000
20
443.000000
30
0.0
11
388.000000
21
443.000000
31
0.0
0
LINE
8
LINES
10
227.000000
20
67.000000
30
0.0
11
227.000000
21
1.000000
31
0.0
0
LINE
8
LINES
10
545.000000
20
235.000000
30
0.0
11
524.000000
21
297.000000
31
0.0
0
LINE
8
LINES
10
230.000000
20
942.000000
30
0.0
11
166.000000
21
942.000000
31
0.0
0
LINE
8
LINES
10
556.000000
20
435.000000
30
0.0
11
622.000000
21
435.000000
31
0.0
0
LINE
8
LINES
10
558.000000
20
793.000000
30
0.0
11
558.000000
21
857.000000
31
0.0
0
LINE
8
LINES
10
161.000000
20
787.000000
30
0.0
11
97.000000
21
787.000000
31
0.0
0
LINE
8
LINES
10
257.000000
20
339.000000
30
0.0
11
193.000000
21
339.000000
31
0.0
0
LINE
8
LINES
10
393.000000
20
142.000000
30
0.0
11
329.000000
21
142.000000
31
0.0
0
LINE
8
LINES
10
91.000000
20
958.000000
30
0.0
11
153.000000
21
958.000000
31
0.0
0
LINE
8
LINES
10
556.000000
20
139.000000
30
0.0
11
620.000000
21
139.000000
31
0.0
0
LINE
8
LINES
10
585.000000
20
561.000000
30
0.0
11
585.000000
21
497.000000
31
0.0
0
LINE
8
LINES
10
518.000000
20
289.000000
30
0.0
11
540.000000
21
230.000000
31
0.0
0
LINE
8
LINES
10
256.000000
20
435.000000
30
0.0
11
193.000000
21
435.000000
31
0.0
0
LINE
8
LINES
10
619.000000
20
144.000000
30
0.0
11
556.000000
21
144.000000
31
0.0
0
LINE
8
LINES
10
161.000000
20
798.000000
30
0.0
11
161.000000
21
862.000000
31
0.0
0
LINE
8
LINES
10
548.000000
20
1011.000000
30
0.0
11
611.000000
21
1011.000000
31
0.0
0
LINE
8
LINES
10
363.000000
20
974.000000
30
0.0
11
425.000000
21
974.000000
31
0.0
0
LINE
8
LINES
10
326.000000
20
147.000000
30
0.0
11
388.000000
21
147.000000
31
0.0
0
LINE
8
LINES
10
345.000000
20
969.000000
30
0.0
11
284.000000
21
969.000000
31
0.0
0
LINE
8
LINES
10
556.000000
20
782.000000
30
0.0
11
494.000000
21
782.000000
31
0.0
0
LINE
8
LINES
10
89.000000
20
798.000000
30
0.0
11
89.000000
21
860.000000
31
0.0
0
LINE
8
LINES
10
561.000000
20
739.000000
30
0.0
11
622.000000
21
739.000000
31
0.0
0
LINE
8
LINES
10
385.000000
20
171.000000
30
0.0
11
323.000000
21
171.000000
31
0.0
0
LINE
8
LINES
10
161.000000
20
164.000000
30
0.0
11
99.000000
21
164.000000
31
0.0
0
LINE
8
LINES
10
185.000000
20
956.000000
30
0.0
11
246.000000
21
956.000000
31
0.0
0
LINE
8
LINES
10
428.000000
20
460.000000
30
0.0
11
428.000000
21
521.000000
31
0.0
0
LINE
8
LINES
10
193.000000
20
297.000000
30
0.0
11
193.000000
21
236.000000
31
0.0
0
LINE
8
LINES
10
91.000000
20
859.000000
30
0.0
11
91.000000
21
798.000000
31
0.0
0
LINE
8
LINES
10
313.000000
20
312.000000
30
0.0
11
313.000000
21
252.000000
31
0.0
0
LINE
8
LINES
10
553.000000
20
881.000000
30
0.0
11
492.000000
21
881.000000
31
0.0
0
LINE
8
LINES
10
470.000000
20
1014.000000
30
0.0
11
508.000000
21
969.000000
31
0.0
0
LINE
8
LINES
10
624.000000
20
780.000000
30
0.0
11
566.000000
21
780.000000
31
0.0
0
LINE
8
LINES
10
552.000000
20
832.000000
30
0.0
11
492.000000
21
832.000000
31
0.0
0
LINE
8
LINES
10
494.000000
20
780.000000
30
0.0
11
553.000000
21
780.000000
31
0.0
0
LINE
8
LINES
10
11.000000
20
995.000000
30
0.0
11
64.000000
21
1020.000000
31
0.0
0
LINE
8
LINES
10
81.000000
20
785.000000
30
0.0
11
22.000000
21
785.000000
31
0.0
0
LINE
8
LINES
10
492.000000
20
830.000000
30
0.0
11
552.000000
21
830.000000
31
0.0
0
LINE
8
LINES
10
81.000000
20
835.000000
30
0.0
11
22.000000
21
835.000000
31
0.0
0
LINE
8
LINES
10
492.000000
20
878.000000
30
0.0
11
552.000000
21
878.000000
31
0.0
0
LINE
8
LINES
10
81.000000
20
883.000000
30
0.0
11
22.000000
21
883.000000
31
0.0
0
LINE
8
LINES
10
422.000000
20
971.000000
30
0.0
11
364.000000
21
971.000000
31
0.0
0
LINE
8
LINES
10
489.000000
20
878.000000
30
0.0
11
489.000000
21
937.000000
31
0.0
0
LINE
8
LINES
10
553.000000
20
428.000000
30
0.0
11
496.000000
21
428.000000
31
0.0
0
LINE
8
LINES
10
563.000000
20
881.000000
30
0.0
11
622.000000
21
881.000000
31
0.0
0
LINE
8
LINES
10
652.000000
20
961.000000
30
0.0
11
652.000000
21
1017.000000
31
0.0
0
LINE
8
LINES
10
166.000000
20
880.000000
30
0.0
11
224.000000
21
880.000000
31
0.0
0
LINE
8
LINES
10
166.000000
20
782.000000
30
0.0
11
224.000000
21
782.000000
31
0.0
0
LINE
8
LINES
10
342.000000
20
974.000000
30
0.0
11
382.000000
21
1016.000000
31
0.0
0
LINE
8
LINES
10
347.000000
20
665.000000
30
0.0
11
347.000000
21
609.000000
31
0.0
0
LINE
8
LINES
10
686.000000
20
572.000000
30
0.0
11
686.000000
21
627.000000
31
0.0
0
LINE
8
LINES
10
168.000000
20
830.000000
30
0.0
11
224.000000
21
830.000000
31
0.0
0
LINE
8
LINES
10
185.000000
20
585.000000
30
0.0
11
185.000000
21
641.000000
31
0.0
0
LINE
8
LINES
10
78.000000
20
739.000000
30
0.0
11
22.000000
21
739.000000
31
0.0
0
LINE
8
LINES
10
225.000000
20
643.000000
30
0.0
11
225.000000
21
587.000000
31
0.0
0
LINE
8
LINES
10
222.000000
20
883.000000
30
0.0
11
166.000000
21
883.000000
31
0.0
0
LINE
8
LINES
10
224.000000
20
833.000000
30
0.0
11
168.000000
21
833.000000
31
0.0
0
LINE
8
LINES
10
97.000000
20
742.000000
30
0.0
11
153.000000
21
742.000000
31
0.0
0
LINE
8
LINES
10
153.000000
20
739.000000
30
0.0
11
97.000000
21
739.000000
31
0.0
0
LINE
8
LINES
10
86.000000
20
486.000000
30
0.0
11
86.000000
21
430.000000
31
0.0
0
LINE
8
LINES
10
408.000000
20
676.000000
30
0.0
11
353.000000
21
681.000000
31
0.0
0
LINE
8
LINES
10
550.000000
20
734.000000
30
0.0
11
496.000000
21
734.000000
31
0.0
0
LINE
8
LINES
10
270.000000
20
187.000000
30
0.0
11
270.000000
21
131.000000
31
0.0
0
LINE
8
LINES
10
222.000000
20
785.000000
30
0.0
11
168.000000
21
785.000000
31
0.0
0
LINE
8
LINES
10
230.000000
20
83.000000
30
0.0
11
286.000000
21
83.000000
31
0.0
0
LINE
8
LINES
10
323.000000
20
273.000000
30
0.0
11
323.000000
21
217.000000
31
0.0
0
LINE
8
LINES
10
428.000000
20
796.000000
30
0.0
11
374.000000
21
796.000000
31
0.0
0
LINE
8
LINES
10
387.000000
20
273.000000
30
0.0
11
387.000000
21
217.000000
31
0.0
0
LINE
8
LINES
10
227.000000
20
939.000000
30
0.0
11
227.000000
21
883.000000
31
0.0
0
LINE
8
LINES
10
539.000000
20
582.000000
30
0.0
11
539.000000
21
636.000000
31
0.0
0
LINE
8
LINES
10
478.000000
20
339.000000
30
0.0
11
425.000000
21
339.000000
31
0.0
0
LINE
8
LINES
10
224.000000
20
737.000000
30
0.0
11
171.000000
21
737.000000
31
0.0
0
LINE
8
LINES
10
291.000000
20
843.000000
30
0.0
11
344.000000
21
843.000000
31
0.0
0
LINE
8
LINES
10
494.000000
20
584.000000
30
0.0
11
494.000000
21
638.000000
31
0.0
0
LINE
8
LINES
10
108.000000
20
584.000000
30
0.0
11
108.000000
21
638.000000
31
0.0
0
LINE
8
LINES
10
553.000000
20
179.000000
30
0.0
11
608.000000
21
179.000000
31
0.0
0
LINE
8
LINES
10
425.000000
20
1.000000
30
0.0
11
425.000000
21
54.000000
31
0.0
0
LINE
8
LINES
10
377.000000
20
451.000000
30
0.0
11
323.000000
21
451.000000
31
0.0
0
LINE
8
LINES
10
148.000000
20
964.000000
30
0.0
11
96.000000
21
964.000000
31
0.0
0
LINE
8
LINES
10
368.000000
20
841.000000
30
0.0
11
422.000000
21
841.000000
31
0.0
0
LINE
8
LINES
10
491.000000
20
334.000000
30
0.0
11
436.000000
21
334.000000
31
0.0
0
LINE
8
LINES
10
622.000000
20
734.000000
30
0.0
11
569.000000
21
734.000000
31
0.0
0
LINE
8
LINES
10
164.000000
20
430.000000
30
0.0
11
164.000000
21
483.000000
31
0.0
0
LINE
8
LINES
10
230.000000
20
444.000000
30
0.0
11
230.000000
21
497.000000
31
0.0
0
LINE
8
LINES
10
171.000000
20
638.000000
30
0.0
11
118.000000
21
638.000000
31
0.0
0
LINE
8
LINES
10
124.000000
20
636.000000
30
0.0
11
124.000000
21
584.000000
31
0.0
0
LINE
8
LINES
10
1.000000
20
673.000000
30
0.0
11
51.000000
21
673.000000
31
0.0
0
LINE
8
LINES
10
606.000000
20
164.000000
30
0.0
11
556.000000
21
164.000000
31
0.0
0
LINE
8
LINES
10
606.000000
20
582.000000
30
0.0
11
606.000000
21
633.000000
31
0.0
0
LINE
8
LINES
10
150.000000
20
987.000000
30
0.0
11
99.000000
21
987.000000
31
0.0
0
LINE
8
LINES
10
236.000000
20
892.000000
30
0.0
11
236.000000
21
944.000000
31
0.0
0
LINE
8
LINES
10
670.000000
20
243.000000
30
0.0
11
670.000000
21
294.000000
31
0.0
0
LINE
8
LINES
10
342.000000
20
851.000000
30
0.0
11
291.000000
21
851.000000
31
0.0
0
LINE
8
LINES
10
419.000000
20
979.000000
30
0.0
11
369.000000
21
979.000000
31
0.0
0
LINE
8
LINES
10
641.000000
20
177.000000
30
0.0
11
641.000000
21
227.000000
31
0.0
0
LINE
8
LINES
10
185.000000
20
246.000000
30
0.0
11
185.000000
21
294.000000
31
0.0
0
LINE
8
LINES
10
60.000000
20
294.000000
30
0.0
11
60.000000
21
246.000000
31
0.0
0
LINE
8
LINES
10
124.000000
20
294.000000
30
0.0
11
124.000000
21
246.000000
31
0.0
0
LINE
8
LINES
10
606.000000
20
246.000000
30
0.0
11
606.000000
21
296.000000
31
0.0
0
LINE
8
LINES
10
44.000000
20
638.000000
30
0.0
11
44.000000
21
588.000000
31
0.0
0
LINE
8
LINES
10
97.000000
20
985.000000
30
0.0
11
147.000000
21
985.000000
31
0.0
0
LINE
8
LINES
10
12.000000
20
611.000000
30
0.0
11
12.000000
21
563.000000
31
0.0
0
LINE
8
LINES
10
60.000000
20
633.000000
30
0.0
11
60.000000
21
585.000000
31
0.0
0
LINE
8
LINES
10
129.000000
20
889.000000
30
0.0
11
81.000000
21
889.000000
31
0.0
0
LINE
8
LINES
10
417.000000
20
849.000000
30
0.0
11
369.000000
21
849.000000
31
0.0
0
LINE
8
LINES
10
529.000000
20
643.000000
30
0.0
11
529.000000
21
595.000000
31
0.0
0
LINE
8
LINES
10
99.000000
20
977.000000
30
0.0
11
147.000000
21
977.000000
31
0.0
0
LINE
8
LINES
10
438.000000
20
950.000000
30
0.0
11
438.000000
21
998.000000
31
0.0
0
LINE
8
LINES
10
499.000000
20
491.000000
30
0.0
11
499.000000
21
443.000000
31
0.0
0
LINE
8
LINES
10
147.000000
20
979.000000
30
0.0
11
99.000000
21
979.000000
31
0.0
0
LINE
8
LINES
10
102.000000
20
974.000000
30
0.0
11
148.000000
21
974.000000
31
0.0
0
LINE
8
LINES
10
236.000000
20
782.000000
30
0.0
11
236.000000
21
830.000000
31
0.0
0
LINE
8
LINES
10
278.000000
20
729.000000
30
0.0
11
232.000000
21
729.000000
31
0.0
0
LINE
8
LINES
10
604.000000
20
451.000000
30
0.0
11
558.000000
21
451.000000
31
0.0
0
LINE
8
LINES
10
126.000000
20
246.000000
30
0.0
11
172.000000
21
246.000000
31
0.0
0
LINE
8
LINES
10
131.000000
20
883.000000
30
0.0
11
131.000000
21
838.000000
31
0.0
0
LINE
8
LINES
10
489.000000
20
683.000000
30
0.0
11
489.000000
21
729.000000
31
0.0
0
LINE
8
LINES
10
555.000000
20
478.000000
30
0.0
11
555.000000
21
433.000000
31
0.0
0
LINE
8
LINES
10
686.000000
20
734.000000
30
0.0
11
638.000000
21
734.000000
31
0.0
0
LINE
8
LINES
10
371.000000
20
963.000000
30
0.0
11
417.000000
21
963.000000
31
0.0
0
LINE
8
LINES
10
371.000000
20
936.000000
30
0.0
11
417.000000
21
936.000000
31
0.0
0
LINE
8
LINES
10
526.000000
20
339.000000
30
0.0
11
481.000000
21
339.000000
31
0.0
0
LINE
8
LINES
10
545.000000
20
630.000000
30
0.0
11
545.000000
21
584.000000
31
0.0
0
LINE
8
LINES
10
371.000000
20
984.000000
30
0.0
11
417.000000
21
984.000000
31
0.0
0
LINE
8
LINES
10
294.000000
20
937.000000
30
0.0
11
340.000000
21
937.000000
31
0.0
0
LINE
8
LINES
10
147.000000
20
972.000000
30
0.0
11
100.000000
21
972.000000
31
0.0
0
LINE
8
LINES
10
17.000000
20
892.000000
30
0.0
11
17.000000
21
939.000000
31
0.0
0
LINE
8
LINES
10
225.000000
20
828.000000
30
0.0
11
225.000000
21
782.000000
31
0.0
0
LINE
8
LINES
10
307.000000
20
982.000000
30
0.0
11
331.000000
21
1022.000000
31
0.0
0
LINE
8
LINES
10
52.000000
20
1022.000000
30
0.0
11
11.000000
21
1003.000000
31
0.0
0
LINE
8
LINES
10
190.000000
20
227.000000
30
0.0
11
198.000000
21
273.000000
31
0.0
0
LINE
8
LINES
10
172.000000
20
246.000000
30
0.0
11
172.000000
21
291.000000
31
0.0
0
LINE
8
LINES
10
228.000000
20
732.000000
30
0.0
11
228.000000
21
686.000000
31
0.0
0
LINE
8
LINES
10
561.000000
20
579.000000
30
0.0
11
606.000000
21
579.000000
31
0.0
0
LINE
8
LINES
10
625.000000
20
579.000000
30
0.0
11
670.000000
21
579.000000
31
0.0
0
LINE
8
LINES
10
531.000000
20
321.000000
30
0.0
11
531.000000
21
276.000000
31
0.0
0
LINE
8
LINES
10
625.000000
20
227.000000
30
0.0
11
625.000000
21
182.000000
31
0.0
0
LINE
8
LINES
10
670.000000
20
580.000000
30
0.0
11
670.000000
21
625.000000
31
0.0
0
LINE
8
LINES
10
294.000000
20
924.000000
30
0.0
11
339.000000
21
924.000000
31
0.0
0
LINE
8
LINES
10
294.000000
20
963.000000
30
0.0
11
339.000000
21
963.000000
31
0.0
0
LINE
8
LINES
10
339.000000
20
934.000000
30
0.0
11
294.000000
21
934.000000
31
0.0
0
LINE
8
LINES
10
172.000000
20
584.000000
30
0.0
11
172.000000
21
628.000000
31
0.0
0
LINE
8
LINES
10
62.000000
20
585.000000
30
0.0
11
107.000000
21
585.000000
31
0.0
0
LINE
8
LINES
10
622.000000
20
969.000000
30
0.0
11
579.000000
21
972.000000
31
0.0
0
LINE
8
LINES
10
540.000000
20
264.000000
30
0.0
11
540.000000
21
307.000000
31
0.0
0
LINE
8
LINES
10
62.000000
20
246.000000
30
0.0
11
107.000000
21
246.000000
31
0.0
0
LINE
8
LINES
10
126.000000
20
585.000000
30
0.0
11
171.000000
21
585.000000
31
0.0
0
LINE
8
LINES
10
278.000000
20
953.000000
30
0.0
11
236.000000
21
953.000000
31
0.0
0
LINE
8
LINES
10
483.000000
20
950.000000
30
0.0
11
438.000000
21
950.000000
31
0.0
0
LINE
8
LINES
10
636.000000
20
780.000000
30
0.0
11
681.000000
21
780.000000
31
0.0
0
LINE
8
LINES
10
372.000000
20
921.000000
30
0.0
11
417.000000
21
921.000000
31
0.0
0
LINE
8
LINES
10
584.000000
20
835.000000
30
0.0
11
584.000000
21
878.000000
31
0.0
0
LINE
8
LINES
10
481.000000
20
937.000000
30
0.0
11
481.000000
21
892.000000
31
0.0
0
LINE
8
LINES
10
625.000000
20
246.000000
30
0.0
11
668.000000
21
246.000000
31
0.0
0
LINE
8
LINES
10
561.000000
20
246.000000
30
0.0
11
606.000000
21
246.000000
31
0.0
0
LINE
8
LINES
10
94.000000
20
483.000000
30
0.0
11
94.000000
21
441.000000
31
0.0
0
LINE
8
LINES
10
681.000000
20
782.000000
30
0.0
11
636.000000
21
782.000000
31
0.0
0
LINE
8
LINES
10
643.000000
20
420.000000
30
0.0
11
643.000000
21
377.000000
31
0.0
0
LINE
8
LINES
10
100.000000
20
972.000000
30
0.0
11
144.000000
21
972.000000
31
0.0
0
LINE
8
LINES
10
412.000000
20
836.000000
30
0.0
11
369.000000
21
836.000000
31
0.0
0
LINE
8
LINES
10
512.000000
20
977.000000
30
0.0
11
484.000000
21
1011.000000
31
0.0
0
LINE
8
LINES
10
164.000000
20
121.000000
30
0.0
11
164.000000
21
163.000000
31
0.0
0
LINE
8
LINES
10
171.000000
20
256.000000
30
0.0
11
128.000000
21
256.000000
31
0.0
0
LINE
8
LINES
10
107.000000
20
256.000000
30
0.0
11
64.000000
21
256.000000
31
0.0
0
LINE
8
LINES
10
390.000000
20
443.000000
30
0.0
11
390.000000
21
486.000000
31
0.0
0
LINE
8
LINES
10
622.000000
20
438.000000
30
0.0
11
622.000000
21
481.000000
31
0.0
0
LINE
8
LINES
10
108.000000
20
246.000000
30
0.0
11
108.000000
21
289.000000
31
0.0
0
LINE
8
LINES
10
323.000000
20
486.000000
30
0.0
11
323.000000
21
443.000000
31
0.0
0
LINE
8
LINES
10
486.000000
20
729.000000
30
0.0
11
444.000000
21
729.000000
31
0.0
0
LINE
8
LINES
10
228.000000
20
856.000000
30
0.0
11
228.000000
21
897.000000
31
0.0
0
LINE
8
LINES
10
372.000000
20
852.000000
30
0.0
11
416.000000
21
852.000000
31
0.0
0
LINE
8
LINES
10
296.000000
20
854.000000
30
0.0
11
337.000000
21
854.000000
31
0.0
0
LINE
8
LINES
10
585.000000
20
790.000000
30
0.0
11
585.000000
21
832.000000
31
0.0
0
LINE
8
LINES
10
123.000000
20
886.000000
30
0.0
11
163.000000
21
886.000000
31
0.0
0
LINE
8
LINES
10
414.000000
20
958.000000
30
0.0
11
372.000000
21
958.000000
31
0.0
0
LINE
8
LINES
10
97.000000
20
785.000000
30
0.0
11
97.000000
21
744.000000
31
0.0
0
LINE
8
LINES
10
680.000000
20
483.000000
30
0.0
11
680.000000
21
441.000000
31
0.0
0
LINE
8
LINES
10
555.000000
20
777.000000
30
0.0
11
555.000000
21
737.000000
31
0.0
0
LINE
8
LINES
10
81.000000
20
780.000000
30
0.0
11
86.000000
21
740.000000
31
0.0
0
LINE
8
LINES
10
67.000000
20
595.000000
30
0.0
11
67.000000
21
636.000000
31
0.0
0
LINE
8
LINES
10
603.000000
20
256.000000
30
0.0
11
563.000000
21
256.000000
31
0.0
0
LINE
8
LINES
10
694.000000
20
118.000000
30
0.0
11
694.000000
21
78.000000
31
0.0
0
LINE
8
LINES
10
65.000000
20
78.000000
30
0.0
11
25.000000
21
78.000000
31
0.0
0
LINE
8
LINES
10
414.000000
20
988.000000
30
0.0
11
374.000000
21
988.000000
31
0.0
0
LINE
8
LINES
10
337.000000
20
960.000000
30
0.0
11
297.000000
21
960.000000
31
0.0
0
LINE
8
LINES
10
416.000000
20
1000.000000
30
0.0
11
376.000000
21
1000.000000
31
0.0
0
LINE
8
LINES
10
622.000000
20
739.000000
30
0.0
11
622.000000
21
779.000000
31
0.0
0
LINE
8
LINES
10
619.000000
20
836.000000
30
0.0
11
619.000000
21
876.000000
31
0.0
0
LINE
8
LINES
10
417.000000
20
931.000000
30
0.0
11
377.000000
21
931.000000
31
0.0
0
LINE
8
LINES
10
78.000000
20
840.000000
30
0.0
11
38.000000
21
840.000000
31
0.0
0
LINE
8
LINES
10
561.000000
20
876.000000
30
0.0
11
561.000000
21
836.000000
31
0.0
0
LINE
8
LINES
10
337.000000
20
592.000000
30
0.0
11
297.000000
21
592.000000
31
0.0
0
LINE
8
LINES
10
185.000000
20
28.000000
30
0.0
11
185.000000
21
68.000000
31
0.0
0
LINE
8
LINES
10
225.000000
20
80.000000
30
0.0
11
185.000000
21
80.000000
31
0.0
0
LINE
8
LINES
10
169.000000
20
590.000000
30
0.0
11
131.000000
21
590.000000
31
0.0
0
LINE
8
LINES
10
225.000000
20
118.000000
30
0.0
11
225.000000
21
81.000000
31
0.0
0
LINE
8
LINES
10
6.000000
20
652.000000
30
0.0
11
44.000000
21
652.000000
31
0.0
0
LINE
8
LINES
10
390.000000
20
145.000000
30
0.0
11
390.000000
21
184.000000
31
0.0
0
LINE
8
LINES
10
622.000000
20
139.000000
30
0.0
11
622.000000
21
177.000000
31
0.0
0
LINE
8
LINES
10
396.000000
20
134.000000
30
0.0
11
396.000000
21
172.000000
31
0.0
0
LINE
8
LINES
10
164.000000
20
838.000000
30
0.0
11
164.000000
21
801.000000
31
0.0
0
LINE
8
LINES
10
336.000000
20
920.000000
30
0.0
11
297.000000
21
920.000000
31
0.0
0
LINE
8
LINES
10
414.000000
20
918.000000
30
0.0
11
376.000000
21
918.000000
31
0.0
0
LINE
8
LINES
10
561.000000
20
832.000000
30
0.0
11
561.000000
21
793.000000
31
0.0
0
LINE
8
LINES
10
619.000000
20
793.000000
30
0.0
11
619.000000
21
832.000000
31
0.0
0
LINE
8
LINES
10
337.000000
20
857.000000
30
0.0
11
297.000000
21
857.000000
31
0.0
0
LINE
8
LINES
10
270.000000
20
334.000000
30
0.0
11
232.000000
21
334.000000
31
0.0
0
LINE
8
LINES
10
147.000000
20
982.000000
30
0.0
11
108.000000
21
982.000000
31
0.0
0
LINE
8
LINES
10
611.000000
20
876.000000
30
0.0
11
611.000000
21
838.000000
31
0.0
0
LINE
8
LINES
10
668.000000
20
292.000000
30
0.0
11
630.000000
21
292.000000
31
0.0
0
LINE
8
LINES
10
574.000000
20
990.000000
30
0.0
11
612.000000
21
990.000000
31
0.0
0
LINE
8
LINES
10
131.000000
20
835.000000
30
0.0
11
131.000000
21
798.000000
31
0.0
0
LINE
8
LINES
10
313.000000
20
169.000000
30
0.0
11
313.000000
21
131.000000
31
0.0
0
LINE
8
LINES
10
544.000000
20
305.000000
30
0.0
11
528.000000
21
339.000000
31
0.0
0
LINE
8
LINES
10
131.000000
20
992.000000
30
0.0
11
94.000000
21
992.000000
31
0.0
0
LINE
8
LINES
10
636.000000
20
828.000000
30
0.0
11
673.000000
21
828.000000
31
0.0
0
LINE
8
LINES
10
379.000000
20
1003.000000
30
0.0
11
417.000000
21
1003.000000
31
0.0
0
LINE
8
LINES
10
412.000000
20
857.000000
30
0.0
11
376.000000
21
857.000000
31
0.0
0
LINE
8
LINES
10
448.000000
20
953.000000
30
0.0
11
486.000000
21
953.000000
31
0.0
0
LINE
8
LINES
10
492.000000
20
790.000000
30
0.0
11
492.000000
21
828.000000
31
0.0
0
LINE
8
LINES
10
57.000000
20
681.000000
30
0.0
11
19.000000
21
681.000000
31
0.0
0
LINE
8
LINES
10
440.000000
20
897.000000
30
0.0
11
440.000000
21
859.000000
31
0.0
0
LINE
8
LINES
10
444.000000
20
177.000000
30
0.0
11
444.000000
21
140.000000
31
0.0
0
LINE
8
LINES
10
228.000000
20
811.000000
30
0.0
11
228.000000
21
848.000000
31
0.0
0
LINE
8
LINES
10
361.000000
20
836.000000
30
0.0
11
396.000000
21
822.000000
31
0.0
0
LINE
8
LINES
10
542.000000
20
571.000000
30
0.0
11
523.000000
21
601.000000
31
0.0
0
LINE
8
LINES
10
163.000000
20
742.000000
30
0.0
11
168.000000
21
779.000000
31
0.0
0
LINE
8
LINES
10
598.000000
20
587.000000
30
0.0
11
563.000000
21
587.000000
31
0.0
0
LINE
8
LINES
10
102.000000
20
590.000000
30
0.0
11
65.000000
21
590.000000
31
0.0
0
LINE
8
LINES
10
601.000000
20
627.000000
30
0.0
11
601.000000
21
592.000000
31
0.0
0
LINE
8
LINES
10
529.000000
20
348.000000
30
0.0
11
544.000000
21
316.000000
31
0.0
0
LINE
8
LINES
10
588.000000
20
188.000000
30
0.0
11
624.000000
21
188.000000
31
0.0
0
LINE
8
LINES
10
254.000000
20
822.000000
30
0.0
11
254.000000
21
787.000000
31
0.0
0
LINE
8
LINES
10
321.000000
20
182.000000
30
0.0
11
356.000000
21
182.000000
31
0.0
0
LINE
8
LINES
10
673.000000
20
832.000000
30
0.0
11
638.000000
21
832.000000
31
0.0
0
LINE
8
LINES
10
497.000000
20
915.000000
30
0.0
11
497.000000
21
952.000000
31
0.0
0
LINE
8
LINES
10
182.000000
20
353.000000
30
0.0
11
182.000000
21
388.000000
31
0.0
0
LINE
8
LINES
10
496.000000
20
900.000000
30
0.0
11
531.000000
21
900.000000
31
0.0
0
LINE
8
LINES
10
611.000000
20
830.000000
30
0.0
11
611.000000
21
793.000000
31
0.0
0
LINE
8
LINES
10
166.000000
20
793.000000
30
0.0
11
166.000000
21
828.000000
31
0.0
0
LINE
8
LINES
10
566.000000
20
830.000000
30
0.0
11
566.000000
21
793.000000
31
0.0
0
LINE
8
LINES
10
574.000000
20
830.000000
30
0.0
11
574.000000
21
793.000000
31
0.0
0
LINE
8
LINES
10
9.000000
20
521.000000
30
0.0
11
9.000000
21
486.000000
31
0.0
0
LINE
8
LINES
10
617.000000
20
740.000000
30
0.0
11
617.000000
21
777.000000
31
0.0
0
LINE
8
LINES
10
468.000000
20
784.000000
30
0.0
11
465.000000
21
819.000000
31
0.0
0
LINE
8
LINES
10
654.000000
20
83.000000
30
0.0
11
649.000000
21
118.000000
31
0.0
0
LINE
8
LINES
10
422.000000
20
36.000000
30
0.0
11
422.000000
21
1.000000
31
0.0
0
LINE
8
LINES
10
590.000000
20
491.000000
30
0.0
11
625.000000
21
491.000000
31
0.0
0
LINE
8
LINES
10
561.000000
20
627.000000
30
0.0
11
596.000000
21
627.000000
31
0.0
0
LINE
8
LINES
10
166.000000
20
496.000000
30
0.0
11
131.000000
21
496.000000
31
0.0
0
LINE
8
LINES
10
625.000000
20
494.000000
30
0.0
11
590.000000
21
494.000000
31
0.0
0
LINE
8
LINES
10
192.000000
20
673.000000
30
0.0
11
227.000000
21
673.000000
31
0.0
0
LINE
8
LINES
10
126.000000
20
497.000000
30
0.0
11
91.000000
21
497.000000
31
0.0
0
LINE
8
LINES
10
625.000000
20
177.000000
30
0.0
11
625.000000
21
142.000000
31
0.0
0
LINE
8
LINES
10
336.000000
20
940.000000
30
0.0
11
300.000000
21
940.000000
31
0.0
0
LINE
8
LINES
10
636.000000
20
793.000000
30
0.0
11
636.000000
21
828.000000
31
0.0
0
LINE
8
LINES
10
657.000000
20
382.000000
30
0.0
11
657.000000
21
417.000000
31
0.0
0
LINE
8
LINES
10
17.000000
20
844.000000
30
0.0
11
19.000000
21
878.000000
31
0.0
0
LINE
8
LINES
10
225.000000
20
867.000000
30
0.0
11
225.000000
21
832.000000
31
0.0
0
LINE
8
LINES
10
124.000000
20
748.000000
30
0.0
11
124.000000
21
784.000000
31
0.0
0
LINE
8
LINES
10
179.000000
20
990.000000
30
0.0
11
214.000000
21
990.000000
31
0.0
0
LINE
8
LINES
10
17.000000
20
793.000000
30
0.0
11
17.000000
21
828.000000
31
0.0
0
LINE
8
LINES
10
576.000000
20
876.000000
30
0.0
11
576.000000
21
841.000000
31
0.0
0
LINE
8
LINES
10
588.000000
20
499.000000
30
0.0
11
588.000000
21
534.000000
31
0.0
0
LINE
8
LINES
10
88.000000
20
1022.000000
30
0.0
11
113.000000
21
1000.000000
31
0.0
0
LINE
8
LINES
10
195.000000
20
339.000000
30
0.0
11
188.000000
21
307.000000
31
0.0
0
LINE
8
LINES
10
601.000000
20
291.000000
30
0.0
11
601.000000
21
257.000000
31
0.0
0
LINE
8
LINES
10
124.000000
20
190.000000
30
0.0
11
91.000000
21
190.000000
31
0.0
0
LINE
8
LINES
10
129.000000
20
259.000000
30
0.0
11
129.000000
21
292.000000
31
0.0
0
LINE
8
LINES
10
20.000000
20
425.000000
30
0.0
11
54.000000
21
425.000000
31
0.0
0
LINE
8
LINES
10
624.000000
20
192.000000
30
0.0
11
590.000000
21
192.000000
31
0.0
0
LINE
8
LINES
10
88.000000
20
886.000000
30
0.0
11
121.000000
21
886.000000
31
0.0
0
LINE
8
LINES
10
89.000000
20
452.000000
30
0.0
11
89.000000
21
486.000000
31
0.0
0
LINE
8
LINES
10
188.000000
20
646.000000
30
0.0
11
153.000000
21
646.000000
31
0.0
0
LINE
8
LINES
10
528.000000
20
436.000000
30
0.0
11
494.000000
21
436.000000
31
0.0
0
LINE
8
LINES
10
257.000000
20
787.000000
30
0.0
11
257.000000
21
822.000000
31
0.0
0
LINE
8
LINES
10
89.000000
20
192.000000
30
0.0
11
89.000000
21
225.000000
31
0.0
0
LINE
8
LINES
10
99.000000
20
990.000000
30
0.0
11
132.000000
21
990.000000
31
0.0
0
LINE
8
LINES
10
489.000000
20
636.000000
30
0.0
11
489.000000
21
603.000000
31
0.0
0
LINE
8
LINES
10
694.000000
20
675.000000
30
0.0
11
660.000000
21
675.000000
31
0.0
0
LINE
8
LINES
10
494.000000
20
937.000000
30
0.0
11
494.000000
21
902.000000
31
0.0
0
LINE
8
LINES
10
592.000000
20
443.000000
30
0.0
11
558.000000
21
443.000000
31
0.0
0
LINE
8
LINES
10
561.000000
20
777.000000
30
0.0
11
561.000000
21
742.000000
31
0.0
0
LINE
8
LINES
10
334.000000
20
836.000000
30
0.0
11
300.000000
21
836.000000
31
0.0
0
LINE
8
LINES
10
398.000000
20
238.000000
30
0.0
11
398.000000
21
272.000000
31
0.0
0
LINE
8
LINES
10
316.000000
20
822.000000
30
0.0
11
348.000000
21
835.000000
31
0.0
0
LINE
8
LINES
10
673.000000
20
337.000000
30
0.0
11
651.000000
21
363.000000
31
0.0
0
LINE
8
LINES
10
188.000000
20
316.000000
30
0.0
11
193.000000
21
350.000000
31
0.0
0
LINE
8
LINES
10
286.000000
20
836.000000
30
0.0
11
316.000000
21
822.000000
31
0.0
0
LINE
8
LINES
10
494.000000
20
433.000000
30
0.0
11
526.000000
21
433.000000
31
0.0
0
LINE
8
LINES
10
494.000000
20
425.000000
30
0.0
11
526.000000
21
425.000000
31
0.0
0
LINE
8
LINES
10
268.000000
20
132.000000
30
0.0
11
236.000000
21
132.000000
31
0.0
0
LINE
8
LINES
10
163.000000
20
190.000000
30
0.0
11
131.000000
21
190.000000
31
0.0
0
LINE
8
LINES
10
353.000000
20
195.000000
30
0.0
11
321.000000
21
195.000000
31
0.0
0
LINE
8
LINES
10
377.000000
20
993.000000
30
0.0
11
411.000000
21
993.000000
31
0.0
0
LINE
8
LINES
10
593.000000
20
227.000000
30
0.0
11
593.000000
21
193.000000
31
0.0
0
LINE
8
LINES
10
497.000000
20
668.000000
30
0.0
11
529.000000
21
668.000000
31
0.0
0
LINE
8
LINES
10
134.000000
20
225.000000
30
0.0
11
134.000000
21
193.000000
31
0.0
0
LINE
8
LINES
10
89.000000
20
144.000000
30
0.0
11
89.000000
21
177.000000
31
0.0
0
LINE
8
LINES
10
96.000000
20
225.000000
30
0.0
11
96.000000
21
193.000000
31
0.0
0
LINE
8
LINES
10
94.000000
20
801.000000
30
0.0
11
94.000000
21
833.000000
31
0.0
0
LINE
8
LINES
10
368.000000
20
1009.000000
30
0.0
11
336.000000
21
1009.000000
31
0.0
0
LINE
8
LINES
10
488.000000
20
80.000000
30
0.0
11
456.000000
21
80.000000
31
0.0
0
LINE
8
LINES
10
612.000000
20
988.000000
30
0.0
11
580.000000
21
988.000000
31
0.0
0
LINE
8
LINES
10
355.000000
20
185.000000
30
0.0
11
323.000000
21
185.000000
31
0.0
0
LINE
8
LINES
10
64.000000
20
891.000000
30
0.0
11
32.000000
21
891.000000
31
0.0
0
LINE
8
LINES
10
491.000000
20
843.000000
30
0.0
11
491.000000
21
876.000000
31
0.0
0
LINE
8
LINES
10
558.000000
20
438.000000
30
0.0
11
590.000000
21
438.000000
31
0.0
0
LINE
8
LINES
10
611.000000
20
777.000000
30
0.0
11
611.000000
21
744.000000
31
0.0
0
LINE
8
LINES
10
360.000000
20
273.000000
30
0.0
11
360.000000
21
241.000000
31
0.0
0
LINE
8
LINES
10
552.000000
20
952.000000
30
0.0
11
521.000000
21
958.000000
31
0.0
0
LINE
8
LINES
10
252.000000
20
984.000000
30
0.0
11
281.000000
21
969.000000
31
0.0
0
LINE
8
LINES
10
337.000000
20
694.000000
30
0.0
11
305.000000
21
702.000000
31
0.0
0
LINE
8
LINES
10
396.000000
20
822.000000
30
0.0
11
425.000000
21
835.000000
31
0.0
0
LINE
8
LINES
10
497.000000
20
969.000000
30
0.0
11
497.000000
21
937.000000
31
0.0
0
LINE
8
LINES
10
620.000000
20
195.000000
30
0.0
11
620.000000
21
227.000000
31
0.0
0
LINE
8
LINES
10
46.000000
20
662.000000
30
0.0
11
14.000000
21
662.000000
31
0.0
0
LINE
8
LINES
10
257.000000
20
446.000000
30
0.0
11
289.000000
21
446.000000
31
0.0
0
LINE
8
LINES
10
19.000000
20
331.000000
30
0.0
11
51.000000
21
331.000000
31
0.0
0
LINE
8
LINES
10
665.000000
20
424.000000
30
0.0
11
697.000000
21
424.000000
31
0.0
0
LINE
8
LINES
10
556.000000
20
563.000000
30
0.0
11
556.000000
21
531.000000
31
0.0
0
LINE
8
LINES
10
428.000000
20
444.000000
30
0.0
11
460.000000
21
444.000000
31
0.0
0
LINE
8
LINES
10
193.000000
20
427.000000
30
0.0
11
225.000000
21
427.000000
31
0.0
0
LINE
8
LINES
10
425.000000
20
985.000000
30
0.0
11
425.000000
21
1017.000000
31
0.0
0
LINE
8
LINES
10
585.000000
20
494.000000
30
0.0
11
553.000000
21
494.000000
31
0.0
0
LINE
8
LINES
10
132.000000
20
630.000000
30
0.0
11
163.000000
21
630.000000
31
0.0
0
LINE
8
LINES
10
438.000000
20
132.000000
30
0.0
11
406.000000
21
132.000000
31
0.0
0
LINE
8
LINES
10
312.000000
20
132.000000
30
0.0
11
281.000000
21
132.000000
31
0.0
0
LINE
8
LINES
10
392.000000
20
195.000000
30
0.0
11
361.000000
21
195.000000
31
0.0
0
LINE
8
LINES
10
481.000000
20
132.000000
30
0.0
11
449.000000
21
132.000000
31
0.0
0
LINE
8
LINES
10
60.000000
20
369.000000
30
0.0
11
54.000000
21
337.000000
31
0.0
0
LINE
8
LINES
10
636.000000
20
878.000000
30
0.0
11
668.000000
21
878.000000
31
0.0
0
LINE
8
LINES
10
592.000000
20
790.000000
30
0.0
11
622.000000
21
790.000000
31
0.0
0
LINE
8
LINES
10
160.000000
20
193.000000
30
0.0
11
160.000000
21
225.000000
31
0.0
0
LINE
8
LINES
10
668.000000
20
881.000000
30
0.0
11
636.000000
21
881.000000
31
0.0
0
LINE
8
LINES
10
121.000000
20
193.000000
30
0.0
11
121.000000
21
225.000000
31
0.0
0
LINE
8
LINES
10
582.000000
20
195.000000
30
0.0
11
582.000000
21
227.000000
31
0.0
0
LINE
8
LINES
10
166.000000
20
846.000000
30
0.0
11
166.000000
21
878.000000
31
0.0
0
LINE
8
LINES
10
228.000000
20
332.000000
30
0.0
11
198.000000
21
332.000000
31
0.0
0
LINE
8
LINES
10
603.000000
20
876.000000
30
0.0
11
603.000000
21
846.000000
31
0.0
0
LINE
8
LINES
10
382.000000
20
278.000000
30
0.0
11
350.000000
21
278.000000
31
0.0
0
LINE
8
LINES
10
563.000000
20
846.000000
30
0.0
11
563.000000
21
876.000000
31
0.0
0
LINE
8
LINES
10
521.000000
20
585.000000
30
0.0
11
544.000000
21
563.000000
31
0.0
0
LINE
8
LINES
10
94.000000
20
990.000000
30
0.0
11
94.000000
21
960.000000
31
0.0
0
LINE
8
LINES
10
44.000000
20
296.000000
30
0.0
11
44.000000
21
265.000000
31
0.0
0
LINE
8
LINES
10
462.000000
20
422.000000
30
0.0
11
492.000000
21
422.000000
31
0.0
0
LINE
8
LINES
10
556.000000
20
188.000000
30
0.0
11
585.000000
21
188.000000
31
0.0
0
LINE
8
LINES
10
556.000000
20
491.000000
30
0.0
11
585.000000
21
491.000000
31
0.0
0
LINE
8
LINES
10
22.000000
20
337.000000
30
0.0
11
22.000000
21
368.000000
31
0.0
0
LINE
8
LINES
10
617.000000
20
177.000000
30
0.0
11
617.000000
21
147.000000
31
0.0
0
LINE
8
LINES
10
164.000000
20
483.000000
30
0.0
11
164.000000
21
452.000000
31
0.0
0
LINE
8
LINES
10
264.000000
20
798.000000
30
0.0
11
264.000000
21
828.000000
31
0.0
0
LINE
8
LINES
10
636.000000
20
838.000000
30
0.0
11
636.000000
21
867.000000
31
0.0
0
LINE
8
LINES
10
257.000000
20
676.000000
30
0.0
11
227.000000
21
684.000000
31
0.0
0
LINE
8
LINES
10
155.000000
20
860.000000
30
0.0
11
155.000000
21
830.000000
31
0.0
0
LINE
8
LINES
10
363.000000
20
137.000000
30
0.0
11
393.000000
21
137.000000
31
0.0
0
LINE
8
LINES
10
348.000000
20
632.000000
30
0.0
11
348.000000
21
662.000000
31
0.0
0
LINE
8
LINES
10
163.000000
20
225.000000
30
0.0
11
163.000000
21
195.000000
31
0.0
0
LINE
8
LINES
10
524.000000
20
675.000000
30
0.0
11
494.000000
21
675.000000
31
0.0
0
LINE
8
LINES
10
379.000000
20
860.000000
30
0.0
11
409.000000
21
860.000000
31
0.0
0
LINE
8
LINES
10
30.000000
20
521.000000
30
0.0
11
30.000000
21
492.000000
31
0.0
0
LINE
8
LINES
10
233.000000
20
830.000000
30
0.0
11
233.000000
21
801.000000
31
0.0
0
LINE
8
LINES
10
486.000000
20
51.000000
30
0.0
11
486.000000
21
20.000000
31
0.0
0
LINE
8
LINES
10
593.000000
20
772.000000
30
0.0
11
593.000000
21
742.000000
31
0.0
0
ENDSEC
0
EOF
