0
SECTION
2
ENTITIES
0
LWPOLYLINE
8
FACADE_OUTLINE
90
4
70
1
10
0.000000
20
0.000000
10
573.000000
20
0.000000
10
573.000000
20
362.000000
10
0.000000
20
362.000000
0
LWPOLYLINE
8
WINDOWS
90
4
70
1
10
9.000000
20
0.000000
10
552.000000
20
0.000000
10
552.000000
20
259.000000
10
9.000000
20
259.000000
0
LWPOLYLINE
8
WINDOWS
90
4
70
1
10
51.000000
20
28.000000
10
203.000000
20
28.000000
10
203.000000
20
204.000000
10
51.000000
20
204.000000
0
LWPOLYLINE
8
WINDOWS
90
4
70
1
10
312.000000
20
28.000000
10
355.000000
20
28.000000
10
355.000000
20
57.000000
10
312.000000
20
57.000000
0
LWPOLYLINE
8
WINDOWS
90
4
70
1
10
288.000000
20
28.000000
10
305.000000
20
28.000000
10
305.000000
20
57.000000
10
288.000000
20
57.000000
0
LWPOLYLINE
8
WINDOWS
90
4
70
1
10
211.000000
20
30.000000
10
254.000000
20
30.000000
10
254.000000
20
62.000000
10
211.000000
20
62.000000
0
LWPOLYLINE
8
WINDOWS
90
4
70
1
10
153.000000
20
35.000000
10
174.000000
20
35.000000
10
174.000000
20
73.000000
10
153.000000
20
73.000000
0
LWPOLYLINE
8
WINDOWS
90
4
70
1
10
121.000000
20
51.000000
10
147.000000
20
51.000000
10
147.000000
20
67.000000
10
121.000000
20
67.000000
0
LWPOLYLINE
8
WINDOWS
90
4
70
1
10
0.000000
20
67.000000
10
41.000000
20
67.000000
10
41.000000
20
120.000000
10
0.000000
20
120.000000
0
LWPOLYLINE
8
WINDOWS
90
4
70
1
10
64.000000
20
89.000000
10
192.000000
20
89.000000
10
192.000000
20
139.000000
10
64.000000
20
139.000000
0
LWPOLYLINE
8
WINDOWS
90
4
70
1
10
284.000000
20
91.000000
10
355.000000
20
91.000000
10
355.000000
20
121.000000
10
284.000000
20
121.000000
0
LWPOLYLINE
8
WINDOWS
90
4
70
1
10
382.000000
20
153.000000
10
438.000000
20
153.000000
10
438.000000
20
185.000000
10
382.000000
20
185.000000
0
LWPOLYLINE
8
WINDOWS
90
4
70
1
10
222.000000
20
153.000000
10
254.000000
20
153.000000
10
254.000000
20
185.000000
10
222.000000
20
185.000000
0
LWPOLYLINE
8
WINDOWS
90
4
70
1
10
288.000000
20
153.000000
10
304.000000
20
153.000000
10
304.000000
20
179.000000
10
288.000000
20
179.000000
0
LWPOLYLINE
8
WINDOWS
90
4
70
1
10
313.000000
20
153.000000
10
329.000000
20
153.000000
10
329.000000
20
179.000000
10
313.000000
20
179.000000
0
LWPOLYLINE
8
WINDOWS
90
4
70
1
10
62.000000
20
177.000000
10
203.000000
20
177.000000
10
203.000000
20
257.000000
10
62.000000
20
257.000000
0
LWPOLYLINE
8
WINDOWS
90
4
70
1
10
12.000000
20
193.000000
10
51.000000
20
193.000000
10
51.000000
20
257.000000
10
12.000000
20
257.000000
0
LWPOLYLINE
8
WINDOWS
90
4
70
1
10
337.000000
20
214.000000
10
353.000000
20
214.000000
10
353.000000
20
240.000000
10
337.000000
20
240.000000
0
LWPOLYLINE
8
WINDOWS
90
4
70
1
10
385.000000
20
216.000000
10
425.000000
20
216.000000
10
425.000000
20
259.000000
10
385.000000
20
259.000000
0
LWPOLYLINE
8
WINDOWS
90
4
70
1
10
462.000000
20
278.000000
10
550.000000
20
278.000000
10
550.000000
20
339.000000
10
462.000000
20
339.000000
0
LWPOLYLINE
8
WINDOWS
90
4
70
1
10
86.000000
20
280.000000
10
140.000000
20
280.000000
10
140.000000
20
315.000000
10
86.000000
20
315.000000
0
LWPOLYLINE
8
WINDOWS
90
4
70
1
10
142.000000
20
281.000000
10
198.000000
20
281.000000
10
198.000000
20
304.000000
10
142.000000
20
304.000000
0
LWPOLYLINE
8
DOORS
90
4
70
1
10
528.000000
20
19.000000
10
572.000000
20
19.000000
10
572.000000
20
257.000000
10
528.000000
20
257.000000
0
LINE
8
LINES
10
1.000000
20
262.000000
30
0.0
11
536.000000
21
262.000000
31
0.0
0
LINE
8
LINES
10
518.000000
20
6.000000
30
0.0
11
260.000000
21
6.000000
31
0.0
0
LINE
8
LINES
10
446.000000
20
16.000000
30
0.0
11
195.000000
21
16.000000
31
0.0
0
LINE
8
LINES
10
524.000000
20
19.000000
30
0.0
11
524.000000
21
257.000000
31
0.0
0
LINE
8
LINES
10
441.000000
20
83.000000
30
0.0
11
204.000000
21
83.000000
31
0.0
0
LINE
8
LINES
10
516.000000
20
257.000000
30
0.0
11
516.000000
21
22.000000
31
0.0
0
LINE
8
LINES
10
35.000000
20
3.000000
30
0.0
11
246.000000
21
3.000000
31
0.0
0
LINE
8
LINES
10
8.000000
20
326.000000
30
0.0
11
212.000000
21
326.000000
31
0.0
0
LINE
8
LINES
10
553.000000
20
204.000000
30
0.0
11
572.000000
21
8.000000
31
0.0
0
LINE
8
LINES
10
206.000000
20
80.000000
30
0.0
11
398.000000
21
80.000000
31
0.0
0
LINE
8
LINES
10
217.000000
20
334.000000
30
0.0
11
387.000000
21
334.000000
31
0.0
0
LINE
8
LINES
10
193.000000
20
320.000000
30
0.0
11
331.000000
21
320.000000
31
0.0
0
LINE
8
LINES
10
257.000000
20
3.000000
30
0.0
11
124.000000
21
3.000000
31
0.0
0
LINE
8
LINES
10
57.000000
20
137.000000
30
0.0
11
188.000000
21
137.000000
31
0.0
0
LINE
8
LINES
10
59.000000
20
75.000000
30
0.0
11
187.000000
21
75.000000
31
0.0
0
LINE
8
LINES
10
273.000000
20
339.000000
30
0.0
11
388.000000
21
339.000000
31
0.0
0
LINE
8
LINES
10
528.000000
20
256.000000
30
0.0
11
528.000000
21
147.000000
31
0.0
0
LINE
8
LINES
10
40.000000
20
153.000000
30
0.0
11
40.000000
21
252.000000
31
0.0
0
LINE
8
LINES
10
206.000000
20
324.000000
30
0.0
11
121.000000
21
324.000000
31
0.0
0
LINE
8
LINES
10
62.000000
20
209.000000
30
0.0
11
147.000000
21
209.000000
31
0.0
0
LINE
8
LINES
10
126.000000
20
81.000000
30
0.0
11
195.000000
21
81.000000
31
0.0
0
LINE
8
LINES
10
353.000000
20
57.000000
30
0.0
11
284.000000
21
57.000000
31
0.0
0
LINE
8
LINES
10
353.000000
20
120.000000
30
0.0
11
284.000000
21
120.000000
31
0.0
0
LINE
8
LINES
10
353.000000
20
182.000000
30
0.0
11
284.000000
21
182.000000
31
0.0
0
LINE
8
LINES
10
377.000000
20
332.000000
30
0.0
11
308.000000
21
332.000000
31
0.0
0
LINE
8
LINES
10
121.000000
20
9.000000
30
0.0
11
57.000000
21
9.000000
31
0.0
0
LINE
8
LINES
10
145.000000
20
204.000000
30
0.0
11
81.000000
21
204.000000
31
0.0
0
LINE
8
LINES
10
454.000000
20
316.000000
30
0.0
11
518.000000
21
316.000000
31
0.0
0
LINE
8
LINES
10
68.000000
20
318.000000
30
0.0
11
6.000000
21
318.000000
31
0.0
0
LINE
8
LINES
10
136.000000
20
201.000000
30
0.0
11
198.000000
21
201.000000
31
0.0
0
LINE
8
LINES
10
129.000000
20
16.000000
30
0.0
11
192.000000
21
16.000000
31
0.0
0
LINE
8
LINES
10
342.000000
20
275.000000
30
0.0
11
278.000000
21
275.000000
31
0.0
0
LINE
8
LINES
10
454.000000
20
70.000000
30
0.0
11
516.000000
21
70.000000
31
0.0
0
LINE
8
LINES
10
454.000000
20
136.000000
30
0.0
11
516.000000
21
136.000000
31
0.0
0
LINE
8
LINES
10
193.000000
20
24.000000
30
0.0
11
131.000000
21
24.000000
31
0.0
0
LINE
8
LINES
10
454.000000
20
12.000000
30
0.0
11
515.000000
21
12.000000
31
0.0
0
LINE
8
LINES
10
508.000000
20
24.000000
30
0.0
11
446.000000
21
24.000000
31
0.0
0
LINE
8
LINES
10
3.000000
20
302.000000
30
0.0
11
65.000000
21
302.000000
31
0.0
0
LINE
8
LINES
10
62.000000
20
83.000000
30
0.0
11
123.000000
21
83.000000
31
0.0
0
LINE
8
LINES
10
62.000000
20
17.000000
30
0.0
11
121.000000
21
17.000000
31
0.0
0
LINE
8
LINES
10
307.000000
20
216.000000
30
0.0
11
368.000000
21
216.000000
31
0.0
0
LINE
8
LINES
10
457.000000
20
284.000000
30
0.0
11
516.000000
21
275.000000
31
0.0
0
LINE
8
LINES
10
454.000000
20
80.000000
30
0.0
11
513.000000
21
80.000000
31
0.0
0
LINE
8
LINES
10
126.000000
20
25.000000
30
0.0
11
67.000000
21
25.000000
31
0.0
0
LINE
8
LINES
10
184.000000
20
76.000000
30
0.0
11
126.000000
21
76.000000
31
0.0
0
LINE
8
LINES
10
428.000000
20
123.000000
30
0.0
11
371.000000
21
123.000000
31
0.0
0
LINE
8
LINES
10
126.000000
20
145.000000
30
0.0
11
182.000000
21
145.000000
31
0.0
0
LINE
8
LINES
10
516.000000
20
273.000000
30
0.0
11
459.000000
21
273.000000
31
0.0
0
LINE
8
LINES
10
62.000000
20
145.000000
30
0.0
11
118.000000
21
145.000000
31
0.0
0
LINE
8
LINES
10
457.000000
20
200.000000
30
0.0
11
513.000000
21
200.000000
31
0.0
0
LINE
8
LINES
10
540.000000
20
328.000000
30
0.0
11
547.000000
21
272.000000
31
0.0
0
LINE
8
LINES
10
118.000000
20
76.000000
30
0.0
11
62.000000
21
76.000000
31
0.0
0
LINE
8
LINES
10
182.000000
20
140.000000
30
0.0
11
126.000000
21
140.000000
31
0.0
0
LINE
8
LINES
10
371.000000
20
118.000000
30
0.0
11
427.000000
21
118.000000
31
0.0
0
LINE
8
LINES
10
118.000000
20
140.000000
30
0.0
11
62.000000
21
140.000000
31
0.0
0
LINE
8
LINES
10
441.000000
20
184.000000
30
0.0
11
384.000000
21
184.000000
31
0.0
0
LINE
8
LINES
10
177.000000
20
353.000000
30
0.0
11
233.000000
21
353.000000
31
0.0
0
LINE
8
LINES
10
420.000000
20
326.000000
30
0.0
11
460.000000
21
286.000000
31
0.0
0
LINE
8
LINES
10
369.000000
20
180.000000
30
0.0
11
422.000000
21
180.000000
31
0.0
0
LINE
8
LINES
10
252.000000
20
214.000000
30
0.0
11
307.000000
21
214.000000
31
0.0
0
LINE
8
LINES
10
504.000000
20
156.000000
30
0.0
11
451.000000
21
156.000000
31
0.0
0
LINE
8
LINES
10
512.000000
20
73.000000
30
0.0
11
459.000000
21
73.000000
31
0.0
0
LINE
8
LINES
10
268.000000
20
275.000000
30
0.0
11
217.000000
21
275.000000
31
0.0
0
LINE
8
LINES
10
396.000000
20
275.000000
30
0.0
11
342.000000
21
275.000000
31
0.0
0
LINE
8
LINES
10
340.000000
20
321.000000
30
0.0
11
393.000000
21
321.000000
31
0.0
0
LINE
8
LINES
10
147.000000
20
273.000000
30
0.0
11
96.000000
21
273.000000
31
0.0
0
LINE
8
LINES
10
94.000000
20
272.000000
30
0.0
11
43.000000
21
272.000000
31
0.0
0
LINE
8
LINES
10
460.000000
20
144.000000
30
0.0
11
512.000000
21
144.000000
31
0.0
0
LINE
8
LINES
10
512.000000
20
139.000000
30
0.0
11
460.000000
21
139.000000
31
0.0
0
LINE
8
LINES
10
510.000000
20
204.000000
30
0.0
11
459.000000
21
204.000000
31
0.0
0
LINE
8
LINES
10
222.000000
20
342.000000
30
0.0
11
273.000000
21
342.000000
31
0.0
0
LINE
8
LINES
10
62.000000
20
256.000000
30
0.0
11
62.000000
21
206.000000
31
0.0
0
LINE
8
LINES
10
456.000000
20
275.000000
30
0.0
11
406.000000
21
275.000000
31
0.0
0
LINE
8
LINES
10
206.000000
20
275.000000
30
0.0
11
156.000000
21
275.000000
31
0.0
0
LINE
8
LINES
10
73.000000
20
33.000000
30
0.0
11
124.000000
21
33.000000
31
0.0
0
LINE
8
LINES
10
64.000000
20
148.000000
30
0.0
11
64.000000
21
198.000000
31
0.0
0
LINE
8
LINES
10
142.000000
20
32.000000
30
0.0
11
193.000000
21
32.000000
31
0.0
0
LINE
8
LINES
10
508.000000
20
30.000000
30
0.0
11
459.000000
21
30.000000
31
0.0
0
LINE
8
LINES
10
459.000000
20
209.000000
30
0.0
11
508.000000
21
209.000000
31
0.0
0
LINE
8
LINES
10
459.000000
20
28.000000
30
0.0
11
508.000000
21
28.000000
31
0.0
0
LINE
8
LINES
10
48.000000
20
52.000000
30
0.0
11
1.000000
21
57.000000
31
0.0
0
LINE
8
LINES
10
62.000000
20
195.000000
30
0.0
11
62.000000
21
147.000000
31
0.0
0
LINE
8
LINES
10
174.000000
20
334.000000
30
0.0
11
126.000000
21
334.000000
31
0.0
0
LINE
8
LINES
10
78.000000
20
193.000000
30
0.0
11
78.000000
21
148.000000
31
0.0
0
LINE
8
LINES
10
104.000000
20
313.000000
30
0.0
11
148.000000
21
313.000000
31
0.0
0
LINE
8
LINES
10
425.000000
20
216.000000
30
0.0
11
425.000000
21
259.000000
31
0.0
0
LINE
8
LINES
10
544.000000
20
153.000000
30
0.0
11
544.000000
21
196.000000
31
0.0
0
LINE
8
LINES
10
428.000000
20
60.000000
30
0.0
11
384.000000
21
60.000000
31
0.0
0
LINE
8
LINES
10
384.000000
20
57.000000
30
0.0
11
428.000000
21
57.000000
31
0.0
0
LINE
8
LINES
10
187.000000
20
156.000000
30
0.0
11
142.000000
21
156.000000
31
0.0
0
LINE
8
LINES
10
382.000000
20
342.000000
30
0.0
11
425.000000
21
348.000000
31
0.0
0
LINE
8
LINES
10
396.000000
20
217.000000
30
0.0
11
396.000000
21
259.000000
31
0.0
0
LINE
8
LINES
10
385.000000
20
257.000000
30
0.0
11
385.000000
21
214.000000
31
0.0
0
LINE
8
LINES
10
195.000000
20
30.000000
30
0.0
11
195.000000
21
73.000000
31
0.0
0
LINE
8
LINES
10
396.000000
20
276.000000
30
0.0
11
396.000000
21
318.000000
31
0.0
0
LINE
8
LINES
10
265.000000
20
185.000000
30
0.0
11
222.000000
21
185.000000
31
0.0
0
LINE
8
LINES
10
38.000000
20
118.000000
30
0.0
11
0.000000
21
102.000000
31
0.0
0
LINE
8
LINES
10
337.000000
20
276.000000
30
0.0
11
337.000000
21
318.000000
31
0.0
0
LINE
8
LINES
10
118.000000
20
35.000000
30
0.0
11
76.000000
21
35.000000
31
0.0
0
LINE
8
LINES
10
252.000000
20
60.000000
30
0.0
11
211.000000
21
60.000000
31
0.0
0
LINE
8
LINES
10
86.000000
20
156.000000
30
0.0
11
86.000000
21
196.000000
31
0.0
0
LINE
8
LINES
10
393.000000
20
318.000000
30
0.0
11
393.000000
21
278.000000
31
0.0
0
LINE
8
LINES
10
478.000000
20
286.000000
30
0.0
11
518.000000
21
286.000000
31
0.0
0
LINE
8
LINES
10
196.000000
20
246.000000
30
0.0
11
156.000000
21
246.000000
31
0.0
0
LINE
8
LINES
10
126.000000
20
216.000000
30
0.0
11
126.000000
21
256.000000
31
0.0
0
LINE
8
LINES
10
385.000000
20
152.000000
30
0.0
11
425.000000
21
152.000000
31
0.0
0
LINE
8
LINES
10
334.000000
20
316.000000
30
0.0
11
334.000000
21
276.000000
31
0.0
0
LINE
8
LINES
10
1.000000
20
54.000000
30
0.0
11
38.000000
21
49.000000
31
0.0
0
LINE
8
LINES
10
219.000000
20
278.000000
30
0.0
11
219.000000
21
316.000000
31
0.0
0
LINE
8
LINES
10
406.000000
20
278.000000
30
0.0
11
406.000000
21
318.000000
31
0.0
0
LINE
8
LINES
10
414.000000
20
256.000000
30
0.0
11
414.000000
21
217.000000
31
0.0
0
LINE
8
LINES
10
409.000000
20
217.000000
30
0.0
11
409.000000
21
256.000000
31
0.0
0
LINE
8
LINES
10
400.000000
20
256.000000
30
0.0
11
400.000000
21
217.000000
31
0.0
0
LINE
8
LINES
10
385.000000
20
214.000000
30
0.0
11
424.000000
21
214.000000
31
0.0
0
LINE
8
LINES
10
112.000000
20
156.000000
30
0.0
11
112.000000
21
193.000000
31
0.0
0
LINE
8
LINES
10
81.000000
20
110.000000
30
0.0
11
121.000000
21
110.000000
31
0.0
0
LINE
8
LINES
10
99.000000
20
156.000000
30
0.0
11
99.000000
21
193.000000
31
0.0
0
LINE
8
LINES
10
91.000000
20
193.000000
30
0.0
11
91.000000
21
156.000000
31
0.0
0
LINE
8
LINES
10
65.000000
20
212.000000
30
0.0
11
65.000000
21
252.000000
31
0.0
0
LINE
8
LINES
10
331.000000
20
318.000000
30
0.0
11
331.000000
21
278.000000
31
0.0
0
LINE
8
LINES
10
281.000000
20
278.000000
30
0.0
11
281.000000
21
318.000000
31
0.0
0
LINE
8
LINES
10
344.000000
20
278.000000
30
0.0
11
344.000000
21
318.000000
31
0.0
0
LINE
8
LINES
10
268.000000
20
318.000000
30
0.0
11
268.000000
21
278.000000
31
0.0
0
LINE
8
LINES
10
444.000000
20
147.000000
30
0.0
11
451.000000
21
108.000000
31
0.0
0
LINE
8
LINES
10
504.000000
20
113.000000
30
0.0
11
467.000000
21
113.000000
31
0.0
0
LINE
8
LINES
10
100.000000
20
217.000000
30
0.0
11
100.000000
21
254.000000
31
0.0
0
LINE
8
LINES
10
116.000000
20
193.000000
30
0.0
11
116.000000
21
156.000000
31
0.0
0
LINE
8
LINES
10
105.000000
20
254.000000
30
0.0
11
105.000000
21
217.000000
31
0.0
0
LINE
8
LINES
10
92.000000
20
254.000000
30
0.0
11
92.000000
21
217.000000
31
0.0
0
LINE
8
LINES
10
104.000000
20
193.000000
30
0.0
11
104.000000
21
156.000000
31
0.0
0
LINE
8
LINES
10
118.000000
20
254.000000
30
0.0
11
118.000000
21
217.000000
31
0.0
0
LINE
8
LINES
10
136.000000
20
68.000000
30
0.0
11
97.000000
21
68.000000
31
0.0
0
LINE
8
LINES
10
446.000000
20
83.000000
30
0.0
11
449.000000
21
46.000000
31
0.0
0
LINE
8
LINES
10
36.000000
20
19.000000
30
0.0
11
1.000000
21
19.000000
31
0.0
0
LINE
8
LINES
10
99.000000
20
305.000000
30
0.0
11
136.000000
21
305.000000
31
0.0
0
LINE
8
LINES
10
211.000000
20
180.000000
30
0.0
11
246.000000
21
180.000000
31
0.0
0
LINE
8
LINES
10
88.000000
20
217.000000
30
0.0
11
88.000000
21
252.000000
31
0.0
0
LINE
8
LINES
10
467.000000
20
108.000000
30
0.0
11
504.000000
21
108.000000
31
0.0
0
LINE
8
LINES
10
113.000000
20
217.000000
30
0.0
11
113.000000
21
252.000000
31
0.0
0
LINE
8
LINES
10
78.000000
20
252.000000
30
0.0
11
78.000000
21
217.000000
31
0.0
0
LINE
8
LINES
10
531.000000
20
19.000000
30
0.0
11
568.000000
21
19.000000
31
0.0
0
LINE
8
LINES
10
491.000000
20
340.000000
30
0.0
11
526.000000
21
345.000000
31
0.0
0
LINE
8
LINES
10
38.000000
20
88.000000
30
0.0
11
41.000000
21
123.000000
31
0.0
0
LINE
8
LINES
10
188.000000
20
211.000000
30
0.0
11
153.000000
21
211.000000
31
0.0
0
LINE
8
LINES
10
568.000000
20
24.000000
30
0.0
11
532.000000
21
24.000000
31
0.0
0
LINE
8
LINES
10
204.000000
20
316.000000
30
0.0
11
208.000000
21
283.000000
31
0.0
0
LINE
8
LINES
10
393.000000
20
257.000000
30
0.0
11
393.000000
21
222.000000
31
0.0
0
LINE
8
LINES
10
96.000000
20
70.000000
30
0.0
11
62.000000
21
70.000000
31
0.0
0
LINE
8
LINES
10
390.000000
20
222.000000
30
0.0
11
390.000000
21
256.000000
31
0.0
0
LINE
8
LINES
10
252.000000
20
236.000000
30
0.0
11
286.000000
21
236.000000
31
0.0
0
LINE
8
LINES
10
531.000000
20
142.000000
30
0.0
11
531.000000
21
108.000000
31
0.0
0
LINE
8
LINES
10
321.000000
20
243.000000
30
0.0
11
289.000000
21
238.000000
31
0.0
0
LINE
8
LINES
10
566.000000
20
46.000000
30
0.0
11
532.000000
21
46.000000
31
0.0
0
LINE
8
LINES
10
532.000000
20
43.000000
30
0.0
11
566.000000
21
43.000000
31
0.0
0
LINE
8
LINES
10
481.000000
20
289.000000
30
0.0
11
460.000000
21
313.000000
31
0.0
0
LINE
8
LINES
10
444.000000
20
211.000000
30
0.0
11
448.000000
21
179.000000
31
0.0
0
LINE
8
LINES
10
86.000000
20
200.000000
30
0.0
11
118.000000
21
200.000000
31
0.0
0
LINE
8
LINES
10
60.000000
20
116.000000
30
0.0
11
60.000000
21
86.000000
31
0.0
0
LINE
8
LINES
10
41.000000
20
256.000000
30
0.0
11
9.000000
21
256.000000
31
0.0
0
LINE
8
LINES
10
385.000000
20
46.000000
30
0.0
11
353.000000
21
46.000000
31
0.0
0
LINE
8
LINES
10
252.000000
20
257.000000
30
0.0
11
283.000000
21
257.000000
31
0.0
0
LINE
8
LINES
10
457.000000
20
241.000000
30
0.0
11
454.000000
21
211.000000
31
0.0
0
LINE
8
LINES
10
252.000000
20
28.000000
30
0.0
11
252.000000
21
57.000000
31
0.0
0
LINE
8
LINES
10
286.000000
20
46.000000
30
0.0
11
256.000000
21
46.000000
31
0.0
0
ENDSEC
0
EOF
