0
SECTION
2
ENTITIES
0
LWPOLYLINE
8
FACADE_OUTLINE
90
4
70
1
10
0.000000
20
0.000000
10
631.000000
20
0.000000
10
631.000000
20
458.000000
10
0.000000
20
458.000000
0
LWPOLYLINE
8
WINDOWS
90
4
70
1
10
0.000000
20
0.000000
10
248.000000
20
0.000000
10
248.000000
20
116.000000
10
0.000000
20
116.000000
0
LWPOLYLINE
8
WINDOWS
90
4
70
1
10
232.000000
20
88.000000
10
316.000000
20
88.000000
10
316.000000
20
140.000000
10
232.000000
20
140.000000
0
LWPOLYLINE
8
WINDOWS
90
4
70
1
10
0.000000
20
164.000000
10
620.000000
20
164.000000
10
620.000000
20
456.000000
10
0.000000
20
456.000000
0
LWPOLYLINE
8
WINDOWS
90
4
70
1
10
0.000000
20
180.000000
10
88.000000
20
180.000000
10
88.000000
20
240.000000
10
0.000000
20
240.000000
0
LWPOLYLINE
8
WINDOWS
90
4
70
1
10
136.000000
20
180.000000
10
228.000000
20
180.000000
10
228.000000
20
232.000000
10
136.000000
20
232.000000
0
LWPOLYLINE
8
WINDOWS
90
4
70
1
10
232.000000
20
180.000000
10
372.000000
20
180.000000
10
372.000000
20
232.000000
10
232.000000
20
232.000000
0
LWPOLYLINE
8
WINDOWS
90
4
70
1
10
412.000000
20
180.000000
10
468.000000
20
180.000000
10
468.000000
20
232.000000
10
412.000000
20
232.000000
0
LWPOLYLINE
8
WINDOWS
90
4
70
1
10
160.000000
20
184.000000
10
208.000000
20
184.000000
10
208.000000
20
228.000000
10
160.000000
20
228.000000
0
LWPOLYLINE
8
WINDOWS
90
4
70
1
10
256.000000
20
184.000000
10
300.000000
20
184.000000
10
300.000000
20
228.000000
10
256.000000
20
228.000000
0
LWPOLYLINE
8
WINDOWS
90
4
70
1
10
104.000000
20
264.000000
10
604.000000
20
264.000000
10
604.000000
20
456.000000
10
104.000000
20
456.000000
0
LWPOLYLINE
8
WINDOWS
90
4
70
1
10
16.000000
20
268.000000
10
96.000000
20
268.000000
10
96.000000
20
344.000000
10
16.000000
20
344.000000
0
LWPOLYLINE
8
WINDOWS
90
4
70
1
10
140.000000
20
272.000000
10
212.000000
20
272.000000
10
212.000000
20
324.000000
10
140.000000
20
324.000000
0
LWPOLYLINE
8
WINDOWS
90
4
70
1
10
232.000000
20
272.000000
10
372.000000
20
272.000000
10
372.000000
20
324.000000
10
232.000000
20
324.000000
0
LWPOLYLINE
8
WINDOWS
90
4
70
1
10
396.000000
20
272.000000
10
488.000000
20
272.000000
10
488.000000
20
324.000000
10
396.000000
20
324.000000
0
LWPOLYLINE
8
WINDOWS
90
4
70
1
10
256.000000
20
280.000000
10
300.000000
20
280.000000
10
300.000000
20
320.000000
10
256.000000
20
320.000000
0
LWPOLYLINE
8
WINDOWS
90
4
70
1
10
416.000000
20
280.000000
10
464.000000
20
280.000000
10
464.000000
20
320.000000
10
416.000000
20
320.000000
0
LWPOLYLINE
8
WINDOWS
90
4
70
1
10
168.000000
20
280.000000
10
200.000000
20
280.000000
10
200.000000
20
312.000000
10
168.000000
20
312.000000
0
LWPOLYLINE
8
WINDOWS
90
4
70
1
10
160.000000
20
364.000000
10
212.000000
20
364.000000
10
212.000000
20
416.000000
10
160.000000
20
416.000000
0
LWPOLYLINE
8
WINDOWS
90
4
70
1
10
256.000000
20
368.000000
10
304.000000
20
368.000000
10
304.000000
20
416.000000
10
256.000000
20
416.000000
0
LWPOLYLINE
8
WINDOWS
90
4
70
1
10
324.000000
20
368.000000
10
376.000000
20
368.000000
10
376.000000
20
416.000000
10
324.000000
20
416.000000
0
LWPOLYLINE
8
WINDOWS
90
4
70
1
10
416.000000
20
368.000000
10
472.000000
20
368.000000
10
472.000000
20
416.000000
10
416.000000
20
416.000000
0
LWPOLYLINE
8
WINDOWS
90
4
70
1
10
16.000000
20
368.000000
10
44.000000
20
368.000000
10
44.000000
20
408.000000
10
16.000000
20
408.000000
0
LWPOLYLINE
8
WINDOWS
90
4
70
1
10
428.000000
20
376.000000
10
460.000000
20
376.000000
10
460.000000
20
408.000000
10
428.000000
20
408.000000
0
LWPOLYLINE
8
WINDOWS
90
4
70
1
10
24.000000
20
412.000000
10
48.000000
20
412.000000
10
48.000000
20
440.000000
10
24.000000
20
440.000000
0
LWPOLYLINE
8
DOORS
90
4
70
1
10
512.000000
20
0.000000
10
631.000000
20
0.000000
10
631.000000
20
276.000000
10
512.000000
20
276.000000
0
LWPOLYLINE
8
DOORS
90
4
70
1
10
348.000000
20
276.000000
10
364.000000
20
276.000000
10
364.000000
20
316.000000
10
348.000000
20
316.000000
0
LWPOLYLINE
8
DOORS
90
4
70
1
10
260.000000
20
368.000000
10
280.000000
20
368.000000
10
280.000000
20
408.000000
10
260.000000
20
408.000000
0
LWPOLYLINE
8
DOORS
90
4
70
1
10
348.000000
20
368.000000
10
368.000000
20
368.000000
10
368.000000
20
408.000000
10
348.000000
20
408.000000
0
LWPOLYLINE
8
DOORS
90
4
70
1
10
168.000000
20
372.000000
10
184.000000
20
372.000000
10
184.000000
20
408.000000
10
168.000000
20
408.000000
0
LWPOLYLINE
8
DOORS
90
4
70
1
10
184.000000
20
372.000000
10
200.000000
20
372.000000
10
200.000000
20
408.000000
10
184.000000
20
408.000000
0
LWPOLYLINE
8
DOORS
90
4
70
1
10
328.000000
20
372.000000
10
344.000000
20
372.000000
10
344.000000
20
408.000000
10
328.000000
20
408.000000
0
LWPOLYLINE
8
DOORS
90
4
70
1
10
280.000000
20
372.000000
10
296.000000
20
372.000000
10
296.000000
20
408.000000
10
280.000000
20
408.000000
0
LINE
8
LINES
10
516.000000
20
160.000000
30
0.0
11
104.000000
21
160.000000
31
0.0
0
LINE
8
LINES
10
104.000000
20
152.000000
30
0.0
11
512.000000
21
152.000000
31
0.0
0
LINE
8
LINES
10
512.000000
20
172.000000
30
0.0
11
104.000000
21
172.000000
31
0.0
0
LINE
8
LINES
10
108.000000
20
72.000000
30
0.0
11
508.000000
21
72.000000
31
0.0
0
LINE
8
LINES
10
500.000000
20
80.000000
30
0.0
11
120.000000
21
80.000000
31
0.0
0
LINE
8
LINES
10
248.000000
20
0.000000
30
0.0
11
572.000000
21
0.000000
31
0.0
0
LINE
8
LINES
10
520.000000
20
432.000000
30
0.0
11
520.000000
21
168.000000
31
0.0
0
LINE
8
LINES
10
104.000000
20
164.000000
30
0.0
11
344.000000
21
164.000000
31
0.0
0
LINE
8
LINES
10
468.000000
20
148.000000
30
0.0
11
252.000000
21
148.000000
31
0.0
0
LINE
8
LINES
10
56.000000
20
0.000000
30
0.0
11
248.000000
21
0.000000
31
0.0
0
LINE
8
LINES
10
344.000000
20
164.000000
30
0.0
11
516.000000
21
164.000000
31
0.0
0
LINE
8
LINES
10
516.000000
20
176.000000
30
0.0
11
516.000000
21
348.000000
31
0.0
0
LINE
8
LINES
10
368.000000
20
228.000000
30
0.0
11
232.000000
21
228.000000
31
0.0
0
LINE
8
LINES
10
368.000000
20
324.000000
30
0.0
11
236.000000
21
324.000000
31
0.0
0
LINE
8
LINES
10
392.000000
20
456.000000
30
0.0
11
520.000000
21
456.000000
31
0.0
0
LINE
8
LINES
10
0.000000
20
112.000000
30
0.0
11
56.000000
21
0.000000
31
0.0
0
LINE
8
LINES
10
108.000000
20
320.000000
30
0.0
11
108.000000
21
440.000000
31
0.0
0
LINE
8
LINES
10
576.000000
20
0.000000
30
0.0
11
624.000000
21
100.000000
31
0.0
0
LINE
8
LINES
10
100.000000
20
444.000000
30
0.0
11
208.000000
21
444.000000
31
0.0
0
LINE
8
LINES
10
104.000000
20
328.000000
30
0.0
11
104.000000
21
220.000000
31
0.0
0
LINE
8
LINES
10
624.000000
20
172.000000
30
0.0
11
520.000000
21
172.000000
31
0.0
0
LINE
8
LINES
10
624.000000
20
160.000000
30
0.0
11
520.000000
21
160.000000
31
0.0
0
LINE
8
LINES
10
524.000000
20
152.000000
30
0.0
11
624.000000
21
152.000000
31
0.0
0
LINE
8
LINES
10
520.000000
20
164.000000
30
0.0
11
624.000000
21
164.000000
31
0.0
0
LINE
8
LINES
10
108.000000
20
220.000000
30
0.0
11
108.000000
21
320.000000
31
0.0
0
LINE
8
LINES
10
248.000000
20
148.000000
30
0.0
11
152.000000
21
148.000000
31
0.0
0
LINE
8
LINES
10
108.000000
20
440.000000
30
0.0
11
108.000000
21
340.000000
31
0.0
0
LINE
8
LINES
10
624.000000
20
228.000000
30
0.0
11
624.000000
21
136.000000
31
0.0
0
LINE
8
LINES
10
152.000000
20
436.000000
30
0.0
11
244.000000
21
436.000000
31
0.0
0
LINE
8
LINES
10
396.000000
20
272.000000
30
0.0
11
484.000000
21
272.000000
31
0.0
0
LINE
8
LINES
10
232.000000
20
272.000000
30
0.0
11
320.000000
21
272.000000
31
0.0
0
LINE
8
LINES
10
620.000000
20
136.000000
30
0.0
11
536.000000
21
136.000000
31
0.0
0
LINE
8
LINES
10
268.000000
20
448.000000
30
0.0
11
348.000000
21
448.000000
31
0.0
0
LINE
8
LINES
10
20.000000
20
364.000000
30
0.0
11
20.000000
21
440.000000
31
0.0
0
LINE
8
LINES
10
396.000000
20
432.000000
30
0.0
11
472.000000
21
432.000000
31
0.0
0
LINE
8
LINES
10
548.000000
20
180.000000
30
0.0
11
624.000000
21
180.000000
31
0.0
0
LINE
8
LINES
10
520.000000
20
360.000000
30
0.0
11
520.000000
21
432.000000
31
0.0
0
LINE
8
LINES
10
224.000000
20
228.000000
30
0.0
11
160.000000
21
228.000000
31
0.0
0
LINE
8
LINES
10
464.000000
20
324.000000
30
0.0
11
396.000000
21
324.000000
31
0.0
0
LINE
8
LINES
10
104.000000
20
456.000000
30
0.0
11
168.000000
21
456.000000
31
0.0
0
LINE
8
LINES
10
140.000000
20
272.000000
30
0.0
11
204.000000
21
272.000000
31
0.0
0
LINE
8
LINES
10
464.000000
20
428.000000
30
0.0
11
400.000000
21
428.000000
31
0.0
0
LINE
8
LINES
10
160.000000
20
180.000000
30
0.0
11
224.000000
21
180.000000
31
0.0
0
LINE
8
LINES
10
520.000000
20
456.000000
30
0.0
11
584.000000
21
456.000000
31
0.0
0
LINE
8
LINES
10
252.000000
20
84.000000
30
0.0
11
312.000000
21
84.000000
31
0.0
0
LINE
8
LINES
10
256.000000
20
180.000000
30
0.0
11
312.000000
21
180.000000
31
0.0
0
LINE
8
LINES
10
8.000000
20
264.000000
30
0.0
11
8.000000
21
320.000000
31
0.0
0
LINE
8
LINES
10
240.000000
20
432.000000
30
0.0
11
184.000000
21
432.000000
31
0.0
0
LINE
8
LINES
10
408.000000
20
128.000000
30
0.0
11
464.000000
21
128.000000
31
0.0
0
LINE
8
LINES
10
504.000000
20
136.000000
30
0.0
11
504.000000
21
80.000000
31
0.0
0
LINE
8
LINES
10
192.000000
20
440.000000
30
0.0
11
140.000000
21
440.000000
31
0.0
0
LINE
8
LINES
10
416.000000
20
412.000000
30
0.0
11
468.000000
21
412.000000
31
0.0
0
LINE
8
LINES
10
116.000000
20
84.000000
30
0.0
11
116.000000
21
136.000000
31
0.0
0
LINE
8
LINES
10
320.000000
20
412.000000
30
0.0
11
376.000000
21
412.000000
31
0.0
0
LINE
8
LINES
10
320.000000
20
132.000000
30
0.0
11
368.000000
21
132.000000
31
0.0
0
LINE
8
LINES
10
156.000000
20
132.000000
30
0.0
11
208.000000
21
132.000000
31
0.0
0
LINE
8
LINES
10
464.000000
20
228.000000
30
0.0
11
416.000000
21
228.000000
31
0.0
0
LINE
8
LINES
10
160.000000
20
412.000000
30
0.0
11
212.000000
21
412.000000
31
0.0
0
LINE
8
LINES
10
160.000000
20
320.000000
30
0.0
11
208.000000
21
320.000000
31
0.0
0
LINE
8
LINES
10
320.000000
20
320.000000
30
0.0
11
372.000000
21
320.000000
31
0.0
0
LINE
8
LINES
10
48.000000
20
164.000000
30
0.0
11
96.000000
21
164.000000
31
0.0
0
LINE
8
LINES
10
208.000000
20
324.000000
30
0.0
11
160.000000
21
324.000000
31
0.0
0
LINE
8
LINES
10
44.000000
20
444.000000
30
0.0
11
92.000000
21
444.000000
31
0.0
0
LINE
8
LINES
10
468.000000
20
416.000000
30
0.0
11
420.000000
21
416.000000
31
0.0
0
LINE
8
LINES
10
304.000000
20
416.000000
30
0.0
11
252.000000
21
416.000000
31
0.0
0
LINE
8
LINES
10
216.000000
20
448.000000
30
0.0
11
264.000000
21
448.000000
31
0.0
0
LINE
8
LINES
10
256.000000
20
412.000000
30
0.0
11
304.000000
21
412.000000
31
0.0
0
LINE
8
LINES
10
208.000000
20
456.000000
30
0.0
11
256.000000
21
456.000000
31
0.0
0
LINE
8
LINES
10
348.000000
20
440.000000
30
0.0
11
304.000000
21
440.000000
31
0.0
0
LINE
8
LINES
10
0.000000
20
184.000000
30
0.0
11
0.000000
21
232.000000
31
0.0
0
LINE
8
LINES
10
208.000000
20
416.000000
30
0.0
11
160.000000
21
416.000000
31
0.0
0
LINE
8
LINES
10
232.000000
20
132.000000
30
0.0
11
232.000000
21
84.000000
31
0.0
0
LINE
8
LINES
10
416.000000
20
320.000000
30
0.0
11
464.000000
21
320.000000
31
0.0
0
LINE
8
LINES
10
420.000000
20
368.000000
30
0.0
11
464.000000
21
368.000000
31
0.0
0
LINE
8
LINES
10
320.000000
20
272.000000
30
0.0
11
320.000000
21
320.000000
31
0.0
0
LINE
8
LINES
10
420.000000
20
412.000000
30
0.0
11
420.000000
21
368.000000
31
0.0
0
LINE
8
LINES
10
372.000000
20
416.000000
30
0.0
11
324.000000
21
416.000000
31
0.0
0
LINE
8
LINES
10
264.000000
20
456.000000
30
0.0
11
312.000000
21
456.000000
31
0.0
0
LINE
8
LINES
10
104.000000
20
216.000000
30
0.0
11
104.000000
21
168.000000
31
0.0
0
LINE
8
LINES
10
96.000000
20
176.000000
30
0.0
11
52.000000
21
176.000000
31
0.0
0
LINE
8
LINES
10
252.000000
20
132.000000
30
0.0
11
296.000000
21
132.000000
31
0.0
0
LINE
8
LINES
10
256.000000
20
368.000000
30
0.0
11
300.000000
21
368.000000
31
0.0
0
LINE
8
LINES
10
324.000000
20
368.000000
30
0.0
11
368.000000
21
368.000000
31
0.0
0
LINE
8
LINES
10
208.000000
20
368.000000
30
0.0
11
208.000000
21
412.000000
31
0.0
0
LINE
8
LINES
10
204.000000
20
272.000000
30
0.0
11
204.000000
21
316.000000
31
0.0
0
LINE
8
LINES
10
232.000000
20
224.000000
30
0.0
11
232.000000
21
180.000000
31
0.0
0
LINE
8
LINES
10
324.000000
20
272.000000
30
0.0
11
368.000000
21
272.000000
31
0.0
0
LINE
8
LINES
10
368.000000
20
368.000000
30
0.0
11
368.000000
21
412.000000
31
0.0
0
LINE
8
LINES
10
300.000000
20
368.000000
30
0.0
11
300.000000
21
412.000000
31
0.0
0
LINE
8
LINES
10
204.000000
20
84.000000
30
0.0
11
204.000000
21
128.000000
31
0.0
0
LINE
8
LINES
10
460.000000
20
84.000000
30
0.0
11
460.000000
21
128.000000
31
0.0
0
LINE
8
LINES
10
364.000000
20
132.000000
30
0.0
11
320.000000
21
132.000000
31
0.0
0
LINE
8
LINES
10
460.000000
20
132.000000
30
0.0
11
416.000000
21
132.000000
31
0.0
0
LINE
8
LINES
10
104.000000
20
168.000000
30
0.0
11
104.000000
21
216.000000
31
0.0
0
LINE
8
LINES
10
416.000000
20
128.000000
30
0.0
11
416.000000
21
84.000000
31
0.0
0
LINE
8
LINES
10
256.000000
20
408.000000
30
0.0
11
256.000000
21
368.000000
31
0.0
0
LINE
8
LINES
10
324.000000
20
412.000000
30
0.0
11
324.000000
21
368.000000
31
0.0
0
LINE
8
LINES
10
416.000000
20
224.000000
30
0.0
11
416.000000
21
176.000000
31
0.0
0
LINE
8
LINES
10
552.000000
20
408.000000
30
0.0
11
552.000000
21
368.000000
31
0.0
0
LINE
8
LINES
10
0.000000
20
152.000000
30
0.0
11
44.000000
21
152.000000
31
0.0
0
LINE
8
LINES
10
296.000000
20
320.000000
30
0.0
11
296.000000
21
276.000000
31
0.0
0
LINE
8
LINES
10
296.000000
20
228.000000
30
0.0
11
296.000000
21
184.000000
31
0.0
0
LINE
8
LINES
10
396.000000
20
320.000000
30
0.0
11
396.000000
21
272.000000
31
0.0
0
LINE
8
LINES
10
136.000000
20
316.000000
30
0.0
11
136.000000
21
272.000000
31
0.0
0
LINE
8
LINES
10
368.000000
20
272.000000
30
0.0
11
368.000000
21
316.000000
31
0.0
0
LINE
8
LINES
10
592.000000
20
228.000000
30
0.0
11
548.000000
21
228.000000
31
0.0
0
LINE
8
LINES
10
160.000000
20
408.000000
30
0.0
11
160.000000
21
368.000000
31
0.0
0
LINE
8
LINES
10
136.000000
20
224.000000
30
0.0
11
136.000000
21
180.000000
31
0.0
0
LINE
8
LINES
10
204.000000
20
136.000000
30
0.0
11
160.000000
21
136.000000
31
0.0
0
LINE
8
LINES
10
416.000000
20
276.000000
30
0.0
11
416.000000
21
320.000000
31
0.0
0
LINE
8
LINES
10
484.000000
20
272.000000
30
0.0
11
484.000000
21
316.000000
31
0.0
0
LINE
8
LINES
10
256.000000
20
276.000000
30
0.0
11
256.000000
21
320.000000
31
0.0
0
LINE
8
LINES
10
464.000000
20
368.000000
30
0.0
11
464.000000
21
408.000000
31
0.0
0
LINE
8
LINES
10
224.000000
20
184.000000
30
0.0
11
224.000000
21
224.000000
31
0.0
0
LINE
8
LINES
10
312.000000
20
84.000000
30
0.0
11
312.000000
21
128.000000
31
0.0
0
LINE
8
LINES
10
548.000000
20
224.000000
30
0.0
11
592.000000
21
224.000000
31
0.0
0
LINE
8
LINES
10
464.000000
20
320.000000
30
0.0
11
464.000000
21
276.000000
31
0.0
0
LINE
8
LINES
10
232.000000
20
316.000000
30
0.0
11
232.000000
21
272.000000
31
0.0
0
LINE
8
LINES
10
256.000000
20
320.000000
30
0.0
11
296.000000
21
320.000000
31
0.0
0
LINE
8
LINES
10
164.000000
20
364.000000
30
0.0
11
208.000000
21
364.000000
31
0.0
0
LINE
8
LINES
10
368.000000
20
136.000000
30
0.0
11
412.000000
21
136.000000
31
0.0
0
LINE
8
LINES
10
368.000000
20
320.000000
30
0.0
11
324.000000
21
320.000000
31
0.0
0
LINE
8
LINES
10
96.000000
20
160.000000
30
0.0
11
52.000000
21
160.000000
31
0.0
0
LINE
8
LINES
10
316.000000
20
184.000000
30
0.0
11
316.000000
21
224.000000
31
0.0
0
LINE
8
LINES
10
204.000000
20
224.000000
30
0.0
11
204.000000
21
184.000000
31
0.0
0
LINE
8
LINES
10
76.000000
20
368.000000
30
0.0
11
76.000000
21
408.000000
31
0.0
0
LINE
8
LINES
10
296.000000
20
128.000000
30
0.0
11
296.000000
21
88.000000
31
0.0
0
LINE
8
LINES
10
296.000000
20
184.000000
30
0.0
11
256.000000
21
184.000000
31
0.0
0
LINE
8
LINES
10
464.000000
20
408.000000
30
0.0
11
424.000000
21
408.000000
31
0.0
0
LINE
8
LINES
10
548.000000
20
224.000000
30
0.0
11
548.000000
21
184.000000
31
0.0
0
LINE
8
LINES
10
160.000000
20
84.000000
30
0.0
11
200.000000
21
84.000000
31
0.0
0
LINE
8
LINES
10
324.000000
20
176.000000
30
0.0
11
364.000000
21
176.000000
31
0.0
0
LINE
8
LINES
10
252.000000
20
88.000000
30
0.0
11
252.000000
21
128.000000
31
0.0
0
LINE
8
LINES
10
256.000000
20
184.000000
30
0.0
11
256.000000
21
224.000000
31
0.0
0
LINE
8
LINES
10
204.000000
20
408.000000
30
0.0
11
164.000000
21
408.000000
31
0.0
0
LINE
8
LINES
10
256.000000
20
224.000000
30
0.0
11
296.000000
21
224.000000
31
0.0
0
LINE
8
LINES
10
296.000000
20
408.000000
30
0.0
11
256.000000
21
408.000000
31
0.0
0
LINE
8
LINES
10
200.000000
20
184.000000
30
0.0
11
160.000000
21
184.000000
31
0.0
0
LINE
8
LINES
10
464.000000
20
176.000000
30
0.0
11
464.000000
21
216.000000
31
0.0
0
LINE
8
LINES
10
368.000000
20
412.000000
30
0.0
11
328.000000
21
412.000000
31
0.0
0
LINE
8
LINES
10
368.000000
20
176.000000
30
0.0
11
368.000000
21
216.000000
31
0.0
0
LINE
8
LINES
10
456.000000
20
128.000000
30
0.0
11
416.000000
21
128.000000
31
0.0
0
LINE
8
LINES
10
200.000000
20
128.000000
30
0.0
11
160.000000
21
128.000000
31
0.0
0
LINE
8
LINES
10
40.000000
20
160.000000
30
0.0
11
0.000000
21
160.000000
31
0.0
0
LINE
8
LINES
10
420.000000
20
224.000000
30
0.0
11
460.000000
21
224.000000
31
0.0
0
LINE
8
LINES
10
592.000000
20
224.000000
30
0.0
11
592.000000
21
184.000000
31
0.0
0
LINE
8
LINES
10
568.000000
20
224.000000
30
0.0
11
568.000000
21
184.000000
31
0.0
0
LINE
8
LINES
10
584.000000
20
184.000000
30
0.0
11
584.000000
21
224.000000
31
0.0
0
LINE
8
LINES
10
184.000000
20
316.000000
30
0.0
11
184.000000
21
280.000000
31
0.0
0
LINE
8
LINES
10
164.000000
20
224.000000
30
0.0
11
200.000000
21
224.000000
31
0.0
0
LINE
8
LINES
10
160.000000
20
184.000000
30
0.0
11
160.000000
21
224.000000
31
0.0
0
LINE
8
LINES
10
360.000000
20
128.000000
30
0.0
11
324.000000
21
128.000000
31
0.0
0
LINE
8
LINES
10
324.000000
20
84.000000
30
0.0
11
360.000000
21
84.000000
31
0.0
0
LINE
8
LINES
10
348.000000
20
456.000000
30
0.0
11
384.000000
21
456.000000
31
0.0
0
LINE
8
LINES
10
56.000000
20
368.000000
30
0.0
11
56.000000
21
404.000000
31
0.0
0
LINE
8
LINES
10
440.000000
20
276.000000
30
0.0
11
440.000000
21
312.000000
31
0.0
0
LINE
8
LINES
10
440.000000
20
312.000000
30
0.0
11
440.000000
21
276.000000
31
0.0
0
LINE
8
LINES
10
40.000000
20
404.000000
30
0.0
11
40.000000
21
368.000000
31
0.0
0
LINE
8
LINES
10
280.000000
20
312.000000
30
0.0
11
280.000000
21
276.000000
31
0.0
0
LINE
8
LINES
10
36.000000
20
368.000000
30
0.0
11
36.000000
21
404.000000
31
0.0
0
LINE
8
LINES
10
160.000000
20
280.000000
30
0.0
11
160.000000
21
316.000000
31
0.0
0
LINE
8
LINES
10
564.000000
20
184.000000
30
0.0
11
564.000000
21
224.000000
31
0.0
0
LINE
8
LINES
10
44.000000
20
364.000000
30
0.0
11
44.000000
21
400.000000
31
0.0
0
LINE
8
LINES
10
348.000000
20
372.000000
30
0.0
11
348.000000
21
408.000000
31
0.0
0
LINE
8
LINES
10
60.000000
20
404.000000
30
0.0
11
60.000000
21
368.000000
31
0.0
0
LINE
8
LINES
10
276.000000
20
276.000000
30
0.0
11
276.000000
21
312.000000
31
0.0
0
LINE
8
LINES
10
168.000000
20
312.000000
30
0.0
11
168.000000
21
276.000000
31
0.0
0
LINE
8
LINES
10
460.000000
20
276.000000
30
0.0
11
460.000000
21
312.000000
31
0.0
0
LINE
8
LINES
10
260.000000
20
312.000000
30
0.0
11
260.000000
21
276.000000
31
0.0
0
LINE
8
LINES
10
324.000000
20
316.000000
30
0.0
11
324.000000
21
280.000000
31
0.0
0
LINE
8
LINES
10
424.000000
20
312.000000
30
0.0
11
424.000000
21
276.000000
31
0.0
0
LINE
8
LINES
10
364.000000
20
224.000000
30
0.0
11
328.000000
21
224.000000
31
0.0
0
LINE
8
LINES
10
416.000000
20
180.000000
30
0.0
11
452.000000
21
180.000000
31
0.0
0
LINE
8
LINES
10
120.000000
20
136.000000
30
0.0
11
152.000000
21
136.000000
31
0.0
0
LINE
8
LINES
10
344.000000
20
408.000000
30
0.0
11
344.000000
21
372.000000
31
0.0
0
LINE
8
LINES
10
464.000000
20
136.000000
30
0.0
11
500.000000
21
136.000000
31
0.0
0
LINE
8
LINES
10
180.000000
20
188.000000
30
0.0
11
180.000000
21
224.000000
31
0.0
0
LINE
8
LINES
10
552.000000
20
316.000000
30
0.0
11
552.000000
21
280.000000
31
0.0
0
LINE
8
LINES
10
180.000000
20
276.000000
30
0.0
11
180.000000
21
312.000000
31
0.0
0
LINE
8
LINES
10
76.000000
20
184.000000
30
0.0
11
76.000000
21
220.000000
31
0.0
0
LINE
8
LINES
10
276.000000
20
408.000000
30
0.0
11
276.000000
21
372.000000
31
0.0
0
LINE
8
LINES
10
364.000000
20
312.000000
30
0.0
11
364.000000
21
280.000000
31
0.0
0
LINE
8
LINES
10
328.000000
20
280.000000
30
0.0
11
328.000000
21
312.000000
31
0.0
0
LINE
8
LINES
10
344.000000
20
312.000000
30
0.0
11
344.000000
21
280.000000
31
0.0
0
LINE
8
LINES
10
156.000000
20
184.000000
30
0.0
11
156.000000
21
220.000000
31
0.0
0
LINE
8
LINES
10
328.000000
20
372.000000
30
0.0
11
328.000000
21
408.000000
31
0.0
0
LINE
8
LINES
10
184.000000
20
224.000000
30
0.0
11
184.000000
21
188.000000
31
0.0
0
LINE
8
LINES
10
612.000000
20
184.000000
30
0.0
11
612.000000
21
216.000000
31
0.0
0
LINE
8
LINES
10
280.000000
20
224.000000
30
0.0
11
280.000000
21
188.000000
31
0.0
0
LINE
8
LINES
10
160.000000
20
128.000000
30
0.0
11
160.000000
21
96.000000
31
0.0
0
LINE
8
LINES
10
364.000000
20
84.000000
30
0.0
11
364.000000
21
120.000000
31
0.0
0
LINE
8
LINES
10
368.000000
20
408.000000
30
0.0
11
368.000000
21
372.000000
31
0.0
0
LINE
8
LINES
10
520.000000
20
144.000000
30
0.0
11
552.000000
21
144.000000
31
0.0
0
LINE
8
LINES
10
76.000000
20
228.000000
30
0.0
11
44.000000
21
228.000000
31
0.0
0
LINE
8
LINES
10
44.000000
20
272.000000
30
0.0
11
76.000000
21
272.000000
31
0.0
0
LINE
8
LINES
10
272.000000
20
96.000000
30
0.0
11
272.000000
21
128.000000
31
0.0
0
LINE
8
LINES
10
272.000000
20
188.000000
30
0.0
11
272.000000
21
220.000000
31
0.0
0
LINE
8
LINES
10
276.000000
20
128.000000
30
0.0
11
276.000000
21
96.000000
31
0.0
0
LINE
8
LINES
10
284.000000
20
136.000000
30
0.0
11
252.000000
21
136.000000
31
0.0
0
LINE
8
LINES
10
628.000000
20
136.000000
30
0.0
11
628.000000
21
104.000000
31
0.0
0
LINE
8
LINES
10
32.000000
20
136.000000
30
0.0
11
0.000000
21
136.000000
31
0.0
0
LINE
8
LINES
10
432.000000
20
432.000000
30
0.0
11
400.000000
21
432.000000
31
0.0
0
LINE
8
LINES
10
32.000000
20
280.000000
30
0.0
11
32.000000
21
312.000000
31
0.0
0
LINE
8
LINES
10
56.000000
20
312.000000
30
0.0
11
56.000000
21
280.000000
31
0.0
0
LINE
8
LINES
10
48.000000
20
404.000000
30
0.0
11
48.000000
21
436.000000
31
0.0
0
LINE
8
LINES
10
540.000000
20
4.000000
30
0.0
11
508.000000
21
4.000000
31
0.0
0
LINE
8
LINES
10
12.000000
20
216.000000
30
0.0
11
12.000000
21
184.000000
31
0.0
0
ENDSEC
0
EOF
