0
SECTION
2
ENTITIES
0
LWPOLYLINE
8
FACADE_OUTLINE
90
4
70
1
10
0.000000
20
0.000000
10
616.000000
20
0.000000
10
616.000000
20
1024.000000
10
0.000000
20
1024.000000
0
LWPOLYLINE
8
WINDOWS
90
4
70
1
10
316.000000
20
17.000000
10
355.000000
20
17.000000
10
355.000000
20
54.000000
10
316.000000
20
54.000000
0
LWPOLYLINE
8
WINDOWS
90
4
70
1
10
251.000000
20
17.000000
10
300.000000
20
17.000000
10
300.000000
20
56.000000
10
251.000000
20
56.000000
0
LWPOLYLINE
8
WINDOWS
90
4
70
1
10
33.000000
20
22.000000
10
107.000000
20
22.000000
10
107.000000
20
64.000000
10
33.000000
20
64.000000
0
LWPOLYLINE
8
WINDOWS
90
4
70
1
10
411.000000
20
291.000000
10
465.000000
20
291.000000
10
465.000000
20
334.000000
10
411.000000
20
334.000000
0
LWPOLYLINE
8
WINDOWS
90
4
70
1
10
371.000000
20
403.000000
10
432.000000
20
403.000000
10
432.000000
20
449.000000
10
371.000000
20
449.000000
0
LWPOLYLINE
8
WINDOWS
90
4
70
1
10
257.000000
20
622.000000
10
339.000000
20
622.000000
10
339.000000
20
676.000000
10
257.000000
20
676.000000
0
LWPOLYLINE
8
WINDOWS
90
4
70
1
10
62.000000
20
625.000000
10
140.000000
20
625.000000
10
140.000000
20
678.000000
10
62.000000
20
678.000000
0
LWPOLYLINE
8
WINDOWS
90
4
70
1
10
544.000000
20
803.000000
10
616.000000
20
803.000000
10
616.000000
20
848.000000
10
544.000000
20
848.000000
0
LWPOLYLINE
8
WINDOWS
90
4
70
1
10
0.000000
20
806.000000
10
65.000000
20
806.000000
10
65.000000
20
848.000000
10
0.000000
20
848.000000
0
LWPOLYLINE
8
WINDOWS
90
4
70
1
10
476.000000
20
806.000000
10
524.000000
20
806.000000
10
524.000000
20
849.000000
10
476.000000
20
849.000000
0
LWPOLYLINE
8
WINDOWS
90
4
70
1
10
73.000000
20
806.000000
10
128.000000
20
806.000000
10
128.000000
20
849.000000
10
73.000000
20
849.000000
0
LWPOLYLINE
8
WINDOWS
90
4
70
1
10
145.000000
20
806.000000
10
257.000000
20
806.000000
10
257.000000
20
849.000000
10
145.000000
20
849.000000
0
LWPOLYLINE
8
WINDOWS
90
4
70
1
10
262.000000
20
806.000000
10
323.000000
20
806.000000
10
323.000000
20
851.000000
10
262.000000
20
851.000000
0
LWPOLYLINE
8
WINDOWS
90
4
70
1
10
316.000000
20
806.000000
10
408.000000
20
806.000000
10
408.000000
20
851.000000
10
316.000000
20
851.000000
0
LWPOLYLINE
8
WINDOWS
90
4
70
1
10
409.000000
20
806.000000
10
457.000000
20
806.000000
10
457.000000
20
849.000000
10
409.000000
20
849.000000
0
LWPOLYLINE
8
WINDOWS
90
4
70
1
10
200.000000
20
867.000000
10
267.000000
20
867.000000
10
267.000000
20
912.000000
10
200.000000
20
912.000000
0
LWPOLYLINE
8
WINDOWS
90
4
70
1
10
468.000000
20
867.000000
10
524.000000
20
867.000000
10
524.000000
20
912.000000
10
468.000000
20
912.000000
0
LWPOLYLINE
8
WINDOWS
90
4
70
1
10
115.000000
20
932.000000
10
222.000000
20
932.000000
10
222.000000
20
1006.000000
10
115.000000
20
1006.000000
0
LWPOLYLINE
8
WINDOWS
90
4
70
1
10
537.000000
20
934.000000
10
616.000000
20
934.000000
10
616.000000
20
1004.000000
10
537.000000
20
1004.000000
0
LWPOLYLINE
8
WINDOWS
90
4
70
1
10
344.000000
20
934.000000
10
392.000000
20
934.000000
10
392.000000
20
1008.000000
10
344.000000
20
1008.000000
0
LWPOLYLINE
8
WINDOWS
90
4
70
1
10
387.000000
20
934.000000
10
465.000000
20
934.000000
10
465.000000
20
1017.000000
10
387.000000
20
1017.000000
0
LWPOLYLINE
8
WINDOWS
90
4
70
1
10
470.000000
20
934.000000
10
540.000000
20
934.000000
10
540.000000
20
1009.000000
10
470.000000
20
1009.000000
0
LWPOLYLINE
8
WINDOWS
90
4
70
1
10
152.000000
20
940.000000
10
190.000000
20
940.000000
10
190.000000
20
982.000000
10
152.000000
20
982.000000
0
LWPOLYLINE
8
DOORS
90
4
70
1
10
25.000000
20
921.000000
10
67.000000
20
921.000000
10
67.000000
20
1014.000000
10
25.000000
20
1014.000000
0
LINE
8
LINES
10
1.000000
20
731.000000
30
0.0
11
614.000000
21
731.000000
31
0.0
0
LINE
8
LINES
10
614.000000
20
622.000000
30
0.0
11
1.000000
21
622.000000
31
0.0
0
LINE
8
LINES
10
614.000000
20
796.000000
30
0.0
11
1.000000
21
796.000000
31
0.0
0
LINE
8
LINES
10
614.000000
20
732.000000
30
0.0
11
1.000000
21
732.000000
31
0.0
0
LINE
8
LINES
10
614.000000
20
857.000000
30
0.0
11
1.000000
21
857.000000
31
0.0
0
LINE
8
LINES
10
1.000000
20
852.000000
30
0.0
11
611.000000
21
852.000000
31
0.0
0
LINE
8
LINES
10
1.000000
20
806.000000
30
0.0
11
595.000000
21
806.000000
31
0.0
0
LINE
8
LINES
10
12.000000
20
137.000000
30
0.0
11
593.000000
21
137.000000
31
0.0
0
LINE
8
LINES
10
72.000000
20
918.000000
30
0.0
11
608.000000
21
918.000000
31
0.0
0
LINE
8
LINES
10
1.000000
20
788.000000
30
0.0
11
492.000000
21
788.000000
31
0.0
0
LINE
8
LINES
10
1.000000
20
793.000000
30
0.0
11
483.000000
21
793.000000
31
0.0
0
LINE
8
LINES
10
132.000000
20
513.000000
30
0.0
11
614.000000
21
513.000000
31
0.0
0
LINE
8
LINES
10
382.000000
20
723.000000
30
0.0
11
1.000000
21
723.000000
31
0.0
0
LINE
8
LINES
10
292.000000
20
915.000000
30
0.0
11
608.000000
21
915.000000
31
0.0
0
LINE
8
LINES
10
83.000000
20
121.000000
30
0.0
11
393.000000
21
121.000000
31
0.0
0
LINE
8
LINES
10
350.000000
20
792.000000
30
0.0
11
48.000000
21
792.000000
31
0.0
0
LINE
8
LINES
10
1.000000
20
865.000000
30
0.0
11
292.000000
21
865.000000
31
0.0
0
LINE
8
LINES
10
608.000000
20
923.000000
30
0.0
11
334.000000
21
923.000000
31
0.0
0
LINE
8
LINES
10
337.000000
20
931.000000
30
0.0
11
606.000000
21
931.000000
31
0.0
0
LINE
8
LINES
10
273.000000
20
676.000000
30
0.0
11
6.000000
21
676.000000
31
0.0
0
LINE
8
LINES
10
201.000000
20
54.000000
30
0.0
11
464.000000
21
54.000000
31
0.0
0
LINE
8
LINES
10
544.000000
20
672.000000
30
0.0
11
304.000000
21
672.000000
31
0.0
0
LINE
8
LINES
10
299.000000
20
868.000000
30
0.0
11
539.000000
21
868.000000
31
0.0
0
LINE
8
LINES
10
302.000000
20
934.000000
30
0.0
11
523.000000
21
934.000000
31
0.0
0
LINE
8
LINES
10
396.000000
20
113.000000
30
0.0
11
606.000000
21
113.000000
31
0.0
0
LINE
8
LINES
10
268.000000
20
400.000000
30
0.0
11
467.000000
21
400.000000
31
0.0
0
LINE
8
LINES
10
70.000000
20
520.000000
30
0.0
11
265.000000
21
520.000000
31
0.0
0
LINE
8
LINES
10
264.000000
20
515.000000
30
0.0
11
72.000000
21
515.000000
31
0.0
0
LINE
8
LINES
10
276.000000
20
286.000000
30
0.0
11
467.000000
21
286.000000
31
0.0
0
LINE
8
LINES
10
73.000000
20
408.000000
30
0.0
11
264.000000
21
408.000000
31
0.0
0
LINE
8
LINES
10
270.000000
20
291.000000
30
0.0
11
81.000000
21
291.000000
31
0.0
0
LINE
8
LINES
10
78.000000
20
294.000000
30
0.0
11
265.000000
21
294.000000
31
0.0
0
LINE
8
LINES
10
268.000000
20
502.000000
30
0.0
11
81.000000
21
502.000000
31
0.0
0
LINE
8
LINES
10
278.000000
20
393.000000
30
0.0
11
465.000000
21
393.000000
31
0.0
0
LINE
8
LINES
10
76.000000
20
398.000000
30
0.0
11
262.000000
21
398.000000
31
0.0
0
LINE
8
LINES
10
465.000000
20
510.000000
30
0.0
11
281.000000
21
510.000000
31
0.0
0
LINE
8
LINES
10
251.000000
20
924.000000
30
0.0
11
73.000000
21
924.000000
31
0.0
0
LINE
8
LINES
10
73.000000
20
931.000000
30
0.0
11
248.000000
21
931.000000
31
0.0
0
LINE
8
LINES
10
307.000000
20
396.000000
30
0.0
11
134.000000
21
396.000000
31
0.0
0
LINE
8
LINES
10
73.000000
20
928.000000
30
0.0
11
241.000000
21
928.000000
31
0.0
0
LINE
8
LINES
10
108.000000
20
451.000000
30
0.0
11
264.000000
21
451.000000
31
0.0
0
LINE
8
LINES
10
110.000000
20
241.000000
30
0.0
11
267.000000
21
241.000000
31
0.0
0
LINE
8
LINES
10
312.000000
20
345.000000
30
0.0
11
467.000000
21
345.000000
31
0.0
0
LINE
8
LINES
10
313.000000
20
460.000000
30
0.0
11
467.000000
21
460.000000
31
0.0
0
LINE
8
LINES
10
128.000000
20
913.000000
30
0.0
11
281.000000
21
913.000000
31
0.0
0
LINE
8
LINES
10
486.000000
20
393.000000
30
0.0
11
334.000000
21
393.000000
31
0.0
0
LINE
8
LINES
10
467.000000
20
454.000000
30
0.0
11
321.000000
21
454.000000
31
0.0
0
LINE
8
LINES
10
291.000000
20
862.000000
30
0.0
11
145.000000
21
862.000000
31
0.0
0
LINE
8
LINES
10
470.000000
20
395.000000
30
0.0
11
614.000000
21
395.000000
31
0.0
0
LINE
8
LINES
10
216.000000
20
931.000000
30
0.0
11
73.000000
21
931.000000
31
0.0
0
LINE
8
LINES
10
126.000000
20
579.000000
30
0.0
11
264.000000
21
579.000000
31
0.0
0
LINE
8
LINES
10
332.000000
20
518.000000
30
0.0
11
467.000000
21
518.000000
31
0.0
0
LINE
8
LINES
10
126.000000
20
179.000000
30
0.0
11
262.000000
21
179.000000
31
0.0
0
LINE
8
LINES
10
332.000000
20
558.000000
30
0.0
11
467.000000
21
558.000000
31
0.0
0
LINE
8
LINES
10
478.000000
20
387.000000
30
0.0
11
614.000000
21
387.000000
31
0.0
0
LINE
8
LINES
10
332.000000
20
622.000000
30
0.0
11
467.000000
21
622.000000
31
0.0
0
LINE
8
LINES
10
467.000000
20
438.000000
30
0.0
11
334.000000
21
438.000000
31
0.0
0
LINE
8
LINES
10
332.000000
20
444.000000
30
0.0
11
467.000000
21
444.000000
31
0.0
0
LINE
8
LINES
10
332.000000
20
332.000000
30
0.0
11
467.000000
21
332.000000
31
0.0
0
LINE
8
LINES
10
0.000000
20
62.000000
30
0.0
11
132.000000
21
62.000000
31
0.0
0
LINE
8
LINES
10
131.000000
20
467.000000
30
0.0
11
264.000000
21
467.000000
31
0.0
0
LINE
8
LINES
10
132.000000
20
339.000000
30
0.0
11
265.000000
21
339.000000
31
0.0
0
LINE
8
LINES
10
336.000000
20
182.000000
30
0.0
11
467.000000
21
182.000000
31
0.0
0
LINE
8
LINES
10
334.000000
20
574.000000
30
0.0
11
467.000000
21
574.000000
31
0.0
0
LINE
8
LINES
10
131.000000
20
563.000000
30
0.0
11
264.000000
21
563.000000
31
0.0
0
LINE
8
LINES
10
467.000000
20
284.000000
30
0.0
11
336.000000
21
284.000000
31
0.0
0
LINE
8
LINES
10
203.000000
20
915.000000
30
0.0
11
70.000000
21
915.000000
31
0.0
0
LINE
8
LINES
10
136.000000
20
228.000000
30
0.0
11
267.000000
21
228.000000
31
0.0
0
LINE
8
LINES
10
134.000000
20
353.000000
30
0.0
11
265.000000
21
353.000000
31
0.0
0
LINE
8
LINES
10
334.000000
20
284.000000
30
0.0
11
465.000000
21
284.000000
31
0.0
0
LINE
8
LINES
10
134.000000
20
289.000000
30
0.0
11
264.000000
21
289.000000
31
0.0
0
LINE
8
LINES
10
337.000000
20
236.000000
30
0.0
11
467.000000
21
236.000000
31
0.0
0
LINE
8
LINES
10
268.000000
20
179.000000
30
0.0
11
139.000000
21
179.000000
31
0.0
0
LINE
8
LINES
10
467.000000
20
177.000000
30
0.0
11
337.000000
21
177.000000
31
0.0
0
LINE
8
LINES
10
1.000000
20
3.000000
30
0.0
11
129.000000
21
3.000000
31
0.0
0
LINE
8
LINES
10
542.000000
20
110.000000
30
0.0
11
416.000000
21
110.000000
31
0.0
0
LINE
8
LINES
10
480.000000
20
281.000000
30
0.0
11
604.000000
21
292.000000
31
0.0
0
LINE
8
LINES
10
339.000000
20
174.000000
30
0.0
11
462.000000
21
174.000000
31
0.0
0
LINE
8
LINES
10
505.000000
20
721.000000
30
0.0
11
382.000000
21
721.000000
31
0.0
0
LINE
8
LINES
10
145.000000
20
188.000000
30
0.0
11
268.000000
21
188.000000
31
0.0
0
LINE
8
LINES
10
136.000000
20
284.000000
30
0.0
11
257.000000
21
284.000000
31
0.0
0
LINE
8
LINES
10
38.000000
20
748.000000
30
0.0
11
161.000000
21
748.000000
31
0.0
0
LINE
8
LINES
10
1.000000
20
912.000000
30
0.0
11
123.000000
21
912.000000
31
0.0
0
LINE
8
LINES
10
251.000000
20
910.000000
30
0.0
11
129.000000
21
910.000000
31
0.0
0
LINE
8
LINES
10
270.000000
20
275.000000
30
0.0
11
150.000000
21
275.000000
31
0.0
0
LINE
8
LINES
10
470.000000
20
217.000000
30
0.0
11
350.000000
21
217.000000
31
0.0
0
LINE
8
LINES
10
142.000000
20
174.000000
30
0.0
11
262.000000
21
174.000000
31
0.0
0
LINE
8
LINES
10
342.000000
20
388.000000
30
0.0
11
459.000000
21
388.000000
31
0.0
0
LINE
8
LINES
10
174.000000
20
748.000000
30
0.0
11
291.000000
21
748.000000
31
0.0
0
LINE
8
LINES
10
441.000000
20
342.000000
30
0.0
11
329.000000
21
342.000000
31
0.0
0
LINE
8
LINES
10
262.000000
20
166.000000
30
0.0
11
152.000000
21
166.000000
31
0.0
0
LINE
8
LINES
10
267.000000
20
556.000000
30
0.0
11
158.000000
21
556.000000
31
0.0
0
LINE
8
LINES
10
73.000000
20
985.000000
30
0.0
11
180.000000
21
985.000000
31
0.0
0
LINE
8
LINES
10
193.000000
20
113.000000
30
0.0
11
86.000000
21
113.000000
31
0.0
0
LINE
8
LINES
10
508.000000
20
745.000000
30
0.0
11
614.000000
21
745.000000
31
0.0
0
LINE
8
LINES
10
134.000000
20
507.000000
30
0.0
11
236.000000
21
507.000000
31
0.0
0
LINE
8
LINES
10
614.000000
20
508.000000
30
0.0
11
513.000000
21
508.000000
31
0.0
0
LINE
8
LINES
10
256.000000
20
332.000000
30
0.0
11
156.000000
21
332.000000
31
0.0
0
LINE
8
LINES
10
614.000000
20
718.000000
30
0.0
11
515.000000
21
718.000000
31
0.0
0
LINE
8
LINES
10
515.000000
20
569.000000
30
0.0
11
614.000000
21
569.000000
31
0.0
0
LINE
8
LINES
10
614.000000
20
740.000000
30
0.0
11
516.000000
21
740.000000
31
0.0
0
LINE
8
LINES
10
609.000000
20
326.000000
30
0.0
11
513.000000
21
326.000000
31
0.0
0
LINE
8
LINES
10
339.000000
20
632.000000
30
0.0
11
433.000000
21
632.000000
31
0.0
0
LINE
8
LINES
10
492.000000
20
792.000000
30
0.0
11
587.000000
21
792.000000
31
0.0
0
LINE
8
LINES
10
513.000000
20
744.000000
30
0.0
11
422.000000
21
744.000000
31
0.0
0
LINE
8
LINES
10
614.000000
20
548.000000
30
0.0
11
523.000000
21
548.000000
31
0.0
0
LINE
8
LINES
10
467.000000
20
326.000000
30
0.0
11
377.000000
21
326.000000
31
0.0
0
LINE
8
LINES
10
139.000000
20
635.000000
30
0.0
11
228.000000
21
635.000000
31
0.0
0
LINE
8
LINES
10
513.000000
20
510.000000
30
0.0
11
603.000000
21
510.000000
31
0.0
0
LINE
8
LINES
10
275.000000
20
742.000000
30
0.0
11
363.000000
21
742.000000
31
0.0
0
LINE
8
LINES
10
328.000000
20
915.000000
30
0.0
11
241.000000
21
915.000000
31
0.0
0
LINE
8
LINES
10
388.000000
20
555.000000
30
0.0
11
304.000000
21
555.000000
31
0.0
0
LINE
8
LINES
10
428.000000
20
918.000000
30
0.0
11
344.000000
21
918.000000
31
0.0
0
LINE
8
LINES
10
1.000000
20
582.000000
30
0.0
11
84.000000
21
582.000000
31
0.0
0
LINE
8
LINES
10
539.000000
20
931.000000
30
0.0
11
456.000000
21
931.000000
31
0.0
0
LINE
8
LINES
10
470.000000
20
619.000000
30
0.0
11
552.000000
21
619.000000
31
0.0
0
LINE
8
LINES
10
470.000000
20
552.000000
30
0.0
11
392.000000
21
552.000000
31
0.0
0
LINE
8
LINES
10
467.000000
20
566.000000
30
0.0
11
388.000000
21
566.000000
31
0.0
0
LINE
8
LINES
10
78.000000
20
406.000000
30
0.0
11
1.000000
21
406.000000
31
0.0
0
LINE
8
LINES
10
537.000000
20
457.000000
30
0.0
11
614.000000
21
457.000000
31
0.0
0
LINE
8
LINES
10
534.000000
20
182.000000
30
0.0
11
611.000000
21
182.000000
31
0.0
0
LINE
8
LINES
10
537.000000
20
441.000000
30
0.0
11
614.000000
21
441.000000
31
0.0
0
LINE
8
LINES
10
537.000000
20
555.000000
30
0.0
11
614.000000
21
555.000000
31
0.0
0
LINE
8
LINES
10
614.000000
20
284.000000
30
0.0
11
537.000000
21
284.000000
31
0.0
0
LINE
8
LINES
10
78.000000
20
860.000000
30
0.0
11
1.000000
21
860.000000
31
0.0
0
LINE
8
LINES
10
614.000000
20
491.000000
30
0.0
11
537.000000
21
491.000000
31
0.0
0
LINE
8
LINES
10
614.000000
20
435.000000
30
0.0
11
537.000000
21
435.000000
31
0.0
0
LINE
8
LINES
10
329.000000
20
924.000000
30
0.0
11
252.000000
21
924.000000
31
0.0
0
LINE
8
LINES
10
614.000000
20
395.000000
30
0.0
11
537.000000
21
395.000000
31
0.0
0
LINE
8
LINES
10
537.000000
20
281.000000
30
0.0
11
612.000000
21
281.000000
31
0.0
0
LINE
8
LINES
10
78.000000
20
560.000000
30
0.0
11
3.000000
21
560.000000
31
0.0
0
LINE
8
LINES
10
268.000000
20
345.000000
30
0.0
11
193.000000
21
345.000000
31
0.0
0
LINE
8
LINES
10
156.000000
20
560.000000
30
0.0
11
81.000000
21
560.000000
31
0.0
0
LINE
8
LINES
10
536.000000
20
236.000000
30
0.0
11
611.000000
21
236.000000
31
0.0
0
LINE
8
LINES
10
611.000000
20
270.000000
30
0.0
11
537.000000
21
270.000000
31
0.0
0
LINE
8
LINES
10
536.000000
20
220.000000
30
0.0
11
611.000000
21
220.000000
31
0.0
0
LINE
8
LINES
10
611.000000
20
177.000000
30
0.0
11
537.000000
21
177.000000
31
0.0
0
LINE
8
LINES
10
611.000000
20
217.000000
30
0.0
11
536.000000
21
217.000000
31
0.0
0
LINE
8
LINES
10
411.000000
20
384.000000
30
0.0
11
337.000000
21
384.000000
31
0.0
0
LINE
8
LINES
10
268.000000
20
220.000000
30
0.0
11
193.000000
21
220.000000
31
0.0
0
LINE
8
LINES
10
540.000000
20
345.000000
30
0.0
11
612.000000
21
345.000000
31
0.0
0
LINE
8
LINES
10
537.000000
20
329.000000
30
0.0
11
609.000000
21
329.000000
31
0.0
0
LINE
8
LINES
10
513.000000
20
382.000000
30
0.0
11
585.000000
21
382.000000
31
0.0
0
LINE
8
LINES
10
611.000000
20
163.000000
30
0.0
11
539.000000
21
163.000000
31
0.0
0
LINE
8
LINES
10
396.000000
20
220.000000
30
0.0
11
467.000000
21
220.000000
31
0.0
0
LINE
8
LINES
10
539.000000
20
174.000000
30
0.0
11
611.000000
21
174.000000
31
0.0
0
LINE
8
LINES
10
73.000000
20
283.000000
30
0.0
11
3.000000
21
283.000000
31
0.0
0
LINE
8
LINES
10
411.000000
20
1009.000000
30
0.0
11
478.000000
21
1009.000000
31
0.0
0
LINE
8
LINES
10
68.000000
20
449.000000
30
0.0
11
1.000000
21
449.000000
31
0.0
0
LINE
8
LINES
10
187.000000
20
462.000000
30
0.0
11
118.000000
21
462.000000
31
0.0
0
LINE
8
LINES
10
481.000000
20
380.000000
30
0.0
11
412.000000
21
380.000000
31
0.0
0
LINE
8
LINES
10
1.000000
20
360.000000
30
0.0
11
67.000000
21
360.000000
31
0.0
0
LINE
8
LINES
10
1.000000
20
345.000000
30
0.0
11
67.000000
21
345.000000
31
0.0
0
LINE
8
LINES
10
72.000000
20
296.000000
30
0.0
11
3.000000
21
296.000000
31
0.0
0
LINE
8
LINES
10
73.000000
20
187.000000
30
0.0
11
6.000000
21
187.000000
31
0.0
0
LINE
8
LINES
10
73.000000
20
241.000000
30
0.0
11
6.000000
21
241.000000
31
0.0
0
LINE
8
LINES
10
1.000000
20
526.000000
30
0.0
11
67.000000
21
526.000000
31
0.0
0
LINE
8
LINES
10
1.000000
20
414.000000
30
0.0
11
67.000000
21
414.000000
31
0.0
0
LINE
8
LINES
10
134.000000
20
627.000000
30
0.0
11
201.000000
21
627.000000
31
0.0
0
LINE
8
LINES
10
1.000000
20
297.000000
30
0.0
11
67.000000
21
297.000000
31
0.0
0
LINE
8
LINES
10
1.000000
20
187.000000
30
0.0
11
67.000000
21
187.000000
31
0.0
0
LINE
8
LINES
10
276.000000
20
561.000000
30
0.0
11
211.000000
21
561.000000
31
0.0
0
LINE
8
LINES
10
1.000000
20
470.000000
30
0.0
11
67.000000
21
470.000000
31
0.0
0
LINE
8
LINES
10
68.000000
20
520.000000
30
0.0
11
3.000000
21
520.000000
31
0.0
0
LINE
8
LINES
10
1.000000
20
518.000000
30
0.0
11
67.000000
21
518.000000
31
0.0
0
LINE
8
LINES
10
1.000000
20
454.000000
30
0.0
11
67.000000
21
454.000000
31
0.0
0
LINE
8
LINES
10
1.000000
20
628.000000
30
0.0
11
67.000000
21
628.000000
31
0.0
0
LINE
8
LINES
10
371.000000
20
748.000000
30
0.0
11
438.000000
21
748.000000
31
0.0
0
LINE
8
LINES
10
278.000000
20
155.000000
30
0.0
11
344.000000
21
163.000000
31
0.0
0
LINE
8
LINES
10
147.000000
20
392.000000
30
0.0
11
81.000000
21
385.000000
31
0.0
0
LINE
8
LINES
10
3.000000
20
305.000000
30
0.0
11
67.000000
21
305.000000
31
0.0
0
LINE
8
LINES
10
1.000000
20
406.000000
30
0.0
11
65.000000
21
406.000000
31
0.0
0
LINE
8
LINES
10
345.000000
20
1001.000000
30
0.0
11
345.000000
21
937.000000
31
0.0
0
LINE
8
LINES
10
267.000000
20
622.000000
30
0.0
11
332.000000
21
622.000000
31
0.0
0
LINE
8
LINES
10
422.000000
20
496.000000
30
0.0
11
358.000000
21
496.000000
31
0.0
0
LINE
8
LINES
10
3.000000
20
249.000000
30
0.0
11
68.000000
21
249.000000
31
0.0
0
LINE
8
LINES
10
134.000000
20
56.000000
30
0.0
11
198.000000
21
56.000000
31
0.0
0
LINE
8
LINES
10
392.000000
20
745.000000
30
0.0
11
326.000000
21
745.000000
31
0.0
0
LINE
8
LINES
10
374.000000
20
566.000000
30
0.0
11
438.000000
21
566.000000
31
0.0
0
LINE
8
LINES
10
406.000000
20
862.000000
30
0.0
11
340.000000
21
862.000000
31
0.0
0
LINE
8
LINES
10
376.000000
20
452.000000
30
0.0
11
438.000000
21
452.000000
31
0.0
0
LINE
8
LINES
10
70.000000
20
918.000000
30
0.0
11
70.000000
21
982.000000
31
0.0
0
LINE
8
LINES
10
296.000000
20
673.000000
30
0.0
11
358.000000
21
673.000000
31
0.0
0
LINE
8
LINES
10
611.000000
20
859.000000
30
0.0
11
547.000000
21
859.000000
31
0.0
0
LINE
8
LINES
10
347.000000
20
846.000000
30
0.0
11
283.000000
21
846.000000
31
0.0
0
LINE
8
LINES
10
67.000000
20
512.000000
30
0.0
11
131.000000
21
512.000000
31
0.0
0
LINE
8
LINES
10
518.000000
20
910.000000
30
0.0
11
456.000000
21
910.000000
31
0.0
0
LINE
8
LINES
10
377.000000
20
110.000000
30
0.0
11
313.000000
21
110.000000
31
0.0
0
LINE
8
LINES
10
459.000000
20
232.000000
30
0.0
11
396.000000
21
232.000000
31
0.0
0
LINE
8
LINES
10
481.000000
20
153.000000
30
0.0
11
542.000000
21
161.000000
31
0.0
0
LINE
8
LINES
10
14.000000
20
510.000000
30
0.0
11
76.000000
21
510.000000
31
0.0
0
LINE
8
LINES
10
532.000000
20
51.000000
30
0.0
11
595.000000
21
51.000000
31
0.0
0
LINE
8
LINES
10
17.000000
20
126.000000
30
0.0
11
81.000000
21
126.000000
31
0.0
0
LINE
8
LINES
10
611.000000
20
846.000000
30
0.0
11
548.000000
21
846.000000
31
0.0
0
LINE
8
LINES
10
70.000000
20
625.000000
30
0.0
11
132.000000
21
625.000000
31
0.0
0
LINE
8
LINES
10
8.000000
20
195.000000
30
0.0
11
70.000000
21
195.000000
31
0.0
0
LINE
8
LINES
10
254.000000
20
444.000000
30
0.0
11
192.000000
21
444.000000
31
0.0
0
LINE
8
LINES
10
257.000000
20
235.000000
30
0.0
11
195.000000
21
235.000000
31
0.0
0
LINE
8
LINES
10
451.000000
20
913.000000
30
0.0
11
390.000000
21
913.000000
31
0.0
0
LINE
8
LINES
10
232.000000
20
689.000000
30
0.0
11
292.000000
21
689.000000
31
0.0
0
LINE
8
LINES
10
606.000000
20
110.000000
30
0.0
11
545.000000
21
110.000000
31
0.0
0
LINE
8
LINES
10
83.000000
20
118.000000
30
0.0
11
22.000000
21
118.000000
31
0.0
0
LINE
8
LINES
10
1.000000
20
161.000000
30
0.0
11
1.000000
21
99.000000
31
0.0
0
LINE
8
LINES
10
217.000000
20
849.000000
30
0.0
11
156.000000
21
849.000000
31
0.0
0
LINE
8
LINES
10
70.000000
20
286.000000
30
0.0
11
131.000000
21
286.000000
31
0.0
0
LINE
8
LINES
10
76.000000
20
336.000000
30
0.0
11
17.000000
21
336.000000
31
0.0
0
LINE
8
LINES
10
209.000000
20
388.000000
30
0.0
11
148.000000
21
388.000000
31
0.0
0
LINE
8
LINES
10
8.000000
20
566.000000
30
0.0
11
67.000000
21
566.000000
31
0.0
0
LINE
8
LINES
10
192.000000
20
348.000000
30
0.0
11
131.000000
21
348.000000
31
0.0
0
LINE
8
LINES
10
387.000000
20
569.000000
30
0.0
11
328.000000
21
569.000000
31
0.0
0
LINE
8
LINES
10
390.000000
20
233.000000
30
0.0
11
331.000000
21
233.000000
31
0.0
0
LINE
8
LINES
10
124.000000
20
910.000000
30
0.0
11
65.000000
21
910.000000
31
0.0
0
LINE
8
LINES
10
188.000000
20
446.000000
30
0.0
11
128.000000
21
446.000000
31
0.0
0
LINE
8
LINES
10
78.000000
20
163.000000
30
0.0
11
137.000000
21
169.000000
31
0.0
0
LINE
8
LINES
10
408.000000
20
963.000000
30
0.0
11
467.000000
21
963.000000
31
0.0
0
LINE
8
LINES
10
556.000000
20
787.000000
30
0.0
11
614.000000
21
787.000000
31
0.0
0
LINE
8
LINES
10
412.000000
20
790.000000
30
0.0
11
353.000000
21
790.000000
31
0.0
0
LINE
8
LINES
10
256.000000
20
112.000000
30
0.0
11
196.000000
21
112.000000
31
0.0
0
LINE
8
LINES
10
134.000000
20
675.000000
30
0.0
11
193.000000
21
675.000000
31
0.0
0
LINE
8
LINES
10
59.000000
20
465.000000
30
0.0
11
1.000000
21
465.000000
31
0.0
0
LINE
8
LINES
10
142.000000
20
862.000000
30
0.0
11
83.000000
21
862.000000
31
0.0
0
LINE
8
LINES
10
1.000000
20
950.000000
30
0.0
11
24.000000
21
1004.000000
31
0.0
0
LINE
8
LINES
10
408.000000
20
851.000000
30
0.0
11
348.000000
21
851.000000
31
0.0
0
LINE
8
LINES
10
57.000000
20
505.000000
30
0.0
11
1.000000
21
505.000000
31
0.0
0
LINE
8
LINES
10
142.000000
20
1008.000000
30
0.0
11
201.000000
21
1008.000000
31
0.0
0
LINE
8
LINES
10
336.000000
20
222.000000
30
0.0
11
393.000000
21
222.000000
31
0.0
0
LINE
8
LINES
10
496.000000
20
787.000000
30
0.0
11
553.000000
21
787.000000
31
0.0
0
LINE
8
LINES
10
483.000000
20
268.000000
30
0.0
11
427.000000
21
273.000000
31
0.0
0
LINE
8
LINES
10
17.000000
20
691.000000
30
0.0
11
73.000000
21
691.000000
31
0.0
0
LINE
8
LINES
10
606.000000
20
929.000000
30
0.0
11
550.000000
21
929.000000
31
0.0
0
LINE
8
LINES
10
70.000000
20
393.000000
30
0.0
11
16.000000
21
393.000000
31
0.0
0
LINE
8
LINES
10
483.000000
20
492.000000
30
0.0
11
428.000000
21
497.000000
31
0.0
0
LINE
8
LINES
10
278.000000
20
276.000000
30
0.0
11
332.000000
21
276.000000
31
0.0
0
LINE
8
LINES
10
188.000000
20
452.000000
30
0.0
11
134.000000
21
452.000000
31
0.0
0
LINE
8
LINES
10
558.000000
20
617.000000
30
0.0
11
614.000000
21
617.000000
31
0.0
0
LINE
8
LINES
10
273.000000
20
849.000000
30
0.0
11
219.000000
21
849.000000
31
0.0
0
LINE
8
LINES
10
193.000000
20
1001.000000
30
0.0
11
139.000000
21
1001.000000
31
0.0
0
LINE
8
LINES
10
548.000000
20
788.000000
30
0.0
11
494.000000
21
788.000000
31
0.0
0
LINE
8
LINES
10
16.000000
20
233.000000
30
0.0
11
68.000000
21
233.000000
31
0.0
0
LINE
8
LINES
10
441.000000
20
747.000000
30
0.0
11
494.000000
21
747.000000
31
0.0
0
LINE
8
LINES
10
537.000000
20
848.000000
30
0.0
11
483.000000
21
848.000000
31
0.0
0
LINE
8
LINES
10
190.000000
20
238.000000
30
0.0
11
137.000000
21
238.000000
31
0.0
0
LINE
8
LINES
10
606.000000
20
915.000000
30
0.0
11
553.000000
21
915.000000
31
0.0
0
LINE
8
LINES
10
132.000000
20
403.000000
30
0.0
11
81.000000
21
403.000000
31
0.0
0
LINE
8
LINES
10
72.000000
20
227.000000
30
0.0
11
19.000000
21
227.000000
31
0.0
0
LINE
8
LINES
10
14.000000
20
398.000000
30
0.0
11
67.000000
21
398.000000
31
0.0
0
LINE
8
LINES
10
305.000000
20
748.000000
30
0.0
11
358.000000
21
748.000000
31
0.0
0
LINE
8
LINES
10
64.000000
20
174.000000
30
0.0
11
12.000000
21
174.000000
31
0.0
0
LINE
8
LINES
10
387.000000
20
273.000000
30
0.0
11
336.000000
21
273.000000
31
0.0
0
LINE
8
LINES
10
540.000000
20
168.000000
30
0.0
11
593.000000
21
168.000000
31
0.0
0
LINE
8
LINES
10
73.000000
20
691.000000
30
0.0
11
126.000000
21
691.000000
31
0.0
0
LINE
8
LINES
10
144.000000
20
848.000000
30
0.0
11
92.000000
21
848.000000
31
0.0
0
LINE
8
LINES
10
281.000000
20
497.000000
30
0.0
11
332.000000
21
497.000000
31
0.0
0
LINE
8
LINES
10
614.000000
20
563.000000
30
0.0
11
563.000000
21
563.000000
31
0.0
0
LINE
8
LINES
10
563.000000
20
334.000000
30
0.0
11
513.000000
21
328.000000
31
0.0
0
LINE
8
LINES
10
536.000000
20
379.000000
30
0.0
11
486.000000
21
374.000000
31
0.0
0
LINE
8
LINES
10
281.000000
20
513.000000
30
0.0
11
332.000000
21
513.000000
31
0.0
0
LINE
8
LINES
10
132.000000
20
276.000000
30
0.0
11
83.000000
21
276.000000
31
0.0
0
LINE
8
LINES
10
332.000000
20
284.000000
30
0.0
11
283.000000
21
284.000000
31
0.0
0
LINE
8
LINES
10
33.000000
20
1019.000000
30
0.0
11
83.000000
21
1019.000000
31
0.0
0
LINE
8
LINES
10
542.000000
20
867.000000
30
0.0
11
592.000000
21
867.000000
31
0.0
0
LINE
8
LINES
10
534.000000
20
393.000000
30
0.0
11
486.000000
21
393.000000
31
0.0
0
LINE
8
LINES
10
84.000000
20
982.000000
30
0.0
11
84.000000
21
934.000000
31
0.0
0
LINE
8
LINES
10
476.000000
20
963.000000
30
0.0
11
524.000000
21
963.000000
31
0.0
0
LINE
8
LINES
10
462.000000
20
163.000000
30
0.0
11
412.000000
21
163.000000
31
0.0
0
LINE
8
LINES
10
238.000000
20
572.000000
30
0.0
11
190.000000
21
572.000000
31
0.0
0
LINE
8
LINES
10
513.000000
20
502.000000
30
0.0
11
467.000000
21
508.000000
31
0.0
0
LINE
8
LINES
10
156.000000
20
334.000000
30
0.0
11
108.000000
21
329.000000
31
0.0
0
LINE
8
LINES
10
585.000000
20
380.000000
30
0.0
11
537.000000
21
380.000000
31
0.0
0
LINE
8
LINES
10
537.000000
20
934.000000
30
0.0
11
585.000000
21
934.000000
31
0.0
0
LINE
8
LINES
10
254.000000
20
459.000000
30
0.0
11
206.000000
21
459.000000
31
0.0
0
LINE
8
LINES
10
592.000000
20
339.000000
30
0.0
11
544.000000
21
339.000000
31
0.0
0
LINE
8
LINES
10
19.000000
20
289.000000
30
0.0
11
67.000000
21
289.000000
31
0.0
0
LINE
8
LINES
10
385.000000
20
912.000000
30
0.0
11
337.000000
21
912.000000
31
0.0
0
LINE
8
LINES
10
142.000000
20
689.000000
30
0.0
11
190.000000
21
689.000000
31
0.0
0
LINE
8
LINES
10
83.000000
20
462.000000
30
0.0
11
129.000000
21
462.000000
31
0.0
0
LINE
8
LINES
10
361.000000
20
563.000000
30
0.0
11
313.000000
21
563.000000
31
0.0
0
LINE
8
LINES
10
611.000000
20
118.000000
30
0.0
11
563.000000
21
118.000000
31
0.0
0
LINE
8
LINES
10
563.000000
20
444.000000
30
0.0
11
518.000000
21
444.000000
31
0.0
0
LINE
8
LINES
10
355.000000
20
499.000000
30
0.0
11
310.000000
21
494.000000
31
0.0
0
LINE
8
LINES
10
192.000000
20
222.000000
30
0.0
11
147.000000
21
222.000000
31
0.0
0
LINE
8
LINES
10
374.000000
20
328.000000
30
0.0
11
329.000000
21
328.000000
31
0.0
0
LINE
8
LINES
10
46.000000
20
790.000000
30
0.0
11
1.000000
21
790.000000
31
0.0
0
LINE
8
LINES
10
540.000000
20
963.000000
30
0.0
11
585.000000
21
963.000000
31
0.0
0
LINE
8
LINES
10
452.000000
20
862.000000
30
0.0
11
408.000000
21
862.000000
31
0.0
0
LINE
8
LINES
10
513.000000
20
275.000000
30
0.0
11
468.000000
21
281.000000
31
0.0
0
LINE
8
LINES
10
196.000000
20
742.000000
30
0.0
11
241.000000
21
742.000000
31
0.0
0
LINE
8
LINES
10
593.000000
20
451.000000
30
0.0
11
548.000000
21
451.000000
31
0.0
0
LINE
8
LINES
10
592.000000
20
232.000000
30
0.0
11
547.000000
21
232.000000
31
0.0
0
LINE
8
LINES
10
468.000000
20
512.000000
30
0.0
11
512.000000
21
508.000000
31
0.0
0
LINE
8
LINES
10
406.000000
20
1009.000000
30
0.0
11
406.000000
21
966.000000
31
0.0
0
LINE
8
LINES
10
585.000000
20
910.000000
30
0.0
11
542.000000
21
910.000000
31
0.0
0
LINE
8
LINES
10
424.000000
20
499.000000
30
0.0
11
467.000000
21
499.000000
31
0.0
0
LINE
8
LINES
10
548.000000
20
497.000000
30
0.0
11
592.000000
21
497.000000
31
0.0
0
LINE
8
LINES
10
148.000000
20
963.000000
30
0.0
11
192.000000
21
963.000000
31
0.0
0
LINE
8
LINES
10
588.000000
20
124.000000
30
0.0
11
547.000000
21
124.000000
31
0.0
0
LINE
8
LINES
10
275.000000
20
225.000000
30
0.0
11
233.000000
21
225.000000
31
0.0
0
LINE
8
LINES
10
481.000000
20
910.000000
30
0.0
11
476.000000
21
868.000000
31
0.0
0
LINE
8
LINES
10
492.000000
20
993.000000
30
0.0
11
451.000000
21
993.000000
31
0.0
0
LINE
8
LINES
10
52.000000
20
401.000000
30
0.0
11
12.000000
21
401.000000
31
0.0
0
LINE
8
LINES
10
222.000000
20
390.000000
30
0.0
11
264.000000
21
390.000000
31
0.0
0
LINE
8
LINES
10
347.000000
20
964.000000
30
0.0
11
387.000000
21
964.000000
31
0.0
0
LINE
8
LINES
10
470.000000
20
438.000000
30
0.0
11
510.000000
21
438.000000
31
0.0
0
LINE
8
LINES
10
481.000000
20
556.000000
30
0.0
11
441.000000
21
561.000000
31
0.0
0
LINE
8
LINES
10
470.000000
20
569.000000
30
0.0
11
510.000000
21
569.000000
31
0.0
0
LINE
8
LINES
10
1.000000
20
931.000000
30
0.0
11
41.000000
21
931.000000
31
0.0
0
LINE
8
LINES
10
41.000000
20
923.000000
30
0.0
11
1.000000
21
923.000000
31
0.0
0
LINE
8
LINES
10
483.000000
20
790.000000
30
0.0
11
443.000000
21
790.000000
31
0.0
0
LINE
8
LINES
10
392.000000
20
163.000000
30
0.0
11
352.000000
21
163.000000
31
0.0
0
LINE
8
LINES
10
396.000000
20
672.000000
30
0.0
11
436.000000
21
672.000000
31
0.0
0
LINE
8
LINES
10
57.000000
20
353.000000
30
0.0
11
17.000000
21
353.000000
31
0.0
0
LINE
8
LINES
10
88.000000
20
963.000000
30
0.0
11
128.000000
21
963.000000
31
0.0
0
LINE
8
LINES
10
576.000000
20
627.000000
30
0.0
11
614.000000
21
627.000000
31
0.0
0
LINE
8
LINES
10
1.000000
20
915.000000
30
0.0
11
38.000000
21
915.000000
31
0.0
0
LINE
8
LINES
10
614.000000
20
332.000000
30
0.0
11
576.000000
21
332.000000
31
0.0
0
LINE
8
LINES
10
203.000000
20
1020.000000
30
0.0
11
163.000000
21
1020.000000
31
0.0
0
LINE
8
LINES
10
454.000000
20
849.000000
30
0.0
11
416.000000
21
849.000000
31
0.0
0
LINE
8
LINES
10
1.000000
20
635.000000
30
0.0
11
38.000000
21
635.000000
31
0.0
0
LINE
8
LINES
10
430.000000
20
739.000000
30
0.0
11
468.000000
21
739.000000
31
0.0
0
LINE
8
LINES
10
387.000000
20
945.000000
30
0.0
11
348.000000
21
945.000000
31
0.0
0
LINE
8
LINES
10
99.000000
20
456.000000
30
0.0
11
60.000000
21
464.000000
31
0.0
0
LINE
8
LINES
10
529.000000
20
449.000000
30
0.0
11
492.000000
21
449.000000
31
0.0
0
LINE
8
LINES
10
70.000000
20
574.000000
30
0.0
11
33.000000
21
574.000000
31
0.0
0
LINE
8
LINES
10
480.000000
20
785.000000
30
0.0
11
480.000000
21
748.000000
31
0.0
0
LINE
8
LINES
10
41.000000
20
457.000000
30
0.0
11
3.000000
21
457.000000
31
0.0
0
LINE
8
LINES
10
614.000000
20
556.000000
30
0.0
11
577.000000
21
556.000000
31
0.0
0
LINE
8
LINES
10
296.000000
20
689.000000
30
0.0
11
332.000000
21
689.000000
31
0.0
0
LINE
8
LINES
10
508.000000
20
784.000000
30
0.0
11
508.000000
21
747.000000
31
0.0
0
LINE
8
LINES
10
496.000000
20
51.000000
30
0.0
11
532.000000
21
51.000000
31
0.0
0
LINE
8
LINES
10
576.000000
20
782.000000
30
0.0
11
576.000000
21
745.000000
31
0.0
0
LINE
8
LINES
10
547.000000
20
784.000000
30
0.0
11
547.000000
21
747.000000
31
0.0
0
LINE
8
LINES
10
366.000000
20
740.000000
30
0.0
11
403.000000
21
740.000000
31
0.0
0
LINE
8
LINES
10
38.000000
20
913.000000
30
0.0
11
1.000000
21
913.000000
31
0.0
0
LINE
8
LINES
10
507.000000
20
670.000000
30
0.0
11
544.000000
21
670.000000
31
0.0
0
LINE
8
LINES
10
486.000000
20
492.000000
30
0.0
11
523.000000
21
492.000000
31
0.0
0
LINE
8
LINES
10
1.000000
20
926.000000
30
0.0
11
38.000000
21
926.000000
31
0.0
0
LINE
8
LINES
10
38.000000
20
929.000000
30
0.0
11
1.000000
21
929.000000
31
0.0
0
LINE
8
LINES
10
518.000000
20
862.000000
30
0.0
11
481.000000
21
862.000000
31
0.0
0
LINE
8
LINES
10
278.000000
20
568.000000
30
0.0
11
241.000000
21
574.000000
31
0.0
0
LINE
8
LINES
10
443.000000
20
609.000000
30
0.0
11
443.000000
21
572.000000
31
0.0
0
LINE
8
LINES
10
611.000000
20
224.000000
30
0.0
11
576.000000
21
224.000000
31
0.0
0
LINE
8
LINES
10
547.000000
20
908.000000
30
0.0
11
547.000000
21
873.000000
31
0.0
0
LINE
8
LINES
10
169.000000
20
393.000000
30
0.0
11
206.000000
21
393.000000
31
0.0
0
LINE
8
LINES
10
412.000000
20
785.000000
30
0.0
11
412.000000
21
748.000000
31
0.0
0
LINE
8
LINES
10
1.000000
20
748.000000
30
0.0
11
36.000000
21
748.000000
31
0.0
0
LINE
8
LINES
10
441.000000
20
785.000000
30
0.0
11
441.000000
21
748.000000
31
0.0
0
LINE
8
LINES
10
62.000000
20
908.000000
30
0.0
11
25.000000
21
908.000000
31
0.0
0
LINE
8
LINES
10
236.000000
20
633.000000
30
0.0
11
273.000000
21
633.000000
31
0.0
0
LINE
8
LINES
10
369.000000
20
688.000000
30
0.0
11
406.000000
21
688.000000
31
0.0
0
LINE
8
LINES
10
243.000000
20
830.000000
30
0.0
11
281.000000
21
830.000000
31
0.0
0
LINE
8
LINES
10
510.000000
20
828.000000
30
0.0
11
547.000000
21
828.000000
31
0.0
0
LINE
8
LINES
10
145.000000
20
745.000000
30
0.0
11
108.000000
21
745.000000
31
0.0
0
LINE
8
LINES
10
222.000000
20
625.000000
30
0.0
11
257.000000
21
625.000000
31
0.0
0
LINE
8
LINES
10
212.000000
20
964.000000
30
0.0
11
249.000000
21
964.000000
31
0.0
0
LINE
8
LINES
10
252.000000
20
940.000000
30
0.0
11
216.000000
21
940.000000
31
0.0
0
LINE
8
LINES
10
337.000000
20
862.000000
30
0.0
11
302.000000
21
862.000000
31
0.0
0
LINE
8
LINES
10
145.000000
20
225.000000
30
0.0
11
110.000000
21
217.000000
31
0.0
0
LINE
8
LINES
10
81.000000
20
232.000000
30
0.0
11
46.000000
21
236.000000
31
0.0
0
LINE
8
LINES
10
96.000000
20
388.000000
30
0.0
11
131.000000
21
393.000000
31
0.0
0
LINE
8
LINES
10
478.000000
20
222.000000
30
0.0
11
443.000000
21
225.000000
31
0.0
0
LINE
8
LINES
10
579.000000
20
478.000000
30
0.0
11
614.000000
21
475.000000
31
0.0
0
LINE
8
LINES
10
350.000000
20
220.000000
30
0.0
11
316.000000
21
211.000000
31
0.0
0
LINE
8
LINES
10
444.000000
20
326.000000
30
0.0
11
444.000000
21
291.000000
31
0.0
0
LINE
8
LINES
10
377.000000
20
272.000000
30
0.0
11
377.000000
21
236.000000
31
0.0
0
LINE
8
LINES
10
376.000000
20
553.000000
30
0.0
11
376.000000
21
518.000000
31
0.0
0
LINE
8
LINES
10
78.000000
20
566.000000
30
0.0
11
44.000000
21
566.000000
31
0.0
0
LINE
8
LINES
10
408.000000
20
560.000000
30
0.0
11
372.000000
21
560.000000
31
0.0
0
LINE
8
LINES
10
614.000000
20
361.000000
30
0.0
11
579.000000
21
355.000000
31
0.0
0
LINE
8
LINES
10
579.000000
20
668.000000
30
0.0
11
614.000000
21
668.000000
31
0.0
0
LINE
8
LINES
10
577.000000
20
492.000000
30
0.0
11
577.000000
21
457.000000
31
0.0
0
LINE
8
LINES
10
548.000000
20
606.000000
30
0.0
11
548.000000
21
572.000000
31
0.0
0
LINE
8
LINES
10
444.000000
20
382.000000
30
0.0
11
444.000000
21
347.000000
31
0.0
0
LINE
8
LINES
10
510.000000
20
108.000000
30
0.0
11
510.000000
21
73.000000
31
0.0
0
LINE
8
LINES
10
547.000000
20
718.000000
30
0.0
11
547.000000
21
684.000000
31
0.0
0
LINE
8
LINES
10
579.000000
20
422.000000
30
0.0
11
614.000000
21
417.000000
31
0.0
0
LINE
8
LINES
10
609.000000
20
958.000000
30
0.0
11
609.000000
21
924.000000
31
0.0
0
LINE
8
LINES
10
355.000000
20
500.000000
30
0.0
11
390.000000
21
500.000000
31
0.0
0
LINE
8
LINES
10
558.000000
20
275.000000
30
0.0
11
593.000000
21
275.000000
31
0.0
0
LINE
8
LINES
10
539.000000
20
166.000000
30
0.0
11
505.000000
21
156.000000
31
0.0
0
LINE
8
LINES
10
115.000000
20
611.000000
30
0.0
11
115.000000
21
577.000000
31
0.0
0
LINE
8
LINES
10
72.000000
20
337.000000
30
0.0
11
105.000000
21
332.000000
31
0.0
0
LINE
8
LINES
10
414.000000
20
721.000000
30
0.0
11
411.000000
21
686.000000
31
0.0
0
LINE
8
LINES
10
443.000000
20
721.000000
30
0.0
11
443.000000
21
686.000000
31
0.0
0
LINE
8
LINES
10
444.000000
20
664.000000
30
0.0
11
444.000000
21
630.000000
31
0.0
0
LINE
8
LINES
10
76.000000
20
454.000000
30
0.0
11
43.000000
21
457.000000
31
0.0
0
LINE
8
LINES
10
580.000000
20
534.000000
30
0.0
11
614.000000
21
531.000000
31
0.0
0
LINE
8
LINES
10
377.000000
20
425.000000
30
0.0
11
412.000000
21
422.000000
31
0.0
0
LINE
8
LINES
10
444.000000
20
436.000000
30
0.0
11
444.000000
21
403.000000
31
0.0
0
LINE
8
LINES
10
377.000000
20
217.000000
30
0.0
11
377.000000
21
182.000000
31
0.0
0
LINE
8
LINES
10
444.000000
20
270.000000
30
0.0
11
444.000000
21
236.000000
31
0.0
0
LINE
8
LINES
10
262.000000
20
451.000000
30
0.0
11
228.000000
21
451.000000
31
0.0
0
LINE
8
LINES
10
481.000000
20
851.000000
30
0.0
11
481.000000
21
817.000000
31
0.0
0
LINE
8
LINES
10
313.000000
20
108.000000
30
0.0
11
313.000000
21
76.000000
31
0.0
0
LINE
8
LINES
10
116.000000
20
828.000000
30
0.0
11
150.000000
21
828.000000
31
0.0
0
LINE
8
LINES
10
611.000000
20
668.000000
30
0.0
11
577.000000
21
668.000000
31
0.0
0
LINE
8
LINES
10
174.000000
20
572.000000
30
0.0
11
208.000000
21
572.000000
31
0.0
0
LINE
8
LINES
10
548.000000
20
846.000000
30
0.0
11
548.000000
21
812.000000
31
0.0
0
LINE
8
LINES
10
508.000000
20
676.000000
30
0.0
11
542.000000
21
676.000000
31
0.0
0
LINE
8
LINES
10
492.000000
20
372.000000
30
0.0
11
492.000000
21
339.000000
31
0.0
0
LINE
8
LINES
10
377.000000
20
481.000000
30
0.0
11
412.000000
21
478.000000
31
0.0
0
LINE
8
LINES
10
422.000000
20
270.000000
30
0.0
11
388.000000
21
270.000000
31
0.0
0
LINE
8
LINES
10
444.000000
20
108.000000
30
0.0
11
444.000000
21
76.000000
31
0.0
0
LINE
8
LINES
10
481.000000
20
108.000000
30
0.0
11
481.000000
21
73.000000
31
0.0
0
LINE
8
LINES
10
291.000000
20
110.000000
30
0.0
11
257.000000
21
113.000000
31
0.0
0
LINE
8
LINES
10
182.000000
20
112.000000
30
0.0
11
182.000000
21
78.000000
31
0.0
0
LINE
8
LINES
10
313.000000
20
830.000000
30
0.0
11
347.000000
21
830.000000
31
0.0
0
LINE
8
LINES
10
611.000000
20
923.000000
30
0.0
11
611.000000
21
956.000000
31
0.0
0
LINE
8
LINES
10
496.000000
20
124.000000
30
0.0
11
462.000000
21
124.000000
31
0.0
0
LINE
8
LINES
10
548.000000
20
323.000000
30
0.0
11
548.000000
21
291.000000
31
0.0
0
LINE
8
LINES
10
416.000000
20
216.000000
30
0.0
11
416.000000
21
182.000000
31
0.0
0
LINE
8
LINES
10
379.000000
20
161.000000
30
0.0
11
379.000000
21
129.000000
31
0.0
0
LINE
8
LINES
10
417.000000
20
161.000000
30
0.0
11
417.000000
21
129.000000
31
0.0
0
LINE
8
LINES
10
444.000000
20
216.000000
30
0.0
11
444.000000
21
182.000000
31
0.0
0
LINE
8
LINES
10
444.000000
20
161.000000
30
0.0
11
444.000000
21
129.000000
31
0.0
0
LINE
8
LINES
10
248.000000
20
108.000000
30
0.0
11
248.000000
21
76.000000
31
0.0
0
LINE
8
LINES
10
412.000000
20
112.000000
30
0.0
11
380.000000
21
112.000000
31
0.0
0
LINE
8
LINES
10
476.000000
20
377.000000
30
0.0
11
476.000000
21
344.000000
31
0.0
0
LINE
8
LINES
10
576.000000
20
216.000000
30
0.0
11
576.000000
21
182.000000
31
0.0
0
LINE
8
LINES
10
576.000000
20
268.000000
30
0.0
11
576.000000
21
236.000000
31
0.0
0
LINE
8
LINES
10
547.000000
20
268.000000
30
0.0
11
547.000000
21
236.000000
31
0.0
0
LINE
8
LINES
10
547.000000
20
216.000000
30
0.0
11
547.000000
21
182.000000
31
0.0
0
LINE
8
LINES
10
547.000000
20
163.000000
30
0.0
11
547.000000
21
131.000000
31
0.0
0
LINE
8
LINES
10
350.000000
20
108.000000
30
0.0
11
350.000000
21
76.000000
31
0.0
0
LINE
8
LINES
10
379.000000
20
107.000000
30
0.0
11
379.000000
21
73.000000
31
0.0
0
LINE
8
LINES
10
219.000000
20
110.000000
30
0.0
11
219.000000
21
78.000000
31
0.0
0
LINE
8
LINES
10
494.000000
20
156.000000
30
0.0
11
465.000000
21
166.000000
31
0.0
0
LINE
8
LINES
10
27.000000
20
118.000000
30
0.0
11
27.000000
21
88.000000
31
0.0
0
LINE
8
LINES
10
363.000000
20
348.000000
30
0.0
11
363.000000
21
379.000000
31
0.0
0
LINE
8
LINES
10
492.000000
20
206.000000
30
0.0
11
492.000000
21
176.000000
31
0.0
0
LINE
8
LINES
10
443.000000
20
491.000000
30
0.0
11
443.000000
21
459.000000
31
0.0
0
LINE
8
LINES
10
67.000000
20
345.000000
30
0.0
11
35.000000
21
345.000000
31
0.0
0
LINE
8
LINES
10
582.000000
20
702.000000
30
0.0
11
614.000000
21
702.000000
31
0.0
0
LINE
8
LINES
10
62.000000
20
848.000000
30
0.0
11
32.000000
21
848.000000
31
0.0
0
LINE
8
LINES
10
348.000000
20
848.000000
30
0.0
11
348.000000
21
817.000000
31
0.0
0
LINE
8
LINES
10
582.000000
20
590.000000
30
0.0
11
614.000000
21
590.000000
31
0.0
0
LINE
8
LINES
10
547.000000
20
659.000000
30
0.0
11
547.000000
21
627.000000
31
0.0
0
LINE
8
LINES
10
92.000000
20
846.000000
30
0.0
11
92.000000
21
816.000000
31
0.0
0
LINE
8
LINES
10
464.000000
20
627.000000
30
0.0
11
494.000000
21
627.000000
31
0.0
0
LINE
8
LINES
10
155.000000
20
849.000000
30
0.0
11
155.000000
21
817.000000
31
0.0
0
LINE
8
LINES
10
614.000000
20
704.000000
30
0.0
11
582.000000
21
704.000000
31
0.0
0
LINE
8
LINES
10
283.000000
20
848.000000
30
0.0
11
283.000000
21
817.000000
31
0.0
0
LINE
8
LINES
10
116.000000
20
115.000000
30
0.0
11
116.000000
21
83.000000
31
0.0
0
LINE
8
LINES
10
611.000000
20
211.000000
30
0.0
11
580.000000
21
211.000000
31
0.0
0
LINE
8
LINES
10
561.000000
20
566.000000
30
0.0
11
531.000000
21
566.000000
31
0.0
0
LINE
8
LINES
10
542.000000
20
817.000000
30
0.0
11
510.000000
21
817.000000
31
0.0
0
LINE
8
LINES
10
393.000000
20
275.000000
30
0.0
11
425.000000
21
275.000000
31
0.0
0
LINE
8
LINES
10
81.000000
20
745.000000
30
0.0
11
51.000000
21
745.000000
31
0.0
0
LINE
8
LINES
10
358.000000
20
168.000000
30
0.0
11
390.000000
21
168.000000
31
0.0
0
LINE
8
LINES
10
294.000000
20
126.000000
30
0.0
11
262.000000
21
126.000000
31
0.0
0
LINE
8
LINES
10
336.000000
20
688.000000
30
0.0
11
366.000000
21
688.000000
31
0.0
0
LINE
8
LINES
10
156.000000
20
908.000000
30
0.0
11
156.000000
21
878.000000
31
0.0
0
LINE
8
LINES
10
278.000000
20
787.000000
30
0.0
11
278.000000
21
755.000000
31
0.0
0
LINE
8
LINES
10
409.000000
20
476.000000
30
0.0
11
379.000000
21
468.000000
31
0.0
0
LINE
8
LINES
10
145.000000
20
232.000000
30
0.0
11
115.000000
21
227.000000
31
0.0
0
LINE
8
LINES
10
75.000000
20
350.000000
30
0.0
11
105.000000
21
348.000000
31
0.0
0
LINE
8
LINES
10
140.000000
20
616.000000
30
0.0
11
108.000000
21
611.000000
31
0.0
0
LINE
8
LINES
10
326.000000
20
163.000000
30
0.0
11
296.000000
21
158.000000
31
0.0
0
LINE
8
LINES
10
614.000000
20
318.000000
30
0.0
11
584.000000
21
315.000000
31
0.0
0
LINE
8
LINES
10
548.000000
20
432.000000
30
0.0
11
548.000000
21
401.000000
31
0.0
0
LINE
8
LINES
10
584.000000
20
545.000000
30
0.0
11
614.000000
21
545.000000
31
0.0
0
LINE
8
LINES
10
380.000000
20
664.000000
30
0.0
11
411.000000
21
664.000000
31
0.0
0
LINE
8
LINES
10
305.000000
20
633.000000
30
0.0
11
336.000000
21
630.000000
31
0.0
0
LINE
8
LINES
10
416.000000
20
108.000000
30
0.0
11
416.000000
21
78.000000
31
0.0
0
LINE
8
LINES
10
115.000000
20
785.000000
30
0.0
11
115.000000
21
755.000000
31
0.0
0
LINE
8
LINES
10
30.000000
20
846.000000
30
0.0
11
30.000000
21
816.000000
31
0.0
0
LINE
8
LINES
10
89.000000
20
116.000000
30
0.0
11
89.000000
21
86.000000
31
0.0
0
LINE
8
LINES
10
241.000000
20
9.000000
30
0.0
11
212.000000
21
4.000000
31
0.0
0
LINE
8
LINES
10
540.000000
20
830.000000
30
0.0
11
510.000000
21
830.000000
31
0.0
0
LINE
8
LINES
10
19.000000
20
179.000000
30
0.0
11
49.000000
21
179.000000
31
0.0
0
LINE
8
LINES
10
310.000000
20
492.000000
30
0.0
11
281.000000
21
492.000000
31
0.0
0
LINE
8
LINES
10
409.000000
20
419.000000
30
0.0
11
380.000000
21
414.000000
31
0.0
0
LINE
8
LINES
10
211.000000
20
995.000000
30
0.0
11
211.000000
21
966.000000
31
0.0
0
LINE
8
LINES
10
30.000000
20
905.000000
30
0.0
11
1.000000
21
905.000000
31
0.0
0
LINE
8
LINES
10
110.000000
20
449.000000
30
0.0
11
81.000000
21
449.000000
31
0.0
0
LINE
8
LINES
10
88.000000
20
785.000000
30
0.0
11
88.000000
21
755.000000
31
0.0
0
LINE
8
LINES
10
380.000000
20
606.000000
30
0.0
11
411.000000
21
606.000000
31
0.0
0
LINE
8
LINES
10
380.000000
20
595.000000
30
0.0
11
411.000000
21
595.000000
31
0.0
0
LINE
8
LINES
10
382.000000
20
537.000000
30
0.0
11
412.000000
21
537.000000
31
0.0
0
LINE
8
LINES
10
515.000000
20
704.000000
30
0.0
11
545.000000
21
704.000000
31
0.0
0
LINE
8
LINES
10
393.000000
20
499.000000
30
0.0
11
422.000000
21
499.000000
31
0.0
0
LINE
8
LINES
10
32.000000
20
908.000000
30
0.0
11
32.000000
21
878.000000
31
0.0
0
LINE
8
LINES
10
427.000000
20
168.000000
30
0.0
11
457.000000
21
168.000000
31
0.0
0
ENDSEC
0
EOF
