0
SECTION
2
ENTITIES
0
LWPOLYLINE
8
FACADE_OUTLINE
90
4
70
1
10
0.000000
20
0.000000
10
616.000000
20
0.000000
10
616.000000
20
1024.000000
10
0.000000
20
1024.000000
0
LWPOLYLINE
8
WINDOWS
90
4
70
1
10
316.000000
20
16.000000
10
356.000000
20
16.000000
10
356.000000
20
56.000000
10
316.000000
20
56.000000
0
LWPOLYLINE
8
WINDOWS
90
4
70
1
10
252.000000
20
16.000000
10
300.000000
20
16.000000
10
300.000000
20
56.000000
10
252.000000
20
56.000000
0
LWPOLYLINE
8
WINDOWS
90
4
70
1
10
32.000000
20
24.000000
10
108.000000
20
24.000000
10
108.000000
20
64.000000
10
32.000000
20
64.000000
0
LWPOLYLINE
8
WINDOWS
90
4
70
1
10
412.000000
20
292.000000
10
464.000000
20
292.000000
10
464.000000
20
336.000000
10
412.000000
20
336.000000
0
LWPOLYLINE
8
WINDOWS
90
4
70
1
10
372.000000
20
404.000000
10
432.000000
20
404.000000
10
432.000000
20
448.000000
10
372.000000
20
448.000000
0
LWPOLYLINE
8
WINDOWS
90
4
70
1
10
256.000000
20
624.000000
10
340.000000
20
624.000000
10
340.000000
20
676.000000
10
256.000000
20
676.000000
0
LWPOLYLINE
8
WINDOWS
90
4
70
1
10
64.000000
20
624.000000
10
140.000000
20
624.000000
10
140.000000
20
680.000000
10
64.000000
20
680.000000
0
LWPOLYLINE
8
WINDOWS
90
4
70
1
10
544.000000
20
804.000000
10
616.000000
20
804.000000
10
616.000000
20
848.000000
10
544.000000
20
848.000000
0
LWPOLYLINE
8
WINDOWS
90
4
70
1
10
0.000000
20
808.000000
10
64.000000
20
808.000000
10
64.000000
20
848.000000
10
0.000000
20
848.000000
0
LWPOLYLINE
8
WINDOWS
90
4
70
1
10
476.000000
20
808.000000
10
524.000000
20
808.000000
10
524.000000
20
848.000000
10
476.000000
20
848.000000
0
LWPOLYLINE
8
WINDOWS
90
4
70
1
10
72.000000
20
808.000000
10
128.000000
20
808.000000
10
128.000000
20
848.000000
10
72.000000
20
848.000000
0
LWPOLYLINE
8
WINDOWS
90
4
70
1
10
144.000000
20
808.000000
10
256.000000
20
808.000000
10
256.000000
20
848.000000
10
144.000000
20
848.000000
0
LWPOLYLINE
8
WINDOWS
90
4
70
1
10
264.000000
20
808.000000
10
324.000000
20
808.000000
10
324.000000
20
852.000000
10
264.000000
20
852.000000
0
LWPOLYLINE
8
WINDOWS
90
4
70
1
10
316.000000
20
808.000000
10
408.000000
20
808.000000
10
408.000000
20
852.000000
10
316.000000
20
852.000000
0
LWPOLYLINE
8
WINDOWS
90
4
70
1
10
408.000000
20
808.000000
10
456.000000
20
808.000000
10
456.000000
20
848.000000
10
408.000000
20
848.000000
0
LWPOLYLINE
8
WINDOWS
90
4
70
1
10
200.000000
20
868.000000
10
268.000000
20
868.000000
10
268.000000
20
912.000000
10
200.000000
20
912.000000
0
LWPOLYLINE
8
WINDOWS
90
4
70
1
10
468.000000
20
868.000000
10
524.000000
20
868.000000
10
524.000000
20
912.000000
10
468.000000
20
912.000000
0
LWPOLYLINE
8
WINDOWS
90
4
70
1
10
116.000000
20
932.000000
10
224.000000
20
932.000000
10
224.000000
20
1008.000000
10
116.000000
20
1008.000000
0
LWPOLYLINE
8
WINDOWS
90
4
70
1
10
536.000000
20
936.000000
10
616.000000
20
936.000000
10
616.000000
20
1004.000000
10
536.000000
20
1004.000000
0
LWPOLYLINE
8
WINDOWS
90
4
70
1
10
344.000000
20
936.000000
10
392.000000
20
936.000000
10
392.000000
20
1008.000000
10
344.000000
20
1008.000000
0
LWPOLYLINE
8
WINDOWS
90
4
70
1
10
388.000000
20
936.000000
10
464.000000
20
936.000000
10
464.000000
20
1016.000000
10
388.000000
20
1016.000000
0
LWPOLYLINE
8
WINDOWS
90
4
70
1
10
472.000000
20
936.000000
10
540.000000
20
936.000000
10
540.000000
20
1008.000000
10
472.000000
20
1008.000000
0
LWPOLYLINE
8
WINDOWS
90
4
70
1
10
152.000000
20
940.000000
10
192.000000
20
940.000000
10
192.000000
20
984.000000
10
152.000000
20
984.000000
0
LWPOLYLINE
8
DOORS
90
4
70
1
10
24.000000
20
920.000000
10
68.000000
20
920.000000
10
68.000000
20
1016.000000
10
24.000000
20
1016.000000
0
LINE
8
LINES
10
0.000000
20
732.000000
30
0.0
11
616.000000
21
732.000000
31
0.0
0
LINE
8
LINES
10
616.000000
20
624.000000
30
0.0
11
0.000000
21
624.000000
31
0.0
0
LINE
8
LINES
10
616.000000
20
796.000000
30
0.0
11
0.000000
21
796.000000
31
0.0
0
LINE
8
LINES
10
616.000000
20
732.000000
30
0.0
11
0.000000
21
732.000000
31
0.0
0
LINE
8
LINES
10
616.000000
20
856.000000
30
0.0
11
0.000000
21
856.000000
31
0.0
0
LINE
8
LINES
10
0.000000
20
852.000000
30
0.0
11
612.000000
21
852.000000
31
0.0
0
LINE
8
LINES
10
0.000000
20
808.000000
30
0.0
11
596.000000
21
808.000000
31
0.0
0
LINE
8
LINES
10
12.000000
20
136.000000
30
0.0
11
592.000000
21
136.000000
31
0.0
0
LINE
8
LINES
10
72.000000
20
920.000000
30
0.0
11
608.000000
21
920.000000
31
0.0
0
LINE
8
LINES
10
0.000000
20
788.000000
30
0.0
11
492.000000
21
788.000000
31
0.0
0
LINE
8
LINES
10
0.000000
20
792.000000
30
0.0
11
484.000000
21
792.000000
31
0.0
0
LINE
8
LINES
10
132.000000
20
512.000000
30
0.0
11
616.000000
21
512.000000
31
0.0
0
LINE
8
LINES
10
384.000000
20
724.000000
30
0.0
11
0.000000
21
724.000000
31
0.0
0
LINE
8
LINES
10
292.000000
20
916.000000
30
0.0
11
608.000000
21
916.000000
31
0.0
0
LINE
8
LINES
10
84.000000
20
120.000000
30
0.0
11
392.000000
21
120.000000
31
0.0
0
LINE
8
LINES
10
352.000000
20
792.000000
30
0.0
11
48.000000
21
792.000000
31
0.0
0
LINE
8
LINES
10
0.000000
20
864.000000
30
0.0
11
292.000000
21
864.000000
31
0.0
0
LINE
8
LINES
10
608.000000
20
924.000000
30
0.0
11
336.000000
21
924.000000
31
0.0
0
LINE
8
LINES
10
336.000000
20
932.000000
30
0.0
11
608.000000
21
932.000000
31
0.0
0
LINE
8
LINES
10
272.000000
20
676.000000
30
0.0
11
8.000000
21
676.000000
31
0.0
0
LINE
8
LINES
10
200.000000
20
56.000000
30
0.0
11
464.000000
21
56.000000
31
0.0
0
LINE
8
LINES
10
544.000000
20
672.000000
30
0.0
11
304.000000
21
672.000000
31
0.0
0
LINE
8
LINES
10
300.000000
20
868.000000
30
0.0
11
540.000000
21
868.000000
31
0.0
0
LINE
8
LINES
10
304.000000
20
936.000000
30
0.0
11
524.000000
21
936.000000
31
0.0
0
LINE
8
LINES
10
396.000000
20
112.000000
30
0.0
11
608.000000
21
112.000000
31
0.0
0
LINE
8
LINES
10
268.000000
20
400.000000
30
0.0
11
468.000000
21
400.000000
31
0.0
0
LINE
8
LINES
10
72.000000
20
520.000000
30
0.0
11
264.000000
21
520.000000
31
0.0
0
LINE
8
LINES
10
264.000000
20
516.000000
30
0.0
11
72.000000
21
516.000000
31
0.0
0
LINE
8
LINES
10
276.000000
20
288.000000
30
0.0
11
468.000000
21
288.000000
31
0.0
0
LINE
8
LINES
10
72.000000
20
408.000000
30
0.0
11
264.000000
21
408.000000
31
0.0
0
LINE
8
LINES
10
272.000000
20
292.000000
30
0.0
11
80.000000
21
292.000000
31
0.0
0
LINE
8
LINES
10
80.000000
20
296.000000
30
0.0
11
264.000000
21
296.000000
31
0.0
0
LINE
8
LINES
10
268.000000
20
504.000000
30
0.0
11
80.000000
21
504.000000
31
0.0
0
LINE
8
LINES
10
280.000000
20
392.000000
30
0.0
11
464.000000
21
392.000000
31
0.0
0
LINE
8
LINES
10
76.000000
20
400.000000
30
0.0
11
264.000000
21
400.000000
31
0.0
0
LINE
8
LINES
10
464.000000
20
512.000000
30
0.0
11
280.000000
21
512.000000
31
0.0
0
LINE
8
LINES
10
252.000000
20
924.000000
30
0.0
11
72.000000
21
924.000000
31
0.0
0
LINE
8
LINES
10
72.000000
20
932.000000
30
0.0
11
248.000000
21
932.000000
31
0.0
0
LINE
8
LINES
10
308.000000
20
396.000000
30
0.0
11
136.000000
21
396.000000
31
0.0
0
LINE
8
LINES
10
72.000000
20
928.000000
30
0.0
11
240.000000
21
928.000000
31
0.0
0
LINE
8
LINES
10
108.000000
20
452.000000
30
0.0
11
264.000000
21
452.000000
31
0.0
0
LINE
8
LINES
10
112.000000
20
240.000000
30
0.0
11
268.000000
21
240.000000
31
0.0
0
LINE
8
LINES
10
312.000000
20
344.000000
30
0.0
11
468.000000
21
344.000000
31
0.0
0
LINE
8
LINES
10
312.000000
20
460.000000
30
0.0
11
468.000000
21
460.000000
31
0.0
0
LINE
8
LINES
10
128.000000
20
912.000000
30
0.0
11
280.000000
21
912.000000
31
0.0
0
LINE
8
LINES
10
488.000000
20
392.000000
30
0.0
11
336.000000
21
392.000000
31
0.0
0
LINE
8
LINES
10
468.000000
20
456.000000
30
0.0
11
320.000000
21
456.000000
31
0.0
0
LINE
8
LINES
10
292.000000
20
864.000000
30
0.0
11
144.000000
21
864.000000
31
0.0
0
LINE
8
LINES
10
472.000000
20
396.000000
30
0.0
11
616.000000
21
396.000000
31
0.0
0
LINE
8
LINES
10
216.000000
20
932.000000
30
0.0
11
72.000000
21
932.000000
31
0.0
0
LINE
8
LINES
10
128.000000
20
580.000000
30
0.0
11
264.000000
21
580.000000
31
0.0
0
LINE
8
LINES
10
332.000000
20
520.000000
30
0.0
11
468.000000
21
520.000000
31
0.0
0
LINE
8
LINES
10
128.000000
20
180.000000
30
0.0
11
264.000000
21
180.000000
31
0.0
0
LINE
8
LINES
10
332.000000
20
560.000000
30
0.0
11
468.000000
21
560.000000
31
0.0
0
LINE
8
LINES
10
480.000000
20
388.000000
30
0.0
11
616.000000
21
388.000000
31
0.0
0
LINE
8
LINES
10
332.000000
20
624.000000
30
0.0
11
468.000000
21
624.000000
31
0.0
0
LINE
8
LINES
10
468.000000
20
440.000000
30
0.0
11
336.000000
21
440.000000
31
0.0
0
LINE
8
LINES
10
332.000000
20
444.000000
30
0.0
11
468.000000
21
444.000000
31
0.0
0
LINE
8
LINES
10
332.000000
20
332.000000
30
0.0
11
468.000000
21
332.000000
31
0.0
0
LINE
8
LINES
10
0.000000
20
64.000000
30
0.0
11
132.000000
21
64.000000
31
0.0
0
LINE
8
LINES
10
132.000000
20
468.000000
30
0.0
11
264.000000
21
468.000000
31
0.0
0
LINE
8
LINES
10
132.000000
20
340.000000
30
0.0
11
264.000000
21
340.000000
31
0.0
0
LINE
8
LINES
10
336.000000
20
184.000000
30
0.0
11
468.000000
21
184.000000
31
0.0
0
LINE
8
LINES
10
336.000000
20
576.000000
30
0.0
11
468.000000
21
576.000000
31
0.0
0
LINE
8
LINES
10
132.000000
20
564.000000
30
0.0
11
264.000000
21
564.000000
31
0.0
0
LINE
8
LINES
10
468.000000
20
284.000000
30
0.0
11
336.000000
21
284.000000
31
0.0
0
LINE
8
LINES
10
204.000000
20
916.000000
30
0.0
11
72.000000
21
916.000000
31
0.0
0
LINE
8
LINES
10
136.000000
20
228.000000
30
0.0
11
268.000000
21
228.000000
31
0.0
0
LINE
8
LINES
10
136.000000
20
352.000000
30
0.0
11
264.000000
21
352.000000
31
0.0
0
LINE
8
LINES
10
336.000000
20
284.000000
30
0.0
11
464.000000
21
284.000000
31
0.0
0
LINE
8
LINES
10
136.000000
20
288.000000
30
0.0
11
264.000000
21
288.000000
31
0.0
0
LINE
8
LINES
10
336.000000
20
236.000000
30
0.0
11
468.000000
21
236.000000
31
0.0
0
LINE
8
LINES
10
268.000000
20
180.000000
30
0.0
11
140.000000
21
180.000000
31
0.0
0
LINE
8
LINES
10
468.000000
20
176.000000
30
0.0
11
336.000000
21
176.000000
31
0.0
0
LINE
8
LINES
10
0.000000
20
4.000000
30
0.0
11
128.000000
21
4.000000
31
0.0
0
LINE
8
LINES
10
544.000000
20
112.000000
30
0.0
11
416.000000
21
112.000000
31
0.0
0
LINE
8
LINES
10
480.000000
20
280.000000
30
0.0
11
604.000000
21
280.000000
31
0.0
0
LINE
8
LINES
10
340.000000
20
176.000000
30
0.0
11
464.000000
21
176.000000
31
0.0
0
LINE
8
LINES
10
504.000000
20
720.000000
30
0.0
11
384.000000
21
720.000000
31
0.0
0
LINE
8
LINES
10
144.000000
20
188.000000
30
0.0
11
268.000000
21
188.000000
31
0.0
0
LINE
8
LINES
10
136.000000
20
284.000000
30
0.0
11
256.000000
21
284.000000
31
0.0
0
LINE
8
LINES
10
40.000000
20
748.000000
30
0.0
11
160.000000
21
748.000000
31
0.0
0
LINE
8
LINES
10
0.000000
20
912.000000
30
0.0
11
124.000000
21
912.000000
31
0.0
0
LINE
8
LINES
10
252.000000
20
912.000000
30
0.0
11
128.000000
21
912.000000
31
0.0
0
LINE
8
LINES
10
272.000000
20
276.000000
30
0.0
11
152.000000
21
276.000000
31
0.0
0
LINE
8
LINES
10
472.000000
20
216.000000
30
0.0
11
352.000000
21
216.000000
31
0.0
0
LINE
8
LINES
10
144.000000
20
176.000000
30
0.0
11
264.000000
21
176.000000
31
0.0
0
LINE
8
LINES
10
344.000000
20
388.000000
30
0.0
11
460.000000
21
388.000000
31
0.0
0
LINE
8
LINES
10
176.000000
20
748.000000
30
0.0
11
292.000000
21
748.000000
31
0.0
0
LINE
8
LINES
10
440.000000
20
344.000000
30
0.0
11
328.000000
21
344.000000
31
0.0
0
LINE
8
LINES
10
264.000000
20
168.000000
30
0.0
11
152.000000
21
168.000000
31
0.0
0
LINE
8
LINES
10
268.000000
20
556.000000
30
0.0
11
160.000000
21
556.000000
31
0.0
0
LINE
8
LINES
10
72.000000
20
984.000000
30
0.0
11
180.000000
21
984.000000
31
0.0
0
LINE
8
LINES
10
192.000000
20
112.000000
30
0.0
11
88.000000
21
112.000000
31
0.0
0
LINE
8
LINES
10
508.000000
20
744.000000
30
0.0
11
616.000000
21
744.000000
31
0.0
0
LINE
8
LINES
10
136.000000
20
508.000000
30
0.0
11
236.000000
21
508.000000
31
0.0
0
LINE
8
LINES
10
616.000000
20
508.000000
30
0.0
11
512.000000
21
508.000000
31
0.0
0
LINE
8
LINES
10
256.000000
20
332.000000
30
0.0
11
156.000000
21
332.000000
31
0.0
0
LINE
8
LINES
10
616.000000
20
720.000000
30
0.0
11
516.000000
21
720.000000
31
0.0
0
LINE
8
LINES
10
516.000000
20
568.000000
30
0.0
11
616.000000
21
568.000000
31
0.0
0
LINE
8
LINES
10
616.000000
20
740.000000
30
0.0
11
516.000000
21
740.000000
31
0.0
0
LINE
8
LINES
10
608.000000
20
328.000000
30
0.0
11
512.000000
21
328.000000
31
0.0
0
LINE
8
LINES
10
340.000000
20
632.000000
30
0.0
11
432.000000
21
632.000000
31
0.0
0
LINE
8
LINES
10
492.000000
20
792.000000
30
0.0
11
588.000000
21
792.000000
31
0.0
0
LINE
8
LINES
10
512.000000
20
744.000000
30
0.0
11
424.000000
21
744.000000
31
0.0
0
LINE
8
LINES
10
616.000000
20
548.000000
30
0.0
11
524.000000
21
548.000000
31
0.0
0
LINE
8
LINES
10
468.000000
20
328.000000
30
0.0
11
376.000000
21
328.000000
31
0.0
0
LINE
8
LINES
10
140.000000
20
636.000000
30
0.0
11
228.000000
21
636.000000
31
0.0
0
LINE
8
LINES
10
512.000000
20
512.000000
30
0.0
11
604.000000
21
512.000000
31
0.0
0
LINE
8
LINES
10
276.000000
20
744.000000
30
0.0
11
364.000000
21
744.000000
31
0.0
0
LINE
8
LINES
10
328.000000
20
916.000000
30
0.0
11
240.000000
21
916.000000
31
0.0
0
LINE
8
LINES
10
388.000000
20
556.000000
30
0.0
11
304.000000
21
556.000000
31
0.0
0
LINE
8
LINES
10
428.000000
20
920.000000
30
0.0
11
344.000000
21
920.000000
31
0.0
0
LINE
8
LINES
10
0.000000
20
584.000000
30
0.0
11
84.000000
21
584.000000
31
0.0
0
LINE
8
LINES
10
540.000000
20
932.000000
30
0.0
11
456.000000
21
932.000000
31
0.0
0
LINE
8
LINES
10
472.000000
20
620.000000
30
0.0
11
552.000000
21
620.000000
31
0.0
0
LINE
8
LINES
10
472.000000
20
552.000000
30
0.0
11
392.000000
21
552.000000
31
0.0
0
LINE
8
LINES
10
468.000000
20
568.000000
30
0.0
11
388.000000
21
568.000000
31
0.0
0
LINE
8
LINES
10
80.000000
20
408.000000
30
0.0
11
0.000000
21
408.000000
31
0.0
0
LINE
8
LINES
10
536.000000
20
456.000000
30
0.0
11
616.000000
21
456.000000
31
0.0
0
LINE
8
LINES
10
536.000000
20
184.000000
30
0.0
11
612.000000
21
184.000000
31
0.0
0
LINE
8
LINES
10
536.000000
20
440.000000
30
0.0
11
616.000000
21
440.000000
31
0.0
0
LINE
8
LINES
10
536.000000
20
556.000000
30
0.0
11
616.000000
21
556.000000
31
0.0
0
LINE
8
LINES
10
616.000000
20
284.000000
30
0.0
11
536.000000
21
284.000000
31
0.0
0
LINE
8
LINES
10
80.000000
20
860.000000
30
0.0
11
0.000000
21
860.000000
31
0.0
0
LINE
8
LINES
10
616.000000
20
492.000000
30
0.0
11
536.000000
21
492.000000
31
0.0
0
LINE
8
LINES
10
616.000000
20
436.000000
30
0.0
11
536.000000
21
436.000000
31
0.0
0
LINE
8
LINES
10
328.000000
20
924.000000
30
0.0
11
252.000000
21
924.000000
31
0.0
0
LINE
8
LINES
10
616.000000
20
396.000000
30
0.0
11
536.000000
21
396.000000
31
0.0
0
LINE
8
LINES
10
536.000000
20
280.000000
30
0.0
11
612.000000
21
280.000000
31
0.0
0
LINE
8
LINES
10
80.000000
20
560.000000
30
0.0
11
4.000000
21
560.000000
31
0.0
0
LINE
8
LINES
10
268.000000
20
344.000000
30
0.0
11
192.000000
21
344.000000
31
0.0
0
LINE
8
LINES
10
156.000000
20
560.000000
30
0.0
11
80.000000
21
560.000000
31
0.0
0
LINE
8
LINES
10
536.000000
20
236.000000
30
0.0
11
612.000000
21
236.000000
31
0.0
0
LINE
8
LINES
10
612.000000
20
272.000000
30
0.0
11
536.000000
21
272.000000
31
0.0
0
LINE
8
LINES
10
536.000000
20
220.000000
30
0.0
11
612.000000
21
220.000000
31
0.0
0
LINE
8
LINES
10
612.000000
20
176.000000
30
0.0
11
536.000000
21
176.000000
31
0.0
0
LINE
8
LINES
10
612.000000
20
216.000000
30
0.0
11
536.000000
21
216.000000
31
0.0
0
LINE
8
LINES
10
412.000000
20
384.000000
30
0.0
11
336.000000
21
384.000000
31
0.0
0
LINE
8
LINES
10
268.000000
20
220.000000
30
0.0
11
192.000000
21
220.000000
31
0.0
0
LINE
8
LINES
10
540.000000
20
344.000000
30
0.0
11
612.000000
21
344.000000
31
0.0
0
LINE
8
LINES
10
536.000000
20
328.000000
30
0.0
11
608.000000
21
328.000000
31
0.0
0
LINE
8
LINES
10
512.000000
20
384.000000
30
0.0
11
584.000000
21
384.000000
31
0.0
0
LINE
8
LINES
10
612.000000
20
164.000000
30
0.0
11
540.000000
21
164.000000
31
0.0
0
LINE
8
LINES
10
396.000000
20
220.000000
30
0.0
11
468.000000
21
220.000000
31
0.0
0
LINE
8
LINES
10
540.000000
20
176.000000
30
0.0
11
612.000000
21
176.000000
31
0.0
0
LINE
8
LINES
10
72.000000
20
284.000000
30
0.0
11
4.000000
21
284.000000
31
0.0
0
LINE
8
LINES
10
412.000000
20
1008.000000
30
0.0
11
480.000000
21
1008.000000
31
0.0
0
LINE
8
LINES
10
68.000000
20
448.000000
30
0.0
11
0.000000
21
448.000000
31
0.0
0
LINE
8
LINES
10
188.000000
20
464.000000
30
0.0
11
120.000000
21
464.000000
31
0.0
0
LINE
8
LINES
10
480.000000
20
380.000000
30
0.0
11
412.000000
21
380.000000
31
0.0
0
LINE
8
LINES
10
0.000000
20
360.000000
30
0.0
11
68.000000
21
360.000000
31
0.0
0
LINE
8
LINES
10
0.000000
20
344.000000
30
0.0
11
68.000000
21
344.000000
31
0.0
0
LINE
8
LINES
10
72.000000
20
296.000000
30
0.0
11
4.000000
21
296.000000
31
0.0
0
LINE
8
LINES
10
72.000000
20
188.000000
30
0.0
11
8.000000
21
188.000000
31
0.0
0
LINE
8
LINES
10
72.000000
20
240.000000
30
0.0
11
8.000000
21
240.000000
31
0.0
0
LINE
8
LINES
10
0.000000
20
528.000000
30
0.0
11
68.000000
21
528.000000
31
0.0
0
LINE
8
LINES
10
0.000000
20
416.000000
30
0.0
11
68.000000
21
416.000000
31
0.0
0
LINE
8
LINES
10
136.000000
20
628.000000
30
0.0
11
200.000000
21
628.000000
31
0.0
0
LINE
8
LINES
10
0.000000
20
296.000000
30
0.0
11
68.000000
21
296.000000
31
0.0
0
LINE
8
LINES
10
0.000000
20
188.000000
30
0.0
11
68.000000
21
188.000000
31
0.0
0
LINE
8
LINES
10
276.000000
20
560.000000
30
0.0
11
212.000000
21
560.000000
31
0.0
0
LINE
8
LINES
10
0.000000
20
472.000000
30
0.0
11
68.000000
21
472.000000
31
0.0
0
LINE
8
LINES
10
68.000000
20
520.000000
30
0.0
11
4.000000
21
520.000000
31
0.0
0
LINE
8
LINES
10
0.000000
20
520.000000
30
0.0
11
68.000000
21
520.000000
31
0.0
0
LINE
8
LINES
10
0.000000
20
456.000000
30
0.0
11
68.000000
21
456.000000
31
0.0
0
LINE
8
LINES
10
0.000000
20
628.000000
30
0.0
11
68.000000
21
628.000000
31
0.0
0
LINE
8
LINES
10
372.000000
20
748.000000
30
0.0
11
440.000000
21
748.000000
31
0.0
0
LINE
8
LINES
10
280.000000
20
156.000000
30
0.0
11
344.000000
21
156.000000
31
0.0
0
LINE
8
LINES
10
148.000000
20
392.000000
30
0.0
11
80.000000
21
392.000000
31
0.0
0
LINE
8
LINES
10
4.000000
20
304.000000
30
0.0
11
68.000000
21
304.000000
31
0.0
0
LINE
8
LINES
10
0.000000
20
408.000000
30
0.0
11
64.000000
21
408.000000
31
0.0
0
LINE
8
LINES
10
344.000000
20
1000.000000
30
0.0
11
344.000000
21
936.000000
31
0.0
0
LINE
8
LINES
10
268.000000
20
624.000000
30
0.0
11
332.000000
21
624.000000
31
0.0
0
LINE
8
LINES
10
424.000000
20
496.000000
30
0.0
11
360.000000
21
496.000000
31
0.0
0
LINE
8
LINES
10
4.000000
20
248.000000
30
0.0
11
68.000000
21
248.000000
31
0.0
0
LINE
8
LINES
10
136.000000
20
56.000000
30
0.0
11
200.000000
21
56.000000
31
0.0
0
LINE
8
LINES
10
392.000000
20
744.000000
30
0.0
11
328.000000
21
744.000000
31
0.0
0
LINE
8
LINES
10
376.000000
20
568.000000
30
0.0
11
440.000000
21
568.000000
31
0.0
0
LINE
8
LINES
10
408.000000
20
864.000000
30
0.0
11
340.000000
21
864.000000
31
0.0
0
LINE
8
LINES
10
376.000000
20
452.000000
30
0.0
11
440.000000
21
452.000000
31
0.0
0
LINE
8
LINES
10
72.000000
20
920.000000
30
0.0
11
72.000000
21
984.000000
31
0.0
0
LINE
8
LINES
10
296.000000
20
672.000000
30
0.0
11
360.000000
21
672.000000
31
0.0
0
LINE
8
LINES
10
612.000000
20
860.000000
30
0.0
11
548.000000
21
860.000000
31
0.0
0
LINE
8
LINES
10
348.000000
20
848.000000
30
0.0
11
284.000000
21
848.000000
31
0.0
0
LINE
8
LINES
10
68.000000
20
512.000000
30
0.0
11
132.000000
21
512.000000
31
0.0
0
LINE
8
LINES
10
520.000000
20
912.000000
30
0.0
11
456.000000
21
912.000000
31
0.0
0
LINE
8
LINES
10
376.000000
20
112.000000
30
0.0
11
312.000000
21
112.000000
31
0.0
0
LINE
8
LINES
10
460.000000
20
232.000000
30
0.0
11
396.000000
21
232.000000
31
0.0
0
LINE
8
LINES
10
480.000000
20
152.000000
30
0.0
11
544.000000
21
152.000000
31
0.0
0
LINE
8
LINES
10
16.000000
20
512.000000
30
0.0
11
76.000000
21
512.000000
31
0.0
0
LINE
8
LINES
10
532.000000
20
52.000000
30
0.0
11
596.000000
21
52.000000
31
0.0
0
LINE
8
LINES
10
16.000000
20
128.000000
30
0.0
11
80.000000
21
128.000000
31
0.0
0
LINE
8
LINES
10
612.000000
20
848.000000
30
0.0
11
548.000000
21
848.000000
31
0.0
0
LINE
8
LINES
10
72.000000
20
624.000000
30
0.0
11
132.000000
21
624.000000
31
0.0
0
LINE
8
LINES
10
8.000000
20
196.000000
30
0.0
11
72.000000
21
196.000000
31
0.0
0
LINE
8
LINES
10
256.000000
20
444.000000
30
0.0
11
192.000000
21
444.000000
31
0.0
0
LINE
8
LINES
10
256.000000
20
236.000000
30
0.0
11
196.000000
21
236.000000
31
0.0
0
LINE
8
LINES
10
452.000000
20
912.000000
30
0.0
11
392.000000
21
912.000000
31
0.0
0
LINE
8
LINES
10
232.000000
20
688.000000
30
0.0
11
292.000000
21
688.000000
31
0.0
0
LINE
8
LINES
10
608.000000
20
112.000000
30
0.0
11
544.000000
21
112.000000
31
0.0
0
LINE
8
LINES
10
84.000000
20
120.000000
30
0.0
11
24.000000
21
120.000000
31
0.0
0
LINE
8
LINES
10
0.000000
20
160.000000
30
0.0
11
0.000000
21
100.000000
31
0.0
0
LINE
8
LINES
10
216.000000
20
848.000000
30
0.0
11
156.000000
21
848.000000
31
0.0
0
LINE
8
LINES
10
72.000000
20
288.000000
30
0.0
11
132.000000
21
288.000000
31
0.0
0
LINE
8
LINES
10
76.000000
20
336.000000
30
0.0
11
16.000000
21
336.000000
31
0.0
0
LINE
8
LINES
10
208.000000
20
388.000000
30
0.0
11
148.000000
21
388.000000
31
0.0
0
LINE
8
LINES
10
8.000000
20
568.000000
30
0.0
11
68.000000
21
568.000000
31
0.0
0
LINE
8
LINES
10
192.000000
20
348.000000
30
0.0
11
132.000000
21
348.000000
31
0.0
0
LINE
8
LINES
10
388.000000
20
568.000000
30
0.0
11
328.000000
21
568.000000
31
0.0
0
LINE
8
LINES
10
392.000000
20
232.000000
30
0.0
11
332.000000
21
232.000000
31
0.0
0
LINE
8
LINES
10
124.000000
20
912.000000
30
0.0
11
64.000000
21
912.000000
31
0.0
0
LINE
8
LINES
10
188.000000
20
448.000000
30
0.0
11
128.000000
21
448.000000
31
0.0
0
LINE
8
LINES
10
80.000000
20
164.000000
30
0.0
11
136.000000
21
164.000000
31
0.0
0
LINE
8
LINES
10
408.000000
20
964.000000
30
0.0
11
468.000000
21
964.000000
31
0.0
0
LINE
8
LINES
10
556.000000
20
788.000000
30
0.0
11
616.000000
21
788.000000
31
0.0
0
LINE
8
LINES
10
412.000000
20
792.000000
30
0.0
11
352.000000
21
792.000000
31
0.0
0
LINE
8
LINES
10
256.000000
20
112.000000
30
0.0
11
196.000000
21
112.000000
31
0.0
0
LINE
8
LINES
10
136.000000
20
676.000000
30
0.0
11
192.000000
21
676.000000
31
0.0
0
LINE
8
LINES
10
60.000000
20
464.000000
30
0.0
11
0.000000
21
464.000000
31
0.0
0
LINE
8
LINES
10
144.000000
20
864.000000
30
0.0
11
84.000000
21
864.000000
31
0.0
0
LINE
8
LINES
10
0.000000
20
952.000000
30
0.0
11
24.000000
21
1004.000000
31
0.0
0
LINE
8
LINES
10
408.000000
20
852.000000
30
0.0
11
348.000000
21
852.000000
31
0.0
0
LINE
8
LINES
10
56.000000
20
504.000000
30
0.0
11
0.000000
21
504.000000
31
0.0
0
LINE
8
LINES
10
144.000000
20
1008.000000
30
0.0
11
200.000000
21
1008.000000
31
0.0
0
LINE
8
LINES
10
336.000000
20
224.000000
30
0.0
11
392.000000
21
224.000000
31
0.0
0
LINE
8
LINES
10
496.000000
20
788.000000
30
0.0
11
552.000000
21
788.000000
31
0.0
0
LINE
8
LINES
10
484.000000
20
268.000000
30
0.0
11
428.000000
21
268.000000
31
0.0
0
LINE
8
LINES
10
16.000000
20
692.000000
30
0.0
11
72.000000
21
692.000000
31
0.0
0
LINE
8
LINES
10
608.000000
20
928.000000
30
0.0
11
552.000000
21
928.000000
31
0.0
0
LINE
8
LINES
10
72.000000
20
392.000000
30
0.0
11
16.000000
21
392.000000
31
0.0
0
LINE
8
LINES
10
484.000000
20
492.000000
30
0.0
11
428.000000
21
492.000000
31
0.0
0
LINE
8
LINES
10
280.000000
20
276.000000
30
0.0
11
332.000000
21
276.000000
31
0.0
0
LINE
8
LINES
10
188.000000
20
452.000000
30
0.0
11
136.000000
21
452.000000
31
0.0
0
LINE
8
LINES
10
560.000000
20
616.000000
30
0.0
11
616.000000
21
616.000000
31
0.0
0
LINE
8
LINES
10
272.000000
20
848.000000
30
0.0
11
220.000000
21
848.000000
31
0.0
0
LINE
8
LINES
10
192.000000
20
1000.000000
30
0.0
11
140.000000
21
1000.000000
31
0.0
0
LINE
8
LINES
10
548.000000
20
788.000000
30
0.0
11
496.000000
21
788.000000
31
0.0
0
LINE
8
LINES
10
16.000000
20
232.000000
30
0.0
11
68.000000
21
232.000000
31
0.0
0
LINE
8
LINES
10
440.000000
20
748.000000
30
0.0
11
496.000000
21
748.000000
31
0.0
0
LINE
8
LINES
10
536.000000
20
848.000000
30
0.0
11
484.000000
21
848.000000
31
0.0
0
LINE
8
LINES
10
192.000000
20
240.000000
30
0.0
11
136.000000
21
240.000000
31
0.0
0
LINE
8
LINES
10
608.000000
20
916.000000
30
0.0
11
552.000000
21
916.000000
31
0.0
0
LINE
8
LINES
10
132.000000
20
404.000000
30
0.0
11
80.000000
21
404.000000
31
0.0
0
LINE
8
LINES
10
72.000000
20
228.000000
30
0.0
11
20.000000
21
228.000000
31
0.0
0
LINE
8
LINES
10
16.000000
20
400.000000
30
0.0
11
68.000000
21
400.000000
31
0.0
0
LINE
8
LINES
10
304.000000
20
748.000000
30
0.0
11
360.000000
21
748.000000
31
0.0
0
LINE
8
LINES
10
64.000000
20
176.000000
30
0.0
11
12.000000
21
176.000000
31
0.0
0
LINE
8
LINES
10
388.000000
20
272.000000
30
0.0
11
336.000000
21
272.000000
31
0.0
0
LINE
8
LINES
10
540.000000
20
168.000000
30
0.0
11
592.000000
21
168.000000
31
0.0
0
LINE
8
LINES
10
72.000000
20
692.000000
30
0.0
11
128.000000
21
692.000000
31
0.0
0
LINE
8
LINES
10
144.000000
20
848.000000
30
0.0
11
92.000000
21
848.000000
31
0.0
0
LINE
8
LINES
10
280.000000
20
496.000000
30
0.0
11
332.000000
21
496.000000
31
0.0
0
LINE
8
LINES
10
616.000000
20
564.000000
30
0.0
11
564.000000
21
564.000000
31
0.0
0
LINE
8
LINES
10
564.000000
20
336.000000
30
0.0
11
512.000000
21
336.000000
31
0.0
0
LINE
8
LINES
10
536.000000
20
380.000000
30
0.0
11
488.000000
21
380.000000
31
0.0
0
LINE
8
LINES
10
280.000000
20
512.000000
30
0.0
11
332.000000
21
512.000000
31
0.0
0
LINE
8
LINES
10
132.000000
20
276.000000
30
0.0
11
84.000000
21
276.000000
31
0.0
0
LINE
8
LINES
10
332.000000
20
284.000000
30
0.0
11
284.000000
21
284.000000
31
0.0
0
LINE
8
LINES
10
32.000000
20
1020.000000
30
0.0
11
84.000000
21
1020.000000
31
0.0
0
LINE
8
LINES
10
544.000000
20
868.000000
30
0.0
11
592.000000
21
868.000000
31
0.0
0
LINE
8
LINES
10
536.000000
20
392.000000
30
0.0
11
488.000000
21
392.000000
31
0.0
0
LINE
8
LINES
10
84.000000
20
984.000000
30
0.0
11
84.000000
21
936.000000
31
0.0
0
LINE
8
LINES
10
476.000000
20
964.000000
30
0.0
11
524.000000
21
964.000000
31
0.0
0
LINE
8
LINES
10
464.000000
20
164.000000
30
0.0
11
412.000000
21
164.000000
31
0.0
0
LINE
8
LINES
10
240.000000
20
572.000000
30
0.0
11
192.000000
21
572.000000
31
0.0
0
LINE
8
LINES
10
512.000000
20
504.000000
30
0.0
11
468.000000
21
504.000000
31
0.0
0
LINE
8
LINES
10
156.000000
20
336.000000
30
0.0
11
108.000000
21
336.000000
31
0.0
0
LINE
8
LINES
10
584.000000
20
380.000000
30
0.0
11
536.000000
21
380.000000
31
0.0
0
LINE
8
LINES
10
536.000000
20
936.000000
30
0.0
11
584.000000
21
936.000000
31
0.0
0
LINE
8
LINES
10
256.000000
20
460.000000
30
0.0
11
208.000000
21
460.000000
31
0.0
0
LINE
8
LINES
10
592.000000
20
340.000000
30
0.0
11
544.000000
21
340.000000
31
0.0
0
LINE
8
LINES
10
20.000000
20
288.000000
30
0.0
11
68.000000
21
288.000000
31
0.0
0
LINE
8
LINES
10
384.000000
20
912.000000
30
0.0
11
336.000000
21
912.000000
31
0.0
0
LINE
8
LINES
10
144.000000
20
688.000000
30
0.0
11
192.000000
21
688.000000
31
0.0
0
LINE
8
LINES
10
84.000000
20
464.000000
30
0.0
11
128.000000
21
464.000000
31
0.0
0
LINE
8
LINES
10
360.000000
20
564.000000
30
0.0
11
312.000000
21
564.000000
31
0.0
0
LINE
8
LINES
10
612.000000
20
120.000000
30
0.0
11
564.000000
21
120.000000
31
0.0
0
LINE
8
LINES
10
564.000000
20
444.000000
30
0.0
11
520.000000
21
444.000000
31
0.0
0
LINE
8
LINES
10
356.000000
20
500.000000
30
0.0
11
312.000000
21
500.000000
31
0.0
0
LINE
8
LINES
10
192.000000
20
224.000000
30
0.0
11
148.000000
21
224.000000
31
0.0
0
LINE
8
LINES
10
376.000000
20
328.000000
30
0.0
11
328.000000
21
328.000000
31
0.0
0
LINE
8
LINES
10
48.000000
20
792.000000
30
0.0
11
0.000000
21
792.000000
31
0.0
0
LINE
8
LINES
10
540.000000
20
964.000000
30
0.0
11
584.000000
21
964.000000
31
0.0
0
LINE
8
LINES
10
452.000000
20
864.000000
30
0.0
11
408.000000
21
864.000000
31
0.0
0
LINE
8
LINES
10
512.000000
20
276.000000
30
0.0
11
468.000000
21
276.000000
31
0.0
0
LINE
8
LINES
10
196.000000
20
744.000000
30
0.0
11
240.000000
21
744.000000
31
0.0
0
LINE
8
LINES
10
592.000000
20
452.000000
30
0.0
11
548.000000
21
452.000000
31
0.0
0
LINE
8
LINES
10
592.000000
20
232.000000
30
0.0
11
548.000000
21
232.000000
31
0.0
0
LINE
8
LINES
10
468.000000
20
512.000000
30
0.0
11
512.000000
21
512.000000
31
0.0
0
LINE
8
LINES
10
408.000000
20
1008.000000
30
0.0
11
408.000000
21
968.000000
31
0.0
0
LINE
8
LINES
10
584.000000
20
912.000000
30
0.0
11
544.000000
21
912.000000
31
0.0
0
LINE
8
LINES
10
424.000000
20
500.000000
30
0.0
11
468.000000
21
500.000000
31
0.0
0
LINE
8
LINES
10
548.000000
20
496.000000
30
0.0
11
592.000000
21
496.000000
31
0.0
0
LINE
8
LINES
10
148.000000
20
964.000000
30
0.0
11
192.000000
21
964.000000
31
0.0
0
LINE
8
LINES
10
588.000000
20
124.000000
30
0.0
11
548.000000
21
124.000000
31
0.0
0
LINE
8
LINES
10
276.000000
20
224.000000
30
0.0
11
232.000000
21
224.000000
31
0.0
0
LINE
8
LINES
10
480.000000
20
912.000000
30
0.0
11
480.000000
21
868.000000
31
0.0
0
LINE
8
LINES
10
492.000000
20
992.000000
30
0.0
11
452.000000
21
992.000000
31
0.0
0
LINE
8
LINES
10
52.000000
20
400.000000
30
0.0
11
12.000000
21
400.000000
31
0.0
0
LINE
8
LINES
10
224.000000
20
392.000000
30
0.0
11
264.000000
21
392.000000
31
0.0
0
LINE
8
LINES
10
348.000000
20
964.000000
30
0.0
11
388.000000
21
964.000000
31
0.0
0
LINE
8
LINES
10
472.000000
20
440.000000
30
0.0
11
512.000000
21
440.000000
31
0.0
0
LINE
8
LINES
10
480.000000
20
556.000000
30
0.0
11
440.000000
21
556.000000
31
0.0
0
LINE
8
LINES
10
472.000000
20
568.000000
30
0.0
11
512.000000
21
568.000000
31
0.0
0
LINE
8
LINES
10
0.000000
20
932.000000
30
0.0
11
40.000000
21
932.000000
31
0.0
0
LINE
8
LINES
10
40.000000
20
924.000000
30
0.0
11
0.000000
21
924.000000
31
0.0
0
LINE
8
LINES
10
484.000000
20
792.000000
30
0.0
11
444.000000
21
792.000000
31
0.0
0
LINE
8
LINES
10
392.000000
20
164.000000
30
0.0
11
352.000000
21
164.000000
31
0.0
0
LINE
8
LINES
10
396.000000
20
672.000000
30
0.0
11
436.000000
21
672.000000
31
0.0
0
LINE
8
LINES
10
56.000000
20
352.000000
30
0.0
11
16.000000
21
352.000000
31
0.0
0
LINE
8
LINES
10
88.000000
20
964.000000
30
0.0
11
128.000000
21
964.000000
31
0.0
0
LINE
8
LINES
10
576.000000
20
628.000000
30
0.0
11
616.000000
21
628.000000
31
0.0
0
LINE
8
LINES
10
0.000000
20
916.000000
30
0.0
11
40.000000
21
916.000000
31
0.0
0
LINE
8
LINES
10
616.000000
20
332.000000
30
0.0
11
576.000000
21
332.000000
31
0.0
0
LINE
8
LINES
10
204.000000
20
1020.000000
30
0.0
11
164.000000
21
1020.000000
31
0.0
0
LINE
8
LINES
10
456.000000
20
848.000000
30
0.0
11
416.000000
21
848.000000
31
0.0
0
LINE
8
LINES
10
0.000000
20
636.000000
30
0.0
11
40.000000
21
636.000000
31
0.0
0
LINE
8
LINES
10
432.000000
20
740.000000
30
0.0
11
468.000000
21
740.000000
31
0.0
0
LINE
8
LINES
10
388.000000
20
944.000000
30
0.0
11
348.000000
21
944.000000
31
0.0
0
LINE
8
LINES
10
100.000000
20
456.000000
30
0.0
11
60.000000
21
464.000000
31
0.0
0
LINE
8
LINES
10
528.000000
20
448.000000
30
0.0
11
492.000000
21
448.000000
31
0.0
0
LINE
8
LINES
10
72.000000
20
576.000000
30
0.0
11
32.000000
21
576.000000
31
0.0
0
LINE
8
LINES
10
480.000000
20
784.000000
30
0.0
11
480.000000
21
748.000000
31
0.0
0
LINE
8
LINES
10
40.000000
20
456.000000
30
0.0
11
4.000000
21
456.000000
31
0.0
0
LINE
8
LINES
10
616.000000
20
556.000000
30
0.0
11
576.000000
21
556.000000
31
0.0
0
LINE
8
LINES
10
296.000000
20
688.000000
30
0.0
11
332.000000
21
688.000000
31
0.0
0
LINE
8
LINES
10
508.000000
20
784.000000
30
0.0
11
508.000000
21
748.000000
31
0.0
0
LINE
8
LINES
10
496.000000
20
52.000000
30
0.0
11
532.000000
21
52.000000
31
0.0
0
LINE
8
LINES
10
576.000000
20
784.000000
30
0.0
11
576.000000
21
744.000000
31
0.0
0
LINE
8
LINES
10
548.000000
20
784.000000
30
0.0
11
548.000000
21
748.000000
31
0.0
0
LINE
8
LINES
10
368.000000
20
740.000000
30
0.0
11
404.000000
21
740.000000
31
0.0
0
LINE
8
LINES
10
40.000000
20
912.000000
30
0.0
11
0.000000
21
912.000000
31
0.0
0
LINE
8
LINES
10
508.000000
20
672.000000
30
0.0
11
544.000000
21
672.000000
31
0.0
0
LINE
8
LINES
10
488.000000
20
492.000000
30
0.0
11
524.000000
21
492.000000
31
0.0
0
LINE
8
LINES
10
0.000000
20
928.000000
30
0.0
11
40.000000
21
928.000000
31
0.0
0
LINE
8
LINES
10
40.000000
20
928.000000
30
0.0
11
0.000000
21
928.000000
31
0.0
0
LINE
8
LINES
10
520.000000
20
864.000000
30
0.0
11
480.000000
21
864.000000
31
0.0
0
LINE
8
LINES
10
280.000000
20
568.000000
30
0.0
11
240.000000
21
568.000000
31
0.0
0
LINE
8
LINES
10
444.000000
20
608.000000
30
0.0
11
444.000000
21
572.000000
31
0.0
0
LINE
8
LINES
10
612.000000
20
224.000000
30
0.0
11
576.000000
21
224.000000
31
0.0
0
LINE
8
LINES
10
548.000000
20
908.000000
30
0.0
11
548.000000
21
872.000000
31
0.0
0
LINE
8
LINES
10
168.000000
20
392.000000
30
0.0
11
208.000000
21
392.000000
31
0.0
0
LINE
8
LINES
10
412.000000
20
784.000000
30
0.0
11
412.000000
21
748.000000
31
0.0
0
LINE
8
LINES
10
0.000000
20
748.000000
30
0.0
11
36.000000
21
748.000000
31
0.0
0
LINE
8
LINES
10
440.000000
20
784.000000
30
0.0
11
440.000000
21
748.000000
31
0.0
0
LINE
8
LINES
10
64.000000
20
908.000000
30
0.0
11
24.000000
21
908.000000
31
0.0
0
LINE
8
LINES
10
236.000000
20
632.000000
30
0.0
11
272.000000
21
632.000000
31
0.0
0
LINE
8
LINES
10
368.000000
20
688.000000
30
0.0
11
408.000000
21
688.000000
31
0.0
0
LINE
8
LINES
10
244.000000
20
832.000000
30
0.0
11
280.000000
21
832.000000
31
0.0
0
LINE
8
LINES
10
512.000000
20
828.000000
30
0.0
11
548.000000
21
828.000000
31
0.0
0
LINE
8
LINES
10
144.000000
20
744.000000
30
0.0
11
108.000000
21
744.000000
31
0.0
0
LINE
8
LINES
10
224.000000
20
624.000000
30
0.0
11
256.000000
21
624.000000
31
0.0
0
LINE
8
LINES
10
212.000000
20
964.000000
30
0.0
11
248.000000
21
964.000000
31
0.0
0
LINE
8
LINES
10
252.000000
20
940.000000
30
0.0
11
216.000000
21
940.000000
31
0.0
0
LINE
8
LINES
10
336.000000
20
864.000000
30
0.0
11
304.000000
21
864.000000
31
0.0
0
LINE
8
LINES
10
144.000000
20
224.000000
30
0.0
11
112.000000
21
216.000000
31
0.0
0
LINE
8
LINES
10
80.000000
20
232.000000
30
0.0
11
48.000000
21
232.000000
31
0.0
0
LINE
8
LINES
10
96.000000
20
388.000000
30
0.0
11
132.000000
21
388.000000
31
0.0
0
LINE
8
LINES
10
480.000000
20
224.000000
30
0.0
11
444.000000
21
224.000000
31
0.0
0
LINE
8
LINES
10
580.000000
20
480.000000
30
0.0
11
616.000000
21
480.000000
31
0.0
0
LINE
8
LINES
10
352.000000
20
220.000000
30
0.0
11
316.000000
21
212.000000
31
0.0
0
LINE
8
LINES
10
444.000000
20
328.000000
30
0.0
11
444.000000
21
292.000000
31
0.0
0
LINE
8
LINES
10
376.000000
20
272.000000
30
0.0
11
376.000000
21
236.000000
31
0.0
0
LINE
8
LINES
10
376.000000
20
552.000000
30
0.0
11
376.000000
21
520.000000
31
0.0
0
LINE
8
LINES
10
80.000000
20
568.000000
30
0.0
11
44.000000
21
568.000000
31
0.0
0
LINE
8
LINES
10
408.000000
20
560.000000
30
0.0
11
372.000000
21
560.000000
31
0.0
0
LINE
8
LINES
10
616.000000
20
360.000000
30
0.0
11
580.000000
21
356.000000
31
0.0
0
LINE
8
LINES
10
580.000000
20
668.000000
30
0.0
11
616.000000
21
668.000000
31
0.0
0
LINE
8
LINES
10
576.000000
20
492.000000
30
0.0
11
576.000000
21
456.000000
31
0.0
0
LINE
8
LINES
10
548.000000
20
608.000000
30
0.0
11
548.000000
21
572.000000
31
0.0
0
LINE
8
LINES
10
444.000000
20
384.000000
30
0.0
11
444.000000
21
348.000000
31
0.0
0
LINE
8
LINES
10
512.000000
20
108.000000
30
0.0
11
512.000000
21
72.000000
31
0.0
0
LINE
8
LINES
10
548.000000
20
720.000000
30
0.0
11
548.000000
21
684.000000
31
0.0
0
LINE
8
LINES
10
580.000000
20
424.000000
30
0.0
11
616.000000
21
424.000000
31
0.0
0
LINE
8
LINES
10
608.000000
20
960.000000
30
0.0
11
608.000000
21
924.000000
31
0.0
0
LINE
8
LINES
10
356.000000
20
500.000000
30
0.0
11
392.000000
21
500.000000
31
0.0
0
LINE
8
LINES
10
560.000000
20
276.000000
30
0.0
11
592.000000
21
276.000000
31
0.0
0
LINE
8
LINES
10
540.000000
20
168.000000
30
0.0
11
504.000000
21
156.000000
31
0.0
0
LINE
8
LINES
10
116.000000
20
612.000000
30
0.0
11
116.000000
21
576.000000
31
0.0
0
LINE
8
LINES
10
72.000000
20
336.000000
30
0.0
11
104.000000
21
336.000000
31
0.0
0
LINE
8
LINES
10
416.000000
20
720.000000
30
0.0
11
416.000000
21
688.000000
31
0.0
0
LINE
8
LINES
10
444.000000
20
720.000000
30
0.0
11
444.000000
21
688.000000
31
0.0
0
LINE
8
LINES
10
444.000000
20
664.000000
30
0.0
11
444.000000
21
632.000000
31
0.0
0
LINE
8
LINES
10
76.000000
20
456.000000
30
0.0
11
44.000000
21
456.000000
31
0.0
0
LINE
8
LINES
10
580.000000
20
536.000000
30
0.0
11
616.000000
21
536.000000
31
0.0
0
LINE
8
LINES
10
376.000000
20
424.000000
30
0.0
11
412.000000
21
424.000000
31
0.0
0
LINE
8
LINES
10
444.000000
20
436.000000
30
0.0
11
444.000000
21
404.000000
31
0.0
0
LINE
8
LINES
10
376.000000
20
216.000000
30
0.0
11
376.000000
21
184.000000
31
0.0
0
LINE
8
LINES
10
444.000000
20
272.000000
30
0.0
11
444.000000
21
236.000000
31
0.0
0
LINE
8
LINES
10
264.000000
20
452.000000
30
0.0
11
228.000000
21
452.000000
31
0.0
0
LINE
8
LINES
10
480.000000
20
852.000000
30
0.0
11
480.000000
21
816.000000
31
0.0
0
LINE
8
LINES
10
312.000000
20
108.000000
30
0.0
11
312.000000
21
76.000000
31
0.0
0
LINE
8
LINES
10
116.000000
20
828.000000
30
0.0
11
152.000000
21
828.000000
31
0.0
0
LINE
8
LINES
10
612.000000
20
668.000000
30
0.0
11
576.000000
21
668.000000
31
0.0
0
LINE
8
LINES
10
176.000000
20
572.000000
30
0.0
11
208.000000
21
572.000000
31
0.0
0
LINE
8
LINES
10
548.000000
20
848.000000
30
0.0
11
548.000000
21
812.000000
31
0.0
0
LINE
8
LINES
10
508.000000
20
676.000000
30
0.0
11
544.000000
21
676.000000
31
0.0
0
LINE
8
LINES
10
492.000000
20
372.000000
30
0.0
11
492.000000
21
340.000000
31
0.0
0
LINE
8
LINES
10
376.000000
20
480.000000
30
0.0
11
412.000000
21
480.000000
31
0.0
0
LINE
8
LINES
10
424.000000
20
272.000000
30
0.0
11
388.000000
21
272.000000
31
0.0
0
LINE
8
LINES
10
444.000000
20
108.000000
30
0.0
11
444.000000
21
76.000000
31
0.0
0
LINE
8
LINES
10
480.000000
20
108.000000
30
0.0
11
480.000000
21
72.000000
31
0.0
0
LINE
8
LINES
10
292.000000
20
112.000000
30
0.0
11
256.000000
21
112.000000
31
0.0
0
LINE
8
LINES
10
184.000000
20
112.000000
30
0.0
11
184.000000
21
80.000000
31
0.0
0
LINE
8
LINES
10
312.000000
20
832.000000
30
0.0
11
348.000000
21
832.000000
31
0.0
0
LINE
8
LINES
10
612.000000
20
924.000000
30
0.0
11
612.000000
21
956.000000
31
0.0
0
LINE
8
LINES
10
496.000000
20
124.000000
30
0.0
11
464.000000
21
124.000000
31
0.0
0
LINE
8
LINES
10
548.000000
20
324.000000
30
0.0
11
548.000000
21
292.000000
31
0.0
0
LINE
8
LINES
10
416.000000
20
216.000000
30
0.0
11
416.000000
21
184.000000
31
0.0
0
LINE
8
LINES
10
380.000000
20
160.000000
30
0.0
11
380.000000
21
128.000000
31
0.0
0
LINE
8
LINES
10
416.000000
20
160.000000
30
0.0
11
416.000000
21
128.000000
31
0.0
0
LINE
8
LINES
10
444.000000
20
216.000000
30
0.0
11
444.000000
21
184.000000
31
0.0
0
LINE
8
LINES
10
444.000000
20
160.000000
30
0.0
11
444.000000
21
128.000000
31
0.0
0
LINE
8
LINES
10
248.000000
20
108.000000
30
0.0
11
248.000000
21
76.000000
31
0.0
0
LINE
8
LINES
10
412.000000
20
112.000000
30
0.0
11
380.000000
21
112.000000
31
0.0
0
LINE
8
LINES
10
476.000000
20
376.000000
30
0.0
11
476.000000
21
344.000000
31
0.0
0
LINE
8
LINES
10
576.000000
20
216.000000
30
0.0
11
576.000000
21
184.000000
31
0.0
0
LINE
8
LINES
10
576.000000
20
268.000000
30
0.0
11
576.000000
21
236.000000
31
0.0
0
LINE
8
LINES
10
548.000000
20
268.000000
30
0.0
11
548.000000
21
236.000000
31
0.0
0
LINE
8
LINES
10
548.000000
20
216.000000
30
0.0
11
548.000000
21
184.000000
31
0.0
0
LINE
8
LINES
10
548.000000
20
164.000000
30
0.0
11
548.000000
21
132.000000
31
0.0
0
LINE
8
LINES
10
352.000000
20
108.000000
30
0.0
11
352.000000
21
76.000000
31
0.0
0
LINE
8
LINES
10
380.000000
20
108.000000
30
0.0
11
380.000000
21
72.000000
31
0.0
0
LINE
8
LINES
10
220.000000
20
112.000000
30
0.0
11
220.000000
21
80.000000
31
0.0
0
LINE
8
LINES
10
496.000000
20
156.000000
30
0.0
11
464.000000
21
168.000000
31
0.0
0
LINE
8
LINES
10
28.000000
20
120.000000
30
0.0
11
28.000000
21
88.000000
31
0.0
0
LINE
8
LINES
10
364.000000
20
348.000000
30
0.0
11
364.000000
21
380.000000
31
0.0
0
LINE
8
LINES
10
492.000000
20
208.000000
30
0.0
11
492.000000
21
176.000000
31
0.0
0
LINE
8
LINES
10
444.000000
20
492.000000
30
0.0
11
444.000000
21
460.000000
31
0.0
0
LINE
8
LINES
10
68.000000
20
344.000000
30
0.0
11
36.000000
21
344.000000
31
0.0
0
LINE
8
LINES
10
584.000000
20
704.000000
30
0.0
11
616.000000
21
704.000000
31
0.0
0
LINE
8
LINES
10
64.000000
20
848.000000
30
0.0
11
32.000000
21
848.000000
31
0.0
0
LINE
8
LINES
10
348.000000
20
848.000000
30
0.0
11
348.000000
21
816.000000
31
0.0
0
LINE
8
LINES
10
584.000000
20
592.000000
30
0.0
11
616.000000
21
592.000000
31
0.0
0
LINE
8
LINES
10
548.000000
20
660.000000
30
0.0
11
548.000000
21
628.000000
31
0.0
0
LINE
8
LINES
10
92.000000
20
848.000000
30
0.0
11
92.000000
21
816.000000
31
0.0
0
LINE
8
LINES
10
464.000000
20
628.000000
30
0.0
11
496.000000
21
628.000000
31
0.0
0
LINE
8
LINES
10
156.000000
20
848.000000
30
0.0
11
156.000000
21
816.000000
31
0.0
0
LINE
8
LINES
10
616.000000
20
704.000000
30
0.0
11
584.000000
21
704.000000
31
0.0
0
LINE
8
LINES
10
284.000000
20
848.000000
30
0.0
11
284.000000
21
816.000000
31
0.0
0
LINE
8
LINES
10
116.000000
20
116.000000
30
0.0
11
116.000000
21
84.000000
31
0.0
0
LINE
8
LINES
10
612.000000
20
212.000000
30
0.0
11
580.000000
21
212.000000
31
0.0
0
LINE
8
LINES
10
560.000000
20
568.000000
30
0.0
11
532.000000
21
568.000000
31
0.0
0
LINE
8
LINES
10
544.000000
20
816.000000
30
0.0
11
512.000000
21
816.000000
31
0.0
0
LINE
8
LINES
10
392.000000
20
276.000000
30
0.0
11
424.000000
21
276.000000
31
0.0
0
LINE
8
LINES
10
80.000000
20
744.000000
30
0.0
11
52.000000
21
744.000000
31
0.0
0
LINE
8
LINES
10
360.000000
20
168.000000
30
0.0
11
392.000000
21
168.000000
31
0.0
0
LINE
8
LINES
10
296.000000
20
128.000000
30
0.0
11
264.000000
21
128.000000
31
0.0
0
LINE
8
LINES
10
336.000000
20
688.000000
30
0.0
11
368.000000
21
688.000000
31
0.0
0
LINE
8
LINES
10
156.000000
20
908.000000
30
0.0
11
156.000000
21
880.000000
31
0.0
0
LINE
8
LINES
10
280.000000
20
788.000000
30
0.0
11
280.000000
21
756.000000
31
0.0
0
LINE
8
LINES
10
408.000000
20
476.000000
30
0.0
11
380.000000
21
468.000000
31
0.0
0
LINE
8
LINES
10
144.000000
20
232.000000
30
0.0
11
116.000000
21
232.000000
31
0.0
0
LINE
8
LINES
10
76.000000
20
352.000000
30
0.0
11
104.000000
21
352.000000
31
0.0
0
LINE
8
LINES
10
140.000000
20
616.000000
30
0.0
11
108.000000
21
616.000000
31
0.0
0
LINE
8
LINES
10
328.000000
20
164.000000
30
0.0
11
296.000000
21
164.000000
31
0.0
0
LINE
8
LINES
10
616.000000
20
320.000000
30
0.0
11
584.000000
21
320.000000
31
0.0
0
LINE
8
LINES
10
548.000000
20
432.000000
30
0.0
11
548.000000
21
400.000000
31
0.0
0
LINE
8
LINES
10
584.000000
20
544.000000
30
0.0
11
616.000000
21
544.000000
31
0.0
0
LINE
8
LINES
10
380.000000
20
664.000000
30
0.0
11
412.000000
21
664.000000
31
0.0
0
LINE
8
LINES
10
304.000000
20
632.000000
30
0.0
11
336.000000
21
632.000000
31
0.0
0
LINE
8
LINES
10
416.000000
20
108.000000
30
0.0
11
416.000000
21
80.000000
31
0.0
0
LINE
8
LINES
10
116.000000
20
784.000000
30
0.0
11
116.000000
21
756.000000
31
0.0
0
LINE
8
LINES
10
32.000000
20
848.000000
30
0.0
11
32.000000
21
816.000000
31
0.0
0
LINE
8
LINES
10
88.000000
20
116.000000
30
0.0
11
88.000000
21
88.000000
31
0.0
0
LINE
8
LINES
10
240.000000
20
8.000000
30
0.0
11
212.000000
21
8.000000
31
0.0
0
LINE
8
LINES
10
540.000000
20
832.000000
30
0.0
11
512.000000
21
832.000000
31
0.0
0
LINE
8
LINES
10
20.000000
20
180.000000
30
0.0
11
48.000000
21
180.000000
31
0.0
0
LINE
8
LINES
10
312.000000
20
492.000000
30
0.0
11
280.000000
21
492.000000
31
0.0
0
LINE
8
LINES
10
408.000000
20
420.000000
30
0.0
11
380.000000
21
420.000000
31
0.0
0
LINE
8
LINES
10
212.000000
20
996.000000
30
0.0
11
212.000000
21
968.000000
31
0.0
0
LINE
8
LINES
10
32.000000
20
904.000000
30
0.0
11
0.000000
21
904.000000
31
0.0
0
LINE
8
LINES
10
112.000000
20
448.000000
30
0.0
11
80.000000
21
448.000000
31
0.0
0
LINE
8
LINES
10
88.000000
20
784.000000
30
0.0
11
88.000000
21
756.000000
31
0.0
0
LINE
8
LINES
10
380.000000
20
608.000000
30
0.0
11
412.000000
21
608.000000
31
0.0
0
LINE
8
LINES
10
380.000000
20
596.000000
30
0.0
11
412.000000
21
596.000000
31
0.0
0
LINE
8
LINES
10
384.000000
20
536.000000
30
0.0
11
412.000000
21
536.000000
31
0.0
0
LINE
8
LINES
10
516.000000
20
704.000000
30
0.0
11
544.000000
21
704.000000
31
0.0
0
LINE
8
LINES
10
392.000000
20
500.000000
30
0.0
11
424.000000
21
500.000000
31
0.0
0
LINE
8
LINES
10
32.000000
20
908.000000
30
0.0
11
32.000000
21
880.000000
31
0.0
0
LINE
8
LINES
10
428.000000
20
168.000000
30
0.0
11
456.000000
21
168.000000
31
0.0
0
ENDSEC
0
EOF
